; NON-PLATED HOLES START AT T1
; THROUGH (PLATED) HOLES START AT T100
M48
INCH
T100C0.038000
T101C0.040000
%
T100
X011130Y002427
X011130Y006427
X000894Y003427
X000894Y006427
X011130Y007427
X011130Y005427
X011130Y004427
X000894Y002427
X011130Y003427
X000894Y007427
X000894Y004427
X000894Y005427
T101
X007043Y008884
X007043Y000884
X004043Y000884
X006043Y008884
X009043Y000884
X005043Y000884
X004043Y008884
X005043Y008884
X006043Y000884
X008043Y000884
X003043Y000884
X010043Y000884
X002043Y000884
T00
M30
