G04 MADE WITH FRITZING*
G04 WWW.FRITZING.ORG*
G04 DOUBLE SIDED*
G04 HOLES PLATED*
G04 CONTOUR ON CENTER OF CONTOUR VECTOR*
%ASAXBY*%
%FSLAX23Y23*%
%MOIN*%
%OFA0B0*%
%SFA1.0B1.0*%
%ADD10C,0.075000*%
%ADD11C,0.078000*%
%ADD12C,0.066929*%
%ADD13C,0.039370*%
%ADD14C,0.024000*%
%ADD15C,0.008000*%
%LNCOPPER0*%
G90*
G70*
G54D10*
X943Y2485D03*
G54D11*
X853Y2445D03*
X753Y2445D03*
X653Y2445D03*
X553Y2445D03*
X453Y2445D03*
X353Y2445D03*
G54D12*
X100Y2241D03*
X100Y2141D03*
X100Y2041D03*
X100Y1941D03*
X100Y1841D03*
X100Y1741D03*
X100Y1641D03*
X100Y1541D03*
X100Y1441D03*
X100Y1341D03*
X100Y1241D03*
X100Y1141D03*
X100Y1041D03*
X100Y941D03*
X100Y841D03*
X100Y741D03*
X100Y641D03*
X100Y541D03*
X100Y441D03*
X100Y341D03*
X100Y2241D03*
X100Y2141D03*
X100Y2041D03*
X100Y1941D03*
X100Y1841D03*
X100Y1741D03*
X100Y1641D03*
X100Y1541D03*
X100Y1441D03*
X100Y1341D03*
X100Y1241D03*
X100Y1141D03*
X100Y1041D03*
X100Y941D03*
X100Y841D03*
X100Y741D03*
X100Y641D03*
X100Y541D03*
X100Y441D03*
X100Y341D03*
X200Y341D03*
X200Y441D03*
X200Y541D03*
X200Y641D03*
X200Y741D03*
X200Y841D03*
X200Y941D03*
X200Y1041D03*
X200Y1141D03*
X200Y1241D03*
X200Y1341D03*
X200Y1441D03*
X200Y1541D03*
X200Y1641D03*
X200Y1741D03*
X200Y1841D03*
X200Y1941D03*
X200Y2041D03*
X200Y2141D03*
X200Y2241D03*
X423Y1153D03*
X423Y1053D03*
X423Y953D03*
X423Y853D03*
X423Y753D03*
X423Y653D03*
X423Y553D03*
X423Y453D03*
X824Y1251D03*
X824Y1151D03*
X824Y1051D03*
X824Y951D03*
X824Y851D03*
X824Y751D03*
X824Y651D03*
X824Y551D03*
X824Y451D03*
X824Y351D03*
X824Y251D03*
G54D13*
X470Y1002D03*
G54D14*
X349Y853D02*
X317Y812D01*
D02*
X297Y447D02*
X231Y443D01*
D02*
X392Y853D02*
X349Y853D01*
D02*
X316Y475D02*
X297Y447D01*
D02*
X317Y812D02*
X316Y475D01*
G54D15*
D02*
X309Y912D02*
X308Y975D01*
D02*
X308Y975D02*
X301Y987D01*
D02*
X317Y900D02*
X309Y912D01*
D02*
X466Y900D02*
X317Y900D01*
D02*
X301Y987D02*
X155Y990D01*
D02*
X470Y652D02*
X482Y667D01*
D02*
X482Y667D02*
X482Y884D01*
D02*
X482Y884D02*
X466Y900D01*
D02*
X448Y652D02*
X470Y652D01*
D02*
X155Y990D02*
X119Y1024D01*
D02*
X305Y1105D02*
X293Y1089D01*
D02*
X514Y1089D02*
X502Y1105D01*
D02*
X502Y554D02*
X513Y574D01*
D02*
X513Y574D02*
X514Y1089D01*
D02*
X448Y553D02*
X502Y554D01*
D02*
X159Y1089D02*
X119Y1125D01*
D02*
X293Y1089D02*
X159Y1089D01*
D02*
X502Y1105D02*
X305Y1105D01*
D02*
X309Y1042D02*
X225Y1041D01*
D02*
X317Y1030D02*
X309Y1042D01*
D02*
X317Y1014D02*
X317Y1030D01*
D02*
X457Y1002D02*
X325Y1002D01*
D02*
X325Y1002D02*
X317Y1014D01*
G54D14*
D02*
X753Y2415D02*
X751Y1183D01*
D02*
X751Y1183D02*
X773Y1152D01*
D02*
X773Y1152D02*
X794Y1151D01*
G36*
X40Y2229D02*
X40Y2155D01*
X60Y2155D01*
X60Y2161D01*
X62Y2161D01*
X62Y2165D01*
X64Y2165D01*
X64Y2167D01*
X66Y2167D01*
X66Y2169D01*
X68Y2169D01*
X68Y2173D01*
X72Y2173D01*
X72Y2175D01*
X74Y2175D01*
X74Y2177D01*
X76Y2177D01*
X76Y2179D01*
X80Y2179D01*
X80Y2181D01*
X84Y2181D01*
X84Y2201D01*
X82Y2201D01*
X82Y2203D01*
X78Y2203D01*
X78Y2205D01*
X76Y2205D01*
X76Y2207D01*
X72Y2207D01*
X72Y2209D01*
X70Y2209D01*
X70Y2211D01*
X68Y2211D01*
X68Y2213D01*
X66Y2213D01*
X66Y2217D01*
X64Y2217D01*
X64Y2219D01*
X62Y2219D01*
X62Y2223D01*
X60Y2223D01*
X60Y2229D01*
X40Y2229D01*
G37*
D02*
G36*
X140Y2227D02*
X140Y2223D01*
X138Y2223D01*
X138Y2219D01*
X136Y2219D01*
X136Y2217D01*
X134Y2217D01*
X134Y2213D01*
X132Y2213D01*
X132Y2211D01*
X130Y2211D01*
X130Y2209D01*
X128Y2209D01*
X128Y2207D01*
X124Y2207D01*
X124Y2205D01*
X122Y2205D01*
X122Y2203D01*
X118Y2203D01*
X118Y2201D01*
X116Y2201D01*
X116Y2181D01*
X120Y2181D01*
X120Y2179D01*
X124Y2179D01*
X124Y2177D01*
X126Y2177D01*
X126Y2175D01*
X128Y2175D01*
X128Y2173D01*
X132Y2173D01*
X132Y2169D01*
X134Y2169D01*
X134Y2167D01*
X136Y2167D01*
X136Y2165D01*
X138Y2165D01*
X138Y2161D01*
X140Y2161D01*
X140Y2155D01*
X160Y2155D01*
X160Y2161D01*
X162Y2161D01*
X162Y2165D01*
X164Y2165D01*
X164Y2167D01*
X166Y2167D01*
X166Y2169D01*
X168Y2169D01*
X168Y2173D01*
X172Y2173D01*
X172Y2175D01*
X174Y2175D01*
X174Y2177D01*
X176Y2177D01*
X176Y2179D01*
X180Y2179D01*
X180Y2181D01*
X184Y2181D01*
X184Y2201D01*
X182Y2201D01*
X182Y2203D01*
X178Y2203D01*
X178Y2205D01*
X176Y2205D01*
X176Y2207D01*
X172Y2207D01*
X172Y2209D01*
X170Y2209D01*
X170Y2211D01*
X168Y2211D01*
X168Y2213D01*
X166Y2213D01*
X166Y2217D01*
X164Y2217D01*
X164Y2219D01*
X162Y2219D01*
X162Y2223D01*
X160Y2223D01*
X160Y2227D01*
X140Y2227D01*
G37*
D02*
G36*
X40Y2129D02*
X40Y2055D01*
X60Y2055D01*
X60Y2061D01*
X62Y2061D01*
X62Y2065D01*
X64Y2065D01*
X64Y2067D01*
X66Y2067D01*
X66Y2069D01*
X68Y2069D01*
X68Y2073D01*
X72Y2073D01*
X72Y2075D01*
X74Y2075D01*
X74Y2077D01*
X76Y2077D01*
X76Y2079D01*
X80Y2079D01*
X80Y2081D01*
X84Y2081D01*
X84Y2101D01*
X82Y2101D01*
X82Y2103D01*
X78Y2103D01*
X78Y2105D01*
X76Y2105D01*
X76Y2107D01*
X72Y2107D01*
X72Y2109D01*
X70Y2109D01*
X70Y2111D01*
X68Y2111D01*
X68Y2113D01*
X66Y2113D01*
X66Y2117D01*
X64Y2117D01*
X64Y2119D01*
X62Y2119D01*
X62Y2123D01*
X60Y2123D01*
X60Y2129D01*
X40Y2129D01*
G37*
D02*
G36*
X140Y2127D02*
X140Y2123D01*
X138Y2123D01*
X138Y2119D01*
X136Y2119D01*
X136Y2117D01*
X134Y2117D01*
X134Y2113D01*
X132Y2113D01*
X132Y2111D01*
X130Y2111D01*
X130Y2109D01*
X128Y2109D01*
X128Y2107D01*
X124Y2107D01*
X124Y2105D01*
X122Y2105D01*
X122Y2103D01*
X118Y2103D01*
X118Y2101D01*
X116Y2101D01*
X116Y2081D01*
X120Y2081D01*
X120Y2079D01*
X124Y2079D01*
X124Y2077D01*
X126Y2077D01*
X126Y2075D01*
X128Y2075D01*
X128Y2073D01*
X132Y2073D01*
X132Y2069D01*
X134Y2069D01*
X134Y2067D01*
X136Y2067D01*
X136Y2065D01*
X138Y2065D01*
X138Y2061D01*
X140Y2061D01*
X140Y2055D01*
X160Y2055D01*
X160Y2061D01*
X162Y2061D01*
X162Y2065D01*
X164Y2065D01*
X164Y2067D01*
X166Y2067D01*
X166Y2069D01*
X168Y2069D01*
X168Y2073D01*
X172Y2073D01*
X172Y2075D01*
X174Y2075D01*
X174Y2077D01*
X176Y2077D01*
X176Y2079D01*
X180Y2079D01*
X180Y2081D01*
X184Y2081D01*
X184Y2101D01*
X182Y2101D01*
X182Y2103D01*
X178Y2103D01*
X178Y2105D01*
X176Y2105D01*
X176Y2107D01*
X172Y2107D01*
X172Y2109D01*
X170Y2109D01*
X170Y2111D01*
X168Y2111D01*
X168Y2113D01*
X166Y2113D01*
X166Y2117D01*
X164Y2117D01*
X164Y2119D01*
X162Y2119D01*
X162Y2123D01*
X160Y2123D01*
X160Y2127D01*
X140Y2127D01*
G37*
D02*
G36*
X40Y2029D02*
X40Y1955D01*
X60Y1955D01*
X60Y1961D01*
X62Y1961D01*
X62Y1965D01*
X64Y1965D01*
X64Y1967D01*
X66Y1967D01*
X66Y1969D01*
X68Y1969D01*
X68Y1973D01*
X72Y1973D01*
X72Y1975D01*
X74Y1975D01*
X74Y1977D01*
X76Y1977D01*
X76Y1979D01*
X80Y1979D01*
X80Y1981D01*
X84Y1981D01*
X84Y2001D01*
X82Y2001D01*
X82Y2003D01*
X78Y2003D01*
X78Y2005D01*
X76Y2005D01*
X76Y2007D01*
X72Y2007D01*
X72Y2009D01*
X70Y2009D01*
X70Y2011D01*
X68Y2011D01*
X68Y2013D01*
X66Y2013D01*
X66Y2017D01*
X64Y2017D01*
X64Y2019D01*
X62Y2019D01*
X62Y2023D01*
X60Y2023D01*
X60Y2029D01*
X40Y2029D01*
G37*
D02*
G36*
X140Y2027D02*
X140Y2023D01*
X138Y2023D01*
X138Y2019D01*
X136Y2019D01*
X136Y2017D01*
X134Y2017D01*
X134Y2013D01*
X132Y2013D01*
X132Y2011D01*
X130Y2011D01*
X130Y2009D01*
X128Y2009D01*
X128Y2007D01*
X124Y2007D01*
X124Y2005D01*
X122Y2005D01*
X122Y2003D01*
X118Y2003D01*
X118Y2001D01*
X116Y2001D01*
X116Y1981D01*
X120Y1981D01*
X120Y1979D01*
X124Y1979D01*
X124Y1977D01*
X126Y1977D01*
X126Y1975D01*
X128Y1975D01*
X128Y1973D01*
X132Y1973D01*
X132Y1969D01*
X134Y1969D01*
X134Y1967D01*
X136Y1967D01*
X136Y1965D01*
X138Y1965D01*
X138Y1961D01*
X140Y1961D01*
X140Y1955D01*
X160Y1955D01*
X160Y1961D01*
X162Y1961D01*
X162Y1965D01*
X164Y1965D01*
X164Y1967D01*
X166Y1967D01*
X166Y1969D01*
X168Y1969D01*
X168Y1973D01*
X172Y1973D01*
X172Y1975D01*
X174Y1975D01*
X174Y1977D01*
X176Y1977D01*
X176Y1979D01*
X180Y1979D01*
X180Y1981D01*
X184Y1981D01*
X184Y2001D01*
X182Y2001D01*
X182Y2003D01*
X178Y2003D01*
X178Y2005D01*
X176Y2005D01*
X176Y2007D01*
X172Y2007D01*
X172Y2009D01*
X170Y2009D01*
X170Y2011D01*
X168Y2011D01*
X168Y2013D01*
X166Y2013D01*
X166Y2017D01*
X164Y2017D01*
X164Y2019D01*
X162Y2019D01*
X162Y2023D01*
X160Y2023D01*
X160Y2027D01*
X140Y2027D01*
G37*
D02*
G36*
X40Y1929D02*
X40Y1855D01*
X60Y1855D01*
X60Y1861D01*
X62Y1861D01*
X62Y1865D01*
X64Y1865D01*
X64Y1867D01*
X66Y1867D01*
X66Y1869D01*
X68Y1869D01*
X68Y1873D01*
X72Y1873D01*
X72Y1875D01*
X74Y1875D01*
X74Y1877D01*
X76Y1877D01*
X76Y1879D01*
X80Y1879D01*
X80Y1881D01*
X84Y1881D01*
X84Y1901D01*
X82Y1901D01*
X82Y1903D01*
X78Y1903D01*
X78Y1905D01*
X76Y1905D01*
X76Y1907D01*
X72Y1907D01*
X72Y1909D01*
X70Y1909D01*
X70Y1911D01*
X68Y1911D01*
X68Y1913D01*
X66Y1913D01*
X66Y1917D01*
X64Y1917D01*
X64Y1919D01*
X62Y1919D01*
X62Y1923D01*
X60Y1923D01*
X60Y1929D01*
X40Y1929D01*
G37*
D02*
G36*
X140Y1927D02*
X140Y1923D01*
X138Y1923D01*
X138Y1919D01*
X136Y1919D01*
X136Y1917D01*
X134Y1917D01*
X134Y1913D01*
X132Y1913D01*
X132Y1911D01*
X130Y1911D01*
X130Y1909D01*
X128Y1909D01*
X128Y1907D01*
X124Y1907D01*
X124Y1905D01*
X122Y1905D01*
X122Y1903D01*
X118Y1903D01*
X118Y1901D01*
X116Y1901D01*
X116Y1881D01*
X120Y1881D01*
X120Y1879D01*
X124Y1879D01*
X124Y1877D01*
X126Y1877D01*
X126Y1875D01*
X128Y1875D01*
X128Y1873D01*
X132Y1873D01*
X132Y1869D01*
X134Y1869D01*
X134Y1867D01*
X136Y1867D01*
X136Y1865D01*
X138Y1865D01*
X138Y1861D01*
X140Y1861D01*
X140Y1855D01*
X160Y1855D01*
X160Y1861D01*
X162Y1861D01*
X162Y1865D01*
X164Y1865D01*
X164Y1867D01*
X166Y1867D01*
X166Y1869D01*
X168Y1869D01*
X168Y1873D01*
X172Y1873D01*
X172Y1875D01*
X174Y1875D01*
X174Y1877D01*
X176Y1877D01*
X176Y1879D01*
X180Y1879D01*
X180Y1881D01*
X184Y1881D01*
X184Y1901D01*
X182Y1901D01*
X182Y1903D01*
X178Y1903D01*
X178Y1905D01*
X176Y1905D01*
X176Y1907D01*
X172Y1907D01*
X172Y1909D01*
X170Y1909D01*
X170Y1911D01*
X168Y1911D01*
X168Y1913D01*
X166Y1913D01*
X166Y1917D01*
X164Y1917D01*
X164Y1919D01*
X162Y1919D01*
X162Y1923D01*
X160Y1923D01*
X160Y1927D01*
X140Y1927D01*
G37*
D02*
G36*
X40Y1829D02*
X40Y1755D01*
X60Y1755D01*
X60Y1761D01*
X62Y1761D01*
X62Y1765D01*
X64Y1765D01*
X64Y1767D01*
X66Y1767D01*
X66Y1769D01*
X68Y1769D01*
X68Y1773D01*
X72Y1773D01*
X72Y1775D01*
X74Y1775D01*
X74Y1777D01*
X76Y1777D01*
X76Y1779D01*
X80Y1779D01*
X80Y1781D01*
X84Y1781D01*
X84Y1801D01*
X82Y1801D01*
X82Y1803D01*
X78Y1803D01*
X78Y1805D01*
X76Y1805D01*
X76Y1807D01*
X72Y1807D01*
X72Y1809D01*
X70Y1809D01*
X70Y1811D01*
X68Y1811D01*
X68Y1813D01*
X66Y1813D01*
X66Y1817D01*
X64Y1817D01*
X64Y1819D01*
X62Y1819D01*
X62Y1823D01*
X60Y1823D01*
X60Y1829D01*
X40Y1829D01*
G37*
D02*
G36*
X140Y1827D02*
X140Y1823D01*
X138Y1823D01*
X138Y1819D01*
X136Y1819D01*
X136Y1817D01*
X134Y1817D01*
X134Y1813D01*
X132Y1813D01*
X132Y1811D01*
X130Y1811D01*
X130Y1809D01*
X128Y1809D01*
X128Y1807D01*
X124Y1807D01*
X124Y1805D01*
X122Y1805D01*
X122Y1803D01*
X118Y1803D01*
X118Y1801D01*
X116Y1801D01*
X116Y1781D01*
X120Y1781D01*
X120Y1779D01*
X124Y1779D01*
X124Y1777D01*
X126Y1777D01*
X126Y1775D01*
X128Y1775D01*
X128Y1773D01*
X132Y1773D01*
X132Y1769D01*
X134Y1769D01*
X134Y1767D01*
X136Y1767D01*
X136Y1765D01*
X138Y1765D01*
X138Y1761D01*
X140Y1761D01*
X140Y1755D01*
X160Y1755D01*
X160Y1761D01*
X162Y1761D01*
X162Y1765D01*
X164Y1765D01*
X164Y1767D01*
X166Y1767D01*
X166Y1769D01*
X168Y1769D01*
X168Y1773D01*
X172Y1773D01*
X172Y1775D01*
X174Y1775D01*
X174Y1777D01*
X176Y1777D01*
X176Y1779D01*
X180Y1779D01*
X180Y1781D01*
X184Y1781D01*
X184Y1801D01*
X182Y1801D01*
X182Y1803D01*
X178Y1803D01*
X178Y1805D01*
X176Y1805D01*
X176Y1807D01*
X172Y1807D01*
X172Y1809D01*
X170Y1809D01*
X170Y1811D01*
X168Y1811D01*
X168Y1813D01*
X166Y1813D01*
X166Y1817D01*
X164Y1817D01*
X164Y1819D01*
X162Y1819D01*
X162Y1823D01*
X160Y1823D01*
X160Y1827D01*
X140Y1827D01*
G37*
D02*
G36*
X40Y1729D02*
X40Y1655D01*
X60Y1655D01*
X60Y1661D01*
X62Y1661D01*
X62Y1665D01*
X64Y1665D01*
X64Y1667D01*
X66Y1667D01*
X66Y1669D01*
X68Y1669D01*
X68Y1673D01*
X72Y1673D01*
X72Y1675D01*
X74Y1675D01*
X74Y1677D01*
X76Y1677D01*
X76Y1679D01*
X80Y1679D01*
X80Y1681D01*
X84Y1681D01*
X84Y1701D01*
X82Y1701D01*
X82Y1703D01*
X78Y1703D01*
X78Y1705D01*
X76Y1705D01*
X76Y1707D01*
X72Y1707D01*
X72Y1709D01*
X70Y1709D01*
X70Y1711D01*
X68Y1711D01*
X68Y1713D01*
X66Y1713D01*
X66Y1717D01*
X64Y1717D01*
X64Y1719D01*
X62Y1719D01*
X62Y1723D01*
X60Y1723D01*
X60Y1729D01*
X40Y1729D01*
G37*
D02*
G36*
X140Y1727D02*
X140Y1723D01*
X138Y1723D01*
X138Y1719D01*
X136Y1719D01*
X136Y1717D01*
X134Y1717D01*
X134Y1713D01*
X132Y1713D01*
X132Y1711D01*
X130Y1711D01*
X130Y1709D01*
X128Y1709D01*
X128Y1707D01*
X124Y1707D01*
X124Y1705D01*
X122Y1705D01*
X122Y1703D01*
X118Y1703D01*
X118Y1701D01*
X116Y1701D01*
X116Y1681D01*
X120Y1681D01*
X120Y1679D01*
X124Y1679D01*
X124Y1677D01*
X126Y1677D01*
X126Y1675D01*
X128Y1675D01*
X128Y1673D01*
X132Y1673D01*
X132Y1669D01*
X134Y1669D01*
X134Y1667D01*
X136Y1667D01*
X136Y1665D01*
X138Y1665D01*
X138Y1661D01*
X140Y1661D01*
X140Y1655D01*
X160Y1655D01*
X160Y1661D01*
X162Y1661D01*
X162Y1665D01*
X164Y1665D01*
X164Y1667D01*
X166Y1667D01*
X166Y1669D01*
X168Y1669D01*
X168Y1673D01*
X172Y1673D01*
X172Y1675D01*
X174Y1675D01*
X174Y1677D01*
X176Y1677D01*
X176Y1679D01*
X180Y1679D01*
X180Y1681D01*
X184Y1681D01*
X184Y1701D01*
X182Y1701D01*
X182Y1703D01*
X178Y1703D01*
X178Y1705D01*
X176Y1705D01*
X176Y1707D01*
X172Y1707D01*
X172Y1709D01*
X170Y1709D01*
X170Y1711D01*
X168Y1711D01*
X168Y1713D01*
X166Y1713D01*
X166Y1717D01*
X164Y1717D01*
X164Y1719D01*
X162Y1719D01*
X162Y1723D01*
X160Y1723D01*
X160Y1727D01*
X140Y1727D01*
G37*
D02*
G36*
X40Y1629D02*
X40Y1555D01*
X60Y1555D01*
X60Y1561D01*
X62Y1561D01*
X62Y1565D01*
X64Y1565D01*
X64Y1567D01*
X66Y1567D01*
X66Y1569D01*
X68Y1569D01*
X68Y1573D01*
X72Y1573D01*
X72Y1575D01*
X74Y1575D01*
X74Y1577D01*
X76Y1577D01*
X76Y1579D01*
X80Y1579D01*
X80Y1581D01*
X84Y1581D01*
X84Y1601D01*
X82Y1601D01*
X82Y1603D01*
X78Y1603D01*
X78Y1605D01*
X76Y1605D01*
X76Y1607D01*
X72Y1607D01*
X72Y1609D01*
X70Y1609D01*
X70Y1611D01*
X68Y1611D01*
X68Y1613D01*
X66Y1613D01*
X66Y1617D01*
X64Y1617D01*
X64Y1619D01*
X62Y1619D01*
X62Y1623D01*
X60Y1623D01*
X60Y1629D01*
X40Y1629D01*
G37*
D02*
G36*
X140Y1627D02*
X140Y1623D01*
X138Y1623D01*
X138Y1619D01*
X136Y1619D01*
X136Y1617D01*
X134Y1617D01*
X134Y1613D01*
X132Y1613D01*
X132Y1611D01*
X130Y1611D01*
X130Y1609D01*
X128Y1609D01*
X128Y1607D01*
X124Y1607D01*
X124Y1605D01*
X122Y1605D01*
X122Y1603D01*
X118Y1603D01*
X118Y1601D01*
X116Y1601D01*
X116Y1581D01*
X120Y1581D01*
X120Y1579D01*
X124Y1579D01*
X124Y1577D01*
X126Y1577D01*
X126Y1575D01*
X128Y1575D01*
X128Y1573D01*
X132Y1573D01*
X132Y1569D01*
X134Y1569D01*
X134Y1567D01*
X136Y1567D01*
X136Y1565D01*
X138Y1565D01*
X138Y1561D01*
X140Y1561D01*
X140Y1555D01*
X160Y1555D01*
X160Y1561D01*
X162Y1561D01*
X162Y1565D01*
X164Y1565D01*
X164Y1567D01*
X166Y1567D01*
X166Y1569D01*
X168Y1569D01*
X168Y1573D01*
X172Y1573D01*
X172Y1575D01*
X174Y1575D01*
X174Y1577D01*
X176Y1577D01*
X176Y1579D01*
X180Y1579D01*
X180Y1581D01*
X184Y1581D01*
X184Y1601D01*
X182Y1601D01*
X182Y1603D01*
X178Y1603D01*
X178Y1605D01*
X176Y1605D01*
X176Y1607D01*
X172Y1607D01*
X172Y1609D01*
X170Y1609D01*
X170Y1611D01*
X168Y1611D01*
X168Y1613D01*
X166Y1613D01*
X166Y1617D01*
X164Y1617D01*
X164Y1619D01*
X162Y1619D01*
X162Y1623D01*
X160Y1623D01*
X160Y1627D01*
X140Y1627D01*
G37*
D02*
G36*
X40Y1529D02*
X40Y1455D01*
X60Y1455D01*
X60Y1461D01*
X62Y1461D01*
X62Y1465D01*
X64Y1465D01*
X64Y1467D01*
X66Y1467D01*
X66Y1469D01*
X68Y1469D01*
X68Y1473D01*
X72Y1473D01*
X72Y1475D01*
X74Y1475D01*
X74Y1477D01*
X76Y1477D01*
X76Y1479D01*
X80Y1479D01*
X80Y1481D01*
X84Y1481D01*
X84Y1501D01*
X82Y1501D01*
X82Y1503D01*
X78Y1503D01*
X78Y1505D01*
X76Y1505D01*
X76Y1507D01*
X72Y1507D01*
X72Y1509D01*
X70Y1509D01*
X70Y1511D01*
X68Y1511D01*
X68Y1513D01*
X66Y1513D01*
X66Y1517D01*
X64Y1517D01*
X64Y1519D01*
X62Y1519D01*
X62Y1523D01*
X60Y1523D01*
X60Y1529D01*
X40Y1529D01*
G37*
D02*
G36*
X140Y1527D02*
X140Y1523D01*
X138Y1523D01*
X138Y1519D01*
X136Y1519D01*
X136Y1517D01*
X134Y1517D01*
X134Y1513D01*
X132Y1513D01*
X132Y1511D01*
X130Y1511D01*
X130Y1509D01*
X128Y1509D01*
X128Y1507D01*
X124Y1507D01*
X124Y1505D01*
X122Y1505D01*
X122Y1503D01*
X118Y1503D01*
X118Y1501D01*
X116Y1501D01*
X116Y1481D01*
X120Y1481D01*
X120Y1479D01*
X124Y1479D01*
X124Y1477D01*
X126Y1477D01*
X126Y1475D01*
X128Y1475D01*
X128Y1473D01*
X132Y1473D01*
X132Y1469D01*
X134Y1469D01*
X134Y1467D01*
X136Y1467D01*
X136Y1465D01*
X138Y1465D01*
X138Y1461D01*
X140Y1461D01*
X140Y1455D01*
X160Y1455D01*
X160Y1461D01*
X162Y1461D01*
X162Y1465D01*
X164Y1465D01*
X164Y1467D01*
X166Y1467D01*
X166Y1469D01*
X168Y1469D01*
X168Y1473D01*
X172Y1473D01*
X172Y1475D01*
X174Y1475D01*
X174Y1477D01*
X176Y1477D01*
X176Y1479D01*
X180Y1479D01*
X180Y1481D01*
X184Y1481D01*
X184Y1501D01*
X182Y1501D01*
X182Y1503D01*
X178Y1503D01*
X178Y1505D01*
X176Y1505D01*
X176Y1507D01*
X172Y1507D01*
X172Y1509D01*
X170Y1509D01*
X170Y1511D01*
X168Y1511D01*
X168Y1513D01*
X166Y1513D01*
X166Y1517D01*
X164Y1517D01*
X164Y1519D01*
X162Y1519D01*
X162Y1523D01*
X160Y1523D01*
X160Y1527D01*
X140Y1527D01*
G37*
D02*
G36*
X40Y1429D02*
X40Y1355D01*
X60Y1355D01*
X60Y1361D01*
X62Y1361D01*
X62Y1365D01*
X64Y1365D01*
X64Y1367D01*
X66Y1367D01*
X66Y1369D01*
X68Y1369D01*
X68Y1373D01*
X72Y1373D01*
X72Y1375D01*
X74Y1375D01*
X74Y1377D01*
X76Y1377D01*
X76Y1379D01*
X80Y1379D01*
X80Y1381D01*
X84Y1381D01*
X84Y1401D01*
X82Y1401D01*
X82Y1403D01*
X78Y1403D01*
X78Y1405D01*
X76Y1405D01*
X76Y1407D01*
X72Y1407D01*
X72Y1409D01*
X70Y1409D01*
X70Y1411D01*
X68Y1411D01*
X68Y1413D01*
X66Y1413D01*
X66Y1417D01*
X64Y1417D01*
X64Y1419D01*
X62Y1419D01*
X62Y1423D01*
X60Y1423D01*
X60Y1429D01*
X40Y1429D01*
G37*
D02*
G36*
X140Y1427D02*
X140Y1423D01*
X138Y1423D01*
X138Y1419D01*
X136Y1419D01*
X136Y1417D01*
X134Y1417D01*
X134Y1413D01*
X132Y1413D01*
X132Y1411D01*
X130Y1411D01*
X130Y1409D01*
X128Y1409D01*
X128Y1407D01*
X124Y1407D01*
X124Y1405D01*
X122Y1405D01*
X122Y1403D01*
X118Y1403D01*
X118Y1401D01*
X116Y1401D01*
X116Y1381D01*
X120Y1381D01*
X120Y1379D01*
X124Y1379D01*
X124Y1377D01*
X126Y1377D01*
X126Y1375D01*
X128Y1375D01*
X128Y1373D01*
X132Y1373D01*
X132Y1369D01*
X134Y1369D01*
X134Y1367D01*
X136Y1367D01*
X136Y1365D01*
X138Y1365D01*
X138Y1361D01*
X140Y1361D01*
X140Y1355D01*
X160Y1355D01*
X160Y1361D01*
X162Y1361D01*
X162Y1365D01*
X164Y1365D01*
X164Y1367D01*
X166Y1367D01*
X166Y1369D01*
X168Y1369D01*
X168Y1373D01*
X172Y1373D01*
X172Y1375D01*
X174Y1375D01*
X174Y1377D01*
X176Y1377D01*
X176Y1379D01*
X180Y1379D01*
X180Y1381D01*
X184Y1381D01*
X184Y1401D01*
X182Y1401D01*
X182Y1403D01*
X178Y1403D01*
X178Y1405D01*
X176Y1405D01*
X176Y1407D01*
X172Y1407D01*
X172Y1409D01*
X170Y1409D01*
X170Y1411D01*
X168Y1411D01*
X168Y1413D01*
X166Y1413D01*
X166Y1417D01*
X164Y1417D01*
X164Y1419D01*
X162Y1419D01*
X162Y1423D01*
X160Y1423D01*
X160Y1427D01*
X140Y1427D01*
G37*
D02*
G36*
X40Y1329D02*
X40Y1255D01*
X60Y1255D01*
X60Y1261D01*
X62Y1261D01*
X62Y1265D01*
X64Y1265D01*
X64Y1267D01*
X66Y1267D01*
X66Y1269D01*
X68Y1269D01*
X68Y1273D01*
X72Y1273D01*
X72Y1275D01*
X74Y1275D01*
X74Y1277D01*
X76Y1277D01*
X76Y1279D01*
X80Y1279D01*
X80Y1281D01*
X84Y1281D01*
X84Y1301D01*
X82Y1301D01*
X82Y1303D01*
X78Y1303D01*
X78Y1305D01*
X76Y1305D01*
X76Y1307D01*
X72Y1307D01*
X72Y1309D01*
X70Y1309D01*
X70Y1311D01*
X68Y1311D01*
X68Y1313D01*
X66Y1313D01*
X66Y1317D01*
X64Y1317D01*
X64Y1319D01*
X62Y1319D01*
X62Y1323D01*
X60Y1323D01*
X60Y1329D01*
X40Y1329D01*
G37*
D02*
G36*
X140Y1327D02*
X140Y1323D01*
X138Y1323D01*
X138Y1319D01*
X136Y1319D01*
X136Y1317D01*
X134Y1317D01*
X134Y1313D01*
X132Y1313D01*
X132Y1311D01*
X130Y1311D01*
X130Y1309D01*
X128Y1309D01*
X128Y1307D01*
X124Y1307D01*
X124Y1305D01*
X122Y1305D01*
X122Y1303D01*
X118Y1303D01*
X118Y1301D01*
X116Y1301D01*
X116Y1281D01*
X120Y1281D01*
X120Y1279D01*
X124Y1279D01*
X124Y1277D01*
X126Y1277D01*
X126Y1275D01*
X128Y1275D01*
X128Y1273D01*
X132Y1273D01*
X132Y1269D01*
X134Y1269D01*
X134Y1267D01*
X136Y1267D01*
X136Y1265D01*
X138Y1265D01*
X138Y1261D01*
X140Y1261D01*
X140Y1255D01*
X160Y1255D01*
X160Y1261D01*
X162Y1261D01*
X162Y1265D01*
X164Y1265D01*
X164Y1267D01*
X166Y1267D01*
X166Y1269D01*
X168Y1269D01*
X168Y1273D01*
X172Y1273D01*
X172Y1275D01*
X174Y1275D01*
X174Y1277D01*
X176Y1277D01*
X176Y1279D01*
X180Y1279D01*
X180Y1281D01*
X184Y1281D01*
X184Y1301D01*
X182Y1301D01*
X182Y1303D01*
X178Y1303D01*
X178Y1305D01*
X176Y1305D01*
X176Y1307D01*
X172Y1307D01*
X172Y1309D01*
X170Y1309D01*
X170Y1311D01*
X168Y1311D01*
X168Y1313D01*
X166Y1313D01*
X166Y1317D01*
X164Y1317D01*
X164Y1319D01*
X162Y1319D01*
X162Y1323D01*
X160Y1323D01*
X160Y1327D01*
X140Y1327D01*
G37*
D02*
G36*
X40Y1229D02*
X40Y1155D01*
X60Y1155D01*
X60Y1161D01*
X62Y1161D01*
X62Y1165D01*
X64Y1165D01*
X64Y1167D01*
X66Y1167D01*
X66Y1169D01*
X68Y1169D01*
X68Y1173D01*
X72Y1173D01*
X72Y1175D01*
X74Y1175D01*
X74Y1177D01*
X76Y1177D01*
X76Y1179D01*
X80Y1179D01*
X80Y1181D01*
X84Y1181D01*
X84Y1201D01*
X82Y1201D01*
X82Y1203D01*
X78Y1203D01*
X78Y1205D01*
X76Y1205D01*
X76Y1207D01*
X72Y1207D01*
X72Y1209D01*
X70Y1209D01*
X70Y1211D01*
X68Y1211D01*
X68Y1213D01*
X66Y1213D01*
X66Y1217D01*
X64Y1217D01*
X64Y1219D01*
X62Y1219D01*
X62Y1223D01*
X60Y1223D01*
X60Y1229D01*
X40Y1229D01*
G37*
D02*
G36*
X140Y1227D02*
X140Y1223D01*
X138Y1223D01*
X138Y1219D01*
X136Y1219D01*
X136Y1217D01*
X134Y1217D01*
X134Y1213D01*
X132Y1213D01*
X132Y1211D01*
X130Y1211D01*
X130Y1209D01*
X128Y1209D01*
X128Y1207D01*
X124Y1207D01*
X124Y1205D01*
X122Y1205D01*
X122Y1203D01*
X118Y1203D01*
X118Y1201D01*
X116Y1201D01*
X116Y1181D01*
X120Y1181D01*
X120Y1179D01*
X124Y1179D01*
X124Y1177D01*
X126Y1177D01*
X126Y1175D01*
X128Y1175D01*
X128Y1173D01*
X132Y1173D01*
X132Y1169D01*
X134Y1169D01*
X134Y1167D01*
X136Y1167D01*
X136Y1165D01*
X138Y1165D01*
X138Y1161D01*
X140Y1161D01*
X140Y1155D01*
X160Y1155D01*
X160Y1161D01*
X162Y1161D01*
X162Y1165D01*
X164Y1165D01*
X164Y1167D01*
X166Y1167D01*
X166Y1169D01*
X168Y1169D01*
X168Y1173D01*
X172Y1173D01*
X172Y1175D01*
X174Y1175D01*
X174Y1177D01*
X176Y1177D01*
X176Y1179D01*
X180Y1179D01*
X180Y1181D01*
X184Y1181D01*
X184Y1201D01*
X182Y1201D01*
X182Y1203D01*
X178Y1203D01*
X178Y1205D01*
X176Y1205D01*
X176Y1207D01*
X172Y1207D01*
X172Y1209D01*
X170Y1209D01*
X170Y1211D01*
X168Y1211D01*
X168Y1213D01*
X166Y1213D01*
X166Y1217D01*
X164Y1217D01*
X164Y1219D01*
X162Y1219D01*
X162Y1223D01*
X160Y1223D01*
X160Y1227D01*
X140Y1227D01*
G37*
D02*
G36*
X40Y1129D02*
X40Y1055D01*
X60Y1055D01*
X60Y1061D01*
X62Y1061D01*
X62Y1065D01*
X64Y1065D01*
X64Y1067D01*
X66Y1067D01*
X66Y1069D01*
X68Y1069D01*
X68Y1073D01*
X72Y1073D01*
X72Y1075D01*
X74Y1075D01*
X74Y1077D01*
X76Y1077D01*
X76Y1079D01*
X80Y1079D01*
X80Y1081D01*
X84Y1081D01*
X84Y1101D01*
X82Y1101D01*
X82Y1103D01*
X78Y1103D01*
X78Y1105D01*
X76Y1105D01*
X76Y1107D01*
X72Y1107D01*
X72Y1109D01*
X70Y1109D01*
X70Y1111D01*
X68Y1111D01*
X68Y1113D01*
X66Y1113D01*
X66Y1117D01*
X64Y1117D01*
X64Y1119D01*
X62Y1119D01*
X62Y1123D01*
X60Y1123D01*
X60Y1129D01*
X40Y1129D01*
G37*
D02*
G36*
X310Y1091D02*
X310Y1087D01*
X308Y1087D01*
X308Y1085D01*
X306Y1085D01*
X306Y1083D01*
X304Y1083D01*
X304Y1079D01*
X302Y1079D01*
X302Y1077D01*
X298Y1077D01*
X298Y1057D01*
X308Y1057D01*
X308Y1055D01*
X316Y1055D01*
X316Y1053D01*
X318Y1053D01*
X318Y1051D01*
X320Y1051D01*
X320Y1049D01*
X322Y1049D01*
X322Y1045D01*
X324Y1045D01*
X324Y1043D01*
X326Y1043D01*
X326Y1039D01*
X328Y1039D01*
X328Y1037D01*
X330Y1037D01*
X330Y1019D01*
X332Y1019D01*
X332Y1017D01*
X382Y1017D01*
X382Y1043D01*
X380Y1043D01*
X380Y1065D01*
X382Y1065D01*
X382Y1071D01*
X384Y1071D01*
X384Y1091D01*
X310Y1091D01*
G37*
D02*
G36*
X462Y1091D02*
X462Y1069D01*
X464Y1069D01*
X464Y1063D01*
X466Y1063D01*
X466Y1033D01*
X474Y1033D01*
X474Y1031D01*
X500Y1031D01*
X500Y1085D01*
X498Y1085D01*
X498Y1089D01*
X496Y1089D01*
X496Y1091D01*
X462Y1091D01*
G37*
D02*
G36*
X240Y1075D02*
X240Y1055D01*
X294Y1055D01*
X294Y1075D01*
X240Y1075D01*
G37*
D02*
G36*
X40Y1029D02*
X40Y955D01*
X60Y955D01*
X60Y961D01*
X62Y961D01*
X62Y965D01*
X64Y965D01*
X64Y967D01*
X66Y967D01*
X66Y969D01*
X68Y969D01*
X68Y973D01*
X72Y973D01*
X72Y975D01*
X74Y975D01*
X74Y977D01*
X76Y977D01*
X76Y979D01*
X80Y979D01*
X80Y981D01*
X84Y981D01*
X84Y1001D01*
X82Y1001D01*
X82Y1003D01*
X78Y1003D01*
X78Y1005D01*
X76Y1005D01*
X76Y1007D01*
X72Y1007D01*
X72Y1009D01*
X70Y1009D01*
X70Y1011D01*
X68Y1011D01*
X68Y1013D01*
X66Y1013D01*
X66Y1017D01*
X64Y1017D01*
X64Y1019D01*
X62Y1019D01*
X62Y1023D01*
X60Y1023D01*
X60Y1029D01*
X40Y1029D01*
G37*
D02*
G36*
X240Y1027D02*
X240Y1023D01*
X238Y1023D01*
X238Y1003D01*
X266Y1003D01*
X266Y1001D01*
X302Y1001D01*
X302Y1027D01*
X240Y1027D01*
G37*
D02*
G36*
X322Y989D02*
X322Y917D01*
X324Y917D01*
X324Y915D01*
X384Y915D01*
X384Y935D01*
X382Y935D01*
X382Y943D01*
X380Y943D01*
X380Y965D01*
X382Y965D01*
X382Y989D01*
X322Y989D01*
G37*
D02*
G36*
X240Y975D02*
X240Y955D01*
X242Y955D01*
X242Y947D01*
X244Y947D01*
X244Y935D01*
X242Y935D01*
X242Y927D01*
X240Y927D01*
X240Y923D01*
X238Y923D01*
X238Y919D01*
X236Y919D01*
X236Y917D01*
X234Y917D01*
X234Y913D01*
X232Y913D01*
X232Y911D01*
X230Y911D01*
X230Y909D01*
X228Y909D01*
X228Y907D01*
X224Y907D01*
X224Y905D01*
X222Y905D01*
X222Y903D01*
X218Y903D01*
X218Y901D01*
X216Y901D01*
X216Y881D01*
X220Y881D01*
X220Y879D01*
X224Y879D01*
X224Y877D01*
X226Y877D01*
X226Y875D01*
X228Y875D01*
X228Y873D01*
X232Y873D01*
X232Y869D01*
X234Y869D01*
X234Y867D01*
X236Y867D01*
X236Y865D01*
X238Y865D01*
X238Y861D01*
X240Y861D01*
X240Y855D01*
X242Y855D01*
X242Y847D01*
X244Y847D01*
X244Y835D01*
X242Y835D01*
X242Y827D01*
X240Y827D01*
X240Y823D01*
X238Y823D01*
X238Y819D01*
X236Y819D01*
X236Y817D01*
X234Y817D01*
X234Y813D01*
X232Y813D01*
X232Y811D01*
X230Y811D01*
X230Y809D01*
X228Y809D01*
X228Y807D01*
X224Y807D01*
X224Y805D01*
X222Y805D01*
X222Y803D01*
X218Y803D01*
X218Y801D01*
X216Y801D01*
X216Y781D01*
X220Y781D01*
X220Y779D01*
X224Y779D01*
X224Y777D01*
X226Y777D01*
X226Y775D01*
X228Y775D01*
X228Y773D01*
X232Y773D01*
X232Y769D01*
X234Y769D01*
X234Y767D01*
X236Y767D01*
X236Y765D01*
X238Y765D01*
X238Y761D01*
X240Y761D01*
X240Y755D01*
X242Y755D01*
X242Y747D01*
X244Y747D01*
X244Y735D01*
X242Y735D01*
X242Y727D01*
X240Y727D01*
X240Y723D01*
X238Y723D01*
X238Y719D01*
X236Y719D01*
X236Y717D01*
X234Y717D01*
X234Y713D01*
X232Y713D01*
X232Y711D01*
X230Y711D01*
X230Y709D01*
X228Y709D01*
X228Y707D01*
X224Y707D01*
X224Y705D01*
X222Y705D01*
X222Y703D01*
X218Y703D01*
X218Y701D01*
X216Y701D01*
X216Y681D01*
X220Y681D01*
X220Y679D01*
X224Y679D01*
X224Y677D01*
X226Y677D01*
X226Y675D01*
X228Y675D01*
X228Y673D01*
X232Y673D01*
X232Y669D01*
X234Y669D01*
X234Y667D01*
X236Y667D01*
X236Y665D01*
X238Y665D01*
X238Y661D01*
X240Y661D01*
X240Y655D01*
X242Y655D01*
X242Y647D01*
X244Y647D01*
X244Y635D01*
X242Y635D01*
X242Y627D01*
X240Y627D01*
X240Y623D01*
X238Y623D01*
X238Y619D01*
X236Y619D01*
X236Y617D01*
X234Y617D01*
X234Y613D01*
X232Y613D01*
X232Y611D01*
X230Y611D01*
X230Y609D01*
X228Y609D01*
X228Y607D01*
X224Y607D01*
X224Y605D01*
X222Y605D01*
X222Y603D01*
X218Y603D01*
X218Y601D01*
X216Y601D01*
X216Y581D01*
X220Y581D01*
X220Y579D01*
X224Y579D01*
X224Y577D01*
X226Y577D01*
X226Y575D01*
X228Y575D01*
X228Y573D01*
X232Y573D01*
X232Y569D01*
X234Y569D01*
X234Y567D01*
X236Y567D01*
X236Y565D01*
X238Y565D01*
X238Y561D01*
X240Y561D01*
X240Y555D01*
X242Y555D01*
X242Y547D01*
X244Y547D01*
X244Y535D01*
X242Y535D01*
X242Y527D01*
X240Y527D01*
X240Y523D01*
X238Y523D01*
X238Y519D01*
X236Y519D01*
X236Y517D01*
X234Y517D01*
X234Y513D01*
X232Y513D01*
X232Y511D01*
X230Y511D01*
X230Y509D01*
X228Y509D01*
X228Y507D01*
X224Y507D01*
X224Y505D01*
X222Y505D01*
X222Y503D01*
X218Y503D01*
X218Y501D01*
X216Y501D01*
X216Y481D01*
X220Y481D01*
X220Y479D01*
X224Y479D01*
X224Y477D01*
X226Y477D01*
X226Y475D01*
X228Y475D01*
X228Y473D01*
X232Y473D01*
X232Y469D01*
X234Y469D01*
X234Y467D01*
X276Y467D01*
X276Y469D01*
X286Y469D01*
X286Y471D01*
X288Y471D01*
X288Y475D01*
X290Y475D01*
X290Y477D01*
X292Y477D01*
X292Y481D01*
X294Y481D01*
X294Y813D01*
X296Y813D01*
X296Y821D01*
X298Y821D01*
X298Y825D01*
X300Y825D01*
X300Y827D01*
X302Y827D01*
X302Y831D01*
X304Y831D01*
X304Y833D01*
X306Y833D01*
X306Y835D01*
X308Y835D01*
X308Y837D01*
X310Y837D01*
X310Y841D01*
X312Y841D01*
X312Y843D01*
X314Y843D01*
X314Y845D01*
X316Y845D01*
X316Y849D01*
X318Y849D01*
X318Y851D01*
X320Y851D01*
X320Y853D01*
X322Y853D01*
X322Y857D01*
X324Y857D01*
X324Y859D01*
X326Y859D01*
X326Y861D01*
X328Y861D01*
X328Y865D01*
X330Y865D01*
X330Y867D01*
X332Y867D01*
X332Y887D01*
X310Y887D01*
X310Y889D01*
X308Y889D01*
X308Y891D01*
X306Y891D01*
X306Y893D01*
X304Y893D01*
X304Y895D01*
X302Y895D01*
X302Y899D01*
X300Y899D01*
X300Y901D01*
X298Y901D01*
X298Y905D01*
X296Y905D01*
X296Y909D01*
X294Y909D01*
X294Y973D01*
X266Y973D01*
X266Y975D01*
X240Y975D01*
G37*
D02*
G36*
X476Y975D02*
X476Y973D01*
X466Y973D01*
X466Y943D01*
X464Y943D01*
X464Y937D01*
X462Y937D01*
X462Y915D01*
X468Y915D01*
X468Y913D01*
X474Y913D01*
X474Y911D01*
X476Y911D01*
X476Y909D01*
X478Y909D01*
X478Y907D01*
X480Y907D01*
X480Y905D01*
X500Y905D01*
X500Y975D01*
X476Y975D01*
G37*
D02*
G36*
X40Y929D02*
X40Y855D01*
X60Y855D01*
X60Y861D01*
X62Y861D01*
X62Y865D01*
X64Y865D01*
X64Y867D01*
X66Y867D01*
X66Y869D01*
X68Y869D01*
X68Y873D01*
X72Y873D01*
X72Y875D01*
X74Y875D01*
X74Y877D01*
X76Y877D01*
X76Y879D01*
X80Y879D01*
X80Y881D01*
X84Y881D01*
X84Y901D01*
X82Y901D01*
X82Y903D01*
X78Y903D01*
X78Y905D01*
X76Y905D01*
X76Y907D01*
X72Y907D01*
X72Y909D01*
X70Y909D01*
X70Y911D01*
X68Y911D01*
X68Y913D01*
X66Y913D01*
X66Y917D01*
X64Y917D01*
X64Y919D01*
X62Y919D01*
X62Y923D01*
X60Y923D01*
X60Y929D01*
X40Y929D01*
G37*
D02*
G36*
X140Y927D02*
X140Y923D01*
X138Y923D01*
X138Y919D01*
X136Y919D01*
X136Y917D01*
X134Y917D01*
X134Y913D01*
X132Y913D01*
X132Y911D01*
X130Y911D01*
X130Y909D01*
X128Y909D01*
X128Y907D01*
X124Y907D01*
X124Y905D01*
X122Y905D01*
X122Y903D01*
X118Y903D01*
X118Y901D01*
X116Y901D01*
X116Y881D01*
X120Y881D01*
X120Y879D01*
X124Y879D01*
X124Y877D01*
X126Y877D01*
X126Y875D01*
X128Y875D01*
X128Y873D01*
X132Y873D01*
X132Y869D01*
X134Y869D01*
X134Y867D01*
X136Y867D01*
X136Y865D01*
X138Y865D01*
X138Y861D01*
X140Y861D01*
X140Y855D01*
X160Y855D01*
X160Y861D01*
X162Y861D01*
X162Y865D01*
X164Y865D01*
X164Y867D01*
X166Y867D01*
X166Y869D01*
X168Y869D01*
X168Y873D01*
X172Y873D01*
X172Y875D01*
X174Y875D01*
X174Y877D01*
X176Y877D01*
X176Y879D01*
X180Y879D01*
X180Y881D01*
X184Y881D01*
X184Y901D01*
X182Y901D01*
X182Y903D01*
X178Y903D01*
X178Y905D01*
X176Y905D01*
X176Y907D01*
X172Y907D01*
X172Y909D01*
X170Y909D01*
X170Y911D01*
X168Y911D01*
X168Y913D01*
X166Y913D01*
X166Y917D01*
X164Y917D01*
X164Y919D01*
X162Y919D01*
X162Y923D01*
X160Y923D01*
X160Y927D01*
X140Y927D01*
G37*
D02*
G36*
X40Y829D02*
X40Y755D01*
X60Y755D01*
X60Y761D01*
X62Y761D01*
X62Y765D01*
X64Y765D01*
X64Y767D01*
X66Y767D01*
X66Y769D01*
X68Y769D01*
X68Y773D01*
X72Y773D01*
X72Y775D01*
X74Y775D01*
X74Y777D01*
X76Y777D01*
X76Y779D01*
X80Y779D01*
X80Y781D01*
X84Y781D01*
X84Y801D01*
X82Y801D01*
X82Y803D01*
X78Y803D01*
X78Y805D01*
X76Y805D01*
X76Y807D01*
X72Y807D01*
X72Y809D01*
X70Y809D01*
X70Y811D01*
X68Y811D01*
X68Y813D01*
X66Y813D01*
X66Y817D01*
X64Y817D01*
X64Y819D01*
X62Y819D01*
X62Y823D01*
X60Y823D01*
X60Y829D01*
X40Y829D01*
G37*
D02*
G36*
X140Y827D02*
X140Y823D01*
X138Y823D01*
X138Y819D01*
X136Y819D01*
X136Y817D01*
X134Y817D01*
X134Y813D01*
X132Y813D01*
X132Y811D01*
X130Y811D01*
X130Y809D01*
X128Y809D01*
X128Y807D01*
X124Y807D01*
X124Y805D01*
X122Y805D01*
X122Y803D01*
X118Y803D01*
X118Y801D01*
X116Y801D01*
X116Y781D01*
X120Y781D01*
X120Y779D01*
X124Y779D01*
X124Y777D01*
X126Y777D01*
X126Y775D01*
X128Y775D01*
X128Y773D01*
X132Y773D01*
X132Y769D01*
X134Y769D01*
X134Y767D01*
X136Y767D01*
X136Y765D01*
X138Y765D01*
X138Y761D01*
X140Y761D01*
X140Y755D01*
X160Y755D01*
X160Y761D01*
X162Y761D01*
X162Y765D01*
X164Y765D01*
X164Y767D01*
X166Y767D01*
X166Y769D01*
X168Y769D01*
X168Y773D01*
X172Y773D01*
X172Y775D01*
X174Y775D01*
X174Y777D01*
X176Y777D01*
X176Y779D01*
X180Y779D01*
X180Y781D01*
X184Y781D01*
X184Y801D01*
X182Y801D01*
X182Y803D01*
X178Y803D01*
X178Y805D01*
X176Y805D01*
X176Y807D01*
X172Y807D01*
X172Y809D01*
X170Y809D01*
X170Y811D01*
X168Y811D01*
X168Y813D01*
X166Y813D01*
X166Y817D01*
X164Y817D01*
X164Y819D01*
X162Y819D01*
X162Y823D01*
X160Y823D01*
X160Y827D01*
X140Y827D01*
G37*
D02*
G36*
X40Y729D02*
X40Y655D01*
X60Y655D01*
X60Y661D01*
X62Y661D01*
X62Y665D01*
X64Y665D01*
X64Y667D01*
X66Y667D01*
X66Y669D01*
X68Y669D01*
X68Y673D01*
X72Y673D01*
X72Y675D01*
X74Y675D01*
X74Y677D01*
X76Y677D01*
X76Y679D01*
X80Y679D01*
X80Y681D01*
X84Y681D01*
X84Y701D01*
X82Y701D01*
X82Y703D01*
X78Y703D01*
X78Y705D01*
X76Y705D01*
X76Y707D01*
X72Y707D01*
X72Y709D01*
X70Y709D01*
X70Y711D01*
X68Y711D01*
X68Y713D01*
X66Y713D01*
X66Y717D01*
X64Y717D01*
X64Y719D01*
X62Y719D01*
X62Y723D01*
X60Y723D01*
X60Y729D01*
X40Y729D01*
G37*
D02*
G36*
X140Y727D02*
X140Y723D01*
X138Y723D01*
X138Y719D01*
X136Y719D01*
X136Y717D01*
X134Y717D01*
X134Y713D01*
X132Y713D01*
X132Y711D01*
X130Y711D01*
X130Y709D01*
X128Y709D01*
X128Y707D01*
X124Y707D01*
X124Y705D01*
X122Y705D01*
X122Y703D01*
X118Y703D01*
X118Y701D01*
X116Y701D01*
X116Y681D01*
X120Y681D01*
X120Y679D01*
X124Y679D01*
X124Y677D01*
X126Y677D01*
X126Y675D01*
X128Y675D01*
X128Y673D01*
X132Y673D01*
X132Y669D01*
X134Y669D01*
X134Y667D01*
X136Y667D01*
X136Y665D01*
X138Y665D01*
X138Y661D01*
X140Y661D01*
X140Y655D01*
X160Y655D01*
X160Y661D01*
X162Y661D01*
X162Y665D01*
X164Y665D01*
X164Y667D01*
X166Y667D01*
X166Y669D01*
X168Y669D01*
X168Y673D01*
X172Y673D01*
X172Y675D01*
X174Y675D01*
X174Y677D01*
X176Y677D01*
X176Y679D01*
X180Y679D01*
X180Y681D01*
X184Y681D01*
X184Y701D01*
X182Y701D01*
X182Y703D01*
X178Y703D01*
X178Y705D01*
X176Y705D01*
X176Y707D01*
X172Y707D01*
X172Y709D01*
X170Y709D01*
X170Y711D01*
X168Y711D01*
X168Y713D01*
X166Y713D01*
X166Y717D01*
X164Y717D01*
X164Y719D01*
X162Y719D01*
X162Y723D01*
X160Y723D01*
X160Y727D01*
X140Y727D01*
G37*
D02*
G36*
X480Y643D02*
X480Y641D01*
X478Y641D01*
X478Y639D01*
X464Y639D01*
X464Y637D01*
X462Y637D01*
X462Y633D01*
X460Y633D01*
X460Y629D01*
X458Y629D01*
X458Y627D01*
X456Y627D01*
X456Y625D01*
X454Y625D01*
X454Y621D01*
X450Y621D01*
X450Y619D01*
X448Y619D01*
X448Y617D01*
X446Y617D01*
X446Y615D01*
X442Y615D01*
X442Y613D01*
X438Y613D01*
X438Y593D01*
X442Y593D01*
X442Y591D01*
X446Y591D01*
X446Y589D01*
X448Y589D01*
X448Y587D01*
X450Y587D01*
X450Y585D01*
X454Y585D01*
X454Y583D01*
X456Y583D01*
X456Y579D01*
X458Y579D01*
X458Y577D01*
X460Y577D01*
X460Y573D01*
X462Y573D01*
X462Y569D01*
X494Y569D01*
X494Y571D01*
X496Y571D01*
X496Y575D01*
X498Y575D01*
X498Y577D01*
X500Y577D01*
X500Y643D01*
X480Y643D01*
G37*
D02*
G36*
X40Y629D02*
X40Y555D01*
X60Y555D01*
X60Y561D01*
X62Y561D01*
X62Y565D01*
X64Y565D01*
X64Y567D01*
X66Y567D01*
X66Y569D01*
X68Y569D01*
X68Y573D01*
X72Y573D01*
X72Y575D01*
X74Y575D01*
X74Y577D01*
X76Y577D01*
X76Y579D01*
X80Y579D01*
X80Y581D01*
X84Y581D01*
X84Y601D01*
X82Y601D01*
X82Y603D01*
X78Y603D01*
X78Y605D01*
X76Y605D01*
X76Y607D01*
X72Y607D01*
X72Y609D01*
X70Y609D01*
X70Y611D01*
X68Y611D01*
X68Y613D01*
X66Y613D01*
X66Y617D01*
X64Y617D01*
X64Y619D01*
X62Y619D01*
X62Y623D01*
X60Y623D01*
X60Y629D01*
X40Y629D01*
G37*
D02*
G36*
X140Y627D02*
X140Y623D01*
X138Y623D01*
X138Y619D01*
X136Y619D01*
X136Y617D01*
X134Y617D01*
X134Y613D01*
X132Y613D01*
X132Y611D01*
X130Y611D01*
X130Y609D01*
X128Y609D01*
X128Y607D01*
X124Y607D01*
X124Y605D01*
X122Y605D01*
X122Y603D01*
X118Y603D01*
X118Y601D01*
X116Y601D01*
X116Y581D01*
X120Y581D01*
X120Y579D01*
X124Y579D01*
X124Y577D01*
X126Y577D01*
X126Y575D01*
X128Y575D01*
X128Y573D01*
X132Y573D01*
X132Y569D01*
X134Y569D01*
X134Y567D01*
X136Y567D01*
X136Y565D01*
X138Y565D01*
X138Y561D01*
X140Y561D01*
X140Y555D01*
X160Y555D01*
X160Y561D01*
X162Y561D01*
X162Y565D01*
X164Y565D01*
X164Y567D01*
X166Y567D01*
X166Y569D01*
X168Y569D01*
X168Y573D01*
X172Y573D01*
X172Y575D01*
X174Y575D01*
X174Y577D01*
X176Y577D01*
X176Y579D01*
X180Y579D01*
X180Y581D01*
X184Y581D01*
X184Y601D01*
X182Y601D01*
X182Y603D01*
X178Y603D01*
X178Y605D01*
X176Y605D01*
X176Y607D01*
X172Y607D01*
X172Y609D01*
X170Y609D01*
X170Y611D01*
X168Y611D01*
X168Y613D01*
X166Y613D01*
X166Y617D01*
X164Y617D01*
X164Y619D01*
X162Y619D01*
X162Y623D01*
X160Y623D01*
X160Y627D01*
X140Y627D01*
G37*
D02*
G36*
X40Y529D02*
X40Y455D01*
X60Y455D01*
X60Y461D01*
X62Y461D01*
X62Y465D01*
X64Y465D01*
X64Y467D01*
X66Y467D01*
X66Y469D01*
X68Y469D01*
X68Y473D01*
X72Y473D01*
X72Y475D01*
X74Y475D01*
X74Y477D01*
X76Y477D01*
X76Y479D01*
X80Y479D01*
X80Y481D01*
X84Y481D01*
X84Y501D01*
X82Y501D01*
X82Y503D01*
X78Y503D01*
X78Y505D01*
X76Y505D01*
X76Y507D01*
X72Y507D01*
X72Y509D01*
X70Y509D01*
X70Y511D01*
X68Y511D01*
X68Y513D01*
X66Y513D01*
X66Y517D01*
X64Y517D01*
X64Y519D01*
X62Y519D01*
X62Y523D01*
X60Y523D01*
X60Y529D01*
X40Y529D01*
G37*
D02*
G36*
X140Y527D02*
X140Y523D01*
X138Y523D01*
X138Y519D01*
X136Y519D01*
X136Y517D01*
X134Y517D01*
X134Y513D01*
X132Y513D01*
X132Y511D01*
X130Y511D01*
X130Y509D01*
X128Y509D01*
X128Y507D01*
X124Y507D01*
X124Y505D01*
X122Y505D01*
X122Y503D01*
X118Y503D01*
X118Y501D01*
X116Y501D01*
X116Y481D01*
X120Y481D01*
X120Y479D01*
X124Y479D01*
X124Y477D01*
X126Y477D01*
X126Y475D01*
X128Y475D01*
X128Y473D01*
X132Y473D01*
X132Y469D01*
X134Y469D01*
X134Y467D01*
X136Y467D01*
X136Y465D01*
X138Y465D01*
X138Y461D01*
X140Y461D01*
X140Y455D01*
X160Y455D01*
X160Y461D01*
X162Y461D01*
X162Y465D01*
X164Y465D01*
X164Y467D01*
X166Y467D01*
X166Y469D01*
X168Y469D01*
X168Y473D01*
X172Y473D01*
X172Y475D01*
X174Y475D01*
X174Y477D01*
X176Y477D01*
X176Y479D01*
X180Y479D01*
X180Y481D01*
X184Y481D01*
X184Y501D01*
X182Y501D01*
X182Y503D01*
X178Y503D01*
X178Y505D01*
X176Y505D01*
X176Y507D01*
X172Y507D01*
X172Y509D01*
X170Y509D01*
X170Y511D01*
X168Y511D01*
X168Y513D01*
X166Y513D01*
X166Y517D01*
X164Y517D01*
X164Y519D01*
X162Y519D01*
X162Y523D01*
X160Y523D01*
X160Y527D01*
X140Y527D01*
G37*
D02*
G36*
X40Y429D02*
X40Y355D01*
X60Y355D01*
X60Y361D01*
X62Y361D01*
X62Y365D01*
X64Y365D01*
X64Y367D01*
X66Y367D01*
X66Y369D01*
X68Y369D01*
X68Y373D01*
X72Y373D01*
X72Y375D01*
X74Y375D01*
X74Y377D01*
X76Y377D01*
X76Y379D01*
X80Y379D01*
X80Y381D01*
X84Y381D01*
X84Y401D01*
X82Y401D01*
X82Y403D01*
X78Y403D01*
X78Y405D01*
X76Y405D01*
X76Y407D01*
X72Y407D01*
X72Y409D01*
X70Y409D01*
X70Y411D01*
X68Y411D01*
X68Y413D01*
X66Y413D01*
X66Y417D01*
X64Y417D01*
X64Y419D01*
X62Y419D01*
X62Y423D01*
X60Y423D01*
X60Y429D01*
X40Y429D01*
G37*
D02*
G36*
X140Y427D02*
X140Y423D01*
X138Y423D01*
X138Y419D01*
X136Y419D01*
X136Y417D01*
X134Y417D01*
X134Y413D01*
X132Y413D01*
X132Y411D01*
X130Y411D01*
X130Y409D01*
X128Y409D01*
X128Y407D01*
X124Y407D01*
X124Y405D01*
X122Y405D01*
X122Y403D01*
X118Y403D01*
X118Y401D01*
X116Y401D01*
X116Y381D01*
X120Y381D01*
X120Y379D01*
X124Y379D01*
X124Y377D01*
X126Y377D01*
X126Y375D01*
X128Y375D01*
X128Y373D01*
X132Y373D01*
X132Y369D01*
X134Y369D01*
X134Y367D01*
X136Y367D01*
X136Y365D01*
X138Y365D01*
X138Y361D01*
X140Y361D01*
X140Y355D01*
X160Y355D01*
X160Y361D01*
X162Y361D01*
X162Y365D01*
X164Y365D01*
X164Y367D01*
X166Y367D01*
X166Y369D01*
X168Y369D01*
X168Y373D01*
X172Y373D01*
X172Y375D01*
X174Y375D01*
X174Y377D01*
X176Y377D01*
X176Y379D01*
X180Y379D01*
X180Y381D01*
X184Y381D01*
X184Y401D01*
X182Y401D01*
X182Y403D01*
X178Y403D01*
X178Y405D01*
X176Y405D01*
X176Y407D01*
X172Y407D01*
X172Y409D01*
X170Y409D01*
X170Y411D01*
X168Y411D01*
X168Y413D01*
X166Y413D01*
X166Y417D01*
X164Y417D01*
X164Y419D01*
X162Y419D01*
X162Y423D01*
X160Y423D01*
X160Y427D01*
X140Y427D01*
G37*
D02*
G36*
X40Y2547D02*
X40Y2495D01*
X860Y2495D01*
X860Y2493D01*
X868Y2493D01*
X868Y2491D01*
X874Y2491D01*
X874Y2489D01*
X876Y2489D01*
X876Y2487D01*
X880Y2487D01*
X880Y2485D01*
X882Y2485D01*
X882Y2483D01*
X886Y2483D01*
X886Y2481D01*
X888Y2481D01*
X888Y2479D01*
X890Y2479D01*
X890Y2475D01*
X892Y2475D01*
X892Y2473D01*
X894Y2473D01*
X894Y2469D01*
X896Y2469D01*
X896Y2467D01*
X898Y2467D01*
X898Y2461D01*
X900Y2461D01*
X900Y2453D01*
X902Y2453D01*
X902Y2437D01*
X900Y2437D01*
X900Y2431D01*
X898Y2431D01*
X898Y2425D01*
X896Y2425D01*
X896Y2421D01*
X894Y2421D01*
X894Y2417D01*
X892Y2417D01*
X892Y2415D01*
X890Y2415D01*
X890Y2413D01*
X888Y2413D01*
X888Y2411D01*
X886Y2411D01*
X886Y2409D01*
X884Y2409D01*
X884Y2407D01*
X882Y2407D01*
X882Y2405D01*
X878Y2405D01*
X878Y2403D01*
X874Y2403D01*
X874Y2401D01*
X870Y2401D01*
X870Y2399D01*
X864Y2399D01*
X864Y2397D01*
X1160Y2397D01*
X1160Y2547D01*
X40Y2547D01*
G37*
D02*
G36*
X40Y2495D02*
X40Y2397D01*
X342Y2397D01*
X342Y2399D01*
X336Y2399D01*
X336Y2401D01*
X330Y2401D01*
X330Y2403D01*
X328Y2403D01*
X328Y2405D01*
X324Y2405D01*
X324Y2407D01*
X322Y2407D01*
X322Y2409D01*
X320Y2409D01*
X320Y2411D01*
X318Y2411D01*
X318Y2413D01*
X316Y2413D01*
X316Y2415D01*
X314Y2415D01*
X314Y2417D01*
X312Y2417D01*
X312Y2421D01*
X310Y2421D01*
X310Y2425D01*
X308Y2425D01*
X308Y2429D01*
X306Y2429D01*
X306Y2435D01*
X304Y2435D01*
X304Y2455D01*
X306Y2455D01*
X306Y2463D01*
X308Y2463D01*
X308Y2467D01*
X310Y2467D01*
X310Y2471D01*
X312Y2471D01*
X312Y2473D01*
X314Y2473D01*
X314Y2477D01*
X316Y2477D01*
X316Y2479D01*
X318Y2479D01*
X318Y2481D01*
X320Y2481D01*
X320Y2483D01*
X322Y2483D01*
X322Y2485D01*
X326Y2485D01*
X326Y2487D01*
X328Y2487D01*
X328Y2489D01*
X332Y2489D01*
X332Y2491D01*
X338Y2491D01*
X338Y2493D01*
X346Y2493D01*
X346Y2495D01*
X40Y2495D01*
G37*
D02*
G36*
X360Y2495D02*
X360Y2493D01*
X368Y2493D01*
X368Y2491D01*
X374Y2491D01*
X374Y2489D01*
X376Y2489D01*
X376Y2487D01*
X380Y2487D01*
X380Y2485D01*
X382Y2485D01*
X382Y2483D01*
X386Y2483D01*
X386Y2481D01*
X388Y2481D01*
X388Y2479D01*
X390Y2479D01*
X390Y2475D01*
X392Y2475D01*
X392Y2473D01*
X414Y2473D01*
X414Y2477D01*
X416Y2477D01*
X416Y2479D01*
X418Y2479D01*
X418Y2481D01*
X420Y2481D01*
X420Y2483D01*
X422Y2483D01*
X422Y2485D01*
X426Y2485D01*
X426Y2487D01*
X428Y2487D01*
X428Y2489D01*
X432Y2489D01*
X432Y2491D01*
X438Y2491D01*
X438Y2493D01*
X446Y2493D01*
X446Y2495D01*
X360Y2495D01*
G37*
D02*
G36*
X460Y2495D02*
X460Y2493D01*
X468Y2493D01*
X468Y2491D01*
X474Y2491D01*
X474Y2489D01*
X476Y2489D01*
X476Y2487D01*
X480Y2487D01*
X480Y2485D01*
X482Y2485D01*
X482Y2483D01*
X486Y2483D01*
X486Y2481D01*
X488Y2481D01*
X488Y2479D01*
X490Y2479D01*
X490Y2475D01*
X492Y2475D01*
X492Y2473D01*
X514Y2473D01*
X514Y2477D01*
X516Y2477D01*
X516Y2479D01*
X518Y2479D01*
X518Y2481D01*
X520Y2481D01*
X520Y2483D01*
X522Y2483D01*
X522Y2485D01*
X526Y2485D01*
X526Y2487D01*
X528Y2487D01*
X528Y2489D01*
X532Y2489D01*
X532Y2491D01*
X538Y2491D01*
X538Y2493D01*
X546Y2493D01*
X546Y2495D01*
X460Y2495D01*
G37*
D02*
G36*
X560Y2495D02*
X560Y2493D01*
X568Y2493D01*
X568Y2491D01*
X574Y2491D01*
X574Y2489D01*
X576Y2489D01*
X576Y2487D01*
X580Y2487D01*
X580Y2485D01*
X582Y2485D01*
X582Y2483D01*
X586Y2483D01*
X586Y2481D01*
X588Y2481D01*
X588Y2479D01*
X590Y2479D01*
X590Y2475D01*
X592Y2475D01*
X592Y2473D01*
X614Y2473D01*
X614Y2477D01*
X616Y2477D01*
X616Y2479D01*
X618Y2479D01*
X618Y2481D01*
X620Y2481D01*
X620Y2483D01*
X622Y2483D01*
X622Y2485D01*
X626Y2485D01*
X626Y2487D01*
X628Y2487D01*
X628Y2489D01*
X632Y2489D01*
X632Y2491D01*
X638Y2491D01*
X638Y2493D01*
X646Y2493D01*
X646Y2495D01*
X560Y2495D01*
G37*
D02*
G36*
X660Y2495D02*
X660Y2493D01*
X668Y2493D01*
X668Y2491D01*
X674Y2491D01*
X674Y2489D01*
X676Y2489D01*
X676Y2487D01*
X680Y2487D01*
X680Y2485D01*
X682Y2485D01*
X682Y2483D01*
X686Y2483D01*
X686Y2481D01*
X688Y2481D01*
X688Y2479D01*
X690Y2479D01*
X690Y2475D01*
X692Y2475D01*
X692Y2473D01*
X714Y2473D01*
X714Y2477D01*
X716Y2477D01*
X716Y2479D01*
X718Y2479D01*
X718Y2481D01*
X720Y2481D01*
X720Y2483D01*
X722Y2483D01*
X722Y2485D01*
X726Y2485D01*
X726Y2487D01*
X728Y2487D01*
X728Y2489D01*
X732Y2489D01*
X732Y2491D01*
X738Y2491D01*
X738Y2493D01*
X746Y2493D01*
X746Y2495D01*
X660Y2495D01*
G37*
D02*
G36*
X760Y2495D02*
X760Y2493D01*
X768Y2493D01*
X768Y2491D01*
X774Y2491D01*
X774Y2489D01*
X776Y2489D01*
X776Y2487D01*
X780Y2487D01*
X780Y2485D01*
X782Y2485D01*
X782Y2483D01*
X786Y2483D01*
X786Y2481D01*
X788Y2481D01*
X788Y2479D01*
X790Y2479D01*
X790Y2475D01*
X792Y2475D01*
X792Y2473D01*
X814Y2473D01*
X814Y2477D01*
X816Y2477D01*
X816Y2479D01*
X818Y2479D01*
X818Y2481D01*
X820Y2481D01*
X820Y2483D01*
X822Y2483D01*
X822Y2485D01*
X826Y2485D01*
X826Y2487D01*
X828Y2487D01*
X828Y2489D01*
X832Y2489D01*
X832Y2491D01*
X838Y2491D01*
X838Y2493D01*
X846Y2493D01*
X846Y2495D01*
X760Y2495D01*
G37*
D02*
G36*
X392Y2417D02*
X392Y2415D01*
X390Y2415D01*
X390Y2413D01*
X388Y2413D01*
X388Y2411D01*
X386Y2411D01*
X386Y2409D01*
X384Y2409D01*
X384Y2407D01*
X382Y2407D01*
X382Y2405D01*
X378Y2405D01*
X378Y2403D01*
X374Y2403D01*
X374Y2401D01*
X370Y2401D01*
X370Y2399D01*
X364Y2399D01*
X364Y2397D01*
X442Y2397D01*
X442Y2399D01*
X436Y2399D01*
X436Y2401D01*
X430Y2401D01*
X430Y2403D01*
X428Y2403D01*
X428Y2405D01*
X424Y2405D01*
X424Y2407D01*
X422Y2407D01*
X422Y2409D01*
X420Y2409D01*
X420Y2411D01*
X418Y2411D01*
X418Y2413D01*
X416Y2413D01*
X416Y2415D01*
X414Y2415D01*
X414Y2417D01*
X392Y2417D01*
G37*
D02*
G36*
X492Y2417D02*
X492Y2415D01*
X490Y2415D01*
X490Y2413D01*
X488Y2413D01*
X488Y2411D01*
X486Y2411D01*
X486Y2409D01*
X484Y2409D01*
X484Y2407D01*
X482Y2407D01*
X482Y2405D01*
X478Y2405D01*
X478Y2403D01*
X474Y2403D01*
X474Y2401D01*
X470Y2401D01*
X470Y2399D01*
X464Y2399D01*
X464Y2397D01*
X542Y2397D01*
X542Y2399D01*
X536Y2399D01*
X536Y2401D01*
X530Y2401D01*
X530Y2403D01*
X528Y2403D01*
X528Y2405D01*
X524Y2405D01*
X524Y2407D01*
X522Y2407D01*
X522Y2409D01*
X520Y2409D01*
X520Y2411D01*
X518Y2411D01*
X518Y2413D01*
X516Y2413D01*
X516Y2415D01*
X514Y2415D01*
X514Y2417D01*
X492Y2417D01*
G37*
D02*
G36*
X592Y2417D02*
X592Y2415D01*
X590Y2415D01*
X590Y2413D01*
X588Y2413D01*
X588Y2411D01*
X586Y2411D01*
X586Y2409D01*
X584Y2409D01*
X584Y2407D01*
X582Y2407D01*
X582Y2405D01*
X578Y2405D01*
X578Y2403D01*
X574Y2403D01*
X574Y2401D01*
X570Y2401D01*
X570Y2399D01*
X564Y2399D01*
X564Y2397D01*
X642Y2397D01*
X642Y2399D01*
X636Y2399D01*
X636Y2401D01*
X630Y2401D01*
X630Y2403D01*
X628Y2403D01*
X628Y2405D01*
X624Y2405D01*
X624Y2407D01*
X622Y2407D01*
X622Y2409D01*
X620Y2409D01*
X620Y2411D01*
X618Y2411D01*
X618Y2413D01*
X616Y2413D01*
X616Y2415D01*
X614Y2415D01*
X614Y2417D01*
X592Y2417D01*
G37*
D02*
G36*
X692Y2417D02*
X692Y2415D01*
X690Y2415D01*
X690Y2413D01*
X688Y2413D01*
X688Y2411D01*
X686Y2411D01*
X686Y2409D01*
X684Y2409D01*
X684Y2407D01*
X682Y2407D01*
X682Y2405D01*
X678Y2405D01*
X678Y2403D01*
X674Y2403D01*
X674Y2401D01*
X670Y2401D01*
X670Y2399D01*
X664Y2399D01*
X664Y2397D01*
X730Y2397D01*
X730Y2403D01*
X728Y2403D01*
X728Y2405D01*
X724Y2405D01*
X724Y2407D01*
X722Y2407D01*
X722Y2409D01*
X720Y2409D01*
X720Y2411D01*
X718Y2411D01*
X718Y2413D01*
X716Y2413D01*
X716Y2415D01*
X714Y2415D01*
X714Y2417D01*
X692Y2417D01*
G37*
D02*
G36*
X792Y2417D02*
X792Y2415D01*
X790Y2415D01*
X790Y2413D01*
X788Y2413D01*
X788Y2411D01*
X786Y2411D01*
X786Y2409D01*
X784Y2409D01*
X784Y2407D01*
X782Y2407D01*
X782Y2405D01*
X778Y2405D01*
X778Y2403D01*
X774Y2403D01*
X774Y2397D01*
X842Y2397D01*
X842Y2399D01*
X836Y2399D01*
X836Y2401D01*
X830Y2401D01*
X830Y2403D01*
X828Y2403D01*
X828Y2405D01*
X824Y2405D01*
X824Y2407D01*
X822Y2407D01*
X822Y2409D01*
X820Y2409D01*
X820Y2411D01*
X818Y2411D01*
X818Y2413D01*
X816Y2413D01*
X816Y2415D01*
X814Y2415D01*
X814Y2417D01*
X792Y2417D01*
G37*
D02*
G36*
X40Y2397D02*
X40Y2395D01*
X730Y2395D01*
X730Y2397D01*
X40Y2397D01*
G37*
D02*
G36*
X40Y2397D02*
X40Y2395D01*
X730Y2395D01*
X730Y2397D01*
X40Y2397D01*
G37*
D02*
G36*
X40Y2397D02*
X40Y2395D01*
X730Y2395D01*
X730Y2397D01*
X40Y2397D01*
G37*
D02*
G36*
X40Y2397D02*
X40Y2395D01*
X730Y2395D01*
X730Y2397D01*
X40Y2397D01*
G37*
D02*
G36*
X40Y2397D02*
X40Y2395D01*
X730Y2395D01*
X730Y2397D01*
X40Y2397D01*
G37*
D02*
G36*
X774Y2397D02*
X774Y2395D01*
X1160Y2395D01*
X1160Y2397D01*
X774Y2397D01*
G37*
D02*
G36*
X774Y2397D02*
X774Y2395D01*
X1160Y2395D01*
X1160Y2397D01*
X774Y2397D01*
G37*
D02*
G36*
X40Y2395D02*
X40Y2285D01*
X210Y2285D01*
X210Y2283D01*
X216Y2283D01*
X216Y2281D01*
X220Y2281D01*
X220Y2279D01*
X224Y2279D01*
X224Y2277D01*
X226Y2277D01*
X226Y2275D01*
X228Y2275D01*
X228Y2273D01*
X232Y2273D01*
X232Y2269D01*
X234Y2269D01*
X234Y2267D01*
X236Y2267D01*
X236Y2265D01*
X238Y2265D01*
X238Y2261D01*
X240Y2261D01*
X240Y2255D01*
X242Y2255D01*
X242Y2247D01*
X244Y2247D01*
X244Y2235D01*
X242Y2235D01*
X242Y2227D01*
X240Y2227D01*
X240Y2223D01*
X238Y2223D01*
X238Y2219D01*
X236Y2219D01*
X236Y2217D01*
X234Y2217D01*
X234Y2213D01*
X232Y2213D01*
X232Y2211D01*
X230Y2211D01*
X230Y2209D01*
X228Y2209D01*
X228Y2207D01*
X224Y2207D01*
X224Y2205D01*
X222Y2205D01*
X222Y2203D01*
X218Y2203D01*
X218Y2201D01*
X216Y2201D01*
X216Y2181D01*
X220Y2181D01*
X220Y2179D01*
X224Y2179D01*
X224Y2177D01*
X226Y2177D01*
X226Y2175D01*
X228Y2175D01*
X228Y2173D01*
X232Y2173D01*
X232Y2169D01*
X234Y2169D01*
X234Y2167D01*
X236Y2167D01*
X236Y2165D01*
X238Y2165D01*
X238Y2161D01*
X240Y2161D01*
X240Y2155D01*
X242Y2155D01*
X242Y2147D01*
X244Y2147D01*
X244Y2135D01*
X242Y2135D01*
X242Y2127D01*
X240Y2127D01*
X240Y2123D01*
X238Y2123D01*
X238Y2119D01*
X236Y2119D01*
X236Y2117D01*
X234Y2117D01*
X234Y2113D01*
X232Y2113D01*
X232Y2111D01*
X230Y2111D01*
X230Y2109D01*
X228Y2109D01*
X228Y2107D01*
X224Y2107D01*
X224Y2105D01*
X222Y2105D01*
X222Y2103D01*
X218Y2103D01*
X218Y2101D01*
X216Y2101D01*
X216Y2081D01*
X220Y2081D01*
X220Y2079D01*
X224Y2079D01*
X224Y2077D01*
X226Y2077D01*
X226Y2075D01*
X228Y2075D01*
X228Y2073D01*
X232Y2073D01*
X232Y2069D01*
X234Y2069D01*
X234Y2067D01*
X236Y2067D01*
X236Y2065D01*
X238Y2065D01*
X238Y2061D01*
X240Y2061D01*
X240Y2055D01*
X242Y2055D01*
X242Y2047D01*
X244Y2047D01*
X244Y2035D01*
X242Y2035D01*
X242Y2027D01*
X240Y2027D01*
X240Y2023D01*
X238Y2023D01*
X238Y2019D01*
X236Y2019D01*
X236Y2017D01*
X234Y2017D01*
X234Y2013D01*
X232Y2013D01*
X232Y2011D01*
X230Y2011D01*
X230Y2009D01*
X228Y2009D01*
X228Y2007D01*
X224Y2007D01*
X224Y2005D01*
X222Y2005D01*
X222Y2003D01*
X218Y2003D01*
X218Y2001D01*
X216Y2001D01*
X216Y1981D01*
X220Y1981D01*
X220Y1979D01*
X224Y1979D01*
X224Y1977D01*
X226Y1977D01*
X226Y1975D01*
X228Y1975D01*
X228Y1973D01*
X232Y1973D01*
X232Y1969D01*
X234Y1969D01*
X234Y1967D01*
X236Y1967D01*
X236Y1965D01*
X238Y1965D01*
X238Y1961D01*
X240Y1961D01*
X240Y1955D01*
X242Y1955D01*
X242Y1947D01*
X244Y1947D01*
X244Y1935D01*
X242Y1935D01*
X242Y1927D01*
X240Y1927D01*
X240Y1923D01*
X238Y1923D01*
X238Y1919D01*
X236Y1919D01*
X236Y1917D01*
X234Y1917D01*
X234Y1913D01*
X232Y1913D01*
X232Y1911D01*
X230Y1911D01*
X230Y1909D01*
X228Y1909D01*
X228Y1907D01*
X224Y1907D01*
X224Y1905D01*
X222Y1905D01*
X222Y1903D01*
X218Y1903D01*
X218Y1901D01*
X216Y1901D01*
X216Y1881D01*
X220Y1881D01*
X220Y1879D01*
X224Y1879D01*
X224Y1877D01*
X226Y1877D01*
X226Y1875D01*
X228Y1875D01*
X228Y1873D01*
X232Y1873D01*
X232Y1869D01*
X234Y1869D01*
X234Y1867D01*
X236Y1867D01*
X236Y1865D01*
X238Y1865D01*
X238Y1861D01*
X240Y1861D01*
X240Y1855D01*
X242Y1855D01*
X242Y1847D01*
X244Y1847D01*
X244Y1835D01*
X242Y1835D01*
X242Y1827D01*
X240Y1827D01*
X240Y1823D01*
X238Y1823D01*
X238Y1819D01*
X236Y1819D01*
X236Y1817D01*
X234Y1817D01*
X234Y1813D01*
X232Y1813D01*
X232Y1811D01*
X230Y1811D01*
X230Y1809D01*
X228Y1809D01*
X228Y1807D01*
X224Y1807D01*
X224Y1805D01*
X222Y1805D01*
X222Y1803D01*
X218Y1803D01*
X218Y1801D01*
X216Y1801D01*
X216Y1781D01*
X220Y1781D01*
X220Y1779D01*
X224Y1779D01*
X224Y1777D01*
X226Y1777D01*
X226Y1775D01*
X228Y1775D01*
X228Y1773D01*
X232Y1773D01*
X232Y1769D01*
X234Y1769D01*
X234Y1767D01*
X236Y1767D01*
X236Y1765D01*
X238Y1765D01*
X238Y1761D01*
X240Y1761D01*
X240Y1755D01*
X242Y1755D01*
X242Y1747D01*
X244Y1747D01*
X244Y1735D01*
X242Y1735D01*
X242Y1727D01*
X240Y1727D01*
X240Y1723D01*
X238Y1723D01*
X238Y1719D01*
X236Y1719D01*
X236Y1717D01*
X234Y1717D01*
X234Y1713D01*
X232Y1713D01*
X232Y1711D01*
X230Y1711D01*
X230Y1709D01*
X228Y1709D01*
X228Y1707D01*
X224Y1707D01*
X224Y1705D01*
X222Y1705D01*
X222Y1703D01*
X218Y1703D01*
X218Y1701D01*
X216Y1701D01*
X216Y1681D01*
X220Y1681D01*
X220Y1679D01*
X224Y1679D01*
X224Y1677D01*
X226Y1677D01*
X226Y1675D01*
X228Y1675D01*
X228Y1673D01*
X232Y1673D01*
X232Y1669D01*
X234Y1669D01*
X234Y1667D01*
X236Y1667D01*
X236Y1665D01*
X238Y1665D01*
X238Y1661D01*
X240Y1661D01*
X240Y1655D01*
X242Y1655D01*
X242Y1647D01*
X244Y1647D01*
X244Y1635D01*
X242Y1635D01*
X242Y1627D01*
X240Y1627D01*
X240Y1623D01*
X238Y1623D01*
X238Y1619D01*
X236Y1619D01*
X236Y1617D01*
X234Y1617D01*
X234Y1613D01*
X232Y1613D01*
X232Y1611D01*
X230Y1611D01*
X230Y1609D01*
X228Y1609D01*
X228Y1607D01*
X224Y1607D01*
X224Y1605D01*
X222Y1605D01*
X222Y1603D01*
X218Y1603D01*
X218Y1601D01*
X216Y1601D01*
X216Y1581D01*
X220Y1581D01*
X220Y1579D01*
X224Y1579D01*
X224Y1577D01*
X226Y1577D01*
X226Y1575D01*
X228Y1575D01*
X228Y1573D01*
X232Y1573D01*
X232Y1569D01*
X234Y1569D01*
X234Y1567D01*
X236Y1567D01*
X236Y1565D01*
X238Y1565D01*
X238Y1561D01*
X240Y1561D01*
X240Y1555D01*
X242Y1555D01*
X242Y1547D01*
X244Y1547D01*
X244Y1535D01*
X242Y1535D01*
X242Y1527D01*
X240Y1527D01*
X240Y1523D01*
X238Y1523D01*
X238Y1519D01*
X236Y1519D01*
X236Y1517D01*
X234Y1517D01*
X234Y1513D01*
X232Y1513D01*
X232Y1511D01*
X230Y1511D01*
X230Y1509D01*
X228Y1509D01*
X228Y1507D01*
X224Y1507D01*
X224Y1505D01*
X222Y1505D01*
X222Y1503D01*
X218Y1503D01*
X218Y1501D01*
X216Y1501D01*
X216Y1481D01*
X220Y1481D01*
X220Y1479D01*
X224Y1479D01*
X224Y1477D01*
X226Y1477D01*
X226Y1475D01*
X228Y1475D01*
X228Y1473D01*
X232Y1473D01*
X232Y1469D01*
X234Y1469D01*
X234Y1467D01*
X236Y1467D01*
X236Y1465D01*
X238Y1465D01*
X238Y1461D01*
X240Y1461D01*
X240Y1455D01*
X242Y1455D01*
X242Y1447D01*
X244Y1447D01*
X244Y1435D01*
X242Y1435D01*
X242Y1427D01*
X240Y1427D01*
X240Y1423D01*
X238Y1423D01*
X238Y1419D01*
X236Y1419D01*
X236Y1417D01*
X234Y1417D01*
X234Y1413D01*
X232Y1413D01*
X232Y1411D01*
X230Y1411D01*
X230Y1409D01*
X228Y1409D01*
X228Y1407D01*
X224Y1407D01*
X224Y1405D01*
X222Y1405D01*
X222Y1403D01*
X218Y1403D01*
X218Y1401D01*
X216Y1401D01*
X216Y1381D01*
X220Y1381D01*
X220Y1379D01*
X224Y1379D01*
X224Y1377D01*
X226Y1377D01*
X226Y1375D01*
X228Y1375D01*
X228Y1373D01*
X232Y1373D01*
X232Y1369D01*
X234Y1369D01*
X234Y1367D01*
X236Y1367D01*
X236Y1365D01*
X238Y1365D01*
X238Y1361D01*
X240Y1361D01*
X240Y1355D01*
X242Y1355D01*
X242Y1347D01*
X244Y1347D01*
X244Y1335D01*
X242Y1335D01*
X242Y1327D01*
X240Y1327D01*
X240Y1323D01*
X238Y1323D01*
X238Y1319D01*
X236Y1319D01*
X236Y1317D01*
X234Y1317D01*
X234Y1313D01*
X232Y1313D01*
X232Y1311D01*
X230Y1311D01*
X230Y1309D01*
X228Y1309D01*
X228Y1307D01*
X224Y1307D01*
X224Y1305D01*
X222Y1305D01*
X222Y1303D01*
X218Y1303D01*
X218Y1301D01*
X216Y1301D01*
X216Y1281D01*
X220Y1281D01*
X220Y1279D01*
X224Y1279D01*
X224Y1277D01*
X226Y1277D01*
X226Y1275D01*
X228Y1275D01*
X228Y1273D01*
X232Y1273D01*
X232Y1269D01*
X234Y1269D01*
X234Y1267D01*
X236Y1267D01*
X236Y1265D01*
X238Y1265D01*
X238Y1261D01*
X240Y1261D01*
X240Y1255D01*
X242Y1255D01*
X242Y1247D01*
X244Y1247D01*
X244Y1235D01*
X242Y1235D01*
X242Y1227D01*
X240Y1227D01*
X240Y1223D01*
X238Y1223D01*
X238Y1219D01*
X236Y1219D01*
X236Y1217D01*
X234Y1217D01*
X234Y1213D01*
X232Y1213D01*
X232Y1211D01*
X230Y1211D01*
X230Y1209D01*
X228Y1209D01*
X228Y1207D01*
X224Y1207D01*
X224Y1205D01*
X222Y1205D01*
X222Y1203D01*
X218Y1203D01*
X218Y1201D01*
X216Y1201D01*
X216Y1197D01*
X430Y1197D01*
X430Y1195D01*
X438Y1195D01*
X438Y1193D01*
X442Y1193D01*
X442Y1191D01*
X446Y1191D01*
X446Y1189D01*
X448Y1189D01*
X448Y1187D01*
X450Y1187D01*
X450Y1185D01*
X454Y1185D01*
X454Y1183D01*
X456Y1183D01*
X456Y1179D01*
X458Y1179D01*
X458Y1177D01*
X460Y1177D01*
X460Y1173D01*
X462Y1173D01*
X462Y1169D01*
X464Y1169D01*
X464Y1163D01*
X466Y1163D01*
X466Y1143D01*
X464Y1143D01*
X464Y1119D01*
X508Y1119D01*
X508Y1117D01*
X510Y1117D01*
X510Y1115D01*
X512Y1115D01*
X512Y1113D01*
X514Y1113D01*
X514Y1111D01*
X516Y1111D01*
X516Y1109D01*
X518Y1109D01*
X518Y1105D01*
X520Y1105D01*
X520Y1103D01*
X522Y1103D01*
X522Y1101D01*
X524Y1101D01*
X524Y1097D01*
X526Y1097D01*
X526Y1093D01*
X528Y1093D01*
X528Y571D01*
X526Y571D01*
X526Y567D01*
X524Y567D01*
X524Y563D01*
X522Y563D01*
X522Y559D01*
X520Y559D01*
X520Y557D01*
X518Y557D01*
X518Y553D01*
X516Y553D01*
X516Y549D01*
X514Y549D01*
X514Y547D01*
X512Y547D01*
X512Y545D01*
X510Y545D01*
X510Y543D01*
X508Y543D01*
X508Y541D01*
X482Y541D01*
X482Y539D01*
X464Y539D01*
X464Y537D01*
X462Y537D01*
X462Y533D01*
X460Y533D01*
X460Y529D01*
X458Y529D01*
X458Y527D01*
X456Y527D01*
X456Y525D01*
X454Y525D01*
X454Y521D01*
X450Y521D01*
X450Y519D01*
X448Y519D01*
X448Y517D01*
X446Y517D01*
X446Y515D01*
X442Y515D01*
X442Y513D01*
X438Y513D01*
X438Y493D01*
X442Y493D01*
X442Y491D01*
X446Y491D01*
X446Y489D01*
X448Y489D01*
X448Y487D01*
X450Y487D01*
X450Y485D01*
X454Y485D01*
X454Y483D01*
X456Y483D01*
X456Y479D01*
X458Y479D01*
X458Y477D01*
X460Y477D01*
X460Y473D01*
X462Y473D01*
X462Y469D01*
X464Y469D01*
X464Y463D01*
X466Y463D01*
X466Y443D01*
X464Y443D01*
X464Y437D01*
X462Y437D01*
X462Y433D01*
X460Y433D01*
X460Y429D01*
X458Y429D01*
X458Y427D01*
X456Y427D01*
X456Y425D01*
X454Y425D01*
X454Y421D01*
X450Y421D01*
X450Y419D01*
X448Y419D01*
X448Y417D01*
X446Y417D01*
X446Y415D01*
X442Y415D01*
X442Y413D01*
X436Y413D01*
X436Y411D01*
X428Y411D01*
X428Y409D01*
X808Y409D01*
X808Y411D01*
X806Y411D01*
X806Y413D01*
X804Y413D01*
X804Y415D01*
X800Y415D01*
X800Y417D01*
X798Y417D01*
X798Y419D01*
X794Y419D01*
X794Y421D01*
X792Y421D01*
X792Y425D01*
X790Y425D01*
X790Y427D01*
X788Y427D01*
X788Y429D01*
X786Y429D01*
X786Y433D01*
X784Y433D01*
X784Y439D01*
X782Y439D01*
X782Y451D01*
X780Y451D01*
X780Y453D01*
X782Y453D01*
X782Y463D01*
X784Y463D01*
X784Y469D01*
X786Y469D01*
X786Y473D01*
X788Y473D01*
X788Y477D01*
X790Y477D01*
X790Y479D01*
X792Y479D01*
X792Y481D01*
X794Y481D01*
X794Y483D01*
X796Y483D01*
X796Y485D01*
X798Y485D01*
X798Y487D01*
X800Y487D01*
X800Y489D01*
X804Y489D01*
X804Y491D01*
X808Y491D01*
X808Y511D01*
X806Y511D01*
X806Y513D01*
X804Y513D01*
X804Y515D01*
X800Y515D01*
X800Y517D01*
X798Y517D01*
X798Y519D01*
X794Y519D01*
X794Y521D01*
X792Y521D01*
X792Y525D01*
X790Y525D01*
X790Y527D01*
X788Y527D01*
X788Y529D01*
X786Y529D01*
X786Y533D01*
X784Y533D01*
X784Y539D01*
X782Y539D01*
X782Y551D01*
X780Y551D01*
X780Y553D01*
X782Y553D01*
X782Y563D01*
X784Y563D01*
X784Y569D01*
X786Y569D01*
X786Y573D01*
X788Y573D01*
X788Y577D01*
X790Y577D01*
X790Y579D01*
X792Y579D01*
X792Y581D01*
X794Y581D01*
X794Y583D01*
X796Y583D01*
X796Y585D01*
X798Y585D01*
X798Y587D01*
X800Y587D01*
X800Y589D01*
X804Y589D01*
X804Y591D01*
X808Y591D01*
X808Y611D01*
X806Y611D01*
X806Y613D01*
X804Y613D01*
X804Y615D01*
X800Y615D01*
X800Y617D01*
X798Y617D01*
X798Y619D01*
X794Y619D01*
X794Y621D01*
X792Y621D01*
X792Y625D01*
X790Y625D01*
X790Y627D01*
X788Y627D01*
X788Y629D01*
X786Y629D01*
X786Y633D01*
X784Y633D01*
X784Y639D01*
X782Y639D01*
X782Y651D01*
X780Y651D01*
X780Y653D01*
X782Y653D01*
X782Y663D01*
X784Y663D01*
X784Y669D01*
X786Y669D01*
X786Y673D01*
X788Y673D01*
X788Y677D01*
X790Y677D01*
X790Y679D01*
X792Y679D01*
X792Y681D01*
X794Y681D01*
X794Y683D01*
X796Y683D01*
X796Y685D01*
X798Y685D01*
X798Y687D01*
X800Y687D01*
X800Y689D01*
X804Y689D01*
X804Y691D01*
X808Y691D01*
X808Y711D01*
X806Y711D01*
X806Y713D01*
X804Y713D01*
X804Y715D01*
X800Y715D01*
X800Y717D01*
X798Y717D01*
X798Y719D01*
X794Y719D01*
X794Y721D01*
X792Y721D01*
X792Y725D01*
X790Y725D01*
X790Y727D01*
X788Y727D01*
X788Y729D01*
X786Y729D01*
X786Y733D01*
X784Y733D01*
X784Y739D01*
X782Y739D01*
X782Y751D01*
X780Y751D01*
X780Y753D01*
X782Y753D01*
X782Y763D01*
X784Y763D01*
X784Y769D01*
X786Y769D01*
X786Y773D01*
X788Y773D01*
X788Y777D01*
X790Y777D01*
X790Y779D01*
X792Y779D01*
X792Y781D01*
X794Y781D01*
X794Y783D01*
X796Y783D01*
X796Y785D01*
X798Y785D01*
X798Y787D01*
X800Y787D01*
X800Y789D01*
X804Y789D01*
X804Y791D01*
X808Y791D01*
X808Y811D01*
X806Y811D01*
X806Y813D01*
X804Y813D01*
X804Y815D01*
X800Y815D01*
X800Y817D01*
X798Y817D01*
X798Y819D01*
X794Y819D01*
X794Y821D01*
X792Y821D01*
X792Y825D01*
X790Y825D01*
X790Y827D01*
X788Y827D01*
X788Y829D01*
X786Y829D01*
X786Y833D01*
X784Y833D01*
X784Y839D01*
X782Y839D01*
X782Y851D01*
X780Y851D01*
X780Y853D01*
X782Y853D01*
X782Y863D01*
X784Y863D01*
X784Y869D01*
X786Y869D01*
X786Y873D01*
X788Y873D01*
X788Y877D01*
X790Y877D01*
X790Y879D01*
X792Y879D01*
X792Y881D01*
X794Y881D01*
X794Y883D01*
X796Y883D01*
X796Y885D01*
X798Y885D01*
X798Y887D01*
X800Y887D01*
X800Y889D01*
X804Y889D01*
X804Y891D01*
X808Y891D01*
X808Y911D01*
X806Y911D01*
X806Y913D01*
X804Y913D01*
X804Y915D01*
X800Y915D01*
X800Y917D01*
X798Y917D01*
X798Y919D01*
X794Y919D01*
X794Y921D01*
X792Y921D01*
X792Y925D01*
X790Y925D01*
X790Y927D01*
X788Y927D01*
X788Y929D01*
X786Y929D01*
X786Y933D01*
X784Y933D01*
X784Y939D01*
X782Y939D01*
X782Y951D01*
X780Y951D01*
X780Y953D01*
X782Y953D01*
X782Y963D01*
X784Y963D01*
X784Y969D01*
X786Y969D01*
X786Y973D01*
X788Y973D01*
X788Y977D01*
X790Y977D01*
X790Y979D01*
X792Y979D01*
X792Y981D01*
X794Y981D01*
X794Y983D01*
X796Y983D01*
X796Y985D01*
X798Y985D01*
X798Y987D01*
X800Y987D01*
X800Y989D01*
X804Y989D01*
X804Y991D01*
X808Y991D01*
X808Y1011D01*
X806Y1011D01*
X806Y1013D01*
X804Y1013D01*
X804Y1015D01*
X800Y1015D01*
X800Y1017D01*
X798Y1017D01*
X798Y1019D01*
X794Y1019D01*
X794Y1021D01*
X792Y1021D01*
X792Y1025D01*
X790Y1025D01*
X790Y1027D01*
X788Y1027D01*
X788Y1029D01*
X786Y1029D01*
X786Y1033D01*
X784Y1033D01*
X784Y1039D01*
X782Y1039D01*
X782Y1051D01*
X780Y1051D01*
X780Y1053D01*
X782Y1053D01*
X782Y1063D01*
X784Y1063D01*
X784Y1069D01*
X786Y1069D01*
X786Y1073D01*
X788Y1073D01*
X788Y1077D01*
X790Y1077D01*
X790Y1079D01*
X792Y1079D01*
X792Y1081D01*
X794Y1081D01*
X794Y1083D01*
X796Y1083D01*
X796Y1085D01*
X798Y1085D01*
X798Y1087D01*
X800Y1087D01*
X800Y1089D01*
X804Y1089D01*
X804Y1091D01*
X808Y1091D01*
X808Y1111D01*
X806Y1111D01*
X806Y1113D01*
X804Y1113D01*
X804Y1115D01*
X800Y1115D01*
X800Y1117D01*
X798Y1117D01*
X798Y1119D01*
X794Y1119D01*
X794Y1121D01*
X792Y1121D01*
X792Y1125D01*
X790Y1125D01*
X790Y1127D01*
X788Y1127D01*
X788Y1129D01*
X772Y1129D01*
X772Y1131D01*
X764Y1131D01*
X764Y1133D01*
X760Y1133D01*
X760Y1135D01*
X758Y1135D01*
X758Y1137D01*
X756Y1137D01*
X756Y1139D01*
X754Y1139D01*
X754Y1141D01*
X752Y1141D01*
X752Y1145D01*
X750Y1145D01*
X750Y1147D01*
X748Y1147D01*
X748Y1151D01*
X746Y1151D01*
X746Y1153D01*
X744Y1153D01*
X744Y1155D01*
X742Y1155D01*
X742Y1159D01*
X740Y1159D01*
X740Y1161D01*
X738Y1161D01*
X738Y1165D01*
X736Y1165D01*
X736Y1167D01*
X734Y1167D01*
X734Y1169D01*
X732Y1169D01*
X732Y1173D01*
X730Y1173D01*
X730Y1179D01*
X728Y1179D01*
X728Y1467D01*
X730Y1467D01*
X730Y2395D01*
X40Y2395D01*
G37*
D02*
G36*
X774Y2395D02*
X774Y1459D01*
X772Y1459D01*
X772Y1295D01*
X834Y1295D01*
X834Y1293D01*
X840Y1293D01*
X840Y1291D01*
X844Y1291D01*
X844Y1289D01*
X848Y1289D01*
X848Y1287D01*
X850Y1287D01*
X850Y1285D01*
X854Y1285D01*
X854Y1283D01*
X856Y1283D01*
X856Y1281D01*
X858Y1281D01*
X858Y1277D01*
X860Y1277D01*
X860Y1275D01*
X862Y1275D01*
X862Y1271D01*
X864Y1271D01*
X864Y1267D01*
X866Y1267D01*
X866Y1259D01*
X868Y1259D01*
X868Y1243D01*
X866Y1243D01*
X866Y1237D01*
X864Y1237D01*
X864Y1231D01*
X862Y1231D01*
X862Y1229D01*
X860Y1229D01*
X860Y1225D01*
X858Y1225D01*
X858Y1223D01*
X856Y1223D01*
X856Y1221D01*
X854Y1221D01*
X854Y1219D01*
X852Y1219D01*
X852Y1217D01*
X850Y1217D01*
X850Y1215D01*
X846Y1215D01*
X846Y1213D01*
X842Y1213D01*
X842Y1211D01*
X840Y1211D01*
X840Y1191D01*
X844Y1191D01*
X844Y1189D01*
X848Y1189D01*
X848Y1187D01*
X850Y1187D01*
X850Y1185D01*
X854Y1185D01*
X854Y1183D01*
X856Y1183D01*
X856Y1181D01*
X858Y1181D01*
X858Y1177D01*
X860Y1177D01*
X860Y1175D01*
X862Y1175D01*
X862Y1171D01*
X864Y1171D01*
X864Y1167D01*
X866Y1167D01*
X866Y1159D01*
X868Y1159D01*
X868Y1143D01*
X866Y1143D01*
X866Y1137D01*
X864Y1137D01*
X864Y1131D01*
X862Y1131D01*
X862Y1129D01*
X860Y1129D01*
X860Y1125D01*
X858Y1125D01*
X858Y1123D01*
X856Y1123D01*
X856Y1121D01*
X854Y1121D01*
X854Y1119D01*
X852Y1119D01*
X852Y1117D01*
X850Y1117D01*
X850Y1115D01*
X846Y1115D01*
X846Y1113D01*
X842Y1113D01*
X842Y1111D01*
X840Y1111D01*
X840Y1091D01*
X844Y1091D01*
X844Y1089D01*
X848Y1089D01*
X848Y1087D01*
X850Y1087D01*
X850Y1085D01*
X854Y1085D01*
X854Y1083D01*
X856Y1083D01*
X856Y1081D01*
X858Y1081D01*
X858Y1077D01*
X860Y1077D01*
X860Y1075D01*
X862Y1075D01*
X862Y1071D01*
X864Y1071D01*
X864Y1067D01*
X866Y1067D01*
X866Y1059D01*
X868Y1059D01*
X868Y1043D01*
X866Y1043D01*
X866Y1037D01*
X864Y1037D01*
X864Y1031D01*
X862Y1031D01*
X862Y1029D01*
X860Y1029D01*
X860Y1025D01*
X858Y1025D01*
X858Y1023D01*
X856Y1023D01*
X856Y1021D01*
X854Y1021D01*
X854Y1019D01*
X852Y1019D01*
X852Y1017D01*
X850Y1017D01*
X850Y1015D01*
X846Y1015D01*
X846Y1013D01*
X842Y1013D01*
X842Y1011D01*
X840Y1011D01*
X840Y991D01*
X844Y991D01*
X844Y989D01*
X848Y989D01*
X848Y987D01*
X850Y987D01*
X850Y985D01*
X854Y985D01*
X854Y983D01*
X856Y983D01*
X856Y981D01*
X858Y981D01*
X858Y977D01*
X860Y977D01*
X860Y975D01*
X862Y975D01*
X862Y971D01*
X864Y971D01*
X864Y967D01*
X866Y967D01*
X866Y959D01*
X868Y959D01*
X868Y943D01*
X866Y943D01*
X866Y937D01*
X864Y937D01*
X864Y931D01*
X862Y931D01*
X862Y929D01*
X860Y929D01*
X860Y925D01*
X858Y925D01*
X858Y923D01*
X856Y923D01*
X856Y921D01*
X854Y921D01*
X854Y919D01*
X852Y919D01*
X852Y917D01*
X850Y917D01*
X850Y915D01*
X846Y915D01*
X846Y913D01*
X842Y913D01*
X842Y911D01*
X840Y911D01*
X840Y891D01*
X844Y891D01*
X844Y889D01*
X848Y889D01*
X848Y887D01*
X850Y887D01*
X850Y885D01*
X854Y885D01*
X854Y883D01*
X856Y883D01*
X856Y881D01*
X858Y881D01*
X858Y877D01*
X860Y877D01*
X860Y875D01*
X862Y875D01*
X862Y871D01*
X864Y871D01*
X864Y867D01*
X866Y867D01*
X866Y859D01*
X868Y859D01*
X868Y843D01*
X866Y843D01*
X866Y837D01*
X864Y837D01*
X864Y831D01*
X862Y831D01*
X862Y829D01*
X860Y829D01*
X860Y825D01*
X858Y825D01*
X858Y823D01*
X856Y823D01*
X856Y821D01*
X854Y821D01*
X854Y819D01*
X852Y819D01*
X852Y817D01*
X850Y817D01*
X850Y815D01*
X846Y815D01*
X846Y813D01*
X842Y813D01*
X842Y811D01*
X840Y811D01*
X840Y791D01*
X844Y791D01*
X844Y789D01*
X848Y789D01*
X848Y787D01*
X850Y787D01*
X850Y785D01*
X854Y785D01*
X854Y783D01*
X856Y783D01*
X856Y781D01*
X858Y781D01*
X858Y777D01*
X860Y777D01*
X860Y775D01*
X862Y775D01*
X862Y771D01*
X864Y771D01*
X864Y767D01*
X866Y767D01*
X866Y759D01*
X868Y759D01*
X868Y743D01*
X866Y743D01*
X866Y737D01*
X864Y737D01*
X864Y731D01*
X862Y731D01*
X862Y729D01*
X860Y729D01*
X860Y725D01*
X858Y725D01*
X858Y723D01*
X856Y723D01*
X856Y721D01*
X854Y721D01*
X854Y719D01*
X852Y719D01*
X852Y717D01*
X850Y717D01*
X850Y715D01*
X846Y715D01*
X846Y713D01*
X842Y713D01*
X842Y711D01*
X840Y711D01*
X840Y691D01*
X844Y691D01*
X844Y689D01*
X848Y689D01*
X848Y687D01*
X850Y687D01*
X850Y685D01*
X854Y685D01*
X854Y683D01*
X856Y683D01*
X856Y681D01*
X858Y681D01*
X858Y677D01*
X860Y677D01*
X860Y675D01*
X862Y675D01*
X862Y671D01*
X864Y671D01*
X864Y667D01*
X866Y667D01*
X866Y659D01*
X868Y659D01*
X868Y643D01*
X866Y643D01*
X866Y637D01*
X864Y637D01*
X864Y631D01*
X862Y631D01*
X862Y629D01*
X860Y629D01*
X860Y625D01*
X858Y625D01*
X858Y623D01*
X856Y623D01*
X856Y621D01*
X854Y621D01*
X854Y619D01*
X852Y619D01*
X852Y617D01*
X850Y617D01*
X850Y615D01*
X846Y615D01*
X846Y613D01*
X842Y613D01*
X842Y611D01*
X840Y611D01*
X840Y591D01*
X844Y591D01*
X844Y589D01*
X848Y589D01*
X848Y587D01*
X850Y587D01*
X850Y585D01*
X854Y585D01*
X854Y583D01*
X856Y583D01*
X856Y581D01*
X858Y581D01*
X858Y577D01*
X860Y577D01*
X860Y575D01*
X862Y575D01*
X862Y571D01*
X864Y571D01*
X864Y567D01*
X866Y567D01*
X866Y559D01*
X868Y559D01*
X868Y543D01*
X866Y543D01*
X866Y537D01*
X864Y537D01*
X864Y531D01*
X862Y531D01*
X862Y529D01*
X860Y529D01*
X860Y525D01*
X858Y525D01*
X858Y523D01*
X856Y523D01*
X856Y521D01*
X854Y521D01*
X854Y519D01*
X852Y519D01*
X852Y517D01*
X850Y517D01*
X850Y515D01*
X846Y515D01*
X846Y513D01*
X842Y513D01*
X842Y511D01*
X840Y511D01*
X840Y491D01*
X844Y491D01*
X844Y489D01*
X848Y489D01*
X848Y487D01*
X850Y487D01*
X850Y485D01*
X854Y485D01*
X854Y483D01*
X856Y483D01*
X856Y481D01*
X858Y481D01*
X858Y477D01*
X860Y477D01*
X860Y475D01*
X862Y475D01*
X862Y471D01*
X864Y471D01*
X864Y467D01*
X866Y467D01*
X866Y459D01*
X868Y459D01*
X868Y443D01*
X866Y443D01*
X866Y437D01*
X864Y437D01*
X864Y431D01*
X862Y431D01*
X862Y429D01*
X860Y429D01*
X860Y425D01*
X858Y425D01*
X858Y423D01*
X856Y423D01*
X856Y421D01*
X854Y421D01*
X854Y419D01*
X852Y419D01*
X852Y417D01*
X850Y417D01*
X850Y415D01*
X846Y415D01*
X846Y413D01*
X842Y413D01*
X842Y411D01*
X840Y411D01*
X840Y391D01*
X844Y391D01*
X844Y389D01*
X848Y389D01*
X848Y387D01*
X850Y387D01*
X850Y385D01*
X854Y385D01*
X854Y383D01*
X856Y383D01*
X856Y381D01*
X858Y381D01*
X858Y377D01*
X860Y377D01*
X860Y375D01*
X862Y375D01*
X862Y371D01*
X864Y371D01*
X864Y367D01*
X866Y367D01*
X866Y359D01*
X868Y359D01*
X868Y343D01*
X866Y343D01*
X866Y337D01*
X864Y337D01*
X864Y331D01*
X862Y331D01*
X862Y329D01*
X860Y329D01*
X860Y325D01*
X858Y325D01*
X858Y323D01*
X856Y323D01*
X856Y321D01*
X854Y321D01*
X854Y319D01*
X852Y319D01*
X852Y317D01*
X850Y317D01*
X850Y315D01*
X846Y315D01*
X846Y313D01*
X842Y313D01*
X842Y311D01*
X840Y311D01*
X840Y291D01*
X844Y291D01*
X844Y289D01*
X848Y289D01*
X848Y287D01*
X850Y287D01*
X850Y285D01*
X854Y285D01*
X854Y283D01*
X856Y283D01*
X856Y281D01*
X858Y281D01*
X858Y277D01*
X860Y277D01*
X860Y275D01*
X862Y275D01*
X862Y271D01*
X864Y271D01*
X864Y267D01*
X866Y267D01*
X866Y259D01*
X868Y259D01*
X868Y243D01*
X866Y243D01*
X866Y237D01*
X864Y237D01*
X864Y231D01*
X862Y231D01*
X862Y229D01*
X860Y229D01*
X860Y225D01*
X858Y225D01*
X858Y223D01*
X856Y223D01*
X856Y221D01*
X854Y221D01*
X854Y219D01*
X852Y219D01*
X852Y217D01*
X850Y217D01*
X850Y215D01*
X846Y215D01*
X846Y213D01*
X842Y213D01*
X842Y211D01*
X836Y211D01*
X836Y209D01*
X1160Y209D01*
X1160Y2395D01*
X774Y2395D01*
G37*
D02*
G36*
X40Y2285D02*
X40Y2255D01*
X60Y2255D01*
X60Y2261D01*
X62Y2261D01*
X62Y2265D01*
X64Y2265D01*
X64Y2267D01*
X66Y2267D01*
X66Y2269D01*
X68Y2269D01*
X68Y2273D01*
X72Y2273D01*
X72Y2275D01*
X74Y2275D01*
X74Y2277D01*
X76Y2277D01*
X76Y2279D01*
X80Y2279D01*
X80Y2281D01*
X84Y2281D01*
X84Y2283D01*
X90Y2283D01*
X90Y2285D01*
X40Y2285D01*
G37*
D02*
G36*
X110Y2285D02*
X110Y2283D01*
X116Y2283D01*
X116Y2281D01*
X120Y2281D01*
X120Y2279D01*
X124Y2279D01*
X124Y2277D01*
X126Y2277D01*
X126Y2275D01*
X128Y2275D01*
X128Y2273D01*
X132Y2273D01*
X132Y2269D01*
X134Y2269D01*
X134Y2267D01*
X136Y2267D01*
X136Y2265D01*
X138Y2265D01*
X138Y2261D01*
X140Y2261D01*
X140Y2255D01*
X160Y2255D01*
X160Y2261D01*
X162Y2261D01*
X162Y2265D01*
X164Y2265D01*
X164Y2267D01*
X166Y2267D01*
X166Y2269D01*
X168Y2269D01*
X168Y2273D01*
X172Y2273D01*
X172Y2275D01*
X174Y2275D01*
X174Y2277D01*
X176Y2277D01*
X176Y2279D01*
X180Y2279D01*
X180Y2281D01*
X184Y2281D01*
X184Y2283D01*
X190Y2283D01*
X190Y2285D01*
X110Y2285D01*
G37*
D02*
G36*
X772Y1295D02*
X772Y1279D01*
X792Y1279D01*
X792Y1281D01*
X794Y1281D01*
X794Y1283D01*
X796Y1283D01*
X796Y1285D01*
X798Y1285D01*
X798Y1287D01*
X800Y1287D01*
X800Y1289D01*
X804Y1289D01*
X804Y1291D01*
X808Y1291D01*
X808Y1293D01*
X816Y1293D01*
X816Y1295D01*
X772Y1295D01*
G37*
D02*
G36*
X216Y1197D02*
X216Y1181D01*
X220Y1181D01*
X220Y1179D01*
X224Y1179D01*
X224Y1177D01*
X226Y1177D01*
X226Y1175D01*
X228Y1175D01*
X228Y1173D01*
X232Y1173D01*
X232Y1169D01*
X234Y1169D01*
X234Y1167D01*
X236Y1167D01*
X236Y1165D01*
X238Y1165D01*
X238Y1161D01*
X240Y1161D01*
X240Y1155D01*
X242Y1155D01*
X242Y1147D01*
X244Y1147D01*
X244Y1135D01*
X242Y1135D01*
X242Y1127D01*
X240Y1127D01*
X240Y1123D01*
X238Y1123D01*
X238Y1103D01*
X286Y1103D01*
X286Y1105D01*
X288Y1105D01*
X288Y1107D01*
X290Y1107D01*
X290Y1111D01*
X292Y1111D01*
X292Y1113D01*
X294Y1113D01*
X294Y1115D01*
X296Y1115D01*
X296Y1117D01*
X300Y1117D01*
X300Y1119D01*
X382Y1119D01*
X382Y1143D01*
X380Y1143D01*
X380Y1165D01*
X382Y1165D01*
X382Y1171D01*
X384Y1171D01*
X384Y1175D01*
X386Y1175D01*
X386Y1177D01*
X388Y1177D01*
X388Y1181D01*
X390Y1181D01*
X390Y1183D01*
X392Y1183D01*
X392Y1185D01*
X394Y1185D01*
X394Y1187D01*
X398Y1187D01*
X398Y1189D01*
X400Y1189D01*
X400Y1191D01*
X404Y1191D01*
X404Y1193D01*
X408Y1193D01*
X408Y1195D01*
X416Y1195D01*
X416Y1197D01*
X216Y1197D01*
G37*
D02*
G36*
X358Y831D02*
X358Y829D01*
X356Y829D01*
X356Y825D01*
X354Y825D01*
X354Y823D01*
X352Y823D01*
X352Y821D01*
X350Y821D01*
X350Y817D01*
X348Y817D01*
X348Y815D01*
X346Y815D01*
X346Y813D01*
X344Y813D01*
X344Y809D01*
X342Y809D01*
X342Y807D01*
X340Y807D01*
X340Y805D01*
X338Y805D01*
X338Y469D01*
X336Y469D01*
X336Y465D01*
X334Y465D01*
X334Y461D01*
X332Y461D01*
X332Y459D01*
X330Y459D01*
X330Y455D01*
X328Y455D01*
X328Y453D01*
X326Y453D01*
X326Y449D01*
X324Y449D01*
X324Y447D01*
X322Y447D01*
X322Y443D01*
X320Y443D01*
X320Y441D01*
X318Y441D01*
X318Y437D01*
X316Y437D01*
X316Y435D01*
X314Y435D01*
X314Y433D01*
X312Y433D01*
X312Y431D01*
X310Y431D01*
X310Y429D01*
X308Y429D01*
X308Y427D01*
X302Y427D01*
X302Y425D01*
X276Y425D01*
X276Y423D01*
X242Y423D01*
X242Y421D01*
X238Y421D01*
X238Y419D01*
X236Y419D01*
X236Y417D01*
X234Y417D01*
X234Y413D01*
X232Y413D01*
X232Y411D01*
X230Y411D01*
X230Y409D01*
X418Y409D01*
X418Y411D01*
X410Y411D01*
X410Y413D01*
X404Y413D01*
X404Y415D01*
X400Y415D01*
X400Y417D01*
X398Y417D01*
X398Y419D01*
X396Y419D01*
X396Y421D01*
X392Y421D01*
X392Y423D01*
X390Y423D01*
X390Y427D01*
X388Y427D01*
X388Y429D01*
X386Y429D01*
X386Y433D01*
X384Y433D01*
X384Y435D01*
X382Y435D01*
X382Y443D01*
X380Y443D01*
X380Y465D01*
X382Y465D01*
X382Y471D01*
X384Y471D01*
X384Y475D01*
X386Y475D01*
X386Y477D01*
X388Y477D01*
X388Y481D01*
X390Y481D01*
X390Y483D01*
X392Y483D01*
X392Y485D01*
X394Y485D01*
X394Y487D01*
X398Y487D01*
X398Y489D01*
X400Y489D01*
X400Y491D01*
X404Y491D01*
X404Y493D01*
X408Y493D01*
X408Y513D01*
X404Y513D01*
X404Y515D01*
X400Y515D01*
X400Y517D01*
X398Y517D01*
X398Y519D01*
X396Y519D01*
X396Y521D01*
X392Y521D01*
X392Y523D01*
X390Y523D01*
X390Y527D01*
X388Y527D01*
X388Y529D01*
X386Y529D01*
X386Y533D01*
X384Y533D01*
X384Y535D01*
X382Y535D01*
X382Y543D01*
X380Y543D01*
X380Y565D01*
X382Y565D01*
X382Y571D01*
X384Y571D01*
X384Y575D01*
X386Y575D01*
X386Y577D01*
X388Y577D01*
X388Y581D01*
X390Y581D01*
X390Y583D01*
X392Y583D01*
X392Y585D01*
X394Y585D01*
X394Y587D01*
X398Y587D01*
X398Y589D01*
X400Y589D01*
X400Y591D01*
X404Y591D01*
X404Y593D01*
X408Y593D01*
X408Y613D01*
X404Y613D01*
X404Y615D01*
X400Y615D01*
X400Y617D01*
X398Y617D01*
X398Y619D01*
X396Y619D01*
X396Y621D01*
X392Y621D01*
X392Y623D01*
X390Y623D01*
X390Y627D01*
X388Y627D01*
X388Y629D01*
X386Y629D01*
X386Y633D01*
X384Y633D01*
X384Y635D01*
X382Y635D01*
X382Y643D01*
X380Y643D01*
X380Y665D01*
X382Y665D01*
X382Y671D01*
X384Y671D01*
X384Y675D01*
X386Y675D01*
X386Y677D01*
X388Y677D01*
X388Y681D01*
X390Y681D01*
X390Y683D01*
X392Y683D01*
X392Y685D01*
X394Y685D01*
X394Y687D01*
X398Y687D01*
X398Y689D01*
X400Y689D01*
X400Y691D01*
X404Y691D01*
X404Y693D01*
X408Y693D01*
X408Y713D01*
X404Y713D01*
X404Y715D01*
X400Y715D01*
X400Y717D01*
X398Y717D01*
X398Y719D01*
X396Y719D01*
X396Y721D01*
X392Y721D01*
X392Y723D01*
X390Y723D01*
X390Y727D01*
X388Y727D01*
X388Y729D01*
X386Y729D01*
X386Y733D01*
X384Y733D01*
X384Y735D01*
X382Y735D01*
X382Y743D01*
X380Y743D01*
X380Y765D01*
X382Y765D01*
X382Y771D01*
X384Y771D01*
X384Y775D01*
X386Y775D01*
X386Y777D01*
X388Y777D01*
X388Y781D01*
X390Y781D01*
X390Y783D01*
X392Y783D01*
X392Y785D01*
X394Y785D01*
X394Y787D01*
X398Y787D01*
X398Y789D01*
X400Y789D01*
X400Y791D01*
X404Y791D01*
X404Y793D01*
X408Y793D01*
X408Y813D01*
X404Y813D01*
X404Y815D01*
X400Y815D01*
X400Y817D01*
X398Y817D01*
X398Y819D01*
X396Y819D01*
X396Y821D01*
X392Y821D01*
X392Y823D01*
X390Y823D01*
X390Y827D01*
X388Y827D01*
X388Y829D01*
X386Y829D01*
X386Y831D01*
X358Y831D01*
G37*
D02*
G36*
X228Y409D02*
X228Y407D01*
X808Y407D01*
X808Y409D01*
X228Y409D01*
G37*
D02*
G36*
X228Y409D02*
X228Y407D01*
X808Y407D01*
X808Y409D01*
X228Y409D01*
G37*
D02*
G36*
X224Y407D02*
X224Y405D01*
X222Y405D01*
X222Y403D01*
X218Y403D01*
X218Y401D01*
X216Y401D01*
X216Y381D01*
X220Y381D01*
X220Y379D01*
X224Y379D01*
X224Y377D01*
X226Y377D01*
X226Y375D01*
X228Y375D01*
X228Y373D01*
X232Y373D01*
X232Y369D01*
X234Y369D01*
X234Y367D01*
X236Y367D01*
X236Y365D01*
X238Y365D01*
X238Y361D01*
X240Y361D01*
X240Y355D01*
X242Y355D01*
X242Y347D01*
X244Y347D01*
X244Y335D01*
X242Y335D01*
X242Y327D01*
X240Y327D01*
X240Y323D01*
X238Y323D01*
X238Y319D01*
X236Y319D01*
X236Y317D01*
X234Y317D01*
X234Y313D01*
X232Y313D01*
X232Y311D01*
X230Y311D01*
X230Y309D01*
X228Y309D01*
X228Y307D01*
X224Y307D01*
X224Y305D01*
X222Y305D01*
X222Y303D01*
X218Y303D01*
X218Y301D01*
X212Y301D01*
X212Y299D01*
X808Y299D01*
X808Y311D01*
X806Y311D01*
X806Y313D01*
X804Y313D01*
X804Y315D01*
X800Y315D01*
X800Y317D01*
X798Y317D01*
X798Y319D01*
X794Y319D01*
X794Y321D01*
X792Y321D01*
X792Y325D01*
X790Y325D01*
X790Y327D01*
X788Y327D01*
X788Y329D01*
X786Y329D01*
X786Y333D01*
X784Y333D01*
X784Y339D01*
X782Y339D01*
X782Y351D01*
X780Y351D01*
X780Y353D01*
X782Y353D01*
X782Y363D01*
X784Y363D01*
X784Y369D01*
X786Y369D01*
X786Y373D01*
X788Y373D01*
X788Y377D01*
X790Y377D01*
X790Y379D01*
X792Y379D01*
X792Y381D01*
X794Y381D01*
X794Y383D01*
X796Y383D01*
X796Y385D01*
X798Y385D01*
X798Y387D01*
X800Y387D01*
X800Y389D01*
X804Y389D01*
X804Y391D01*
X808Y391D01*
X808Y407D01*
X224Y407D01*
G37*
D02*
G36*
X40Y329D02*
X40Y299D01*
X88Y299D01*
X88Y301D01*
X82Y301D01*
X82Y303D01*
X78Y303D01*
X78Y305D01*
X76Y305D01*
X76Y307D01*
X72Y307D01*
X72Y309D01*
X70Y309D01*
X70Y311D01*
X68Y311D01*
X68Y313D01*
X66Y313D01*
X66Y317D01*
X64Y317D01*
X64Y319D01*
X62Y319D01*
X62Y323D01*
X60Y323D01*
X60Y329D01*
X40Y329D01*
G37*
D02*
G36*
X140Y327D02*
X140Y323D01*
X138Y323D01*
X138Y319D01*
X136Y319D01*
X136Y317D01*
X134Y317D01*
X134Y313D01*
X132Y313D01*
X132Y311D01*
X130Y311D01*
X130Y309D01*
X128Y309D01*
X128Y307D01*
X124Y307D01*
X124Y305D01*
X122Y305D01*
X122Y303D01*
X118Y303D01*
X118Y301D01*
X112Y301D01*
X112Y299D01*
X188Y299D01*
X188Y301D01*
X182Y301D01*
X182Y303D01*
X178Y303D01*
X178Y305D01*
X176Y305D01*
X176Y307D01*
X172Y307D01*
X172Y309D01*
X170Y309D01*
X170Y311D01*
X168Y311D01*
X168Y313D01*
X166Y313D01*
X166Y317D01*
X164Y317D01*
X164Y319D01*
X162Y319D01*
X162Y323D01*
X160Y323D01*
X160Y327D01*
X140Y327D01*
G37*
D02*
G36*
X40Y299D02*
X40Y297D01*
X808Y297D01*
X808Y299D01*
X40Y299D01*
G37*
D02*
G36*
X40Y299D02*
X40Y297D01*
X808Y297D01*
X808Y299D01*
X40Y299D01*
G37*
D02*
G36*
X40Y299D02*
X40Y297D01*
X808Y297D01*
X808Y299D01*
X40Y299D01*
G37*
D02*
G36*
X40Y297D02*
X40Y209D01*
X812Y209D01*
X812Y211D01*
X806Y211D01*
X806Y213D01*
X804Y213D01*
X804Y215D01*
X800Y215D01*
X800Y217D01*
X798Y217D01*
X798Y219D01*
X794Y219D01*
X794Y221D01*
X792Y221D01*
X792Y225D01*
X790Y225D01*
X790Y227D01*
X788Y227D01*
X788Y229D01*
X786Y229D01*
X786Y233D01*
X784Y233D01*
X784Y239D01*
X782Y239D01*
X782Y251D01*
X780Y251D01*
X780Y253D01*
X782Y253D01*
X782Y263D01*
X784Y263D01*
X784Y269D01*
X786Y269D01*
X786Y273D01*
X788Y273D01*
X788Y277D01*
X790Y277D01*
X790Y279D01*
X792Y279D01*
X792Y281D01*
X794Y281D01*
X794Y283D01*
X796Y283D01*
X796Y285D01*
X798Y285D01*
X798Y287D01*
X800Y287D01*
X800Y289D01*
X804Y289D01*
X804Y291D01*
X808Y291D01*
X808Y297D01*
X40Y297D01*
G37*
D02*
G36*
X40Y209D02*
X40Y207D01*
X1160Y207D01*
X1160Y209D01*
X40Y209D01*
G37*
D02*
G36*
X40Y209D02*
X40Y207D01*
X1160Y207D01*
X1160Y209D01*
X40Y209D01*
G37*
D02*
G36*
X40Y207D02*
X40Y41D01*
X1160Y41D01*
X1160Y207D01*
X40Y207D01*
G37*
D02*
G36*
X776Y1073D02*
X802Y1073D01*
X802Y1034D01*
X776Y1034D01*
X776Y1073D01*
G37*
D02*
G36*
X840Y1073D02*
X868Y1073D01*
X868Y1034D01*
X840Y1034D01*
X840Y1073D01*
G37*
D02*
G36*
X52Y1963D02*
X78Y1963D01*
X78Y1924D01*
X52Y1924D01*
X52Y1963D01*
G37*
D02*
G36*
X52Y563D02*
X78Y563D01*
X78Y524D01*
X52Y524D01*
X52Y563D01*
G37*
D02*
G36*
X52Y1263D02*
X78Y1263D01*
X78Y1224D01*
X52Y1224D01*
X52Y1263D01*
G37*
D02*
G36*
X52Y963D02*
X78Y963D01*
X78Y924D01*
X52Y924D01*
X52Y963D01*
G37*
D02*
G36*
X52Y1763D02*
X78Y1763D01*
X78Y1724D01*
X52Y1724D01*
X52Y1763D01*
G37*
D02*
G36*
X178Y2289D02*
X217Y2289D01*
X217Y2263D01*
X178Y2263D01*
X178Y2289D01*
G37*
D02*
G36*
X216Y2263D02*
X244Y2263D01*
X244Y2224D01*
X216Y2224D01*
X216Y2263D01*
G37*
D02*
G36*
X216Y1563D02*
X244Y1563D01*
X244Y1524D01*
X216Y1524D01*
X216Y1563D01*
G37*
D02*
G36*
X829Y2499D02*
X874Y2499D01*
X874Y2467D01*
X829Y2467D01*
X829Y2499D01*
G37*
D02*
G36*
X829Y2429D02*
X874Y2429D01*
X874Y2397D01*
X829Y2397D01*
X829Y2429D01*
G37*
D02*
G36*
X870Y2470D02*
X902Y2470D01*
X902Y2425D01*
X870Y2425D01*
X870Y2470D01*
G37*
D02*
G04 End of Copper0*
M02*