G04 MADE WITH FRITZING*
G04 WWW.FRITZING.ORG*
G04 DOUBLE SIDED*
G04 HOLES PLATED*
G04 CONTOUR ON CENTER OF CONTOUR VECTOR*
%ASAXBY*%
%FSLAX23Y23*%
%MOIN*%
%OFA0B0*%
%SFA1.0B1.0*%
%ADD10C,0.075000*%
%ADD11C,0.066929*%
%ADD12C,0.039370*%
%ADD13C,0.008000*%
%ADD14C,0.024000*%
%LNCOPPER1*%
G90*
G70*
G54D10*
X439Y1261D03*
X943Y2487D03*
X285Y476D03*
X1028Y1878D03*
G54D11*
X853Y2445D03*
X753Y2445D03*
X653Y2445D03*
X553Y2445D03*
X453Y2445D03*
X353Y2445D03*
X100Y2241D03*
X100Y2141D03*
X100Y2041D03*
X100Y1941D03*
X100Y1841D03*
X100Y1741D03*
X100Y1641D03*
X100Y1541D03*
X100Y1441D03*
X100Y1341D03*
X100Y1241D03*
X100Y1141D03*
X100Y1041D03*
X100Y941D03*
X100Y841D03*
X100Y741D03*
X100Y641D03*
X100Y541D03*
X100Y441D03*
X100Y341D03*
X100Y2241D03*
X100Y2141D03*
X100Y2041D03*
X100Y1941D03*
X100Y1841D03*
X100Y1741D03*
X100Y1641D03*
X100Y1541D03*
X100Y1441D03*
X100Y1341D03*
X100Y1241D03*
X100Y1141D03*
X100Y1041D03*
X100Y941D03*
X100Y841D03*
X100Y741D03*
X100Y641D03*
X100Y541D03*
X100Y441D03*
X100Y341D03*
X200Y341D03*
X200Y441D03*
X200Y541D03*
X200Y641D03*
X200Y741D03*
X200Y841D03*
X200Y941D03*
X200Y1041D03*
X200Y1141D03*
X200Y1241D03*
X200Y1341D03*
X200Y1441D03*
X200Y1541D03*
X200Y1641D03*
X200Y1741D03*
X200Y1841D03*
X200Y1941D03*
X200Y2041D03*
X200Y2141D03*
X200Y2241D03*
X423Y1153D03*
X423Y1053D03*
X423Y953D03*
X423Y853D03*
X423Y753D03*
X423Y653D03*
X423Y553D03*
X423Y453D03*
X824Y1251D03*
X824Y1151D03*
X824Y1051D03*
X824Y951D03*
X824Y851D03*
X824Y751D03*
X824Y651D03*
X824Y551D03*
X824Y451D03*
X824Y351D03*
X824Y251D03*
G54D12*
X470Y1002D03*
G54D11*
X928Y1995D03*
X928Y2095D03*
X928Y2195D03*
X928Y1995D03*
X928Y2095D03*
X928Y2195D03*
X828Y2195D03*
X828Y2095D03*
X828Y1995D03*
X1129Y1995D03*
X1129Y2095D03*
X1129Y2195D03*
X1129Y1995D03*
X1129Y2095D03*
X1129Y2195D03*
X1029Y2195D03*
X1029Y2095D03*
X1029Y1995D03*
X100Y103D03*
X200Y103D03*
X100Y103D03*
X200Y103D03*
X200Y203D03*
X100Y203D03*
X928Y1696D03*
X928Y1796D03*
X928Y1896D03*
X928Y1696D03*
X928Y1796D03*
X928Y1896D03*
X828Y1896D03*
X828Y1796D03*
X828Y1696D03*
G54D12*
X698Y1695D03*
G54D13*
X895Y952D02*
X850Y951D01*
D02*
X850Y751D02*
X985Y752D01*
D02*
X652Y1466D02*
X653Y2414D01*
D02*
X676Y1436D02*
X652Y1466D01*
D02*
X937Y1432D02*
X676Y1436D01*
D02*
X1011Y1357D02*
X937Y1432D01*
D02*
X1011Y792D02*
X1011Y1357D01*
D02*
X985Y752D02*
X1011Y792D01*
D02*
X553Y1412D02*
X580Y1380D01*
D02*
X580Y1380D02*
X900Y1377D01*
D02*
X900Y1377D02*
X958Y1318D01*
D02*
X958Y1318D02*
X962Y885D01*
D02*
X962Y885D02*
X937Y851D01*
D02*
X937Y851D02*
X850Y851D01*
D02*
X553Y2414D02*
X553Y1412D01*
D02*
X907Y1293D02*
X911Y999D01*
D02*
X478Y1329D02*
X880Y1325D01*
D02*
X454Y1356D02*
X478Y1329D01*
D02*
X911Y999D02*
X895Y952D01*
D02*
X880Y1325D02*
X907Y1293D01*
D02*
X453Y2414D02*
X454Y1356D01*
D02*
X316Y541D02*
X225Y541D01*
D02*
X347Y585D02*
X316Y541D01*
D02*
X353Y2414D02*
X347Y585D01*
G54D14*
D02*
X762Y1148D02*
X746Y1132D01*
D02*
X746Y1132D02*
X746Y1109D01*
D02*
X746Y1109D02*
X730Y1081D01*
D02*
X730Y1081D02*
X557Y1081D01*
D02*
X557Y1081D02*
X528Y1054D01*
D02*
X528Y1054D02*
X454Y1053D01*
D02*
X794Y1150D02*
X762Y1148D01*
D02*
X533Y341D02*
X231Y341D01*
D02*
X556Y1030D02*
X556Y372D01*
D02*
X556Y372D02*
X533Y341D01*
D02*
X533Y1054D02*
X556Y1030D01*
D02*
X454Y1053D02*
X533Y1054D01*
G54D13*
D02*
X482Y971D02*
X475Y990D01*
D02*
X482Y766D02*
X482Y971D01*
D02*
X470Y753D02*
X482Y766D01*
D02*
X448Y753D02*
X470Y753D01*
D02*
X1129Y2164D02*
X1129Y2126D01*
D02*
X1129Y2064D02*
X1129Y2026D01*
D02*
X1029Y2164D02*
X1029Y2126D01*
D02*
X1029Y2064D02*
X1029Y2026D01*
G54D14*
D02*
X200Y234D02*
X200Y311D01*
G54D13*
D02*
X29Y743D02*
X75Y742D01*
D02*
X21Y117D02*
X22Y727D01*
D02*
X29Y104D02*
X21Y117D01*
D02*
X22Y727D02*
X29Y743D01*
D02*
X75Y104D02*
X29Y104D01*
D02*
X53Y203D02*
X41Y215D01*
D02*
X41Y215D02*
X41Y628D01*
D02*
X41Y628D02*
X48Y640D01*
D02*
X48Y640D02*
X75Y641D01*
D02*
X75Y203D02*
X53Y203D01*
G54D14*
D02*
X928Y1964D02*
X928Y1927D01*
D02*
X798Y1696D02*
X717Y1695D01*
G36*
X392Y2429D02*
X392Y2425D01*
X390Y2425D01*
X390Y2421D01*
X388Y2421D01*
X388Y2419D01*
X386Y2419D01*
X386Y2417D01*
X384Y2417D01*
X384Y2415D01*
X382Y2415D01*
X382Y2413D01*
X380Y2413D01*
X380Y2411D01*
X378Y2411D01*
X378Y2409D01*
X374Y2409D01*
X374Y2407D01*
X370Y2407D01*
X370Y2405D01*
X366Y2405D01*
X366Y1891D01*
X364Y1891D01*
X364Y1271D01*
X362Y1271D01*
X362Y1197D01*
X430Y1197D01*
X430Y1195D01*
X438Y1195D01*
X438Y1193D01*
X442Y1193D01*
X442Y1191D01*
X446Y1191D01*
X446Y1189D01*
X448Y1189D01*
X448Y1187D01*
X450Y1187D01*
X450Y1185D01*
X454Y1185D01*
X454Y1183D01*
X456Y1183D01*
X456Y1179D01*
X458Y1179D01*
X458Y1177D01*
X460Y1177D01*
X460Y1173D01*
X462Y1173D01*
X462Y1169D01*
X464Y1169D01*
X464Y1163D01*
X466Y1163D01*
X466Y1143D01*
X464Y1143D01*
X464Y1137D01*
X462Y1137D01*
X462Y1133D01*
X460Y1133D01*
X460Y1129D01*
X458Y1129D01*
X458Y1127D01*
X456Y1127D01*
X456Y1125D01*
X454Y1125D01*
X454Y1121D01*
X450Y1121D01*
X450Y1119D01*
X448Y1119D01*
X448Y1117D01*
X446Y1117D01*
X446Y1115D01*
X442Y1115D01*
X442Y1113D01*
X438Y1113D01*
X438Y1093D01*
X442Y1093D01*
X442Y1091D01*
X446Y1091D01*
X446Y1089D01*
X448Y1089D01*
X448Y1087D01*
X450Y1087D01*
X450Y1085D01*
X454Y1085D01*
X454Y1083D01*
X456Y1083D01*
X456Y1079D01*
X458Y1079D01*
X458Y1077D01*
X460Y1077D01*
X460Y1075D01*
X516Y1075D01*
X516Y1077D01*
X522Y1077D01*
X522Y1079D01*
X524Y1079D01*
X524Y1081D01*
X526Y1081D01*
X526Y1083D01*
X528Y1083D01*
X528Y1085D01*
X530Y1085D01*
X530Y1087D01*
X532Y1087D01*
X532Y1089D01*
X534Y1089D01*
X534Y1091D01*
X536Y1091D01*
X536Y1093D01*
X538Y1093D01*
X538Y1095D01*
X540Y1095D01*
X540Y1097D01*
X542Y1097D01*
X542Y1099D01*
X546Y1099D01*
X546Y1101D01*
X550Y1101D01*
X550Y1103D01*
X718Y1103D01*
X718Y1107D01*
X720Y1107D01*
X720Y1109D01*
X722Y1109D01*
X722Y1113D01*
X724Y1113D01*
X724Y1139D01*
X726Y1139D01*
X726Y1143D01*
X728Y1143D01*
X728Y1147D01*
X730Y1147D01*
X730Y1149D01*
X732Y1149D01*
X732Y1151D01*
X734Y1151D01*
X734Y1153D01*
X736Y1153D01*
X736Y1155D01*
X738Y1155D01*
X738Y1157D01*
X740Y1157D01*
X740Y1159D01*
X742Y1159D01*
X742Y1161D01*
X744Y1161D01*
X744Y1163D01*
X746Y1163D01*
X746Y1165D01*
X748Y1165D01*
X748Y1167D01*
X752Y1167D01*
X752Y1169D01*
X758Y1169D01*
X758Y1171D01*
X786Y1171D01*
X786Y1173D01*
X788Y1173D01*
X788Y1177D01*
X790Y1177D01*
X790Y1179D01*
X792Y1179D01*
X792Y1181D01*
X794Y1181D01*
X794Y1183D01*
X796Y1183D01*
X796Y1185D01*
X798Y1185D01*
X798Y1187D01*
X800Y1187D01*
X800Y1189D01*
X804Y1189D01*
X804Y1191D01*
X808Y1191D01*
X808Y1211D01*
X806Y1211D01*
X806Y1213D01*
X804Y1213D01*
X804Y1215D01*
X800Y1215D01*
X800Y1217D01*
X798Y1217D01*
X798Y1219D01*
X794Y1219D01*
X794Y1221D01*
X792Y1221D01*
X792Y1225D01*
X790Y1225D01*
X790Y1227D01*
X788Y1227D01*
X788Y1229D01*
X786Y1229D01*
X786Y1233D01*
X784Y1233D01*
X784Y1239D01*
X782Y1239D01*
X782Y1251D01*
X780Y1251D01*
X780Y1253D01*
X782Y1253D01*
X782Y1263D01*
X784Y1263D01*
X784Y1269D01*
X786Y1269D01*
X786Y1273D01*
X788Y1273D01*
X788Y1277D01*
X790Y1277D01*
X790Y1279D01*
X792Y1279D01*
X792Y1281D01*
X794Y1281D01*
X794Y1283D01*
X796Y1283D01*
X796Y1285D01*
X798Y1285D01*
X798Y1287D01*
X800Y1287D01*
X800Y1289D01*
X804Y1289D01*
X804Y1291D01*
X808Y1291D01*
X808Y1293D01*
X816Y1293D01*
X816Y1313D01*
X602Y1313D01*
X602Y1315D01*
X472Y1315D01*
X472Y1317D01*
X470Y1317D01*
X470Y1319D01*
X466Y1319D01*
X466Y1323D01*
X464Y1323D01*
X464Y1325D01*
X462Y1325D01*
X462Y1327D01*
X460Y1327D01*
X460Y1329D01*
X458Y1329D01*
X458Y1331D01*
X456Y1331D01*
X456Y1333D01*
X454Y1333D01*
X454Y1337D01*
X452Y1337D01*
X452Y1339D01*
X450Y1339D01*
X450Y1341D01*
X448Y1341D01*
X448Y1343D01*
X446Y1343D01*
X446Y1345D01*
X444Y1345D01*
X444Y1349D01*
X442Y1349D01*
X442Y1351D01*
X440Y1351D01*
X440Y2249D01*
X438Y2249D01*
X438Y2405D01*
X436Y2405D01*
X436Y2407D01*
X432Y2407D01*
X432Y2409D01*
X428Y2409D01*
X428Y2411D01*
X426Y2411D01*
X426Y2413D01*
X424Y2413D01*
X424Y2415D01*
X422Y2415D01*
X422Y2417D01*
X420Y2417D01*
X420Y2419D01*
X418Y2419D01*
X418Y2421D01*
X416Y2421D01*
X416Y2425D01*
X414Y2425D01*
X414Y2429D01*
X392Y2429D01*
G37*
D02*
G36*
X362Y1197D02*
X362Y1165D01*
X382Y1165D01*
X382Y1171D01*
X384Y1171D01*
X384Y1175D01*
X386Y1175D01*
X386Y1177D01*
X388Y1177D01*
X388Y1181D01*
X390Y1181D01*
X390Y1183D01*
X392Y1183D01*
X392Y1185D01*
X394Y1185D01*
X394Y1187D01*
X398Y1187D01*
X398Y1189D01*
X400Y1189D01*
X400Y1191D01*
X404Y1191D01*
X404Y1193D01*
X408Y1193D01*
X408Y1195D01*
X416Y1195D01*
X416Y1197D01*
X362Y1197D01*
G37*
D02*
G36*
X492Y2429D02*
X492Y2425D01*
X490Y2425D01*
X490Y2421D01*
X488Y2421D01*
X488Y2419D01*
X486Y2419D01*
X486Y2417D01*
X484Y2417D01*
X484Y2415D01*
X482Y2415D01*
X482Y2413D01*
X480Y2413D01*
X480Y2411D01*
X478Y2411D01*
X478Y2409D01*
X474Y2409D01*
X474Y2407D01*
X470Y2407D01*
X470Y2405D01*
X466Y2405D01*
X466Y2257D01*
X468Y2257D01*
X468Y1361D01*
X470Y1361D01*
X470Y1359D01*
X472Y1359D01*
X472Y1355D01*
X474Y1355D01*
X474Y1353D01*
X476Y1353D01*
X476Y1351D01*
X478Y1351D01*
X478Y1349D01*
X480Y1349D01*
X480Y1347D01*
X482Y1347D01*
X482Y1345D01*
X484Y1345D01*
X484Y1343D01*
X604Y1343D01*
X604Y1341D01*
X854Y1341D01*
X854Y1339D01*
X886Y1339D01*
X886Y1337D01*
X890Y1337D01*
X890Y1335D01*
X892Y1335D01*
X892Y1331D01*
X894Y1331D01*
X894Y1329D01*
X896Y1329D01*
X896Y1327D01*
X898Y1327D01*
X898Y1325D01*
X900Y1325D01*
X900Y1323D01*
X902Y1323D01*
X902Y1321D01*
X904Y1321D01*
X904Y1317D01*
X906Y1317D01*
X906Y1315D01*
X908Y1315D01*
X908Y1313D01*
X910Y1313D01*
X910Y1311D01*
X912Y1311D01*
X912Y1309D01*
X914Y1309D01*
X914Y1307D01*
X916Y1307D01*
X916Y1305D01*
X918Y1305D01*
X918Y1301D01*
X920Y1301D01*
X920Y1297D01*
X922Y1297D01*
X922Y1163D01*
X924Y1163D01*
X924Y1011D01*
X926Y1011D01*
X926Y997D01*
X924Y997D01*
X924Y991D01*
X922Y991D01*
X922Y985D01*
X920Y985D01*
X920Y979D01*
X918Y979D01*
X918Y973D01*
X916Y973D01*
X916Y967D01*
X914Y967D01*
X914Y961D01*
X912Y961D01*
X912Y955D01*
X910Y955D01*
X910Y949D01*
X908Y949D01*
X908Y945D01*
X906Y945D01*
X906Y941D01*
X902Y941D01*
X902Y939D01*
X896Y939D01*
X896Y937D01*
X864Y937D01*
X864Y931D01*
X862Y931D01*
X862Y929D01*
X860Y929D01*
X860Y925D01*
X858Y925D01*
X858Y923D01*
X856Y923D01*
X856Y921D01*
X854Y921D01*
X854Y919D01*
X852Y919D01*
X852Y917D01*
X850Y917D01*
X850Y915D01*
X846Y915D01*
X846Y913D01*
X842Y913D01*
X842Y911D01*
X840Y911D01*
X840Y891D01*
X844Y891D01*
X844Y889D01*
X848Y889D01*
X848Y887D01*
X850Y887D01*
X850Y885D01*
X854Y885D01*
X854Y883D01*
X856Y883D01*
X856Y881D01*
X858Y881D01*
X858Y877D01*
X860Y877D01*
X860Y875D01*
X862Y875D01*
X862Y871D01*
X864Y871D01*
X864Y867D01*
X866Y867D01*
X866Y865D01*
X930Y865D01*
X930Y867D01*
X932Y867D01*
X932Y869D01*
X934Y869D01*
X934Y873D01*
X936Y873D01*
X936Y875D01*
X938Y875D01*
X938Y877D01*
X940Y877D01*
X940Y881D01*
X942Y881D01*
X942Y883D01*
X944Y883D01*
X944Y885D01*
X946Y885D01*
X946Y887D01*
X948Y887D01*
X948Y1011D01*
X946Y1011D01*
X946Y1197D01*
X944Y1197D01*
X944Y1313D01*
X942Y1313D01*
X942Y1315D01*
X940Y1315D01*
X940Y1317D01*
X938Y1317D01*
X938Y1319D01*
X936Y1319D01*
X936Y1321D01*
X934Y1321D01*
X934Y1323D01*
X932Y1323D01*
X932Y1325D01*
X930Y1325D01*
X930Y1327D01*
X928Y1327D01*
X928Y1329D01*
X926Y1329D01*
X926Y1331D01*
X924Y1331D01*
X924Y1333D01*
X922Y1333D01*
X922Y1335D01*
X920Y1335D01*
X920Y1337D01*
X918Y1337D01*
X918Y1339D01*
X916Y1339D01*
X916Y1341D01*
X914Y1341D01*
X914Y1343D01*
X912Y1343D01*
X912Y1345D01*
X910Y1345D01*
X910Y1347D01*
X908Y1347D01*
X908Y1349D01*
X906Y1349D01*
X906Y1351D01*
X904Y1351D01*
X904Y1353D01*
X902Y1353D01*
X902Y1355D01*
X900Y1355D01*
X900Y1357D01*
X898Y1357D01*
X898Y1359D01*
X896Y1359D01*
X896Y1361D01*
X894Y1361D01*
X894Y1363D01*
X822Y1363D01*
X822Y1365D01*
X638Y1365D01*
X638Y1367D01*
X574Y1367D01*
X574Y1369D01*
X572Y1369D01*
X572Y1371D01*
X570Y1371D01*
X570Y1373D01*
X568Y1373D01*
X568Y1375D01*
X566Y1375D01*
X566Y1377D01*
X564Y1377D01*
X564Y1379D01*
X562Y1379D01*
X562Y1381D01*
X560Y1381D01*
X560Y1385D01*
X558Y1385D01*
X558Y1387D01*
X556Y1387D01*
X556Y1389D01*
X554Y1389D01*
X554Y1391D01*
X552Y1391D01*
X552Y1393D01*
X550Y1393D01*
X550Y1395D01*
X548Y1395D01*
X548Y1397D01*
X546Y1397D01*
X546Y1401D01*
X544Y1401D01*
X544Y1403D01*
X542Y1403D01*
X542Y1405D01*
X540Y1405D01*
X540Y1505D01*
X538Y1505D01*
X538Y2405D01*
X536Y2405D01*
X536Y2407D01*
X532Y2407D01*
X532Y2409D01*
X528Y2409D01*
X528Y2411D01*
X526Y2411D01*
X526Y2413D01*
X524Y2413D01*
X524Y2415D01*
X522Y2415D01*
X522Y2417D01*
X520Y2417D01*
X520Y2419D01*
X518Y2419D01*
X518Y2421D01*
X516Y2421D01*
X516Y2425D01*
X514Y2425D01*
X514Y2429D01*
X492Y2429D01*
G37*
D02*
G36*
X592Y2429D02*
X592Y2425D01*
X590Y2425D01*
X590Y2421D01*
X588Y2421D01*
X588Y2419D01*
X586Y2419D01*
X586Y2417D01*
X584Y2417D01*
X584Y2415D01*
X582Y2415D01*
X582Y2413D01*
X580Y2413D01*
X580Y2411D01*
X578Y2411D01*
X578Y2409D01*
X574Y2409D01*
X574Y2407D01*
X570Y2407D01*
X570Y2405D01*
X566Y2405D01*
X566Y1539D01*
X568Y1539D01*
X568Y1415D01*
X570Y1415D01*
X570Y1413D01*
X572Y1413D01*
X572Y1411D01*
X574Y1411D01*
X574Y1409D01*
X576Y1409D01*
X576Y1407D01*
X578Y1407D01*
X578Y1403D01*
X580Y1403D01*
X580Y1401D01*
X582Y1401D01*
X582Y1399D01*
X584Y1399D01*
X584Y1397D01*
X586Y1397D01*
X586Y1395D01*
X640Y1395D01*
X640Y1393D01*
X824Y1393D01*
X824Y1391D01*
X906Y1391D01*
X906Y1389D01*
X908Y1389D01*
X908Y1387D01*
X910Y1387D01*
X910Y1385D01*
X912Y1385D01*
X912Y1383D01*
X914Y1383D01*
X914Y1381D01*
X916Y1381D01*
X916Y1379D01*
X918Y1379D01*
X918Y1377D01*
X920Y1377D01*
X920Y1375D01*
X922Y1375D01*
X922Y1373D01*
X924Y1373D01*
X924Y1371D01*
X926Y1371D01*
X926Y1369D01*
X928Y1369D01*
X928Y1367D01*
X930Y1367D01*
X930Y1365D01*
X932Y1365D01*
X932Y1363D01*
X934Y1363D01*
X934Y1361D01*
X936Y1361D01*
X936Y1359D01*
X938Y1359D01*
X938Y1357D01*
X940Y1357D01*
X940Y1355D01*
X942Y1355D01*
X942Y1353D01*
X944Y1353D01*
X944Y1351D01*
X946Y1351D01*
X946Y1349D01*
X948Y1349D01*
X948Y1347D01*
X950Y1347D01*
X950Y1345D01*
X952Y1345D01*
X952Y1343D01*
X954Y1343D01*
X954Y1341D01*
X956Y1341D01*
X956Y1339D01*
X958Y1339D01*
X958Y1337D01*
X960Y1337D01*
X960Y1335D01*
X962Y1335D01*
X962Y1333D01*
X964Y1333D01*
X964Y1331D01*
X966Y1331D01*
X966Y1329D01*
X968Y1329D01*
X968Y1327D01*
X970Y1327D01*
X970Y1323D01*
X972Y1323D01*
X972Y1199D01*
X974Y1199D01*
X974Y1011D01*
X976Y1011D01*
X976Y879D01*
X974Y879D01*
X974Y875D01*
X972Y875D01*
X972Y873D01*
X970Y873D01*
X970Y871D01*
X968Y871D01*
X968Y867D01*
X966Y867D01*
X966Y865D01*
X964Y865D01*
X964Y863D01*
X962Y863D01*
X962Y861D01*
X960Y861D01*
X960Y857D01*
X958Y857D01*
X958Y855D01*
X956Y855D01*
X956Y853D01*
X954Y853D01*
X954Y849D01*
X952Y849D01*
X952Y847D01*
X950Y847D01*
X950Y845D01*
X948Y845D01*
X948Y841D01*
X944Y841D01*
X944Y839D01*
X942Y839D01*
X942Y837D01*
X864Y837D01*
X864Y831D01*
X862Y831D01*
X862Y829D01*
X860Y829D01*
X860Y825D01*
X858Y825D01*
X858Y823D01*
X856Y823D01*
X856Y821D01*
X854Y821D01*
X854Y819D01*
X852Y819D01*
X852Y817D01*
X850Y817D01*
X850Y815D01*
X846Y815D01*
X846Y813D01*
X842Y813D01*
X842Y811D01*
X840Y811D01*
X840Y791D01*
X844Y791D01*
X844Y789D01*
X848Y789D01*
X848Y787D01*
X850Y787D01*
X850Y785D01*
X854Y785D01*
X854Y783D01*
X856Y783D01*
X856Y781D01*
X858Y781D01*
X858Y777D01*
X860Y777D01*
X860Y775D01*
X862Y775D01*
X862Y771D01*
X864Y771D01*
X864Y767D01*
X866Y767D01*
X866Y765D01*
X910Y765D01*
X910Y767D01*
X978Y767D01*
X978Y769D01*
X980Y769D01*
X980Y771D01*
X982Y771D01*
X982Y775D01*
X984Y775D01*
X984Y777D01*
X986Y777D01*
X986Y781D01*
X988Y781D01*
X988Y785D01*
X990Y785D01*
X990Y787D01*
X992Y787D01*
X992Y791D01*
X994Y791D01*
X994Y793D01*
X996Y793D01*
X996Y1353D01*
X994Y1353D01*
X994Y1355D01*
X992Y1355D01*
X992Y1357D01*
X990Y1357D01*
X990Y1359D01*
X988Y1359D01*
X988Y1361D01*
X986Y1361D01*
X986Y1363D01*
X984Y1363D01*
X984Y1365D01*
X982Y1365D01*
X982Y1367D01*
X980Y1367D01*
X980Y1369D01*
X978Y1369D01*
X978Y1371D01*
X976Y1371D01*
X976Y1373D01*
X974Y1373D01*
X974Y1375D01*
X972Y1375D01*
X972Y1377D01*
X970Y1377D01*
X970Y1379D01*
X968Y1379D01*
X968Y1381D01*
X966Y1381D01*
X966Y1385D01*
X964Y1385D01*
X964Y1387D01*
X962Y1387D01*
X962Y1389D01*
X960Y1389D01*
X960Y1391D01*
X958Y1391D01*
X958Y1393D01*
X956Y1393D01*
X956Y1395D01*
X954Y1395D01*
X954Y1397D01*
X952Y1397D01*
X952Y1399D01*
X950Y1399D01*
X950Y1401D01*
X948Y1401D01*
X948Y1403D01*
X946Y1403D01*
X946Y1405D01*
X944Y1405D01*
X944Y1407D01*
X942Y1407D01*
X942Y1409D01*
X940Y1409D01*
X940Y1411D01*
X938Y1411D01*
X938Y1413D01*
X936Y1413D01*
X936Y1415D01*
X934Y1415D01*
X934Y1417D01*
X932Y1417D01*
X932Y1419D01*
X834Y1419D01*
X834Y1421D01*
X708Y1421D01*
X708Y1423D01*
X670Y1423D01*
X670Y1425D01*
X666Y1425D01*
X666Y1427D01*
X664Y1427D01*
X664Y1429D01*
X662Y1429D01*
X662Y1433D01*
X660Y1433D01*
X660Y1435D01*
X658Y1435D01*
X658Y1437D01*
X656Y1437D01*
X656Y1439D01*
X654Y1439D01*
X654Y1443D01*
X652Y1443D01*
X652Y1445D01*
X650Y1445D01*
X650Y1447D01*
X648Y1447D01*
X648Y1449D01*
X646Y1449D01*
X646Y1453D01*
X644Y1453D01*
X644Y1455D01*
X642Y1455D01*
X642Y1457D01*
X640Y1457D01*
X640Y1461D01*
X638Y1461D01*
X638Y2405D01*
X636Y2405D01*
X636Y2407D01*
X632Y2407D01*
X632Y2409D01*
X628Y2409D01*
X628Y2411D01*
X626Y2411D01*
X626Y2413D01*
X624Y2413D01*
X624Y2415D01*
X622Y2415D01*
X622Y2417D01*
X620Y2417D01*
X620Y2419D01*
X618Y2419D01*
X618Y2421D01*
X616Y2421D01*
X616Y2425D01*
X614Y2425D01*
X614Y2429D01*
X592Y2429D01*
G37*
D02*
G36*
X40Y2547D02*
X40Y2489D01*
X862Y2489D01*
X862Y2487D01*
X868Y2487D01*
X868Y2485D01*
X872Y2485D01*
X872Y2483D01*
X876Y2483D01*
X876Y2481D01*
X880Y2481D01*
X880Y2479D01*
X882Y2479D01*
X882Y2477D01*
X884Y2477D01*
X884Y2475D01*
X886Y2475D01*
X886Y2473D01*
X888Y2473D01*
X888Y2469D01*
X890Y2469D01*
X890Y2465D01*
X892Y2465D01*
X892Y2461D01*
X894Y2461D01*
X894Y2455D01*
X896Y2455D01*
X896Y2435D01*
X894Y2435D01*
X894Y2429D01*
X892Y2429D01*
X892Y2425D01*
X890Y2425D01*
X890Y2421D01*
X888Y2421D01*
X888Y2419D01*
X886Y2419D01*
X886Y2417D01*
X884Y2417D01*
X884Y2415D01*
X882Y2415D01*
X882Y2413D01*
X880Y2413D01*
X880Y2411D01*
X878Y2411D01*
X878Y2409D01*
X874Y2409D01*
X874Y2407D01*
X870Y2407D01*
X870Y2405D01*
X864Y2405D01*
X864Y2403D01*
X1160Y2403D01*
X1160Y2547D01*
X40Y2547D01*
G37*
D02*
G36*
X40Y2489D02*
X40Y2285D01*
X210Y2285D01*
X210Y2283D01*
X216Y2283D01*
X216Y2281D01*
X220Y2281D01*
X220Y2279D01*
X224Y2279D01*
X224Y2277D01*
X226Y2277D01*
X226Y2275D01*
X228Y2275D01*
X228Y2273D01*
X232Y2273D01*
X232Y2269D01*
X234Y2269D01*
X234Y2267D01*
X236Y2267D01*
X236Y2265D01*
X238Y2265D01*
X238Y2261D01*
X240Y2261D01*
X240Y2255D01*
X242Y2255D01*
X242Y2247D01*
X244Y2247D01*
X244Y2235D01*
X242Y2235D01*
X242Y2227D01*
X240Y2227D01*
X240Y2223D01*
X238Y2223D01*
X238Y2219D01*
X236Y2219D01*
X236Y2217D01*
X234Y2217D01*
X234Y2213D01*
X232Y2213D01*
X232Y2211D01*
X230Y2211D01*
X230Y2209D01*
X228Y2209D01*
X228Y2207D01*
X224Y2207D01*
X224Y2205D01*
X222Y2205D01*
X222Y2203D01*
X218Y2203D01*
X218Y2201D01*
X216Y2201D01*
X216Y2181D01*
X220Y2181D01*
X220Y2179D01*
X224Y2179D01*
X224Y2177D01*
X226Y2177D01*
X226Y2175D01*
X228Y2175D01*
X228Y2173D01*
X232Y2173D01*
X232Y2169D01*
X234Y2169D01*
X234Y2167D01*
X236Y2167D01*
X236Y2165D01*
X238Y2165D01*
X238Y2161D01*
X240Y2161D01*
X240Y2155D01*
X242Y2155D01*
X242Y2147D01*
X244Y2147D01*
X244Y2135D01*
X242Y2135D01*
X242Y2127D01*
X240Y2127D01*
X240Y2123D01*
X238Y2123D01*
X238Y2119D01*
X236Y2119D01*
X236Y2117D01*
X234Y2117D01*
X234Y2113D01*
X232Y2113D01*
X232Y2111D01*
X230Y2111D01*
X230Y2109D01*
X228Y2109D01*
X228Y2107D01*
X224Y2107D01*
X224Y2105D01*
X222Y2105D01*
X222Y2103D01*
X218Y2103D01*
X218Y2101D01*
X216Y2101D01*
X216Y2081D01*
X220Y2081D01*
X220Y2079D01*
X224Y2079D01*
X224Y2077D01*
X226Y2077D01*
X226Y2075D01*
X228Y2075D01*
X228Y2073D01*
X232Y2073D01*
X232Y2069D01*
X234Y2069D01*
X234Y2067D01*
X236Y2067D01*
X236Y2065D01*
X238Y2065D01*
X238Y2061D01*
X240Y2061D01*
X240Y2055D01*
X242Y2055D01*
X242Y2047D01*
X244Y2047D01*
X244Y2035D01*
X242Y2035D01*
X242Y2027D01*
X240Y2027D01*
X240Y2023D01*
X238Y2023D01*
X238Y2019D01*
X236Y2019D01*
X236Y2017D01*
X234Y2017D01*
X234Y2013D01*
X232Y2013D01*
X232Y2011D01*
X230Y2011D01*
X230Y2009D01*
X228Y2009D01*
X228Y2007D01*
X224Y2007D01*
X224Y2005D01*
X222Y2005D01*
X222Y2003D01*
X218Y2003D01*
X218Y2001D01*
X216Y2001D01*
X216Y1981D01*
X220Y1981D01*
X220Y1979D01*
X224Y1979D01*
X224Y1977D01*
X226Y1977D01*
X226Y1975D01*
X228Y1975D01*
X228Y1973D01*
X232Y1973D01*
X232Y1969D01*
X234Y1969D01*
X234Y1967D01*
X236Y1967D01*
X236Y1965D01*
X238Y1965D01*
X238Y1961D01*
X240Y1961D01*
X240Y1955D01*
X242Y1955D01*
X242Y1947D01*
X244Y1947D01*
X244Y1935D01*
X242Y1935D01*
X242Y1927D01*
X240Y1927D01*
X240Y1923D01*
X238Y1923D01*
X238Y1919D01*
X236Y1919D01*
X236Y1917D01*
X234Y1917D01*
X234Y1913D01*
X232Y1913D01*
X232Y1911D01*
X230Y1911D01*
X230Y1909D01*
X228Y1909D01*
X228Y1907D01*
X224Y1907D01*
X224Y1905D01*
X222Y1905D01*
X222Y1903D01*
X218Y1903D01*
X218Y1901D01*
X216Y1901D01*
X216Y1881D01*
X220Y1881D01*
X220Y1879D01*
X224Y1879D01*
X224Y1877D01*
X226Y1877D01*
X226Y1875D01*
X228Y1875D01*
X228Y1873D01*
X232Y1873D01*
X232Y1869D01*
X234Y1869D01*
X234Y1867D01*
X236Y1867D01*
X236Y1865D01*
X238Y1865D01*
X238Y1861D01*
X240Y1861D01*
X240Y1855D01*
X242Y1855D01*
X242Y1847D01*
X244Y1847D01*
X244Y1835D01*
X242Y1835D01*
X242Y1827D01*
X240Y1827D01*
X240Y1823D01*
X238Y1823D01*
X238Y1819D01*
X236Y1819D01*
X236Y1817D01*
X234Y1817D01*
X234Y1813D01*
X232Y1813D01*
X232Y1811D01*
X230Y1811D01*
X230Y1809D01*
X228Y1809D01*
X228Y1807D01*
X224Y1807D01*
X224Y1805D01*
X222Y1805D01*
X222Y1803D01*
X218Y1803D01*
X218Y1801D01*
X216Y1801D01*
X216Y1781D01*
X220Y1781D01*
X220Y1779D01*
X224Y1779D01*
X224Y1777D01*
X226Y1777D01*
X226Y1775D01*
X228Y1775D01*
X228Y1773D01*
X232Y1773D01*
X232Y1769D01*
X234Y1769D01*
X234Y1767D01*
X236Y1767D01*
X236Y1765D01*
X238Y1765D01*
X238Y1761D01*
X240Y1761D01*
X240Y1755D01*
X242Y1755D01*
X242Y1747D01*
X244Y1747D01*
X244Y1735D01*
X242Y1735D01*
X242Y1727D01*
X240Y1727D01*
X240Y1723D01*
X238Y1723D01*
X238Y1719D01*
X236Y1719D01*
X236Y1717D01*
X234Y1717D01*
X234Y1713D01*
X232Y1713D01*
X232Y1711D01*
X230Y1711D01*
X230Y1709D01*
X228Y1709D01*
X228Y1707D01*
X224Y1707D01*
X224Y1705D01*
X222Y1705D01*
X222Y1703D01*
X218Y1703D01*
X218Y1701D01*
X216Y1701D01*
X216Y1681D01*
X220Y1681D01*
X220Y1679D01*
X224Y1679D01*
X224Y1677D01*
X226Y1677D01*
X226Y1675D01*
X228Y1675D01*
X228Y1673D01*
X232Y1673D01*
X232Y1669D01*
X234Y1669D01*
X234Y1667D01*
X236Y1667D01*
X236Y1665D01*
X238Y1665D01*
X238Y1661D01*
X240Y1661D01*
X240Y1655D01*
X242Y1655D01*
X242Y1647D01*
X244Y1647D01*
X244Y1635D01*
X242Y1635D01*
X242Y1627D01*
X240Y1627D01*
X240Y1623D01*
X238Y1623D01*
X238Y1619D01*
X236Y1619D01*
X236Y1617D01*
X234Y1617D01*
X234Y1613D01*
X232Y1613D01*
X232Y1611D01*
X230Y1611D01*
X230Y1609D01*
X228Y1609D01*
X228Y1607D01*
X224Y1607D01*
X224Y1605D01*
X222Y1605D01*
X222Y1603D01*
X218Y1603D01*
X218Y1601D01*
X216Y1601D01*
X216Y1581D01*
X220Y1581D01*
X220Y1579D01*
X224Y1579D01*
X224Y1577D01*
X226Y1577D01*
X226Y1575D01*
X228Y1575D01*
X228Y1573D01*
X232Y1573D01*
X232Y1569D01*
X234Y1569D01*
X234Y1567D01*
X236Y1567D01*
X236Y1565D01*
X238Y1565D01*
X238Y1561D01*
X240Y1561D01*
X240Y1555D01*
X242Y1555D01*
X242Y1547D01*
X244Y1547D01*
X244Y1535D01*
X242Y1535D01*
X242Y1527D01*
X240Y1527D01*
X240Y1523D01*
X238Y1523D01*
X238Y1519D01*
X236Y1519D01*
X236Y1517D01*
X234Y1517D01*
X234Y1513D01*
X232Y1513D01*
X232Y1511D01*
X230Y1511D01*
X230Y1509D01*
X228Y1509D01*
X228Y1507D01*
X224Y1507D01*
X224Y1505D01*
X222Y1505D01*
X222Y1503D01*
X218Y1503D01*
X218Y1501D01*
X216Y1501D01*
X216Y1481D01*
X220Y1481D01*
X220Y1479D01*
X224Y1479D01*
X224Y1477D01*
X226Y1477D01*
X226Y1475D01*
X228Y1475D01*
X228Y1473D01*
X232Y1473D01*
X232Y1469D01*
X234Y1469D01*
X234Y1467D01*
X236Y1467D01*
X236Y1465D01*
X238Y1465D01*
X238Y1461D01*
X240Y1461D01*
X240Y1455D01*
X242Y1455D01*
X242Y1447D01*
X244Y1447D01*
X244Y1435D01*
X242Y1435D01*
X242Y1427D01*
X240Y1427D01*
X240Y1423D01*
X238Y1423D01*
X238Y1419D01*
X236Y1419D01*
X236Y1417D01*
X234Y1417D01*
X234Y1413D01*
X232Y1413D01*
X232Y1411D01*
X230Y1411D01*
X230Y1409D01*
X228Y1409D01*
X228Y1407D01*
X224Y1407D01*
X224Y1405D01*
X222Y1405D01*
X222Y1403D01*
X218Y1403D01*
X218Y1401D01*
X216Y1401D01*
X216Y1381D01*
X220Y1381D01*
X220Y1379D01*
X224Y1379D01*
X224Y1377D01*
X226Y1377D01*
X226Y1375D01*
X228Y1375D01*
X228Y1373D01*
X232Y1373D01*
X232Y1369D01*
X234Y1369D01*
X234Y1367D01*
X236Y1367D01*
X236Y1365D01*
X238Y1365D01*
X238Y1361D01*
X240Y1361D01*
X240Y1355D01*
X242Y1355D01*
X242Y1347D01*
X244Y1347D01*
X244Y1335D01*
X242Y1335D01*
X242Y1327D01*
X240Y1327D01*
X240Y1323D01*
X238Y1323D01*
X238Y1319D01*
X236Y1319D01*
X236Y1317D01*
X234Y1317D01*
X234Y1313D01*
X232Y1313D01*
X232Y1311D01*
X230Y1311D01*
X230Y1309D01*
X228Y1309D01*
X228Y1307D01*
X224Y1307D01*
X224Y1305D01*
X222Y1305D01*
X222Y1303D01*
X218Y1303D01*
X218Y1301D01*
X216Y1301D01*
X216Y1281D01*
X220Y1281D01*
X220Y1279D01*
X224Y1279D01*
X224Y1277D01*
X226Y1277D01*
X226Y1275D01*
X228Y1275D01*
X228Y1273D01*
X232Y1273D01*
X232Y1269D01*
X234Y1269D01*
X234Y1267D01*
X236Y1267D01*
X236Y1265D01*
X238Y1265D01*
X238Y1261D01*
X240Y1261D01*
X240Y1255D01*
X242Y1255D01*
X242Y1247D01*
X244Y1247D01*
X244Y1235D01*
X242Y1235D01*
X242Y1227D01*
X240Y1227D01*
X240Y1223D01*
X238Y1223D01*
X238Y1219D01*
X236Y1219D01*
X236Y1217D01*
X234Y1217D01*
X234Y1213D01*
X232Y1213D01*
X232Y1211D01*
X230Y1211D01*
X230Y1209D01*
X228Y1209D01*
X228Y1207D01*
X224Y1207D01*
X224Y1205D01*
X222Y1205D01*
X222Y1203D01*
X218Y1203D01*
X218Y1201D01*
X216Y1201D01*
X216Y1181D01*
X220Y1181D01*
X220Y1179D01*
X224Y1179D01*
X224Y1177D01*
X226Y1177D01*
X226Y1175D01*
X228Y1175D01*
X228Y1173D01*
X232Y1173D01*
X232Y1169D01*
X234Y1169D01*
X234Y1167D01*
X236Y1167D01*
X236Y1165D01*
X238Y1165D01*
X238Y1161D01*
X240Y1161D01*
X240Y1155D01*
X242Y1155D01*
X242Y1147D01*
X244Y1147D01*
X244Y1135D01*
X242Y1135D01*
X242Y1127D01*
X240Y1127D01*
X240Y1123D01*
X238Y1123D01*
X238Y1119D01*
X236Y1119D01*
X236Y1117D01*
X234Y1117D01*
X234Y1113D01*
X232Y1113D01*
X232Y1111D01*
X230Y1111D01*
X230Y1109D01*
X228Y1109D01*
X228Y1107D01*
X224Y1107D01*
X224Y1105D01*
X222Y1105D01*
X222Y1103D01*
X218Y1103D01*
X218Y1101D01*
X216Y1101D01*
X216Y1081D01*
X220Y1081D01*
X220Y1079D01*
X224Y1079D01*
X224Y1077D01*
X226Y1077D01*
X226Y1075D01*
X228Y1075D01*
X228Y1073D01*
X232Y1073D01*
X232Y1069D01*
X234Y1069D01*
X234Y1067D01*
X236Y1067D01*
X236Y1065D01*
X238Y1065D01*
X238Y1061D01*
X240Y1061D01*
X240Y1055D01*
X242Y1055D01*
X242Y1047D01*
X244Y1047D01*
X244Y1035D01*
X242Y1035D01*
X242Y1027D01*
X240Y1027D01*
X240Y1023D01*
X238Y1023D01*
X238Y1019D01*
X236Y1019D01*
X236Y1017D01*
X234Y1017D01*
X234Y1013D01*
X232Y1013D01*
X232Y1011D01*
X230Y1011D01*
X230Y1009D01*
X228Y1009D01*
X228Y1007D01*
X224Y1007D01*
X224Y1005D01*
X222Y1005D01*
X222Y1003D01*
X218Y1003D01*
X218Y1001D01*
X216Y1001D01*
X216Y981D01*
X220Y981D01*
X220Y979D01*
X224Y979D01*
X224Y977D01*
X226Y977D01*
X226Y975D01*
X228Y975D01*
X228Y973D01*
X232Y973D01*
X232Y969D01*
X234Y969D01*
X234Y967D01*
X236Y967D01*
X236Y965D01*
X238Y965D01*
X238Y961D01*
X240Y961D01*
X240Y955D01*
X242Y955D01*
X242Y947D01*
X244Y947D01*
X244Y935D01*
X242Y935D01*
X242Y927D01*
X240Y927D01*
X240Y923D01*
X238Y923D01*
X238Y919D01*
X236Y919D01*
X236Y917D01*
X234Y917D01*
X234Y913D01*
X232Y913D01*
X232Y911D01*
X230Y911D01*
X230Y909D01*
X228Y909D01*
X228Y907D01*
X224Y907D01*
X224Y905D01*
X222Y905D01*
X222Y903D01*
X218Y903D01*
X218Y901D01*
X216Y901D01*
X216Y881D01*
X220Y881D01*
X220Y879D01*
X224Y879D01*
X224Y877D01*
X226Y877D01*
X226Y875D01*
X228Y875D01*
X228Y873D01*
X232Y873D01*
X232Y869D01*
X234Y869D01*
X234Y867D01*
X236Y867D01*
X236Y865D01*
X238Y865D01*
X238Y861D01*
X240Y861D01*
X240Y855D01*
X242Y855D01*
X242Y847D01*
X244Y847D01*
X244Y835D01*
X242Y835D01*
X242Y827D01*
X240Y827D01*
X240Y823D01*
X238Y823D01*
X238Y819D01*
X236Y819D01*
X236Y817D01*
X234Y817D01*
X234Y813D01*
X232Y813D01*
X232Y811D01*
X230Y811D01*
X230Y809D01*
X228Y809D01*
X228Y807D01*
X224Y807D01*
X224Y805D01*
X222Y805D01*
X222Y803D01*
X218Y803D01*
X218Y801D01*
X216Y801D01*
X216Y781D01*
X220Y781D01*
X220Y779D01*
X224Y779D01*
X224Y777D01*
X226Y777D01*
X226Y775D01*
X228Y775D01*
X228Y773D01*
X232Y773D01*
X232Y769D01*
X234Y769D01*
X234Y767D01*
X236Y767D01*
X236Y765D01*
X238Y765D01*
X238Y761D01*
X240Y761D01*
X240Y755D01*
X242Y755D01*
X242Y747D01*
X244Y747D01*
X244Y735D01*
X242Y735D01*
X242Y727D01*
X240Y727D01*
X240Y723D01*
X238Y723D01*
X238Y719D01*
X236Y719D01*
X236Y717D01*
X234Y717D01*
X234Y713D01*
X232Y713D01*
X232Y711D01*
X230Y711D01*
X230Y709D01*
X228Y709D01*
X228Y707D01*
X224Y707D01*
X224Y705D01*
X222Y705D01*
X222Y703D01*
X218Y703D01*
X218Y701D01*
X216Y701D01*
X216Y681D01*
X220Y681D01*
X220Y679D01*
X224Y679D01*
X224Y677D01*
X226Y677D01*
X226Y675D01*
X228Y675D01*
X228Y673D01*
X232Y673D01*
X232Y669D01*
X234Y669D01*
X234Y667D01*
X236Y667D01*
X236Y665D01*
X238Y665D01*
X238Y661D01*
X240Y661D01*
X240Y655D01*
X242Y655D01*
X242Y647D01*
X244Y647D01*
X244Y635D01*
X242Y635D01*
X242Y627D01*
X240Y627D01*
X240Y623D01*
X238Y623D01*
X238Y619D01*
X236Y619D01*
X236Y617D01*
X234Y617D01*
X234Y613D01*
X232Y613D01*
X232Y611D01*
X230Y611D01*
X230Y609D01*
X228Y609D01*
X228Y607D01*
X224Y607D01*
X224Y605D01*
X222Y605D01*
X222Y603D01*
X218Y603D01*
X218Y601D01*
X216Y601D01*
X216Y581D01*
X220Y581D01*
X220Y579D01*
X224Y579D01*
X224Y577D01*
X226Y577D01*
X226Y575D01*
X228Y575D01*
X228Y573D01*
X232Y573D01*
X232Y569D01*
X234Y569D01*
X234Y567D01*
X236Y567D01*
X236Y565D01*
X238Y565D01*
X238Y561D01*
X240Y561D01*
X240Y555D01*
X310Y555D01*
X310Y559D01*
X312Y559D01*
X312Y561D01*
X314Y561D01*
X314Y565D01*
X316Y565D01*
X316Y567D01*
X318Y567D01*
X318Y571D01*
X320Y571D01*
X320Y573D01*
X322Y573D01*
X322Y575D01*
X324Y575D01*
X324Y579D01*
X326Y579D01*
X326Y581D01*
X328Y581D01*
X328Y585D01*
X330Y585D01*
X330Y587D01*
X332Y587D01*
X332Y657D01*
X334Y657D01*
X334Y1277D01*
X336Y1277D01*
X336Y1895D01*
X338Y1895D01*
X338Y2405D01*
X336Y2405D01*
X336Y2407D01*
X332Y2407D01*
X332Y2409D01*
X328Y2409D01*
X328Y2411D01*
X326Y2411D01*
X326Y2413D01*
X324Y2413D01*
X324Y2415D01*
X322Y2415D01*
X322Y2417D01*
X320Y2417D01*
X320Y2419D01*
X318Y2419D01*
X318Y2421D01*
X316Y2421D01*
X316Y2425D01*
X314Y2425D01*
X314Y2429D01*
X312Y2429D01*
X312Y2435D01*
X310Y2435D01*
X310Y2457D01*
X312Y2457D01*
X312Y2463D01*
X314Y2463D01*
X314Y2467D01*
X316Y2467D01*
X316Y2471D01*
X318Y2471D01*
X318Y2473D01*
X320Y2473D01*
X320Y2475D01*
X322Y2475D01*
X322Y2477D01*
X324Y2477D01*
X324Y2479D01*
X326Y2479D01*
X326Y2481D01*
X330Y2481D01*
X330Y2483D01*
X332Y2483D01*
X332Y2485D01*
X336Y2485D01*
X336Y2487D01*
X344Y2487D01*
X344Y2489D01*
X40Y2489D01*
G37*
D02*
G36*
X362Y2489D02*
X362Y2487D01*
X368Y2487D01*
X368Y2485D01*
X372Y2485D01*
X372Y2483D01*
X376Y2483D01*
X376Y2481D01*
X380Y2481D01*
X380Y2479D01*
X382Y2479D01*
X382Y2477D01*
X384Y2477D01*
X384Y2475D01*
X386Y2475D01*
X386Y2473D01*
X388Y2473D01*
X388Y2469D01*
X390Y2469D01*
X390Y2465D01*
X392Y2465D01*
X392Y2461D01*
X412Y2461D01*
X412Y2463D01*
X414Y2463D01*
X414Y2467D01*
X416Y2467D01*
X416Y2471D01*
X418Y2471D01*
X418Y2473D01*
X420Y2473D01*
X420Y2475D01*
X422Y2475D01*
X422Y2477D01*
X424Y2477D01*
X424Y2479D01*
X426Y2479D01*
X426Y2481D01*
X430Y2481D01*
X430Y2483D01*
X432Y2483D01*
X432Y2485D01*
X436Y2485D01*
X436Y2487D01*
X444Y2487D01*
X444Y2489D01*
X362Y2489D01*
G37*
D02*
G36*
X462Y2489D02*
X462Y2487D01*
X468Y2487D01*
X468Y2485D01*
X472Y2485D01*
X472Y2483D01*
X476Y2483D01*
X476Y2481D01*
X480Y2481D01*
X480Y2479D01*
X482Y2479D01*
X482Y2477D01*
X484Y2477D01*
X484Y2475D01*
X486Y2475D01*
X486Y2473D01*
X488Y2473D01*
X488Y2469D01*
X490Y2469D01*
X490Y2465D01*
X492Y2465D01*
X492Y2461D01*
X512Y2461D01*
X512Y2463D01*
X514Y2463D01*
X514Y2467D01*
X516Y2467D01*
X516Y2471D01*
X518Y2471D01*
X518Y2473D01*
X520Y2473D01*
X520Y2475D01*
X522Y2475D01*
X522Y2477D01*
X524Y2477D01*
X524Y2479D01*
X526Y2479D01*
X526Y2481D01*
X530Y2481D01*
X530Y2483D01*
X532Y2483D01*
X532Y2485D01*
X536Y2485D01*
X536Y2487D01*
X544Y2487D01*
X544Y2489D01*
X462Y2489D01*
G37*
D02*
G36*
X562Y2489D02*
X562Y2487D01*
X568Y2487D01*
X568Y2485D01*
X572Y2485D01*
X572Y2483D01*
X576Y2483D01*
X576Y2481D01*
X580Y2481D01*
X580Y2479D01*
X582Y2479D01*
X582Y2477D01*
X584Y2477D01*
X584Y2475D01*
X586Y2475D01*
X586Y2473D01*
X588Y2473D01*
X588Y2469D01*
X590Y2469D01*
X590Y2465D01*
X592Y2465D01*
X592Y2461D01*
X612Y2461D01*
X612Y2463D01*
X614Y2463D01*
X614Y2467D01*
X616Y2467D01*
X616Y2471D01*
X618Y2471D01*
X618Y2473D01*
X620Y2473D01*
X620Y2475D01*
X622Y2475D01*
X622Y2477D01*
X624Y2477D01*
X624Y2479D01*
X626Y2479D01*
X626Y2481D01*
X630Y2481D01*
X630Y2483D01*
X632Y2483D01*
X632Y2485D01*
X636Y2485D01*
X636Y2487D01*
X644Y2487D01*
X644Y2489D01*
X562Y2489D01*
G37*
D02*
G36*
X662Y2489D02*
X662Y2487D01*
X668Y2487D01*
X668Y2485D01*
X672Y2485D01*
X672Y2483D01*
X676Y2483D01*
X676Y2481D01*
X680Y2481D01*
X680Y2479D01*
X682Y2479D01*
X682Y2477D01*
X684Y2477D01*
X684Y2475D01*
X686Y2475D01*
X686Y2473D01*
X688Y2473D01*
X688Y2469D01*
X690Y2469D01*
X690Y2465D01*
X692Y2465D01*
X692Y2461D01*
X712Y2461D01*
X712Y2463D01*
X714Y2463D01*
X714Y2467D01*
X716Y2467D01*
X716Y2471D01*
X718Y2471D01*
X718Y2473D01*
X720Y2473D01*
X720Y2475D01*
X722Y2475D01*
X722Y2477D01*
X724Y2477D01*
X724Y2479D01*
X726Y2479D01*
X726Y2481D01*
X730Y2481D01*
X730Y2483D01*
X732Y2483D01*
X732Y2485D01*
X736Y2485D01*
X736Y2487D01*
X744Y2487D01*
X744Y2489D01*
X662Y2489D01*
G37*
D02*
G36*
X762Y2489D02*
X762Y2487D01*
X768Y2487D01*
X768Y2485D01*
X772Y2485D01*
X772Y2483D01*
X776Y2483D01*
X776Y2481D01*
X780Y2481D01*
X780Y2479D01*
X782Y2479D01*
X782Y2477D01*
X784Y2477D01*
X784Y2475D01*
X786Y2475D01*
X786Y2473D01*
X788Y2473D01*
X788Y2469D01*
X790Y2469D01*
X790Y2465D01*
X792Y2465D01*
X792Y2461D01*
X812Y2461D01*
X812Y2463D01*
X814Y2463D01*
X814Y2467D01*
X816Y2467D01*
X816Y2471D01*
X818Y2471D01*
X818Y2473D01*
X820Y2473D01*
X820Y2475D01*
X822Y2475D01*
X822Y2477D01*
X824Y2477D01*
X824Y2479D01*
X826Y2479D01*
X826Y2481D01*
X830Y2481D01*
X830Y2483D01*
X832Y2483D01*
X832Y2485D01*
X836Y2485D01*
X836Y2487D01*
X844Y2487D01*
X844Y2489D01*
X762Y2489D01*
G37*
D02*
G36*
X692Y2429D02*
X692Y2425D01*
X690Y2425D01*
X690Y2421D01*
X688Y2421D01*
X688Y2419D01*
X686Y2419D01*
X686Y2417D01*
X684Y2417D01*
X684Y2415D01*
X682Y2415D01*
X682Y2413D01*
X680Y2413D01*
X680Y2411D01*
X678Y2411D01*
X678Y2409D01*
X674Y2409D01*
X674Y2407D01*
X670Y2407D01*
X670Y2405D01*
X666Y2405D01*
X666Y2403D01*
X742Y2403D01*
X742Y2405D01*
X736Y2405D01*
X736Y2407D01*
X732Y2407D01*
X732Y2409D01*
X728Y2409D01*
X728Y2411D01*
X726Y2411D01*
X726Y2413D01*
X724Y2413D01*
X724Y2415D01*
X722Y2415D01*
X722Y2417D01*
X720Y2417D01*
X720Y2419D01*
X718Y2419D01*
X718Y2421D01*
X716Y2421D01*
X716Y2425D01*
X714Y2425D01*
X714Y2429D01*
X692Y2429D01*
G37*
D02*
G36*
X792Y2429D02*
X792Y2425D01*
X790Y2425D01*
X790Y2421D01*
X788Y2421D01*
X788Y2419D01*
X786Y2419D01*
X786Y2417D01*
X784Y2417D01*
X784Y2415D01*
X782Y2415D01*
X782Y2413D01*
X780Y2413D01*
X780Y2411D01*
X778Y2411D01*
X778Y2409D01*
X774Y2409D01*
X774Y2407D01*
X770Y2407D01*
X770Y2405D01*
X764Y2405D01*
X764Y2403D01*
X842Y2403D01*
X842Y2405D01*
X836Y2405D01*
X836Y2407D01*
X832Y2407D01*
X832Y2409D01*
X828Y2409D01*
X828Y2411D01*
X826Y2411D01*
X826Y2413D01*
X824Y2413D01*
X824Y2415D01*
X822Y2415D01*
X822Y2417D01*
X820Y2417D01*
X820Y2419D01*
X818Y2419D01*
X818Y2421D01*
X816Y2421D01*
X816Y2425D01*
X814Y2425D01*
X814Y2429D01*
X792Y2429D01*
G37*
D02*
G36*
X666Y2403D02*
X666Y2401D01*
X1160Y2401D01*
X1160Y2403D01*
X666Y2403D01*
G37*
D02*
G36*
X666Y2403D02*
X666Y2401D01*
X1160Y2401D01*
X1160Y2403D01*
X666Y2403D01*
G37*
D02*
G36*
X666Y2403D02*
X666Y2401D01*
X1160Y2401D01*
X1160Y2403D01*
X666Y2403D01*
G37*
D02*
G36*
X666Y2401D02*
X666Y2239D01*
X1138Y2239D01*
X1138Y2237D01*
X1160Y2237D01*
X1160Y2401D01*
X666Y2401D01*
G37*
D02*
G36*
X40Y2285D02*
X40Y2255D01*
X60Y2255D01*
X60Y2261D01*
X62Y2261D01*
X62Y2265D01*
X64Y2265D01*
X64Y2267D01*
X66Y2267D01*
X66Y2269D01*
X68Y2269D01*
X68Y2273D01*
X72Y2273D01*
X72Y2275D01*
X74Y2275D01*
X74Y2277D01*
X76Y2277D01*
X76Y2279D01*
X80Y2279D01*
X80Y2281D01*
X84Y2281D01*
X84Y2283D01*
X90Y2283D01*
X90Y2285D01*
X40Y2285D01*
G37*
D02*
G36*
X110Y2285D02*
X110Y2283D01*
X116Y2283D01*
X116Y2281D01*
X120Y2281D01*
X120Y2279D01*
X124Y2279D01*
X124Y2277D01*
X126Y2277D01*
X126Y2275D01*
X128Y2275D01*
X128Y2273D01*
X132Y2273D01*
X132Y2269D01*
X134Y2269D01*
X134Y2267D01*
X136Y2267D01*
X136Y2265D01*
X138Y2265D01*
X138Y2261D01*
X140Y2261D01*
X140Y2255D01*
X160Y2255D01*
X160Y2261D01*
X162Y2261D01*
X162Y2265D01*
X164Y2265D01*
X164Y2267D01*
X166Y2267D01*
X166Y2269D01*
X168Y2269D01*
X168Y2273D01*
X172Y2273D01*
X172Y2275D01*
X174Y2275D01*
X174Y2277D01*
X176Y2277D01*
X176Y2279D01*
X180Y2279D01*
X180Y2281D01*
X184Y2281D01*
X184Y2283D01*
X190Y2283D01*
X190Y2285D01*
X110Y2285D01*
G37*
D02*
G36*
X666Y2239D02*
X666Y1725D01*
X706Y1725D01*
X706Y1723D01*
X712Y1723D01*
X712Y1721D01*
X716Y1721D01*
X716Y1719D01*
X718Y1719D01*
X718Y1717D01*
X754Y1717D01*
X754Y1719D01*
X792Y1719D01*
X792Y1721D01*
X794Y1721D01*
X794Y1723D01*
X796Y1723D01*
X796Y1727D01*
X798Y1727D01*
X798Y1729D01*
X802Y1729D01*
X802Y1731D01*
X804Y1731D01*
X804Y1733D01*
X806Y1733D01*
X806Y1735D01*
X810Y1735D01*
X810Y1737D01*
X812Y1737D01*
X812Y1757D01*
X808Y1757D01*
X808Y1759D01*
X804Y1759D01*
X804Y1761D01*
X802Y1761D01*
X802Y1763D01*
X800Y1763D01*
X800Y1765D01*
X798Y1765D01*
X798Y1767D01*
X796Y1767D01*
X796Y1769D01*
X794Y1769D01*
X794Y1771D01*
X792Y1771D01*
X792Y1775D01*
X790Y1775D01*
X790Y1779D01*
X788Y1779D01*
X788Y1783D01*
X786Y1783D01*
X786Y1795D01*
X784Y1795D01*
X784Y1799D01*
X786Y1799D01*
X786Y1809D01*
X788Y1809D01*
X788Y1815D01*
X790Y1815D01*
X790Y1819D01*
X792Y1819D01*
X792Y1821D01*
X794Y1821D01*
X794Y1823D01*
X796Y1823D01*
X796Y1827D01*
X798Y1827D01*
X798Y1829D01*
X802Y1829D01*
X802Y1831D01*
X804Y1831D01*
X804Y1833D01*
X806Y1833D01*
X806Y1835D01*
X810Y1835D01*
X810Y1837D01*
X812Y1837D01*
X812Y1857D01*
X808Y1857D01*
X808Y1859D01*
X804Y1859D01*
X804Y1861D01*
X802Y1861D01*
X802Y1863D01*
X800Y1863D01*
X800Y1865D01*
X798Y1865D01*
X798Y1867D01*
X796Y1867D01*
X796Y1869D01*
X794Y1869D01*
X794Y1871D01*
X792Y1871D01*
X792Y1875D01*
X790Y1875D01*
X790Y1879D01*
X788Y1879D01*
X788Y1883D01*
X786Y1883D01*
X786Y1895D01*
X784Y1895D01*
X784Y1899D01*
X786Y1899D01*
X786Y1909D01*
X788Y1909D01*
X788Y1915D01*
X790Y1915D01*
X790Y1919D01*
X792Y1919D01*
X792Y1921D01*
X794Y1921D01*
X794Y1923D01*
X796Y1923D01*
X796Y1927D01*
X798Y1927D01*
X798Y1929D01*
X802Y1929D01*
X802Y1931D01*
X804Y1931D01*
X804Y1933D01*
X806Y1933D01*
X806Y1935D01*
X810Y1935D01*
X810Y1957D01*
X808Y1957D01*
X808Y1959D01*
X804Y1959D01*
X804Y1961D01*
X802Y1961D01*
X802Y1963D01*
X798Y1963D01*
X798Y1965D01*
X796Y1965D01*
X796Y1969D01*
X794Y1969D01*
X794Y1971D01*
X792Y1971D01*
X792Y1973D01*
X790Y1973D01*
X790Y1977D01*
X788Y1977D01*
X788Y1983D01*
X786Y1983D01*
X786Y1993D01*
X784Y1993D01*
X784Y1997D01*
X786Y1997D01*
X786Y2009D01*
X788Y2009D01*
X788Y2013D01*
X790Y2013D01*
X790Y2017D01*
X792Y2017D01*
X792Y2021D01*
X794Y2021D01*
X794Y2023D01*
X796Y2023D01*
X796Y2025D01*
X798Y2025D01*
X798Y2027D01*
X800Y2027D01*
X800Y2029D01*
X802Y2029D01*
X802Y2031D01*
X804Y2031D01*
X804Y2033D01*
X808Y2033D01*
X808Y2035D01*
X812Y2035D01*
X812Y2055D01*
X810Y2055D01*
X810Y2057D01*
X808Y2057D01*
X808Y2059D01*
X804Y2059D01*
X804Y2061D01*
X802Y2061D01*
X802Y2063D01*
X798Y2063D01*
X798Y2065D01*
X796Y2065D01*
X796Y2069D01*
X794Y2069D01*
X794Y2071D01*
X792Y2071D01*
X792Y2073D01*
X790Y2073D01*
X790Y2077D01*
X788Y2077D01*
X788Y2083D01*
X786Y2083D01*
X786Y2093D01*
X784Y2093D01*
X784Y2097D01*
X786Y2097D01*
X786Y2109D01*
X788Y2109D01*
X788Y2113D01*
X790Y2113D01*
X790Y2117D01*
X792Y2117D01*
X792Y2121D01*
X794Y2121D01*
X794Y2123D01*
X796Y2123D01*
X796Y2125D01*
X798Y2125D01*
X798Y2127D01*
X800Y2127D01*
X800Y2129D01*
X802Y2129D01*
X802Y2131D01*
X804Y2131D01*
X804Y2133D01*
X808Y2133D01*
X808Y2135D01*
X812Y2135D01*
X812Y2155D01*
X810Y2155D01*
X810Y2157D01*
X808Y2157D01*
X808Y2159D01*
X804Y2159D01*
X804Y2161D01*
X802Y2161D01*
X802Y2163D01*
X798Y2163D01*
X798Y2165D01*
X796Y2165D01*
X796Y2169D01*
X794Y2169D01*
X794Y2171D01*
X792Y2171D01*
X792Y2173D01*
X790Y2173D01*
X790Y2177D01*
X788Y2177D01*
X788Y2183D01*
X786Y2183D01*
X786Y2193D01*
X784Y2193D01*
X784Y2197D01*
X786Y2197D01*
X786Y2209D01*
X788Y2209D01*
X788Y2213D01*
X790Y2213D01*
X790Y2217D01*
X792Y2217D01*
X792Y2221D01*
X794Y2221D01*
X794Y2223D01*
X796Y2223D01*
X796Y2225D01*
X798Y2225D01*
X798Y2227D01*
X800Y2227D01*
X800Y2229D01*
X802Y2229D01*
X802Y2231D01*
X804Y2231D01*
X804Y2233D01*
X808Y2233D01*
X808Y2235D01*
X812Y2235D01*
X812Y2237D01*
X820Y2237D01*
X820Y2239D01*
X666Y2239D01*
G37*
D02*
G36*
X838Y2239D02*
X838Y2237D01*
X844Y2237D01*
X844Y2235D01*
X848Y2235D01*
X848Y2233D01*
X852Y2233D01*
X852Y2231D01*
X854Y2231D01*
X854Y2229D01*
X858Y2229D01*
X858Y2227D01*
X860Y2227D01*
X860Y2225D01*
X862Y2225D01*
X862Y2221D01*
X864Y2221D01*
X864Y2219D01*
X866Y2219D01*
X866Y2215D01*
X868Y2215D01*
X868Y2211D01*
X888Y2211D01*
X888Y2213D01*
X890Y2213D01*
X890Y2217D01*
X892Y2217D01*
X892Y2221D01*
X894Y2221D01*
X894Y2223D01*
X896Y2223D01*
X896Y2225D01*
X898Y2225D01*
X898Y2227D01*
X900Y2227D01*
X900Y2229D01*
X902Y2229D01*
X902Y2231D01*
X904Y2231D01*
X904Y2233D01*
X908Y2233D01*
X908Y2235D01*
X912Y2235D01*
X912Y2237D01*
X920Y2237D01*
X920Y2239D01*
X838Y2239D01*
G37*
D02*
G36*
X938Y2239D02*
X938Y2237D01*
X944Y2237D01*
X944Y2235D01*
X948Y2235D01*
X948Y2233D01*
X952Y2233D01*
X952Y2231D01*
X954Y2231D01*
X954Y2229D01*
X958Y2229D01*
X958Y2227D01*
X960Y2227D01*
X960Y2225D01*
X962Y2225D01*
X962Y2221D01*
X964Y2221D01*
X964Y2219D01*
X966Y2219D01*
X966Y2215D01*
X968Y2215D01*
X968Y2211D01*
X988Y2211D01*
X988Y2213D01*
X990Y2213D01*
X990Y2215D01*
X992Y2215D01*
X992Y2219D01*
X994Y2219D01*
X994Y2223D01*
X996Y2223D01*
X996Y2225D01*
X998Y2225D01*
X998Y2227D01*
X1000Y2227D01*
X1000Y2229D01*
X1002Y2229D01*
X1002Y2231D01*
X1006Y2231D01*
X1006Y2233D01*
X1010Y2233D01*
X1010Y2235D01*
X1014Y2235D01*
X1014Y2237D01*
X1020Y2237D01*
X1020Y2239D01*
X938Y2239D01*
G37*
D02*
G36*
X1038Y2239D02*
X1038Y2237D01*
X1046Y2237D01*
X1046Y2235D01*
X1050Y2235D01*
X1050Y2233D01*
X1052Y2233D01*
X1052Y2231D01*
X1056Y2231D01*
X1056Y2229D01*
X1058Y2229D01*
X1058Y2227D01*
X1060Y2227D01*
X1060Y2225D01*
X1062Y2225D01*
X1062Y2223D01*
X1064Y2223D01*
X1064Y2221D01*
X1066Y2221D01*
X1066Y2217D01*
X1068Y2217D01*
X1068Y2213D01*
X1090Y2213D01*
X1090Y2215D01*
X1092Y2215D01*
X1092Y2219D01*
X1094Y2219D01*
X1094Y2223D01*
X1096Y2223D01*
X1096Y2225D01*
X1098Y2225D01*
X1098Y2227D01*
X1100Y2227D01*
X1100Y2229D01*
X1102Y2229D01*
X1102Y2231D01*
X1106Y2231D01*
X1106Y2233D01*
X1110Y2233D01*
X1110Y2235D01*
X1114Y2235D01*
X1114Y2237D01*
X1120Y2237D01*
X1120Y2239D01*
X1038Y2239D01*
G37*
D02*
G36*
X666Y1725D02*
X666Y1721D01*
X686Y1721D01*
X686Y1723D01*
X690Y1723D01*
X690Y1725D01*
X666Y1725D01*
G37*
D02*
G36*
X40Y2229D02*
X40Y2155D01*
X60Y2155D01*
X60Y2161D01*
X62Y2161D01*
X62Y2165D01*
X64Y2165D01*
X64Y2167D01*
X66Y2167D01*
X66Y2169D01*
X68Y2169D01*
X68Y2173D01*
X72Y2173D01*
X72Y2175D01*
X74Y2175D01*
X74Y2177D01*
X76Y2177D01*
X76Y2179D01*
X80Y2179D01*
X80Y2181D01*
X84Y2181D01*
X84Y2201D01*
X82Y2201D01*
X82Y2203D01*
X78Y2203D01*
X78Y2205D01*
X76Y2205D01*
X76Y2207D01*
X72Y2207D01*
X72Y2209D01*
X70Y2209D01*
X70Y2211D01*
X68Y2211D01*
X68Y2213D01*
X66Y2213D01*
X66Y2217D01*
X64Y2217D01*
X64Y2219D01*
X62Y2219D01*
X62Y2223D01*
X60Y2223D01*
X60Y2229D01*
X40Y2229D01*
G37*
D02*
G36*
X140Y2227D02*
X140Y2223D01*
X138Y2223D01*
X138Y2219D01*
X136Y2219D01*
X136Y2217D01*
X134Y2217D01*
X134Y2213D01*
X132Y2213D01*
X132Y2211D01*
X130Y2211D01*
X130Y2209D01*
X128Y2209D01*
X128Y2207D01*
X124Y2207D01*
X124Y2205D01*
X122Y2205D01*
X122Y2203D01*
X118Y2203D01*
X118Y2201D01*
X116Y2201D01*
X116Y2181D01*
X120Y2181D01*
X120Y2179D01*
X124Y2179D01*
X124Y2177D01*
X126Y2177D01*
X126Y2175D01*
X128Y2175D01*
X128Y2173D01*
X132Y2173D01*
X132Y2169D01*
X134Y2169D01*
X134Y2167D01*
X136Y2167D01*
X136Y2165D01*
X138Y2165D01*
X138Y2161D01*
X140Y2161D01*
X140Y2155D01*
X160Y2155D01*
X160Y2161D01*
X162Y2161D01*
X162Y2165D01*
X164Y2165D01*
X164Y2167D01*
X166Y2167D01*
X166Y2169D01*
X168Y2169D01*
X168Y2173D01*
X172Y2173D01*
X172Y2175D01*
X174Y2175D01*
X174Y2177D01*
X176Y2177D01*
X176Y2179D01*
X180Y2179D01*
X180Y2181D01*
X184Y2181D01*
X184Y2201D01*
X182Y2201D01*
X182Y2203D01*
X178Y2203D01*
X178Y2205D01*
X176Y2205D01*
X176Y2207D01*
X172Y2207D01*
X172Y2209D01*
X170Y2209D01*
X170Y2211D01*
X168Y2211D01*
X168Y2213D01*
X166Y2213D01*
X166Y2217D01*
X164Y2217D01*
X164Y2219D01*
X162Y2219D01*
X162Y2223D01*
X160Y2223D01*
X160Y2227D01*
X140Y2227D01*
G37*
D02*
G36*
X868Y2181D02*
X868Y2177D01*
X866Y2177D01*
X866Y2173D01*
X864Y2173D01*
X864Y2169D01*
X862Y2169D01*
X862Y2167D01*
X860Y2167D01*
X860Y2165D01*
X858Y2165D01*
X858Y2163D01*
X856Y2163D01*
X856Y2161D01*
X854Y2161D01*
X854Y2159D01*
X850Y2159D01*
X850Y2157D01*
X846Y2157D01*
X846Y2155D01*
X844Y2155D01*
X844Y2135D01*
X848Y2135D01*
X848Y2133D01*
X852Y2133D01*
X852Y2131D01*
X854Y2131D01*
X854Y2129D01*
X858Y2129D01*
X858Y2127D01*
X860Y2127D01*
X860Y2125D01*
X862Y2125D01*
X862Y2121D01*
X864Y2121D01*
X864Y2119D01*
X866Y2119D01*
X866Y2115D01*
X868Y2115D01*
X868Y2111D01*
X888Y2111D01*
X888Y2113D01*
X890Y2113D01*
X890Y2117D01*
X892Y2117D01*
X892Y2121D01*
X894Y2121D01*
X894Y2123D01*
X896Y2123D01*
X896Y2125D01*
X898Y2125D01*
X898Y2127D01*
X900Y2127D01*
X900Y2129D01*
X902Y2129D01*
X902Y2131D01*
X904Y2131D01*
X904Y2133D01*
X908Y2133D01*
X908Y2135D01*
X912Y2135D01*
X912Y2155D01*
X910Y2155D01*
X910Y2157D01*
X908Y2157D01*
X908Y2159D01*
X904Y2159D01*
X904Y2161D01*
X902Y2161D01*
X902Y2163D01*
X898Y2163D01*
X898Y2165D01*
X896Y2165D01*
X896Y2169D01*
X894Y2169D01*
X894Y2171D01*
X892Y2171D01*
X892Y2173D01*
X890Y2173D01*
X890Y2177D01*
X888Y2177D01*
X888Y2181D01*
X868Y2181D01*
G37*
D02*
G36*
X968Y2181D02*
X968Y2177D01*
X966Y2177D01*
X966Y2173D01*
X964Y2173D01*
X964Y2169D01*
X962Y2169D01*
X962Y2167D01*
X960Y2167D01*
X960Y2165D01*
X958Y2165D01*
X958Y2163D01*
X956Y2163D01*
X956Y2161D01*
X954Y2161D01*
X954Y2159D01*
X950Y2159D01*
X950Y2157D01*
X946Y2157D01*
X946Y2155D01*
X944Y2155D01*
X944Y2135D01*
X948Y2135D01*
X948Y2133D01*
X952Y2133D01*
X952Y2131D01*
X954Y2131D01*
X954Y2129D01*
X958Y2129D01*
X958Y2127D01*
X960Y2127D01*
X960Y2125D01*
X962Y2125D01*
X962Y2121D01*
X964Y2121D01*
X964Y2119D01*
X966Y2119D01*
X966Y2115D01*
X968Y2115D01*
X968Y2111D01*
X988Y2111D01*
X988Y2113D01*
X990Y2113D01*
X990Y2115D01*
X992Y2115D01*
X992Y2119D01*
X994Y2119D01*
X994Y2123D01*
X996Y2123D01*
X996Y2125D01*
X998Y2125D01*
X998Y2127D01*
X1000Y2127D01*
X1000Y2129D01*
X1002Y2129D01*
X1002Y2131D01*
X1006Y2131D01*
X1006Y2133D01*
X1010Y2133D01*
X1010Y2135D01*
X1014Y2135D01*
X1014Y2155D01*
X1012Y2155D01*
X1012Y2157D01*
X1008Y2157D01*
X1008Y2159D01*
X1004Y2159D01*
X1004Y2161D01*
X1002Y2161D01*
X1002Y2163D01*
X1000Y2163D01*
X1000Y2165D01*
X998Y2165D01*
X998Y2167D01*
X996Y2167D01*
X996Y2169D01*
X994Y2169D01*
X994Y2171D01*
X992Y2171D01*
X992Y2175D01*
X990Y2175D01*
X990Y2179D01*
X988Y2179D01*
X988Y2181D01*
X968Y2181D01*
G37*
D02*
G36*
X1068Y2179D02*
X1068Y2175D01*
X1066Y2175D01*
X1066Y2171D01*
X1064Y2171D01*
X1064Y2169D01*
X1062Y2169D01*
X1062Y2167D01*
X1060Y2167D01*
X1060Y2165D01*
X1058Y2165D01*
X1058Y2163D01*
X1056Y2163D01*
X1056Y2161D01*
X1054Y2161D01*
X1054Y2159D01*
X1050Y2159D01*
X1050Y2157D01*
X1046Y2157D01*
X1046Y2135D01*
X1050Y2135D01*
X1050Y2133D01*
X1052Y2133D01*
X1052Y2131D01*
X1056Y2131D01*
X1056Y2129D01*
X1058Y2129D01*
X1058Y2127D01*
X1060Y2127D01*
X1060Y2125D01*
X1062Y2125D01*
X1062Y2123D01*
X1064Y2123D01*
X1064Y2121D01*
X1066Y2121D01*
X1066Y2117D01*
X1068Y2117D01*
X1068Y2113D01*
X1090Y2113D01*
X1090Y2115D01*
X1092Y2115D01*
X1092Y2119D01*
X1094Y2119D01*
X1094Y2123D01*
X1096Y2123D01*
X1096Y2125D01*
X1098Y2125D01*
X1098Y2127D01*
X1100Y2127D01*
X1100Y2129D01*
X1102Y2129D01*
X1102Y2131D01*
X1106Y2131D01*
X1106Y2133D01*
X1110Y2133D01*
X1110Y2135D01*
X1114Y2135D01*
X1114Y2155D01*
X1112Y2155D01*
X1112Y2157D01*
X1108Y2157D01*
X1108Y2159D01*
X1104Y2159D01*
X1104Y2161D01*
X1102Y2161D01*
X1102Y2163D01*
X1100Y2163D01*
X1100Y2165D01*
X1098Y2165D01*
X1098Y2167D01*
X1096Y2167D01*
X1096Y2169D01*
X1094Y2169D01*
X1094Y2171D01*
X1092Y2171D01*
X1092Y2175D01*
X1090Y2175D01*
X1090Y2179D01*
X1068Y2179D01*
G37*
D02*
G36*
X40Y2129D02*
X40Y2055D01*
X60Y2055D01*
X60Y2061D01*
X62Y2061D01*
X62Y2065D01*
X64Y2065D01*
X64Y2067D01*
X66Y2067D01*
X66Y2069D01*
X68Y2069D01*
X68Y2073D01*
X72Y2073D01*
X72Y2075D01*
X74Y2075D01*
X74Y2077D01*
X76Y2077D01*
X76Y2079D01*
X80Y2079D01*
X80Y2081D01*
X84Y2081D01*
X84Y2101D01*
X82Y2101D01*
X82Y2103D01*
X78Y2103D01*
X78Y2105D01*
X76Y2105D01*
X76Y2107D01*
X72Y2107D01*
X72Y2109D01*
X70Y2109D01*
X70Y2111D01*
X68Y2111D01*
X68Y2113D01*
X66Y2113D01*
X66Y2117D01*
X64Y2117D01*
X64Y2119D01*
X62Y2119D01*
X62Y2123D01*
X60Y2123D01*
X60Y2129D01*
X40Y2129D01*
G37*
D02*
G36*
X140Y2127D02*
X140Y2123D01*
X138Y2123D01*
X138Y2119D01*
X136Y2119D01*
X136Y2117D01*
X134Y2117D01*
X134Y2113D01*
X132Y2113D01*
X132Y2111D01*
X130Y2111D01*
X130Y2109D01*
X128Y2109D01*
X128Y2107D01*
X124Y2107D01*
X124Y2105D01*
X122Y2105D01*
X122Y2103D01*
X118Y2103D01*
X118Y2101D01*
X116Y2101D01*
X116Y2081D01*
X120Y2081D01*
X120Y2079D01*
X124Y2079D01*
X124Y2077D01*
X126Y2077D01*
X126Y2075D01*
X128Y2075D01*
X128Y2073D01*
X132Y2073D01*
X132Y2069D01*
X134Y2069D01*
X134Y2067D01*
X136Y2067D01*
X136Y2065D01*
X138Y2065D01*
X138Y2061D01*
X140Y2061D01*
X140Y2055D01*
X160Y2055D01*
X160Y2061D01*
X162Y2061D01*
X162Y2065D01*
X164Y2065D01*
X164Y2067D01*
X166Y2067D01*
X166Y2069D01*
X168Y2069D01*
X168Y2073D01*
X172Y2073D01*
X172Y2075D01*
X174Y2075D01*
X174Y2077D01*
X176Y2077D01*
X176Y2079D01*
X180Y2079D01*
X180Y2081D01*
X184Y2081D01*
X184Y2101D01*
X182Y2101D01*
X182Y2103D01*
X178Y2103D01*
X178Y2105D01*
X176Y2105D01*
X176Y2107D01*
X172Y2107D01*
X172Y2109D01*
X170Y2109D01*
X170Y2111D01*
X168Y2111D01*
X168Y2113D01*
X166Y2113D01*
X166Y2117D01*
X164Y2117D01*
X164Y2119D01*
X162Y2119D01*
X162Y2123D01*
X160Y2123D01*
X160Y2127D01*
X140Y2127D01*
G37*
D02*
G36*
X868Y2081D02*
X868Y2077D01*
X866Y2077D01*
X866Y2073D01*
X864Y2073D01*
X864Y2069D01*
X862Y2069D01*
X862Y2067D01*
X860Y2067D01*
X860Y2065D01*
X858Y2065D01*
X858Y2063D01*
X856Y2063D01*
X856Y2061D01*
X854Y2061D01*
X854Y2059D01*
X850Y2059D01*
X850Y2057D01*
X846Y2057D01*
X846Y2055D01*
X844Y2055D01*
X844Y2035D01*
X848Y2035D01*
X848Y2033D01*
X852Y2033D01*
X852Y2031D01*
X854Y2031D01*
X854Y2029D01*
X858Y2029D01*
X858Y2027D01*
X860Y2027D01*
X860Y2025D01*
X862Y2025D01*
X862Y2021D01*
X864Y2021D01*
X864Y2019D01*
X866Y2019D01*
X866Y2015D01*
X868Y2015D01*
X868Y2011D01*
X888Y2011D01*
X888Y2013D01*
X890Y2013D01*
X890Y2017D01*
X892Y2017D01*
X892Y2021D01*
X894Y2021D01*
X894Y2023D01*
X896Y2023D01*
X896Y2025D01*
X898Y2025D01*
X898Y2027D01*
X900Y2027D01*
X900Y2029D01*
X902Y2029D01*
X902Y2031D01*
X904Y2031D01*
X904Y2033D01*
X908Y2033D01*
X908Y2035D01*
X912Y2035D01*
X912Y2055D01*
X910Y2055D01*
X910Y2057D01*
X908Y2057D01*
X908Y2059D01*
X904Y2059D01*
X904Y2061D01*
X902Y2061D01*
X902Y2063D01*
X898Y2063D01*
X898Y2065D01*
X896Y2065D01*
X896Y2069D01*
X894Y2069D01*
X894Y2071D01*
X892Y2071D01*
X892Y2073D01*
X890Y2073D01*
X890Y2077D01*
X888Y2077D01*
X888Y2081D01*
X868Y2081D01*
G37*
D02*
G36*
X968Y2081D02*
X968Y2077D01*
X966Y2077D01*
X966Y2073D01*
X964Y2073D01*
X964Y2069D01*
X962Y2069D01*
X962Y2067D01*
X960Y2067D01*
X960Y2065D01*
X958Y2065D01*
X958Y2063D01*
X956Y2063D01*
X956Y2061D01*
X954Y2061D01*
X954Y2059D01*
X950Y2059D01*
X950Y2057D01*
X946Y2057D01*
X946Y2055D01*
X944Y2055D01*
X944Y2035D01*
X948Y2035D01*
X948Y2033D01*
X952Y2033D01*
X952Y2031D01*
X954Y2031D01*
X954Y2029D01*
X958Y2029D01*
X958Y2027D01*
X960Y2027D01*
X960Y2025D01*
X962Y2025D01*
X962Y2021D01*
X964Y2021D01*
X964Y2019D01*
X966Y2019D01*
X966Y2015D01*
X968Y2015D01*
X968Y2011D01*
X988Y2011D01*
X988Y2013D01*
X990Y2013D01*
X990Y2015D01*
X992Y2015D01*
X992Y2019D01*
X994Y2019D01*
X994Y2023D01*
X996Y2023D01*
X996Y2025D01*
X998Y2025D01*
X998Y2027D01*
X1000Y2027D01*
X1000Y2029D01*
X1002Y2029D01*
X1002Y2031D01*
X1006Y2031D01*
X1006Y2033D01*
X1010Y2033D01*
X1010Y2035D01*
X1014Y2035D01*
X1014Y2055D01*
X1012Y2055D01*
X1012Y2057D01*
X1008Y2057D01*
X1008Y2059D01*
X1004Y2059D01*
X1004Y2061D01*
X1002Y2061D01*
X1002Y2063D01*
X1000Y2063D01*
X1000Y2065D01*
X998Y2065D01*
X998Y2067D01*
X996Y2067D01*
X996Y2069D01*
X994Y2069D01*
X994Y2071D01*
X992Y2071D01*
X992Y2075D01*
X990Y2075D01*
X990Y2079D01*
X988Y2079D01*
X988Y2081D01*
X968Y2081D01*
G37*
D02*
G36*
X1068Y2079D02*
X1068Y2075D01*
X1066Y2075D01*
X1066Y2071D01*
X1064Y2071D01*
X1064Y2069D01*
X1062Y2069D01*
X1062Y2067D01*
X1060Y2067D01*
X1060Y2065D01*
X1058Y2065D01*
X1058Y2063D01*
X1056Y2063D01*
X1056Y2061D01*
X1054Y2061D01*
X1054Y2059D01*
X1050Y2059D01*
X1050Y2057D01*
X1046Y2057D01*
X1046Y2035D01*
X1050Y2035D01*
X1050Y2033D01*
X1052Y2033D01*
X1052Y2031D01*
X1056Y2031D01*
X1056Y2029D01*
X1058Y2029D01*
X1058Y2027D01*
X1060Y2027D01*
X1060Y2025D01*
X1062Y2025D01*
X1062Y2023D01*
X1064Y2023D01*
X1064Y2021D01*
X1066Y2021D01*
X1066Y2017D01*
X1068Y2017D01*
X1068Y2013D01*
X1090Y2013D01*
X1090Y2015D01*
X1092Y2015D01*
X1092Y2019D01*
X1094Y2019D01*
X1094Y2023D01*
X1096Y2023D01*
X1096Y2025D01*
X1098Y2025D01*
X1098Y2027D01*
X1100Y2027D01*
X1100Y2029D01*
X1102Y2029D01*
X1102Y2031D01*
X1106Y2031D01*
X1106Y2033D01*
X1110Y2033D01*
X1110Y2035D01*
X1114Y2035D01*
X1114Y2055D01*
X1112Y2055D01*
X1112Y2057D01*
X1108Y2057D01*
X1108Y2059D01*
X1104Y2059D01*
X1104Y2061D01*
X1102Y2061D01*
X1102Y2063D01*
X1100Y2063D01*
X1100Y2065D01*
X1098Y2065D01*
X1098Y2067D01*
X1096Y2067D01*
X1096Y2069D01*
X1094Y2069D01*
X1094Y2071D01*
X1092Y2071D01*
X1092Y2075D01*
X1090Y2075D01*
X1090Y2079D01*
X1068Y2079D01*
G37*
D02*
G36*
X40Y2029D02*
X40Y1955D01*
X60Y1955D01*
X60Y1961D01*
X62Y1961D01*
X62Y1965D01*
X64Y1965D01*
X64Y1967D01*
X66Y1967D01*
X66Y1969D01*
X68Y1969D01*
X68Y1973D01*
X72Y1973D01*
X72Y1975D01*
X74Y1975D01*
X74Y1977D01*
X76Y1977D01*
X76Y1979D01*
X80Y1979D01*
X80Y1981D01*
X84Y1981D01*
X84Y2001D01*
X82Y2001D01*
X82Y2003D01*
X78Y2003D01*
X78Y2005D01*
X76Y2005D01*
X76Y2007D01*
X72Y2007D01*
X72Y2009D01*
X70Y2009D01*
X70Y2011D01*
X68Y2011D01*
X68Y2013D01*
X66Y2013D01*
X66Y2017D01*
X64Y2017D01*
X64Y2019D01*
X62Y2019D01*
X62Y2023D01*
X60Y2023D01*
X60Y2029D01*
X40Y2029D01*
G37*
D02*
G36*
X140Y2027D02*
X140Y2023D01*
X138Y2023D01*
X138Y2019D01*
X136Y2019D01*
X136Y2017D01*
X134Y2017D01*
X134Y2013D01*
X132Y2013D01*
X132Y2011D01*
X130Y2011D01*
X130Y2009D01*
X128Y2009D01*
X128Y2007D01*
X124Y2007D01*
X124Y2005D01*
X122Y2005D01*
X122Y2003D01*
X118Y2003D01*
X118Y2001D01*
X116Y2001D01*
X116Y1981D01*
X120Y1981D01*
X120Y1979D01*
X124Y1979D01*
X124Y1977D01*
X126Y1977D01*
X126Y1975D01*
X128Y1975D01*
X128Y1973D01*
X132Y1973D01*
X132Y1969D01*
X134Y1969D01*
X134Y1967D01*
X136Y1967D01*
X136Y1965D01*
X138Y1965D01*
X138Y1961D01*
X140Y1961D01*
X140Y1955D01*
X160Y1955D01*
X160Y1961D01*
X162Y1961D01*
X162Y1965D01*
X164Y1965D01*
X164Y1967D01*
X166Y1967D01*
X166Y1969D01*
X168Y1969D01*
X168Y1973D01*
X172Y1973D01*
X172Y1975D01*
X174Y1975D01*
X174Y1977D01*
X176Y1977D01*
X176Y1979D01*
X180Y1979D01*
X180Y1981D01*
X184Y1981D01*
X184Y2001D01*
X182Y2001D01*
X182Y2003D01*
X178Y2003D01*
X178Y2005D01*
X176Y2005D01*
X176Y2007D01*
X172Y2007D01*
X172Y2009D01*
X170Y2009D01*
X170Y2011D01*
X168Y2011D01*
X168Y2013D01*
X166Y2013D01*
X166Y2017D01*
X164Y2017D01*
X164Y2019D01*
X162Y2019D01*
X162Y2023D01*
X160Y2023D01*
X160Y2027D01*
X140Y2027D01*
G37*
D02*
G36*
X868Y1981D02*
X868Y1977D01*
X866Y1977D01*
X866Y1973D01*
X864Y1973D01*
X864Y1969D01*
X862Y1969D01*
X862Y1967D01*
X860Y1967D01*
X860Y1965D01*
X858Y1965D01*
X858Y1963D01*
X856Y1963D01*
X856Y1961D01*
X854Y1961D01*
X854Y1959D01*
X850Y1959D01*
X850Y1957D01*
X846Y1957D01*
X846Y1935D01*
X850Y1935D01*
X850Y1933D01*
X854Y1933D01*
X854Y1931D01*
X856Y1931D01*
X856Y1929D01*
X858Y1929D01*
X858Y1927D01*
X860Y1927D01*
X860Y1925D01*
X862Y1925D01*
X862Y1923D01*
X864Y1923D01*
X864Y1919D01*
X866Y1919D01*
X866Y1915D01*
X868Y1915D01*
X868Y1911D01*
X888Y1911D01*
X888Y1915D01*
X890Y1915D01*
X890Y1919D01*
X892Y1919D01*
X892Y1921D01*
X894Y1921D01*
X894Y1923D01*
X896Y1923D01*
X896Y1927D01*
X898Y1927D01*
X898Y1929D01*
X902Y1929D01*
X902Y1931D01*
X904Y1931D01*
X904Y1933D01*
X906Y1933D01*
X906Y1935D01*
X910Y1935D01*
X910Y1957D01*
X908Y1957D01*
X908Y1959D01*
X904Y1959D01*
X904Y1961D01*
X902Y1961D01*
X902Y1963D01*
X898Y1963D01*
X898Y1965D01*
X896Y1965D01*
X896Y1969D01*
X894Y1969D01*
X894Y1971D01*
X892Y1971D01*
X892Y1973D01*
X890Y1973D01*
X890Y1977D01*
X888Y1977D01*
X888Y1981D01*
X868Y1981D01*
G37*
D02*
G36*
X40Y1929D02*
X40Y1855D01*
X60Y1855D01*
X60Y1861D01*
X62Y1861D01*
X62Y1865D01*
X64Y1865D01*
X64Y1867D01*
X66Y1867D01*
X66Y1869D01*
X68Y1869D01*
X68Y1873D01*
X72Y1873D01*
X72Y1875D01*
X74Y1875D01*
X74Y1877D01*
X76Y1877D01*
X76Y1879D01*
X80Y1879D01*
X80Y1881D01*
X84Y1881D01*
X84Y1901D01*
X82Y1901D01*
X82Y1903D01*
X78Y1903D01*
X78Y1905D01*
X76Y1905D01*
X76Y1907D01*
X72Y1907D01*
X72Y1909D01*
X70Y1909D01*
X70Y1911D01*
X68Y1911D01*
X68Y1913D01*
X66Y1913D01*
X66Y1917D01*
X64Y1917D01*
X64Y1919D01*
X62Y1919D01*
X62Y1923D01*
X60Y1923D01*
X60Y1929D01*
X40Y1929D01*
G37*
D02*
G36*
X140Y1927D02*
X140Y1923D01*
X138Y1923D01*
X138Y1919D01*
X136Y1919D01*
X136Y1917D01*
X134Y1917D01*
X134Y1913D01*
X132Y1913D01*
X132Y1911D01*
X130Y1911D01*
X130Y1909D01*
X128Y1909D01*
X128Y1907D01*
X124Y1907D01*
X124Y1905D01*
X122Y1905D01*
X122Y1903D01*
X118Y1903D01*
X118Y1901D01*
X116Y1901D01*
X116Y1881D01*
X120Y1881D01*
X120Y1879D01*
X124Y1879D01*
X124Y1877D01*
X126Y1877D01*
X126Y1875D01*
X128Y1875D01*
X128Y1873D01*
X132Y1873D01*
X132Y1869D01*
X134Y1869D01*
X134Y1867D01*
X136Y1867D01*
X136Y1865D01*
X138Y1865D01*
X138Y1861D01*
X140Y1861D01*
X140Y1855D01*
X160Y1855D01*
X160Y1861D01*
X162Y1861D01*
X162Y1865D01*
X164Y1865D01*
X164Y1867D01*
X166Y1867D01*
X166Y1869D01*
X168Y1869D01*
X168Y1873D01*
X172Y1873D01*
X172Y1875D01*
X174Y1875D01*
X174Y1877D01*
X176Y1877D01*
X176Y1879D01*
X180Y1879D01*
X180Y1881D01*
X184Y1881D01*
X184Y1901D01*
X182Y1901D01*
X182Y1903D01*
X178Y1903D01*
X178Y1905D01*
X176Y1905D01*
X176Y1907D01*
X172Y1907D01*
X172Y1909D01*
X170Y1909D01*
X170Y1911D01*
X168Y1911D01*
X168Y1913D01*
X166Y1913D01*
X166Y1917D01*
X164Y1917D01*
X164Y1919D01*
X162Y1919D01*
X162Y1923D01*
X160Y1923D01*
X160Y1927D01*
X140Y1927D01*
G37*
D02*
G36*
X868Y1881D02*
X868Y1877D01*
X866Y1877D01*
X866Y1873D01*
X864Y1873D01*
X864Y1871D01*
X862Y1871D01*
X862Y1869D01*
X860Y1869D01*
X860Y1865D01*
X856Y1865D01*
X856Y1863D01*
X854Y1863D01*
X854Y1861D01*
X852Y1861D01*
X852Y1859D01*
X848Y1859D01*
X848Y1857D01*
X844Y1857D01*
X844Y1837D01*
X846Y1837D01*
X846Y1835D01*
X850Y1835D01*
X850Y1833D01*
X854Y1833D01*
X854Y1831D01*
X856Y1831D01*
X856Y1829D01*
X858Y1829D01*
X858Y1827D01*
X860Y1827D01*
X860Y1825D01*
X862Y1825D01*
X862Y1823D01*
X864Y1823D01*
X864Y1819D01*
X866Y1819D01*
X866Y1815D01*
X868Y1815D01*
X868Y1811D01*
X888Y1811D01*
X888Y1815D01*
X890Y1815D01*
X890Y1819D01*
X892Y1819D01*
X892Y1821D01*
X894Y1821D01*
X894Y1823D01*
X896Y1823D01*
X896Y1827D01*
X898Y1827D01*
X898Y1829D01*
X902Y1829D01*
X902Y1831D01*
X904Y1831D01*
X904Y1833D01*
X906Y1833D01*
X906Y1835D01*
X910Y1835D01*
X910Y1837D01*
X912Y1837D01*
X912Y1857D01*
X908Y1857D01*
X908Y1859D01*
X904Y1859D01*
X904Y1861D01*
X902Y1861D01*
X902Y1863D01*
X900Y1863D01*
X900Y1865D01*
X898Y1865D01*
X898Y1867D01*
X896Y1867D01*
X896Y1869D01*
X894Y1869D01*
X894Y1871D01*
X892Y1871D01*
X892Y1875D01*
X890Y1875D01*
X890Y1879D01*
X888Y1879D01*
X888Y1881D01*
X868Y1881D01*
G37*
D02*
G36*
X40Y1829D02*
X40Y1755D01*
X60Y1755D01*
X60Y1761D01*
X62Y1761D01*
X62Y1765D01*
X64Y1765D01*
X64Y1767D01*
X66Y1767D01*
X66Y1769D01*
X68Y1769D01*
X68Y1773D01*
X72Y1773D01*
X72Y1775D01*
X74Y1775D01*
X74Y1777D01*
X76Y1777D01*
X76Y1779D01*
X80Y1779D01*
X80Y1781D01*
X84Y1781D01*
X84Y1801D01*
X82Y1801D01*
X82Y1803D01*
X78Y1803D01*
X78Y1805D01*
X76Y1805D01*
X76Y1807D01*
X72Y1807D01*
X72Y1809D01*
X70Y1809D01*
X70Y1811D01*
X68Y1811D01*
X68Y1813D01*
X66Y1813D01*
X66Y1817D01*
X64Y1817D01*
X64Y1819D01*
X62Y1819D01*
X62Y1823D01*
X60Y1823D01*
X60Y1829D01*
X40Y1829D01*
G37*
D02*
G36*
X140Y1827D02*
X140Y1823D01*
X138Y1823D01*
X138Y1819D01*
X136Y1819D01*
X136Y1817D01*
X134Y1817D01*
X134Y1813D01*
X132Y1813D01*
X132Y1811D01*
X130Y1811D01*
X130Y1809D01*
X128Y1809D01*
X128Y1807D01*
X124Y1807D01*
X124Y1805D01*
X122Y1805D01*
X122Y1803D01*
X118Y1803D01*
X118Y1801D01*
X116Y1801D01*
X116Y1781D01*
X120Y1781D01*
X120Y1779D01*
X124Y1779D01*
X124Y1777D01*
X126Y1777D01*
X126Y1775D01*
X128Y1775D01*
X128Y1773D01*
X132Y1773D01*
X132Y1769D01*
X134Y1769D01*
X134Y1767D01*
X136Y1767D01*
X136Y1765D01*
X138Y1765D01*
X138Y1761D01*
X140Y1761D01*
X140Y1755D01*
X160Y1755D01*
X160Y1761D01*
X162Y1761D01*
X162Y1765D01*
X164Y1765D01*
X164Y1767D01*
X166Y1767D01*
X166Y1769D01*
X168Y1769D01*
X168Y1773D01*
X172Y1773D01*
X172Y1775D01*
X174Y1775D01*
X174Y1777D01*
X176Y1777D01*
X176Y1779D01*
X180Y1779D01*
X180Y1781D01*
X184Y1781D01*
X184Y1801D01*
X182Y1801D01*
X182Y1803D01*
X178Y1803D01*
X178Y1805D01*
X176Y1805D01*
X176Y1807D01*
X172Y1807D01*
X172Y1809D01*
X170Y1809D01*
X170Y1811D01*
X168Y1811D01*
X168Y1813D01*
X166Y1813D01*
X166Y1817D01*
X164Y1817D01*
X164Y1819D01*
X162Y1819D01*
X162Y1823D01*
X160Y1823D01*
X160Y1827D01*
X140Y1827D01*
G37*
D02*
G36*
X868Y1781D02*
X868Y1777D01*
X866Y1777D01*
X866Y1773D01*
X864Y1773D01*
X864Y1771D01*
X862Y1771D01*
X862Y1769D01*
X860Y1769D01*
X860Y1765D01*
X856Y1765D01*
X856Y1763D01*
X854Y1763D01*
X854Y1761D01*
X852Y1761D01*
X852Y1759D01*
X848Y1759D01*
X848Y1757D01*
X844Y1757D01*
X844Y1737D01*
X846Y1737D01*
X846Y1735D01*
X850Y1735D01*
X850Y1733D01*
X854Y1733D01*
X854Y1731D01*
X856Y1731D01*
X856Y1729D01*
X858Y1729D01*
X858Y1727D01*
X860Y1727D01*
X860Y1725D01*
X862Y1725D01*
X862Y1723D01*
X864Y1723D01*
X864Y1719D01*
X866Y1719D01*
X866Y1715D01*
X868Y1715D01*
X868Y1711D01*
X888Y1711D01*
X888Y1715D01*
X890Y1715D01*
X890Y1719D01*
X892Y1719D01*
X892Y1721D01*
X894Y1721D01*
X894Y1723D01*
X896Y1723D01*
X896Y1727D01*
X898Y1727D01*
X898Y1729D01*
X902Y1729D01*
X902Y1731D01*
X904Y1731D01*
X904Y1733D01*
X906Y1733D01*
X906Y1735D01*
X910Y1735D01*
X910Y1737D01*
X912Y1737D01*
X912Y1757D01*
X908Y1757D01*
X908Y1759D01*
X904Y1759D01*
X904Y1761D01*
X902Y1761D01*
X902Y1763D01*
X900Y1763D01*
X900Y1765D01*
X898Y1765D01*
X898Y1767D01*
X896Y1767D01*
X896Y1769D01*
X894Y1769D01*
X894Y1771D01*
X892Y1771D01*
X892Y1775D01*
X890Y1775D01*
X890Y1779D01*
X888Y1779D01*
X888Y1781D01*
X868Y1781D01*
G37*
D02*
G36*
X40Y1729D02*
X40Y1655D01*
X60Y1655D01*
X60Y1661D01*
X62Y1661D01*
X62Y1665D01*
X64Y1665D01*
X64Y1667D01*
X66Y1667D01*
X66Y1669D01*
X68Y1669D01*
X68Y1673D01*
X72Y1673D01*
X72Y1675D01*
X74Y1675D01*
X74Y1677D01*
X76Y1677D01*
X76Y1679D01*
X80Y1679D01*
X80Y1681D01*
X84Y1681D01*
X84Y1701D01*
X82Y1701D01*
X82Y1703D01*
X78Y1703D01*
X78Y1705D01*
X76Y1705D01*
X76Y1707D01*
X72Y1707D01*
X72Y1709D01*
X70Y1709D01*
X70Y1711D01*
X68Y1711D01*
X68Y1713D01*
X66Y1713D01*
X66Y1717D01*
X64Y1717D01*
X64Y1719D01*
X62Y1719D01*
X62Y1723D01*
X60Y1723D01*
X60Y1729D01*
X40Y1729D01*
G37*
D02*
G36*
X140Y1727D02*
X140Y1723D01*
X138Y1723D01*
X138Y1719D01*
X136Y1719D01*
X136Y1717D01*
X134Y1717D01*
X134Y1713D01*
X132Y1713D01*
X132Y1711D01*
X130Y1711D01*
X130Y1709D01*
X128Y1709D01*
X128Y1707D01*
X124Y1707D01*
X124Y1705D01*
X122Y1705D01*
X122Y1703D01*
X118Y1703D01*
X118Y1701D01*
X116Y1701D01*
X116Y1681D01*
X120Y1681D01*
X120Y1679D01*
X124Y1679D01*
X124Y1677D01*
X126Y1677D01*
X126Y1675D01*
X128Y1675D01*
X128Y1673D01*
X132Y1673D01*
X132Y1669D01*
X134Y1669D01*
X134Y1667D01*
X136Y1667D01*
X136Y1665D01*
X138Y1665D01*
X138Y1661D01*
X140Y1661D01*
X140Y1655D01*
X160Y1655D01*
X160Y1661D01*
X162Y1661D01*
X162Y1665D01*
X164Y1665D01*
X164Y1667D01*
X166Y1667D01*
X166Y1669D01*
X168Y1669D01*
X168Y1673D01*
X172Y1673D01*
X172Y1675D01*
X174Y1675D01*
X174Y1677D01*
X176Y1677D01*
X176Y1679D01*
X180Y1679D01*
X180Y1681D01*
X184Y1681D01*
X184Y1701D01*
X182Y1701D01*
X182Y1703D01*
X178Y1703D01*
X178Y1705D01*
X176Y1705D01*
X176Y1707D01*
X172Y1707D01*
X172Y1709D01*
X170Y1709D01*
X170Y1711D01*
X168Y1711D01*
X168Y1713D01*
X166Y1713D01*
X166Y1717D01*
X164Y1717D01*
X164Y1719D01*
X162Y1719D01*
X162Y1723D01*
X160Y1723D01*
X160Y1727D01*
X140Y1727D01*
G37*
D02*
G36*
X40Y1629D02*
X40Y1555D01*
X60Y1555D01*
X60Y1561D01*
X62Y1561D01*
X62Y1565D01*
X64Y1565D01*
X64Y1567D01*
X66Y1567D01*
X66Y1569D01*
X68Y1569D01*
X68Y1573D01*
X72Y1573D01*
X72Y1575D01*
X74Y1575D01*
X74Y1577D01*
X76Y1577D01*
X76Y1579D01*
X80Y1579D01*
X80Y1581D01*
X84Y1581D01*
X84Y1601D01*
X82Y1601D01*
X82Y1603D01*
X78Y1603D01*
X78Y1605D01*
X76Y1605D01*
X76Y1607D01*
X72Y1607D01*
X72Y1609D01*
X70Y1609D01*
X70Y1611D01*
X68Y1611D01*
X68Y1613D01*
X66Y1613D01*
X66Y1617D01*
X64Y1617D01*
X64Y1619D01*
X62Y1619D01*
X62Y1623D01*
X60Y1623D01*
X60Y1629D01*
X40Y1629D01*
G37*
D02*
G36*
X140Y1627D02*
X140Y1623D01*
X138Y1623D01*
X138Y1619D01*
X136Y1619D01*
X136Y1617D01*
X134Y1617D01*
X134Y1613D01*
X132Y1613D01*
X132Y1611D01*
X130Y1611D01*
X130Y1609D01*
X128Y1609D01*
X128Y1607D01*
X124Y1607D01*
X124Y1605D01*
X122Y1605D01*
X122Y1603D01*
X118Y1603D01*
X118Y1601D01*
X116Y1601D01*
X116Y1581D01*
X120Y1581D01*
X120Y1579D01*
X124Y1579D01*
X124Y1577D01*
X126Y1577D01*
X126Y1575D01*
X128Y1575D01*
X128Y1573D01*
X132Y1573D01*
X132Y1569D01*
X134Y1569D01*
X134Y1567D01*
X136Y1567D01*
X136Y1565D01*
X138Y1565D01*
X138Y1561D01*
X140Y1561D01*
X140Y1555D01*
X160Y1555D01*
X160Y1561D01*
X162Y1561D01*
X162Y1565D01*
X164Y1565D01*
X164Y1567D01*
X166Y1567D01*
X166Y1569D01*
X168Y1569D01*
X168Y1573D01*
X172Y1573D01*
X172Y1575D01*
X174Y1575D01*
X174Y1577D01*
X176Y1577D01*
X176Y1579D01*
X180Y1579D01*
X180Y1581D01*
X184Y1581D01*
X184Y1601D01*
X182Y1601D01*
X182Y1603D01*
X178Y1603D01*
X178Y1605D01*
X176Y1605D01*
X176Y1607D01*
X172Y1607D01*
X172Y1609D01*
X170Y1609D01*
X170Y1611D01*
X168Y1611D01*
X168Y1613D01*
X166Y1613D01*
X166Y1617D01*
X164Y1617D01*
X164Y1619D01*
X162Y1619D01*
X162Y1623D01*
X160Y1623D01*
X160Y1627D01*
X140Y1627D01*
G37*
D02*
G36*
X40Y1529D02*
X40Y1455D01*
X60Y1455D01*
X60Y1461D01*
X62Y1461D01*
X62Y1465D01*
X64Y1465D01*
X64Y1467D01*
X66Y1467D01*
X66Y1469D01*
X68Y1469D01*
X68Y1473D01*
X72Y1473D01*
X72Y1475D01*
X74Y1475D01*
X74Y1477D01*
X76Y1477D01*
X76Y1479D01*
X80Y1479D01*
X80Y1481D01*
X84Y1481D01*
X84Y1501D01*
X82Y1501D01*
X82Y1503D01*
X78Y1503D01*
X78Y1505D01*
X76Y1505D01*
X76Y1507D01*
X72Y1507D01*
X72Y1509D01*
X70Y1509D01*
X70Y1511D01*
X68Y1511D01*
X68Y1513D01*
X66Y1513D01*
X66Y1517D01*
X64Y1517D01*
X64Y1519D01*
X62Y1519D01*
X62Y1523D01*
X60Y1523D01*
X60Y1529D01*
X40Y1529D01*
G37*
D02*
G36*
X140Y1527D02*
X140Y1523D01*
X138Y1523D01*
X138Y1519D01*
X136Y1519D01*
X136Y1517D01*
X134Y1517D01*
X134Y1513D01*
X132Y1513D01*
X132Y1511D01*
X130Y1511D01*
X130Y1509D01*
X128Y1509D01*
X128Y1507D01*
X124Y1507D01*
X124Y1505D01*
X122Y1505D01*
X122Y1503D01*
X118Y1503D01*
X118Y1501D01*
X116Y1501D01*
X116Y1481D01*
X120Y1481D01*
X120Y1479D01*
X124Y1479D01*
X124Y1477D01*
X126Y1477D01*
X126Y1475D01*
X128Y1475D01*
X128Y1473D01*
X132Y1473D01*
X132Y1469D01*
X134Y1469D01*
X134Y1467D01*
X136Y1467D01*
X136Y1465D01*
X138Y1465D01*
X138Y1461D01*
X140Y1461D01*
X140Y1455D01*
X160Y1455D01*
X160Y1461D01*
X162Y1461D01*
X162Y1465D01*
X164Y1465D01*
X164Y1467D01*
X166Y1467D01*
X166Y1469D01*
X168Y1469D01*
X168Y1473D01*
X172Y1473D01*
X172Y1475D01*
X174Y1475D01*
X174Y1477D01*
X176Y1477D01*
X176Y1479D01*
X180Y1479D01*
X180Y1481D01*
X184Y1481D01*
X184Y1501D01*
X182Y1501D01*
X182Y1503D01*
X178Y1503D01*
X178Y1505D01*
X176Y1505D01*
X176Y1507D01*
X172Y1507D01*
X172Y1509D01*
X170Y1509D01*
X170Y1511D01*
X168Y1511D01*
X168Y1513D01*
X166Y1513D01*
X166Y1517D01*
X164Y1517D01*
X164Y1519D01*
X162Y1519D01*
X162Y1523D01*
X160Y1523D01*
X160Y1527D01*
X140Y1527D01*
G37*
D02*
G36*
X40Y1429D02*
X40Y1355D01*
X60Y1355D01*
X60Y1361D01*
X62Y1361D01*
X62Y1365D01*
X64Y1365D01*
X64Y1367D01*
X66Y1367D01*
X66Y1369D01*
X68Y1369D01*
X68Y1373D01*
X72Y1373D01*
X72Y1375D01*
X74Y1375D01*
X74Y1377D01*
X76Y1377D01*
X76Y1379D01*
X80Y1379D01*
X80Y1381D01*
X84Y1381D01*
X84Y1401D01*
X82Y1401D01*
X82Y1403D01*
X78Y1403D01*
X78Y1405D01*
X76Y1405D01*
X76Y1407D01*
X72Y1407D01*
X72Y1409D01*
X70Y1409D01*
X70Y1411D01*
X68Y1411D01*
X68Y1413D01*
X66Y1413D01*
X66Y1417D01*
X64Y1417D01*
X64Y1419D01*
X62Y1419D01*
X62Y1423D01*
X60Y1423D01*
X60Y1429D01*
X40Y1429D01*
G37*
D02*
G36*
X140Y1427D02*
X140Y1423D01*
X138Y1423D01*
X138Y1419D01*
X136Y1419D01*
X136Y1417D01*
X134Y1417D01*
X134Y1413D01*
X132Y1413D01*
X132Y1411D01*
X130Y1411D01*
X130Y1409D01*
X128Y1409D01*
X128Y1407D01*
X124Y1407D01*
X124Y1405D01*
X122Y1405D01*
X122Y1403D01*
X118Y1403D01*
X118Y1401D01*
X116Y1401D01*
X116Y1381D01*
X120Y1381D01*
X120Y1379D01*
X124Y1379D01*
X124Y1377D01*
X126Y1377D01*
X126Y1375D01*
X128Y1375D01*
X128Y1373D01*
X132Y1373D01*
X132Y1369D01*
X134Y1369D01*
X134Y1367D01*
X136Y1367D01*
X136Y1365D01*
X138Y1365D01*
X138Y1361D01*
X140Y1361D01*
X140Y1355D01*
X160Y1355D01*
X160Y1361D01*
X162Y1361D01*
X162Y1365D01*
X164Y1365D01*
X164Y1367D01*
X166Y1367D01*
X166Y1369D01*
X168Y1369D01*
X168Y1373D01*
X172Y1373D01*
X172Y1375D01*
X174Y1375D01*
X174Y1377D01*
X176Y1377D01*
X176Y1379D01*
X180Y1379D01*
X180Y1381D01*
X184Y1381D01*
X184Y1401D01*
X182Y1401D01*
X182Y1403D01*
X178Y1403D01*
X178Y1405D01*
X176Y1405D01*
X176Y1407D01*
X172Y1407D01*
X172Y1409D01*
X170Y1409D01*
X170Y1411D01*
X168Y1411D01*
X168Y1413D01*
X166Y1413D01*
X166Y1417D01*
X164Y1417D01*
X164Y1419D01*
X162Y1419D01*
X162Y1423D01*
X160Y1423D01*
X160Y1427D01*
X140Y1427D01*
G37*
D02*
G36*
X40Y1329D02*
X40Y1255D01*
X60Y1255D01*
X60Y1261D01*
X62Y1261D01*
X62Y1265D01*
X64Y1265D01*
X64Y1267D01*
X66Y1267D01*
X66Y1269D01*
X68Y1269D01*
X68Y1273D01*
X72Y1273D01*
X72Y1275D01*
X74Y1275D01*
X74Y1277D01*
X76Y1277D01*
X76Y1279D01*
X80Y1279D01*
X80Y1281D01*
X84Y1281D01*
X84Y1301D01*
X82Y1301D01*
X82Y1303D01*
X78Y1303D01*
X78Y1305D01*
X76Y1305D01*
X76Y1307D01*
X72Y1307D01*
X72Y1309D01*
X70Y1309D01*
X70Y1311D01*
X68Y1311D01*
X68Y1313D01*
X66Y1313D01*
X66Y1317D01*
X64Y1317D01*
X64Y1319D01*
X62Y1319D01*
X62Y1323D01*
X60Y1323D01*
X60Y1329D01*
X40Y1329D01*
G37*
D02*
G36*
X140Y1327D02*
X140Y1323D01*
X138Y1323D01*
X138Y1319D01*
X136Y1319D01*
X136Y1317D01*
X134Y1317D01*
X134Y1313D01*
X132Y1313D01*
X132Y1311D01*
X130Y1311D01*
X130Y1309D01*
X128Y1309D01*
X128Y1307D01*
X124Y1307D01*
X124Y1305D01*
X122Y1305D01*
X122Y1303D01*
X118Y1303D01*
X118Y1301D01*
X116Y1301D01*
X116Y1281D01*
X120Y1281D01*
X120Y1279D01*
X124Y1279D01*
X124Y1277D01*
X126Y1277D01*
X126Y1275D01*
X128Y1275D01*
X128Y1273D01*
X132Y1273D01*
X132Y1269D01*
X134Y1269D01*
X134Y1267D01*
X136Y1267D01*
X136Y1265D01*
X138Y1265D01*
X138Y1261D01*
X140Y1261D01*
X140Y1255D01*
X160Y1255D01*
X160Y1261D01*
X162Y1261D01*
X162Y1265D01*
X164Y1265D01*
X164Y1267D01*
X166Y1267D01*
X166Y1269D01*
X168Y1269D01*
X168Y1273D01*
X172Y1273D01*
X172Y1275D01*
X174Y1275D01*
X174Y1277D01*
X176Y1277D01*
X176Y1279D01*
X180Y1279D01*
X180Y1281D01*
X184Y1281D01*
X184Y1301D01*
X182Y1301D01*
X182Y1303D01*
X178Y1303D01*
X178Y1305D01*
X176Y1305D01*
X176Y1307D01*
X172Y1307D01*
X172Y1309D01*
X170Y1309D01*
X170Y1311D01*
X168Y1311D01*
X168Y1313D01*
X166Y1313D01*
X166Y1317D01*
X164Y1317D01*
X164Y1319D01*
X162Y1319D01*
X162Y1323D01*
X160Y1323D01*
X160Y1327D01*
X140Y1327D01*
G37*
D02*
G36*
X834Y1311D02*
X834Y1293D01*
X840Y1293D01*
X840Y1291D01*
X844Y1291D01*
X844Y1289D01*
X848Y1289D01*
X848Y1287D01*
X850Y1287D01*
X850Y1285D01*
X854Y1285D01*
X854Y1283D01*
X856Y1283D01*
X856Y1281D01*
X858Y1281D01*
X858Y1277D01*
X860Y1277D01*
X860Y1275D01*
X862Y1275D01*
X862Y1271D01*
X864Y1271D01*
X864Y1267D01*
X866Y1267D01*
X866Y1259D01*
X868Y1259D01*
X868Y1243D01*
X866Y1243D01*
X866Y1237D01*
X864Y1237D01*
X864Y1231D01*
X862Y1231D01*
X862Y1229D01*
X860Y1229D01*
X860Y1225D01*
X858Y1225D01*
X858Y1223D01*
X856Y1223D01*
X856Y1221D01*
X854Y1221D01*
X854Y1219D01*
X852Y1219D01*
X852Y1217D01*
X850Y1217D01*
X850Y1215D01*
X846Y1215D01*
X846Y1213D01*
X842Y1213D01*
X842Y1211D01*
X840Y1211D01*
X840Y1191D01*
X844Y1191D01*
X844Y1189D01*
X848Y1189D01*
X848Y1187D01*
X850Y1187D01*
X850Y1185D01*
X854Y1185D01*
X854Y1183D01*
X856Y1183D01*
X856Y1181D01*
X858Y1181D01*
X858Y1177D01*
X860Y1177D01*
X860Y1175D01*
X862Y1175D01*
X862Y1171D01*
X864Y1171D01*
X864Y1167D01*
X866Y1167D01*
X866Y1159D01*
X868Y1159D01*
X868Y1143D01*
X866Y1143D01*
X866Y1137D01*
X864Y1137D01*
X864Y1131D01*
X862Y1131D01*
X862Y1129D01*
X860Y1129D01*
X860Y1125D01*
X858Y1125D01*
X858Y1123D01*
X856Y1123D01*
X856Y1121D01*
X854Y1121D01*
X854Y1119D01*
X852Y1119D01*
X852Y1117D01*
X850Y1117D01*
X850Y1115D01*
X846Y1115D01*
X846Y1113D01*
X842Y1113D01*
X842Y1111D01*
X840Y1111D01*
X840Y1091D01*
X844Y1091D01*
X844Y1089D01*
X848Y1089D01*
X848Y1087D01*
X850Y1087D01*
X850Y1085D01*
X854Y1085D01*
X854Y1083D01*
X856Y1083D01*
X856Y1081D01*
X858Y1081D01*
X858Y1077D01*
X860Y1077D01*
X860Y1075D01*
X862Y1075D01*
X862Y1071D01*
X864Y1071D01*
X864Y1067D01*
X866Y1067D01*
X866Y1059D01*
X868Y1059D01*
X868Y1043D01*
X866Y1043D01*
X866Y1037D01*
X864Y1037D01*
X864Y1031D01*
X862Y1031D01*
X862Y1029D01*
X860Y1029D01*
X860Y1025D01*
X858Y1025D01*
X858Y1023D01*
X856Y1023D01*
X856Y1021D01*
X854Y1021D01*
X854Y1019D01*
X852Y1019D01*
X852Y1017D01*
X850Y1017D01*
X850Y1015D01*
X846Y1015D01*
X846Y1013D01*
X842Y1013D01*
X842Y1011D01*
X840Y1011D01*
X840Y991D01*
X844Y991D01*
X844Y989D01*
X848Y989D01*
X848Y987D01*
X850Y987D01*
X850Y985D01*
X854Y985D01*
X854Y983D01*
X856Y983D01*
X856Y981D01*
X858Y981D01*
X858Y977D01*
X860Y977D01*
X860Y975D01*
X862Y975D01*
X862Y971D01*
X864Y971D01*
X864Y967D01*
X866Y967D01*
X866Y965D01*
X886Y965D01*
X886Y971D01*
X888Y971D01*
X888Y977D01*
X890Y977D01*
X890Y983D01*
X892Y983D01*
X892Y989D01*
X894Y989D01*
X894Y995D01*
X896Y995D01*
X896Y1161D01*
X894Y1161D01*
X894Y1289D01*
X892Y1289D01*
X892Y1291D01*
X890Y1291D01*
X890Y1293D01*
X888Y1293D01*
X888Y1295D01*
X886Y1295D01*
X886Y1299D01*
X884Y1299D01*
X884Y1301D01*
X882Y1301D01*
X882Y1303D01*
X880Y1303D01*
X880Y1305D01*
X878Y1305D01*
X878Y1307D01*
X876Y1307D01*
X876Y1309D01*
X874Y1309D01*
X874Y1311D01*
X834Y1311D01*
G37*
D02*
G36*
X40Y1229D02*
X40Y1155D01*
X60Y1155D01*
X60Y1161D01*
X62Y1161D01*
X62Y1165D01*
X64Y1165D01*
X64Y1167D01*
X66Y1167D01*
X66Y1169D01*
X68Y1169D01*
X68Y1173D01*
X72Y1173D01*
X72Y1175D01*
X74Y1175D01*
X74Y1177D01*
X76Y1177D01*
X76Y1179D01*
X80Y1179D01*
X80Y1181D01*
X84Y1181D01*
X84Y1201D01*
X82Y1201D01*
X82Y1203D01*
X78Y1203D01*
X78Y1205D01*
X76Y1205D01*
X76Y1207D01*
X72Y1207D01*
X72Y1209D01*
X70Y1209D01*
X70Y1211D01*
X68Y1211D01*
X68Y1213D01*
X66Y1213D01*
X66Y1217D01*
X64Y1217D01*
X64Y1219D01*
X62Y1219D01*
X62Y1223D01*
X60Y1223D01*
X60Y1229D01*
X40Y1229D01*
G37*
D02*
G36*
X140Y1227D02*
X140Y1223D01*
X138Y1223D01*
X138Y1219D01*
X136Y1219D01*
X136Y1217D01*
X134Y1217D01*
X134Y1213D01*
X132Y1213D01*
X132Y1211D01*
X130Y1211D01*
X130Y1209D01*
X128Y1209D01*
X128Y1207D01*
X124Y1207D01*
X124Y1205D01*
X122Y1205D01*
X122Y1203D01*
X118Y1203D01*
X118Y1201D01*
X116Y1201D01*
X116Y1181D01*
X120Y1181D01*
X120Y1179D01*
X124Y1179D01*
X124Y1177D01*
X126Y1177D01*
X126Y1175D01*
X128Y1175D01*
X128Y1173D01*
X132Y1173D01*
X132Y1169D01*
X134Y1169D01*
X134Y1167D01*
X136Y1167D01*
X136Y1165D01*
X138Y1165D01*
X138Y1161D01*
X140Y1161D01*
X140Y1155D01*
X160Y1155D01*
X160Y1161D01*
X162Y1161D01*
X162Y1165D01*
X164Y1165D01*
X164Y1167D01*
X166Y1167D01*
X166Y1169D01*
X168Y1169D01*
X168Y1173D01*
X172Y1173D01*
X172Y1175D01*
X174Y1175D01*
X174Y1177D01*
X176Y1177D01*
X176Y1179D01*
X180Y1179D01*
X180Y1181D01*
X184Y1181D01*
X184Y1201D01*
X182Y1201D01*
X182Y1203D01*
X178Y1203D01*
X178Y1205D01*
X176Y1205D01*
X176Y1207D01*
X172Y1207D01*
X172Y1209D01*
X170Y1209D01*
X170Y1211D01*
X168Y1211D01*
X168Y1213D01*
X166Y1213D01*
X166Y1217D01*
X164Y1217D01*
X164Y1219D01*
X162Y1219D01*
X162Y1223D01*
X160Y1223D01*
X160Y1227D01*
X140Y1227D01*
G37*
D02*
G36*
X362Y1143D02*
X362Y1065D01*
X382Y1065D01*
X382Y1071D01*
X384Y1071D01*
X384Y1075D01*
X386Y1075D01*
X386Y1077D01*
X388Y1077D01*
X388Y1081D01*
X390Y1081D01*
X390Y1083D01*
X392Y1083D01*
X392Y1085D01*
X394Y1085D01*
X394Y1087D01*
X398Y1087D01*
X398Y1089D01*
X400Y1089D01*
X400Y1091D01*
X404Y1091D01*
X404Y1093D01*
X408Y1093D01*
X408Y1113D01*
X404Y1113D01*
X404Y1115D01*
X400Y1115D01*
X400Y1117D01*
X398Y1117D01*
X398Y1119D01*
X396Y1119D01*
X396Y1121D01*
X392Y1121D01*
X392Y1123D01*
X390Y1123D01*
X390Y1127D01*
X388Y1127D01*
X388Y1129D01*
X386Y1129D01*
X386Y1133D01*
X384Y1133D01*
X384Y1135D01*
X382Y1135D01*
X382Y1143D01*
X362Y1143D01*
G37*
D02*
G36*
X40Y1129D02*
X40Y1055D01*
X60Y1055D01*
X60Y1061D01*
X62Y1061D01*
X62Y1065D01*
X64Y1065D01*
X64Y1067D01*
X66Y1067D01*
X66Y1069D01*
X68Y1069D01*
X68Y1073D01*
X72Y1073D01*
X72Y1075D01*
X74Y1075D01*
X74Y1077D01*
X76Y1077D01*
X76Y1079D01*
X80Y1079D01*
X80Y1081D01*
X84Y1081D01*
X84Y1101D01*
X82Y1101D01*
X82Y1103D01*
X78Y1103D01*
X78Y1105D01*
X76Y1105D01*
X76Y1107D01*
X72Y1107D01*
X72Y1109D01*
X70Y1109D01*
X70Y1111D01*
X68Y1111D01*
X68Y1113D01*
X66Y1113D01*
X66Y1117D01*
X64Y1117D01*
X64Y1119D01*
X62Y1119D01*
X62Y1123D01*
X60Y1123D01*
X60Y1129D01*
X40Y1129D01*
G37*
D02*
G36*
X140Y1127D02*
X140Y1123D01*
X138Y1123D01*
X138Y1119D01*
X136Y1119D01*
X136Y1117D01*
X134Y1117D01*
X134Y1113D01*
X132Y1113D01*
X132Y1111D01*
X130Y1111D01*
X130Y1109D01*
X128Y1109D01*
X128Y1107D01*
X124Y1107D01*
X124Y1105D01*
X122Y1105D01*
X122Y1103D01*
X118Y1103D01*
X118Y1101D01*
X116Y1101D01*
X116Y1081D01*
X120Y1081D01*
X120Y1079D01*
X124Y1079D01*
X124Y1077D01*
X126Y1077D01*
X126Y1075D01*
X128Y1075D01*
X128Y1073D01*
X132Y1073D01*
X132Y1069D01*
X134Y1069D01*
X134Y1067D01*
X136Y1067D01*
X136Y1065D01*
X138Y1065D01*
X138Y1061D01*
X140Y1061D01*
X140Y1055D01*
X160Y1055D01*
X160Y1061D01*
X162Y1061D01*
X162Y1065D01*
X164Y1065D01*
X164Y1067D01*
X166Y1067D01*
X166Y1069D01*
X168Y1069D01*
X168Y1073D01*
X172Y1073D01*
X172Y1075D01*
X174Y1075D01*
X174Y1077D01*
X176Y1077D01*
X176Y1079D01*
X180Y1079D01*
X180Y1081D01*
X184Y1081D01*
X184Y1101D01*
X182Y1101D01*
X182Y1103D01*
X178Y1103D01*
X178Y1105D01*
X176Y1105D01*
X176Y1107D01*
X172Y1107D01*
X172Y1109D01*
X170Y1109D01*
X170Y1111D01*
X168Y1111D01*
X168Y1113D01*
X166Y1113D01*
X166Y1117D01*
X164Y1117D01*
X164Y1119D01*
X162Y1119D01*
X162Y1123D01*
X160Y1123D01*
X160Y1127D01*
X140Y1127D01*
G37*
D02*
G36*
X362Y1043D02*
X362Y965D01*
X382Y965D01*
X382Y971D01*
X384Y971D01*
X384Y975D01*
X386Y975D01*
X386Y977D01*
X388Y977D01*
X388Y981D01*
X390Y981D01*
X390Y983D01*
X392Y983D01*
X392Y985D01*
X394Y985D01*
X394Y987D01*
X398Y987D01*
X398Y989D01*
X400Y989D01*
X400Y991D01*
X404Y991D01*
X404Y993D01*
X408Y993D01*
X408Y1013D01*
X404Y1013D01*
X404Y1015D01*
X400Y1015D01*
X400Y1017D01*
X398Y1017D01*
X398Y1019D01*
X396Y1019D01*
X396Y1021D01*
X392Y1021D01*
X392Y1023D01*
X390Y1023D01*
X390Y1027D01*
X388Y1027D01*
X388Y1029D01*
X386Y1029D01*
X386Y1033D01*
X384Y1033D01*
X384Y1035D01*
X382Y1035D01*
X382Y1043D01*
X362Y1043D01*
G37*
D02*
G36*
X40Y1029D02*
X40Y955D01*
X60Y955D01*
X60Y961D01*
X62Y961D01*
X62Y965D01*
X64Y965D01*
X64Y967D01*
X66Y967D01*
X66Y969D01*
X68Y969D01*
X68Y973D01*
X72Y973D01*
X72Y975D01*
X74Y975D01*
X74Y977D01*
X76Y977D01*
X76Y979D01*
X80Y979D01*
X80Y981D01*
X84Y981D01*
X84Y1001D01*
X82Y1001D01*
X82Y1003D01*
X78Y1003D01*
X78Y1005D01*
X76Y1005D01*
X76Y1007D01*
X72Y1007D01*
X72Y1009D01*
X70Y1009D01*
X70Y1011D01*
X68Y1011D01*
X68Y1013D01*
X66Y1013D01*
X66Y1017D01*
X64Y1017D01*
X64Y1019D01*
X62Y1019D01*
X62Y1023D01*
X60Y1023D01*
X60Y1029D01*
X40Y1029D01*
G37*
D02*
G36*
X140Y1027D02*
X140Y1023D01*
X138Y1023D01*
X138Y1019D01*
X136Y1019D01*
X136Y1017D01*
X134Y1017D01*
X134Y1013D01*
X132Y1013D01*
X132Y1011D01*
X130Y1011D01*
X130Y1009D01*
X128Y1009D01*
X128Y1007D01*
X124Y1007D01*
X124Y1005D01*
X122Y1005D01*
X122Y1003D01*
X118Y1003D01*
X118Y1001D01*
X116Y1001D01*
X116Y981D01*
X120Y981D01*
X120Y979D01*
X124Y979D01*
X124Y977D01*
X126Y977D01*
X126Y975D01*
X128Y975D01*
X128Y973D01*
X132Y973D01*
X132Y969D01*
X134Y969D01*
X134Y967D01*
X136Y967D01*
X136Y965D01*
X138Y965D01*
X138Y961D01*
X140Y961D01*
X140Y955D01*
X160Y955D01*
X160Y961D01*
X162Y961D01*
X162Y965D01*
X164Y965D01*
X164Y967D01*
X166Y967D01*
X166Y969D01*
X168Y969D01*
X168Y973D01*
X172Y973D01*
X172Y975D01*
X174Y975D01*
X174Y977D01*
X176Y977D01*
X176Y979D01*
X180Y979D01*
X180Y981D01*
X184Y981D01*
X184Y1001D01*
X182Y1001D01*
X182Y1003D01*
X178Y1003D01*
X178Y1005D01*
X176Y1005D01*
X176Y1007D01*
X172Y1007D01*
X172Y1009D01*
X170Y1009D01*
X170Y1011D01*
X168Y1011D01*
X168Y1013D01*
X166Y1013D01*
X166Y1017D01*
X164Y1017D01*
X164Y1019D01*
X162Y1019D01*
X162Y1023D01*
X160Y1023D01*
X160Y1027D01*
X140Y1027D01*
G37*
D02*
G36*
X362Y943D02*
X362Y865D01*
X382Y865D01*
X382Y871D01*
X384Y871D01*
X384Y875D01*
X386Y875D01*
X386Y877D01*
X388Y877D01*
X388Y881D01*
X390Y881D01*
X390Y883D01*
X392Y883D01*
X392Y885D01*
X394Y885D01*
X394Y887D01*
X398Y887D01*
X398Y889D01*
X400Y889D01*
X400Y891D01*
X404Y891D01*
X404Y893D01*
X408Y893D01*
X408Y913D01*
X404Y913D01*
X404Y915D01*
X400Y915D01*
X400Y917D01*
X398Y917D01*
X398Y919D01*
X396Y919D01*
X396Y921D01*
X392Y921D01*
X392Y923D01*
X390Y923D01*
X390Y927D01*
X388Y927D01*
X388Y929D01*
X386Y929D01*
X386Y933D01*
X384Y933D01*
X384Y935D01*
X382Y935D01*
X382Y943D01*
X362Y943D01*
G37*
D02*
G36*
X40Y929D02*
X40Y855D01*
X60Y855D01*
X60Y861D01*
X62Y861D01*
X62Y865D01*
X64Y865D01*
X64Y867D01*
X66Y867D01*
X66Y869D01*
X68Y869D01*
X68Y873D01*
X72Y873D01*
X72Y875D01*
X74Y875D01*
X74Y877D01*
X76Y877D01*
X76Y879D01*
X80Y879D01*
X80Y881D01*
X84Y881D01*
X84Y901D01*
X82Y901D01*
X82Y903D01*
X78Y903D01*
X78Y905D01*
X76Y905D01*
X76Y907D01*
X72Y907D01*
X72Y909D01*
X70Y909D01*
X70Y911D01*
X68Y911D01*
X68Y913D01*
X66Y913D01*
X66Y917D01*
X64Y917D01*
X64Y919D01*
X62Y919D01*
X62Y923D01*
X60Y923D01*
X60Y929D01*
X40Y929D01*
G37*
D02*
G36*
X140Y927D02*
X140Y923D01*
X138Y923D01*
X138Y919D01*
X136Y919D01*
X136Y917D01*
X134Y917D01*
X134Y913D01*
X132Y913D01*
X132Y911D01*
X130Y911D01*
X130Y909D01*
X128Y909D01*
X128Y907D01*
X124Y907D01*
X124Y905D01*
X122Y905D01*
X122Y903D01*
X118Y903D01*
X118Y901D01*
X116Y901D01*
X116Y881D01*
X120Y881D01*
X120Y879D01*
X124Y879D01*
X124Y877D01*
X126Y877D01*
X126Y875D01*
X128Y875D01*
X128Y873D01*
X132Y873D01*
X132Y869D01*
X134Y869D01*
X134Y867D01*
X136Y867D01*
X136Y865D01*
X138Y865D01*
X138Y861D01*
X140Y861D01*
X140Y855D01*
X160Y855D01*
X160Y861D01*
X162Y861D01*
X162Y865D01*
X164Y865D01*
X164Y867D01*
X166Y867D01*
X166Y869D01*
X168Y869D01*
X168Y873D01*
X172Y873D01*
X172Y875D01*
X174Y875D01*
X174Y877D01*
X176Y877D01*
X176Y879D01*
X180Y879D01*
X180Y881D01*
X184Y881D01*
X184Y901D01*
X182Y901D01*
X182Y903D01*
X178Y903D01*
X178Y905D01*
X176Y905D01*
X176Y907D01*
X172Y907D01*
X172Y909D01*
X170Y909D01*
X170Y911D01*
X168Y911D01*
X168Y913D01*
X166Y913D01*
X166Y917D01*
X164Y917D01*
X164Y919D01*
X162Y919D01*
X162Y923D01*
X160Y923D01*
X160Y927D01*
X140Y927D01*
G37*
D02*
G36*
X362Y843D02*
X362Y765D01*
X382Y765D01*
X382Y771D01*
X384Y771D01*
X384Y775D01*
X386Y775D01*
X386Y777D01*
X388Y777D01*
X388Y781D01*
X390Y781D01*
X390Y783D01*
X392Y783D01*
X392Y785D01*
X394Y785D01*
X394Y787D01*
X398Y787D01*
X398Y789D01*
X400Y789D01*
X400Y791D01*
X404Y791D01*
X404Y793D01*
X408Y793D01*
X408Y813D01*
X404Y813D01*
X404Y815D01*
X400Y815D01*
X400Y817D01*
X398Y817D01*
X398Y819D01*
X396Y819D01*
X396Y821D01*
X392Y821D01*
X392Y823D01*
X390Y823D01*
X390Y827D01*
X388Y827D01*
X388Y829D01*
X386Y829D01*
X386Y833D01*
X384Y833D01*
X384Y835D01*
X382Y835D01*
X382Y843D01*
X362Y843D01*
G37*
D02*
G36*
X40Y829D02*
X40Y757D01*
X60Y757D01*
X60Y761D01*
X62Y761D01*
X62Y765D01*
X64Y765D01*
X64Y767D01*
X66Y767D01*
X66Y769D01*
X68Y769D01*
X68Y773D01*
X72Y773D01*
X72Y775D01*
X74Y775D01*
X74Y777D01*
X76Y777D01*
X76Y779D01*
X80Y779D01*
X80Y781D01*
X84Y781D01*
X84Y801D01*
X82Y801D01*
X82Y803D01*
X78Y803D01*
X78Y805D01*
X76Y805D01*
X76Y807D01*
X72Y807D01*
X72Y809D01*
X70Y809D01*
X70Y811D01*
X68Y811D01*
X68Y813D01*
X66Y813D01*
X66Y817D01*
X64Y817D01*
X64Y819D01*
X62Y819D01*
X62Y823D01*
X60Y823D01*
X60Y829D01*
X40Y829D01*
G37*
D02*
G36*
X140Y827D02*
X140Y823D01*
X138Y823D01*
X138Y819D01*
X136Y819D01*
X136Y817D01*
X134Y817D01*
X134Y813D01*
X132Y813D01*
X132Y811D01*
X130Y811D01*
X130Y809D01*
X128Y809D01*
X128Y807D01*
X124Y807D01*
X124Y805D01*
X122Y805D01*
X122Y803D01*
X118Y803D01*
X118Y801D01*
X116Y801D01*
X116Y781D01*
X120Y781D01*
X120Y779D01*
X124Y779D01*
X124Y777D01*
X126Y777D01*
X126Y775D01*
X128Y775D01*
X128Y773D01*
X132Y773D01*
X132Y769D01*
X134Y769D01*
X134Y767D01*
X136Y767D01*
X136Y765D01*
X138Y765D01*
X138Y761D01*
X140Y761D01*
X140Y755D01*
X160Y755D01*
X160Y761D01*
X162Y761D01*
X162Y765D01*
X164Y765D01*
X164Y767D01*
X166Y767D01*
X166Y769D01*
X168Y769D01*
X168Y773D01*
X172Y773D01*
X172Y775D01*
X174Y775D01*
X174Y777D01*
X176Y777D01*
X176Y779D01*
X180Y779D01*
X180Y781D01*
X184Y781D01*
X184Y801D01*
X182Y801D01*
X182Y803D01*
X178Y803D01*
X178Y805D01*
X176Y805D01*
X176Y807D01*
X172Y807D01*
X172Y809D01*
X170Y809D01*
X170Y811D01*
X168Y811D01*
X168Y813D01*
X166Y813D01*
X166Y817D01*
X164Y817D01*
X164Y819D01*
X162Y819D01*
X162Y823D01*
X160Y823D01*
X160Y827D01*
X140Y827D01*
G37*
D02*
G36*
X362Y743D02*
X362Y665D01*
X382Y665D01*
X382Y671D01*
X384Y671D01*
X384Y675D01*
X386Y675D01*
X386Y677D01*
X388Y677D01*
X388Y681D01*
X390Y681D01*
X390Y683D01*
X392Y683D01*
X392Y685D01*
X394Y685D01*
X394Y687D01*
X398Y687D01*
X398Y689D01*
X400Y689D01*
X400Y691D01*
X404Y691D01*
X404Y693D01*
X408Y693D01*
X408Y713D01*
X404Y713D01*
X404Y715D01*
X400Y715D01*
X400Y717D01*
X398Y717D01*
X398Y719D01*
X396Y719D01*
X396Y721D01*
X392Y721D01*
X392Y723D01*
X390Y723D01*
X390Y727D01*
X388Y727D01*
X388Y729D01*
X386Y729D01*
X386Y733D01*
X384Y733D01*
X384Y735D01*
X382Y735D01*
X382Y743D01*
X362Y743D01*
G37*
D02*
G36*
X40Y729D02*
X40Y655D01*
X60Y655D01*
X60Y661D01*
X62Y661D01*
X62Y665D01*
X64Y665D01*
X64Y667D01*
X66Y667D01*
X66Y669D01*
X68Y669D01*
X68Y673D01*
X72Y673D01*
X72Y675D01*
X74Y675D01*
X74Y677D01*
X76Y677D01*
X76Y679D01*
X80Y679D01*
X80Y681D01*
X84Y681D01*
X84Y701D01*
X82Y701D01*
X82Y703D01*
X78Y703D01*
X78Y705D01*
X76Y705D01*
X76Y707D01*
X72Y707D01*
X72Y709D01*
X70Y709D01*
X70Y711D01*
X68Y711D01*
X68Y713D01*
X66Y713D01*
X66Y717D01*
X64Y717D01*
X64Y719D01*
X62Y719D01*
X62Y723D01*
X60Y723D01*
X60Y729D01*
X40Y729D01*
G37*
D02*
G36*
X140Y727D02*
X140Y723D01*
X138Y723D01*
X138Y719D01*
X136Y719D01*
X136Y717D01*
X134Y717D01*
X134Y713D01*
X132Y713D01*
X132Y711D01*
X130Y711D01*
X130Y709D01*
X128Y709D01*
X128Y707D01*
X124Y707D01*
X124Y705D01*
X122Y705D01*
X122Y703D01*
X118Y703D01*
X118Y701D01*
X116Y701D01*
X116Y681D01*
X120Y681D01*
X120Y679D01*
X124Y679D01*
X124Y677D01*
X126Y677D01*
X126Y675D01*
X128Y675D01*
X128Y673D01*
X132Y673D01*
X132Y669D01*
X134Y669D01*
X134Y667D01*
X136Y667D01*
X136Y665D01*
X138Y665D01*
X138Y661D01*
X140Y661D01*
X140Y655D01*
X160Y655D01*
X160Y661D01*
X162Y661D01*
X162Y665D01*
X164Y665D01*
X164Y667D01*
X166Y667D01*
X166Y669D01*
X168Y669D01*
X168Y673D01*
X172Y673D01*
X172Y675D01*
X174Y675D01*
X174Y677D01*
X176Y677D01*
X176Y679D01*
X180Y679D01*
X180Y681D01*
X184Y681D01*
X184Y701D01*
X182Y701D01*
X182Y703D01*
X178Y703D01*
X178Y705D01*
X176Y705D01*
X176Y707D01*
X172Y707D01*
X172Y709D01*
X170Y709D01*
X170Y711D01*
X168Y711D01*
X168Y713D01*
X166Y713D01*
X166Y717D01*
X164Y717D01*
X164Y719D01*
X162Y719D01*
X162Y723D01*
X160Y723D01*
X160Y727D01*
X140Y727D01*
G37*
D02*
G36*
X498Y1031D02*
X498Y1009D01*
X500Y1009D01*
X500Y997D01*
X498Y997D01*
X498Y991D01*
X496Y991D01*
X496Y761D01*
X494Y761D01*
X494Y759D01*
X492Y759D01*
X492Y755D01*
X490Y755D01*
X490Y753D01*
X488Y753D01*
X488Y751D01*
X486Y751D01*
X486Y749D01*
X484Y749D01*
X484Y747D01*
X482Y747D01*
X482Y745D01*
X480Y745D01*
X480Y743D01*
X478Y743D01*
X478Y741D01*
X474Y741D01*
X474Y739D01*
X464Y739D01*
X464Y737D01*
X462Y737D01*
X462Y733D01*
X460Y733D01*
X460Y729D01*
X458Y729D01*
X458Y727D01*
X456Y727D01*
X456Y725D01*
X454Y725D01*
X454Y721D01*
X450Y721D01*
X450Y719D01*
X448Y719D01*
X448Y717D01*
X446Y717D01*
X446Y715D01*
X442Y715D01*
X442Y713D01*
X438Y713D01*
X438Y693D01*
X442Y693D01*
X442Y691D01*
X446Y691D01*
X446Y689D01*
X448Y689D01*
X448Y687D01*
X450Y687D01*
X450Y685D01*
X454Y685D01*
X454Y683D01*
X456Y683D01*
X456Y679D01*
X458Y679D01*
X458Y677D01*
X460Y677D01*
X460Y673D01*
X462Y673D01*
X462Y669D01*
X464Y669D01*
X464Y663D01*
X466Y663D01*
X466Y643D01*
X464Y643D01*
X464Y637D01*
X462Y637D01*
X462Y633D01*
X460Y633D01*
X460Y629D01*
X458Y629D01*
X458Y627D01*
X456Y627D01*
X456Y625D01*
X454Y625D01*
X454Y621D01*
X450Y621D01*
X450Y619D01*
X448Y619D01*
X448Y617D01*
X446Y617D01*
X446Y615D01*
X442Y615D01*
X442Y613D01*
X438Y613D01*
X438Y593D01*
X442Y593D01*
X442Y591D01*
X446Y591D01*
X446Y589D01*
X448Y589D01*
X448Y587D01*
X450Y587D01*
X450Y585D01*
X454Y585D01*
X454Y583D01*
X456Y583D01*
X456Y579D01*
X458Y579D01*
X458Y577D01*
X460Y577D01*
X460Y573D01*
X462Y573D01*
X462Y569D01*
X464Y569D01*
X464Y563D01*
X466Y563D01*
X466Y543D01*
X464Y543D01*
X464Y537D01*
X462Y537D01*
X462Y533D01*
X460Y533D01*
X460Y529D01*
X458Y529D01*
X458Y527D01*
X456Y527D01*
X456Y525D01*
X454Y525D01*
X454Y521D01*
X450Y521D01*
X450Y519D01*
X448Y519D01*
X448Y517D01*
X446Y517D01*
X446Y515D01*
X442Y515D01*
X442Y513D01*
X438Y513D01*
X438Y493D01*
X442Y493D01*
X442Y491D01*
X446Y491D01*
X446Y489D01*
X448Y489D01*
X448Y487D01*
X450Y487D01*
X450Y485D01*
X454Y485D01*
X454Y483D01*
X456Y483D01*
X456Y479D01*
X458Y479D01*
X458Y477D01*
X460Y477D01*
X460Y473D01*
X462Y473D01*
X462Y469D01*
X464Y469D01*
X464Y463D01*
X466Y463D01*
X466Y443D01*
X464Y443D01*
X464Y437D01*
X462Y437D01*
X462Y433D01*
X460Y433D01*
X460Y429D01*
X458Y429D01*
X458Y427D01*
X456Y427D01*
X456Y425D01*
X454Y425D01*
X454Y421D01*
X450Y421D01*
X450Y419D01*
X448Y419D01*
X448Y417D01*
X446Y417D01*
X446Y415D01*
X442Y415D01*
X442Y413D01*
X436Y413D01*
X436Y411D01*
X428Y411D01*
X428Y409D01*
X534Y409D01*
X534Y1023D01*
X532Y1023D01*
X532Y1025D01*
X530Y1025D01*
X530Y1027D01*
X528Y1027D01*
X528Y1029D01*
X526Y1029D01*
X526Y1031D01*
X498Y1031D01*
G37*
D02*
G36*
X360Y653D02*
X360Y579D01*
X358Y579D01*
X358Y575D01*
X356Y575D01*
X356Y573D01*
X354Y573D01*
X354Y569D01*
X352Y569D01*
X352Y567D01*
X350Y567D01*
X350Y565D01*
X348Y565D01*
X348Y561D01*
X346Y561D01*
X346Y559D01*
X344Y559D01*
X344Y555D01*
X342Y555D01*
X342Y553D01*
X340Y553D01*
X340Y549D01*
X338Y549D01*
X338Y547D01*
X336Y547D01*
X336Y545D01*
X334Y545D01*
X334Y541D01*
X332Y541D01*
X332Y539D01*
X330Y539D01*
X330Y535D01*
X328Y535D01*
X328Y533D01*
X326Y533D01*
X326Y531D01*
X324Y531D01*
X324Y529D01*
X318Y529D01*
X318Y527D01*
X240Y527D01*
X240Y523D01*
X238Y523D01*
X238Y519D01*
X236Y519D01*
X236Y517D01*
X234Y517D01*
X234Y513D01*
X232Y513D01*
X232Y511D01*
X230Y511D01*
X230Y509D01*
X228Y509D01*
X228Y507D01*
X224Y507D01*
X224Y505D01*
X222Y505D01*
X222Y503D01*
X218Y503D01*
X218Y501D01*
X216Y501D01*
X216Y481D01*
X220Y481D01*
X220Y479D01*
X224Y479D01*
X224Y477D01*
X226Y477D01*
X226Y475D01*
X228Y475D01*
X228Y473D01*
X232Y473D01*
X232Y469D01*
X234Y469D01*
X234Y467D01*
X236Y467D01*
X236Y465D01*
X238Y465D01*
X238Y461D01*
X240Y461D01*
X240Y455D01*
X242Y455D01*
X242Y447D01*
X244Y447D01*
X244Y435D01*
X242Y435D01*
X242Y427D01*
X240Y427D01*
X240Y423D01*
X238Y423D01*
X238Y419D01*
X236Y419D01*
X236Y417D01*
X234Y417D01*
X234Y413D01*
X232Y413D01*
X232Y411D01*
X230Y411D01*
X230Y409D01*
X418Y409D01*
X418Y411D01*
X410Y411D01*
X410Y413D01*
X404Y413D01*
X404Y415D01*
X400Y415D01*
X400Y417D01*
X398Y417D01*
X398Y419D01*
X396Y419D01*
X396Y421D01*
X392Y421D01*
X392Y423D01*
X390Y423D01*
X390Y427D01*
X388Y427D01*
X388Y429D01*
X386Y429D01*
X386Y433D01*
X384Y433D01*
X384Y435D01*
X382Y435D01*
X382Y443D01*
X380Y443D01*
X380Y465D01*
X382Y465D01*
X382Y471D01*
X384Y471D01*
X384Y475D01*
X386Y475D01*
X386Y477D01*
X388Y477D01*
X388Y481D01*
X390Y481D01*
X390Y483D01*
X392Y483D01*
X392Y485D01*
X394Y485D01*
X394Y487D01*
X398Y487D01*
X398Y489D01*
X400Y489D01*
X400Y491D01*
X404Y491D01*
X404Y493D01*
X408Y493D01*
X408Y513D01*
X404Y513D01*
X404Y515D01*
X400Y515D01*
X400Y517D01*
X398Y517D01*
X398Y519D01*
X396Y519D01*
X396Y521D01*
X392Y521D01*
X392Y523D01*
X390Y523D01*
X390Y527D01*
X388Y527D01*
X388Y529D01*
X386Y529D01*
X386Y533D01*
X384Y533D01*
X384Y535D01*
X382Y535D01*
X382Y543D01*
X380Y543D01*
X380Y565D01*
X382Y565D01*
X382Y571D01*
X384Y571D01*
X384Y575D01*
X386Y575D01*
X386Y577D01*
X388Y577D01*
X388Y581D01*
X390Y581D01*
X390Y583D01*
X392Y583D01*
X392Y585D01*
X394Y585D01*
X394Y587D01*
X398Y587D01*
X398Y589D01*
X400Y589D01*
X400Y591D01*
X404Y591D01*
X404Y593D01*
X408Y593D01*
X408Y613D01*
X404Y613D01*
X404Y615D01*
X400Y615D01*
X400Y617D01*
X398Y617D01*
X398Y619D01*
X396Y619D01*
X396Y621D01*
X392Y621D01*
X392Y623D01*
X390Y623D01*
X390Y627D01*
X388Y627D01*
X388Y629D01*
X386Y629D01*
X386Y633D01*
X384Y633D01*
X384Y635D01*
X382Y635D01*
X382Y643D01*
X380Y643D01*
X380Y653D01*
X360Y653D01*
G37*
D02*
G36*
X228Y409D02*
X228Y407D01*
X534Y407D01*
X534Y409D01*
X228Y409D01*
G37*
D02*
G36*
X228Y409D02*
X228Y407D01*
X534Y407D01*
X534Y409D01*
X228Y409D01*
G37*
D02*
G36*
X224Y407D02*
X224Y405D01*
X222Y405D01*
X222Y403D01*
X218Y403D01*
X218Y401D01*
X216Y401D01*
X216Y381D01*
X220Y381D01*
X220Y379D01*
X224Y379D01*
X224Y377D01*
X226Y377D01*
X226Y375D01*
X228Y375D01*
X228Y373D01*
X232Y373D01*
X232Y369D01*
X234Y369D01*
X234Y367D01*
X236Y367D01*
X236Y365D01*
X238Y365D01*
X238Y363D01*
X522Y363D01*
X522Y365D01*
X524Y365D01*
X524Y367D01*
X526Y367D01*
X526Y369D01*
X528Y369D01*
X528Y373D01*
X530Y373D01*
X530Y375D01*
X532Y375D01*
X532Y379D01*
X534Y379D01*
X534Y407D01*
X224Y407D01*
G37*
D02*
G36*
X140Y627D02*
X140Y623D01*
X138Y623D01*
X138Y619D01*
X136Y619D01*
X136Y617D01*
X134Y617D01*
X134Y613D01*
X132Y613D01*
X132Y611D01*
X130Y611D01*
X130Y609D01*
X128Y609D01*
X128Y607D01*
X124Y607D01*
X124Y605D01*
X122Y605D01*
X122Y603D01*
X118Y603D01*
X118Y601D01*
X116Y601D01*
X116Y581D01*
X120Y581D01*
X120Y579D01*
X124Y579D01*
X124Y577D01*
X126Y577D01*
X126Y575D01*
X128Y575D01*
X128Y573D01*
X132Y573D01*
X132Y569D01*
X134Y569D01*
X134Y567D01*
X136Y567D01*
X136Y565D01*
X138Y565D01*
X138Y561D01*
X140Y561D01*
X140Y555D01*
X160Y555D01*
X160Y561D01*
X162Y561D01*
X162Y565D01*
X164Y565D01*
X164Y567D01*
X166Y567D01*
X166Y569D01*
X168Y569D01*
X168Y573D01*
X172Y573D01*
X172Y575D01*
X174Y575D01*
X174Y577D01*
X176Y577D01*
X176Y579D01*
X180Y579D01*
X180Y581D01*
X184Y581D01*
X184Y601D01*
X182Y601D01*
X182Y603D01*
X178Y603D01*
X178Y605D01*
X176Y605D01*
X176Y607D01*
X172Y607D01*
X172Y609D01*
X170Y609D01*
X170Y611D01*
X168Y611D01*
X168Y613D01*
X166Y613D01*
X166Y617D01*
X164Y617D01*
X164Y619D01*
X162Y619D01*
X162Y623D01*
X160Y623D01*
X160Y627D01*
X140Y627D01*
G37*
D02*
G36*
X140Y527D02*
X140Y523D01*
X138Y523D01*
X138Y519D01*
X136Y519D01*
X136Y517D01*
X134Y517D01*
X134Y513D01*
X132Y513D01*
X132Y511D01*
X130Y511D01*
X130Y509D01*
X128Y509D01*
X128Y507D01*
X124Y507D01*
X124Y505D01*
X122Y505D01*
X122Y503D01*
X118Y503D01*
X118Y501D01*
X116Y501D01*
X116Y481D01*
X120Y481D01*
X120Y479D01*
X124Y479D01*
X124Y477D01*
X126Y477D01*
X126Y475D01*
X128Y475D01*
X128Y473D01*
X132Y473D01*
X132Y469D01*
X134Y469D01*
X134Y467D01*
X136Y467D01*
X136Y465D01*
X138Y465D01*
X138Y461D01*
X140Y461D01*
X140Y455D01*
X160Y455D01*
X160Y461D01*
X162Y461D01*
X162Y465D01*
X164Y465D01*
X164Y467D01*
X166Y467D01*
X166Y469D01*
X168Y469D01*
X168Y473D01*
X172Y473D01*
X172Y475D01*
X174Y475D01*
X174Y477D01*
X176Y477D01*
X176Y479D01*
X180Y479D01*
X180Y481D01*
X184Y481D01*
X184Y501D01*
X182Y501D01*
X182Y503D01*
X178Y503D01*
X178Y505D01*
X176Y505D01*
X176Y507D01*
X172Y507D01*
X172Y509D01*
X170Y509D01*
X170Y511D01*
X168Y511D01*
X168Y513D01*
X166Y513D01*
X166Y517D01*
X164Y517D01*
X164Y519D01*
X162Y519D01*
X162Y523D01*
X160Y523D01*
X160Y527D01*
X140Y527D01*
G37*
D02*
G36*
X140Y427D02*
X140Y423D01*
X138Y423D01*
X138Y419D01*
X136Y419D01*
X136Y417D01*
X134Y417D01*
X134Y413D01*
X132Y413D01*
X132Y411D01*
X130Y411D01*
X130Y409D01*
X128Y409D01*
X128Y407D01*
X124Y407D01*
X124Y405D01*
X122Y405D01*
X122Y403D01*
X118Y403D01*
X118Y401D01*
X116Y401D01*
X116Y381D01*
X120Y381D01*
X120Y379D01*
X124Y379D01*
X124Y377D01*
X126Y377D01*
X126Y375D01*
X128Y375D01*
X128Y373D01*
X132Y373D01*
X132Y369D01*
X134Y369D01*
X134Y367D01*
X136Y367D01*
X136Y365D01*
X138Y365D01*
X138Y361D01*
X140Y361D01*
X140Y355D01*
X160Y355D01*
X160Y361D01*
X162Y361D01*
X162Y365D01*
X164Y365D01*
X164Y367D01*
X166Y367D01*
X166Y369D01*
X168Y369D01*
X168Y373D01*
X172Y373D01*
X172Y375D01*
X174Y375D01*
X174Y377D01*
X176Y377D01*
X176Y379D01*
X180Y379D01*
X180Y381D01*
X184Y381D01*
X184Y401D01*
X182Y401D01*
X182Y403D01*
X178Y403D01*
X178Y405D01*
X176Y405D01*
X176Y407D01*
X172Y407D01*
X172Y409D01*
X170Y409D01*
X170Y411D01*
X168Y411D01*
X168Y413D01*
X166Y413D01*
X166Y417D01*
X164Y417D01*
X164Y419D01*
X162Y419D01*
X162Y423D01*
X160Y423D01*
X160Y427D01*
X140Y427D01*
G37*
D02*
G36*
X140Y327D02*
X140Y323D01*
X138Y323D01*
X138Y319D01*
X136Y319D01*
X136Y317D01*
X134Y317D01*
X134Y313D01*
X132Y313D01*
X132Y311D01*
X130Y311D01*
X130Y309D01*
X128Y309D01*
X128Y307D01*
X124Y307D01*
X124Y305D01*
X122Y305D01*
X122Y303D01*
X118Y303D01*
X118Y301D01*
X112Y301D01*
X112Y299D01*
X178Y299D01*
X178Y305D01*
X176Y305D01*
X176Y307D01*
X172Y307D01*
X172Y309D01*
X170Y309D01*
X170Y311D01*
X168Y311D01*
X168Y313D01*
X166Y313D01*
X166Y317D01*
X164Y317D01*
X164Y319D01*
X162Y319D01*
X162Y323D01*
X160Y323D01*
X160Y327D01*
X140Y327D01*
G37*
D02*
G36*
X54Y307D02*
X54Y299D01*
X88Y299D01*
X88Y301D01*
X82Y301D01*
X82Y303D01*
X78Y303D01*
X78Y305D01*
X76Y305D01*
X76Y307D01*
X54Y307D01*
G37*
D02*
G36*
X54Y299D02*
X54Y297D01*
X178Y297D01*
X178Y299D01*
X54Y299D01*
G37*
D02*
G36*
X54Y299D02*
X54Y297D01*
X178Y297D01*
X178Y299D01*
X54Y299D01*
G37*
D02*
G36*
X54Y297D02*
X54Y247D01*
X108Y247D01*
X108Y245D01*
X116Y245D01*
X116Y243D01*
X120Y243D01*
X120Y241D01*
X124Y241D01*
X124Y239D01*
X126Y239D01*
X126Y237D01*
X128Y237D01*
X128Y235D01*
X130Y235D01*
X130Y233D01*
X132Y233D01*
X132Y231D01*
X134Y231D01*
X134Y229D01*
X136Y229D01*
X136Y227D01*
X138Y227D01*
X138Y223D01*
X140Y223D01*
X140Y217D01*
X160Y217D01*
X160Y223D01*
X162Y223D01*
X162Y225D01*
X164Y225D01*
X164Y229D01*
X166Y229D01*
X166Y231D01*
X168Y231D01*
X168Y233D01*
X170Y233D01*
X170Y235D01*
X172Y235D01*
X172Y237D01*
X174Y237D01*
X174Y239D01*
X176Y239D01*
X176Y241D01*
X178Y241D01*
X178Y297D01*
X54Y297D01*
G37*
D02*
G36*
X54Y247D02*
X54Y237D01*
X74Y237D01*
X74Y239D01*
X76Y239D01*
X76Y241D01*
X80Y241D01*
X80Y243D01*
X84Y243D01*
X84Y245D01*
X92Y245D01*
X92Y247D01*
X54Y247D01*
G37*
D02*
G36*
X40Y189D02*
X40Y119D01*
X60Y119D01*
X60Y123D01*
X62Y123D01*
X62Y125D01*
X64Y125D01*
X64Y129D01*
X66Y129D01*
X66Y131D01*
X68Y131D01*
X68Y133D01*
X70Y133D01*
X70Y135D01*
X72Y135D01*
X72Y137D01*
X74Y137D01*
X74Y139D01*
X76Y139D01*
X76Y141D01*
X80Y141D01*
X80Y143D01*
X84Y143D01*
X84Y163D01*
X82Y163D01*
X82Y165D01*
X78Y165D01*
X78Y167D01*
X76Y167D01*
X76Y169D01*
X72Y169D01*
X72Y171D01*
X70Y171D01*
X70Y173D01*
X68Y173D01*
X68Y175D01*
X66Y175D01*
X66Y179D01*
X64Y179D01*
X64Y181D01*
X62Y181D01*
X62Y185D01*
X60Y185D01*
X60Y189D01*
X40Y189D01*
G37*
D02*
G36*
X140Y189D02*
X140Y185D01*
X138Y185D01*
X138Y181D01*
X136Y181D01*
X136Y179D01*
X134Y179D01*
X134Y175D01*
X132Y175D01*
X132Y173D01*
X130Y173D01*
X130Y171D01*
X128Y171D01*
X128Y169D01*
X124Y169D01*
X124Y167D01*
X122Y167D01*
X122Y165D01*
X118Y165D01*
X118Y163D01*
X116Y163D01*
X116Y143D01*
X120Y143D01*
X120Y141D01*
X124Y141D01*
X124Y139D01*
X126Y139D01*
X126Y137D01*
X128Y137D01*
X128Y135D01*
X130Y135D01*
X130Y133D01*
X132Y133D01*
X132Y131D01*
X134Y131D01*
X134Y129D01*
X136Y129D01*
X136Y127D01*
X138Y127D01*
X138Y123D01*
X140Y123D01*
X140Y117D01*
X160Y117D01*
X160Y123D01*
X162Y123D01*
X162Y125D01*
X164Y125D01*
X164Y129D01*
X166Y129D01*
X166Y131D01*
X168Y131D01*
X168Y133D01*
X170Y133D01*
X170Y135D01*
X172Y135D01*
X172Y137D01*
X174Y137D01*
X174Y139D01*
X176Y139D01*
X176Y141D01*
X180Y141D01*
X180Y143D01*
X184Y143D01*
X184Y163D01*
X182Y163D01*
X182Y165D01*
X178Y165D01*
X178Y167D01*
X176Y167D01*
X176Y169D01*
X172Y169D01*
X172Y171D01*
X170Y171D01*
X170Y173D01*
X168Y173D01*
X168Y175D01*
X166Y175D01*
X166Y179D01*
X164Y179D01*
X164Y181D01*
X162Y181D01*
X162Y185D01*
X160Y185D01*
X160Y189D01*
X140Y189D01*
G37*
D02*
G36*
X968Y1981D02*
X968Y1979D01*
X988Y1979D01*
X988Y1981D01*
X968Y1981D01*
G37*
D02*
G36*
X968Y1979D02*
X968Y1977D01*
X966Y1977D01*
X966Y1973D01*
X964Y1973D01*
X964Y1969D01*
X962Y1969D01*
X962Y1967D01*
X960Y1967D01*
X960Y1965D01*
X958Y1965D01*
X958Y1963D01*
X956Y1963D01*
X956Y1961D01*
X954Y1961D01*
X954Y1959D01*
X950Y1959D01*
X950Y1957D01*
X946Y1957D01*
X946Y1953D01*
X1018Y1953D01*
X1018Y1955D01*
X1012Y1955D01*
X1012Y1957D01*
X1008Y1957D01*
X1008Y1959D01*
X1004Y1959D01*
X1004Y1961D01*
X1002Y1961D01*
X1002Y1963D01*
X1000Y1963D01*
X1000Y1965D01*
X998Y1965D01*
X998Y1967D01*
X996Y1967D01*
X996Y1969D01*
X994Y1969D01*
X994Y1971D01*
X992Y1971D01*
X992Y1975D01*
X990Y1975D01*
X990Y1979D01*
X968Y1979D01*
G37*
D02*
G36*
X1068Y1979D02*
X1068Y1975D01*
X1066Y1975D01*
X1066Y1971D01*
X1064Y1971D01*
X1064Y1969D01*
X1062Y1969D01*
X1062Y1967D01*
X1060Y1967D01*
X1060Y1965D01*
X1058Y1965D01*
X1058Y1963D01*
X1056Y1963D01*
X1056Y1961D01*
X1054Y1961D01*
X1054Y1959D01*
X1050Y1959D01*
X1050Y1957D01*
X1046Y1957D01*
X1046Y1955D01*
X1040Y1955D01*
X1040Y1953D01*
X1118Y1953D01*
X1118Y1955D01*
X1112Y1955D01*
X1112Y1957D01*
X1108Y1957D01*
X1108Y1959D01*
X1104Y1959D01*
X1104Y1961D01*
X1102Y1961D01*
X1102Y1963D01*
X1100Y1963D01*
X1100Y1965D01*
X1098Y1965D01*
X1098Y1967D01*
X1096Y1967D01*
X1096Y1969D01*
X1094Y1969D01*
X1094Y1971D01*
X1092Y1971D01*
X1092Y1975D01*
X1090Y1975D01*
X1090Y1979D01*
X1068Y1979D01*
G37*
D02*
G36*
X1140Y1955D02*
X1140Y1953D01*
X1160Y1953D01*
X1160Y1955D01*
X1140Y1955D01*
G37*
D02*
G36*
X946Y1953D02*
X946Y1951D01*
X1160Y1951D01*
X1160Y1953D01*
X946Y1953D01*
G37*
D02*
G36*
X946Y1953D02*
X946Y1951D01*
X1160Y1951D01*
X1160Y1953D01*
X946Y1953D01*
G37*
D02*
G36*
X946Y1953D02*
X946Y1951D01*
X1160Y1951D01*
X1160Y1953D01*
X946Y1953D01*
G37*
D02*
G36*
X946Y1951D02*
X946Y1935D01*
X950Y1935D01*
X950Y1933D01*
X954Y1933D01*
X954Y1931D01*
X956Y1931D01*
X956Y1929D01*
X958Y1929D01*
X958Y1927D01*
X960Y1927D01*
X960Y1925D01*
X962Y1925D01*
X962Y1923D01*
X964Y1923D01*
X964Y1919D01*
X966Y1919D01*
X966Y1915D01*
X968Y1915D01*
X968Y1911D01*
X970Y1911D01*
X970Y1905D01*
X972Y1905D01*
X972Y1889D01*
X970Y1889D01*
X970Y1881D01*
X968Y1881D01*
X968Y1877D01*
X966Y1877D01*
X966Y1873D01*
X964Y1873D01*
X964Y1871D01*
X962Y1871D01*
X962Y1869D01*
X960Y1869D01*
X960Y1865D01*
X956Y1865D01*
X956Y1863D01*
X954Y1863D01*
X954Y1861D01*
X952Y1861D01*
X952Y1859D01*
X948Y1859D01*
X948Y1857D01*
X944Y1857D01*
X944Y1837D01*
X946Y1837D01*
X946Y1835D01*
X950Y1835D01*
X950Y1833D01*
X954Y1833D01*
X954Y1831D01*
X956Y1831D01*
X956Y1829D01*
X958Y1829D01*
X958Y1827D01*
X960Y1827D01*
X960Y1825D01*
X962Y1825D01*
X962Y1823D01*
X964Y1823D01*
X964Y1819D01*
X966Y1819D01*
X966Y1815D01*
X968Y1815D01*
X968Y1811D01*
X970Y1811D01*
X970Y1805D01*
X972Y1805D01*
X972Y1789D01*
X970Y1789D01*
X970Y1781D01*
X968Y1781D01*
X968Y1777D01*
X966Y1777D01*
X966Y1773D01*
X964Y1773D01*
X964Y1771D01*
X962Y1771D01*
X962Y1769D01*
X960Y1769D01*
X960Y1765D01*
X956Y1765D01*
X956Y1763D01*
X954Y1763D01*
X954Y1761D01*
X952Y1761D01*
X952Y1759D01*
X948Y1759D01*
X948Y1757D01*
X944Y1757D01*
X944Y1737D01*
X946Y1737D01*
X946Y1735D01*
X950Y1735D01*
X950Y1733D01*
X954Y1733D01*
X954Y1731D01*
X956Y1731D01*
X956Y1729D01*
X958Y1729D01*
X958Y1727D01*
X960Y1727D01*
X960Y1725D01*
X962Y1725D01*
X962Y1723D01*
X964Y1723D01*
X964Y1719D01*
X966Y1719D01*
X966Y1715D01*
X968Y1715D01*
X968Y1711D01*
X970Y1711D01*
X970Y1705D01*
X972Y1705D01*
X972Y1689D01*
X970Y1689D01*
X970Y1681D01*
X968Y1681D01*
X968Y1677D01*
X966Y1677D01*
X966Y1673D01*
X964Y1673D01*
X964Y1671D01*
X962Y1671D01*
X962Y1669D01*
X960Y1669D01*
X960Y1665D01*
X956Y1665D01*
X956Y1663D01*
X954Y1663D01*
X954Y1661D01*
X952Y1661D01*
X952Y1659D01*
X948Y1659D01*
X948Y1657D01*
X944Y1657D01*
X944Y1655D01*
X938Y1655D01*
X938Y1653D01*
X1160Y1653D01*
X1160Y1951D01*
X946Y1951D01*
G37*
D02*
G36*
X868Y1681D02*
X868Y1677D01*
X866Y1677D01*
X866Y1673D01*
X864Y1673D01*
X864Y1671D01*
X862Y1671D01*
X862Y1669D01*
X860Y1669D01*
X860Y1665D01*
X856Y1665D01*
X856Y1663D01*
X854Y1663D01*
X854Y1661D01*
X852Y1661D01*
X852Y1659D01*
X848Y1659D01*
X848Y1657D01*
X844Y1657D01*
X844Y1655D01*
X838Y1655D01*
X838Y1653D01*
X920Y1653D01*
X920Y1655D01*
X912Y1655D01*
X912Y1657D01*
X908Y1657D01*
X908Y1659D01*
X904Y1659D01*
X904Y1661D01*
X902Y1661D01*
X902Y1663D01*
X900Y1663D01*
X900Y1665D01*
X898Y1665D01*
X898Y1667D01*
X896Y1667D01*
X896Y1669D01*
X894Y1669D01*
X894Y1671D01*
X892Y1671D01*
X892Y1675D01*
X890Y1675D01*
X890Y1679D01*
X888Y1679D01*
X888Y1681D01*
X868Y1681D01*
G37*
D02*
G36*
X756Y1675D02*
X756Y1673D01*
X716Y1673D01*
X716Y1671D01*
X714Y1671D01*
X714Y1669D01*
X708Y1669D01*
X708Y1667D01*
X796Y1667D01*
X796Y1669D01*
X794Y1669D01*
X794Y1671D01*
X792Y1671D01*
X792Y1675D01*
X756Y1675D01*
G37*
D02*
G36*
X666Y1669D02*
X666Y1667D01*
X688Y1667D01*
X688Y1669D01*
X666Y1669D01*
G37*
D02*
G36*
X666Y1667D02*
X666Y1665D01*
X798Y1665D01*
X798Y1667D01*
X666Y1667D01*
G37*
D02*
G36*
X666Y1667D02*
X666Y1665D01*
X798Y1665D01*
X798Y1667D01*
X666Y1667D01*
G37*
D02*
G36*
X666Y1665D02*
X666Y1653D01*
X820Y1653D01*
X820Y1655D01*
X812Y1655D01*
X812Y1657D01*
X808Y1657D01*
X808Y1659D01*
X804Y1659D01*
X804Y1661D01*
X802Y1661D01*
X802Y1663D01*
X800Y1663D01*
X800Y1665D01*
X666Y1665D01*
G37*
D02*
G36*
X666Y1653D02*
X666Y1651D01*
X1160Y1651D01*
X1160Y1653D01*
X666Y1653D01*
G37*
D02*
G36*
X666Y1653D02*
X666Y1651D01*
X1160Y1651D01*
X1160Y1653D01*
X666Y1653D01*
G37*
D02*
G36*
X666Y1653D02*
X666Y1651D01*
X1160Y1651D01*
X1160Y1653D01*
X666Y1653D01*
G37*
D02*
G36*
X666Y1651D02*
X666Y1469D01*
X668Y1469D01*
X668Y1467D01*
X670Y1467D01*
X670Y1465D01*
X672Y1465D01*
X672Y1463D01*
X674Y1463D01*
X674Y1459D01*
X676Y1459D01*
X676Y1457D01*
X678Y1457D01*
X678Y1455D01*
X680Y1455D01*
X680Y1453D01*
X682Y1453D01*
X682Y1451D01*
X710Y1451D01*
X710Y1449D01*
X834Y1449D01*
X834Y1447D01*
X940Y1447D01*
X940Y1445D01*
X944Y1445D01*
X944Y1443D01*
X948Y1443D01*
X948Y1441D01*
X950Y1441D01*
X950Y1439D01*
X952Y1439D01*
X952Y1435D01*
X954Y1435D01*
X954Y1433D01*
X956Y1433D01*
X956Y1431D01*
X958Y1431D01*
X958Y1429D01*
X960Y1429D01*
X960Y1427D01*
X962Y1427D01*
X962Y1425D01*
X964Y1425D01*
X964Y1423D01*
X966Y1423D01*
X966Y1421D01*
X968Y1421D01*
X968Y1419D01*
X970Y1419D01*
X970Y1417D01*
X972Y1417D01*
X972Y1415D01*
X974Y1415D01*
X974Y1413D01*
X976Y1413D01*
X976Y1411D01*
X978Y1411D01*
X978Y1409D01*
X980Y1409D01*
X980Y1407D01*
X982Y1407D01*
X982Y1405D01*
X984Y1405D01*
X984Y1403D01*
X986Y1403D01*
X986Y1401D01*
X988Y1401D01*
X988Y1399D01*
X990Y1399D01*
X990Y1397D01*
X992Y1397D01*
X992Y1395D01*
X994Y1395D01*
X994Y1393D01*
X996Y1393D01*
X996Y1391D01*
X998Y1391D01*
X998Y1389D01*
X1000Y1389D01*
X1000Y1387D01*
X1002Y1387D01*
X1002Y1385D01*
X1004Y1385D01*
X1004Y1383D01*
X1006Y1383D01*
X1006Y1381D01*
X1008Y1381D01*
X1008Y1379D01*
X1010Y1379D01*
X1010Y1377D01*
X1012Y1377D01*
X1012Y1375D01*
X1014Y1375D01*
X1014Y1373D01*
X1016Y1373D01*
X1016Y1371D01*
X1018Y1371D01*
X1018Y1369D01*
X1020Y1369D01*
X1020Y1367D01*
X1022Y1367D01*
X1022Y1365D01*
X1024Y1365D01*
X1024Y785D01*
X1022Y785D01*
X1022Y783D01*
X1020Y783D01*
X1020Y779D01*
X1018Y779D01*
X1018Y777D01*
X1016Y777D01*
X1016Y773D01*
X1014Y773D01*
X1014Y769D01*
X1012Y769D01*
X1012Y767D01*
X1010Y767D01*
X1010Y763D01*
X1008Y763D01*
X1008Y761D01*
X1006Y761D01*
X1006Y757D01*
X1004Y757D01*
X1004Y755D01*
X1002Y755D01*
X1002Y751D01*
X1000Y751D01*
X1000Y747D01*
X998Y747D01*
X998Y745D01*
X996Y745D01*
X996Y743D01*
X994Y743D01*
X994Y741D01*
X992Y741D01*
X992Y739D01*
X912Y739D01*
X912Y737D01*
X864Y737D01*
X864Y731D01*
X862Y731D01*
X862Y729D01*
X860Y729D01*
X860Y725D01*
X858Y725D01*
X858Y723D01*
X856Y723D01*
X856Y721D01*
X854Y721D01*
X854Y719D01*
X852Y719D01*
X852Y717D01*
X850Y717D01*
X850Y715D01*
X846Y715D01*
X846Y713D01*
X842Y713D01*
X842Y711D01*
X840Y711D01*
X840Y691D01*
X844Y691D01*
X844Y689D01*
X848Y689D01*
X848Y687D01*
X850Y687D01*
X850Y685D01*
X854Y685D01*
X854Y683D01*
X856Y683D01*
X856Y681D01*
X858Y681D01*
X858Y677D01*
X860Y677D01*
X860Y675D01*
X862Y675D01*
X862Y671D01*
X864Y671D01*
X864Y667D01*
X866Y667D01*
X866Y659D01*
X868Y659D01*
X868Y643D01*
X866Y643D01*
X866Y637D01*
X864Y637D01*
X864Y631D01*
X862Y631D01*
X862Y629D01*
X860Y629D01*
X860Y625D01*
X858Y625D01*
X858Y623D01*
X856Y623D01*
X856Y621D01*
X854Y621D01*
X854Y619D01*
X852Y619D01*
X852Y617D01*
X850Y617D01*
X850Y615D01*
X846Y615D01*
X846Y613D01*
X842Y613D01*
X842Y611D01*
X840Y611D01*
X840Y591D01*
X844Y591D01*
X844Y589D01*
X848Y589D01*
X848Y587D01*
X850Y587D01*
X850Y585D01*
X854Y585D01*
X854Y583D01*
X856Y583D01*
X856Y581D01*
X858Y581D01*
X858Y577D01*
X860Y577D01*
X860Y575D01*
X862Y575D01*
X862Y571D01*
X864Y571D01*
X864Y567D01*
X866Y567D01*
X866Y559D01*
X868Y559D01*
X868Y543D01*
X866Y543D01*
X866Y537D01*
X864Y537D01*
X864Y531D01*
X862Y531D01*
X862Y529D01*
X860Y529D01*
X860Y525D01*
X858Y525D01*
X858Y523D01*
X856Y523D01*
X856Y521D01*
X854Y521D01*
X854Y519D01*
X852Y519D01*
X852Y517D01*
X850Y517D01*
X850Y515D01*
X846Y515D01*
X846Y513D01*
X842Y513D01*
X842Y511D01*
X840Y511D01*
X840Y491D01*
X844Y491D01*
X844Y489D01*
X848Y489D01*
X848Y487D01*
X850Y487D01*
X850Y485D01*
X854Y485D01*
X854Y483D01*
X856Y483D01*
X856Y481D01*
X858Y481D01*
X858Y477D01*
X860Y477D01*
X860Y475D01*
X862Y475D01*
X862Y471D01*
X864Y471D01*
X864Y467D01*
X866Y467D01*
X866Y459D01*
X868Y459D01*
X868Y443D01*
X866Y443D01*
X866Y437D01*
X864Y437D01*
X864Y431D01*
X862Y431D01*
X862Y429D01*
X860Y429D01*
X860Y425D01*
X858Y425D01*
X858Y423D01*
X856Y423D01*
X856Y421D01*
X854Y421D01*
X854Y419D01*
X852Y419D01*
X852Y417D01*
X850Y417D01*
X850Y415D01*
X846Y415D01*
X846Y413D01*
X842Y413D01*
X842Y411D01*
X840Y411D01*
X840Y391D01*
X844Y391D01*
X844Y389D01*
X848Y389D01*
X848Y387D01*
X850Y387D01*
X850Y385D01*
X854Y385D01*
X854Y383D01*
X856Y383D01*
X856Y381D01*
X858Y381D01*
X858Y377D01*
X860Y377D01*
X860Y375D01*
X862Y375D01*
X862Y371D01*
X864Y371D01*
X864Y367D01*
X866Y367D01*
X866Y359D01*
X868Y359D01*
X868Y343D01*
X866Y343D01*
X866Y337D01*
X864Y337D01*
X864Y331D01*
X862Y331D01*
X862Y329D01*
X860Y329D01*
X860Y325D01*
X858Y325D01*
X858Y323D01*
X856Y323D01*
X856Y321D01*
X854Y321D01*
X854Y319D01*
X852Y319D01*
X852Y317D01*
X850Y317D01*
X850Y315D01*
X846Y315D01*
X846Y313D01*
X842Y313D01*
X842Y311D01*
X840Y311D01*
X840Y291D01*
X844Y291D01*
X844Y289D01*
X848Y289D01*
X848Y287D01*
X850Y287D01*
X850Y285D01*
X854Y285D01*
X854Y283D01*
X856Y283D01*
X856Y281D01*
X858Y281D01*
X858Y277D01*
X860Y277D01*
X860Y275D01*
X862Y275D01*
X862Y271D01*
X864Y271D01*
X864Y267D01*
X866Y267D01*
X866Y259D01*
X868Y259D01*
X868Y243D01*
X866Y243D01*
X866Y237D01*
X864Y237D01*
X864Y231D01*
X862Y231D01*
X862Y229D01*
X860Y229D01*
X860Y225D01*
X858Y225D01*
X858Y223D01*
X856Y223D01*
X856Y221D01*
X854Y221D01*
X854Y219D01*
X852Y219D01*
X852Y217D01*
X850Y217D01*
X850Y215D01*
X846Y215D01*
X846Y213D01*
X842Y213D01*
X842Y211D01*
X836Y211D01*
X836Y209D01*
X1160Y209D01*
X1160Y1651D01*
X666Y1651D01*
G37*
D02*
G36*
X770Y1127D02*
X770Y1125D01*
X768Y1125D01*
X768Y1103D01*
X766Y1103D01*
X766Y1099D01*
X764Y1099D01*
X764Y1095D01*
X762Y1095D01*
X762Y1091D01*
X760Y1091D01*
X760Y1087D01*
X758Y1087D01*
X758Y1085D01*
X756Y1085D01*
X756Y1081D01*
X754Y1081D01*
X754Y1077D01*
X752Y1077D01*
X752Y1073D01*
X750Y1073D01*
X750Y1071D01*
X748Y1071D01*
X748Y1067D01*
X746Y1067D01*
X746Y1065D01*
X744Y1065D01*
X744Y1063D01*
X740Y1063D01*
X740Y1061D01*
X736Y1061D01*
X736Y1059D01*
X576Y1059D01*
X576Y1039D01*
X578Y1039D01*
X578Y365D01*
X576Y365D01*
X576Y361D01*
X574Y361D01*
X574Y359D01*
X572Y359D01*
X572Y355D01*
X570Y355D01*
X570Y353D01*
X568Y353D01*
X568Y349D01*
X566Y349D01*
X566Y347D01*
X564Y347D01*
X564Y345D01*
X562Y345D01*
X562Y341D01*
X560Y341D01*
X560Y339D01*
X558Y339D01*
X558Y337D01*
X556Y337D01*
X556Y333D01*
X554Y333D01*
X554Y331D01*
X552Y331D01*
X552Y329D01*
X550Y329D01*
X550Y327D01*
X548Y327D01*
X548Y325D01*
X546Y325D01*
X546Y323D01*
X544Y323D01*
X544Y321D01*
X540Y321D01*
X540Y319D01*
X236Y319D01*
X236Y317D01*
X234Y317D01*
X234Y313D01*
X232Y313D01*
X232Y311D01*
X230Y311D01*
X230Y309D01*
X228Y309D01*
X228Y307D01*
X224Y307D01*
X224Y305D01*
X222Y305D01*
X222Y241D01*
X224Y241D01*
X224Y239D01*
X226Y239D01*
X226Y237D01*
X228Y237D01*
X228Y235D01*
X230Y235D01*
X230Y233D01*
X232Y233D01*
X232Y231D01*
X234Y231D01*
X234Y229D01*
X236Y229D01*
X236Y227D01*
X238Y227D01*
X238Y223D01*
X240Y223D01*
X240Y217D01*
X242Y217D01*
X242Y209D01*
X812Y209D01*
X812Y211D01*
X806Y211D01*
X806Y213D01*
X804Y213D01*
X804Y215D01*
X800Y215D01*
X800Y217D01*
X798Y217D01*
X798Y219D01*
X794Y219D01*
X794Y221D01*
X792Y221D01*
X792Y225D01*
X790Y225D01*
X790Y227D01*
X788Y227D01*
X788Y229D01*
X786Y229D01*
X786Y233D01*
X784Y233D01*
X784Y239D01*
X782Y239D01*
X782Y251D01*
X780Y251D01*
X780Y253D01*
X782Y253D01*
X782Y263D01*
X784Y263D01*
X784Y269D01*
X786Y269D01*
X786Y273D01*
X788Y273D01*
X788Y277D01*
X790Y277D01*
X790Y279D01*
X792Y279D01*
X792Y281D01*
X794Y281D01*
X794Y283D01*
X796Y283D01*
X796Y285D01*
X798Y285D01*
X798Y287D01*
X800Y287D01*
X800Y289D01*
X804Y289D01*
X804Y291D01*
X808Y291D01*
X808Y311D01*
X806Y311D01*
X806Y313D01*
X804Y313D01*
X804Y315D01*
X800Y315D01*
X800Y317D01*
X798Y317D01*
X798Y319D01*
X794Y319D01*
X794Y321D01*
X792Y321D01*
X792Y325D01*
X790Y325D01*
X790Y327D01*
X788Y327D01*
X788Y329D01*
X786Y329D01*
X786Y333D01*
X784Y333D01*
X784Y339D01*
X782Y339D01*
X782Y351D01*
X780Y351D01*
X780Y353D01*
X782Y353D01*
X782Y363D01*
X784Y363D01*
X784Y369D01*
X786Y369D01*
X786Y373D01*
X788Y373D01*
X788Y377D01*
X790Y377D01*
X790Y379D01*
X792Y379D01*
X792Y381D01*
X794Y381D01*
X794Y383D01*
X796Y383D01*
X796Y385D01*
X798Y385D01*
X798Y387D01*
X800Y387D01*
X800Y389D01*
X804Y389D01*
X804Y391D01*
X808Y391D01*
X808Y411D01*
X806Y411D01*
X806Y413D01*
X804Y413D01*
X804Y415D01*
X800Y415D01*
X800Y417D01*
X798Y417D01*
X798Y419D01*
X794Y419D01*
X794Y421D01*
X792Y421D01*
X792Y425D01*
X790Y425D01*
X790Y427D01*
X788Y427D01*
X788Y429D01*
X786Y429D01*
X786Y433D01*
X784Y433D01*
X784Y439D01*
X782Y439D01*
X782Y451D01*
X780Y451D01*
X780Y453D01*
X782Y453D01*
X782Y463D01*
X784Y463D01*
X784Y469D01*
X786Y469D01*
X786Y473D01*
X788Y473D01*
X788Y477D01*
X790Y477D01*
X790Y479D01*
X792Y479D01*
X792Y481D01*
X794Y481D01*
X794Y483D01*
X796Y483D01*
X796Y485D01*
X798Y485D01*
X798Y487D01*
X800Y487D01*
X800Y489D01*
X804Y489D01*
X804Y491D01*
X808Y491D01*
X808Y511D01*
X806Y511D01*
X806Y513D01*
X804Y513D01*
X804Y515D01*
X800Y515D01*
X800Y517D01*
X798Y517D01*
X798Y519D01*
X794Y519D01*
X794Y521D01*
X792Y521D01*
X792Y525D01*
X790Y525D01*
X790Y527D01*
X788Y527D01*
X788Y529D01*
X786Y529D01*
X786Y533D01*
X784Y533D01*
X784Y539D01*
X782Y539D01*
X782Y551D01*
X780Y551D01*
X780Y553D01*
X782Y553D01*
X782Y563D01*
X784Y563D01*
X784Y569D01*
X786Y569D01*
X786Y573D01*
X788Y573D01*
X788Y577D01*
X790Y577D01*
X790Y579D01*
X792Y579D01*
X792Y581D01*
X794Y581D01*
X794Y583D01*
X796Y583D01*
X796Y585D01*
X798Y585D01*
X798Y587D01*
X800Y587D01*
X800Y589D01*
X804Y589D01*
X804Y591D01*
X808Y591D01*
X808Y611D01*
X806Y611D01*
X806Y613D01*
X804Y613D01*
X804Y615D01*
X800Y615D01*
X800Y617D01*
X798Y617D01*
X798Y619D01*
X794Y619D01*
X794Y621D01*
X792Y621D01*
X792Y625D01*
X790Y625D01*
X790Y627D01*
X788Y627D01*
X788Y629D01*
X786Y629D01*
X786Y633D01*
X784Y633D01*
X784Y639D01*
X782Y639D01*
X782Y651D01*
X780Y651D01*
X780Y653D01*
X782Y653D01*
X782Y663D01*
X784Y663D01*
X784Y669D01*
X786Y669D01*
X786Y673D01*
X788Y673D01*
X788Y677D01*
X790Y677D01*
X790Y679D01*
X792Y679D01*
X792Y681D01*
X794Y681D01*
X794Y683D01*
X796Y683D01*
X796Y685D01*
X798Y685D01*
X798Y687D01*
X800Y687D01*
X800Y689D01*
X804Y689D01*
X804Y691D01*
X808Y691D01*
X808Y711D01*
X806Y711D01*
X806Y713D01*
X804Y713D01*
X804Y715D01*
X800Y715D01*
X800Y717D01*
X798Y717D01*
X798Y719D01*
X794Y719D01*
X794Y721D01*
X792Y721D01*
X792Y725D01*
X790Y725D01*
X790Y727D01*
X788Y727D01*
X788Y729D01*
X786Y729D01*
X786Y733D01*
X784Y733D01*
X784Y739D01*
X782Y739D01*
X782Y751D01*
X780Y751D01*
X780Y753D01*
X782Y753D01*
X782Y763D01*
X784Y763D01*
X784Y769D01*
X786Y769D01*
X786Y773D01*
X788Y773D01*
X788Y777D01*
X790Y777D01*
X790Y779D01*
X792Y779D01*
X792Y781D01*
X794Y781D01*
X794Y783D01*
X796Y783D01*
X796Y785D01*
X798Y785D01*
X798Y787D01*
X800Y787D01*
X800Y789D01*
X804Y789D01*
X804Y791D01*
X808Y791D01*
X808Y811D01*
X806Y811D01*
X806Y813D01*
X804Y813D01*
X804Y815D01*
X800Y815D01*
X800Y817D01*
X798Y817D01*
X798Y819D01*
X794Y819D01*
X794Y821D01*
X792Y821D01*
X792Y825D01*
X790Y825D01*
X790Y827D01*
X788Y827D01*
X788Y829D01*
X786Y829D01*
X786Y833D01*
X784Y833D01*
X784Y839D01*
X782Y839D01*
X782Y851D01*
X780Y851D01*
X780Y853D01*
X782Y853D01*
X782Y863D01*
X784Y863D01*
X784Y869D01*
X786Y869D01*
X786Y873D01*
X788Y873D01*
X788Y877D01*
X790Y877D01*
X790Y879D01*
X792Y879D01*
X792Y881D01*
X794Y881D01*
X794Y883D01*
X796Y883D01*
X796Y885D01*
X798Y885D01*
X798Y887D01*
X800Y887D01*
X800Y889D01*
X804Y889D01*
X804Y891D01*
X808Y891D01*
X808Y911D01*
X806Y911D01*
X806Y913D01*
X804Y913D01*
X804Y915D01*
X800Y915D01*
X800Y917D01*
X798Y917D01*
X798Y919D01*
X794Y919D01*
X794Y921D01*
X792Y921D01*
X792Y925D01*
X790Y925D01*
X790Y927D01*
X788Y927D01*
X788Y929D01*
X786Y929D01*
X786Y933D01*
X784Y933D01*
X784Y939D01*
X782Y939D01*
X782Y951D01*
X780Y951D01*
X780Y953D01*
X782Y953D01*
X782Y963D01*
X784Y963D01*
X784Y969D01*
X786Y969D01*
X786Y973D01*
X788Y973D01*
X788Y977D01*
X790Y977D01*
X790Y979D01*
X792Y979D01*
X792Y981D01*
X794Y981D01*
X794Y983D01*
X796Y983D01*
X796Y985D01*
X798Y985D01*
X798Y987D01*
X800Y987D01*
X800Y989D01*
X804Y989D01*
X804Y991D01*
X808Y991D01*
X808Y1011D01*
X806Y1011D01*
X806Y1013D01*
X804Y1013D01*
X804Y1015D01*
X800Y1015D01*
X800Y1017D01*
X798Y1017D01*
X798Y1019D01*
X794Y1019D01*
X794Y1021D01*
X792Y1021D01*
X792Y1025D01*
X790Y1025D01*
X790Y1027D01*
X788Y1027D01*
X788Y1029D01*
X786Y1029D01*
X786Y1033D01*
X784Y1033D01*
X784Y1039D01*
X782Y1039D01*
X782Y1051D01*
X780Y1051D01*
X780Y1053D01*
X782Y1053D01*
X782Y1063D01*
X784Y1063D01*
X784Y1069D01*
X786Y1069D01*
X786Y1073D01*
X788Y1073D01*
X788Y1077D01*
X790Y1077D01*
X790Y1079D01*
X792Y1079D01*
X792Y1081D01*
X794Y1081D01*
X794Y1083D01*
X796Y1083D01*
X796Y1085D01*
X798Y1085D01*
X798Y1087D01*
X800Y1087D01*
X800Y1089D01*
X804Y1089D01*
X804Y1091D01*
X808Y1091D01*
X808Y1111D01*
X806Y1111D01*
X806Y1113D01*
X804Y1113D01*
X804Y1115D01*
X800Y1115D01*
X800Y1117D01*
X798Y1117D01*
X798Y1119D01*
X794Y1119D01*
X794Y1121D01*
X792Y1121D01*
X792Y1125D01*
X790Y1125D01*
X790Y1127D01*
X770Y1127D01*
G37*
D02*
G36*
X244Y209D02*
X244Y207D01*
X1160Y207D01*
X1160Y209D01*
X244Y209D01*
G37*
D02*
G36*
X244Y209D02*
X244Y207D01*
X1160Y207D01*
X1160Y209D01*
X244Y209D01*
G37*
D02*
G36*
X244Y207D02*
X244Y197D01*
X242Y197D01*
X242Y189D01*
X240Y189D01*
X240Y185D01*
X238Y185D01*
X238Y181D01*
X236Y181D01*
X236Y179D01*
X234Y179D01*
X234Y175D01*
X232Y175D01*
X232Y173D01*
X230Y173D01*
X230Y171D01*
X228Y171D01*
X228Y169D01*
X224Y169D01*
X224Y167D01*
X222Y167D01*
X222Y165D01*
X218Y165D01*
X218Y163D01*
X216Y163D01*
X216Y143D01*
X220Y143D01*
X220Y141D01*
X224Y141D01*
X224Y139D01*
X226Y139D01*
X226Y137D01*
X228Y137D01*
X228Y135D01*
X230Y135D01*
X230Y133D01*
X232Y133D01*
X232Y131D01*
X234Y131D01*
X234Y129D01*
X236Y129D01*
X236Y127D01*
X238Y127D01*
X238Y123D01*
X240Y123D01*
X240Y117D01*
X242Y117D01*
X242Y109D01*
X244Y109D01*
X244Y97D01*
X242Y97D01*
X242Y89D01*
X240Y89D01*
X240Y85D01*
X238Y85D01*
X238Y81D01*
X236Y81D01*
X236Y79D01*
X234Y79D01*
X234Y75D01*
X232Y75D01*
X232Y73D01*
X230Y73D01*
X230Y71D01*
X228Y71D01*
X228Y69D01*
X224Y69D01*
X224Y67D01*
X222Y67D01*
X222Y65D01*
X218Y65D01*
X218Y63D01*
X212Y63D01*
X212Y61D01*
X1160Y61D01*
X1160Y207D01*
X244Y207D01*
G37*
D02*
G36*
X40Y89D02*
X40Y61D01*
X88Y61D01*
X88Y63D01*
X82Y63D01*
X82Y65D01*
X78Y65D01*
X78Y67D01*
X76Y67D01*
X76Y69D01*
X72Y69D01*
X72Y71D01*
X70Y71D01*
X70Y73D01*
X68Y73D01*
X68Y75D01*
X66Y75D01*
X66Y79D01*
X64Y79D01*
X64Y81D01*
X62Y81D01*
X62Y85D01*
X60Y85D01*
X60Y89D01*
X40Y89D01*
G37*
D02*
G36*
X140Y89D02*
X140Y85D01*
X138Y85D01*
X138Y81D01*
X136Y81D01*
X136Y79D01*
X134Y79D01*
X134Y75D01*
X132Y75D01*
X132Y73D01*
X130Y73D01*
X130Y71D01*
X128Y71D01*
X128Y69D01*
X124Y69D01*
X124Y67D01*
X122Y67D01*
X122Y65D01*
X118Y65D01*
X118Y63D01*
X112Y63D01*
X112Y61D01*
X188Y61D01*
X188Y63D01*
X182Y63D01*
X182Y65D01*
X178Y65D01*
X178Y67D01*
X176Y67D01*
X176Y69D01*
X172Y69D01*
X172Y71D01*
X170Y71D01*
X170Y73D01*
X168Y73D01*
X168Y75D01*
X166Y75D01*
X166Y79D01*
X164Y79D01*
X164Y81D01*
X162Y81D01*
X162Y85D01*
X160Y85D01*
X160Y89D01*
X140Y89D01*
G37*
D02*
G36*
X40Y61D02*
X40Y59D01*
X1160Y59D01*
X1160Y61D01*
X40Y61D01*
G37*
D02*
G36*
X40Y61D02*
X40Y59D01*
X1160Y59D01*
X1160Y61D01*
X40Y61D01*
G37*
D02*
G36*
X40Y61D02*
X40Y59D01*
X1160Y59D01*
X1160Y61D01*
X40Y61D01*
G37*
D02*
G36*
X40Y59D02*
X40Y41D01*
X1160Y41D01*
X1160Y59D01*
X40Y59D01*
G37*
D02*
G36*
X906Y1679D02*
X945Y1679D01*
X945Y1653D01*
X906Y1653D01*
X906Y1679D01*
G37*
D02*
G36*
X944Y1717D02*
X972Y1717D01*
X972Y1678D01*
X944Y1678D01*
X944Y1717D01*
G37*
D02*
G36*
X178Y87D02*
X217Y87D01*
X217Y61D01*
X178Y61D01*
X178Y87D01*
G37*
D02*
G36*
X216Y125D02*
X244Y125D01*
X244Y86D01*
X216Y86D01*
X216Y125D01*
G37*
D02*
G36*
X52Y1763D02*
X78Y1763D01*
X78Y1724D01*
X52Y1724D01*
X52Y1763D01*
G37*
D02*
G36*
X216Y1563D02*
X244Y1563D01*
X244Y1524D01*
X216Y1524D01*
X216Y1563D01*
G37*
D02*
G36*
X52Y1263D02*
X78Y1263D01*
X78Y1224D01*
X52Y1224D01*
X52Y1263D01*
G37*
D02*
G36*
X216Y763D02*
X244Y763D01*
X244Y724D01*
X216Y724D01*
X216Y763D01*
G37*
D02*
G36*
X178Y2289D02*
X217Y2289D01*
X217Y2263D01*
X178Y2263D01*
X178Y2289D01*
G37*
D02*
G36*
X216Y2263D02*
X244Y2263D01*
X244Y2224D01*
X216Y2224D01*
X216Y2263D01*
G37*
D02*
G36*
X52Y963D02*
X78Y963D01*
X78Y924D01*
X52Y924D01*
X52Y963D01*
G37*
D02*
G36*
X52Y1963D02*
X78Y1963D01*
X78Y1924D01*
X52Y1924D01*
X52Y1963D01*
G37*
D02*
G36*
X944Y1817D02*
X972Y1817D01*
X972Y1778D01*
X944Y1778D01*
X944Y1817D01*
G37*
D02*
G36*
X944Y1917D02*
X972Y1917D01*
X972Y1878D01*
X944Y1878D01*
X944Y1917D01*
G37*
D02*
G36*
X906Y2243D02*
X945Y2243D01*
X945Y2217D01*
X906Y2217D01*
X906Y2243D01*
G37*
D02*
G04 End of Copper1*
M02*