G04 MADE WITH FRITZING*
G04 WWW.FRITZING.ORG*
G04 DOUBLE SIDED*
G04 HOLES PLATED*
G04 CONTOUR ON CENTER OF CONTOUR VECTOR*
%ASAXBY*%
%FSLAX23Y23*%
%MOIN*%
%OFA0B0*%
%SFA1.0B1.0*%
%ADD10C,0.074000*%
%ADD11C,0.078000*%
%ADD12C,0.066929*%
%ADD13C,0.024000*%
%ADD14C,0.008000*%
%LNCOPPER0*%
G90*
G70*
G54D10*
X823Y251D03*
X823Y351D03*
X823Y451D03*
X823Y551D03*
X823Y651D03*
X823Y751D03*
X823Y851D03*
X823Y951D03*
X823Y1051D03*
X823Y1151D03*
X823Y1251D03*
X423Y451D03*
X423Y551D03*
X423Y651D03*
X423Y751D03*
X423Y851D03*
X423Y951D03*
X423Y1051D03*
X423Y1151D03*
G54D11*
X853Y2445D03*
X753Y2445D03*
X653Y2445D03*
X553Y2445D03*
X453Y2445D03*
X353Y2445D03*
G54D12*
X100Y2241D03*
X100Y2141D03*
X100Y2041D03*
X100Y1941D03*
X100Y1841D03*
X100Y1741D03*
X100Y1641D03*
X100Y1541D03*
X100Y1441D03*
X100Y1341D03*
X100Y1241D03*
X100Y1141D03*
X100Y1041D03*
X100Y941D03*
X100Y841D03*
X100Y741D03*
X100Y641D03*
X100Y541D03*
X100Y441D03*
X100Y341D03*
X100Y2241D03*
X100Y2141D03*
X100Y2041D03*
X100Y1941D03*
X100Y1841D03*
X100Y1741D03*
X100Y1641D03*
X100Y1541D03*
X100Y1441D03*
X100Y1341D03*
X100Y1241D03*
X100Y1141D03*
X100Y1041D03*
X100Y941D03*
X100Y841D03*
X100Y741D03*
X100Y641D03*
X100Y541D03*
X100Y441D03*
X100Y341D03*
X200Y341D03*
X200Y441D03*
X200Y541D03*
X200Y641D03*
X200Y741D03*
X200Y841D03*
X200Y941D03*
X200Y1041D03*
X200Y1141D03*
X200Y1241D03*
X200Y1341D03*
X200Y1441D03*
X200Y1541D03*
X200Y1641D03*
X200Y1741D03*
X200Y1841D03*
X200Y1941D03*
X200Y2041D03*
X200Y2141D03*
X200Y2241D03*
G54D13*
X344Y852D02*
X317Y812D01*
D02*
X317Y812D02*
X316Y475D01*
D02*
X316Y475D02*
X297Y447D01*
D02*
X392Y852D02*
X344Y852D01*
D02*
X297Y447D02*
X230Y443D01*
G54D14*
D02*
X462Y900D02*
X309Y900D01*
D02*
X309Y900D02*
X246Y990D01*
D02*
X246Y990D02*
X155Y990D01*
D02*
X478Y884D02*
X462Y900D01*
D02*
X474Y711D02*
X478Y884D01*
D02*
X155Y990D02*
X119Y1024D01*
D02*
X440Y671D02*
X474Y711D01*
G04 End of Copper0*
M02*