G04 MADE WITH FRITZING*
G04 WWW.FRITZING.ORG*
G04 DOUBLE SIDED*
G04 HOLES PLATED*
G04 CONTOUR ON CENTER OF CONTOUR VECTOR*
%ASAXBY*%
%FSLAX23Y23*%
%MOIN*%
%OFA0B0*%
%SFA1.0B1.0*%
%ADD10C,0.076929*%
%ADD11C,0.049370*%
%LNMASK0*%
G90*
G70*
G54D10*
X853Y2445D03*
X753Y2445D03*
X653Y2445D03*
X553Y2445D03*
X453Y2445D03*
X353Y2445D03*
X100Y2241D03*
X100Y2141D03*
X100Y2041D03*
X100Y1941D03*
X100Y1841D03*
X100Y1741D03*
X100Y1641D03*
X100Y1541D03*
X100Y1441D03*
X100Y1341D03*
X100Y1241D03*
X100Y1141D03*
X100Y1041D03*
X100Y941D03*
X100Y841D03*
X100Y741D03*
X100Y641D03*
X100Y541D03*
X100Y441D03*
X100Y341D03*
X100Y2241D03*
X100Y2141D03*
X100Y2041D03*
X100Y1941D03*
X100Y1841D03*
X100Y1741D03*
X100Y1641D03*
X100Y1541D03*
X100Y1441D03*
X100Y1341D03*
X100Y1241D03*
X100Y1141D03*
X100Y1041D03*
X100Y941D03*
X100Y841D03*
X100Y741D03*
X100Y641D03*
X100Y541D03*
X100Y441D03*
X100Y341D03*
X200Y341D03*
X200Y441D03*
X200Y541D03*
X200Y641D03*
X200Y741D03*
X200Y841D03*
X200Y941D03*
X200Y1041D03*
X200Y1141D03*
X200Y1241D03*
X200Y1341D03*
X200Y1441D03*
X200Y1541D03*
X200Y1641D03*
X200Y1741D03*
X200Y1841D03*
X200Y1941D03*
X200Y2041D03*
X200Y2141D03*
X200Y2241D03*
X423Y1153D03*
X423Y1053D03*
X423Y953D03*
X423Y853D03*
X423Y753D03*
X423Y653D03*
X423Y553D03*
X423Y453D03*
X824Y1251D03*
X824Y1151D03*
X824Y1051D03*
X824Y951D03*
X824Y851D03*
X824Y751D03*
X824Y651D03*
X824Y551D03*
X824Y451D03*
X824Y351D03*
X824Y251D03*
G54D11*
X470Y1002D03*
G54D10*
X100Y103D03*
X200Y103D03*
X100Y103D03*
X200Y103D03*
X200Y203D03*
X100Y203D03*
X928Y1995D03*
X928Y2095D03*
X928Y2195D03*
X928Y1995D03*
X928Y2095D03*
X928Y2195D03*
X828Y2195D03*
X828Y2095D03*
X828Y1995D03*
X928Y1696D03*
X928Y1796D03*
X928Y1896D03*
X928Y1696D03*
X928Y1796D03*
X928Y1896D03*
X828Y1896D03*
X828Y1796D03*
X828Y1696D03*
X1129Y1995D03*
X1129Y2095D03*
X1129Y2195D03*
X1129Y1995D03*
X1129Y2095D03*
X1129Y2195D03*
X1029Y2195D03*
X1029Y2095D03*
X1029Y1995D03*
G54D11*
X698Y1695D03*
G04 End of Mask0*
M02*