G04 MADE WITH FRITZING*
G04 WWW.FRITZING.ORG*
G04 DOUBLE SIDED*
G04 HOLES PLATED*
G04 CONTOUR ON CENTER OF CONTOUR VECTOR*
%ASAXBY*%
%FSLAX23Y23*%
%MOIN*%
%OFA0B0*%
%SFA1.0B1.0*%
%ADD10R,1.200790X2.586610X1.184790X2.570610*%
%ADD11C,0.008000*%
%ADD12R,0.001000X0.001000*%
%LNSILK1*%
G90*
G70*
G54D11*
X4Y2583D02*
X1197Y2583D01*
X1197Y4D01*
X4Y4D01*
X4Y2583D01*
D02*
G54D12*
X553Y2380D02*
X563Y2380D01*
X637Y2380D02*
X647Y2380D01*
X659Y2380D02*
X660Y2380D01*
X552Y2379D02*
X564Y2379D01*
X636Y2379D02*
X648Y2379D01*
X658Y2379D02*
X661Y2379D01*
X360Y2378D02*
X362Y2378D01*
X553Y2378D02*
X564Y2378D01*
X635Y2378D02*
X649Y2378D01*
X658Y2378D02*
X661Y2378D01*
X360Y2377D02*
X362Y2377D01*
X554Y2377D02*
X564Y2377D01*
X635Y2377D02*
X649Y2377D01*
X658Y2377D02*
X661Y2377D01*
X360Y2376D02*
X362Y2376D01*
X442Y2376D02*
X465Y2376D01*
X561Y2376D02*
X564Y2376D01*
X635Y2376D02*
X638Y2376D01*
X647Y2376D02*
X649Y2376D01*
X658Y2376D02*
X661Y2376D01*
X360Y2375D02*
X362Y2375D01*
X441Y2375D02*
X466Y2375D01*
X561Y2375D02*
X564Y2375D01*
X635Y2375D02*
X638Y2375D01*
X647Y2375D02*
X649Y2375D01*
X658Y2375D02*
X661Y2375D01*
X360Y2374D02*
X362Y2374D01*
X441Y2374D02*
X466Y2374D01*
X561Y2374D02*
X564Y2374D01*
X635Y2374D02*
X638Y2374D01*
X647Y2374D02*
X649Y2374D01*
X658Y2374D02*
X661Y2374D01*
X360Y2373D02*
X362Y2373D01*
X441Y2373D02*
X443Y2373D01*
X464Y2373D02*
X466Y2373D01*
X538Y2373D02*
X564Y2373D01*
X635Y2373D02*
X638Y2373D01*
X647Y2373D02*
X649Y2373D01*
X658Y2373D02*
X661Y2373D01*
X360Y2372D02*
X362Y2372D01*
X441Y2372D02*
X443Y2372D01*
X464Y2372D02*
X466Y2372D01*
X538Y2372D02*
X564Y2372D01*
X635Y2372D02*
X638Y2372D01*
X647Y2372D02*
X649Y2372D01*
X658Y2372D02*
X661Y2372D01*
X762Y2372D02*
X762Y2372D01*
X360Y2371D02*
X362Y2371D01*
X441Y2371D02*
X443Y2371D01*
X464Y2371D02*
X466Y2371D01*
X538Y2371D02*
X564Y2371D01*
X635Y2371D02*
X638Y2371D01*
X647Y2371D02*
X649Y2371D01*
X658Y2371D02*
X661Y2371D01*
X738Y2371D02*
X740Y2371D01*
X761Y2371D02*
X763Y2371D01*
X360Y2370D02*
X362Y2370D01*
X441Y2370D02*
X443Y2370D01*
X464Y2370D02*
X466Y2370D01*
X538Y2370D02*
X541Y2370D01*
X561Y2370D02*
X564Y2370D01*
X635Y2370D02*
X638Y2370D01*
X647Y2370D02*
X649Y2370D01*
X658Y2370D02*
X661Y2370D01*
X737Y2370D02*
X740Y2370D01*
X761Y2370D02*
X763Y2370D01*
X360Y2369D02*
X362Y2369D01*
X441Y2369D02*
X443Y2369D01*
X464Y2369D02*
X466Y2369D01*
X538Y2369D02*
X540Y2369D01*
X561Y2369D02*
X564Y2369D01*
X635Y2369D02*
X638Y2369D01*
X647Y2369D02*
X649Y2369D01*
X658Y2369D02*
X661Y2369D01*
X737Y2369D02*
X740Y2369D01*
X761Y2369D02*
X763Y2369D01*
X360Y2368D02*
X362Y2368D01*
X441Y2368D02*
X443Y2368D01*
X464Y2368D02*
X466Y2368D01*
X538Y2368D02*
X540Y2368D01*
X561Y2368D02*
X564Y2368D01*
X635Y2368D02*
X638Y2368D01*
X647Y2368D02*
X649Y2368D01*
X658Y2368D02*
X661Y2368D01*
X737Y2368D02*
X740Y2368D01*
X761Y2368D02*
X763Y2368D01*
X360Y2367D02*
X362Y2367D01*
X441Y2367D02*
X443Y2367D01*
X464Y2367D02*
X466Y2367D01*
X538Y2367D02*
X540Y2367D01*
X561Y2367D02*
X564Y2367D01*
X635Y2367D02*
X638Y2367D01*
X647Y2367D02*
X649Y2367D01*
X658Y2367D02*
X661Y2367D01*
X737Y2367D02*
X740Y2367D01*
X761Y2367D02*
X763Y2367D01*
X360Y2366D02*
X362Y2366D01*
X441Y2366D02*
X443Y2366D01*
X464Y2366D02*
X466Y2366D01*
X538Y2366D02*
X540Y2366D01*
X561Y2366D02*
X564Y2366D01*
X635Y2366D02*
X638Y2366D01*
X647Y2366D02*
X661Y2366D01*
X737Y2366D02*
X740Y2366D01*
X761Y2366D02*
X763Y2366D01*
X360Y2365D02*
X362Y2365D01*
X441Y2365D02*
X443Y2365D01*
X464Y2365D02*
X466Y2365D01*
X538Y2365D02*
X540Y2365D01*
X561Y2365D02*
X564Y2365D01*
X635Y2365D02*
X637Y2365D01*
X647Y2365D02*
X661Y2365D01*
X737Y2365D02*
X740Y2365D01*
X761Y2365D02*
X763Y2365D01*
X337Y2364D02*
X362Y2364D01*
X441Y2364D02*
X443Y2364D01*
X464Y2364D02*
X466Y2364D01*
X538Y2364D02*
X540Y2364D01*
X562Y2364D02*
X563Y2364D01*
X635Y2364D02*
X637Y2364D01*
X648Y2364D02*
X661Y2364D01*
X737Y2364D02*
X740Y2364D01*
X761Y2364D02*
X763Y2364D01*
X336Y2363D02*
X362Y2363D01*
X441Y2363D02*
X466Y2363D01*
X737Y2363D02*
X740Y2363D01*
X760Y2363D02*
X763Y2363D01*
X337Y2362D02*
X362Y2362D01*
X441Y2362D02*
X466Y2362D01*
X738Y2362D02*
X741Y2362D01*
X759Y2362D02*
X763Y2362D01*
X441Y2361D02*
X466Y2361D01*
X738Y2361D02*
X743Y2361D01*
X757Y2361D02*
X762Y2361D01*
X443Y2360D02*
X464Y2360D01*
X739Y2360D02*
X745Y2360D01*
X755Y2360D02*
X761Y2360D01*
X741Y2359D02*
X747Y2359D01*
X753Y2359D02*
X760Y2359D01*
X743Y2358D02*
X758Y2358D01*
X745Y2357D02*
X756Y2357D01*
X747Y2356D02*
X754Y2356D01*
X561Y2355D02*
X563Y2355D01*
X658Y2355D02*
X660Y2355D01*
X750Y2355D02*
X751Y2355D01*
X557Y2354D02*
X564Y2354D01*
X654Y2354D02*
X661Y2354D01*
X337Y2353D02*
X338Y2353D01*
X360Y2353D02*
X362Y2353D01*
X554Y2353D02*
X563Y2353D01*
X651Y2353D02*
X661Y2353D01*
X336Y2352D02*
X339Y2352D01*
X360Y2352D02*
X362Y2352D01*
X550Y2352D02*
X562Y2352D01*
X648Y2352D02*
X659Y2352D01*
X336Y2351D02*
X339Y2351D01*
X360Y2351D02*
X362Y2351D01*
X462Y2351D02*
X466Y2351D01*
X547Y2351D02*
X558Y2351D01*
X644Y2351D02*
X655Y2351D01*
X336Y2350D02*
X339Y2350D01*
X360Y2350D02*
X362Y2350D01*
X459Y2350D02*
X466Y2350D01*
X543Y2350D02*
X558Y2350D01*
X641Y2350D02*
X655Y2350D01*
X336Y2349D02*
X339Y2349D01*
X360Y2349D02*
X362Y2349D01*
X455Y2349D02*
X466Y2349D01*
X540Y2349D02*
X551Y2349D01*
X555Y2349D02*
X558Y2349D01*
X637Y2349D02*
X649Y2349D01*
X653Y2349D02*
X655Y2349D01*
X336Y2348D02*
X339Y2348D01*
X360Y2348D02*
X362Y2348D01*
X452Y2348D02*
X463Y2348D01*
X538Y2348D02*
X548Y2348D01*
X555Y2348D02*
X558Y2348D01*
X635Y2348D02*
X645Y2348D01*
X653Y2348D02*
X655Y2348D01*
X336Y2347D02*
X339Y2347D01*
X360Y2347D02*
X362Y2347D01*
X448Y2347D02*
X461Y2347D01*
X538Y2347D02*
X546Y2347D01*
X555Y2347D02*
X558Y2347D01*
X635Y2347D02*
X643Y2347D01*
X653Y2347D02*
X655Y2347D01*
X738Y2347D02*
X739Y2347D01*
X762Y2347D02*
X762Y2347D01*
X336Y2346D02*
X339Y2346D01*
X360Y2346D02*
X362Y2346D01*
X445Y2346D02*
X456Y2346D01*
X458Y2346D02*
X461Y2346D01*
X538Y2346D02*
X548Y2346D01*
X555Y2346D02*
X558Y2346D01*
X635Y2346D02*
X645Y2346D01*
X653Y2346D02*
X655Y2346D01*
X737Y2346D02*
X740Y2346D01*
X761Y2346D02*
X763Y2346D01*
X336Y2345D02*
X339Y2345D01*
X360Y2345D02*
X362Y2345D01*
X442Y2345D02*
X453Y2345D01*
X458Y2345D02*
X461Y2345D01*
X540Y2345D02*
X552Y2345D01*
X555Y2345D02*
X558Y2345D01*
X638Y2345D02*
X649Y2345D01*
X653Y2345D02*
X655Y2345D01*
X737Y2345D02*
X740Y2345D01*
X761Y2345D02*
X763Y2345D01*
X337Y2344D02*
X340Y2344D01*
X359Y2344D02*
X362Y2344D01*
X441Y2344D02*
X450Y2344D01*
X458Y2344D02*
X461Y2344D01*
X544Y2344D02*
X558Y2344D01*
X641Y2344D02*
X655Y2344D01*
X737Y2344D02*
X740Y2344D01*
X761Y2344D02*
X763Y2344D01*
X337Y2343D02*
X342Y2343D01*
X357Y2343D02*
X362Y2343D01*
X441Y2343D02*
X449Y2343D01*
X458Y2343D02*
X461Y2343D01*
X547Y2343D02*
X558Y2343D01*
X644Y2343D02*
X656Y2343D01*
X737Y2343D02*
X740Y2343D01*
X761Y2343D02*
X763Y2343D01*
X338Y2342D02*
X344Y2342D01*
X355Y2342D02*
X361Y2342D01*
X441Y2342D02*
X452Y2342D01*
X458Y2342D02*
X461Y2342D01*
X551Y2342D02*
X562Y2342D01*
X648Y2342D02*
X659Y2342D01*
X737Y2342D02*
X740Y2342D01*
X761Y2342D02*
X763Y2342D01*
X339Y2341D02*
X346Y2341D01*
X353Y2341D02*
X360Y2341D01*
X444Y2341D02*
X456Y2341D01*
X458Y2341D02*
X461Y2341D01*
X554Y2341D02*
X563Y2341D01*
X651Y2341D02*
X661Y2341D01*
X737Y2341D02*
X740Y2341D01*
X761Y2341D02*
X763Y2341D01*
X341Y2340D02*
X358Y2340D01*
X448Y2340D02*
X461Y2340D01*
X557Y2340D02*
X564Y2340D01*
X655Y2340D02*
X661Y2340D01*
X737Y2340D02*
X740Y2340D01*
X761Y2340D02*
X763Y2340D01*
X343Y2339D02*
X356Y2339D01*
X451Y2339D02*
X463Y2339D01*
X561Y2339D02*
X563Y2339D01*
X658Y2339D02*
X660Y2339D01*
X737Y2339D02*
X740Y2339D01*
X761Y2339D02*
X763Y2339D01*
X345Y2338D02*
X354Y2338D01*
X455Y2338D02*
X465Y2338D01*
X737Y2338D02*
X740Y2338D01*
X760Y2338D02*
X763Y2338D01*
X347Y2337D02*
X351Y2337D01*
X458Y2337D02*
X466Y2337D01*
X738Y2337D02*
X742Y2337D01*
X759Y2337D02*
X763Y2337D01*
X461Y2336D02*
X466Y2336D01*
X738Y2336D02*
X744Y2336D01*
X757Y2336D02*
X762Y2336D01*
X465Y2335D02*
X465Y2335D01*
X739Y2335D02*
X746Y2335D01*
X755Y2335D02*
X761Y2335D01*
X741Y2334D02*
X748Y2334D01*
X753Y2334D02*
X759Y2334D01*
X743Y2333D02*
X757Y2333D01*
X745Y2332D02*
X755Y2332D01*
X747Y2331D02*
X753Y2331D01*
X548Y2330D02*
X554Y2330D01*
X645Y2330D02*
X651Y2330D01*
X546Y2329D02*
X556Y2329D01*
X643Y2329D02*
X653Y2329D01*
X338Y2328D02*
X341Y2328D01*
X357Y2328D02*
X361Y2328D01*
X544Y2328D02*
X558Y2328D01*
X641Y2328D02*
X655Y2328D01*
X337Y2327D02*
X342Y2327D01*
X356Y2327D02*
X362Y2327D01*
X452Y2327D02*
X455Y2327D01*
X542Y2327D02*
X549Y2327D01*
X553Y2327D02*
X560Y2327D01*
X639Y2327D02*
X646Y2327D01*
X650Y2327D02*
X657Y2327D01*
X337Y2326D02*
X341Y2326D01*
X354Y2326D02*
X362Y2326D01*
X450Y2326D02*
X457Y2326D01*
X540Y2326D02*
X546Y2326D01*
X555Y2326D02*
X562Y2326D01*
X637Y2326D02*
X644Y2326D01*
X652Y2326D02*
X659Y2326D01*
X337Y2325D02*
X339Y2325D01*
X353Y2325D02*
X358Y2325D01*
X360Y2325D02*
X362Y2325D01*
X448Y2325D02*
X459Y2325D01*
X539Y2325D02*
X545Y2325D01*
X557Y2325D02*
X563Y2325D01*
X636Y2325D02*
X642Y2325D01*
X654Y2325D02*
X660Y2325D01*
X336Y2324D02*
X339Y2324D01*
X352Y2324D02*
X357Y2324D01*
X360Y2324D02*
X362Y2324D01*
X446Y2324D02*
X461Y2324D01*
X538Y2324D02*
X543Y2324D01*
X559Y2324D02*
X563Y2324D01*
X636Y2324D02*
X640Y2324D01*
X656Y2324D02*
X660Y2324D01*
X336Y2323D02*
X339Y2323D01*
X350Y2323D02*
X355Y2323D01*
X360Y2323D02*
X362Y2323D01*
X444Y2323D02*
X450Y2323D01*
X456Y2323D02*
X463Y2323D01*
X538Y2323D02*
X541Y2323D01*
X561Y2323D02*
X563Y2323D01*
X635Y2323D02*
X638Y2323D01*
X658Y2323D02*
X661Y2323D01*
X336Y2322D02*
X339Y2322D01*
X349Y2322D02*
X354Y2322D01*
X360Y2322D02*
X362Y2322D01*
X442Y2322D02*
X449Y2322D01*
X458Y2322D02*
X465Y2322D01*
X538Y2322D02*
X540Y2322D01*
X561Y2322D02*
X564Y2322D01*
X635Y2322D02*
X638Y2322D01*
X658Y2322D02*
X661Y2322D01*
X738Y2322D02*
X745Y2322D01*
X336Y2321D02*
X339Y2321D01*
X348Y2321D02*
X353Y2321D01*
X360Y2321D02*
X362Y2321D01*
X441Y2321D02*
X447Y2321D01*
X460Y2321D02*
X466Y2321D01*
X538Y2321D02*
X540Y2321D01*
X561Y2321D02*
X564Y2321D01*
X635Y2321D02*
X638Y2321D01*
X658Y2321D02*
X661Y2321D01*
X737Y2321D02*
X748Y2321D01*
X336Y2320D02*
X339Y2320D01*
X347Y2320D02*
X351Y2320D01*
X360Y2320D02*
X362Y2320D01*
X441Y2320D02*
X445Y2320D01*
X462Y2320D02*
X466Y2320D01*
X538Y2320D02*
X564Y2320D01*
X635Y2320D02*
X661Y2320D01*
X738Y2320D02*
X751Y2320D01*
X336Y2319D02*
X339Y2319D01*
X345Y2319D02*
X350Y2319D01*
X360Y2319D02*
X362Y2319D01*
X441Y2319D02*
X443Y2319D01*
X464Y2319D02*
X466Y2319D01*
X538Y2319D02*
X564Y2319D01*
X635Y2319D02*
X661Y2319D01*
X739Y2319D02*
X753Y2319D01*
X336Y2318D02*
X339Y2318D01*
X344Y2318D02*
X349Y2318D01*
X360Y2318D02*
X362Y2318D01*
X441Y2318D02*
X443Y2318D01*
X464Y2318D02*
X466Y2318D01*
X538Y2318D02*
X564Y2318D01*
X635Y2318D02*
X661Y2318D01*
X747Y2318D02*
X756Y2318D01*
X336Y2317D02*
X339Y2317D01*
X343Y2317D02*
X348Y2317D01*
X360Y2317D02*
X362Y2317D01*
X441Y2317D02*
X443Y2317D01*
X464Y2317D02*
X466Y2317D01*
X538Y2317D02*
X541Y2317D01*
X561Y2317D02*
X564Y2317D01*
X635Y2317D02*
X638Y2317D01*
X658Y2317D02*
X661Y2317D01*
X750Y2317D02*
X758Y2317D01*
X336Y2316D02*
X339Y2316D01*
X341Y2316D02*
X346Y2316D01*
X360Y2316D02*
X362Y2316D01*
X441Y2316D02*
X466Y2316D01*
X538Y2316D02*
X540Y2316D01*
X561Y2316D02*
X564Y2316D01*
X635Y2316D02*
X638Y2316D01*
X658Y2316D02*
X661Y2316D01*
X752Y2316D02*
X761Y2316D01*
X336Y2315D02*
X345Y2315D01*
X358Y2315D02*
X362Y2315D01*
X441Y2315D02*
X466Y2315D01*
X538Y2315D02*
X540Y2315D01*
X561Y2315D02*
X564Y2315D01*
X635Y2315D02*
X637Y2315D01*
X658Y2315D02*
X661Y2315D01*
X755Y2315D02*
X763Y2315D01*
X337Y2314D02*
X344Y2314D01*
X357Y2314D02*
X361Y2314D01*
X441Y2314D02*
X466Y2314D01*
X539Y2314D02*
X539Y2314D01*
X562Y2314D02*
X563Y2314D01*
X636Y2314D02*
X637Y2314D01*
X659Y2314D02*
X660Y2314D01*
X757Y2314D02*
X763Y2314D01*
X337Y2313D02*
X342Y2313D01*
X357Y2313D02*
X361Y2313D01*
X441Y2313D02*
X443Y2313D01*
X464Y2313D02*
X466Y2313D01*
X755Y2313D02*
X763Y2313D01*
X339Y2312D02*
X341Y2312D01*
X358Y2312D02*
X359Y2312D01*
X441Y2312D02*
X443Y2312D01*
X464Y2312D02*
X466Y2312D01*
X753Y2312D02*
X761Y2312D01*
X441Y2311D02*
X443Y2311D01*
X464Y2311D02*
X466Y2311D01*
X750Y2311D02*
X759Y2311D01*
X748Y2310D02*
X756Y2310D01*
X745Y2309D02*
X754Y2309D01*
X738Y2308D02*
X751Y2308D01*
X737Y2307D02*
X749Y2307D01*
X738Y2306D02*
X746Y2306D01*
X540Y2305D02*
X543Y2305D01*
X558Y2305D02*
X562Y2305D01*
X637Y2305D02*
X640Y2305D01*
X655Y2305D02*
X659Y2305D01*
X539Y2304D02*
X543Y2304D01*
X557Y2304D02*
X563Y2304D01*
X636Y2304D02*
X640Y2304D01*
X654Y2304D02*
X660Y2304D01*
X538Y2303D02*
X543Y2303D01*
X555Y2303D02*
X563Y2303D01*
X635Y2303D02*
X640Y2303D01*
X653Y2303D02*
X661Y2303D01*
X443Y2302D02*
X445Y2302D01*
X462Y2302D02*
X464Y2302D01*
X538Y2302D02*
X541Y2302D01*
X554Y2302D02*
X559Y2302D01*
X561Y2302D02*
X564Y2302D01*
X635Y2302D02*
X638Y2302D01*
X651Y2302D02*
X656Y2302D01*
X658Y2302D02*
X661Y2302D01*
X442Y2301D02*
X446Y2301D01*
X460Y2301D02*
X465Y2301D01*
X538Y2301D02*
X540Y2301D01*
X553Y2301D02*
X558Y2301D01*
X561Y2301D02*
X564Y2301D01*
X635Y2301D02*
X638Y2301D01*
X650Y2301D02*
X655Y2301D01*
X658Y2301D02*
X661Y2301D01*
X441Y2300D02*
X446Y2300D01*
X459Y2300D02*
X466Y2300D01*
X538Y2300D02*
X540Y2300D01*
X552Y2300D02*
X556Y2300D01*
X561Y2300D02*
X564Y2300D01*
X635Y2300D02*
X638Y2300D01*
X649Y2300D02*
X654Y2300D01*
X658Y2300D02*
X661Y2300D01*
X441Y2299D02*
X445Y2299D01*
X458Y2299D02*
X466Y2299D01*
X538Y2299D02*
X540Y2299D01*
X550Y2299D02*
X555Y2299D01*
X561Y2299D02*
X564Y2299D01*
X635Y2299D02*
X638Y2299D01*
X648Y2299D02*
X652Y2299D01*
X658Y2299D02*
X661Y2299D01*
X441Y2298D02*
X443Y2298D01*
X456Y2298D02*
X461Y2298D01*
X464Y2298D02*
X466Y2298D01*
X538Y2298D02*
X540Y2298D01*
X549Y2298D02*
X554Y2298D01*
X561Y2298D02*
X564Y2298D01*
X635Y2298D02*
X638Y2298D01*
X646Y2298D02*
X651Y2298D01*
X658Y2298D02*
X661Y2298D01*
X441Y2297D02*
X443Y2297D01*
X455Y2297D02*
X460Y2297D01*
X464Y2297D02*
X466Y2297D01*
X538Y2297D02*
X540Y2297D01*
X548Y2297D02*
X553Y2297D01*
X561Y2297D02*
X564Y2297D01*
X635Y2297D02*
X638Y2297D01*
X645Y2297D02*
X650Y2297D01*
X658Y2297D02*
X661Y2297D01*
X441Y2296D02*
X443Y2296D01*
X454Y2296D02*
X459Y2296D01*
X464Y2296D02*
X466Y2296D01*
X538Y2296D02*
X540Y2296D01*
X547Y2296D02*
X551Y2296D01*
X561Y2296D02*
X564Y2296D01*
X635Y2296D02*
X638Y2296D01*
X644Y2296D02*
X649Y2296D01*
X658Y2296D02*
X661Y2296D01*
X441Y2295D02*
X443Y2295D01*
X453Y2295D02*
X457Y2295D01*
X464Y2295D02*
X466Y2295D01*
X538Y2295D02*
X540Y2295D01*
X545Y2295D02*
X550Y2295D01*
X561Y2295D02*
X564Y2295D01*
X635Y2295D02*
X638Y2295D01*
X642Y2295D02*
X647Y2295D01*
X658Y2295D02*
X661Y2295D01*
X441Y2294D02*
X443Y2294D01*
X451Y2294D02*
X456Y2294D01*
X464Y2294D02*
X466Y2294D01*
X538Y2294D02*
X540Y2294D01*
X544Y2294D02*
X549Y2294D01*
X561Y2294D02*
X564Y2294D01*
X635Y2294D02*
X638Y2294D01*
X641Y2294D02*
X646Y2294D01*
X658Y2294D02*
X661Y2294D01*
X441Y2293D02*
X443Y2293D01*
X450Y2293D02*
X455Y2293D01*
X464Y2293D02*
X466Y2293D01*
X538Y2293D02*
X540Y2293D01*
X543Y2293D02*
X547Y2293D01*
X561Y2293D02*
X564Y2293D01*
X635Y2293D02*
X638Y2293D01*
X640Y2293D02*
X645Y2293D01*
X658Y2293D02*
X661Y2293D01*
X441Y2292D02*
X443Y2292D01*
X449Y2292D02*
X454Y2292D01*
X464Y2292D02*
X466Y2292D01*
X538Y2292D02*
X546Y2292D01*
X559Y2292D02*
X563Y2292D01*
X635Y2292D02*
X643Y2292D01*
X656Y2292D02*
X661Y2292D01*
X441Y2291D02*
X443Y2291D01*
X448Y2291D02*
X452Y2291D01*
X464Y2291D02*
X466Y2291D01*
X538Y2291D02*
X545Y2291D01*
X558Y2291D02*
X563Y2291D01*
X636Y2291D02*
X642Y2291D01*
X656Y2291D02*
X660Y2291D01*
X441Y2290D02*
X443Y2290D01*
X446Y2290D02*
X451Y2290D01*
X464Y2290D02*
X466Y2290D01*
X539Y2290D02*
X544Y2290D01*
X558Y2290D02*
X562Y2290D01*
X636Y2290D02*
X641Y2290D01*
X656Y2290D02*
X659Y2290D01*
X441Y2289D02*
X443Y2289D01*
X445Y2289D02*
X450Y2289D01*
X463Y2289D02*
X466Y2289D01*
X541Y2289D02*
X541Y2289D01*
X560Y2289D02*
X560Y2289D01*
X638Y2289D02*
X639Y2289D01*
X657Y2289D02*
X657Y2289D01*
X441Y2288D02*
X448Y2288D01*
X461Y2288D02*
X466Y2288D01*
X441Y2287D02*
X447Y2287D01*
X461Y2287D02*
X465Y2287D01*
X442Y2286D02*
X446Y2286D01*
X461Y2286D02*
X464Y2286D01*
X896Y1165D02*
X898Y1165D01*
X910Y1165D02*
X912Y1165D01*
X927Y1165D02*
X937Y1165D01*
X952Y1165D02*
X961Y1165D01*
X896Y1164D02*
X899Y1164D01*
X910Y1164D02*
X912Y1164D01*
X926Y1164D02*
X937Y1164D01*
X951Y1164D02*
X962Y1164D01*
X896Y1163D02*
X899Y1163D01*
X910Y1163D02*
X912Y1163D01*
X925Y1163D02*
X937Y1163D01*
X950Y1163D02*
X961Y1163D01*
X896Y1162D02*
X899Y1162D01*
X910Y1162D02*
X912Y1162D01*
X925Y1162D02*
X928Y1162D01*
X949Y1162D02*
X953Y1162D01*
X896Y1161D02*
X899Y1161D01*
X910Y1161D02*
X912Y1161D01*
X924Y1161D02*
X927Y1161D01*
X949Y1161D02*
X952Y1161D01*
X896Y1160D02*
X899Y1160D01*
X910Y1160D02*
X912Y1160D01*
X924Y1160D02*
X927Y1160D01*
X948Y1160D02*
X951Y1160D01*
X896Y1159D02*
X899Y1159D01*
X910Y1159D02*
X912Y1159D01*
X923Y1159D02*
X926Y1159D01*
X948Y1159D02*
X951Y1159D01*
X896Y1158D02*
X899Y1158D01*
X910Y1158D02*
X912Y1158D01*
X923Y1158D02*
X926Y1158D01*
X947Y1158D02*
X950Y1158D01*
X896Y1157D02*
X899Y1157D01*
X909Y1157D02*
X912Y1157D01*
X922Y1157D02*
X925Y1157D01*
X947Y1157D02*
X950Y1157D01*
X897Y1156D02*
X900Y1156D01*
X909Y1156D02*
X911Y1156D01*
X922Y1156D02*
X925Y1156D01*
X947Y1156D02*
X949Y1156D01*
X897Y1155D02*
X900Y1155D01*
X908Y1155D02*
X911Y1155D01*
X921Y1155D02*
X924Y1155D01*
X946Y1155D02*
X949Y1155D01*
X898Y1154D02*
X900Y1154D01*
X908Y1154D02*
X911Y1154D01*
X921Y1154D02*
X924Y1154D01*
X946Y1154D02*
X948Y1154D01*
X898Y1153D02*
X901Y1153D01*
X908Y1153D02*
X910Y1153D01*
X921Y1153D02*
X923Y1153D01*
X946Y1153D02*
X948Y1153D01*
X898Y1152D02*
X901Y1152D01*
X907Y1152D02*
X910Y1152D01*
X921Y1152D02*
X923Y1152D01*
X946Y1152D02*
X948Y1152D01*
X899Y1151D02*
X901Y1151D01*
X907Y1151D02*
X910Y1151D01*
X921Y1151D02*
X924Y1151D01*
X946Y1151D02*
X948Y1151D01*
X899Y1150D02*
X902Y1150D01*
X906Y1150D02*
X909Y1150D01*
X921Y1150D02*
X924Y1150D01*
X946Y1150D02*
X949Y1150D01*
X899Y1149D02*
X902Y1149D01*
X906Y1149D02*
X909Y1149D01*
X922Y1149D02*
X924Y1149D01*
X946Y1149D02*
X949Y1149D01*
X900Y1148D02*
X903Y1148D01*
X906Y1148D02*
X908Y1148D01*
X922Y1148D02*
X925Y1148D01*
X947Y1148D02*
X950Y1148D01*
X900Y1147D02*
X903Y1147D01*
X905Y1147D02*
X908Y1147D01*
X923Y1147D02*
X925Y1147D01*
X947Y1147D02*
X950Y1147D01*
X901Y1146D02*
X908Y1146D01*
X923Y1146D02*
X926Y1146D01*
X948Y1146D02*
X951Y1146D01*
X901Y1145D02*
X907Y1145D01*
X924Y1145D02*
X926Y1145D01*
X948Y1145D02*
X951Y1145D01*
X901Y1144D02*
X907Y1144D01*
X924Y1144D02*
X927Y1144D01*
X949Y1144D02*
X952Y1144D01*
X902Y1143D02*
X906Y1143D01*
X925Y1143D02*
X928Y1143D01*
X949Y1143D02*
X952Y1143D01*
X902Y1142D02*
X906Y1142D01*
X925Y1142D02*
X936Y1142D01*
X950Y1142D02*
X961Y1142D01*
X903Y1141D02*
X906Y1141D01*
X926Y1141D02*
X937Y1141D01*
X951Y1141D02*
X962Y1141D01*
X903Y1140D02*
X905Y1140D01*
X927Y1140D02*
X937Y1140D01*
X952Y1140D02*
X962Y1140D01*
X904Y1139D02*
X904Y1139D01*
X929Y1139D02*
X936Y1139D01*
X954Y1139D02*
X960Y1139D01*
X130Y1110D02*
X143Y1110D01*
X153Y1110D02*
X154Y1110D01*
X130Y1109D02*
X144Y1109D01*
X152Y1109D02*
X154Y1109D01*
X131Y1108D02*
X144Y1108D01*
X152Y1108D02*
X154Y1108D01*
X142Y1107D02*
X144Y1107D01*
X152Y1107D02*
X154Y1107D01*
X162Y1107D02*
X163Y1107D01*
X142Y1106D02*
X144Y1106D01*
X152Y1106D02*
X154Y1106D01*
X161Y1106D02*
X164Y1106D01*
X142Y1105D02*
X144Y1105D01*
X152Y1105D02*
X154Y1105D01*
X161Y1105D02*
X164Y1105D01*
X142Y1104D02*
X144Y1104D01*
X152Y1104D02*
X154Y1104D01*
X161Y1104D02*
X164Y1104D01*
X142Y1103D02*
X144Y1103D01*
X152Y1103D02*
X154Y1103D01*
X161Y1103D02*
X164Y1103D01*
X142Y1102D02*
X144Y1102D01*
X152Y1102D02*
X154Y1102D01*
X161Y1102D02*
X164Y1102D01*
X142Y1101D02*
X144Y1101D01*
X152Y1101D02*
X154Y1101D01*
X161Y1101D02*
X164Y1101D01*
X132Y1100D02*
X144Y1100D01*
X152Y1100D02*
X154Y1100D01*
X161Y1100D02*
X164Y1100D01*
X130Y1099D02*
X144Y1099D01*
X152Y1099D02*
X154Y1099D01*
X161Y1099D02*
X164Y1099D01*
X130Y1098D02*
X143Y1098D01*
X152Y1098D02*
X155Y1098D01*
X161Y1098D02*
X164Y1098D01*
X130Y1097D02*
X132Y1097D01*
X152Y1097D02*
X165Y1097D01*
X130Y1096D02*
X132Y1096D01*
X152Y1096D02*
X165Y1096D01*
X130Y1095D02*
X132Y1095D01*
X153Y1095D02*
X164Y1095D01*
X130Y1094D02*
X132Y1094D01*
X161Y1094D02*
X164Y1094D01*
X130Y1093D02*
X132Y1093D01*
X161Y1093D02*
X164Y1093D01*
X130Y1092D02*
X132Y1092D01*
X161Y1092D02*
X164Y1092D01*
X130Y1091D02*
X132Y1091D01*
X161Y1091D02*
X164Y1091D01*
X130Y1090D02*
X143Y1090D01*
X161Y1090D02*
X164Y1090D01*
X130Y1089D02*
X144Y1089D01*
X161Y1089D02*
X164Y1089D01*
X130Y1088D02*
X144Y1088D01*
X162Y1088D02*
X163Y1088D01*
X476Y1068D02*
X476Y1068D01*
X495Y1068D02*
X501Y1068D01*
X519Y1068D02*
X526Y1068D01*
X461Y1067D02*
X464Y1067D01*
X475Y1067D02*
X477Y1067D01*
X492Y1067D02*
X502Y1067D01*
X517Y1067D02*
X527Y1067D01*
X905Y1067D02*
X913Y1067D01*
X922Y1067D02*
X926Y1067D01*
X936Y1067D02*
X938Y1067D01*
X948Y1067D02*
X956Y1067D01*
X461Y1066D02*
X464Y1066D01*
X475Y1066D02*
X477Y1066D01*
X491Y1066D02*
X502Y1066D01*
X516Y1066D02*
X527Y1066D01*
X904Y1066D02*
X913Y1066D01*
X922Y1066D02*
X926Y1066D01*
X936Y1066D02*
X938Y1066D01*
X947Y1066D02*
X958Y1066D01*
X461Y1065D02*
X464Y1065D01*
X475Y1065D02*
X477Y1065D01*
X490Y1065D02*
X501Y1065D01*
X515Y1065D02*
X526Y1065D01*
X903Y1065D02*
X913Y1065D01*
X922Y1065D02*
X927Y1065D01*
X936Y1065D02*
X938Y1065D01*
X947Y1065D02*
X958Y1065D01*
X461Y1064D02*
X464Y1064D01*
X475Y1064D02*
X477Y1064D01*
X490Y1064D02*
X493Y1064D01*
X515Y1064D02*
X518Y1064D01*
X902Y1064D02*
X907Y1064D01*
X922Y1064D02*
X927Y1064D01*
X936Y1064D02*
X938Y1064D01*
X950Y1064D02*
X953Y1064D01*
X955Y1064D02*
X959Y1064D01*
X461Y1063D02*
X464Y1063D01*
X475Y1063D02*
X477Y1063D01*
X489Y1063D02*
X492Y1063D01*
X514Y1063D02*
X517Y1063D01*
X902Y1063D02*
X905Y1063D01*
X922Y1063D02*
X928Y1063D01*
X936Y1063D02*
X938Y1063D01*
X950Y1063D02*
X953Y1063D01*
X957Y1063D02*
X960Y1063D01*
X461Y1062D02*
X464Y1062D01*
X475Y1062D02*
X477Y1062D01*
X489Y1062D02*
X492Y1062D01*
X514Y1062D02*
X516Y1062D01*
X901Y1062D02*
X904Y1062D01*
X922Y1062D02*
X928Y1062D01*
X936Y1062D02*
X938Y1062D01*
X950Y1062D02*
X953Y1062D01*
X957Y1062D02*
X960Y1062D01*
X461Y1061D02*
X464Y1061D01*
X475Y1061D02*
X477Y1061D01*
X488Y1061D02*
X491Y1061D01*
X513Y1061D02*
X516Y1061D01*
X900Y1061D02*
X903Y1061D01*
X922Y1061D02*
X929Y1061D01*
X936Y1061D02*
X938Y1061D01*
X950Y1061D02*
X953Y1061D01*
X958Y1061D02*
X961Y1061D01*
X461Y1060D02*
X464Y1060D01*
X475Y1060D02*
X477Y1060D01*
X488Y1060D02*
X491Y1060D01*
X513Y1060D02*
X515Y1060D01*
X899Y1060D02*
X903Y1060D01*
X922Y1060D02*
X929Y1060D01*
X936Y1060D02*
X938Y1060D01*
X950Y1060D02*
X953Y1060D01*
X958Y1060D02*
X961Y1060D01*
X462Y1059D02*
X464Y1059D01*
X474Y1059D02*
X477Y1059D01*
X487Y1059D02*
X490Y1059D01*
X512Y1059D02*
X515Y1059D01*
X899Y1059D02*
X902Y1059D01*
X922Y1059D02*
X925Y1059D01*
X927Y1059D02*
X930Y1059D01*
X936Y1059D02*
X938Y1059D01*
X950Y1059D02*
X953Y1059D01*
X959Y1059D02*
X962Y1059D01*
X462Y1058D02*
X465Y1058D01*
X474Y1058D02*
X477Y1058D01*
X487Y1058D02*
X490Y1058D01*
X512Y1058D02*
X514Y1058D01*
X898Y1058D02*
X901Y1058D01*
X922Y1058D02*
X925Y1058D01*
X927Y1058D02*
X930Y1058D01*
X936Y1058D02*
X938Y1058D01*
X950Y1058D02*
X953Y1058D01*
X959Y1058D02*
X962Y1058D01*
X462Y1057D02*
X465Y1057D01*
X473Y1057D02*
X476Y1057D01*
X486Y1057D02*
X489Y1057D01*
X511Y1057D02*
X514Y1057D01*
X898Y1057D02*
X900Y1057D01*
X922Y1057D02*
X925Y1057D01*
X928Y1057D02*
X930Y1057D01*
X936Y1057D02*
X938Y1057D01*
X950Y1057D02*
X953Y1057D01*
X960Y1057D02*
X962Y1057D01*
X246Y1056D02*
X258Y1056D01*
X268Y1056D02*
X280Y1056D01*
X463Y1056D02*
X466Y1056D01*
X473Y1056D02*
X476Y1056D01*
X486Y1056D02*
X489Y1056D01*
X511Y1056D02*
X514Y1056D01*
X898Y1056D02*
X900Y1056D01*
X922Y1056D02*
X925Y1056D01*
X928Y1056D02*
X931Y1056D01*
X936Y1056D02*
X938Y1056D01*
X950Y1056D02*
X953Y1056D01*
X960Y1056D02*
X963Y1056D01*
X246Y1055D02*
X259Y1055D01*
X268Y1055D02*
X281Y1055D01*
X463Y1055D02*
X466Y1055D01*
X473Y1055D02*
X475Y1055D01*
X486Y1055D02*
X489Y1055D01*
X511Y1055D02*
X513Y1055D01*
X897Y1055D02*
X900Y1055D01*
X922Y1055D02*
X925Y1055D01*
X928Y1055D02*
X931Y1055D01*
X936Y1055D02*
X938Y1055D01*
X950Y1055D02*
X953Y1055D01*
X961Y1055D02*
X963Y1055D01*
X246Y1054D02*
X260Y1054D01*
X268Y1054D02*
X282Y1054D01*
X464Y1054D02*
X466Y1054D01*
X472Y1054D02*
X475Y1054D01*
X486Y1054D02*
X489Y1054D01*
X511Y1054D02*
X513Y1054D01*
X897Y1054D02*
X900Y1054D01*
X922Y1054D02*
X925Y1054D01*
X929Y1054D02*
X932Y1054D01*
X936Y1054D02*
X938Y1054D01*
X950Y1054D02*
X953Y1054D01*
X961Y1054D02*
X963Y1054D01*
X258Y1053D02*
X260Y1053D01*
X280Y1053D02*
X282Y1053D01*
X464Y1053D02*
X467Y1053D01*
X472Y1053D02*
X475Y1053D01*
X486Y1053D02*
X489Y1053D01*
X511Y1053D02*
X514Y1053D01*
X897Y1053D02*
X900Y1053D01*
X922Y1053D02*
X925Y1053D01*
X929Y1053D02*
X932Y1053D01*
X936Y1053D02*
X938Y1053D01*
X950Y1053D02*
X953Y1053D01*
X960Y1053D02*
X963Y1053D01*
X258Y1052D02*
X260Y1052D01*
X280Y1052D02*
X282Y1052D01*
X464Y1052D02*
X467Y1052D01*
X471Y1052D02*
X474Y1052D01*
X487Y1052D02*
X489Y1052D01*
X511Y1052D02*
X514Y1052D01*
X897Y1052D02*
X900Y1052D01*
X906Y1052D02*
X914Y1052D01*
X922Y1052D02*
X925Y1052D01*
X930Y1052D02*
X933Y1052D01*
X936Y1052D02*
X938Y1052D01*
X950Y1052D02*
X953Y1052D01*
X960Y1052D02*
X963Y1052D01*
X258Y1051D02*
X260Y1051D01*
X280Y1051D02*
X282Y1051D01*
X465Y1051D02*
X468Y1051D01*
X471Y1051D02*
X474Y1051D01*
X487Y1051D02*
X490Y1051D01*
X512Y1051D02*
X515Y1051D01*
X897Y1051D02*
X900Y1051D01*
X906Y1051D02*
X914Y1051D01*
X922Y1051D02*
X925Y1051D01*
X930Y1051D02*
X933Y1051D01*
X936Y1051D02*
X938Y1051D01*
X950Y1051D02*
X953Y1051D01*
X960Y1051D02*
X962Y1051D01*
X258Y1050D02*
X260Y1050D01*
X280Y1050D02*
X282Y1050D01*
X465Y1050D02*
X468Y1050D01*
X471Y1050D02*
X473Y1050D01*
X487Y1050D02*
X490Y1050D01*
X512Y1050D02*
X515Y1050D01*
X897Y1050D02*
X900Y1050D01*
X906Y1050D02*
X914Y1050D01*
X922Y1050D02*
X925Y1050D01*
X931Y1050D02*
X933Y1050D01*
X936Y1050D02*
X938Y1050D01*
X950Y1050D02*
X953Y1050D01*
X959Y1050D02*
X962Y1050D01*
X258Y1049D02*
X260Y1049D01*
X280Y1049D02*
X282Y1049D01*
X466Y1049D02*
X468Y1049D01*
X470Y1049D02*
X473Y1049D01*
X488Y1049D02*
X491Y1049D01*
X513Y1049D02*
X516Y1049D01*
X897Y1049D02*
X900Y1049D01*
X911Y1049D02*
X914Y1049D01*
X922Y1049D02*
X925Y1049D01*
X931Y1049D02*
X934Y1049D01*
X936Y1049D02*
X938Y1049D01*
X950Y1049D02*
X953Y1049D01*
X959Y1049D02*
X962Y1049D01*
X258Y1048D02*
X260Y1048D01*
X280Y1048D02*
X282Y1048D01*
X466Y1048D02*
X473Y1048D01*
X488Y1048D02*
X491Y1048D01*
X513Y1048D02*
X516Y1048D01*
X897Y1048D02*
X900Y1048D01*
X911Y1048D02*
X914Y1048D01*
X922Y1048D02*
X925Y1048D01*
X932Y1048D02*
X934Y1048D01*
X936Y1048D02*
X938Y1048D01*
X950Y1048D02*
X953Y1048D01*
X958Y1048D02*
X961Y1048D01*
X258Y1047D02*
X260Y1047D01*
X280Y1047D02*
X282Y1047D01*
X466Y1047D02*
X472Y1047D01*
X489Y1047D02*
X492Y1047D01*
X514Y1047D02*
X517Y1047D01*
X897Y1047D02*
X900Y1047D01*
X911Y1047D02*
X914Y1047D01*
X922Y1047D02*
X925Y1047D01*
X932Y1047D02*
X938Y1047D01*
X950Y1047D02*
X953Y1047D01*
X958Y1047D02*
X961Y1047D01*
X248Y1046D02*
X260Y1046D01*
X269Y1046D02*
X282Y1046D01*
X467Y1046D02*
X472Y1046D01*
X489Y1046D02*
X492Y1046D01*
X514Y1046D02*
X517Y1046D01*
X897Y1046D02*
X900Y1046D01*
X911Y1046D02*
X914Y1046D01*
X922Y1046D02*
X925Y1046D01*
X932Y1046D02*
X938Y1046D01*
X950Y1046D02*
X953Y1046D01*
X957Y1046D02*
X960Y1046D01*
X246Y1045D02*
X259Y1045D01*
X268Y1045D02*
X281Y1045D01*
X467Y1045D02*
X472Y1045D01*
X490Y1045D02*
X493Y1045D01*
X515Y1045D02*
X518Y1045D01*
X898Y1045D02*
X900Y1045D01*
X911Y1045D02*
X913Y1045D01*
X922Y1045D02*
X925Y1045D01*
X933Y1045D02*
X938Y1045D01*
X950Y1045D02*
X953Y1045D01*
X957Y1045D02*
X960Y1045D01*
X246Y1044D02*
X259Y1044D01*
X268Y1044D02*
X280Y1044D01*
X468Y1044D02*
X471Y1044D01*
X490Y1044D02*
X502Y1044D01*
X515Y1044D02*
X527Y1044D01*
X898Y1044D02*
X913Y1044D01*
X922Y1044D02*
X925Y1044D01*
X933Y1044D02*
X938Y1044D01*
X948Y1044D02*
X959Y1044D01*
X246Y1043D02*
X248Y1043D01*
X268Y1043D02*
X270Y1043D01*
X468Y1043D02*
X471Y1043D01*
X491Y1043D02*
X502Y1043D01*
X516Y1043D02*
X527Y1043D01*
X898Y1043D02*
X913Y1043D01*
X922Y1043D02*
X925Y1043D01*
X934Y1043D02*
X938Y1043D01*
X947Y1043D02*
X958Y1043D01*
X246Y1042D02*
X248Y1042D01*
X268Y1042D02*
X270Y1042D01*
X468Y1042D02*
X470Y1042D01*
X492Y1042D02*
X502Y1042D01*
X517Y1042D02*
X527Y1042D01*
X899Y1042D02*
X912Y1042D01*
X922Y1042D02*
X925Y1042D01*
X934Y1042D02*
X938Y1042D01*
X947Y1042D02*
X958Y1042D01*
X246Y1041D02*
X248Y1041D01*
X268Y1041D02*
X270Y1041D01*
X901Y1041D02*
X910Y1041D01*
X923Y1041D02*
X924Y1041D01*
X935Y1041D02*
X938Y1041D01*
X948Y1041D02*
X956Y1041D01*
X246Y1040D02*
X248Y1040D01*
X268Y1040D02*
X270Y1040D01*
X246Y1039D02*
X248Y1039D01*
X268Y1039D02*
X270Y1039D01*
X246Y1038D02*
X248Y1038D01*
X268Y1038D02*
X270Y1038D01*
X246Y1037D02*
X248Y1037D01*
X268Y1037D02*
X270Y1037D01*
X246Y1036D02*
X258Y1036D01*
X268Y1036D02*
X280Y1036D01*
X246Y1035D02*
X260Y1035D01*
X268Y1035D02*
X281Y1035D01*
X246Y1034D02*
X260Y1034D01*
X268Y1034D02*
X281Y1034D01*
X246Y1033D02*
X258Y1033D01*
X268Y1033D02*
X280Y1033D01*
X129Y1010D02*
X141Y1010D01*
X151Y1010D02*
X163Y1010D01*
X128Y1009D02*
X142Y1009D01*
X150Y1009D02*
X164Y1009D01*
X129Y1008D02*
X142Y1008D01*
X151Y1008D02*
X164Y1008D01*
X140Y1007D02*
X142Y1007D01*
X162Y1007D02*
X164Y1007D01*
X140Y1006D02*
X142Y1006D01*
X162Y1006D02*
X164Y1006D01*
X140Y1005D02*
X142Y1005D01*
X162Y1005D02*
X164Y1005D01*
X140Y1004D02*
X142Y1004D01*
X162Y1004D02*
X164Y1004D01*
X140Y1003D02*
X142Y1003D01*
X162Y1003D02*
X164Y1003D01*
X140Y1002D02*
X142Y1002D01*
X162Y1002D02*
X164Y1002D01*
X140Y1001D02*
X142Y1001D01*
X162Y1001D02*
X164Y1001D01*
X130Y1000D02*
X142Y1000D01*
X154Y1000D02*
X164Y1000D01*
X129Y999D02*
X142Y999D01*
X153Y999D02*
X163Y999D01*
X128Y998D02*
X141Y998D01*
X154Y998D02*
X164Y998D01*
X128Y997D02*
X131Y997D01*
X161Y997D02*
X164Y997D01*
X128Y996D02*
X130Y996D01*
X162Y996D02*
X164Y996D01*
X128Y995D02*
X130Y995D01*
X162Y995D02*
X164Y995D01*
X128Y994D02*
X130Y994D01*
X162Y994D02*
X164Y994D01*
X128Y993D02*
X130Y993D01*
X162Y993D02*
X164Y993D01*
X128Y992D02*
X130Y992D01*
X162Y992D02*
X164Y992D01*
X128Y991D02*
X130Y991D01*
X162Y991D02*
X164Y991D01*
X128Y990D02*
X141Y990D01*
X151Y990D02*
X164Y990D01*
X128Y989D02*
X142Y989D01*
X150Y989D02*
X164Y989D01*
X128Y988D02*
X142Y988D01*
X150Y988D02*
X163Y988D01*
X902Y969D02*
X913Y969D01*
X926Y969D02*
X934Y969D01*
X957Y969D02*
X958Y969D01*
X976Y969D02*
X989Y969D01*
X901Y968D02*
X915Y968D01*
X925Y968D02*
X936Y968D01*
X957Y968D02*
X959Y968D01*
X975Y968D02*
X990Y968D01*
X900Y967D02*
X916Y967D01*
X925Y967D02*
X936Y967D01*
X956Y967D02*
X959Y967D01*
X975Y967D02*
X990Y967D01*
X900Y966D02*
X916Y966D01*
X926Y966D02*
X937Y966D01*
X956Y966D02*
X960Y966D01*
X975Y966D02*
X991Y966D01*
X469Y965D02*
X475Y965D01*
X485Y965D02*
X488Y965D01*
X500Y965D02*
X500Y965D01*
X511Y965D02*
X518Y965D01*
X900Y965D02*
X903Y965D01*
X914Y965D02*
X916Y965D01*
X928Y965D02*
X931Y965D01*
X935Y965D02*
X937Y965D01*
X956Y965D02*
X960Y965D01*
X975Y965D02*
X977Y965D01*
X988Y965D02*
X991Y965D01*
X467Y964D02*
X476Y964D01*
X485Y964D02*
X489Y964D01*
X499Y964D02*
X501Y964D01*
X510Y964D02*
X520Y964D01*
X900Y964D02*
X904Y964D01*
X914Y964D02*
X916Y964D01*
X928Y964D02*
X931Y964D01*
X935Y964D02*
X938Y964D01*
X955Y964D02*
X960Y964D01*
X975Y964D02*
X977Y964D01*
X988Y964D02*
X991Y964D01*
X466Y963D02*
X476Y963D01*
X485Y963D02*
X489Y963D01*
X498Y963D02*
X501Y963D01*
X510Y963D02*
X521Y963D01*
X901Y963D02*
X904Y963D01*
X928Y963D02*
X931Y963D01*
X936Y963D02*
X938Y963D01*
X955Y963D02*
X960Y963D01*
X975Y963D02*
X977Y963D01*
X988Y963D02*
X991Y963D01*
X465Y962D02*
X475Y962D01*
X485Y962D02*
X490Y962D01*
X498Y962D02*
X501Y962D01*
X510Y962D02*
X521Y962D01*
X902Y962D02*
X905Y962D01*
X928Y962D02*
X931Y962D01*
X936Y962D02*
X939Y962D01*
X955Y962D02*
X961Y962D01*
X975Y962D02*
X977Y962D01*
X988Y962D02*
X991Y962D01*
X464Y961D02*
X468Y961D01*
X485Y961D02*
X490Y961D01*
X498Y961D02*
X501Y961D01*
X513Y961D02*
X515Y961D01*
X519Y961D02*
X522Y961D01*
X903Y961D02*
X906Y961D01*
X928Y961D02*
X931Y961D01*
X937Y961D02*
X939Y961D01*
X955Y961D02*
X961Y961D01*
X975Y961D02*
X977Y961D01*
X988Y961D02*
X991Y961D01*
X464Y960D02*
X467Y960D01*
X485Y960D02*
X491Y960D01*
X498Y960D02*
X501Y960D01*
X513Y960D02*
X515Y960D01*
X520Y960D02*
X522Y960D01*
X903Y960D02*
X907Y960D01*
X928Y960D02*
X931Y960D01*
X937Y960D02*
X940Y960D01*
X954Y960D02*
X957Y960D01*
X959Y960D02*
X961Y960D01*
X975Y960D02*
X977Y960D01*
X988Y960D02*
X991Y960D01*
X463Y959D02*
X466Y959D01*
X485Y959D02*
X491Y959D01*
X498Y959D02*
X501Y959D01*
X513Y959D02*
X515Y959D01*
X520Y959D02*
X523Y959D01*
X904Y959D02*
X908Y959D01*
X928Y959D02*
X931Y959D01*
X938Y959D02*
X940Y959D01*
X954Y959D02*
X957Y959D01*
X959Y959D02*
X962Y959D01*
X975Y959D02*
X977Y959D01*
X988Y959D02*
X991Y959D01*
X462Y958D02*
X466Y958D01*
X485Y958D02*
X491Y958D01*
X498Y958D02*
X501Y958D01*
X513Y958D02*
X515Y958D01*
X521Y958D02*
X523Y958D01*
X905Y958D02*
X908Y958D01*
X928Y958D02*
X931Y958D01*
X938Y958D02*
X941Y958D01*
X954Y958D02*
X956Y958D01*
X959Y958D02*
X962Y958D01*
X975Y958D02*
X977Y958D01*
X988Y958D02*
X991Y958D01*
X461Y957D02*
X465Y957D01*
X485Y957D02*
X487Y957D01*
X489Y957D02*
X492Y957D01*
X498Y957D02*
X501Y957D01*
X513Y957D02*
X515Y957D01*
X521Y957D02*
X524Y957D01*
X906Y957D02*
X909Y957D01*
X928Y957D02*
X931Y957D01*
X938Y957D02*
X941Y957D01*
X953Y957D02*
X956Y957D01*
X960Y957D02*
X962Y957D01*
X975Y957D02*
X977Y957D01*
X988Y957D02*
X991Y957D01*
X461Y956D02*
X464Y956D01*
X485Y956D02*
X487Y956D01*
X490Y956D02*
X492Y956D01*
X498Y956D02*
X501Y956D01*
X513Y956D02*
X515Y956D01*
X522Y956D02*
X524Y956D01*
X906Y956D02*
X910Y956D01*
X928Y956D02*
X931Y956D01*
X939Y956D02*
X941Y956D01*
X953Y956D02*
X956Y956D01*
X960Y956D02*
X963Y956D01*
X975Y956D02*
X977Y956D01*
X988Y956D02*
X991Y956D01*
X461Y955D02*
X463Y955D01*
X485Y955D02*
X487Y955D01*
X490Y955D02*
X493Y955D01*
X498Y955D02*
X501Y955D01*
X513Y955D02*
X515Y955D01*
X522Y955D02*
X525Y955D01*
X907Y955D02*
X911Y955D01*
X928Y955D02*
X931Y955D01*
X938Y955D02*
X941Y955D01*
X953Y955D02*
X955Y955D01*
X960Y955D02*
X963Y955D01*
X975Y955D02*
X977Y955D01*
X988Y955D02*
X991Y955D01*
X461Y954D02*
X463Y954D01*
X485Y954D02*
X487Y954D01*
X490Y954D02*
X493Y954D01*
X498Y954D02*
X501Y954D01*
X513Y954D02*
X515Y954D01*
X523Y954D02*
X525Y954D01*
X908Y954D02*
X911Y954D01*
X928Y954D02*
X931Y954D01*
X938Y954D02*
X941Y954D01*
X952Y954D02*
X955Y954D01*
X960Y954D02*
X963Y954D01*
X975Y954D02*
X977Y954D01*
X988Y954D02*
X991Y954D01*
X461Y953D02*
X463Y953D01*
X485Y953D02*
X487Y953D01*
X491Y953D02*
X494Y953D01*
X498Y953D02*
X501Y953D01*
X513Y953D02*
X515Y953D01*
X523Y953D02*
X526Y953D01*
X909Y953D02*
X912Y953D01*
X928Y953D02*
X931Y953D01*
X938Y953D02*
X940Y953D01*
X952Y953D02*
X955Y953D01*
X961Y953D02*
X963Y953D01*
X975Y953D02*
X977Y953D01*
X988Y953D02*
X991Y953D01*
X461Y952D02*
X462Y952D01*
X485Y952D02*
X487Y952D01*
X491Y952D02*
X494Y952D01*
X498Y952D02*
X501Y952D01*
X513Y952D02*
X515Y952D01*
X523Y952D02*
X526Y952D01*
X910Y952D02*
X913Y952D01*
X928Y952D02*
X931Y952D01*
X937Y952D02*
X940Y952D01*
X952Y952D02*
X955Y952D01*
X961Y952D02*
X964Y952D01*
X975Y952D02*
X977Y952D01*
X988Y952D02*
X991Y952D01*
X461Y951D02*
X462Y951D01*
X485Y951D02*
X487Y951D01*
X492Y951D02*
X495Y951D01*
X498Y951D02*
X501Y951D01*
X513Y951D02*
X515Y951D01*
X523Y951D02*
X526Y951D01*
X910Y951D02*
X914Y951D01*
X928Y951D02*
X931Y951D01*
X937Y951D02*
X940Y951D01*
X952Y951D02*
X964Y951D01*
X975Y951D02*
X977Y951D01*
X988Y951D02*
X991Y951D01*
X461Y950D02*
X462Y950D01*
X469Y950D02*
X476Y950D01*
X485Y950D02*
X487Y950D01*
X492Y950D02*
X495Y950D01*
X498Y950D02*
X501Y950D01*
X513Y950D02*
X515Y950D01*
X523Y950D02*
X525Y950D01*
X911Y950D02*
X915Y950D01*
X928Y950D02*
X931Y950D01*
X936Y950D02*
X939Y950D01*
X951Y950D02*
X964Y950D01*
X975Y950D02*
X977Y950D01*
X988Y950D02*
X991Y950D01*
X461Y949D02*
X462Y949D01*
X469Y949D02*
X476Y949D01*
X485Y949D02*
X487Y949D01*
X493Y949D02*
X495Y949D01*
X498Y949D02*
X501Y949D01*
X513Y949D02*
X515Y949D01*
X522Y949D02*
X525Y949D01*
X912Y949D02*
X915Y949D01*
X928Y949D02*
X931Y949D01*
X936Y949D02*
X939Y949D01*
X951Y949D02*
X965Y949D01*
X975Y949D02*
X977Y949D01*
X988Y949D02*
X991Y949D01*
X460Y948D02*
X462Y948D01*
X469Y948D02*
X476Y948D01*
X485Y948D02*
X487Y948D01*
X493Y948D02*
X496Y948D01*
X498Y948D02*
X501Y948D01*
X513Y948D02*
X515Y948D01*
X522Y948D02*
X525Y948D01*
X900Y948D02*
X902Y948D01*
X913Y948D02*
X916Y948D01*
X928Y948D02*
X931Y948D01*
X935Y948D02*
X938Y948D01*
X951Y948D02*
X953Y948D01*
X962Y948D02*
X965Y948D01*
X975Y948D02*
X977Y948D01*
X988Y948D02*
X991Y948D01*
X460Y947D02*
X462Y947D01*
X473Y947D02*
X476Y947D01*
X485Y947D02*
X487Y947D01*
X493Y947D02*
X496Y947D01*
X498Y947D02*
X501Y947D01*
X513Y947D02*
X515Y947D01*
X521Y947D02*
X524Y947D01*
X900Y947D02*
X903Y947D01*
X913Y947D02*
X916Y947D01*
X928Y947D02*
X931Y947D01*
X935Y947D02*
X938Y947D01*
X950Y947D02*
X953Y947D01*
X963Y947D02*
X965Y947D01*
X975Y947D02*
X977Y947D01*
X988Y947D02*
X991Y947D01*
X460Y946D02*
X462Y946D01*
X474Y946D02*
X476Y946D01*
X485Y946D02*
X487Y946D01*
X494Y946D02*
X501Y946D01*
X513Y946D02*
X515Y946D01*
X521Y946D02*
X524Y946D01*
X900Y946D02*
X916Y946D01*
X927Y946D02*
X937Y946D01*
X950Y946D02*
X953Y946D01*
X963Y946D02*
X965Y946D01*
X975Y946D02*
X991Y946D01*
X460Y945D02*
X462Y945D01*
X474Y945D02*
X476Y945D01*
X485Y945D02*
X487Y945D01*
X494Y945D02*
X501Y945D01*
X513Y945D02*
X515Y945D01*
X520Y945D02*
X523Y945D01*
X901Y945D02*
X916Y945D01*
X925Y945D02*
X936Y945D01*
X950Y945D02*
X952Y945D01*
X963Y945D02*
X966Y945D01*
X975Y945D02*
X990Y945D01*
X460Y944D02*
X462Y944D01*
X474Y944D02*
X476Y944D01*
X485Y944D02*
X487Y944D01*
X495Y944D02*
X501Y944D01*
X513Y944D02*
X515Y944D01*
X520Y944D02*
X523Y944D01*
X902Y944D02*
X915Y944D01*
X925Y944D02*
X936Y944D01*
X950Y944D02*
X952Y944D01*
X963Y944D02*
X966Y944D01*
X975Y944D02*
X990Y944D01*
X460Y943D02*
X463Y943D01*
X474Y943D02*
X476Y943D01*
X485Y943D02*
X487Y943D01*
X495Y943D02*
X501Y943D01*
X513Y943D02*
X515Y943D01*
X519Y943D02*
X522Y943D01*
X903Y943D02*
X914Y943D01*
X926Y943D02*
X934Y943D01*
X950Y943D02*
X951Y943D01*
X964Y943D02*
X965Y943D01*
X976Y943D02*
X989Y943D01*
X460Y942D02*
X463Y942D01*
X473Y942D02*
X476Y942D01*
X485Y942D02*
X487Y942D01*
X496Y942D02*
X501Y942D01*
X513Y942D02*
X516Y942D01*
X518Y942D02*
X522Y942D01*
X461Y941D02*
X475Y941D01*
X485Y941D02*
X487Y941D01*
X496Y941D02*
X501Y941D01*
X510Y941D02*
X521Y941D01*
X461Y940D02*
X475Y940D01*
X485Y940D02*
X487Y940D01*
X497Y940D02*
X501Y940D01*
X510Y940D02*
X521Y940D01*
X463Y939D02*
X473Y939D01*
X485Y939D02*
X487Y939D01*
X497Y939D02*
X501Y939D01*
X510Y939D02*
X519Y939D01*
X365Y868D02*
X380Y868D01*
X901Y868D02*
X912Y868D01*
X924Y868D02*
X932Y868D01*
X956Y868D02*
X956Y868D01*
X973Y868D02*
X982Y868D01*
X364Y867D02*
X380Y867D01*
X899Y867D02*
X913Y867D01*
X923Y867D02*
X934Y867D01*
X955Y867D02*
X957Y867D01*
X973Y867D02*
X982Y867D01*
X364Y866D02*
X380Y866D01*
X899Y866D02*
X914Y866D01*
X923Y866D02*
X935Y866D01*
X955Y866D02*
X958Y866D01*
X973Y866D02*
X982Y866D01*
X376Y865D02*
X379Y865D01*
X898Y865D02*
X914Y865D01*
X924Y865D02*
X935Y865D01*
X954Y865D02*
X958Y865D01*
X974Y865D02*
X982Y865D01*
X376Y864D02*
X379Y864D01*
X898Y864D02*
X901Y864D01*
X912Y864D02*
X914Y864D01*
X927Y864D02*
X929Y864D01*
X933Y864D02*
X936Y864D01*
X954Y864D02*
X958Y864D01*
X980Y864D02*
X982Y864D01*
X375Y863D02*
X378Y863D01*
X899Y863D02*
X902Y863D01*
X912Y863D02*
X914Y863D01*
X927Y863D02*
X929Y863D01*
X933Y863D02*
X936Y863D01*
X954Y863D02*
X958Y863D01*
X980Y863D02*
X982Y863D01*
X375Y862D02*
X378Y862D01*
X899Y862D02*
X903Y862D01*
X927Y862D02*
X929Y862D01*
X934Y862D02*
X937Y862D01*
X953Y862D02*
X959Y862D01*
X980Y862D02*
X982Y862D01*
X374Y861D02*
X377Y861D01*
X900Y861D02*
X903Y861D01*
X927Y861D02*
X929Y861D01*
X934Y861D02*
X937Y861D01*
X953Y861D02*
X959Y861D01*
X980Y861D02*
X982Y861D01*
X373Y860D02*
X376Y860D01*
X901Y860D02*
X904Y860D01*
X927Y860D02*
X929Y860D01*
X935Y860D02*
X938Y860D01*
X953Y860D02*
X959Y860D01*
X980Y860D02*
X982Y860D01*
X373Y859D02*
X376Y859D01*
X902Y859D02*
X905Y859D01*
X927Y859D02*
X929Y859D01*
X935Y859D02*
X938Y859D01*
X952Y859D02*
X955Y859D01*
X957Y859D02*
X960Y859D01*
X980Y859D02*
X982Y859D01*
X372Y858D02*
X375Y858D01*
X902Y858D02*
X906Y858D01*
X927Y858D02*
X929Y858D01*
X936Y858D02*
X939Y858D01*
X952Y858D02*
X955Y858D01*
X957Y858D02*
X960Y858D01*
X980Y858D02*
X982Y858D01*
X372Y857D02*
X375Y857D01*
X903Y857D02*
X907Y857D01*
X927Y857D02*
X929Y857D01*
X936Y857D02*
X939Y857D01*
X952Y857D02*
X955Y857D01*
X957Y857D02*
X960Y857D01*
X980Y857D02*
X982Y857D01*
X371Y856D02*
X374Y856D01*
X904Y856D02*
X907Y856D01*
X927Y856D02*
X929Y856D01*
X937Y856D02*
X939Y856D01*
X952Y856D02*
X954Y856D01*
X958Y856D02*
X960Y856D01*
X980Y856D02*
X982Y856D01*
X371Y855D02*
X374Y855D01*
X905Y855D02*
X908Y855D01*
X927Y855D02*
X929Y855D01*
X937Y855D02*
X939Y855D01*
X951Y855D02*
X954Y855D01*
X958Y855D02*
X961Y855D01*
X980Y855D02*
X982Y855D01*
X370Y854D02*
X373Y854D01*
X905Y854D02*
X909Y854D01*
X927Y854D02*
X929Y854D01*
X937Y854D02*
X939Y854D01*
X951Y854D02*
X954Y854D01*
X958Y854D02*
X961Y854D01*
X980Y854D02*
X982Y854D01*
X369Y853D02*
X372Y853D01*
X906Y853D02*
X910Y853D01*
X927Y853D02*
X929Y853D01*
X936Y853D02*
X939Y853D01*
X951Y853D02*
X953Y853D01*
X959Y853D02*
X961Y853D01*
X980Y853D02*
X982Y853D01*
X987Y853D02*
X989Y853D01*
X369Y852D02*
X372Y852D01*
X907Y852D02*
X910Y852D01*
X927Y852D02*
X929Y852D01*
X936Y852D02*
X939Y852D01*
X950Y852D02*
X953Y852D01*
X959Y852D02*
X962Y852D01*
X980Y852D02*
X982Y852D01*
X986Y852D02*
X989Y852D01*
X368Y851D02*
X371Y851D01*
X908Y851D02*
X911Y851D01*
X927Y851D02*
X929Y851D01*
X935Y851D02*
X938Y851D01*
X950Y851D02*
X953Y851D01*
X959Y851D02*
X962Y851D01*
X980Y851D02*
X982Y851D01*
X986Y851D02*
X989Y851D01*
X368Y850D02*
X371Y850D01*
X909Y850D02*
X912Y850D01*
X927Y850D02*
X929Y850D01*
X935Y850D02*
X938Y850D01*
X950Y850D02*
X962Y850D01*
X980Y850D02*
X982Y850D01*
X986Y850D02*
X989Y850D01*
X367Y849D02*
X370Y849D01*
X909Y849D02*
X913Y849D01*
X927Y849D02*
X929Y849D01*
X934Y849D02*
X937Y849D01*
X950Y849D02*
X962Y849D01*
X980Y849D02*
X982Y849D01*
X986Y849D02*
X989Y849D01*
X366Y848D02*
X369Y848D01*
X910Y848D02*
X914Y848D01*
X927Y848D02*
X929Y848D01*
X934Y848D02*
X937Y848D01*
X949Y848D02*
X963Y848D01*
X980Y848D02*
X982Y848D01*
X986Y848D02*
X989Y848D01*
X366Y847D02*
X369Y847D01*
X899Y847D02*
X901Y847D01*
X911Y847D02*
X914Y847D01*
X927Y847D02*
X929Y847D01*
X933Y847D02*
X936Y847D01*
X949Y847D02*
X952Y847D01*
X960Y847D02*
X963Y847D01*
X980Y847D02*
X982Y847D01*
X986Y847D02*
X989Y847D01*
X365Y846D02*
X368Y846D01*
X898Y846D02*
X901Y846D01*
X912Y846D02*
X914Y846D01*
X927Y846D02*
X929Y846D01*
X933Y846D02*
X936Y846D01*
X949Y846D02*
X951Y846D01*
X961Y846D02*
X963Y846D01*
X980Y846D02*
X982Y846D01*
X986Y846D02*
X989Y846D01*
X365Y845D02*
X379Y845D01*
X899Y845D02*
X914Y845D01*
X925Y845D02*
X935Y845D01*
X948Y845D02*
X951Y845D01*
X961Y845D02*
X964Y845D01*
X975Y845D02*
X989Y845D01*
X364Y844D02*
X380Y844D01*
X899Y844D02*
X914Y844D01*
X923Y844D02*
X935Y844D01*
X948Y844D02*
X951Y844D01*
X961Y844D02*
X964Y844D01*
X973Y844D02*
X989Y844D01*
X364Y843D02*
X380Y843D01*
X900Y843D02*
X914Y843D01*
X923Y843D02*
X934Y843D01*
X948Y843D02*
X950Y843D01*
X962Y843D02*
X964Y843D01*
X973Y843D02*
X989Y843D01*
X364Y842D02*
X379Y842D01*
X901Y842D02*
X912Y842D01*
X924Y842D02*
X932Y842D01*
X949Y842D02*
X950Y842D01*
X962Y842D02*
X963Y842D01*
X973Y842D02*
X988Y842D01*
X900Y769D02*
X909Y769D01*
X923Y769D02*
X930Y769D01*
X954Y769D02*
X955Y769D01*
X972Y769D02*
X985Y769D01*
X898Y768D02*
X911Y768D01*
X922Y768D02*
X932Y768D01*
X953Y768D02*
X956Y768D01*
X971Y768D02*
X986Y768D01*
X464Y767D02*
X474Y767D01*
X488Y767D02*
X500Y767D01*
X897Y767D02*
X912Y767D01*
X922Y767D02*
X933Y767D01*
X953Y767D02*
X956Y767D01*
X971Y767D02*
X987Y767D01*
X462Y766D02*
X476Y766D01*
X487Y766D02*
X501Y766D01*
X897Y766D02*
X913Y766D01*
X923Y766D02*
X934Y766D01*
X953Y766D02*
X956Y766D01*
X972Y766D02*
X987Y766D01*
X462Y765D02*
X477Y765D01*
X486Y765D02*
X502Y765D01*
X897Y765D02*
X900Y765D01*
X910Y765D02*
X913Y765D01*
X925Y765D02*
X928Y765D01*
X931Y765D02*
X934Y765D01*
X953Y765D02*
X957Y765D01*
X985Y765D02*
X987Y765D01*
X461Y764D02*
X477Y764D01*
X486Y764D02*
X502Y764D01*
X897Y764D02*
X900Y764D01*
X911Y764D02*
X913Y764D01*
X925Y764D02*
X928Y764D01*
X932Y764D02*
X935Y764D01*
X952Y764D02*
X957Y764D01*
X985Y764D02*
X987Y764D01*
X461Y763D02*
X464Y763D01*
X475Y763D02*
X477Y763D01*
X486Y763D02*
X488Y763D01*
X500Y763D02*
X502Y763D01*
X898Y763D02*
X901Y763D01*
X912Y763D02*
X912Y763D01*
X925Y763D02*
X928Y763D01*
X932Y763D02*
X935Y763D01*
X952Y763D02*
X957Y763D01*
X985Y763D02*
X987Y763D01*
X461Y762D02*
X465Y762D01*
X475Y762D02*
X477Y762D01*
X486Y762D02*
X488Y762D01*
X500Y762D02*
X502Y762D01*
X898Y762D02*
X902Y762D01*
X925Y762D02*
X928Y762D01*
X933Y762D02*
X936Y762D01*
X952Y762D02*
X957Y762D01*
X985Y762D02*
X987Y762D01*
X462Y761D02*
X465Y761D01*
X476Y761D02*
X476Y761D01*
X486Y761D02*
X488Y761D01*
X500Y761D02*
X502Y761D01*
X899Y761D02*
X903Y761D01*
X925Y761D02*
X928Y761D01*
X933Y761D02*
X936Y761D01*
X951Y761D02*
X958Y761D01*
X985Y761D02*
X987Y761D01*
X463Y760D02*
X466Y760D01*
X486Y760D02*
X488Y760D01*
X500Y760D02*
X502Y760D01*
X900Y760D02*
X903Y760D01*
X925Y760D02*
X928Y760D01*
X934Y760D02*
X937Y760D01*
X951Y760D02*
X958Y760D01*
X985Y760D02*
X987Y760D01*
X463Y759D02*
X467Y759D01*
X486Y759D02*
X488Y759D01*
X500Y759D02*
X502Y759D01*
X901Y759D02*
X904Y759D01*
X925Y759D02*
X928Y759D01*
X934Y759D02*
X937Y759D01*
X951Y759D02*
X953Y759D01*
X956Y759D02*
X958Y759D01*
X985Y759D02*
X987Y759D01*
X464Y758D02*
X468Y758D01*
X486Y758D02*
X488Y758D01*
X500Y758D02*
X502Y758D01*
X901Y758D02*
X905Y758D01*
X925Y758D02*
X928Y758D01*
X935Y758D02*
X937Y758D01*
X950Y758D02*
X953Y758D01*
X956Y758D02*
X959Y758D01*
X985Y758D02*
X987Y758D01*
X465Y757D02*
X468Y757D01*
X486Y757D02*
X488Y757D01*
X500Y757D02*
X502Y757D01*
X902Y757D02*
X906Y757D01*
X925Y757D02*
X928Y757D01*
X935Y757D02*
X938Y757D01*
X950Y757D02*
X953Y757D01*
X956Y757D02*
X959Y757D01*
X973Y757D02*
X987Y757D01*
X466Y756D02*
X469Y756D01*
X486Y756D02*
X488Y756D01*
X500Y756D02*
X502Y756D01*
X903Y756D02*
X907Y756D01*
X925Y756D02*
X928Y756D01*
X935Y756D02*
X938Y756D01*
X950Y756D02*
X952Y756D01*
X957Y756D02*
X959Y756D01*
X972Y756D02*
X987Y756D01*
X467Y755D02*
X470Y755D01*
X486Y755D02*
X488Y755D01*
X500Y755D02*
X502Y755D01*
X904Y755D02*
X907Y755D01*
X925Y755D02*
X928Y755D01*
X935Y755D02*
X938Y755D01*
X950Y755D02*
X952Y755D01*
X957Y755D02*
X959Y755D01*
X971Y755D02*
X986Y755D01*
X467Y754D02*
X471Y754D01*
X486Y754D02*
X488Y754D01*
X500Y754D02*
X502Y754D01*
X905Y754D02*
X908Y754D01*
X925Y754D02*
X928Y754D01*
X935Y754D02*
X938Y754D01*
X949Y754D02*
X952Y754D01*
X957Y754D02*
X960Y754D01*
X971Y754D02*
X974Y754D01*
X468Y753D02*
X472Y753D01*
X486Y753D02*
X488Y753D01*
X500Y753D02*
X502Y753D01*
X905Y753D02*
X909Y753D01*
X925Y753D02*
X928Y753D01*
X934Y753D02*
X937Y753D01*
X949Y753D02*
X952Y753D01*
X957Y753D02*
X960Y753D01*
X971Y753D02*
X974Y753D01*
X469Y752D02*
X472Y752D01*
X486Y752D02*
X488Y752D01*
X500Y752D02*
X502Y752D01*
X906Y752D02*
X910Y752D01*
X925Y752D02*
X928Y752D01*
X934Y752D02*
X937Y752D01*
X949Y752D02*
X951Y752D01*
X958Y752D02*
X960Y752D01*
X971Y752D02*
X974Y752D01*
X470Y751D02*
X473Y751D01*
X486Y751D02*
X488Y751D01*
X500Y751D02*
X502Y751D01*
X907Y751D02*
X910Y751D01*
X925Y751D02*
X928Y751D01*
X933Y751D02*
X936Y751D01*
X948Y751D02*
X961Y751D01*
X971Y751D02*
X974Y751D01*
X470Y750D02*
X474Y750D01*
X486Y750D02*
X488Y750D01*
X500Y750D02*
X502Y750D01*
X908Y750D02*
X911Y750D01*
X925Y750D02*
X928Y750D01*
X933Y750D02*
X936Y750D01*
X948Y750D02*
X961Y750D01*
X971Y750D02*
X974Y750D01*
X471Y749D02*
X475Y749D01*
X486Y749D02*
X488Y749D01*
X500Y749D02*
X502Y749D01*
X908Y749D02*
X912Y749D01*
X925Y749D02*
X928Y749D01*
X932Y749D02*
X935Y749D01*
X948Y749D02*
X961Y749D01*
X971Y749D02*
X974Y749D01*
X472Y748D02*
X475Y748D01*
X486Y748D02*
X488Y748D01*
X500Y748D02*
X502Y748D01*
X897Y748D02*
X899Y748D01*
X909Y748D02*
X913Y748D01*
X925Y748D02*
X928Y748D01*
X932Y748D02*
X935Y748D01*
X948Y748D02*
X950Y748D01*
X959Y748D02*
X962Y748D01*
X971Y748D02*
X974Y748D01*
X473Y747D02*
X476Y747D01*
X486Y747D02*
X488Y747D01*
X500Y747D02*
X502Y747D01*
X897Y747D02*
X899Y747D01*
X910Y747D02*
X913Y747D01*
X925Y747D02*
X928Y747D01*
X931Y747D02*
X934Y747D01*
X947Y747D02*
X950Y747D01*
X959Y747D02*
X962Y747D01*
X971Y747D02*
X974Y747D01*
X461Y746D02*
X463Y746D01*
X474Y746D02*
X477Y746D01*
X486Y746D02*
X488Y746D01*
X500Y746D02*
X502Y746D01*
X897Y746D02*
X900Y746D01*
X910Y746D02*
X913Y746D01*
X925Y746D02*
X928Y746D01*
X930Y746D02*
X934Y746D01*
X947Y746D02*
X950Y746D01*
X960Y746D02*
X962Y746D01*
X971Y746D02*
X974Y746D01*
X461Y745D02*
X464Y745D01*
X474Y745D02*
X477Y745D01*
X486Y745D02*
X488Y745D01*
X500Y745D02*
X502Y745D01*
X897Y745D02*
X913Y745D01*
X922Y745D02*
X933Y745D01*
X947Y745D02*
X949Y745D01*
X960Y745D02*
X962Y745D01*
X971Y745D02*
X987Y745D01*
X461Y744D02*
X465Y744D01*
X474Y744D02*
X477Y744D01*
X486Y744D02*
X489Y744D01*
X499Y744D02*
X502Y744D01*
X898Y744D02*
X912Y744D01*
X922Y744D02*
X933Y744D01*
X946Y744D02*
X949Y744D01*
X960Y744D02*
X963Y744D01*
X971Y744D02*
X987Y744D01*
X462Y743D02*
X477Y743D01*
X486Y743D02*
X502Y743D01*
X899Y743D02*
X911Y743D01*
X922Y743D02*
X931Y743D01*
X947Y743D02*
X948Y743D01*
X961Y743D02*
X962Y743D01*
X971Y743D02*
X987Y743D01*
X462Y742D02*
X476Y742D01*
X487Y742D02*
X501Y742D01*
X464Y741D02*
X475Y741D01*
X488Y741D02*
X500Y741D01*
X465Y667D02*
X476Y667D01*
X488Y667D02*
X497Y667D01*
X464Y666D02*
X478Y666D01*
X488Y666D02*
X497Y666D01*
X463Y665D02*
X478Y665D01*
X488Y665D02*
X497Y665D01*
X463Y664D02*
X479Y664D01*
X489Y664D02*
X497Y664D01*
X463Y663D02*
X466Y663D01*
X476Y663D02*
X479Y663D01*
X494Y663D02*
X497Y663D01*
X463Y662D02*
X466Y662D01*
X477Y662D02*
X479Y662D01*
X494Y662D02*
X497Y662D01*
X464Y661D02*
X467Y661D01*
X494Y661D02*
X497Y661D01*
X464Y660D02*
X468Y660D01*
X494Y660D02*
X497Y660D01*
X465Y659D02*
X469Y659D01*
X494Y659D02*
X497Y659D01*
X466Y658D02*
X469Y658D01*
X494Y658D02*
X497Y658D01*
X467Y657D02*
X470Y657D01*
X494Y657D02*
X497Y657D01*
X468Y656D02*
X471Y656D01*
X494Y656D02*
X497Y656D01*
X468Y655D02*
X472Y655D01*
X494Y655D02*
X497Y655D01*
X469Y654D02*
X473Y654D01*
X494Y654D02*
X497Y654D01*
X470Y653D02*
X473Y653D01*
X494Y653D02*
X497Y653D01*
X471Y652D02*
X474Y652D01*
X494Y652D02*
X497Y652D01*
X502Y652D02*
X503Y652D01*
X471Y651D02*
X475Y651D01*
X494Y651D02*
X497Y651D01*
X501Y651D02*
X504Y651D01*
X472Y650D02*
X476Y650D01*
X494Y650D02*
X497Y650D01*
X501Y650D02*
X504Y650D01*
X473Y649D02*
X476Y649D01*
X494Y649D02*
X497Y649D01*
X501Y649D02*
X504Y649D01*
X474Y648D02*
X477Y648D01*
X494Y648D02*
X497Y648D01*
X501Y648D02*
X504Y648D01*
X475Y647D02*
X478Y647D01*
X494Y647D02*
X497Y647D01*
X501Y647D02*
X504Y647D01*
X463Y646D02*
X465Y646D01*
X475Y646D02*
X479Y646D01*
X494Y646D02*
X497Y646D01*
X501Y646D02*
X504Y646D01*
X463Y645D02*
X465Y645D01*
X476Y645D02*
X479Y645D01*
X494Y645D02*
X497Y645D01*
X501Y645D02*
X504Y645D01*
X463Y644D02*
X467Y644D01*
X476Y644D02*
X479Y644D01*
X494Y644D02*
X497Y644D01*
X501Y644D02*
X504Y644D01*
X463Y643D02*
X479Y643D01*
X488Y643D02*
X504Y643D01*
X464Y642D02*
X478Y642D01*
X488Y642D02*
X504Y642D01*
X466Y641D02*
X477Y641D01*
X488Y641D02*
X503Y641D01*
X465Y570D02*
X474Y570D01*
X488Y570D02*
X500Y570D01*
X463Y569D02*
X476Y569D01*
X487Y569D02*
X502Y569D01*
X462Y568D02*
X477Y568D01*
X487Y568D02*
X503Y568D01*
X462Y567D02*
X478Y567D01*
X487Y567D02*
X503Y567D01*
X462Y566D02*
X465Y566D01*
X475Y566D02*
X478Y566D01*
X500Y566D02*
X503Y566D01*
X462Y565D02*
X465Y565D01*
X476Y565D02*
X478Y565D01*
X500Y565D02*
X503Y565D01*
X463Y564D02*
X466Y564D01*
X476Y564D02*
X477Y564D01*
X500Y564D02*
X503Y564D01*
X463Y563D02*
X467Y563D01*
X500Y563D02*
X503Y563D01*
X464Y562D02*
X468Y562D01*
X500Y562D02*
X503Y562D01*
X465Y561D02*
X468Y561D01*
X500Y561D02*
X503Y561D01*
X466Y560D02*
X469Y560D01*
X500Y560D02*
X503Y560D01*
X257Y559D02*
X267Y559D01*
X286Y559D02*
X294Y559D01*
X305Y559D02*
X305Y559D01*
X466Y559D02*
X470Y559D01*
X500Y559D02*
X503Y559D01*
X255Y558D02*
X269Y558D01*
X284Y558D02*
X295Y558D01*
X304Y558D02*
X306Y558D01*
X467Y558D02*
X471Y558D01*
X489Y558D02*
X503Y558D01*
X255Y557D02*
X270Y557D01*
X284Y557D02*
X295Y557D01*
X304Y557D02*
X306Y557D01*
X468Y557D02*
X471Y557D01*
X487Y557D02*
X502Y557D01*
X254Y556D02*
X270Y556D01*
X283Y556D02*
X294Y556D01*
X304Y556D02*
X306Y556D01*
X469Y556D02*
X472Y556D01*
X487Y556D02*
X502Y556D01*
X254Y555D02*
X257Y555D01*
X268Y555D02*
X270Y555D01*
X283Y555D02*
X286Y555D01*
X304Y555D02*
X306Y555D01*
X470Y555D02*
X473Y555D01*
X487Y555D02*
X500Y555D01*
X254Y554D02*
X258Y554D01*
X268Y554D02*
X270Y554D01*
X282Y554D02*
X285Y554D01*
X304Y554D02*
X306Y554D01*
X470Y554D02*
X474Y554D01*
X487Y554D02*
X489Y554D01*
X255Y553D02*
X258Y553D01*
X269Y553D02*
X269Y553D01*
X282Y553D02*
X284Y553D01*
X304Y553D02*
X306Y553D01*
X471Y553D02*
X475Y553D01*
X487Y553D02*
X489Y553D01*
X256Y552D02*
X259Y552D01*
X281Y552D02*
X284Y552D01*
X304Y552D02*
X306Y552D01*
X472Y552D02*
X475Y552D01*
X487Y552D02*
X489Y552D01*
X257Y551D02*
X260Y551D01*
X281Y551D02*
X283Y551D01*
X304Y551D02*
X306Y551D01*
X473Y551D02*
X476Y551D01*
X487Y551D02*
X489Y551D01*
X257Y550D02*
X261Y550D01*
X280Y550D02*
X283Y550D01*
X304Y550D02*
X306Y550D01*
X473Y550D02*
X477Y550D01*
X487Y550D02*
X489Y550D01*
X258Y549D02*
X262Y549D01*
X280Y549D02*
X282Y549D01*
X304Y549D02*
X306Y549D01*
X462Y549D02*
X464Y549D01*
X474Y549D02*
X478Y549D01*
X487Y549D02*
X489Y549D01*
X259Y548D02*
X262Y548D01*
X279Y548D02*
X282Y548D01*
X304Y548D02*
X306Y548D01*
X462Y548D02*
X464Y548D01*
X475Y548D02*
X478Y548D01*
X487Y548D02*
X489Y548D01*
X260Y547D02*
X263Y547D01*
X279Y547D02*
X282Y547D01*
X304Y547D02*
X306Y547D01*
X462Y547D02*
X465Y547D01*
X475Y547D02*
X478Y547D01*
X487Y547D02*
X489Y547D01*
X260Y546D02*
X264Y546D01*
X279Y546D02*
X281Y546D01*
X304Y546D02*
X306Y546D01*
X462Y546D02*
X478Y546D01*
X487Y546D02*
X502Y546D01*
X261Y545D02*
X265Y545D01*
X279Y545D02*
X282Y545D01*
X304Y545D02*
X306Y545D01*
X463Y545D02*
X477Y545D01*
X487Y545D02*
X503Y545D01*
X262Y544D02*
X265Y544D01*
X279Y544D02*
X282Y544D01*
X304Y544D02*
X306Y544D01*
X464Y544D02*
X476Y544D01*
X487Y544D02*
X502Y544D01*
X263Y543D02*
X266Y543D01*
X280Y543D02*
X282Y543D01*
X304Y543D02*
X306Y543D01*
X264Y542D02*
X267Y542D01*
X280Y542D02*
X283Y542D01*
X304Y542D02*
X306Y542D01*
X264Y541D02*
X268Y541D01*
X280Y541D02*
X283Y541D01*
X304Y541D02*
X306Y541D01*
X265Y540D02*
X269Y540D01*
X281Y540D02*
X284Y540D01*
X304Y540D02*
X306Y540D01*
X266Y539D02*
X269Y539D01*
X281Y539D02*
X284Y539D01*
X304Y539D02*
X306Y539D01*
X254Y538D02*
X256Y538D01*
X267Y538D02*
X270Y538D01*
X282Y538D02*
X285Y538D01*
X304Y538D02*
X306Y538D01*
X254Y537D02*
X257Y537D01*
X267Y537D02*
X270Y537D01*
X282Y537D02*
X285Y537D01*
X304Y537D02*
X306Y537D01*
X254Y536D02*
X258Y536D01*
X267Y536D02*
X270Y536D01*
X283Y536D02*
X287Y536D01*
X304Y536D02*
X307Y536D01*
X255Y535D02*
X270Y535D01*
X284Y535D02*
X295Y535D01*
X304Y535D02*
X320Y535D01*
X256Y534D02*
X269Y534D01*
X284Y534D02*
X295Y534D01*
X304Y534D02*
X320Y534D01*
X257Y533D02*
X268Y533D01*
X286Y533D02*
X295Y533D01*
X304Y533D02*
X319Y533D01*
X254Y459D02*
X267Y459D01*
X278Y459D02*
X287Y459D01*
X309Y459D02*
X311Y459D01*
X253Y458D02*
X268Y458D01*
X277Y458D02*
X288Y458D01*
X309Y458D02*
X312Y458D01*
X253Y457D02*
X268Y457D01*
X278Y457D02*
X289Y457D01*
X308Y457D02*
X312Y457D01*
X253Y456D02*
X255Y456D01*
X266Y456D02*
X269Y456D01*
X281Y456D02*
X283Y456D01*
X287Y456D02*
X290Y456D01*
X308Y456D02*
X312Y456D01*
X253Y455D02*
X256Y455D01*
X266Y455D02*
X269Y455D01*
X281Y455D02*
X283Y455D01*
X287Y455D02*
X290Y455D01*
X308Y455D02*
X312Y455D01*
X253Y454D02*
X257Y454D01*
X267Y454D02*
X268Y454D01*
X281Y454D02*
X283Y454D01*
X288Y454D02*
X291Y454D01*
X308Y454D02*
X313Y454D01*
X254Y453D02*
X257Y453D01*
X281Y453D02*
X283Y453D01*
X288Y453D02*
X291Y453D01*
X307Y453D02*
X313Y453D01*
X255Y452D02*
X258Y452D01*
X281Y452D02*
X283Y452D01*
X289Y452D02*
X292Y452D01*
X307Y452D02*
X313Y452D01*
X255Y451D02*
X259Y451D01*
X281Y451D02*
X283Y451D01*
X289Y451D02*
X292Y451D01*
X307Y451D02*
X309Y451D01*
X311Y451D02*
X314Y451D01*
X256Y450D02*
X260Y450D01*
X281Y450D02*
X283Y450D01*
X290Y450D02*
X293Y450D01*
X306Y450D02*
X309Y450D01*
X311Y450D02*
X314Y450D01*
X257Y449D02*
X260Y449D01*
X281Y449D02*
X283Y449D01*
X290Y449D02*
X293Y449D01*
X306Y449D02*
X309Y449D01*
X312Y449D02*
X314Y449D01*
X258Y448D02*
X261Y448D01*
X281Y448D02*
X283Y448D01*
X291Y448D02*
X293Y448D01*
X306Y448D02*
X309Y448D01*
X312Y448D02*
X314Y448D01*
X259Y447D02*
X262Y447D01*
X281Y447D02*
X283Y447D01*
X291Y447D02*
X293Y447D01*
X306Y447D02*
X308Y447D01*
X312Y447D02*
X315Y447D01*
X259Y446D02*
X263Y446D01*
X281Y446D02*
X283Y446D01*
X291Y446D02*
X293Y446D01*
X305Y446D02*
X308Y446D01*
X312Y446D02*
X315Y446D01*
X260Y445D02*
X264Y445D01*
X281Y445D02*
X283Y445D01*
X291Y445D02*
X293Y445D01*
X305Y445D02*
X308Y445D01*
X313Y445D02*
X315Y445D01*
X261Y444D02*
X264Y444D01*
X281Y444D02*
X283Y444D01*
X290Y444D02*
X293Y444D01*
X305Y444D02*
X307Y444D01*
X313Y444D02*
X316Y444D01*
X262Y443D02*
X265Y443D01*
X281Y443D02*
X283Y443D01*
X290Y443D02*
X293Y443D01*
X304Y443D02*
X307Y443D01*
X313Y443D02*
X316Y443D01*
X262Y442D02*
X266Y442D01*
X281Y442D02*
X283Y442D01*
X289Y442D02*
X292Y442D01*
X304Y442D02*
X316Y442D01*
X263Y441D02*
X267Y441D01*
X281Y441D02*
X283Y441D01*
X289Y441D02*
X292Y441D01*
X304Y441D02*
X317Y441D01*
X264Y440D02*
X267Y440D01*
X281Y440D02*
X283Y440D01*
X288Y440D02*
X291Y440D01*
X304Y440D02*
X317Y440D01*
X253Y439D02*
X254Y439D01*
X265Y439D02*
X268Y439D01*
X281Y439D02*
X283Y439D01*
X288Y439D02*
X291Y439D01*
X303Y439D02*
X317Y439D01*
X253Y438D02*
X255Y438D01*
X265Y438D02*
X269Y438D01*
X281Y438D02*
X283Y438D01*
X287Y438D02*
X290Y438D01*
X303Y438D02*
X306Y438D01*
X315Y438D02*
X317Y438D01*
X253Y437D02*
X256Y437D01*
X266Y437D02*
X269Y437D01*
X281Y437D02*
X283Y437D01*
X286Y437D02*
X290Y437D01*
X303Y437D02*
X305Y437D01*
X315Y437D02*
X318Y437D01*
X253Y436D02*
X268Y436D01*
X278Y436D02*
X289Y436D01*
X302Y436D02*
X305Y436D01*
X315Y436D02*
X318Y436D01*
X254Y435D02*
X268Y435D01*
X277Y435D02*
X288Y435D01*
X302Y435D02*
X305Y435D01*
X316Y435D02*
X318Y435D01*
X255Y434D02*
X267Y434D01*
X278Y434D02*
X287Y434D01*
X302Y434D02*
X304Y434D01*
X316Y434D02*
X318Y434D01*
X251Y354D02*
X265Y354D01*
X300Y354D02*
X315Y354D01*
X325Y354D02*
X327Y354D01*
X339Y354D02*
X341Y354D01*
X251Y353D02*
X266Y353D01*
X300Y353D02*
X316Y353D01*
X325Y353D02*
X327Y353D01*
X339Y353D02*
X341Y353D01*
X251Y352D02*
X267Y352D01*
X301Y352D02*
X316Y352D01*
X325Y352D02*
X327Y352D01*
X339Y352D02*
X341Y352D01*
X264Y351D02*
X267Y351D01*
X314Y351D02*
X316Y351D01*
X325Y351D02*
X327Y351D01*
X339Y351D02*
X341Y351D01*
X264Y350D02*
X267Y350D01*
X314Y350D02*
X316Y350D01*
X325Y350D02*
X327Y350D01*
X339Y350D02*
X341Y350D01*
X264Y349D02*
X267Y349D01*
X314Y349D02*
X316Y349D01*
X325Y349D02*
X327Y349D01*
X339Y349D02*
X341Y349D01*
X264Y348D02*
X267Y348D01*
X314Y348D02*
X316Y348D01*
X325Y348D02*
X327Y348D01*
X339Y348D02*
X341Y348D01*
X264Y347D02*
X267Y347D01*
X314Y347D02*
X316Y347D01*
X325Y347D02*
X328Y347D01*
X338Y347D02*
X341Y347D01*
X264Y346D02*
X267Y346D01*
X314Y346D02*
X316Y346D01*
X325Y346D02*
X328Y346D01*
X338Y346D02*
X341Y346D01*
X264Y345D02*
X267Y345D01*
X314Y345D02*
X316Y345D01*
X326Y345D02*
X328Y345D01*
X338Y345D02*
X340Y345D01*
X264Y344D02*
X267Y344D01*
X313Y344D02*
X316Y344D01*
X326Y344D02*
X329Y344D01*
X337Y344D02*
X340Y344D01*
X255Y343D02*
X266Y343D01*
X304Y343D02*
X316Y343D01*
X326Y343D02*
X329Y343D01*
X337Y343D02*
X339Y343D01*
X254Y342D02*
X266Y342D01*
X304Y342D02*
X315Y342D01*
X327Y342D02*
X330Y342D01*
X336Y342D02*
X339Y342D01*
X254Y341D02*
X266Y341D01*
X304Y341D02*
X315Y341D01*
X327Y341D02*
X330Y341D01*
X336Y341D02*
X339Y341D01*
X255Y340D02*
X266Y340D01*
X305Y340D02*
X316Y340D01*
X328Y340D02*
X330Y340D01*
X336Y340D02*
X338Y340D01*
X264Y339D02*
X267Y339D01*
X313Y339D02*
X316Y339D01*
X328Y339D02*
X331Y339D01*
X335Y339D02*
X338Y339D01*
X264Y338D02*
X267Y338D01*
X281Y338D02*
X286Y338D01*
X314Y338D02*
X316Y338D01*
X328Y338D02*
X331Y338D01*
X335Y338D02*
X338Y338D01*
X264Y337D02*
X267Y337D01*
X280Y337D02*
X286Y337D01*
X314Y337D02*
X316Y337D01*
X329Y337D02*
X332Y337D01*
X334Y337D02*
X337Y337D01*
X264Y336D02*
X267Y336D01*
X280Y336D02*
X286Y336D01*
X314Y336D02*
X316Y336D01*
X329Y336D02*
X332Y336D01*
X334Y336D02*
X337Y336D01*
X264Y335D02*
X267Y335D01*
X280Y335D02*
X286Y335D01*
X314Y335D02*
X316Y335D01*
X330Y335D02*
X336Y335D01*
X264Y334D02*
X267Y334D01*
X280Y334D02*
X286Y334D01*
X314Y334D02*
X316Y334D01*
X330Y334D02*
X336Y334D01*
X264Y333D02*
X267Y333D01*
X281Y333D02*
X286Y333D01*
X314Y333D02*
X316Y333D01*
X330Y333D02*
X336Y333D01*
X264Y332D02*
X267Y332D01*
X314Y332D02*
X316Y332D01*
X331Y332D02*
X335Y332D01*
X251Y331D02*
X267Y331D01*
X301Y331D02*
X316Y331D01*
X331Y331D02*
X335Y331D01*
X251Y330D02*
X266Y330D01*
X300Y330D02*
X316Y330D01*
X332Y330D02*
X334Y330D01*
X251Y329D02*
X265Y329D01*
X300Y329D02*
X315Y329D01*
X332Y329D02*
X334Y329D01*
D02*
G04 End of Silk1*
M02*