; NON-PLATED HOLES START AT T1
; THROUGH (PLATED) HOLES START AT T100
M48
INCH
T100C0.038000
T101C0.015748
T102C0.039370
%
T100
X003527Y024452
X004527Y024452
X005527Y024452
X006527Y024452
X007527Y024452
X008527Y024452
T101
X004701Y010023
T102
X001000Y019413
X001000Y013413
X002000Y022413
X008244Y005511
X002000Y007413
X001000Y008413
X004228Y005527
X001000Y017413
X001000Y014413
X002000Y010413
X001000Y021413
X004228Y008527
X008244Y007511
X004228Y009527
X001000Y005413
X008244Y002511
X002000Y015413
X001000Y018413
X001000Y015413
X001000Y007413
X008244Y008511
X002000Y019413
X002000Y013413
X002000Y012413
X002000Y006413
X002000Y016413
X004228Y004527
X002000Y011413
X002000Y004413
X004228Y011527
X001000Y016413
X008244Y003511
X008244Y010511
X001000Y022413
X002000Y017413
X008244Y011511
X002000Y014413
X008244Y009511
X002000Y021413
X001000Y004413
X001000Y003413
X008244Y006511
X002000Y018413
X004228Y006527
X002000Y008413
X001000Y009413
X001000Y020413
X002000Y009413
X001000Y006413
X008244Y004511
X001000Y012413
X004228Y007527
X008244Y012511
X001000Y011413
X001000Y010413
X004228Y010527
X002000Y005413
X002000Y020413
X002000Y003413
T00
M30
