; NON-PLATED HOLES START AT T1
; THROUGH (PLATED) HOLES START AT T100
M48
INCH
T100C0.031497
T101C0.015748
T102C0.040000
T103C0.039370
%
T100
X006277Y005656
X006277Y003648
X005292Y005656
X005292Y003648
X005292Y004632
X006277Y004632
T101
X004092Y003648
X003225Y005656
X003206Y004652
T102
X002635Y000616
X002635Y008616
X000635Y000616
X007635Y000616
X001635Y000616
X005635Y000616
X004635Y000616
X004635Y008616
X006635Y000616
X008635Y000616
X003635Y000616
X003635Y008616
X005635Y008616
T103
X008344Y007144
X008344Y002144
X000942Y006144
X008344Y003144
X008344Y005144
X008344Y006144
X008344Y004144
X000942Y007144
X000942Y005144
X000942Y002144
X000942Y003144
X000942Y004144
T00
M30
