G04 MADE WITH FRITZING*
G04 WWW.FRITZING.ORG*
G04 DOUBLE SIDED*
G04 HOLES PLATED*
G04 CONTOUR ON CENTER OF CONTOUR VECTOR*
%ASAXBY*%
%FSLAX23Y23*%
%MOIN*%
%OFA0B0*%
%SFA1.0B1.0*%
%ADD10R,0.925197X0.925197X0.909197X0.909197*%
%ADD11C,0.008000*%
%ADD12C,0.010000*%
%ADD13C,0.005000*%
%ADD14R,0.001000X0.001000*%
%LNSILK1*%
G90*
G70*
G54D11*
X4Y921D02*
X921Y921D01*
X921Y4D01*
X4Y4D01*
X4Y921D01*
D02*
G54D12*
X784Y764D02*
X784Y164D01*
D02*
X784Y164D02*
X884Y164D01*
D02*
X884Y164D02*
X884Y764D01*
D02*
X884Y764D02*
X784Y764D01*
G54D13*
D02*
X784Y729D02*
X819Y764D01*
G54D12*
D02*
X44Y764D02*
X44Y164D01*
D02*
X44Y164D02*
X144Y164D01*
D02*
X144Y164D02*
X144Y764D01*
D02*
X144Y764D02*
X44Y764D01*
G54D13*
D02*
X44Y729D02*
X79Y764D01*
G54D14*
X76Y800D02*
X90Y800D01*
X99Y800D02*
X103Y800D01*
X113Y800D02*
X114Y800D01*
X809Y800D02*
X812Y800D01*
X827Y800D02*
X828Y800D01*
X840Y800D02*
X841Y800D01*
X850Y800D02*
X865Y800D01*
X76Y799D02*
X91Y799D01*
X99Y799D02*
X103Y799D01*
X112Y799D02*
X115Y799D01*
X808Y799D02*
X813Y799D01*
X826Y799D02*
X828Y799D01*
X839Y799D02*
X841Y799D01*
X850Y799D02*
X865Y799D01*
X76Y798D02*
X91Y798D01*
X99Y798D02*
X104Y798D01*
X112Y798D02*
X115Y798D01*
X807Y798D02*
X814Y798D01*
X826Y798D02*
X828Y798D01*
X839Y798D02*
X842Y798D01*
X850Y798D02*
X865Y798D01*
X82Y797D02*
X85Y797D01*
X99Y797D02*
X104Y797D01*
X112Y797D02*
X115Y797D01*
X806Y797D02*
X809Y797D01*
X811Y797D02*
X814Y797D01*
X826Y797D02*
X828Y797D01*
X839Y797D02*
X842Y797D01*
X850Y797D02*
X852Y797D01*
X856Y797D02*
X859Y797D01*
X863Y797D02*
X865Y797D01*
X82Y796D02*
X84Y796D01*
X99Y796D02*
X105Y796D01*
X112Y796D02*
X115Y796D01*
X806Y796D02*
X809Y796D01*
X812Y796D02*
X815Y796D01*
X826Y796D02*
X828Y796D01*
X839Y796D02*
X842Y796D01*
X850Y796D02*
X852Y796D01*
X856Y796D02*
X859Y796D01*
X863Y796D02*
X865Y796D01*
X82Y795D02*
X84Y795D01*
X99Y795D02*
X105Y795D01*
X112Y795D02*
X115Y795D01*
X805Y795D02*
X808Y795D01*
X812Y795D02*
X815Y795D01*
X826Y795D02*
X828Y795D01*
X839Y795D02*
X842Y795D01*
X850Y795D02*
X852Y795D01*
X856Y795D02*
X859Y795D01*
X863Y795D02*
X865Y795D01*
X82Y794D02*
X84Y794D01*
X99Y794D02*
X105Y794D01*
X112Y794D02*
X115Y794D01*
X805Y794D02*
X808Y794D01*
X813Y794D02*
X816Y794D01*
X826Y794D02*
X828Y794D01*
X839Y794D02*
X842Y794D01*
X856Y794D02*
X859Y794D01*
X82Y793D02*
X84Y793D01*
X99Y793D02*
X106Y793D01*
X112Y793D02*
X115Y793D01*
X804Y793D02*
X807Y793D01*
X813Y793D02*
X816Y793D01*
X826Y793D02*
X828Y793D01*
X839Y793D02*
X842Y793D01*
X856Y793D02*
X859Y793D01*
X82Y792D02*
X84Y792D01*
X99Y792D02*
X102Y792D01*
X104Y792D02*
X106Y792D01*
X112Y792D02*
X115Y792D01*
X804Y792D02*
X807Y792D01*
X814Y792D02*
X817Y792D01*
X826Y792D02*
X828Y792D01*
X839Y792D02*
X842Y792D01*
X856Y792D02*
X859Y792D01*
X82Y791D02*
X84Y791D01*
X99Y791D02*
X102Y791D01*
X104Y791D02*
X107Y791D01*
X112Y791D02*
X115Y791D01*
X803Y791D02*
X806Y791D01*
X814Y791D02*
X817Y791D01*
X826Y791D02*
X828Y791D01*
X839Y791D02*
X842Y791D01*
X856Y791D02*
X859Y791D01*
X82Y790D02*
X84Y790D01*
X99Y790D02*
X102Y790D01*
X105Y790D02*
X107Y790D01*
X112Y790D02*
X115Y790D01*
X803Y790D02*
X806Y790D01*
X815Y790D02*
X817Y790D01*
X826Y790D02*
X828Y790D01*
X839Y790D02*
X842Y790D01*
X856Y790D02*
X859Y790D01*
X82Y789D02*
X84Y789D01*
X99Y789D02*
X102Y789D01*
X105Y789D02*
X108Y789D01*
X112Y789D02*
X115Y789D01*
X803Y789D02*
X805Y789D01*
X815Y789D02*
X818Y789D01*
X826Y789D02*
X828Y789D01*
X839Y789D02*
X842Y789D01*
X856Y789D02*
X859Y789D01*
X82Y788D02*
X84Y788D01*
X99Y788D02*
X102Y788D01*
X105Y788D02*
X108Y788D01*
X112Y788D02*
X115Y788D01*
X803Y788D02*
X805Y788D01*
X816Y788D02*
X818Y788D01*
X826Y788D02*
X828Y788D01*
X839Y788D02*
X842Y788D01*
X856Y788D02*
X859Y788D01*
X82Y787D02*
X84Y787D01*
X99Y787D02*
X102Y787D01*
X106Y787D02*
X108Y787D01*
X112Y787D02*
X115Y787D01*
X803Y787D02*
X805Y787D01*
X815Y787D02*
X818Y787D01*
X826Y787D02*
X828Y787D01*
X839Y787D02*
X842Y787D01*
X856Y787D02*
X859Y787D01*
X82Y786D02*
X84Y786D01*
X99Y786D02*
X102Y786D01*
X106Y786D02*
X109Y786D01*
X112Y786D02*
X115Y786D01*
X803Y786D02*
X805Y786D01*
X815Y786D02*
X818Y786D01*
X826Y786D02*
X828Y786D01*
X839Y786D02*
X842Y786D01*
X856Y786D02*
X859Y786D01*
X82Y785D02*
X84Y785D01*
X99Y785D02*
X102Y785D01*
X107Y785D02*
X109Y785D01*
X112Y785D02*
X115Y785D01*
X803Y785D02*
X806Y785D01*
X815Y785D02*
X817Y785D01*
X826Y785D02*
X828Y785D01*
X839Y785D02*
X842Y785D01*
X856Y785D02*
X859Y785D01*
X82Y784D02*
X84Y784D01*
X99Y784D02*
X102Y784D01*
X107Y784D02*
X110Y784D01*
X112Y784D02*
X115Y784D01*
X803Y784D02*
X806Y784D01*
X814Y784D02*
X817Y784D01*
X826Y784D02*
X828Y784D01*
X839Y784D02*
X842Y784D01*
X856Y784D02*
X859Y784D01*
X82Y783D02*
X84Y783D01*
X99Y783D02*
X102Y783D01*
X108Y783D02*
X110Y783D01*
X112Y783D02*
X115Y783D01*
X804Y783D02*
X807Y783D01*
X814Y783D02*
X816Y783D01*
X826Y783D02*
X828Y783D01*
X839Y783D02*
X842Y783D01*
X856Y783D02*
X859Y783D01*
X82Y782D02*
X84Y782D01*
X99Y782D02*
X102Y782D01*
X108Y782D02*
X115Y782D01*
X804Y782D02*
X807Y782D01*
X813Y782D02*
X816Y782D01*
X826Y782D02*
X828Y782D01*
X839Y782D02*
X842Y782D01*
X856Y782D02*
X859Y782D01*
X82Y781D02*
X84Y781D01*
X99Y781D02*
X102Y781D01*
X108Y781D02*
X115Y781D01*
X805Y781D02*
X808Y781D01*
X813Y781D02*
X815Y781D01*
X826Y781D02*
X828Y781D01*
X839Y781D02*
X842Y781D01*
X856Y781D02*
X859Y781D01*
X82Y780D02*
X84Y780D01*
X99Y780D02*
X102Y780D01*
X109Y780D02*
X115Y780D01*
X805Y780D02*
X808Y780D01*
X812Y780D02*
X815Y780D01*
X826Y780D02*
X828Y780D01*
X839Y780D02*
X842Y780D01*
X856Y780D02*
X859Y780D01*
X82Y779D02*
X84Y779D01*
X99Y779D02*
X102Y779D01*
X109Y779D02*
X115Y779D01*
X806Y779D02*
X809Y779D01*
X812Y779D02*
X814Y779D01*
X826Y779D02*
X829Y779D01*
X839Y779D02*
X841Y779D01*
X856Y779D02*
X859Y779D01*
X77Y778D02*
X90Y778D01*
X99Y778D02*
X102Y778D01*
X110Y778D02*
X115Y778D01*
X806Y778D02*
X814Y778D01*
X827Y778D02*
X841Y778D01*
X856Y778D02*
X859Y778D01*
X76Y777D02*
X91Y777D01*
X99Y777D02*
X102Y777D01*
X110Y777D02*
X115Y777D01*
X807Y777D02*
X813Y777D01*
X827Y777D02*
X840Y777D01*
X856Y777D02*
X859Y777D01*
X76Y776D02*
X91Y776D01*
X99Y776D02*
X101Y776D01*
X111Y776D02*
X115Y776D01*
X808Y776D02*
X813Y776D01*
X828Y776D02*
X840Y776D01*
X856Y776D02*
X858Y776D01*
X77Y775D02*
X90Y775D01*
X100Y775D02*
X100Y775D01*
X111Y775D02*
X114Y775D01*
X810Y775D02*
X811Y775D01*
X830Y775D02*
X837Y775D01*
X857Y775D02*
X857Y775D01*
X228Y729D02*
X239Y729D01*
X256Y729D02*
X264Y729D01*
X274Y729D02*
X275Y729D01*
X227Y728D02*
X240Y728D01*
X255Y728D02*
X265Y728D01*
X273Y728D02*
X276Y728D01*
X226Y727D02*
X241Y727D01*
X254Y727D02*
X265Y727D01*
X273Y727D02*
X276Y727D01*
X226Y726D02*
X229Y726D01*
X238Y726D02*
X241Y726D01*
X253Y726D02*
X256Y726D01*
X273Y726D02*
X276Y726D01*
X226Y725D02*
X229Y725D01*
X239Y725D02*
X241Y725D01*
X253Y725D02*
X256Y725D01*
X273Y725D02*
X276Y725D01*
X227Y724D02*
X230Y724D01*
X240Y724D02*
X241Y724D01*
X252Y724D02*
X255Y724D01*
X273Y724D02*
X276Y724D01*
X227Y723D02*
X230Y723D01*
X252Y723D02*
X255Y723D01*
X273Y723D02*
X276Y723D01*
X228Y722D02*
X231Y722D01*
X251Y722D02*
X254Y722D01*
X273Y722D02*
X276Y722D01*
X229Y721D02*
X232Y721D01*
X251Y721D02*
X254Y721D01*
X273Y721D02*
X276Y721D01*
X230Y720D02*
X233Y720D01*
X250Y720D02*
X253Y720D01*
X273Y720D02*
X276Y720D01*
X230Y719D02*
X234Y719D01*
X250Y719D02*
X252Y719D01*
X273Y719D02*
X276Y719D01*
X231Y718D02*
X234Y718D01*
X250Y718D02*
X252Y718D01*
X273Y718D02*
X276Y718D01*
X232Y717D02*
X235Y717D01*
X250Y717D02*
X252Y717D01*
X273Y717D02*
X276Y717D01*
X233Y716D02*
X236Y716D01*
X250Y716D02*
X252Y716D01*
X273Y716D02*
X276Y716D01*
X233Y715D02*
X237Y715D01*
X250Y715D02*
X252Y715D01*
X273Y715D02*
X276Y715D01*
X234Y714D02*
X237Y714D01*
X250Y714D02*
X253Y714D01*
X273Y714D02*
X276Y714D01*
X235Y713D02*
X238Y713D01*
X251Y713D02*
X253Y713D01*
X273Y713D02*
X276Y713D01*
X236Y712D02*
X239Y712D01*
X251Y712D02*
X254Y712D01*
X273Y712D02*
X276Y712D01*
X237Y711D02*
X240Y711D01*
X252Y711D02*
X254Y711D01*
X273Y711D02*
X276Y711D01*
X227Y710D02*
X227Y710D01*
X237Y710D02*
X241Y710D01*
X252Y710D02*
X255Y710D01*
X273Y710D02*
X276Y710D01*
X226Y709D02*
X228Y709D01*
X238Y709D02*
X241Y709D01*
X253Y709D02*
X255Y709D01*
X273Y709D02*
X276Y709D01*
X226Y708D02*
X229Y708D01*
X239Y708D02*
X241Y708D01*
X253Y708D02*
X256Y708D01*
X273Y708D02*
X276Y708D01*
X226Y707D02*
X241Y707D01*
X254Y707D02*
X264Y707D01*
X273Y707D02*
X288Y707D01*
X227Y706D02*
X241Y706D01*
X254Y706D02*
X265Y706D01*
X273Y706D02*
X288Y706D01*
X228Y705D02*
X240Y705D01*
X255Y705D02*
X265Y705D01*
X273Y705D02*
X288Y705D01*
X199Y330D02*
X203Y330D01*
X222Y330D02*
X227Y330D01*
X166Y329D02*
X168Y329D01*
X179Y329D02*
X181Y329D01*
X195Y329D02*
X205Y329D01*
X219Y329D02*
X229Y329D01*
X166Y328D02*
X169Y328D01*
X179Y328D02*
X182Y328D01*
X194Y328D02*
X205Y328D01*
X218Y328D02*
X229Y328D01*
X166Y327D02*
X169Y327D01*
X179Y327D02*
X182Y327D01*
X194Y327D02*
X204Y327D01*
X217Y327D02*
X228Y327D01*
X166Y326D02*
X169Y326D01*
X179Y326D02*
X182Y326D01*
X193Y326D02*
X196Y326D01*
X217Y326D02*
X220Y326D01*
X166Y325D02*
X169Y325D01*
X179Y325D02*
X182Y325D01*
X193Y325D02*
X196Y325D01*
X216Y325D02*
X219Y325D01*
X166Y324D02*
X169Y324D01*
X179Y324D02*
X182Y324D01*
X192Y324D02*
X195Y324D01*
X216Y324D02*
X219Y324D01*
X166Y323D02*
X169Y323D01*
X179Y323D02*
X182Y323D01*
X192Y323D02*
X195Y323D01*
X215Y323D02*
X218Y323D01*
X166Y322D02*
X169Y322D01*
X179Y322D02*
X181Y322D01*
X191Y322D02*
X194Y322D01*
X215Y322D02*
X218Y322D01*
X167Y321D02*
X169Y321D01*
X178Y321D02*
X181Y321D01*
X191Y321D02*
X194Y321D01*
X214Y321D02*
X217Y321D01*
X167Y320D02*
X170Y320D01*
X178Y320D02*
X181Y320D01*
X190Y320D02*
X193Y320D01*
X214Y320D02*
X217Y320D01*
X168Y319D02*
X170Y319D01*
X178Y319D02*
X180Y319D01*
X190Y319D02*
X193Y319D01*
X214Y319D02*
X216Y319D01*
X168Y318D02*
X171Y318D01*
X177Y318D02*
X180Y318D01*
X190Y318D02*
X192Y318D01*
X214Y318D02*
X216Y318D01*
X168Y317D02*
X171Y317D01*
X177Y317D02*
X179Y317D01*
X190Y317D02*
X192Y317D01*
X214Y317D02*
X216Y317D01*
X169Y316D02*
X171Y316D01*
X177Y316D02*
X179Y316D01*
X190Y316D02*
X192Y316D01*
X214Y316D02*
X216Y316D01*
X169Y315D02*
X172Y315D01*
X176Y315D02*
X179Y315D01*
X190Y315D02*
X193Y315D01*
X214Y315D02*
X216Y315D01*
X170Y314D02*
X172Y314D01*
X176Y314D02*
X178Y314D01*
X191Y314D02*
X193Y314D01*
X214Y314D02*
X217Y314D01*
X170Y313D02*
X173Y313D01*
X175Y313D02*
X178Y313D01*
X191Y313D02*
X194Y313D01*
X215Y313D02*
X217Y313D01*
X170Y312D02*
X173Y312D01*
X175Y312D02*
X178Y312D01*
X192Y312D02*
X194Y312D01*
X215Y312D02*
X218Y312D01*
X171Y311D02*
X177Y311D01*
X192Y311D02*
X195Y311D01*
X216Y311D02*
X218Y311D01*
X171Y310D02*
X177Y310D01*
X193Y310D02*
X195Y310D01*
X216Y310D02*
X219Y310D01*
X171Y309D02*
X176Y309D01*
X193Y309D02*
X196Y309D01*
X217Y309D02*
X219Y309D01*
X172Y308D02*
X176Y308D01*
X194Y308D02*
X197Y308D01*
X217Y308D02*
X220Y308D01*
X172Y307D02*
X176Y307D01*
X194Y307D02*
X205Y307D01*
X218Y307D02*
X228Y307D01*
X173Y306D02*
X175Y306D01*
X195Y306D02*
X205Y306D01*
X219Y306D02*
X229Y306D01*
X173Y305D02*
X175Y305D01*
X196Y305D02*
X205Y305D01*
X220Y305D02*
X228Y305D01*
X175Y229D02*
X182Y229D01*
X191Y229D02*
X194Y229D01*
X204Y229D02*
X205Y229D01*
X215Y229D02*
X223Y229D01*
X174Y228D02*
X182Y228D01*
X191Y228D02*
X195Y228D01*
X204Y228D02*
X206Y228D01*
X214Y228D02*
X224Y228D01*
X173Y227D02*
X182Y227D01*
X191Y227D02*
X195Y227D01*
X204Y227D02*
X206Y227D01*
X215Y227D02*
X225Y227D01*
X172Y226D02*
X175Y226D01*
X191Y226D02*
X196Y226D01*
X204Y226D02*
X206Y226D01*
X217Y226D02*
X220Y226D01*
X222Y226D02*
X226Y226D01*
X171Y225D02*
X174Y225D01*
X191Y225D02*
X196Y225D01*
X204Y225D02*
X206Y225D01*
X218Y225D02*
X220Y225D01*
X224Y225D02*
X226Y225D01*
X170Y224D02*
X173Y224D01*
X191Y224D02*
X196Y224D01*
X204Y224D02*
X206Y224D01*
X218Y224D02*
X220Y224D01*
X224Y224D02*
X227Y224D01*
X169Y223D02*
X173Y223D01*
X191Y223D02*
X197Y223D01*
X204Y223D02*
X206Y223D01*
X218Y223D02*
X220Y223D01*
X225Y223D02*
X227Y223D01*
X169Y222D02*
X172Y222D01*
X191Y222D02*
X193Y222D01*
X195Y222D02*
X197Y222D01*
X204Y222D02*
X206Y222D01*
X218Y222D02*
X220Y222D01*
X225Y222D02*
X228Y222D01*
X168Y221D02*
X171Y221D01*
X191Y221D02*
X193Y221D01*
X195Y221D02*
X198Y221D01*
X204Y221D02*
X206Y221D01*
X218Y221D02*
X220Y221D01*
X226Y221D02*
X228Y221D01*
X168Y220D02*
X170Y220D01*
X191Y220D02*
X193Y220D01*
X196Y220D02*
X198Y220D01*
X204Y220D02*
X206Y220D01*
X218Y220D02*
X220Y220D01*
X226Y220D02*
X229Y220D01*
X167Y219D02*
X170Y219D01*
X191Y219D02*
X193Y219D01*
X196Y219D02*
X199Y219D01*
X204Y219D02*
X206Y219D01*
X218Y219D02*
X220Y219D01*
X227Y219D02*
X229Y219D01*
X167Y218D02*
X169Y218D01*
X191Y218D02*
X193Y218D01*
X196Y218D02*
X199Y218D01*
X204Y218D02*
X206Y218D01*
X218Y218D02*
X220Y218D01*
X227Y218D02*
X229Y218D01*
X167Y217D02*
X169Y217D01*
X191Y217D02*
X193Y217D01*
X197Y217D02*
X200Y217D01*
X204Y217D02*
X206Y217D01*
X218Y217D02*
X220Y217D01*
X227Y217D02*
X230Y217D01*
X167Y216D02*
X169Y216D01*
X191Y216D02*
X193Y216D01*
X197Y216D02*
X200Y216D01*
X204Y216D02*
X206Y216D01*
X218Y216D02*
X220Y216D01*
X227Y216D02*
X230Y216D01*
X167Y215D02*
X169Y215D01*
X176Y215D02*
X182Y215D01*
X191Y215D02*
X193Y215D01*
X198Y215D02*
X200Y215D01*
X204Y215D02*
X206Y215D01*
X218Y215D02*
X220Y215D01*
X227Y215D02*
X229Y215D01*
X167Y214D02*
X169Y214D01*
X175Y214D02*
X182Y214D01*
X191Y214D02*
X193Y214D01*
X198Y214D02*
X201Y214D01*
X204Y214D02*
X206Y214D01*
X218Y214D02*
X220Y214D01*
X227Y214D02*
X229Y214D01*
X167Y213D02*
X169Y213D01*
X176Y213D02*
X182Y213D01*
X191Y213D02*
X193Y213D01*
X199Y213D02*
X201Y213D01*
X204Y213D02*
X206Y213D01*
X218Y213D02*
X220Y213D01*
X226Y213D02*
X229Y213D01*
X167Y212D02*
X169Y212D01*
X180Y212D02*
X182Y212D01*
X191Y212D02*
X193Y212D01*
X199Y212D02*
X202Y212D01*
X204Y212D02*
X206Y212D01*
X218Y212D02*
X220Y212D01*
X225Y212D02*
X228Y212D01*
X167Y211D02*
X169Y211D01*
X180Y211D02*
X182Y211D01*
X191Y211D02*
X193Y211D01*
X199Y211D02*
X202Y211D01*
X204Y211D02*
X206Y211D01*
X218Y211D02*
X220Y211D01*
X225Y211D02*
X228Y211D01*
X167Y210D02*
X169Y210D01*
X180Y210D02*
X182Y210D01*
X191Y210D02*
X193Y210D01*
X200Y210D02*
X206Y210D01*
X218Y210D02*
X220Y210D01*
X224Y210D02*
X227Y210D01*
X167Y209D02*
X169Y209D01*
X180Y209D02*
X182Y209D01*
X191Y209D02*
X193Y209D01*
X200Y209D02*
X206Y209D01*
X218Y209D02*
X220Y209D01*
X224Y209D02*
X227Y209D01*
X167Y208D02*
X170Y208D01*
X180Y208D02*
X182Y208D01*
X191Y208D02*
X193Y208D01*
X201Y208D02*
X206Y208D01*
X218Y208D02*
X220Y208D01*
X223Y208D02*
X226Y208D01*
X167Y207D02*
X182Y207D01*
X191Y207D02*
X193Y207D01*
X201Y207D02*
X206Y207D01*
X215Y207D02*
X226Y207D01*
X168Y206D02*
X181Y206D01*
X191Y206D02*
X193Y206D01*
X202Y206D02*
X206Y206D01*
X214Y206D02*
X225Y206D01*
X169Y205D02*
X180Y205D01*
X191Y205D02*
X193Y205D01*
X202Y205D02*
X206Y205D01*
X214Y205D02*
X224Y205D01*
X171Y204D02*
X178Y204D01*
X192Y204D02*
X192Y204D01*
X203Y204D02*
X206Y204D01*
X215Y204D02*
X222Y204D01*
D02*
G04 End of Silk1*
M02*