; NON-PLATED HOLES START AT T1
; THROUGH (PLATED) HOLES START AT T100
M48
INCH
T100C0.040000
T101C0.039370
%
T100
X006635Y000616
X003635Y000616
X001635Y000616
X005635Y008616
X000635Y000616
X007635Y000616
X003635Y008616
X004635Y000616
X002635Y000616
X005635Y000616
X004635Y008616
X008635Y000616
X002635Y008616
T101
X000942Y003144
X008344Y002144
X000942Y007144
X008344Y007144
X000942Y002144
X008344Y004144
X008344Y003144
X000942Y006144
X008344Y006144
X000942Y004144
X008344Y005144
X000942Y005144
T00
M30
