<?xml version='1.0' encoding='UTF-8' standalone='no'?>
<!-- Created with Fritzing (http://www.fritzing.org/) -->
<svg xmlns="http://www.w3.org/2000/svg"  baseProfile="tiny" version="1.2" width="0.925197in" x="0in" xmlns:svg="http://www.w3.org/2000/svg" y="0in" height="0.925197in" viewBox="0 0 66.6142 66.6142">
 <g transform="matrix(-1, 0, 0, 1, 66.6142, 0)">
  <g partID="57660">
   <g  id="board">
    <rect  id="boardoutline" stroke-width="0.5" width="66.0382" x="0.288" stroke="black" fill="none" fill-opacity="0.5" y="0.288" height="66.0382"/>
   </g>
  </g>
  <g partID="854693830">
   <g transform="translate(2.88,2.88)">
    <g  id="groundplane">
     <polygon  stroke-width="0" stroke="none" fill="black" points="0,0,0,9.216,4.752,9.216,4.752,9.36,5.184,9.36,5.184,9.504,5.472,9.504,5.472,9.648,5.616,9.648,5.616,9.792,5.904,9.792,5.904,9.936,6.048,9.936,6.048,10.08,6.192,10.08,6.192,10.224,6.336,10.224,6.336,10.368,6.48,10.368,6.48,10.656,6.624,10.656,6.624,10.944,6.768,10.944,6.768,11.232,13.968,11.232,13.968,11.088,14.112,11.088,14.112,10.944,14.256,10.944,14.256,10.8,14.4,10.8,14.4,10.512,14.544,10.512,14.544,10.368,14.688,10.368,14.688,10.224,14.832,10.224,14.832,10.08,14.976,10.08,14.976,9.936,15.12,9.936,15.12,4.896,14.832,4.896,14.832,4.752,14.544,4.752,14.544,4.608,14.256,4.608,14.256,4.464,14.112,4.464,14.112,4.32,13.968,4.32,13.968,4.176,13.68,4.176,13.68,4.032,13.536,4.032,13.536,3.744,13.392,3.744,13.392,3.6,13.248,3.6,13.248,3.312,13.104,3.312,13.104,3.168,12.96,3.168,12.96,2.736,12.816,2.736,12.816,2.16,12.672,2.16,12.672,0"/>
     <polygon  stroke-width="0" stroke="none" fill="black" points="0,9.216,0,10.512,1.44,10.512,1.44,10.368,1.584,10.368,1.584,10.08,1.728,10.08,1.728,9.936,2.016,9.936,2.016,9.792,2.16,9.792,2.16,9.648,2.448,9.648,2.448,9.504,2.592,9.504,2.592,9.36,3.024,9.36,3.024,9.216"/>
     <g  id="connector0pad">
      <circle  stroke-width="0" stroke="none" cy="4.5135" cx="4.782" fill="black" r="2.7"/>
     </g>
    </g>
   </g>
  </g>
  <g partID="854693840">
   <g transform="translate(7.92,7.2)">
    <g  id="groundplane">
     <g  id="connector0pad">
      <polygon  stroke-width="0" stroke="none" fill="black" points="13.104,0,13.104,0.144,12.816,0.144,12.816,0.288,12.672,0.288,12.672,0.432,12.384,0.432,12.384,0.576,12.096,0.576,12.096,6.192,11.952,6.192,11.952,6.48,11.808,6.48,11.808,6.624,11.664,6.624,11.664,6.768,11.52,6.768,11.52,7.056,11.376,7.056,11.376,7.2,11.232,7.2,11.232,7.344,11.088,7.344,11.088,7.488,10.944,7.488,10.944,7.632,10.8,7.632,10.8,7.776,10.656,7.776,10.656,8.064,10.512,8.064,10.512,8.208,10.368,8.208,10.368,8.352,10.224,8.352,10.224,8.496,10.08,8.496,10.08,8.64,9.936,8.64,9.936,8.784,9.648,8.784,9.648,8.928,1.872,8.928,1.872,9.072,1.728,9.072,1.728,9.36,1.584,9.36,1.584,9.648,1.44,9.648,1.44,9.792,1.296,9.792,1.296,9.936,1.152,9.936,1.152,10.224,1.008,10.224,1.008,10.368,0.72,10.368,0.72,10.512,0.576,10.512,0.576,10.656,0.288,10.656,0.288,10.8,0,10.8,0,12.24,0.144,12.24,0.144,12.384,0.432,12.384,0.432,12.528,0.576,12.528,0.576,12.672,0.864,12.672,0.864,12.816,1.008,12.816,1.008,12.96,1.152,12.96,1.152,13.104,1.296,13.104,1.296,13.248,1.44,13.248,1.44,13.536,1.584,13.536,1.584,13.824,1.728,13.824,1.728,14.112,7.92,14.112,7.92,12.672,14.4,12.672,14.4,11.664,14.544,11.664,14.544,0"/>
     </g>
    </g>
   </g>
  </g>
  <g partID="854693850">
   <g transform="translate(2.88,16.992)">
    <g  id="groundplane">
     <g  id="connector0pad">
      <polygon  stroke-width="0" stroke="none" fill="black" points="0,0,0,3.6,1.44,3.6,1.44,3.456,1.584,3.456,1.584,3.168,1.728,3.168,1.728,3.024,2.016,3.024,2.016,2.88,2.16,2.88,2.16,2.736,2.448,2.736,2.448,2.592,2.592,2.592,2.592,2.448,2.736,2.448,2.736,1.008,2.448,1.008,2.448,0.864,2.16,0.864,2.16,0.72,2.016,0.72,2.016,0.576,1.872,0.576,1.872,0.432,1.728,0.432,1.728,0.288,1.584,0.288,1.584,0.144,1.44,0.144,1.44,0"/>
     </g>
    </g>
   </g>
  </g>
  <g partID="854693860">
   <g transform="translate(7.92,22.464)">
    <g  id="groundplane">
     <g  id="connector0pad">
      <polygon  stroke-width="0" stroke="none" fill="black" points="15.696,0,15.696,0.144,15.552,0.144,15.552,0.432,15.408,0.432,15.408,0.576,15.264,0.576,15.264,0.72,14.976,0.72,14.976,0.864,13.68,0.864,13.68,2.448,17.136,2.448,17.136,0"/>
      <polygon  stroke-width="0" stroke="none" fill="black" points="1.872,0.864,1.872,1.008,1.728,1.008,1.728,1.296,1.584,1.296,1.584,1.584,1.44,1.584,1.44,1.728,1.296,1.728,1.296,1.872,1.152,1.872,1.152,2.16,1.008,2.16,1.008,2.304,0.72,2.304,0.72,2.448,7.92,2.448,7.92,0.864"/>
      <polygon  stroke-width="0" stroke="none" fill="black" points="0.576,2.448,0.576,2.592,17.136,2.592,17.136,2.448"/>
      <polygon  stroke-width="0" stroke="none" fill="black" points="0.576,2.448,0.576,2.592,17.136,2.592,17.136,2.448"/>
      <polygon  stroke-width="0" stroke="none" fill="black" points="0.288,2.592,0.288,2.736,0,2.736,0,4.176,0.144,4.176,0.144,4.32,0.432,4.32,0.432,4.464,0.576,4.464,0.576,4.608,13.68,4.608,13.68,6.048,16.992,6.048,16.992,5.904,17.136,5.904,17.136,2.592"/>
      <polygon  stroke-width="0" stroke="none" fill="black" points="0.864,4.608,0.864,4.752,1.008,4.752,1.008,4.896,1.152,4.896,1.152,5.04,1.296,5.04,1.296,5.184,1.44,5.184,1.44,5.472,1.584,5.472,1.584,5.76,1.728,5.76,1.728,6.048,7.92,6.048,7.92,4.608"/>
     </g>
    </g>
   </g>
  </g>
  <g partID="854693870">
   <g transform="translate(2.88,24.192)">
    <g  id="groundplane">
     <g  id="connector0pad">
      <polygon  stroke-width="0" stroke="none" fill="black" points="0,0,0,3.6,1.44,3.6,1.44,3.456,1.584,3.456,1.584,3.168,1.728,3.168,1.728,3.024,2.016,3.024,2.016,2.88,2.16,2.88,2.16,2.736,2.448,2.736,2.448,2.592,2.592,2.592,2.592,2.448,2.736,2.448,2.736,1.008,2.448,1.008,2.448,0.864,2.16,0.864,2.16,0.72,2.016,0.72,2.016,0.576,1.872,0.576,1.872,0.432,1.728,0.432,1.728,0.288,1.584,0.288,1.584,0.144,1.44,0.144,1.44,0"/>
     </g>
    </g>
   </g>
  </g>
  <g partID="854693880">
   <g transform="translate(7.92,29.664)">
    <g  id="groundplane">
     <g  id="connector0pad">
      <polygon  stroke-width="0" stroke="none" fill="black" points="18.432,0,18.432,0.288,18.288,0.288,18.288,0.432,18.144,0.432,18.144,0.576,18,0.576,18,0.72,17.712,0.72,17.712,0.864,13.68,0.864,13.68,2.448,19.872,2.448,19.872,0"/>
      <polygon  stroke-width="0" stroke="none" fill="black" points="1.872,0.864,1.872,1.008,1.728,1.008,1.728,1.296,1.584,1.296,1.584,1.584,1.44,1.584,1.44,1.728,1.296,1.728,1.296,1.872,1.152,1.872,1.152,2.16,1.008,2.16,1.008,2.304,0.72,2.304,0.72,2.448,7.92,2.448,7.92,0.864"/>
      <polygon  stroke-width="0" stroke="none" fill="black" points="0.576,2.448,0.576,2.592,19.872,2.592,19.872,2.448"/>
      <polygon  stroke-width="0" stroke="none" fill="black" points="0.576,2.448,0.576,2.592,19.872,2.592,19.872,2.448"/>
      <polygon  stroke-width="0" stroke="none" fill="black" points="0.288,2.592,0.288,2.736,0,2.736,0,4.176,0.144,4.176,0.144,4.32,0.432,4.32,0.432,4.464,13.68,4.464,13.68,6.048,18.432,6.048,18.432,5.904,19.584,5.904,19.584,5.76,19.728,5.76,19.728,5.616,19.872,5.616,19.872,2.592"/>
      <polygon  stroke-width="0" stroke="none" fill="black" points="0.576,4.464,0.576,4.608,0.864,4.608,0.864,4.752,1.008,4.752,1.008,4.896,1.152,4.896,1.152,5.04,1.296,5.04,1.296,5.184,1.44,5.184,1.44,5.472,1.584,5.472,1.584,5.76,1.728,5.76,1.728,6.048,7.92,6.048,7.92,4.464"/>
     </g>
    </g>
   </g>
  </g>
  <g partID="854693890">
   <g transform="translate(2.88,31.392)">
    <g  id="groundplane">
     <g  id="connector0pad">
      <polygon  stroke-width="0" stroke="none" fill="black" points="0,0,0,3.6,1.44,3.6,1.44,3.456,1.584,3.456,1.584,3.168,1.728,3.168,1.728,3.024,2.016,3.024,2.016,2.88,2.16,2.88,2.16,2.736,2.448,2.736,2.448,2.592,2.592,2.592,2.592,2.448,2.736,2.448,2.736,1.008,2.448,1.008,2.448,0.864,2.16,0.864,2.16,0.72,2.016,0.72,2.016,0.576,1.872,0.576,1.872,0.432,1.728,0.432,1.728,0.288,1.584,0.288,1.584,0.144,1.44,0.144,1.44,0"/>
     </g>
    </g>
   </g>
  </g>
  <g partID="854693900">
   <g transform="translate(7.92,7.2)">
    <g  id="groundplane">
     <g  id="connector0pad">
      <polygon  stroke-width="0" stroke="none" fill="black" points="22.032,0,22.032,2.592,21.888,2.592,21.888,28.512,21.744,28.512,21.744,28.944,21.6,28.944,21.6,29.088,21.456,29.088,21.456,29.376,21.312,29.376,21.312,29.52,21.168,29.52,21.168,29.808,21.024,29.808,21.024,29.952,20.88,29.952,20.88,30.24,20.592,30.24,20.592,30.384,18.864,30.384,18.864,30.528,13.68,30.528,13.68,31.968,24.192,31.968,24.192,23.904,24.048,23.904,24.048,8.64,23.904,8.64,23.904,0.288,23.616,0.288,23.616,0.144,23.472,0.144,23.472,0"/>
      <polygon  stroke-width="0" stroke="none" fill="black" points="1.872,30.528,1.872,30.672,1.728,30.672,1.728,30.96,1.584,30.96,1.584,31.248,1.44,31.248,1.44,31.392,1.296,31.392,1.296,31.536,1.152,31.536,1.152,31.824,1.008,31.824,1.008,31.968,7.92,31.968,7.92,30.528"/>
      <polygon  stroke-width="0" stroke="none" fill="black" points="0.72,31.968,0.72,32.112,24.192,32.112,24.192,31.968"/>
      <polygon  stroke-width="0" stroke="none" fill="black" points="0.72,31.968,0.72,32.112,24.192,32.112,24.192,31.968"/>
      <polygon  stroke-width="0" stroke="none" fill="black" points="0.576,32.112,0.576,32.256,0.288,32.256,0.288,32.4,0,32.4,0,33.84,0.144,33.84,0.144,33.984,0.432,33.984,0.432,34.128,0.576,34.128,0.576,34.272,0.864,34.272,0.864,34.416,1.008,34.416,1.008,34.56,1.152,34.56,1.152,34.704,1.296,34.704,1.296,34.848,1.44,34.848,1.44,35.136,4.464,35.136,4.464,35.28,22.896,35.28,22.896,35.136,23.04,35.136,23.04,34.848,23.184,34.848,23.184,34.704,23.328,34.704,23.328,34.416,23.472,34.416,23.472,34.128,23.616,34.128,23.616,33.984,23.76,33.984,23.76,33.696,23.904,33.696,23.904,33.408,24.048,33.408,24.048,33.12,24.192,33.12,24.192,32.112"/>
     </g>
    </g>
   </g>
  </g>
  <g partID="854693910">
   <g transform="translate(2.88,38.592)">
    <g  id="groundplane">
     <g  id="connector0pad">
      <polygon  stroke-width="0" stroke="none" fill="black" points="0,0,0,3.6,1.44,3.6,1.44,3.456,1.584,3.456,1.584,3.168,1.728,3.168,1.728,3.024,2.016,3.024,2.016,2.88,2.16,2.88,2.16,2.736,2.448,2.736,2.448,2.592,2.592,2.592,2.592,2.448,2.736,2.448,2.736,1.008,2.448,1.008,2.448,0.864,2.16,0.864,2.16,0.72,2.016,0.72,2.016,0.576,1.872,0.576,1.872,0.432,1.728,0.432,1.728,0.288,1.584,0.288,1.584,0.144,1.44,0.144,1.44,0"/>
     </g>
    </g>
   </g>
  </g>
  <g partID="854693920">
   <g transform="translate(2.88,45.792)">
    <g  id="groundplane">
     <g  id="connector0pad">
      <polygon  stroke-width="0" stroke="none" fill="black" points="0,0,0,3.6,1.44,3.6,1.44,3.456,1.584,3.456,1.584,3.168,1.728,3.168,1.728,3.024,2.016,3.024,2.016,2.88,2.16,2.88,2.16,2.736,2.448,2.736,2.448,2.592,2.592,2.592,2.592,2.448,2.736,2.448,2.736,1.008,2.448,1.008,2.448,0.864,2.16,0.864,2.16,0.72,2.016,0.72,2.016,0.576,1.872,0.576,1.872,0.432,1.728,0.432,1.728,0.288,1.584,0.288,1.584,0.144,1.44,0.144,1.44,0"/>
     </g>
    </g>
   </g>
  </g>
  <g partID="854693930">
   <g transform="translate(2.88,2.88)">
    <g  id="groundplane">
     <polygon  stroke-width="0" stroke="none" fill="black" points="41.04,0,41.04,5.04,60.768,5.04,60.768,0"/>
     <polygon  stroke-width="0" stroke="none" fill="black" points="32.832,4.032,32.832,4.176,32.688,4.176,32.688,4.32,32.544,4.32,32.544,4.464,32.256,4.464,32.256,4.608,32.112,4.608,32.112,5.04,34.272,5.04,34.272,4.032"/>
     <polygon  stroke-width="0" stroke="none" fill="black" points="32.112,5.04,32.112,5.184,60.768,5.184,60.768,5.04"/>
     <polygon  stroke-width="0" stroke="none" fill="black" points="32.112,5.04,32.112,5.184,60.768,5.184,60.768,5.04"/>
     <polygon  stroke-width="0" stroke="none" fill="black" points="32.112,5.184,32.112,9.216,58.032,9.216,58.032,9.36,58.464,9.36,58.464,9.504,58.752,9.504,58.752,9.648,58.896,9.648,58.896,9.792,59.184,9.792,59.184,9.936,59.328,9.936,59.328,10.08,60.768,10.08,60.768,5.184"/>
     <polygon  stroke-width="0" stroke="none" fill="black" points="32.112,9.216,32.112,12.96,32.256,12.96,32.256,28.08,32.4,28.08,32.4,38.304,32.256,38.304,32.256,38.592,32.112,38.592,32.112,38.88,31.968,38.88,31.968,39.168,31.824,39.168,31.824,39.312,31.68,39.312,31.68,39.6,31.536,39.6,31.536,39.888,31.392,39.888,31.392,40.032,31.248,40.032,31.248,40.32,31.104,40.32,31.104,40.608,30.96,40.608,30.96,40.896,30.816,40.896,30.816,41.04,30.672,41.04,30.672,41.328,30.528,41.328,30.528,41.616,30.384,41.616,30.384,41.76,30.24,41.76,30.24,42.048,30.096,42.048,30.096,42.192,29.952,42.192,29.952,42.336,29.808,42.336,29.808,42.48,29.664,42.48,29.664,42.624,29.376,42.624,29.376,42.768,54.576,42.768,54.576,42.624,54.432,42.624,54.432,42.336,54.288,42.336,54.288,42.048,54.144,42.048,54.144,41.184,54,41.184,54,41.04,54.144,41.04,54.144,40.176,54.288,40.176,54.288,39.744,54.432,39.744,54.432,39.6,54.576,39.6,54.576,39.312,54.72,39.312,54.72,39.168,54.864,39.168,54.864,38.88,55.008,38.88,55.008,38.736,55.296,38.736,55.296,38.592,55.44,38.592,55.44,38.448,55.728,38.448,55.728,38.304,55.872,38.304,55.872,38.16,56.016,38.16,56.016,36.72,55.728,36.72,55.728,36.576,55.44,36.576,55.44,36.432,55.296,36.432,55.296,36.288,55.152,36.288,55.152,36.144,55.008,36.144,55.008,36,54.864,36,54.864,35.856,54.72,35.856,54.72,35.712,54.576,35.712,54.576,35.424,54.432,35.424,54.432,35.136,54.288,35.136,54.288,34.848,54.144,34.848,54.144,33.984,54,33.984,54,33.84,54.144,33.84,54.144,32.976,54.288,32.976,54.288,32.544,54.432,32.544,54.432,32.4,54.576,32.4,54.576,32.112,54.72,32.112,54.72,31.968,54.864,31.968,54.864,31.68,55.008,31.68,55.008,31.536,55.296,31.536,55.296,31.392,55.44,31.392,55.44,31.248,55.728,31.248,55.728,31.104,55.872,31.104,55.872,30.96,56.016,30.96,56.016,29.52,55.728,29.52,55.728,29.376,55.44,29.376,55.44,29.232,55.296,29.232,55.296,29.088,55.152,29.088,55.152,28.944,55.008,28.944,55.008,28.8,54.864,28.8,54.864,28.656,54.72,28.656,54.72,28.512,54.576,28.512,54.576,28.224,54.432,28.224,54.432,27.936,54.288,27.936,54.288,27.648,54.144,27.648,54.144,26.784,54,26.784,54,26.64,54.144,26.64,54.144,25.776,54.288,25.776,54.288,25.344,54.432,25.344,54.432,25.2,54.576,25.2,54.576,24.912,54.72,24.912,54.72,24.768,54.864,24.768,54.864,24.48,55.008,24.48,55.008,24.336,55.296,24.336,55.296,24.192,55.44,24.192,55.44,24.048,55.728,24.048,55.728,23.904,55.872,23.904,55.872,23.76,56.016,23.76,56.016,22.32,55.728,22.32,55.728,22.176,55.44,22.176,55.44,22.032,55.296,22.032,55.296,21.888,55.152,21.888,55.152,21.744,55.008,21.744,55.008,21.6,54.864,21.6,54.864,21.456,54.72,21.456,54.72,21.312,54.576,21.312,54.576,21.024,54.432,21.024,54.432,20.736,54.288,20.736,54.288,20.448,54.144,20.448,54.144,19.584,54,19.584,54,19.44,54.144,19.44,54.144,18.576,54.288,18.576,54.288,18.144,54.432,18.144,54.432,18,54.576,18,54.576,17.712,54.72,17.712,54.72,17.568,54.864,17.568,54.864,17.28,55.008,17.28,55.008,17.136,55.296,17.136,55.296,16.992,55.44,16.992,55.44,16.848,55.728,16.848,55.728,16.704,55.872,16.704,55.872,16.56,56.016,16.56,56.016,15.12,55.728,15.12,55.728,14.976,55.44,14.976,55.44,14.832,55.296,14.832,55.296,14.688,55.152,14.688,55.152,14.544,55.008,14.544,55.008,14.4,54.864,14.4,54.864,14.256,54.72,14.256,54.72,14.112,54.576,14.112,54.576,13.824,54.432,13.824,54.432,13.536,54.288,13.536,54.288,13.248,54.144,13.248,54.144,12.384,54,12.384,54,12.24,54.144,12.24,54.144,11.376,54.288,11.376,54.288,10.944,54.432,10.944,54.432,10.8,54.576,10.8,54.576,10.512,54.72,10.512,54.72,10.368,54.864,10.368,54.864,10.08,55.008,10.08,55.008,9.936,55.296,9.936,55.296,9.792,55.44,9.792,55.44,9.648,55.728,9.648,55.728,9.504,55.872,9.504,55.872,9.36,56.448,9.36,56.448,9.216"/>
     <polygon  stroke-width="0" stroke="none" fill="black" points="6.624,42.624,6.624,42.768,9.216,42.768,9.216,42.624"/>
     <polygon  stroke-width="0" stroke="none" fill="black" points="6.48,42.768,6.48,42.912,54.576,42.912,54.576,42.768"/>
     <polygon  stroke-width="0" stroke="none" fill="black" points="6.48,42.768,6.48,42.912,54.576,42.912,54.576,42.768"/>
     <polygon  stroke-width="0" stroke="none" fill="black" points="6.336,42.912,6.336,43.056,6.192,43.056,6.192,43.344,6.048,43.344,6.048,43.488,5.76,43.488,5.76,43.632,5.616,43.632,5.616,43.776,5.328,43.776,5.328,43.92,5.04,43.92,5.04,45.36,5.184,45.36,5.184,45.504,5.472,45.504,5.472,45.648,5.616,45.648,5.616,45.792,5.904,45.792,5.904,45.936,6.048,45.936,6.048,46.08,6.192,46.08,6.192,46.224,6.336,46.224,6.336,46.368,6.48,46.368,6.48,46.656,6.624,46.656,6.624,46.944,6.768,46.944,6.768,47.232,6.912,47.232,6.912,47.808,7.056,47.808,7.056,48.816,6.912,48.816,6.912,49.392,6.768,49.392,6.768,49.68,6.624,49.68,6.624,49.968,22.32,49.968,22.32,51.408,56.448,51.408,56.448,51.264,56.016,51.264,56.016,51.12,55.728,51.12,55.728,50.976,55.44,50.976,55.44,50.832,55.296,50.832,55.296,50.688,55.152,50.688,55.152,50.544,55.008,50.544,55.008,50.4,54.864,50.4,54.864,50.256,54.72,50.256,54.72,50.112,54.576,50.112,54.576,49.824,54.432,49.824,54.432,49.536,54.288,49.536,54.288,49.248,54.144,49.248,54.144,48.384,54,48.384,54,48.24,54.144,48.24,54.144,47.376,54.288,47.376,54.288,46.944,54.432,46.944,54.432,46.8,54.576,46.8,54.576,46.512,54.72,46.512,54.72,46.368,54.864,46.368,54.864,46.08,55.008,46.08,55.008,45.936,55.296,45.936,55.296,45.792,55.44,45.792,55.44,45.648,55.728,45.648,55.728,45.504,55.872,45.504,55.872,45.36,56.016,45.36,56.016,43.92,55.728,43.92,55.728,43.776,55.44,43.776,55.44,43.632,55.296,43.632,55.296,43.488,55.152,43.488,55.152,43.344,55.008,43.344,55.008,43.2,54.864,43.2,54.864,43.056,54.72,43.056,54.72,42.912"/>
     <polygon  stroke-width="0" stroke="none" fill="black" points="6.48,49.968,6.48,50.112,6.336,50.112,6.336,50.256,6.192,50.256,6.192,50.544,6.048,50.544,6.048,50.688,5.76,50.688,5.76,50.832,5.616,50.832,5.616,50.976,5.328,50.976,5.328,51.12,5.04,51.12,5.04,51.264,4.608,51.264,4.608,51.408,13.248,51.408,13.248,51.264,13.392,51.264,13.392,51.12,13.968,51.12,13.968,50.976,16.416,50.976,16.416,49.968"/>
     <polygon  stroke-width="0" stroke="none" fill="black" points="0,50.112,0,51.408,3.168,51.408,3.168,51.264,2.736,51.264,2.736,51.12,2.448,51.12,2.448,50.976,2.16,50.976,2.16,50.832,2.016,50.832,2.016,50.688,1.872,50.688,1.872,50.544,1.728,50.544,1.728,50.4,1.584,50.4,1.584,50.256,1.44,50.256,1.44,50.112"/>
     <polygon  stroke-width="0" stroke="none" fill="black" points="59.328,50.544,59.328,50.688,59.04,50.688,59.04,50.832,58.896,50.832,58.896,50.976,58.608,50.976,58.608,51.12,58.32,51.12,58.32,51.264,57.888,51.264,57.888,51.408,60.768,51.408,60.768,50.544"/>
     <polygon  stroke-width="0" stroke="none" fill="black" points="0,51.408,0,51.552,12.96,51.552,12.96,51.408"/>
     <polygon  stroke-width="0" stroke="none" fill="black" points="0,51.408,0,51.552,12.96,51.552,12.96,51.408"/>
     <polygon  stroke-width="0" stroke="none" fill="black" points="22.32,51.408,22.32,51.552,60.768,51.552,60.768,51.408"/>
     <polygon  stroke-width="0" stroke="none" fill="black" points="22.32,51.408,22.32,51.552,60.768,51.552,60.768,51.408"/>
     <polygon  stroke-width="0" stroke="none" fill="black" points="0,51.552,0,55.872,2.16,55.872,2.16,56.016,2.736,56.016,2.736,56.16,3.168,56.16,3.168,56.304,3.312,56.304,3.312,56.448,3.6,56.448,3.6,56.592,3.744,56.592,3.744,56.736,4.032,56.736,4.032,56.88,4.176,56.88,4.176,57.168,4.32,57.168,4.32,57.312,4.464,57.312,4.464,57.456,4.608,57.456,4.608,57.6,6.048,57.6,6.048,57.312,6.192,57.312,6.192,57.168,6.336,57.168,6.336,57.024,6.48,57.024,6.48,56.88,6.624,56.88,6.624,56.736,6.768,56.736,6.768,56.592,6.912,56.592,6.912,56.448,7.2,56.448,7.2,56.304,7.488,56.304,7.488,56.16,7.92,56.16,7.92,56.016,8.496,56.016,8.496,55.872,9.648,55.872,9.648,55.728,9.792,55.728,9.792,55.44,9.936,55.44,9.936,55.296,10.08,55.296,10.08,55.152,10.224,55.152,10.224,54.864,10.368,54.864,10.368,54.72,10.512,54.72,10.512,54.576,10.656,54.576,10.656,54.432,10.8,54.432,10.8,54.144,10.944,54.144,10.944,54,11.088,54,11.088,53.856,11.232,53.856,11.232,53.712,11.376,53.712,11.376,53.424,11.52,53.424,11.52,53.28,11.664,53.28,11.664,53.136,11.808,53.136,11.808,52.848,11.952,52.848,11.952,52.704,12.096,52.704,12.096,52.56,12.24,52.56,12.24,52.416,12.384,52.416,12.384,52.128,12.528,52.128,12.528,51.984,12.672,51.984,12.672,51.84,12.816,51.84,12.816,51.696,12.96,51.696,12.96,51.552"/>
     <polygon  stroke-width="0" stroke="none" fill="black" points="22.32,51.552,22.32,55.872,52.56,55.872,52.56,56.016,53.136,56.016,53.136,56.16,53.568,56.16,53.568,56.304,53.712,56.304,53.712,56.448,54,56.448,54,56.592,54.144,56.592,54.144,56.736,54.432,56.736,54.432,56.88,54.576,56.88,54.576,57.168,54.72,57.168,54.72,57.312,54.864,57.312,54.864,57.456,55.008,57.456,55.008,57.6,56.448,57.6,56.448,57.312,56.592,57.312,56.592,57.168,56.736,57.168,56.736,57.024,56.88,57.024,56.88,56.88,57.024,56.88,57.024,56.736,57.168,56.736,57.168,56.592,57.312,56.592,57.312,56.448,57.6,56.448,57.6,56.304,57.888,56.304,57.888,56.16,58.32,56.16,58.32,56.016,58.896,56.016,58.896,55.872,60.768,55.872,60.768,51.552"/>
     <polygon  stroke-width="0" stroke="none" fill="black" points="23.76,55.872,23.76,56.016,24.336,56.016,24.336,56.16,24.768,56.16,24.768,56.304,24.912,56.304,24.912,56.448,25.2,56.448,25.2,56.592,25.344,56.592,25.344,56.736,25.632,56.736,25.632,56.88,25.776,56.88,25.776,57.168,25.92,57.168,25.92,57.312,26.064,57.312,26.064,57.456,26.208,57.456,26.208,57.6,27.648,57.6,27.648,57.312,27.792,57.312,27.792,57.168,27.936,57.168,27.936,57.024,28.08,57.024,28.08,56.88,28.224,56.88,28.224,56.736,28.368,56.736,28.368,56.592,28.512,56.592,28.512,56.448,28.8,56.448,28.8,56.304,29.088,56.304,29.088,56.16,29.52,56.16,29.52,56.016,30.096,56.016,30.096,55.872"/>
     <polygon  stroke-width="0" stroke="none" fill="black" points="30.96,55.872,30.96,56.016,31.536,56.016,31.536,56.16,31.968,56.16,31.968,56.304,32.112,56.304,32.112,56.448,32.4,56.448,32.4,56.592,32.544,56.592,32.544,56.736,32.832,56.736,32.832,56.88,32.976,56.88,32.976,57.168,33.12,57.168,33.12,57.312,33.264,57.312,33.264,57.456,33.408,57.456,33.408,57.6,34.848,57.6,34.848,57.312,34.992,57.312,34.992,57.168,35.136,57.168,35.136,57.024,35.28,57.024,35.28,56.88,35.424,56.88,35.424,56.736,35.568,56.736,35.568,56.592,35.712,56.592,35.712,56.448,36,56.448,36,56.304,36.288,56.304,36.288,56.16,36.72,56.16,36.72,56.016,37.296,56.016,37.296,55.872"/>
     <polygon  stroke-width="0" stroke="none" fill="black" points="38.16,55.872,38.16,56.016,38.736,56.016,38.736,56.16,39.168,56.16,39.168,56.304,39.312,56.304,39.312,56.448,39.6,56.448,39.6,56.592,39.744,56.592,39.744,56.736,40.032,56.736,40.032,56.88,40.176,56.88,40.176,57.168,40.32,57.168,40.32,57.312,40.464,57.312,40.464,57.456,40.608,57.456,40.608,57.6,42.048,57.6,42.048,57.312,42.192,57.312,42.192,57.168,42.336,57.168,42.336,57.024,42.48,57.024,42.48,56.88,42.624,56.88,42.624,56.736,42.768,56.736,42.768,56.592,42.912,56.592,42.912,56.448,43.2,56.448,43.2,56.304,43.488,56.304,43.488,56.16,43.92,56.16,43.92,56.016,44.496,56.016,44.496,55.872"/>
     <polygon  stroke-width="0" stroke="none" fill="black" points="45.36,55.872,45.36,56.016,45.936,56.016,45.936,56.16,46.368,56.16,46.368,56.304,46.512,56.304,46.512,56.448,46.8,56.448,46.8,56.592,46.944,56.592,46.944,56.736,47.232,56.736,47.232,56.88,47.376,56.88,47.376,57.168,47.52,57.168,47.52,57.312,47.664,57.312,47.664,57.456,47.808,57.456,47.808,57.6,49.248,57.6,49.248,57.312,49.392,57.312,49.392,57.168,49.536,57.168,49.536,57.024,49.68,57.024,49.68,56.88,49.824,56.88,49.824,56.736,49.968,56.736,49.968,56.592,50.112,56.592,50.112,56.448,50.4,56.448,50.4,56.304,50.688,56.304,50.688,56.16,51.12,56.16,51.12,56.016,51.696,56.016,51.696,55.872"/>
     <g  id="connector0pad">
      <circle  stroke-width="0" stroke="none" cy="14.8305" cx="36.8298" fill="black" r="2.7"/>
     </g>
    </g>
   </g>
  </g>
  <g partID="854693940">
   <g transform="translate(20.592,57.888)">
    <g  id="groundplane">
     <g  id="connector0pad">
      <polygon  stroke-width="0" stroke="none" fill="black" points="0,0,0,1.44,0.288,1.44,0.288,1.584,0.432,1.584,0.432,1.728,0.72,1.728,0.72,1.872,0.864,1.872,0.864,2.16,1.008,2.16,1.008,2.304,1.152,2.304,1.152,2.448,1.296,2.448,1.296,2.592,2.736,2.592,2.736,2.304,2.88,2.304,2.88,2.16,3.024,2.16,3.024,2.016,3.168,2.016,3.168,1.872,3.312,1.872,3.312,1.728,3.456,1.728,3.456,1.584,3.6,1.584,3.6,1.44,3.888,1.44,3.888,0"/>
     </g>
    </g>
   </g>
  </g>
  <g partID="854693950">
   <g transform="translate(3.312,49.536)">
    <g  id="groundplane">
     <polygon  stroke-width="0" stroke="none" fill="black" points="0,0,2.016,0,2.016,2.808,0,2.808"/>
    </g>
   </g>
  </g>
  <g partID="854693960">
   <g transform="translate(8.064,49.536)">
    <g  id="groundplane">
     <polygon  stroke-width="0" stroke="none" fill="black" points="0,0,1.872,0,1.872,2.808,0,2.808"/>
    </g>
   </g>
  </g>
  <g partID="854693970">
   <g transform="translate(56.736,49.536)">
    <g  id="groundplane">
     <polygon  stroke-width="0" stroke="none" fill="black" points="0,0,1.728,0,1.728,2.808,0,2.808"/>
    </g>
   </g>
  </g>
  <g partID="854693980">
   <g transform="translate(61.2,49.536)">
    <g  id="groundplane">
     <polygon  stroke-width="0" stroke="none" fill="black" points="0,0,2.016,0,2.016,2.808,0,2.808"/>
    </g>
   </g>
  </g>
  <g partID="854688000">
   <g transform="translate(21.8278,25.4683)">
    <g transform="matrix(-1,0,0,-1,0,0)">
     <g id="copper0" flipped="1">
      <g transform="matrix(-1, 0, 0, 1, 6.27336, 0)">
       <g>
        <g>
         <g>
          <rect id="connector0pad" stroke-width="0" stroke-linecap="round" connectorname="1" width="1.8" x="0.96109" stroke="none" fill="black" y="1.32265" height="3.6"/>
          <rect id="connector1pad" stroke-width="0" stroke-linecap="round" connectorname="2" width="1.8" x="3.51227" stroke="none" fill="black" y="1.32265" height="3.6"/>
          <g id="copper0"/>
         </g>
         <g/>
        </g>
       </g>
      </g>
     </g>
    </g>
   </g>
  </g>
  <g partID="854688810">
   <g transform="translate(21.8278,32.6966)">
    <g transform="matrix(-1,0,0,-1,0,0)">
     <g id="copper0" flipped="1">
      <g transform="matrix(-1, 0, 0, 1, 6.27336, 0)">
       <g>
        <g>
         <g>
          <rect id="connector0pad" stroke-width="0" stroke-linecap="round" connectorname="1" width="1.8" x="0.96109" stroke="none" fill="black" y="1.32265" height="3.6"/>
          <rect id="connector1pad" stroke-width="0" stroke-linecap="round" connectorname="2" width="1.8" x="3.51227" stroke="none" fill="black" y="1.32265" height="3.6"/>
          <g id="copper0"/>
         </g>
         <g/>
        </g>
       </g>
      </g>
     </g>
    </g>
   </g>
  </g>
  <g partID="854689530">
   <g transform="translate(21.8278,39.7832)">
    <g transform="matrix(-1,0,0,-1,0,0)">
     <g id="copper0" flipped="1">
      <g transform="matrix(-1, 0, 0, 1, 6.27336, 0)">
       <g>
        <g>
         <g>
          <rect id="connector0pad" stroke-width="0" stroke-linecap="round" connectorname="1" width="1.8" x="0.96109" stroke="none" fill="black" y="1.32265" height="3.6"/>
          <rect id="connector1pad" stroke-width="0" stroke-linecap="round" connectorname="2" width="1.8" x="3.51227" stroke="none" fill="black" y="1.32265" height="3.6"/>
          <g id="copper0"/>
         </g>
         <g/>
        </g>
       </g>
      </g>
     </g>
    </g>
   </g>
  </g>
  <g partID="854690770">
   <g transform="translate(19.0976,52.2466)">
    <g id="copper0" flipped="1">
     <g transform="matrix(-1, 0, 0, 1, 6.27336, 0)">
      <g>
       <g>
        <g>
         <rect id="connector0pad" stroke-width="0" stroke-linecap="round" connectorname="1" width="1.8" x="0.96109" stroke="none" fill="black" y="1.32265" height="3.6"/>
         <rect id="connector1pad" stroke-width="0" stroke-linecap="round" connectorname="2" width="1.8" x="3.51227" stroke="none" fill="black" y="1.32265" height="3.6"/>
         <g id="copper0"/>
        </g>
        <g/>
       </g>
      </g>
     </g>
    </g>
   </g>
  </g>
  <g partID="60330">
   <g transform="translate(65.7744,0.972384)">
    <g transform="matrix(0,1,-1,0,0,0)">
     <g  id="copper0" gorn="0.3.0">
      <circle  id="connector12pad" stroke-width="1.224" connectorname="GND" stroke="black" cy="25.2" cx="3.6" fill="none" gorn="0.3.0.0" r="2.052"/>
      <rect  stroke-width="1.224" width="4.104" x="1.548" stroke="black" fill="none" y="23.148" height="4.104"/>
      <circle  id="connector13pad" stroke-width="1.224" connectorname="VDD" stroke="black" cy="32.4" cx="3.6" fill="none" gorn="0.3.0.2" r="2.052"/>
      <circle  id="connector14pad" stroke-width="1.224" connectorname="SDA" stroke="black" cy="39.6" cx="3.6" fill="none" gorn="0.3.0.3" r="2.052"/>
      <circle  id="connector15pad" stroke-width="1.224" connectorname="SCL" stroke="black" cy="46.8" cx="3.6" fill="none" gorn="0.3.0.4" r="2.052"/>
      <circle  id="connector16pad" stroke-width="1.224" connectorname="SDO_A/G" stroke="black" cy="61.2" cx="61.2" fill="none" gorn="0.3.0.5" r="2.052"/>
      <circle  id="connector17pad" stroke-width="1.224" connectorname="SDO_M" stroke="black" cy="54" cx="61.2" fill="none" gorn="0.3.0.6" r="2.052"/>
      <circle  id="connector18pad" stroke-width="1.224" connectorname="CS_A/G" stroke="black" cy="46.8" cx="61.2" fill="none" gorn="0.3.0.7" r="2.052"/>
      <circle  id="connector19pad" stroke-width="1.224" connectorname="CS_M" stroke="black" cy="39.6" cx="61.2" fill="none" gorn="0.3.0.8" r="2.052"/>
      <circle  id="connector20pad" stroke-width="1.224" connectorname="DRDY_M" stroke="black" cy="32.4" cx="61.2" fill="none" gorn="0.3.0.9" r="2.052"/>
      <circle  id="connector21pad" stroke-width="1.224" connectorname="INT_M" stroke="black" cy="25.2" cx="61.2" fill="none" gorn="0.3.0.10" r="2.052"/>
      <circle  id="connector22pad" stroke-width="1.224" connectorname="INT1_A/G" stroke="black" cy="18" cx="61.2" fill="none" gorn="0.3.0.11" r="2.052"/>
      <circle  id="connector23pad" stroke-width="1.224" connectorname="INT2_A/G" stroke="black" cy="10.8" cx="61.2" fill="none" gorn="0.3.0.12" r="2.052"/>
      <circle  id="connector24pad" stroke-width="1.224" connectorname="DEN_A/G" stroke="black" cy="3.6" cx="61.2" fill="none" gorn="0.3.0.13" r="2.052"/>
     </g>
    </g>
   </g>
  </g>
  <g partID="854668570">
   <g transform="translate(55.0368,10.1339)">
    <g  id="copper0">
     <circle  id="connector0pin" stroke-width="0.992124" stroke="black" cy="5.04" cx="5.04" fill="none" r="1.91339"/>
     <circle  id="connector1pin" stroke-width="0.992124" stroke="black" cy="12.24" cx="5.04" fill="none" r="1.91339"/>
     <circle  id="connector2pin" stroke-width="0.992124" stroke="black" cy="19.44" cx="5.04" fill="none" r="1.91339"/>
     <circle  id="connector3pin" stroke-width="0.992124" stroke="black" cy="26.64" cx="5.04" fill="none" r="1.91339"/>
     <circle  id="connector4pin" stroke-width="0.992124" stroke="black" cy="33.84" cx="5.04" fill="none" r="1.91339"/>
     <circle  id="connector5pin" stroke-width="0.992124" stroke="black" cy="41.04" cx="5.04" fill="none" r="1.91339"/>
    </g>
   </g>
  </g>
  <g partID="854668990">
   <g transform="translate(1.7456,10.1339)">
    <g  id="copper0">
     <circle  id="connector0pin" stroke-width="0.992124" stroke="black" cy="5.04" cx="5.04" fill="none" r="1.91339"/>
     <circle  id="connector1pin" stroke-width="0.992124" stroke="black" cy="12.24" cx="5.04" fill="none" r="1.91339"/>
     <circle  id="connector2pin" stroke-width="0.992124" stroke="black" cy="19.44" cx="5.04" fill="none" r="1.91339"/>
     <circle  id="connector3pin" stroke-width="0.992124" stroke="black" cy="26.64" cx="5.04" fill="none" r="1.91339"/>
     <circle  id="connector4pin" stroke-width="0.992124" stroke="black" cy="33.84" cx="5.04" fill="none" r="1.91339"/>
     <circle  id="connector5pin" stroke-width="0.992124" stroke="black" cy="41.04" cx="5.04" fill="none" r="1.91339"/>
    </g>
   </g>
  </g>
  <g partID="854690070">
   <line stroke-width="0.576" stroke-linecap="round" y1="36.6459" y2="36.6596" stroke="black" x2="20.4667" x1="28.036"/>
  </g>
  <g partID="854689920">
   <line stroke-width="0.576" stroke-linecap="round" y1="35.5274" y2="36.6459" stroke="black" x2="28.0361" x1="28.752"/>
  </g>
  <g partID="854689770">
   <line stroke-width="0.576" stroke-linecap="round" y1="6.89241" y2="35.5274" stroke="black" x2="28.7522" x1="28.8864"/>
  </g>
  <g partID="854689620">
   <line stroke-width="0.576" stroke-linecap="round" y1="5.76855" y2="6.89243" stroke="black" x2="28.8863" x1="27.5726"/>
  </g>
  <g partID="854689550">
   <line stroke-width="0.576" stroke-linecap="round" y1="36.7545" y2="36.6659" stroke="black" x2="16.9155" x1="8.60282"/>
  </g>
  <g partID="854689280">
   <line stroke-width="0.576" stroke-linecap="round" y1="29.5766" y2="29.5742" stroke="black" x2="20.4667" x1="25.2176"/>
  </g>
  <g partID="854689130">
   <line stroke-width="0.576" stroke-linecap="round" y1="28.5923" y2="29.5767" stroke="black" x2="25.2171" x1="26.0672"/>
  </g>
  <g partID="854688980">
   <line stroke-width="0.576" stroke-linecap="round" y1="6.41239" y2="28.5924" stroke="black" x2="26.0675" x1="26.1662"/>
  </g>
  <g partID="854688910">
   <line stroke-width="0.576" stroke-linecap="round" y1="29.5739" y2="29.5739" stroke="black" x2="16.9155" x1="8.60292"/>
  </g>
  <g partID="854688580">
   <line stroke-width="0.576" stroke-linecap="round" y1="22.3624" y2="22.3489" stroke="black" x2="20.4667" x1="22.5064"/>
  </g>
  <g partID="854688430">
   <line stroke-width="0.576" stroke-linecap="round" y1="6.89961" y2="21.2198" stroke="black" x2="23.3825" x1="23.4968"/>
  </g>
  <g partID="854688280">
   <line stroke-width="0.576" stroke-linecap="round" y1="21.2198" y2="22.3624" stroke="black" x2="22.5064" x1="23.3824"/>
  </g>
  <g partID="854688130">
   <line stroke-width="0.576" stroke-linecap="round" y1="5.77948" y2="6.89964" stroke="black" x2="23.4969" x1="24.7857"/>
  </g>
  <g partID="854688060">
   <line stroke-width="0.576" stroke-linecap="round" y1="22.3691" y2="22.3469" stroke="black" x2="16.9155" x1="8.60292"/>
  </g>
  <g partID="854631310">
   <line stroke-width="0.576" stroke-linecap="round" y1="6.41241" y2="13.0997" stroke="black" x2="18.9824" x1="18.9761"/>
  </g>
  <g partID="81720">
   <line stroke-width="1.728" stroke-linecap="round" y1="44.0615" y2="43.9817" stroke="black" x2="9.00331" x1="31.7352"/>
  </g>
  <g partID="81610">
   <line stroke-width="1.728" stroke-linecap="round" y1="40.6598" y2="44.0615" stroke="black" x2="31.7348" x1="33.7152"/>
  </g>
  <g partID="81500">
   <line stroke-width="1.728" stroke-linecap="round" y1="6.81231" y2="40.6598" stroke="black" x2="33.7152" x1="33.3956"/>
  </g>
  <g partID="854690880">
   <line stroke-width="1.728" stroke-linecap="round" y1="55.4955" y2="55.3852" stroke="black" x2="20.4587" x1="17.008"/>
  </g>
  <g partID="854690810">
   <line stroke-width="1.728" stroke-linecap="round" y1="60.4095" y2="55.4955" stroke="black" x2="17.0082" x1="13.1563"/>
  </g>
  <g partID="854631530">
   <line stroke-width="0.576" stroke-linecap="round" y1="13.0997" y2="15.0879" stroke="black" x2="17.2782" x1="18.9824"/>
  </g>
  <g partID="854631420">
   <line stroke-width="0.576" stroke-linecap="round" y1="15.0878" y2="15.159" stroke="black" x2="8.60302" x1="17.2784"/>
  </g>
 </g>
</svg>
