G04 MADE WITH FRITZING*
G04 WWW.FRITZING.ORG*
G04 DOUBLE SIDED*
G04 HOLES PLATED*
G04 CONTOUR ON CENTER OF CONTOUR VECTOR*
%ASAXBY*%
%FSLAX23Y23*%
%MOIN*%
%OFA0B0*%
%SFA1.0B1.0*%
%ADD10R,0.925197X0.925197X0.909197X0.909197*%
%ADD11C,0.008000*%
%ADD12R,0.001000X0.001000*%
%LNSILK0*%
G90*
G70*
G54D11*
X4Y921D02*
X921Y921D01*
X921Y4D01*
X4Y4D01*
X4Y921D01*
D02*
X291Y654D02*
X228Y654D01*
D02*
X228Y575D02*
X291Y575D01*
D02*
X291Y554D02*
X228Y554D01*
D02*
X228Y475D02*
X291Y475D01*
D02*
X291Y455D02*
X228Y455D01*
D02*
X228Y377D02*
X291Y377D01*
D02*
X277Y117D02*
X340Y117D01*
D02*
X340Y196D02*
X277Y196D01*
G36*
X743Y686D02*
X743Y686D01*
X743Y687D01*
X743Y687D01*
X743Y686D01*
G37*
D02*
G36*
X743Y688D02*
X743Y688D01*
X743Y688D01*
X743Y688D01*
X743Y688D01*
G37*
D02*
G36*
X743Y609D02*
X742Y609D01*
X742Y609D01*
X743Y609D01*
X743Y609D01*
G37*
D02*
G36*
X742Y608D02*
X742Y608D01*
X742Y608D01*
X742Y608D01*
X742Y608D01*
G37*
D02*
G36*
X742Y607D02*
X741Y607D01*
X741Y607D01*
X742Y607D01*
X742Y607D01*
G37*
D02*
G36*
X741Y493D02*
X741Y493D01*
X741Y492D01*
X739Y492D01*
X739Y539D01*
X732Y539D01*
X732Y537D01*
X728Y537D01*
X728Y533D01*
X719Y533D01*
X719Y533D01*
X719Y533D01*
X719Y532D01*
X718Y532D01*
X718Y532D01*
X718Y532D01*
X718Y531D01*
X718Y531D01*
X718Y531D01*
X717Y531D01*
X717Y531D01*
X716Y531D01*
X716Y530D01*
X716Y530D01*
X716Y530D01*
X716Y530D01*
X716Y529D01*
X715Y529D01*
X715Y529D01*
X715Y529D01*
X715Y529D01*
X714Y529D01*
X714Y528D01*
X714Y528D01*
X714Y528D01*
X711Y528D01*
X711Y528D01*
X710Y528D01*
X710Y527D01*
X710Y527D01*
X710Y560D01*
X711Y560D01*
X711Y561D01*
X712Y561D01*
X712Y561D01*
X712Y561D01*
X712Y562D01*
X713Y562D01*
X713Y562D01*
X714Y562D01*
X714Y562D01*
X715Y562D01*
X715Y563D01*
X716Y563D01*
X716Y563D01*
X716Y563D01*
X716Y564D01*
X717Y564D01*
X717Y564D01*
X718Y564D01*
X718Y564D01*
X719Y564D01*
X719Y565D01*
X720Y565D01*
X720Y565D01*
X720Y565D01*
X720Y566D01*
X721Y566D01*
X721Y566D01*
X722Y566D01*
X722Y566D01*
X723Y566D01*
X723Y567D01*
X724Y567D01*
X724Y567D01*
X724Y567D01*
X724Y568D01*
X725Y568D01*
X725Y568D01*
X726Y568D01*
X726Y568D01*
X727Y568D01*
X727Y569D01*
X728Y569D01*
X728Y569D01*
X728Y569D01*
X728Y570D01*
X729Y570D01*
X729Y570D01*
X730Y570D01*
X730Y570D01*
X731Y570D01*
X731Y571D01*
X732Y571D01*
X732Y571D01*
X733Y571D01*
X733Y572D01*
X734Y572D01*
X734Y572D01*
X734Y572D01*
X734Y572D01*
X735Y572D01*
X735Y573D01*
X736Y573D01*
X736Y573D01*
X737Y573D01*
X737Y574D01*
X738Y574D01*
X738Y574D01*
X739Y574D01*
X739Y574D01*
X739Y574D01*
X739Y575D01*
X740Y575D01*
X740Y575D01*
X741Y575D01*
X741Y576D01*
X741Y576D01*
X741Y493D01*
G37*
D02*
G36*
X739Y492D02*
X739Y492D01*
X739Y492D01*
X738Y492D01*
X738Y491D01*
X736Y491D01*
X736Y491D01*
X735Y491D01*
X735Y491D01*
X733Y491D01*
X733Y490D01*
X732Y490D01*
X732Y490D01*
X730Y490D01*
X730Y489D01*
X729Y489D01*
X729Y489D01*
X728Y489D01*
X728Y489D01*
X726Y489D01*
X726Y488D01*
X724Y488D01*
X724Y488D01*
X723Y488D01*
X723Y487D01*
X722Y487D01*
X722Y487D01*
X720Y487D01*
X720Y487D01*
X719Y487D01*
X719Y486D01*
X717Y486D01*
X717Y486D01*
X716Y486D01*
X716Y485D01*
X714Y485D01*
X714Y485D01*
X713Y485D01*
X713Y485D01*
X712Y485D01*
X712Y484D01*
X710Y484D01*
X710Y524D01*
X710Y524D01*
X710Y524D01*
X711Y524D01*
X711Y523D01*
X714Y523D01*
X714Y524D01*
X714Y524D01*
X714Y523D01*
X715Y523D01*
X715Y522D01*
X715Y522D01*
X715Y522D01*
X716Y522D01*
X716Y522D01*
X716Y522D01*
X716Y521D01*
X716Y521D01*
X716Y521D01*
X717Y521D01*
X717Y520D01*
X718Y520D01*
X718Y520D01*
X718Y520D01*
X718Y520D01*
X718Y520D01*
X718Y519D01*
X719Y519D01*
X719Y519D01*
X728Y519D01*
X728Y514D01*
X732Y514D01*
X732Y512D01*
X739Y512D01*
X739Y492D01*
G37*
D02*
G36*
X710Y484D02*
X710Y484D01*
X710Y560D01*
X710Y560D01*
X710Y484D01*
G37*
D02*
G36*
X710Y484D02*
X710Y484D01*
X710Y560D01*
X710Y560D01*
X710Y484D01*
G37*
D02*
G36*
X710Y484D02*
X709Y484D01*
X709Y528D01*
X708Y528D01*
X708Y527D01*
X708Y527D01*
X708Y527D01*
X707Y527D01*
X707Y527D01*
X706Y527D01*
X706Y526D01*
X705Y526D01*
X705Y526D01*
X705Y526D01*
X705Y525D01*
X704Y525D01*
X704Y525D01*
X703Y525D01*
X703Y524D01*
X703Y524D01*
X703Y524D01*
X702Y524D01*
X702Y524D01*
X701Y524D01*
X701Y523D01*
X701Y523D01*
X701Y523D01*
X700Y523D01*
X700Y522D01*
X699Y522D01*
X699Y522D01*
X699Y522D01*
X699Y522D01*
X698Y522D01*
X698Y521D01*
X697Y521D01*
X697Y521D01*
X697Y521D01*
X697Y520D01*
X696Y520D01*
X696Y520D01*
X695Y520D01*
X695Y520D01*
X695Y520D01*
X695Y519D01*
X694Y519D01*
X694Y519D01*
X693Y519D01*
X693Y518D01*
X693Y518D01*
X693Y518D01*
X692Y518D01*
X692Y518D01*
X691Y518D01*
X691Y517D01*
X691Y517D01*
X691Y517D01*
X690Y517D01*
X690Y516D01*
X689Y516D01*
X689Y516D01*
X689Y516D01*
X689Y516D01*
X688Y516D01*
X688Y515D01*
X687Y515D01*
X687Y515D01*
X687Y515D01*
X687Y514D01*
X686Y514D01*
X686Y514D01*
X685Y514D01*
X685Y514D01*
X685Y514D01*
X685Y513D01*
X684Y513D01*
X684Y513D01*
X683Y513D01*
X683Y512D01*
X683Y512D01*
X683Y512D01*
X682Y512D01*
X682Y512D01*
X681Y512D01*
X681Y511D01*
X680Y511D01*
X680Y511D01*
X680Y511D01*
X680Y510D01*
X679Y510D01*
X679Y510D01*
X678Y510D01*
X678Y510D01*
X678Y510D01*
X678Y509D01*
X677Y509D01*
X677Y509D01*
X676Y509D01*
X676Y508D01*
X676Y508D01*
X676Y508D01*
X675Y508D01*
X675Y508D01*
X674Y508D01*
X674Y507D01*
X673Y507D01*
X673Y507D01*
X673Y507D01*
X673Y506D01*
X672Y506D01*
X672Y506D01*
X671Y506D01*
X671Y506D01*
X671Y506D01*
X671Y505D01*
X670Y505D01*
X670Y506D01*
X670Y506D01*
X670Y507D01*
X670Y507D01*
X670Y508D01*
X669Y508D01*
X669Y509D01*
X669Y509D01*
X669Y510D01*
X668Y510D01*
X668Y511D01*
X668Y511D01*
X668Y512D01*
X668Y512D01*
X668Y512D01*
X667Y512D01*
X667Y513D01*
X667Y513D01*
X667Y514D01*
X666Y514D01*
X666Y514D01*
X666Y514D01*
X666Y515D01*
X666Y515D01*
X666Y516D01*
X665Y516D01*
X665Y516D01*
X665Y516D01*
X665Y517D01*
X664Y517D01*
X664Y518D01*
X664Y518D01*
X664Y518D01*
X664Y518D01*
X664Y518D01*
X663Y518D01*
X663Y519D01*
X663Y519D01*
X663Y520D01*
X662Y520D01*
X662Y520D01*
X662Y520D01*
X662Y520D01*
X662Y520D01*
X662Y521D01*
X661Y521D01*
X661Y521D01*
X661Y521D01*
X661Y522D01*
X660Y522D01*
X660Y522D01*
X660Y522D01*
X660Y522D01*
X660Y522D01*
X660Y523D01*
X659Y523D01*
X659Y523D01*
X659Y523D01*
X659Y524D01*
X658Y524D01*
X658Y524D01*
X658Y524D01*
X658Y524D01*
X658Y524D01*
X658Y525D01*
X657Y525D01*
X657Y525D01*
X656Y525D01*
X656Y526D01*
X656Y526D01*
X656Y526D01*
X656Y526D01*
X656Y527D01*
X655Y527D01*
X655Y527D01*
X654Y527D01*
X654Y527D01*
X654Y527D01*
X654Y528D01*
X653Y528D01*
X653Y528D01*
X652Y528D01*
X652Y529D01*
X652Y529D01*
X652Y529D01*
X651Y529D01*
X651Y529D01*
X650Y529D01*
X650Y530D01*
X650Y530D01*
X650Y530D01*
X649Y530D01*
X649Y531D01*
X648Y531D01*
X648Y531D01*
X648Y531D01*
X648Y531D01*
X647Y531D01*
X647Y532D01*
X646Y532D01*
X646Y532D01*
X645Y532D01*
X645Y533D01*
X644Y533D01*
X644Y533D01*
X643Y533D01*
X643Y533D01*
X641Y533D01*
X641Y534D01*
X640Y534D01*
X640Y534D01*
X639Y534D01*
X639Y535D01*
X637Y535D01*
X637Y535D01*
X635Y535D01*
X635Y535D01*
X632Y535D01*
X632Y536D01*
X619Y536D01*
X619Y535D01*
X616Y535D01*
X616Y535D01*
X614Y535D01*
X614Y535D01*
X613Y535D01*
X613Y534D01*
X611Y534D01*
X611Y534D01*
X610Y534D01*
X610Y533D01*
X608Y533D01*
X608Y533D01*
X607Y533D01*
X607Y533D01*
X606Y533D01*
X606Y532D01*
X606Y532D01*
X606Y532D01*
X604Y532D01*
X604Y531D01*
X604Y531D01*
X604Y531D01*
X603Y531D01*
X603Y531D01*
X602Y531D01*
X602Y530D01*
X601Y530D01*
X601Y530D01*
X601Y530D01*
X601Y529D01*
X600Y529D01*
X600Y529D01*
X599Y529D01*
X599Y529D01*
X599Y529D01*
X599Y528D01*
X598Y528D01*
X598Y528D01*
X598Y528D01*
X598Y527D01*
X597Y527D01*
X597Y527D01*
X596Y527D01*
X596Y527D01*
X596Y527D01*
X596Y526D01*
X595Y526D01*
X595Y526D01*
X595Y526D01*
X595Y525D01*
X594Y525D01*
X594Y525D01*
X594Y525D01*
X594Y524D01*
X593Y524D01*
X593Y524D01*
X593Y524D01*
X593Y524D01*
X592Y524D01*
X592Y523D01*
X592Y523D01*
X592Y523D01*
X592Y523D01*
X592Y522D01*
X591Y522D01*
X591Y522D01*
X591Y522D01*
X591Y522D01*
X590Y522D01*
X590Y521D01*
X590Y521D01*
X590Y521D01*
X590Y521D01*
X590Y520D01*
X589Y520D01*
X589Y520D01*
X589Y520D01*
X589Y520D01*
X588Y520D01*
X588Y519D01*
X588Y519D01*
X588Y518D01*
X588Y518D01*
X588Y518D01*
X587Y518D01*
X587Y518D01*
X587Y518D01*
X587Y517D01*
X586Y517D01*
X586Y516D01*
X586Y516D01*
X586Y516D01*
X586Y516D01*
X586Y515D01*
X585Y515D01*
X585Y514D01*
X585Y514D01*
X585Y514D01*
X584Y514D01*
X584Y513D01*
X584Y513D01*
X584Y512D01*
X584Y512D01*
X584Y512D01*
X583Y512D01*
X583Y511D01*
X583Y511D01*
X583Y510D01*
X582Y510D01*
X582Y509D01*
X582Y509D01*
X582Y508D01*
X582Y508D01*
X582Y507D01*
X581Y507D01*
X581Y506D01*
X581Y506D01*
X581Y505D01*
X580Y505D01*
X580Y503D01*
X580Y503D01*
X580Y501D01*
X579Y501D01*
X579Y509D01*
X580Y509D01*
X580Y514D01*
X580Y514D01*
X580Y517D01*
X581Y517D01*
X581Y519D01*
X581Y519D01*
X581Y521D01*
X582Y521D01*
X582Y523D01*
X582Y523D01*
X582Y524D01*
X582Y524D01*
X582Y526D01*
X583Y526D01*
X583Y528D01*
X583Y528D01*
X583Y529D01*
X584Y529D01*
X584Y530D01*
X584Y530D01*
X584Y531D01*
X584Y531D01*
X584Y532D01*
X585Y532D01*
X585Y533D01*
X585Y533D01*
X585Y534D01*
X586Y534D01*
X586Y535D01*
X586Y535D01*
X586Y536D01*
X586Y536D01*
X586Y537D01*
X587Y537D01*
X587Y538D01*
X587Y538D01*
X587Y539D01*
X588Y539D01*
X588Y539D01*
X588Y539D01*
X588Y540D01*
X588Y540D01*
X588Y541D01*
X589Y541D01*
X589Y541D01*
X589Y541D01*
X589Y542D01*
X590Y542D01*
X590Y543D01*
X590Y543D01*
X590Y543D01*
X590Y543D01*
X590Y544D01*
X591Y544D01*
X591Y545D01*
X591Y545D01*
X591Y545D01*
X592Y545D01*
X592Y546D01*
X592Y546D01*
X592Y546D01*
X592Y546D01*
X592Y547D01*
X593Y547D01*
X593Y547D01*
X593Y547D01*
X593Y548D01*
X594Y548D01*
X594Y548D01*
X594Y548D01*
X594Y549D01*
X594Y549D01*
X594Y549D01*
X595Y549D01*
X595Y550D01*
X595Y550D01*
X595Y550D01*
X596Y550D01*
X596Y551D01*
X596Y551D01*
X596Y551D01*
X596Y551D01*
X596Y551D01*
X597Y551D01*
X597Y552D01*
X597Y552D01*
X597Y552D01*
X598Y552D01*
X598Y553D01*
X598Y553D01*
X598Y553D01*
X598Y553D01*
X598Y553D01*
X599Y553D01*
X599Y554D01*
X599Y554D01*
X599Y554D01*
X600Y554D01*
X600Y555D01*
X600Y555D01*
X600Y555D01*
X601Y555D01*
X601Y555D01*
X601Y555D01*
X601Y556D01*
X602Y556D01*
X602Y556D01*
X602Y556D01*
X602Y557D01*
X603Y557D01*
X603Y557D01*
X603Y557D01*
X603Y557D01*
X604Y557D01*
X604Y558D01*
X604Y558D01*
X604Y558D01*
X605Y558D01*
X605Y559D01*
X606Y559D01*
X606Y559D01*
X606Y559D01*
X606Y560D01*
X607Y560D01*
X607Y560D01*
X608Y560D01*
X608Y560D01*
X608Y560D01*
X608Y561D01*
X609Y561D01*
X609Y561D01*
X610Y561D01*
X610Y562D01*
X610Y562D01*
X610Y562D01*
X611Y562D01*
X611Y562D01*
X612Y562D01*
X612Y563D01*
X613Y563D01*
X613Y563D01*
X614Y563D01*
X614Y564D01*
X615Y564D01*
X615Y564D01*
X616Y564D01*
X616Y564D01*
X617Y564D01*
X617Y565D01*
X618Y565D01*
X618Y565D01*
X620Y565D01*
X620Y566D01*
X621Y566D01*
X621Y566D01*
X623Y566D01*
X623Y566D01*
X624Y566D01*
X624Y567D01*
X626Y567D01*
X626Y567D01*
X629Y567D01*
X629Y568D01*
X631Y568D01*
X631Y568D01*
X636Y568D01*
X636Y568D01*
X646Y568D01*
X646Y568D01*
X650Y568D01*
X650Y568D01*
X652Y568D01*
X652Y567D01*
X654Y567D01*
X654Y567D01*
X655Y567D01*
X655Y566D01*
X656Y566D01*
X656Y566D01*
X658Y566D01*
X658Y566D01*
X659Y566D01*
X659Y565D01*
X660Y565D01*
X660Y565D01*
X661Y565D01*
X661Y564D01*
X662Y564D01*
X662Y564D01*
X663Y564D01*
X663Y564D01*
X664Y564D01*
X664Y563D01*
X665Y563D01*
X665Y563D01*
X666Y563D01*
X666Y562D01*
X666Y562D01*
X666Y562D01*
X667Y562D01*
X667Y562D01*
X668Y562D01*
X668Y561D01*
X668Y561D01*
X668Y561D01*
X669Y561D01*
X669Y560D01*
X670Y560D01*
X670Y560D01*
X671Y560D01*
X671Y560D01*
X671Y560D01*
X671Y559D01*
X672Y559D01*
X672Y559D01*
X672Y559D01*
X672Y558D01*
X673Y558D01*
X673Y558D01*
X674Y558D01*
X674Y557D01*
X675Y557D01*
X675Y557D01*
X675Y557D01*
X675Y557D01*
X676Y557D01*
X676Y556D01*
X676Y556D01*
X676Y556D01*
X677Y556D01*
X677Y555D01*
X677Y555D01*
X677Y555D01*
X678Y555D01*
X678Y555D01*
X678Y555D01*
X678Y554D01*
X679Y554D01*
X679Y554D01*
X679Y554D01*
X679Y553D01*
X679Y553D01*
X679Y553D01*
X680Y553D01*
X680Y553D01*
X680Y553D01*
X680Y552D01*
X681Y552D01*
X681Y552D01*
X681Y552D01*
X681Y551D01*
X681Y551D01*
X681Y551D01*
X682Y551D01*
X682Y551D01*
X682Y551D01*
X682Y550D01*
X683Y550D01*
X683Y550D01*
X683Y550D01*
X683Y549D01*
X683Y549D01*
X683Y549D01*
X684Y549D01*
X684Y548D01*
X684Y548D01*
X684Y548D01*
X685Y548D01*
X685Y548D01*
X686Y548D01*
X686Y549D01*
X687Y549D01*
X687Y549D01*
X688Y549D01*
X688Y549D01*
X689Y549D01*
X689Y550D01*
X689Y550D01*
X689Y550D01*
X690Y550D01*
X690Y551D01*
X691Y551D01*
X691Y551D01*
X692Y551D01*
X692Y551D01*
X693Y551D01*
X693Y552D01*
X693Y552D01*
X693Y552D01*
X694Y552D01*
X694Y553D01*
X695Y553D01*
X695Y553D01*
X696Y553D01*
X696Y553D01*
X697Y553D01*
X697Y554D01*
X698Y554D01*
X698Y554D01*
X699Y554D01*
X699Y555D01*
X699Y555D01*
X699Y555D01*
X700Y555D01*
X700Y555D01*
X701Y555D01*
X701Y556D01*
X702Y556D01*
X702Y556D01*
X703Y556D01*
X703Y557D01*
X703Y557D01*
X703Y557D01*
X704Y557D01*
X704Y557D01*
X705Y557D01*
X705Y558D01*
X706Y558D01*
X706Y558D01*
X707Y558D01*
X707Y559D01*
X708Y559D01*
X708Y559D01*
X708Y559D01*
X708Y560D01*
X709Y560D01*
X709Y560D01*
X710Y560D01*
X710Y484D01*
G37*
D02*
G36*
X741Y692D02*
X741Y692D01*
X741Y693D01*
X741Y693D01*
X741Y692D01*
G37*
D02*
G36*
X741Y694D02*
X741Y694D01*
X741Y694D01*
X741Y694D01*
X741Y694D01*
G37*
D02*
G36*
X737Y516D02*
X737Y516D01*
X737Y516D01*
X737Y516D01*
X737Y516D01*
G37*
D02*
G36*
X737Y535D02*
X737Y535D01*
X737Y535D01*
X737Y535D01*
X737Y535D01*
G37*
D02*
G36*
X737Y595D02*
X737Y595D01*
X737Y597D01*
X737Y597D01*
X737Y595D01*
G37*
D02*
G36*
X737Y599D02*
X737Y599D01*
X737Y599D01*
X737Y599D01*
X737Y599D01*
G37*
D02*
G36*
X737Y595D02*
X736Y595D01*
X736Y604D01*
X737Y604D01*
X737Y595D01*
G37*
D02*
G36*
X737Y595D02*
X736Y595D01*
X736Y604D01*
X737Y604D01*
X737Y595D01*
G37*
D02*
G36*
X736Y595D02*
X734Y595D01*
X734Y602D01*
X733Y602D01*
X733Y611D01*
X733Y611D01*
X733Y620D01*
X732Y620D01*
X732Y630D01*
X732Y630D01*
X732Y638D01*
X732Y638D01*
X732Y646D01*
X731Y646D01*
X731Y650D01*
X731Y650D01*
X731Y653D01*
X730Y653D01*
X730Y655D01*
X730Y655D01*
X730Y657D01*
X730Y657D01*
X730Y659D01*
X729Y659D01*
X729Y659D01*
X729Y659D01*
X729Y661D01*
X728Y661D01*
X728Y663D01*
X728Y663D01*
X728Y664D01*
X728Y664D01*
X728Y665D01*
X727Y665D01*
X727Y667D01*
X727Y667D01*
X727Y668D01*
X726Y668D01*
X726Y669D01*
X726Y669D01*
X726Y670D01*
X726Y670D01*
X726Y671D01*
X725Y671D01*
X725Y672D01*
X725Y672D01*
X725Y673D01*
X724Y673D01*
X724Y674D01*
X724Y674D01*
X724Y675D01*
X724Y675D01*
X724Y676D01*
X723Y676D01*
X723Y677D01*
X723Y677D01*
X723Y677D01*
X722Y677D01*
X722Y678D01*
X722Y678D01*
X722Y679D01*
X722Y679D01*
X722Y680D01*
X721Y680D01*
X721Y681D01*
X721Y681D01*
X721Y681D01*
X720Y681D01*
X720Y682D01*
X720Y682D01*
X720Y683D01*
X720Y683D01*
X720Y683D01*
X719Y683D01*
X719Y684D01*
X719Y684D01*
X719Y684D01*
X718Y684D01*
X718Y685D01*
X718Y685D01*
X718Y686D01*
X718Y686D01*
X718Y686D01*
X717Y686D01*
X717Y687D01*
X717Y687D01*
X717Y688D01*
X716Y688D01*
X716Y688D01*
X716Y688D01*
X716Y689D01*
X716Y689D01*
X716Y689D01*
X715Y689D01*
X715Y690D01*
X715Y690D01*
X715Y690D01*
X714Y690D01*
X714Y691D01*
X714Y691D01*
X714Y691D01*
X714Y691D01*
X714Y692D01*
X713Y692D01*
X713Y692D01*
X713Y692D01*
X713Y693D01*
X712Y693D01*
X712Y693D01*
X712Y693D01*
X712Y694D01*
X712Y694D01*
X712Y694D01*
X711Y694D01*
X711Y695D01*
X710Y695D01*
X710Y695D01*
X710Y695D01*
X710Y696D01*
X710Y696D01*
X710Y696D01*
X709Y696D01*
X709Y697D01*
X708Y697D01*
X708Y698D01*
X708Y698D01*
X708Y698D01*
X707Y698D01*
X707Y698D01*
X707Y698D01*
X707Y699D01*
X706Y699D01*
X706Y699D01*
X706Y699D01*
X706Y700D01*
X705Y700D01*
X705Y700D01*
X705Y700D01*
X705Y700D01*
X705Y700D01*
X705Y701D01*
X704Y701D01*
X704Y701D01*
X703Y701D01*
X703Y702D01*
X703Y702D01*
X703Y702D01*
X703Y702D01*
X703Y702D01*
X702Y702D01*
X702Y703D01*
X701Y703D01*
X701Y703D01*
X701Y703D01*
X701Y704D01*
X700Y704D01*
X700Y704D01*
X700Y704D01*
X700Y704D01*
X699Y704D01*
X699Y705D01*
X699Y705D01*
X699Y705D01*
X698Y705D01*
X698Y706D01*
X697Y706D01*
X697Y706D01*
X697Y706D01*
X697Y706D01*
X696Y706D01*
X696Y707D01*
X695Y707D01*
X695Y707D01*
X695Y707D01*
X695Y708D01*
X694Y708D01*
X694Y708D01*
X693Y708D01*
X693Y708D01*
X693Y708D01*
X693Y709D01*
X692Y709D01*
X692Y709D01*
X691Y709D01*
X691Y710D01*
X690Y710D01*
X690Y710D01*
X689Y710D01*
X689Y710D01*
X689Y710D01*
X689Y711D01*
X688Y711D01*
X688Y711D01*
X687Y711D01*
X687Y712D01*
X686Y712D01*
X686Y712D01*
X685Y712D01*
X685Y712D01*
X684Y712D01*
X684Y713D01*
X683Y713D01*
X683Y713D01*
X682Y713D01*
X682Y714D01*
X680Y714D01*
X680Y714D01*
X679Y714D01*
X679Y714D01*
X677Y714D01*
X677Y715D01*
X676Y715D01*
X676Y715D01*
X675Y715D01*
X675Y716D01*
X673Y716D01*
X673Y716D01*
X672Y716D01*
X672Y717D01*
X670Y717D01*
X670Y717D01*
X666Y717D01*
X666Y717D01*
X664Y717D01*
X664Y718D01*
X662Y718D01*
X662Y718D01*
X658Y718D01*
X658Y719D01*
X656Y719D01*
X656Y718D01*
X655Y718D01*
X655Y719D01*
X648Y719D01*
X648Y719D01*
X647Y719D01*
X647Y719D01*
X641Y719D01*
X641Y718D01*
X636Y718D01*
X636Y718D01*
X634Y718D01*
X634Y717D01*
X631Y717D01*
X631Y717D01*
X629Y717D01*
X629Y717D01*
X627Y717D01*
X627Y716D01*
X625Y716D01*
X625Y716D01*
X624Y716D01*
X624Y715D01*
X623Y715D01*
X623Y715D01*
X622Y715D01*
X622Y714D01*
X620Y714D01*
X620Y714D01*
X619Y714D01*
X619Y714D01*
X618Y714D01*
X618Y713D01*
X617Y713D01*
X617Y713D01*
X616Y713D01*
X616Y712D01*
X615Y712D01*
X615Y712D01*
X615Y712D01*
X615Y712D01*
X613Y712D01*
X613Y711D01*
X613Y711D01*
X613Y711D01*
X612Y711D01*
X612Y710D01*
X611Y710D01*
X611Y710D01*
X610Y710D01*
X610Y710D01*
X610Y710D01*
X610Y709D01*
X609Y709D01*
X609Y709D01*
X608Y709D01*
X608Y708D01*
X607Y708D01*
X607Y708D01*
X606Y708D01*
X606Y708D01*
X606Y708D01*
X606Y707D01*
X606Y707D01*
X606Y707D01*
X605Y707D01*
X605Y706D01*
X604Y706D01*
X604Y706D01*
X604Y706D01*
X604Y706D01*
X603Y706D01*
X603Y705D01*
X603Y705D01*
X603Y705D01*
X602Y705D01*
X602Y704D01*
X602Y704D01*
X602Y704D01*
X602Y704D01*
X602Y704D01*
X601Y704D01*
X601Y703D01*
X600Y703D01*
X600Y703D01*
X600Y703D01*
X600Y702D01*
X600Y702D01*
X600Y702D01*
X599Y702D01*
X599Y702D01*
X599Y702D01*
X599Y701D01*
X598Y701D01*
X598Y701D01*
X598Y701D01*
X598Y700D01*
X598Y700D01*
X598Y700D01*
X597Y700D01*
X597Y700D01*
X597Y700D01*
X597Y699D01*
X596Y699D01*
X596Y699D01*
X596Y699D01*
X596Y698D01*
X596Y698D01*
X596Y698D01*
X595Y698D01*
X595Y697D01*
X595Y697D01*
X595Y697D01*
X594Y697D01*
X594Y696D01*
X594Y696D01*
X594Y696D01*
X594Y696D01*
X594Y695D01*
X593Y695D01*
X593Y694D01*
X593Y694D01*
X593Y694D01*
X592Y694D01*
X592Y694D01*
X592Y694D01*
X592Y693D01*
X592Y693D01*
X592Y692D01*
X591Y692D01*
X591Y692D01*
X591Y692D01*
X591Y691D01*
X590Y691D01*
X590Y690D01*
X590Y690D01*
X590Y690D01*
X590Y690D01*
X590Y689D01*
X589Y689D01*
X589Y688D01*
X589Y688D01*
X589Y688D01*
X588Y688D01*
X588Y687D01*
X588Y687D01*
X588Y686D01*
X588Y686D01*
X588Y685D01*
X587Y685D01*
X587Y684D01*
X587Y684D01*
X587Y683D01*
X586Y683D01*
X586Y682D01*
X586Y682D01*
X586Y681D01*
X586Y681D01*
X586Y680D01*
X585Y680D01*
X585Y679D01*
X585Y679D01*
X585Y678D01*
X584Y678D01*
X584Y677D01*
X584Y677D01*
X584Y675D01*
X584Y675D01*
X584Y674D01*
X583Y674D01*
X583Y672D01*
X583Y672D01*
X583Y670D01*
X582Y670D01*
X582Y668D01*
X582Y668D01*
X582Y665D01*
X582Y665D01*
X582Y665D01*
X581Y665D01*
X581Y661D01*
X581Y661D01*
X581Y677D01*
X581Y677D01*
X581Y679D01*
X582Y679D01*
X582Y680D01*
X582Y680D01*
X582Y681D01*
X582Y681D01*
X582Y681D01*
X583Y681D01*
X583Y682D01*
X583Y682D01*
X583Y683D01*
X584Y683D01*
X584Y684D01*
X584Y684D01*
X584Y686D01*
X584Y686D01*
X584Y686D01*
X585Y686D01*
X585Y687D01*
X585Y687D01*
X585Y688D01*
X586Y688D01*
X586Y689D01*
X586Y689D01*
X586Y690D01*
X586Y690D01*
X586Y690D01*
X587Y690D01*
X587Y691D01*
X587Y691D01*
X587Y692D01*
X588Y692D01*
X588Y692D01*
X588Y692D01*
X588Y693D01*
X588Y693D01*
X588Y694D01*
X589Y694D01*
X589Y694D01*
X589Y694D01*
X589Y695D01*
X590Y695D01*
X590Y696D01*
X590Y696D01*
X590Y696D01*
X590Y696D01*
X590Y697D01*
X591Y697D01*
X591Y698D01*
X591Y698D01*
X591Y698D01*
X592Y698D01*
X592Y698D01*
X592Y698D01*
X592Y699D01*
X592Y699D01*
X592Y700D01*
X593Y700D01*
X593Y700D01*
X593Y700D01*
X593Y700D01*
X594Y700D01*
X594Y701D01*
X594Y701D01*
X594Y701D01*
X594Y701D01*
X594Y702D01*
X595Y702D01*
X595Y702D01*
X595Y702D01*
X595Y703D01*
X596Y703D01*
X596Y703D01*
X596Y703D01*
X596Y704D01*
X596Y704D01*
X596Y704D01*
X597Y704D01*
X597Y704D01*
X598Y704D01*
X598Y705D01*
X598Y705D01*
X598Y705D01*
X598Y705D01*
X598Y706D01*
X599Y706D01*
X599Y706D01*
X599Y706D01*
X599Y706D01*
X600Y706D01*
X600Y707D01*
X600Y707D01*
X600Y707D01*
X601Y707D01*
X601Y708D01*
X601Y708D01*
X601Y708D01*
X602Y708D01*
X602Y708D01*
X602Y708D01*
X602Y709D01*
X603Y709D01*
X603Y709D01*
X603Y709D01*
X603Y710D01*
X604Y710D01*
X604Y710D01*
X604Y710D01*
X604Y710D01*
X605Y710D01*
X605Y711D01*
X606Y711D01*
X606Y711D01*
X606Y711D01*
X606Y712D01*
X607Y712D01*
X607Y712D01*
X608Y712D01*
X608Y712D01*
X609Y712D01*
X609Y713D01*
X610Y713D01*
X610Y713D01*
X610Y713D01*
X610Y714D01*
X611Y714D01*
X611Y714D01*
X612Y714D01*
X612Y714D01*
X613Y714D01*
X613Y715D01*
X613Y715D01*
X613Y715D01*
X615Y715D01*
X615Y716D01*
X615Y716D01*
X615Y716D01*
X617Y716D01*
X617Y717D01*
X617Y717D01*
X617Y717D01*
X619Y717D01*
X619Y717D01*
X620Y717D01*
X620Y718D01*
X621Y718D01*
X621Y718D01*
X623Y718D01*
X623Y719D01*
X624Y719D01*
X624Y719D01*
X625Y719D01*
X625Y719D01*
X627Y719D01*
X627Y720D01*
X629Y720D01*
X629Y720D01*
X631Y720D01*
X631Y721D01*
X634Y721D01*
X634Y721D01*
X634Y721D01*
X634Y721D01*
X635Y721D01*
X635Y721D01*
X636Y721D01*
X636Y721D01*
X642Y721D01*
X642Y722D01*
X655Y722D01*
X655Y721D01*
X661Y721D01*
X661Y721D01*
X664Y721D01*
X664Y721D01*
X667Y721D01*
X667Y720D01*
X670Y720D01*
X670Y720D01*
X672Y720D01*
X672Y719D01*
X674Y719D01*
X674Y719D01*
X675Y719D01*
X675Y719D01*
X677Y719D01*
X677Y718D01*
X678Y718D01*
X678Y718D01*
X680Y718D01*
X680Y717D01*
X681Y717D01*
X681Y717D01*
X683Y717D01*
X683Y717D01*
X683Y717D01*
X683Y716D01*
X685Y716D01*
X685Y716D01*
X686Y716D01*
X686Y715D01*
X687Y715D01*
X687Y715D01*
X688Y715D01*
X688Y714D01*
X689Y714D01*
X689Y714D01*
X689Y714D01*
X689Y714D01*
X691Y714D01*
X691Y713D01*
X691Y713D01*
X691Y713D01*
X692Y713D01*
X692Y712D01*
X693Y712D01*
X693Y712D01*
X694Y712D01*
X694Y712D01*
X695Y712D01*
X695Y711D01*
X695Y711D01*
X695Y711D01*
X696Y711D01*
X696Y710D01*
X697Y710D01*
X697Y710D01*
X697Y710D01*
X697Y710D01*
X698Y710D01*
X698Y709D01*
X699Y709D01*
X699Y709D01*
X699Y709D01*
X699Y708D01*
X700Y708D01*
X700Y708D01*
X701Y708D01*
X701Y708D01*
X701Y708D01*
X701Y707D01*
X702Y707D01*
X702Y707D01*
X702Y707D01*
X702Y706D01*
X703Y706D01*
X703Y706D01*
X703Y706D01*
X703Y706D01*
X704Y706D01*
X704Y705D01*
X705Y705D01*
X705Y705D01*
X705Y705D01*
X705Y704D01*
X705Y704D01*
X705Y704D01*
X706Y704D01*
X706Y704D01*
X707Y704D01*
X707Y703D01*
X707Y703D01*
X707Y703D01*
X708Y703D01*
X708Y702D01*
X708Y702D01*
X708Y702D01*
X708Y702D01*
X708Y702D01*
X709Y702D01*
X709Y701D01*
X709Y701D01*
X709Y701D01*
X710Y701D01*
X710Y700D01*
X710Y700D01*
X710Y700D01*
X711Y700D01*
X711Y700D01*
X711Y700D01*
X711Y699D01*
X712Y699D01*
X712Y699D01*
X712Y699D01*
X712Y698D01*
X712Y698D01*
X712Y698D01*
X713Y698D01*
X713Y698D01*
X713Y698D01*
X713Y697D01*
X714Y697D01*
X714Y696D01*
X714Y696D01*
X714Y696D01*
X714Y696D01*
X714Y696D01*
X715Y696D01*
X715Y695D01*
X715Y695D01*
X715Y695D01*
X716Y695D01*
X716Y694D01*
X716Y694D01*
X716Y694D01*
X716Y694D01*
X716Y693D01*
X717Y693D01*
X717Y693D01*
X717Y693D01*
X717Y692D01*
X718Y692D01*
X718Y692D01*
X718Y692D01*
X718Y691D01*
X718Y691D01*
X718Y691D01*
X719Y691D01*
X719Y690D01*
X719Y690D01*
X719Y690D01*
X720Y690D01*
X720Y689D01*
X720Y689D01*
X720Y688D01*
X720Y688D01*
X720Y688D01*
X721Y688D01*
X721Y687D01*
X721Y687D01*
X721Y687D01*
X722Y687D01*
X722Y686D01*
X722Y686D01*
X722Y685D01*
X722Y685D01*
X722Y685D01*
X723Y685D01*
X723Y684D01*
X723Y684D01*
X723Y683D01*
X724Y683D01*
X724Y682D01*
X724Y682D01*
X724Y682D01*
X724Y682D01*
X724Y681D01*
X725Y681D01*
X725Y680D01*
X725Y680D01*
X725Y679D01*
X726Y679D01*
X726Y679D01*
X726Y679D01*
X726Y678D01*
X726Y678D01*
X726Y677D01*
X727Y677D01*
X727Y676D01*
X727Y676D01*
X727Y675D01*
X728Y675D01*
X728Y674D01*
X728Y674D01*
X728Y673D01*
X728Y673D01*
X728Y672D01*
X729Y672D01*
X729Y671D01*
X729Y671D01*
X729Y670D01*
X730Y670D01*
X730Y669D01*
X730Y669D01*
X730Y668D01*
X730Y668D01*
X730Y667D01*
X731Y667D01*
X731Y665D01*
X731Y665D01*
X731Y664D01*
X732Y664D01*
X732Y663D01*
X732Y663D01*
X732Y661D01*
X732Y661D01*
X732Y659D01*
X733Y659D01*
X733Y657D01*
X733Y657D01*
X733Y655D01*
X734Y655D01*
X734Y653D01*
X734Y653D01*
X734Y650D01*
X734Y650D01*
X734Y646D01*
X735Y646D01*
X735Y638D01*
X735Y638D01*
X735Y629D01*
X736Y629D01*
X736Y620D01*
X736Y620D01*
X736Y611D01*
X736Y611D01*
X736Y595D01*
G37*
D02*
G36*
X734Y595D02*
X722Y595D01*
X722Y595D01*
X711Y595D01*
X711Y595D01*
X700Y595D01*
X700Y596D01*
X689Y596D01*
X689Y596D01*
X678Y596D01*
X678Y597D01*
X667Y597D01*
X667Y597D01*
X666Y597D01*
X666Y597D01*
X662Y597D01*
X662Y597D01*
X651Y597D01*
X651Y597D01*
X640Y597D01*
X640Y598D01*
X633Y598D01*
X633Y598D01*
X621Y598D01*
X621Y599D01*
X611Y599D01*
X611Y599D01*
X600Y599D01*
X600Y599D01*
X589Y599D01*
X589Y600D01*
X581Y600D01*
X581Y602D01*
X581Y602D01*
X581Y649D01*
X581Y649D01*
X581Y642D01*
X582Y642D01*
X582Y642D01*
X582Y642D01*
X582Y636D01*
X582Y636D01*
X582Y630D01*
X583Y630D01*
X583Y624D01*
X583Y624D01*
X583Y617D01*
X584Y617D01*
X584Y612D01*
X584Y612D01*
X584Y605D01*
X584Y605D01*
X584Y603D01*
X592Y603D01*
X592Y602D01*
X604Y602D01*
X604Y602D01*
X615Y602D01*
X615Y601D01*
X626Y601D01*
X626Y601D01*
X637Y601D01*
X637Y601D01*
X648Y601D01*
X648Y600D01*
X659Y600D01*
X659Y600D01*
X670Y600D01*
X670Y599D01*
X674Y599D01*
X674Y600D01*
X676Y600D01*
X676Y599D01*
X681Y599D01*
X681Y599D01*
X685Y599D01*
X685Y599D01*
X687Y599D01*
X687Y599D01*
X693Y599D01*
X693Y599D01*
X697Y599D01*
X697Y599D01*
X698Y599D01*
X698Y599D01*
X703Y599D01*
X703Y598D01*
X708Y598D01*
X708Y599D01*
X709Y599D01*
X709Y598D01*
X715Y598D01*
X715Y598D01*
X720Y598D01*
X720Y598D01*
X720Y598D01*
X720Y598D01*
X726Y598D01*
X726Y597D01*
X731Y597D01*
X731Y598D01*
X731Y598D01*
X731Y597D01*
X734Y597D01*
X734Y595D01*
G37*
D02*
G36*
X730Y658D02*
X729Y658D01*
X729Y658D01*
X730Y658D01*
X730Y658D01*
G37*
D02*
G36*
X581Y608D02*
X580Y608D01*
X580Y676D01*
X581Y676D01*
X581Y608D01*
G37*
D02*
G36*
X581Y608D02*
X580Y608D01*
X580Y676D01*
X581Y676D01*
X581Y608D01*
G37*
D02*
G36*
X580Y614D02*
X580Y614D01*
X580Y620D01*
X579Y620D01*
X579Y626D01*
X579Y626D01*
X579Y632D01*
X579Y632D01*
X579Y638D01*
X578Y638D01*
X578Y644D01*
X578Y644D01*
X578Y651D01*
X577Y651D01*
X577Y659D01*
X578Y659D01*
X578Y664D01*
X578Y664D01*
X578Y667D01*
X579Y667D01*
X579Y669D01*
X579Y669D01*
X579Y671D01*
X579Y671D01*
X579Y673D01*
X580Y673D01*
X580Y675D01*
X580Y675D01*
X580Y614D01*
G37*
D02*
G36*
X737Y333D02*
X722Y333D01*
X722Y334D01*
X699Y334D01*
X699Y334D01*
X675Y334D01*
X675Y334D01*
X664Y334D01*
X664Y335D01*
X664Y335D01*
X664Y335D01*
X664Y335D01*
X664Y336D01*
X665Y336D01*
X665Y336D01*
X665Y336D01*
X665Y336D01*
X666Y336D01*
X666Y337D01*
X666Y337D01*
X666Y337D01*
X666Y337D01*
X666Y338D01*
X667Y338D01*
X667Y338D01*
X667Y338D01*
X667Y339D01*
X668Y339D01*
X668Y339D01*
X668Y339D01*
X668Y339D01*
X668Y339D01*
X668Y340D01*
X669Y340D01*
X669Y340D01*
X669Y340D01*
X669Y341D01*
X670Y341D01*
X670Y341D01*
X670Y341D01*
X670Y341D01*
X670Y341D01*
X670Y342D01*
X671Y342D01*
X671Y342D01*
X671Y342D01*
X671Y343D01*
X672Y343D01*
X672Y343D01*
X672Y343D01*
X672Y343D01*
X672Y343D01*
X672Y344D01*
X673Y344D01*
X673Y344D01*
X673Y344D01*
X673Y345D01*
X674Y345D01*
X674Y345D01*
X674Y345D01*
X674Y345D01*
X675Y345D01*
X675Y346D01*
X675Y346D01*
X675Y346D01*
X675Y346D01*
X675Y347D01*
X676Y347D01*
X676Y347D01*
X676Y347D01*
X676Y347D01*
X677Y347D01*
X677Y348D01*
X677Y348D01*
X677Y348D01*
X677Y348D01*
X677Y349D01*
X678Y349D01*
X678Y349D01*
X678Y349D01*
X678Y349D01*
X679Y349D01*
X679Y350D01*
X679Y350D01*
X679Y350D01*
X679Y350D01*
X679Y351D01*
X680Y351D01*
X680Y351D01*
X680Y351D01*
X680Y351D01*
X681Y351D01*
X681Y352D01*
X681Y352D01*
X681Y352D01*
X681Y352D01*
X681Y353D01*
X682Y353D01*
X682Y353D01*
X682Y353D01*
X682Y353D01*
X683Y353D01*
X683Y354D01*
X683Y354D01*
X683Y354D01*
X683Y354D01*
X683Y355D01*
X684Y355D01*
X684Y355D01*
X684Y355D01*
X684Y355D01*
X685Y355D01*
X685Y356D01*
X685Y356D01*
X685Y356D01*
X685Y356D01*
X685Y357D01*
X686Y357D01*
X686Y357D01*
X686Y357D01*
X686Y357D01*
X687Y357D01*
X687Y358D01*
X687Y358D01*
X687Y358D01*
X687Y358D01*
X687Y359D01*
X688Y359D01*
X688Y359D01*
X688Y359D01*
X688Y359D01*
X689Y359D01*
X689Y360D01*
X689Y360D01*
X689Y360D01*
X689Y360D01*
X689Y361D01*
X690Y361D01*
X690Y361D01*
X690Y361D01*
X690Y361D01*
X691Y361D01*
X691Y362D01*
X691Y362D01*
X691Y362D01*
X691Y362D01*
X691Y363D01*
X692Y363D01*
X692Y363D01*
X692Y363D01*
X692Y363D01*
X693Y363D01*
X693Y364D01*
X693Y364D01*
X693Y364D01*
X693Y364D01*
X693Y365D01*
X694Y365D01*
X694Y365D01*
X694Y365D01*
X694Y365D01*
X695Y365D01*
X695Y366D01*
X695Y366D01*
X695Y366D01*
X695Y366D01*
X695Y367D01*
X696Y367D01*
X696Y367D01*
X696Y367D01*
X696Y367D01*
X697Y367D01*
X697Y368D01*
X697Y368D01*
X697Y368D01*
X697Y368D01*
X697Y369D01*
X698Y369D01*
X698Y369D01*
X698Y369D01*
X698Y370D01*
X699Y370D01*
X699Y370D01*
X699Y370D01*
X699Y370D01*
X699Y370D01*
X699Y371D01*
X700Y371D01*
X700Y371D01*
X700Y371D01*
X700Y372D01*
X701Y372D01*
X701Y372D01*
X701Y372D01*
X701Y372D01*
X701Y372D01*
X701Y373D01*
X702Y373D01*
X702Y373D01*
X702Y373D01*
X702Y374D01*
X703Y374D01*
X703Y374D01*
X703Y374D01*
X703Y374D01*
X703Y374D01*
X703Y375D01*
X704Y375D01*
X704Y375D01*
X704Y375D01*
X704Y376D01*
X705Y376D01*
X705Y376D01*
X705Y376D01*
X705Y376D01*
X705Y376D01*
X705Y377D01*
X706Y377D01*
X706Y377D01*
X706Y377D01*
X706Y378D01*
X707Y378D01*
X707Y378D01*
X707Y378D01*
X707Y378D01*
X708Y378D01*
X708Y379D01*
X708Y379D01*
X708Y379D01*
X708Y379D01*
X708Y380D01*
X709Y380D01*
X709Y380D01*
X709Y380D01*
X709Y380D01*
X710Y380D01*
X710Y381D01*
X710Y381D01*
X710Y381D01*
X710Y381D01*
X710Y382D01*
X711Y382D01*
X711Y382D01*
X711Y382D01*
X711Y382D01*
X712Y382D01*
X712Y383D01*
X712Y383D01*
X712Y383D01*
X712Y383D01*
X712Y384D01*
X713Y384D01*
X713Y384D01*
X713Y384D01*
X713Y384D01*
X714Y384D01*
X714Y385D01*
X714Y385D01*
X714Y385D01*
X714Y385D01*
X714Y386D01*
X715Y386D01*
X715Y386D01*
X715Y386D01*
X715Y386D01*
X716Y386D01*
X716Y387D01*
X716Y387D01*
X716Y387D01*
X716Y387D01*
X716Y388D01*
X717Y388D01*
X717Y388D01*
X717Y388D01*
X717Y388D01*
X718Y388D01*
X718Y389D01*
X718Y389D01*
X718Y389D01*
X718Y389D01*
X718Y390D01*
X719Y390D01*
X719Y390D01*
X719Y390D01*
X719Y390D01*
X720Y390D01*
X720Y391D01*
X720Y391D01*
X720Y391D01*
X720Y391D01*
X720Y392D01*
X721Y392D01*
X721Y392D01*
X721Y392D01*
X721Y392D01*
X722Y392D01*
X722Y393D01*
X722Y393D01*
X722Y393D01*
X722Y393D01*
X722Y394D01*
X723Y394D01*
X723Y394D01*
X723Y394D01*
X723Y394D01*
X724Y394D01*
X724Y395D01*
X724Y395D01*
X724Y395D01*
X724Y395D01*
X724Y396D01*
X725Y396D01*
X725Y396D01*
X725Y396D01*
X725Y396D01*
X726Y396D01*
X726Y397D01*
X726Y397D01*
X726Y397D01*
X726Y397D01*
X726Y398D01*
X727Y398D01*
X727Y398D01*
X727Y398D01*
X727Y398D01*
X728Y398D01*
X728Y399D01*
X728Y399D01*
X728Y399D01*
X728Y399D01*
X728Y400D01*
X729Y400D01*
X729Y400D01*
X729Y400D01*
X729Y401D01*
X730Y401D01*
X730Y401D01*
X730Y401D01*
X730Y401D01*
X730Y401D01*
X730Y402D01*
X731Y402D01*
X731Y402D01*
X731Y402D01*
X731Y403D01*
X732Y403D01*
X732Y403D01*
X732Y403D01*
X732Y403D01*
X732Y403D01*
X732Y404D01*
X733Y404D01*
X733Y404D01*
X733Y404D01*
X733Y405D01*
X734Y405D01*
X734Y405D01*
X734Y405D01*
X734Y405D01*
X734Y405D01*
X734Y406D01*
X735Y406D01*
X735Y406D01*
X735Y406D01*
X735Y407D01*
X736Y407D01*
X736Y407D01*
X736Y407D01*
X736Y403D01*
X737Y403D01*
X737Y333D01*
G37*
D02*
G36*
X737Y516D02*
X736Y516D01*
X736Y517D01*
X737Y517D01*
X737Y516D01*
G37*
D02*
G36*
X737Y535D02*
X736Y535D01*
X736Y535D01*
X737Y535D01*
X737Y535D01*
G37*
D02*
G36*
X736Y517D02*
X736Y517D01*
X736Y517D01*
X736Y517D01*
X736Y517D01*
G37*
D02*
G36*
X736Y534D02*
X736Y534D01*
X736Y535D01*
X736Y535D01*
X736Y534D01*
G37*
D02*
G36*
X736Y517D02*
X736Y517D01*
X736Y518D01*
X736Y518D01*
X736Y517D01*
G37*
D02*
G36*
X736Y534D02*
X736Y534D01*
X736Y534D01*
X736Y534D01*
X736Y534D01*
G37*
D02*
G36*
X736Y411D02*
X735Y411D01*
X735Y410D01*
X735Y410D01*
X735Y410D01*
X734Y410D01*
X734Y409D01*
X734Y409D01*
X734Y409D01*
X734Y409D01*
X734Y409D01*
X733Y409D01*
X733Y408D01*
X733Y408D01*
X733Y408D01*
X732Y408D01*
X732Y407D01*
X732Y407D01*
X732Y407D01*
X732Y407D01*
X732Y407D01*
X731Y407D01*
X731Y406D01*
X731Y406D01*
X731Y406D01*
X730Y406D01*
X730Y405D01*
X730Y405D01*
X730Y405D01*
X730Y405D01*
X730Y405D01*
X729Y405D01*
X729Y404D01*
X729Y404D01*
X729Y404D01*
X728Y404D01*
X728Y403D01*
X728Y403D01*
X728Y403D01*
X728Y403D01*
X728Y403D01*
X727Y403D01*
X727Y402D01*
X727Y402D01*
X727Y402D01*
X726Y402D01*
X726Y401D01*
X726Y401D01*
X726Y401D01*
X726Y401D01*
X726Y401D01*
X725Y401D01*
X725Y400D01*
X725Y400D01*
X725Y400D01*
X724Y400D01*
X724Y399D01*
X724Y399D01*
X724Y399D01*
X724Y399D01*
X724Y398D01*
X723Y398D01*
X723Y398D01*
X723Y398D01*
X723Y398D01*
X722Y398D01*
X722Y397D01*
X722Y397D01*
X722Y397D01*
X722Y397D01*
X722Y396D01*
X721Y396D01*
X721Y396D01*
X721Y396D01*
X721Y396D01*
X720Y396D01*
X720Y395D01*
X720Y395D01*
X720Y395D01*
X720Y395D01*
X720Y394D01*
X719Y394D01*
X719Y394D01*
X719Y394D01*
X719Y394D01*
X718Y394D01*
X718Y393D01*
X718Y393D01*
X718Y393D01*
X718Y393D01*
X718Y392D01*
X717Y392D01*
X717Y392D01*
X717Y392D01*
X717Y392D01*
X716Y392D01*
X716Y391D01*
X716Y391D01*
X716Y391D01*
X716Y391D01*
X716Y390D01*
X715Y390D01*
X715Y390D01*
X715Y390D01*
X715Y390D01*
X714Y390D01*
X714Y389D01*
X714Y389D01*
X714Y389D01*
X714Y389D01*
X714Y388D01*
X713Y388D01*
X713Y388D01*
X713Y388D01*
X713Y388D01*
X712Y388D01*
X712Y387D01*
X712Y387D01*
X712Y387D01*
X712Y387D01*
X712Y386D01*
X711Y386D01*
X711Y386D01*
X711Y386D01*
X711Y386D01*
X710Y386D01*
X710Y385D01*
X710Y385D01*
X710Y385D01*
X710Y385D01*
X710Y384D01*
X709Y384D01*
X709Y384D01*
X709Y384D01*
X709Y384D01*
X708Y384D01*
X708Y383D01*
X708Y383D01*
X708Y383D01*
X708Y383D01*
X708Y382D01*
X707Y382D01*
X707Y382D01*
X707Y382D01*
X707Y382D01*
X706Y382D01*
X706Y381D01*
X706Y381D01*
X706Y381D01*
X705Y381D01*
X705Y380D01*
X705Y380D01*
X705Y380D01*
X705Y380D01*
X705Y380D01*
X704Y380D01*
X704Y379D01*
X704Y379D01*
X704Y379D01*
X703Y379D01*
X703Y378D01*
X703Y378D01*
X703Y378D01*
X703Y378D01*
X703Y378D01*
X702Y378D01*
X702Y377D01*
X702Y377D01*
X702Y377D01*
X701Y377D01*
X701Y376D01*
X701Y376D01*
X701Y376D01*
X701Y376D01*
X701Y376D01*
X700Y376D01*
X700Y375D01*
X700Y375D01*
X700Y375D01*
X699Y375D01*
X699Y400D01*
X699Y400D01*
X699Y403D01*
X699Y403D01*
X699Y405D01*
X698Y405D01*
X698Y407D01*
X698Y407D01*
X698Y409D01*
X697Y409D01*
X697Y411D01*
X697Y411D01*
X697Y412D01*
X697Y412D01*
X697Y413D01*
X696Y413D01*
X696Y414D01*
X696Y414D01*
X696Y415D01*
X696Y415D01*
X696Y416D01*
X697Y416D01*
X697Y417D01*
X697Y417D01*
X697Y418D01*
X697Y418D01*
X697Y419D01*
X698Y419D01*
X698Y420D01*
X698Y420D01*
X698Y421D01*
X699Y421D01*
X699Y422D01*
X699Y422D01*
X699Y423D01*
X699Y423D01*
X699Y424D01*
X700Y424D01*
X700Y425D01*
X700Y425D01*
X700Y426D01*
X701Y426D01*
X701Y427D01*
X701Y427D01*
X701Y428D01*
X701Y428D01*
X701Y429D01*
X702Y429D01*
X702Y429D01*
X702Y429D01*
X702Y431D01*
X703Y431D01*
X703Y431D01*
X703Y431D01*
X703Y433D01*
X703Y433D01*
X703Y434D01*
X704Y434D01*
X704Y435D01*
X704Y435D01*
X704Y436D01*
X705Y436D01*
X705Y436D01*
X705Y436D01*
X705Y438D01*
X705Y438D01*
X705Y438D01*
X706Y438D01*
X706Y440D01*
X706Y440D01*
X706Y440D01*
X707Y440D01*
X707Y441D01*
X707Y441D01*
X707Y442D01*
X708Y442D01*
X708Y443D01*
X708Y443D01*
X708Y444D01*
X708Y444D01*
X708Y445D01*
X709Y445D01*
X709Y446D01*
X709Y446D01*
X709Y447D01*
X710Y447D01*
X710Y448D01*
X710Y448D01*
X710Y449D01*
X710Y449D01*
X710Y450D01*
X711Y450D01*
X711Y451D01*
X711Y451D01*
X711Y452D01*
X712Y452D01*
X712Y453D01*
X712Y453D01*
X712Y454D01*
X712Y454D01*
X712Y455D01*
X713Y455D01*
X713Y456D01*
X713Y456D01*
X713Y457D01*
X714Y457D01*
X714Y458D01*
X714Y458D01*
X714Y459D01*
X714Y459D01*
X714Y460D01*
X715Y460D01*
X715Y459D01*
X716Y459D01*
X716Y459D01*
X716Y459D01*
X716Y458D01*
X716Y458D01*
X716Y458D01*
X717Y458D01*
X717Y458D01*
X717Y458D01*
X717Y457D01*
X718Y457D01*
X718Y456D01*
X718Y456D01*
X718Y456D01*
X718Y456D01*
X718Y455D01*
X719Y455D01*
X719Y455D01*
X719Y455D01*
X719Y454D01*
X720Y454D01*
X720Y454D01*
X720Y454D01*
X720Y453D01*
X720Y453D01*
X720Y452D01*
X721Y452D01*
X721Y452D01*
X721Y452D01*
X721Y451D01*
X722Y451D01*
X722Y451D01*
X722Y451D01*
X722Y450D01*
X722Y450D01*
X722Y450D01*
X723Y450D01*
X723Y449D01*
X723Y449D01*
X723Y448D01*
X724Y448D01*
X724Y447D01*
X724Y447D01*
X724Y447D01*
X724Y447D01*
X724Y446D01*
X725Y446D01*
X725Y445D01*
X725Y445D01*
X725Y444D01*
X726Y444D01*
X726Y444D01*
X726Y444D01*
X726Y443D01*
X726Y443D01*
X726Y442D01*
X727Y442D01*
X727Y441D01*
X727Y441D01*
X727Y440D01*
X728Y440D01*
X728Y439D01*
X728Y439D01*
X728Y438D01*
X728Y438D01*
X728Y438D01*
X729Y438D01*
X729Y436D01*
X729Y436D01*
X729Y436D01*
X730Y436D01*
X730Y434D01*
X730Y434D01*
X730Y433D01*
X730Y433D01*
X730Y432D01*
X731Y432D01*
X731Y431D01*
X731Y431D01*
X731Y430D01*
X732Y430D01*
X732Y428D01*
X732Y428D01*
X732Y427D01*
X732Y427D01*
X732Y426D01*
X733Y426D01*
X733Y424D01*
X733Y424D01*
X733Y423D01*
X734Y423D01*
X734Y421D01*
X734Y421D01*
X734Y419D01*
X734Y419D01*
X734Y417D01*
X735Y417D01*
X735Y415D01*
X735Y415D01*
X735Y413D01*
X736Y413D01*
X736Y411D01*
G37*
D02*
G36*
X699Y374D02*
X699Y374D01*
X699Y374D01*
X699Y374D01*
X699Y374D01*
X698Y374D01*
X698Y373D01*
X698Y373D01*
X698Y373D01*
X697Y373D01*
X697Y372D01*
X697Y372D01*
X697Y372D01*
X697Y372D01*
X697Y372D01*
X696Y372D01*
X696Y371D01*
X696Y371D01*
X696Y371D01*
X695Y371D01*
X695Y370D01*
X695Y370D01*
X695Y370D01*
X695Y370D01*
X695Y370D01*
X694Y370D01*
X694Y369D01*
X694Y369D01*
X694Y369D01*
X693Y369D01*
X693Y368D01*
X693Y368D01*
X693Y368D01*
X693Y368D01*
X693Y367D01*
X692Y367D01*
X692Y367D01*
X692Y367D01*
X692Y367D01*
X691Y367D01*
X691Y366D01*
X691Y366D01*
X691Y366D01*
X691Y366D01*
X691Y365D01*
X690Y365D01*
X690Y365D01*
X690Y365D01*
X690Y365D01*
X689Y365D01*
X689Y364D01*
X689Y364D01*
X689Y364D01*
X689Y364D01*
X689Y363D01*
X688Y363D01*
X688Y363D01*
X688Y363D01*
X688Y363D01*
X687Y363D01*
X687Y362D01*
X687Y362D01*
X687Y362D01*
X687Y362D01*
X687Y361D01*
X686Y361D01*
X686Y361D01*
X686Y361D01*
X686Y361D01*
X685Y361D01*
X685Y360D01*
X685Y360D01*
X685Y360D01*
X685Y360D01*
X685Y359D01*
X684Y359D01*
X684Y359D01*
X684Y359D01*
X684Y359D01*
X683Y359D01*
X683Y358D01*
X683Y358D01*
X683Y358D01*
X683Y358D01*
X683Y357D01*
X682Y357D01*
X682Y357D01*
X682Y357D01*
X682Y357D01*
X681Y357D01*
X681Y356D01*
X681Y356D01*
X681Y356D01*
X681Y356D01*
X681Y355D01*
X680Y355D01*
X680Y355D01*
X680Y355D01*
X680Y355D01*
X679Y355D01*
X679Y354D01*
X679Y354D01*
X679Y354D01*
X679Y354D01*
X679Y353D01*
X678Y353D01*
X678Y353D01*
X678Y353D01*
X678Y353D01*
X677Y353D01*
X677Y352D01*
X677Y352D01*
X677Y352D01*
X677Y352D01*
X677Y351D01*
X676Y351D01*
X676Y351D01*
X676Y351D01*
X676Y351D01*
X675Y351D01*
X675Y350D01*
X675Y350D01*
X675Y350D01*
X675Y350D01*
X675Y349D01*
X674Y349D01*
X674Y349D01*
X674Y349D01*
X674Y349D01*
X673Y349D01*
X673Y348D01*
X673Y348D01*
X673Y348D01*
X672Y348D01*
X672Y347D01*
X672Y347D01*
X672Y347D01*
X672Y347D01*
X672Y347D01*
X671Y347D01*
X671Y346D01*
X671Y346D01*
X671Y346D01*
X670Y346D01*
X670Y345D01*
X670Y345D01*
X670Y345D01*
X670Y345D01*
X670Y345D01*
X669Y345D01*
X669Y344D01*
X669Y344D01*
X669Y344D01*
X668Y344D01*
X668Y343D01*
X668Y343D01*
X668Y343D01*
X668Y343D01*
X668Y343D01*
X667Y343D01*
X667Y342D01*
X667Y342D01*
X667Y342D01*
X666Y342D01*
X666Y341D01*
X666Y341D01*
X666Y341D01*
X666Y341D01*
X666Y341D01*
X665Y341D01*
X665Y341D01*
X666Y341D01*
X666Y342D01*
X666Y342D01*
X666Y343D01*
X666Y343D01*
X666Y344D01*
X667Y344D01*
X667Y345D01*
X667Y345D01*
X667Y346D01*
X668Y346D01*
X668Y347D01*
X668Y347D01*
X668Y348D01*
X668Y348D01*
X668Y349D01*
X669Y349D01*
X669Y350D01*
X669Y350D01*
X669Y351D01*
X670Y351D01*
X670Y352D01*
X670Y352D01*
X670Y353D01*
X670Y353D01*
X670Y354D01*
X671Y354D01*
X671Y355D01*
X671Y355D01*
X671Y356D01*
X672Y356D01*
X672Y357D01*
X672Y357D01*
X672Y358D01*
X672Y358D01*
X672Y359D01*
X673Y359D01*
X673Y360D01*
X673Y360D01*
X673Y361D01*
X674Y361D01*
X674Y361D01*
X674Y361D01*
X674Y363D01*
X675Y363D01*
X675Y363D01*
X675Y363D01*
X675Y365D01*
X675Y365D01*
X675Y365D01*
X676Y365D01*
X676Y367D01*
X676Y367D01*
X676Y367D01*
X677Y367D01*
X677Y368D01*
X677Y368D01*
X677Y370D01*
X677Y370D01*
X677Y370D01*
X678Y370D01*
X678Y372D01*
X678Y372D01*
X678Y372D01*
X679Y372D01*
X679Y373D01*
X679Y373D01*
X679Y374D01*
X679Y374D01*
X679Y375D01*
X680Y375D01*
X680Y376D01*
X680Y376D01*
X680Y377D01*
X687Y377D01*
X687Y377D01*
X699Y377D01*
X699Y374D01*
G37*
D02*
G36*
X734Y708D02*
X733Y708D01*
X733Y708D01*
X734Y708D01*
X734Y708D01*
G37*
D02*
G36*
X732Y710D02*
X732Y710D01*
X732Y710D01*
X732Y710D01*
X732Y710D01*
G37*
D02*
G36*
X731Y712D02*
X731Y712D01*
X731Y712D01*
X731Y712D01*
X731Y712D01*
G37*
D02*
G36*
X712Y462D02*
X712Y462D01*
X712Y461D01*
X712Y461D01*
X712Y460D01*
X711Y460D01*
X711Y459D01*
X711Y459D01*
X711Y458D01*
X710Y458D01*
X710Y457D01*
X710Y457D01*
X710Y456D01*
X710Y456D01*
X710Y455D01*
X709Y455D01*
X709Y454D01*
X709Y454D01*
X709Y453D01*
X708Y453D01*
X708Y452D01*
X708Y452D01*
X708Y451D01*
X708Y451D01*
X708Y450D01*
X707Y450D01*
X707Y449D01*
X707Y449D01*
X707Y448D01*
X706Y448D01*
X706Y447D01*
X706Y447D01*
X706Y446D01*
X705Y446D01*
X705Y445D01*
X705Y445D01*
X705Y444D01*
X705Y444D01*
X705Y443D01*
X704Y443D01*
X704Y442D01*
X704Y442D01*
X704Y442D01*
X703Y442D01*
X703Y440D01*
X703Y440D01*
X703Y440D01*
X703Y440D01*
X703Y438D01*
X702Y438D01*
X702Y438D01*
X702Y438D01*
X702Y436D01*
X701Y436D01*
X701Y436D01*
X701Y436D01*
X701Y435D01*
X701Y435D01*
X701Y434D01*
X700Y434D01*
X700Y433D01*
X700Y433D01*
X700Y431D01*
X699Y431D01*
X699Y431D01*
X699Y431D01*
X699Y430D01*
X699Y430D01*
X699Y429D01*
X698Y429D01*
X698Y428D01*
X698Y428D01*
X698Y427D01*
X697Y427D01*
X697Y426D01*
X697Y426D01*
X697Y425D01*
X697Y425D01*
X697Y424D01*
X696Y424D01*
X696Y423D01*
X696Y423D01*
X696Y422D01*
X695Y422D01*
X695Y421D01*
X695Y421D01*
X695Y420D01*
X695Y420D01*
X695Y419D01*
X694Y419D01*
X694Y419D01*
X694Y419D01*
X694Y419D01*
X693Y419D01*
X693Y420D01*
X693Y420D01*
X693Y421D01*
X693Y421D01*
X693Y421D01*
X692Y421D01*
X692Y422D01*
X692Y422D01*
X692Y423D01*
X691Y423D01*
X691Y423D01*
X691Y423D01*
X691Y424D01*
X691Y424D01*
X691Y425D01*
X690Y425D01*
X690Y425D01*
X690Y425D01*
X690Y425D01*
X689Y425D01*
X689Y426D01*
X689Y426D01*
X689Y427D01*
X689Y427D01*
X689Y427D01*
X688Y427D01*
X688Y427D01*
X688Y427D01*
X688Y428D01*
X687Y428D01*
X687Y428D01*
X687Y428D01*
X687Y429D01*
X687Y429D01*
X687Y429D01*
X686Y429D01*
X686Y429D01*
X686Y429D01*
X686Y430D01*
X685Y430D01*
X685Y430D01*
X685Y430D01*
X685Y431D01*
X684Y431D01*
X684Y431D01*
X684Y431D01*
X684Y431D01*
X683Y431D01*
X683Y432D01*
X683Y432D01*
X683Y432D01*
X682Y432D01*
X682Y433D01*
X681Y433D01*
X681Y433D01*
X681Y433D01*
X681Y434D01*
X680Y434D01*
X680Y434D01*
X679Y434D01*
X679Y434D01*
X679Y434D01*
X679Y435D01*
X678Y435D01*
X678Y435D01*
X677Y435D01*
X677Y436D01*
X676Y436D01*
X676Y436D01*
X675Y436D01*
X675Y436D01*
X673Y436D01*
X673Y437D01*
X672Y437D01*
X672Y437D01*
X670Y437D01*
X670Y438D01*
X668Y438D01*
X668Y438D01*
X663Y438D01*
X663Y438D01*
X662Y438D01*
X662Y483D01*
X666Y483D01*
X666Y482D01*
X670Y482D01*
X670Y482D01*
X674Y482D01*
X674Y481D01*
X676Y481D01*
X676Y481D01*
X678Y481D01*
X678Y481D01*
X680Y481D01*
X680Y480D01*
X682Y480D01*
X682Y480D01*
X683Y480D01*
X683Y479D01*
X685Y479D01*
X685Y479D01*
X686Y479D01*
X686Y479D01*
X687Y479D01*
X687Y478D01*
X688Y478D01*
X688Y478D01*
X689Y478D01*
X689Y477D01*
X690Y477D01*
X690Y477D01*
X691Y477D01*
X691Y477D01*
X692Y477D01*
X692Y476D01*
X693Y476D01*
X693Y476D01*
X694Y476D01*
X694Y475D01*
X695Y475D01*
X695Y475D01*
X696Y475D01*
X696Y475D01*
X697Y475D01*
X697Y474D01*
X697Y474D01*
X697Y474D01*
X698Y474D01*
X698Y473D01*
X699Y473D01*
X699Y473D01*
X699Y473D01*
X699Y473D01*
X700Y473D01*
X700Y472D01*
X701Y472D01*
X701Y472D01*
X701Y472D01*
X701Y471D01*
X702Y471D01*
X702Y471D01*
X703Y471D01*
X703Y471D01*
X703Y471D01*
X703Y470D01*
X704Y470D01*
X704Y470D01*
X704Y470D01*
X704Y469D01*
X705Y469D01*
X705Y469D01*
X705Y469D01*
X705Y469D01*
X706Y469D01*
X706Y468D01*
X706Y468D01*
X706Y468D01*
X707Y468D01*
X707Y467D01*
X708Y467D01*
X708Y467D01*
X708Y467D01*
X708Y467D01*
X708Y467D01*
X708Y466D01*
X709Y466D01*
X709Y466D01*
X709Y466D01*
X709Y465D01*
X710Y465D01*
X710Y465D01*
X710Y465D01*
X710Y465D01*
X711Y465D01*
X711Y464D01*
X711Y464D01*
X711Y464D01*
X712Y464D01*
X712Y463D01*
X712Y463D01*
X712Y463D01*
X712Y463D01*
X712Y462D01*
G37*
D02*
G36*
X712Y731D02*
X712Y731D01*
X712Y732D01*
X712Y732D01*
X712Y731D01*
G37*
D02*
G36*
X711Y733D02*
X710Y733D01*
X710Y733D01*
X711Y733D01*
X711Y733D01*
G37*
D02*
G36*
X710Y733D02*
X710Y733D01*
X710Y733D01*
X710Y733D01*
X710Y733D01*
G37*
D02*
G36*
X697Y630D02*
X697Y630D01*
X697Y631D01*
X697Y631D01*
X697Y630D01*
G37*
D02*
G36*
X693Y663D02*
X693Y663D01*
X693Y663D01*
X693Y663D01*
X693Y663D01*
G37*
D02*
G36*
X693Y630D02*
X692Y630D01*
X692Y631D01*
X693Y631D01*
X693Y630D01*
G37*
D02*
G36*
X689Y631D02*
X687Y631D01*
X687Y631D01*
X689Y631D01*
X689Y631D01*
G37*
D02*
G36*
X738Y199D02*
X737Y199D01*
X737Y199D01*
X736Y199D01*
X736Y198D01*
X736Y198D01*
X736Y198D01*
X735Y198D01*
X735Y198D01*
X734Y198D01*
X734Y197D01*
X733Y197D01*
X733Y197D01*
X732Y197D01*
X732Y196D01*
X731Y196D01*
X731Y196D01*
X730Y196D01*
X730Y196D01*
X729Y196D01*
X729Y195D01*
X728Y195D01*
X728Y195D01*
X728Y195D01*
X728Y194D01*
X727Y194D01*
X727Y194D01*
X726Y194D01*
X726Y285D01*
X726Y285D01*
X726Y287D01*
X726Y287D01*
X726Y288D01*
X725Y288D01*
X725Y290D01*
X725Y290D01*
X725Y291D01*
X724Y291D01*
X724Y292D01*
X724Y292D01*
X724Y293D01*
X724Y293D01*
X724Y294D01*
X723Y294D01*
X723Y295D01*
X723Y295D01*
X723Y295D01*
X722Y295D01*
X722Y296D01*
X722Y296D01*
X722Y297D01*
X722Y297D01*
X722Y297D01*
X721Y297D01*
X721Y298D01*
X721Y298D01*
X721Y299D01*
X720Y299D01*
X720Y299D01*
X720Y299D01*
X720Y300D01*
X720Y300D01*
X720Y301D01*
X719Y301D01*
X719Y301D01*
X719Y301D01*
X719Y301D01*
X718Y301D01*
X718Y302D01*
X718Y302D01*
X718Y303D01*
X718Y303D01*
X718Y303D01*
X717Y303D01*
X717Y303D01*
X717Y303D01*
X717Y304D01*
X716Y304D01*
X716Y304D01*
X716Y304D01*
X716Y305D01*
X715Y305D01*
X715Y305D01*
X715Y305D01*
X715Y305D01*
X714Y305D01*
X714Y306D01*
X714Y306D01*
X714Y306D01*
X713Y306D01*
X713Y307D01*
X713Y307D01*
X713Y307D01*
X712Y307D01*
X712Y308D01*
X711Y308D01*
X711Y308D01*
X710Y308D01*
X710Y308D01*
X710Y308D01*
X710Y309D01*
X709Y309D01*
X709Y309D01*
X708Y309D01*
X708Y310D01*
X706Y310D01*
X706Y310D01*
X705Y310D01*
X705Y310D01*
X702Y310D01*
X702Y311D01*
X696Y311D01*
X696Y310D01*
X693Y310D01*
X693Y310D01*
X691Y310D01*
X691Y310D01*
X689Y310D01*
X689Y309D01*
X688Y309D01*
X688Y309D01*
X687Y309D01*
X687Y308D01*
X686Y308D01*
X686Y308D01*
X685Y308D01*
X685Y308D01*
X683Y308D01*
X683Y307D01*
X683Y307D01*
X683Y307D01*
X682Y307D01*
X682Y306D01*
X681Y306D01*
X681Y306D01*
X680Y306D01*
X680Y305D01*
X679Y305D01*
X679Y305D01*
X678Y305D01*
X678Y305D01*
X677Y305D01*
X677Y304D01*
X676Y304D01*
X676Y304D01*
X675Y304D01*
X675Y303D01*
X675Y303D01*
X675Y303D01*
X674Y303D01*
X674Y303D01*
X673Y303D01*
X673Y302D01*
X672Y302D01*
X672Y302D01*
X672Y302D01*
X672Y301D01*
X671Y301D01*
X671Y301D01*
X670Y301D01*
X670Y301D01*
X670Y301D01*
X670Y300D01*
X669Y300D01*
X669Y300D01*
X668Y300D01*
X668Y299D01*
X668Y299D01*
X668Y299D01*
X667Y299D01*
X667Y299D01*
X666Y299D01*
X666Y298D01*
X666Y298D01*
X666Y298D01*
X665Y298D01*
X665Y297D01*
X664Y297D01*
X664Y297D01*
X664Y297D01*
X664Y297D01*
X664Y297D01*
X664Y296D01*
X663Y296D01*
X663Y296D01*
X662Y296D01*
X662Y295D01*
X662Y295D01*
X662Y295D01*
X661Y295D01*
X661Y295D01*
X661Y295D01*
X661Y294D01*
X660Y294D01*
X660Y294D01*
X660Y294D01*
X660Y293D01*
X659Y293D01*
X659Y293D01*
X659Y293D01*
X659Y293D01*
X658Y293D01*
X658Y292D01*
X658Y292D01*
X658Y292D01*
X657Y292D01*
X657Y291D01*
X657Y291D01*
X657Y291D01*
X656Y291D01*
X656Y291D01*
X656Y291D01*
X656Y290D01*
X656Y290D01*
X656Y290D01*
X655Y290D01*
X655Y289D01*
X655Y289D01*
X655Y289D01*
X654Y289D01*
X654Y289D01*
X654Y289D01*
X654Y288D01*
X654Y288D01*
X654Y288D01*
X653Y288D01*
X653Y287D01*
X653Y287D01*
X653Y287D01*
X652Y287D01*
X652Y287D01*
X652Y287D01*
X652Y286D01*
X652Y286D01*
X652Y286D01*
X651Y286D01*
X651Y285D01*
X651Y285D01*
X651Y285D01*
X650Y285D01*
X650Y285D01*
X650Y285D01*
X650Y284D01*
X650Y284D01*
X650Y283D01*
X649Y283D01*
X649Y283D01*
X649Y283D01*
X649Y283D01*
X648Y283D01*
X648Y282D01*
X648Y282D01*
X648Y281D01*
X648Y281D01*
X648Y281D01*
X647Y281D01*
X647Y281D01*
X647Y281D01*
X647Y280D01*
X646Y280D01*
X646Y279D01*
X646Y279D01*
X646Y279D01*
X646Y279D01*
X646Y279D01*
X645Y279D01*
X645Y278D01*
X645Y278D01*
X645Y277D01*
X644Y277D01*
X644Y277D01*
X644Y277D01*
X644Y276D01*
X644Y276D01*
X644Y276D01*
X643Y276D01*
X643Y275D01*
X643Y275D01*
X643Y274D01*
X642Y274D01*
X642Y274D01*
X642Y274D01*
X642Y273D01*
X641Y273D01*
X641Y272D01*
X641Y272D01*
X641Y272D01*
X641Y272D01*
X641Y271D01*
X640Y271D01*
X640Y270D01*
X640Y270D01*
X640Y270D01*
X639Y270D01*
X639Y269D01*
X639Y269D01*
X639Y268D01*
X639Y268D01*
X639Y268D01*
X638Y268D01*
X638Y267D01*
X638Y267D01*
X638Y266D01*
X637Y266D01*
X637Y266D01*
X637Y266D01*
X637Y265D01*
X637Y265D01*
X637Y264D01*
X636Y264D01*
X636Y263D01*
X636Y263D01*
X636Y263D01*
X635Y263D01*
X635Y262D01*
X635Y262D01*
X635Y261D01*
X635Y261D01*
X635Y260D01*
X634Y260D01*
X634Y259D01*
X634Y259D01*
X634Y258D01*
X633Y258D01*
X633Y258D01*
X633Y258D01*
X633Y257D01*
X633Y257D01*
X633Y256D01*
X632Y256D01*
X632Y255D01*
X632Y255D01*
X632Y254D01*
X631Y254D01*
X631Y253D01*
X631Y253D01*
X631Y252D01*
X631Y252D01*
X631Y251D01*
X630Y251D01*
X630Y250D01*
X630Y250D01*
X630Y249D01*
X629Y249D01*
X629Y248D01*
X629Y248D01*
X629Y247D01*
X629Y247D01*
X629Y246D01*
X628Y246D01*
X628Y245D01*
X628Y245D01*
X628Y244D01*
X627Y244D01*
X627Y242D01*
X627Y242D01*
X627Y241D01*
X627Y241D01*
X627Y240D01*
X626Y240D01*
X626Y239D01*
X626Y239D01*
X626Y238D01*
X625Y238D01*
X625Y237D01*
X625Y237D01*
X625Y257D01*
X625Y257D01*
X625Y258D01*
X626Y258D01*
X626Y259D01*
X626Y259D01*
X626Y260D01*
X627Y260D01*
X627Y261D01*
X627Y261D01*
X627Y262D01*
X627Y262D01*
X627Y263D01*
X628Y263D01*
X628Y264D01*
X628Y264D01*
X628Y264D01*
X629Y264D01*
X629Y266D01*
X629Y266D01*
X629Y266D01*
X629Y266D01*
X629Y267D01*
X630Y267D01*
X630Y268D01*
X630Y268D01*
X630Y269D01*
X631Y269D01*
X631Y270D01*
X631Y270D01*
X631Y270D01*
X631Y270D01*
X631Y271D01*
X632Y271D01*
X632Y272D01*
X632Y272D01*
X632Y273D01*
X633Y273D01*
X633Y274D01*
X633Y274D01*
X633Y275D01*
X633Y275D01*
X633Y275D01*
X634Y275D01*
X634Y276D01*
X634Y276D01*
X634Y277D01*
X635Y277D01*
X635Y277D01*
X635Y277D01*
X635Y278D01*
X635Y278D01*
X635Y279D01*
X636Y279D01*
X636Y279D01*
X636Y279D01*
X636Y280D01*
X637Y280D01*
X637Y281D01*
X637Y281D01*
X637Y281D01*
X637Y281D01*
X637Y282D01*
X638Y282D01*
X638Y283D01*
X638Y283D01*
X638Y283D01*
X639Y283D01*
X639Y284D01*
X639Y284D01*
X639Y285D01*
X639Y285D01*
X639Y285D01*
X640Y285D01*
X640Y286D01*
X640Y286D01*
X640Y287D01*
X641Y287D01*
X641Y287D01*
X641Y287D01*
X641Y288D01*
X641Y288D01*
X641Y288D01*
X642Y288D01*
X642Y289D01*
X642Y289D01*
X642Y289D01*
X643Y289D01*
X643Y290D01*
X643Y290D01*
X643Y291D01*
X644Y291D01*
X644Y291D01*
X644Y291D01*
X644Y292D01*
X644Y292D01*
X644Y292D01*
X645Y292D01*
X645Y293D01*
X645Y293D01*
X645Y293D01*
X646Y293D01*
X646Y294D01*
X646Y294D01*
X646Y294D01*
X646Y294D01*
X646Y295D01*
X647Y295D01*
X647Y295D01*
X647Y295D01*
X647Y296D01*
X648Y296D01*
X648Y296D01*
X648Y296D01*
X648Y297D01*
X648Y297D01*
X648Y297D01*
X649Y297D01*
X649Y298D01*
X649Y298D01*
X649Y298D01*
X650Y298D01*
X650Y299D01*
X650Y299D01*
X650Y299D01*
X650Y299D01*
X650Y300D01*
X651Y300D01*
X651Y300D01*
X651Y300D01*
X651Y301D01*
X652Y301D01*
X652Y301D01*
X652Y301D01*
X652Y301D01*
X652Y301D01*
X652Y302D01*
X653Y302D01*
X653Y302D01*
X653Y302D01*
X653Y303D01*
X654Y303D01*
X654Y303D01*
X654Y303D01*
X654Y303D01*
X654Y303D01*
X654Y304D01*
X655Y304D01*
X655Y304D01*
X655Y304D01*
X655Y305D01*
X656Y305D01*
X656Y305D01*
X656Y305D01*
X656Y305D01*
X656Y305D01*
X656Y306D01*
X657Y306D01*
X657Y306D01*
X657Y306D01*
X657Y307D01*
X658Y307D01*
X658Y307D01*
X658Y307D01*
X658Y308D01*
X659Y308D01*
X659Y308D01*
X659Y308D01*
X659Y308D01*
X660Y308D01*
X660Y309D01*
X660Y309D01*
X660Y309D01*
X660Y309D01*
X660Y310D01*
X661Y310D01*
X661Y310D01*
X662Y310D01*
X662Y310D01*
X662Y310D01*
X662Y311D01*
X662Y311D01*
X662Y311D01*
X663Y311D01*
X663Y312D01*
X664Y312D01*
X664Y312D01*
X664Y312D01*
X664Y312D01*
X665Y312D01*
X665Y313D01*
X665Y313D01*
X665Y313D01*
X666Y313D01*
X666Y314D01*
X666Y314D01*
X666Y314D01*
X667Y314D01*
X667Y314D01*
X668Y314D01*
X668Y315D01*
X668Y315D01*
X668Y315D01*
X669Y315D01*
X669Y316D01*
X670Y316D01*
X670Y316D01*
X670Y316D01*
X670Y316D01*
X671Y316D01*
X671Y317D01*
X672Y317D01*
X672Y317D01*
X673Y317D01*
X673Y318D01*
X674Y318D01*
X674Y318D01*
X675Y318D01*
X675Y318D01*
X675Y318D01*
X675Y319D01*
X677Y319D01*
X677Y319D01*
X677Y319D01*
X677Y320D01*
X679Y320D01*
X679Y320D01*
X679Y320D01*
X679Y320D01*
X681Y320D01*
X681Y321D01*
X682Y321D01*
X682Y321D01*
X683Y321D01*
X683Y322D01*
X685Y322D01*
X685Y322D01*
X686Y322D01*
X686Y322D01*
X688Y322D01*
X688Y323D01*
X691Y323D01*
X691Y323D01*
X693Y323D01*
X693Y324D01*
X707Y324D01*
X707Y323D01*
X710Y323D01*
X710Y323D01*
X712Y323D01*
X712Y322D01*
X714Y322D01*
X714Y322D01*
X715Y322D01*
X715Y322D01*
X716Y322D01*
X716Y321D01*
X718Y321D01*
X718Y321D01*
X718Y321D01*
X718Y320D01*
X720Y320D01*
X720Y320D01*
X720Y320D01*
X720Y320D01*
X721Y320D01*
X721Y319D01*
X722Y319D01*
X722Y319D01*
X722Y319D01*
X722Y318D01*
X723Y318D01*
X723Y318D01*
X724Y318D01*
X724Y318D01*
X724Y318D01*
X724Y317D01*
X725Y317D01*
X725Y317D01*
X725Y317D01*
X725Y316D01*
X726Y316D01*
X726Y316D01*
X726Y316D01*
X726Y316D01*
X727Y316D01*
X727Y315D01*
X727Y315D01*
X727Y315D01*
X728Y315D01*
X728Y314D01*
X728Y314D01*
X728Y314D01*
X728Y314D01*
X728Y314D01*
X729Y314D01*
X729Y313D01*
X729Y313D01*
X729Y313D01*
X730Y313D01*
X730Y312D01*
X730Y312D01*
X730Y312D01*
X730Y312D01*
X730Y311D01*
X731Y311D01*
X731Y310D01*
X731Y310D01*
X731Y310D01*
X732Y310D01*
X732Y309D01*
X732Y309D01*
X732Y308D01*
X732Y308D01*
X732Y308D01*
X733Y308D01*
X733Y307D01*
X733Y307D01*
X733Y306D01*
X734Y306D01*
X734Y305D01*
X734Y305D01*
X734Y304D01*
X734Y304D01*
X734Y303D01*
X735Y303D01*
X735Y302D01*
X735Y302D01*
X735Y300D01*
X736Y300D01*
X736Y299D01*
X736Y299D01*
X736Y297D01*
X736Y297D01*
X736Y295D01*
X737Y295D01*
X737Y291D01*
X737Y291D01*
X737Y285D01*
X738Y285D01*
X738Y199D01*
G37*
D02*
G36*
X722Y192D02*
X721Y192D01*
X721Y192D01*
X720Y192D01*
X720Y191D01*
X720Y191D01*
X720Y191D01*
X719Y191D01*
X719Y190D01*
X718Y190D01*
X718Y190D01*
X717Y190D01*
X717Y190D01*
X716Y190D01*
X716Y189D01*
X715Y189D01*
X715Y189D01*
X714Y189D01*
X714Y188D01*
X713Y188D01*
X713Y188D01*
X712Y188D01*
X712Y188D01*
X712Y188D01*
X712Y187D01*
X710Y187D01*
X710Y187D01*
X710Y187D01*
X710Y276D01*
X709Y276D01*
X709Y279D01*
X709Y279D01*
X709Y280D01*
X708Y280D01*
X708Y281D01*
X708Y281D01*
X708Y282D01*
X708Y282D01*
X708Y283D01*
X707Y283D01*
X707Y284D01*
X707Y284D01*
X707Y284D01*
X706Y284D01*
X706Y285D01*
X706Y285D01*
X706Y285D01*
X705Y285D01*
X705Y285D01*
X705Y285D01*
X705Y286D01*
X705Y286D01*
X705Y286D01*
X704Y286D01*
X704Y287D01*
X703Y287D01*
X703Y287D01*
X703Y287D01*
X703Y287D01*
X702Y287D01*
X702Y288D01*
X701Y288D01*
X701Y288D01*
X699Y288D01*
X699Y289D01*
X698Y289D01*
X698Y289D01*
X695Y289D01*
X695Y289D01*
X689Y289D01*
X689Y289D01*
X685Y289D01*
X685Y289D01*
X683Y289D01*
X683Y288D01*
X681Y288D01*
X681Y288D01*
X680Y288D01*
X680Y287D01*
X679Y287D01*
X679Y287D01*
X678Y287D01*
X678Y287D01*
X677Y287D01*
X677Y286D01*
X675Y286D01*
X675Y286D01*
X675Y286D01*
X675Y285D01*
X674Y285D01*
X674Y285D01*
X673Y285D01*
X673Y285D01*
X672Y285D01*
X672Y284D01*
X671Y284D01*
X671Y284D01*
X670Y284D01*
X670Y283D01*
X670Y283D01*
X670Y283D01*
X669Y283D01*
X669Y283D01*
X668Y283D01*
X668Y282D01*
X668Y282D01*
X668Y282D01*
X667Y282D01*
X667Y281D01*
X667Y281D01*
X667Y281D01*
X666Y281D01*
X666Y281D01*
X666Y281D01*
X666Y280D01*
X665Y280D01*
X665Y280D01*
X665Y280D01*
X665Y279D01*
X664Y279D01*
X664Y279D01*
X664Y279D01*
X664Y279D01*
X663Y279D01*
X663Y278D01*
X663Y278D01*
X663Y278D01*
X662Y278D01*
X662Y277D01*
X662Y277D01*
X662Y277D01*
X661Y277D01*
X661Y277D01*
X661Y277D01*
X661Y276D01*
X660Y276D01*
X660Y276D01*
X660Y276D01*
X660Y275D01*
X660Y275D01*
X660Y275D01*
X659Y275D01*
X659Y275D01*
X659Y275D01*
X659Y274D01*
X658Y274D01*
X658Y274D01*
X658Y274D01*
X658Y273D01*
X658Y273D01*
X658Y272D01*
X657Y272D01*
X657Y272D01*
X657Y272D01*
X657Y272D01*
X656Y272D01*
X656Y271D01*
X656Y271D01*
X656Y271D01*
X656Y271D01*
X656Y270D01*
X655Y270D01*
X655Y270D01*
X655Y270D01*
X655Y269D01*
X654Y269D01*
X654Y269D01*
X654Y269D01*
X654Y268D01*
X654Y268D01*
X654Y268D01*
X653Y268D01*
X653Y267D01*
X653Y267D01*
X653Y267D01*
X652Y267D01*
X652Y266D01*
X652Y266D01*
X652Y266D01*
X652Y266D01*
X652Y265D01*
X651Y265D01*
X651Y264D01*
X651Y264D01*
X651Y264D01*
X650Y264D01*
X650Y263D01*
X650Y263D01*
X650Y262D01*
X650Y262D01*
X650Y262D01*
X649Y262D01*
X649Y261D01*
X649Y261D01*
X649Y260D01*
X648Y260D01*
X648Y260D01*
X648Y260D01*
X648Y259D01*
X648Y259D01*
X648Y258D01*
X647Y258D01*
X647Y258D01*
X647Y258D01*
X647Y257D01*
X646Y257D01*
X646Y256D01*
X646Y256D01*
X646Y256D01*
X646Y256D01*
X646Y255D01*
X645Y255D01*
X645Y254D01*
X645Y254D01*
X645Y253D01*
X644Y253D01*
X644Y252D01*
X644Y252D01*
X644Y251D01*
X644Y251D01*
X644Y250D01*
X643Y250D01*
X643Y249D01*
X643Y249D01*
X643Y248D01*
X642Y248D01*
X642Y247D01*
X642Y247D01*
X642Y246D01*
X641Y246D01*
X641Y245D01*
X641Y245D01*
X641Y244D01*
X641Y244D01*
X641Y262D01*
X641Y262D01*
X641Y262D01*
X641Y262D01*
X641Y263D01*
X642Y263D01*
X642Y264D01*
X642Y264D01*
X642Y264D01*
X643Y264D01*
X643Y265D01*
X643Y265D01*
X643Y266D01*
X644Y266D01*
X644Y266D01*
X644Y266D01*
X644Y267D01*
X644Y267D01*
X644Y268D01*
X645Y268D01*
X645Y269D01*
X645Y269D01*
X645Y269D01*
X646Y269D01*
X646Y270D01*
X646Y270D01*
X646Y270D01*
X646Y270D01*
X646Y271D01*
X647Y271D01*
X647Y272D01*
X647Y272D01*
X647Y272D01*
X648Y272D01*
X648Y273D01*
X648Y273D01*
X648Y274D01*
X648Y274D01*
X648Y274D01*
X649Y274D01*
X649Y275D01*
X649Y275D01*
X649Y275D01*
X650Y275D01*
X650Y276D01*
X650Y276D01*
X650Y277D01*
X650Y277D01*
X650Y277D01*
X651Y277D01*
X651Y277D01*
X651Y277D01*
X651Y278D01*
X652Y278D01*
X652Y279D01*
X652Y279D01*
X652Y279D01*
X652Y279D01*
X652Y279D01*
X653Y279D01*
X653Y280D01*
X653Y280D01*
X653Y281D01*
X654Y281D01*
X654Y281D01*
X654Y281D01*
X654Y281D01*
X654Y281D01*
X654Y282D01*
X655Y282D01*
X655Y282D01*
X655Y282D01*
X655Y283D01*
X656Y283D01*
X656Y283D01*
X656Y283D01*
X656Y283D01*
X656Y283D01*
X656Y284D01*
X657Y284D01*
X657Y284D01*
X657Y284D01*
X657Y285D01*
X658Y285D01*
X658Y285D01*
X658Y285D01*
X658Y285D01*
X658Y285D01*
X658Y286D01*
X659Y286D01*
X659Y286D01*
X659Y286D01*
X659Y287D01*
X660Y287D01*
X660Y287D01*
X660Y287D01*
X660Y287D01*
X660Y287D01*
X660Y288D01*
X661Y288D01*
X661Y288D01*
X661Y288D01*
X661Y289D01*
X662Y289D01*
X662Y289D01*
X662Y289D01*
X662Y289D01*
X663Y289D01*
X663Y290D01*
X663Y290D01*
X663Y290D01*
X664Y290D01*
X664Y291D01*
X664Y291D01*
X664Y291D01*
X665Y291D01*
X665Y291D01*
X665Y291D01*
X665Y292D01*
X666Y292D01*
X666Y292D01*
X666Y292D01*
X666Y293D01*
X667Y293D01*
X667Y293D01*
X668Y293D01*
X668Y293D01*
X668Y293D01*
X668Y294D01*
X669Y294D01*
X669Y294D01*
X669Y294D01*
X669Y295D01*
X670Y295D01*
X670Y295D01*
X670Y295D01*
X670Y295D01*
X671Y295D01*
X671Y296D01*
X672Y296D01*
X672Y296D01*
X672Y296D01*
X672Y297D01*
X673Y297D01*
X673Y297D01*
X674Y297D01*
X674Y297D01*
X675Y297D01*
X675Y298D01*
X676Y298D01*
X676Y298D01*
X676Y298D01*
X676Y299D01*
X677Y299D01*
X677Y299D01*
X678Y299D01*
X678Y299D01*
X679Y299D01*
X679Y300D01*
X679Y300D01*
X679Y300D01*
X681Y300D01*
X681Y301D01*
X681Y301D01*
X681Y301D01*
X682Y301D01*
X682Y301D01*
X683Y301D01*
X683Y302D01*
X684Y302D01*
X684Y302D01*
X685Y302D01*
X685Y303D01*
X686Y303D01*
X686Y303D01*
X687Y303D01*
X687Y303D01*
X688Y303D01*
X688Y304D01*
X689Y304D01*
X689Y304D01*
X691Y304D01*
X691Y305D01*
X692Y305D01*
X692Y305D01*
X694Y305D01*
X694Y305D01*
X697Y305D01*
X697Y306D01*
X701Y306D01*
X701Y305D01*
X703Y305D01*
X703Y305D01*
X705Y305D01*
X705Y305D01*
X706Y305D01*
X706Y304D01*
X707Y304D01*
X707Y304D01*
X708Y304D01*
X708Y303D01*
X709Y303D01*
X709Y303D01*
X710Y303D01*
X710Y303D01*
X710Y303D01*
X710Y302D01*
X711Y302D01*
X711Y302D01*
X711Y302D01*
X711Y301D01*
X712Y301D01*
X712Y301D01*
X712Y301D01*
X712Y301D01*
X713Y301D01*
X713Y300D01*
X713Y300D01*
X713Y300D01*
X714Y300D01*
X714Y299D01*
X714Y299D01*
X714Y299D01*
X714Y299D01*
X714Y299D01*
X715Y299D01*
X715Y298D01*
X715Y298D01*
X715Y297D01*
X716Y297D01*
X716Y297D01*
X716Y297D01*
X716Y296D01*
X716Y296D01*
X716Y296D01*
X717Y296D01*
X717Y295D01*
X717Y295D01*
X717Y295D01*
X718Y295D01*
X718Y294D01*
X718Y294D01*
X718Y293D01*
X718Y293D01*
X718Y292D01*
X719Y292D01*
X719Y291D01*
X719Y291D01*
X719Y290D01*
X720Y290D01*
X720Y289D01*
X720Y289D01*
X720Y288D01*
X720Y288D01*
X720Y287D01*
X721Y287D01*
X721Y285D01*
X721Y285D01*
X721Y284D01*
X722Y284D01*
X722Y192D01*
G37*
D02*
G36*
X695Y227D02*
X695Y227D01*
X695Y226D01*
X693Y226D01*
X693Y226D01*
X691Y226D01*
X691Y225D01*
X691Y225D01*
X691Y246D01*
X690Y246D01*
X690Y246D01*
X688Y246D01*
X688Y246D01*
X687Y246D01*
X687Y245D01*
X685Y245D01*
X685Y245D01*
X683Y245D01*
X683Y244D01*
X681Y244D01*
X681Y244D01*
X679Y244D01*
X679Y244D01*
X678Y244D01*
X678Y243D01*
X676Y243D01*
X676Y251D01*
X677Y251D01*
X677Y251D01*
X679Y251D01*
X679Y252D01*
X680Y252D01*
X680Y252D01*
X682Y252D01*
X682Y252D01*
X683Y252D01*
X683Y253D01*
X685Y253D01*
X685Y253D01*
X687Y253D01*
X687Y254D01*
X689Y254D01*
X689Y254D01*
X690Y254D01*
X690Y254D01*
X692Y254D01*
X692Y255D01*
X693Y255D01*
X693Y255D01*
X695Y255D01*
X695Y227D01*
G37*
D02*
G36*
X691Y225D02*
X689Y225D01*
X689Y226D01*
X689Y226D01*
X689Y227D01*
X689Y227D01*
X689Y228D01*
X688Y228D01*
X688Y229D01*
X688Y229D01*
X688Y230D01*
X689Y230D01*
X689Y230D01*
X691Y230D01*
X691Y225D01*
G37*
D02*
G36*
X685Y224D02*
X683Y224D01*
X683Y223D01*
X681Y223D01*
X681Y223D01*
X679Y223D01*
X679Y223D01*
X678Y223D01*
X678Y222D01*
X676Y222D01*
X676Y222D01*
X676Y222D01*
X676Y227D01*
X677Y227D01*
X677Y227D01*
X679Y227D01*
X679Y228D01*
X681Y228D01*
X681Y228D01*
X682Y228D01*
X682Y229D01*
X683Y229D01*
X683Y228D01*
X683Y228D01*
X683Y227D01*
X683Y227D01*
X683Y226D01*
X684Y226D01*
X684Y225D01*
X684Y225D01*
X684Y225D01*
X685Y225D01*
X685Y224D01*
G37*
D02*
G36*
X676Y222D02*
X675Y222D01*
X675Y251D01*
X676Y251D01*
X676Y222D01*
G37*
D02*
G36*
X676Y222D02*
X675Y222D01*
X675Y251D01*
X676Y251D01*
X676Y222D01*
G37*
D02*
G36*
X675Y222D02*
X675Y222D01*
X675Y221D01*
X672Y221D01*
X672Y221D01*
X671Y221D01*
X671Y221D01*
X669Y221D01*
X669Y220D01*
X668Y220D01*
X668Y220D01*
X666Y220D01*
X666Y219D01*
X664Y219D01*
X664Y219D01*
X662Y219D01*
X662Y219D01*
X661Y219D01*
X661Y218D01*
X659Y218D01*
X659Y218D01*
X658Y218D01*
X658Y217D01*
X656Y217D01*
X656Y217D01*
X656Y217D01*
X656Y239D01*
X654Y239D01*
X654Y239D01*
X653Y239D01*
X653Y239D01*
X651Y239D01*
X651Y238D01*
X649Y238D01*
X649Y238D01*
X648Y238D01*
X648Y237D01*
X646Y237D01*
X646Y237D01*
X644Y237D01*
X644Y237D01*
X642Y237D01*
X642Y236D01*
X641Y236D01*
X641Y242D01*
X641Y242D01*
X641Y243D01*
X643Y243D01*
X643Y243D01*
X645Y243D01*
X645Y244D01*
X646Y244D01*
X646Y244D01*
X648Y244D01*
X648Y244D01*
X650Y244D01*
X650Y245D01*
X652Y245D01*
X652Y245D01*
X653Y245D01*
X653Y246D01*
X655Y246D01*
X655Y246D01*
X656Y246D01*
X656Y246D01*
X658Y246D01*
X658Y247D01*
X660Y247D01*
X660Y247D01*
X662Y247D01*
X662Y248D01*
X663Y248D01*
X663Y248D01*
X665Y248D01*
X665Y248D01*
X666Y248D01*
X666Y249D01*
X668Y249D01*
X668Y249D01*
X670Y249D01*
X670Y250D01*
X672Y250D01*
X672Y250D01*
X673Y250D01*
X673Y250D01*
X675Y250D01*
X675Y251D01*
X675Y251D01*
X675Y222D01*
G37*
D02*
G36*
X656Y217D02*
X654Y217D01*
X654Y217D01*
X652Y217D01*
X652Y216D01*
X651Y216D01*
X651Y216D01*
X649Y216D01*
X649Y215D01*
X648Y215D01*
X648Y215D01*
X646Y215D01*
X646Y215D01*
X644Y215D01*
X644Y214D01*
X642Y214D01*
X642Y214D01*
X641Y214D01*
X641Y213D01*
X639Y213D01*
X639Y213D01*
X637Y213D01*
X637Y213D01*
X635Y213D01*
X635Y212D01*
X634Y212D01*
X634Y212D01*
X632Y212D01*
X632Y211D01*
X631Y211D01*
X631Y211D01*
X629Y211D01*
X629Y210D01*
X627Y210D01*
X627Y210D01*
X625Y210D01*
X625Y210D01*
X625Y210D01*
X625Y234D01*
X625Y234D01*
X625Y231D01*
X626Y231D01*
X626Y229D01*
X626Y229D01*
X626Y227D01*
X627Y227D01*
X627Y227D01*
X627Y227D01*
X627Y226D01*
X627Y226D01*
X627Y226D01*
X631Y226D01*
X631Y226D01*
X633Y226D01*
X633Y227D01*
X636Y227D01*
X636Y227D01*
X638Y227D01*
X638Y227D01*
X640Y227D01*
X640Y220D01*
X641Y220D01*
X641Y221D01*
X644Y221D01*
X644Y221D01*
X645Y221D01*
X645Y221D01*
X647Y221D01*
X647Y222D01*
X649Y222D01*
X649Y222D01*
X650Y222D01*
X650Y223D01*
X652Y223D01*
X652Y223D01*
X654Y223D01*
X654Y223D01*
X656Y223D01*
X656Y217D01*
G37*
D02*
G36*
X641Y236D02*
X640Y236D01*
X640Y261D01*
X641Y261D01*
X641Y236D01*
G37*
D02*
G36*
X641Y236D02*
X640Y236D01*
X640Y261D01*
X641Y261D01*
X641Y236D01*
G37*
D02*
G36*
X640Y233D02*
X640Y233D01*
X640Y232D01*
X637Y232D01*
X637Y232D01*
X635Y232D01*
X635Y231D01*
X632Y231D01*
X632Y231D01*
X631Y231D01*
X631Y233D01*
X630Y233D01*
X630Y236D01*
X631Y236D01*
X631Y237D01*
X631Y237D01*
X631Y239D01*
X631Y239D01*
X631Y240D01*
X632Y240D01*
X632Y241D01*
X632Y241D01*
X632Y242D01*
X633Y242D01*
X633Y243D01*
X633Y243D01*
X633Y244D01*
X633Y244D01*
X633Y245D01*
X634Y245D01*
X634Y246D01*
X634Y246D01*
X634Y247D01*
X635Y247D01*
X635Y248D01*
X635Y248D01*
X635Y249D01*
X635Y249D01*
X635Y250D01*
X636Y250D01*
X636Y251D01*
X636Y251D01*
X636Y252D01*
X637Y252D01*
X637Y253D01*
X637Y253D01*
X637Y254D01*
X637Y254D01*
X637Y255D01*
X638Y255D01*
X638Y256D01*
X638Y256D01*
X638Y257D01*
X639Y257D01*
X639Y258D01*
X639Y258D01*
X639Y259D01*
X639Y259D01*
X639Y259D01*
X640Y259D01*
X640Y260D01*
X640Y260D01*
X640Y233D01*
G37*
D02*
G36*
X625Y210D02*
X625Y210D01*
X625Y256D01*
X625Y256D01*
X625Y210D01*
G37*
D02*
G36*
X625Y210D02*
X625Y210D01*
X625Y256D01*
X625Y256D01*
X625Y210D01*
G37*
D02*
G36*
X625Y210D02*
X624Y210D01*
X624Y209D01*
X622Y209D01*
X622Y209D01*
X620Y209D01*
X620Y208D01*
X619Y208D01*
X619Y208D01*
X617Y208D01*
X617Y208D01*
X615Y208D01*
X615Y207D01*
X614Y207D01*
X614Y207D01*
X612Y207D01*
X612Y206D01*
X610Y206D01*
X610Y206D01*
X608Y206D01*
X608Y206D01*
X607Y206D01*
X607Y227D01*
X606Y227D01*
X606Y227D01*
X604Y227D01*
X604Y226D01*
X603Y226D01*
X603Y226D01*
X602Y226D01*
X602Y233D01*
X603Y233D01*
X603Y234D01*
X605Y234D01*
X605Y234D01*
X607Y234D01*
X607Y235D01*
X608Y235D01*
X608Y235D01*
X610Y235D01*
X610Y235D01*
X612Y235D01*
X612Y236D01*
X614Y236D01*
X614Y236D01*
X615Y236D01*
X615Y237D01*
X617Y237D01*
X617Y237D01*
X619Y237D01*
X619Y237D01*
X619Y237D01*
X619Y239D01*
X619Y239D01*
X619Y240D01*
X620Y240D01*
X620Y241D01*
X620Y241D01*
X620Y243D01*
X621Y243D01*
X621Y244D01*
X621Y244D01*
X621Y246D01*
X621Y246D01*
X621Y247D01*
X622Y247D01*
X622Y248D01*
X622Y248D01*
X622Y249D01*
X623Y249D01*
X623Y250D01*
X623Y250D01*
X623Y252D01*
X623Y252D01*
X623Y253D01*
X624Y253D01*
X624Y254D01*
X624Y254D01*
X624Y255D01*
X625Y255D01*
X625Y210D01*
G37*
D02*
G36*
X607Y206D02*
X607Y206D01*
X607Y205D01*
X605Y205D01*
X605Y205D01*
X604Y205D01*
X604Y204D01*
X602Y204D01*
X602Y204D01*
X600Y204D01*
X600Y204D01*
X598Y204D01*
X598Y203D01*
X597Y203D01*
X597Y203D01*
X595Y203D01*
X595Y202D01*
X593Y202D01*
X593Y202D01*
X592Y202D01*
X592Y208D01*
X593Y208D01*
X593Y208D01*
X595Y208D01*
X595Y208D01*
X597Y208D01*
X597Y209D01*
X598Y209D01*
X598Y209D01*
X600Y209D01*
X600Y210D01*
X602Y210D01*
X602Y210D01*
X604Y210D01*
X604Y210D01*
X606Y210D01*
X606Y211D01*
X607Y211D01*
X607Y206D01*
G37*
D02*
G36*
X597Y225D02*
X596Y225D01*
X596Y224D01*
X594Y224D01*
X594Y224D01*
X592Y224D01*
X592Y231D01*
X593Y231D01*
X593Y231D01*
X595Y231D01*
X595Y232D01*
X596Y232D01*
X596Y232D01*
X597Y232D01*
X597Y225D01*
G37*
D02*
G36*
X592Y202D02*
X592Y202D01*
X592Y231D01*
X592Y231D01*
X592Y202D01*
G37*
D02*
G36*
X592Y202D02*
X592Y202D01*
X592Y231D01*
X592Y231D01*
X592Y202D01*
G37*
D02*
G36*
X592Y202D02*
X590Y202D01*
X590Y201D01*
X588Y201D01*
X588Y201D01*
X587Y201D01*
X587Y200D01*
X585Y200D01*
X585Y200D01*
X583Y200D01*
X583Y200D01*
X582Y200D01*
X582Y199D01*
X580Y199D01*
X580Y199D01*
X579Y199D01*
X579Y228D01*
X581Y228D01*
X581Y229D01*
X583Y229D01*
X583Y229D01*
X584Y229D01*
X584Y229D01*
X586Y229D01*
X586Y230D01*
X588Y230D01*
X588Y230D01*
X590Y230D01*
X590Y231D01*
X591Y231D01*
X591Y231D01*
X592Y231D01*
X592Y202D01*
G37*
D02*
G36*
X681Y677D02*
X680Y677D01*
X680Y677D01*
X681Y677D01*
X681Y677D01*
G37*
D02*
G36*
X680Y631D02*
X678Y631D01*
X678Y632D01*
X680Y632D01*
X680Y631D01*
G37*
D02*
G36*
X678Y665D02*
X675Y665D01*
X675Y666D01*
X678Y666D01*
X678Y665D01*
G37*
D02*
G36*
X678Y746D02*
X677Y746D01*
X677Y746D01*
X678Y746D01*
X678Y746D01*
G37*
D02*
G36*
X677Y376D02*
X677Y376D01*
X677Y375D01*
X676Y375D01*
X676Y374D01*
X676Y374D01*
X676Y374D01*
X675Y374D01*
X675Y372D01*
X675Y372D01*
X675Y372D01*
X675Y372D01*
X675Y370D01*
X674Y370D01*
X674Y370D01*
X674Y370D01*
X674Y368D01*
X673Y368D01*
X673Y367D01*
X673Y367D01*
X673Y367D01*
X672Y367D01*
X672Y365D01*
X672Y365D01*
X672Y365D01*
X672Y365D01*
X672Y363D01*
X671Y363D01*
X671Y363D01*
X671Y363D01*
X671Y362D01*
X670Y362D01*
X670Y361D01*
X670Y361D01*
X670Y360D01*
X670Y360D01*
X670Y359D01*
X669Y359D01*
X669Y358D01*
X669Y358D01*
X669Y357D01*
X668Y357D01*
X668Y356D01*
X668Y356D01*
X668Y355D01*
X668Y355D01*
X668Y354D01*
X667Y354D01*
X667Y353D01*
X667Y353D01*
X667Y352D01*
X666Y352D01*
X666Y351D01*
X666Y351D01*
X666Y350D01*
X666Y350D01*
X666Y349D01*
X665Y349D01*
X665Y348D01*
X665Y348D01*
X665Y347D01*
X664Y347D01*
X664Y346D01*
X664Y346D01*
X664Y345D01*
X664Y345D01*
X664Y344D01*
X663Y344D01*
X663Y343D01*
X663Y343D01*
X663Y342D01*
X662Y342D01*
X662Y378D01*
X668Y378D01*
X668Y377D01*
X677Y377D01*
X677Y376D01*
G37*
D02*
G36*
X677Y676D02*
X677Y676D01*
X677Y676D01*
X677Y676D01*
X677Y676D01*
G37*
D02*
G36*
X677Y679D02*
X676Y679D01*
X676Y680D01*
X677Y680D01*
X677Y679D01*
G37*
D02*
G36*
X676Y746D02*
X675Y746D01*
X675Y747D01*
X676Y747D01*
X676Y746D01*
G37*
D02*
G36*
X674Y747D02*
X673Y747D01*
X673Y747D01*
X674Y747D01*
X674Y747D01*
G37*
D02*
G36*
X669Y632D02*
X668Y632D01*
X668Y632D01*
X669Y632D01*
X669Y632D01*
G37*
D02*
G36*
X667Y747D02*
X665Y747D01*
X665Y748D01*
X667Y748D01*
X667Y747D01*
G37*
D02*
G36*
X666Y666D02*
X664Y666D01*
X664Y666D01*
X666Y666D01*
X666Y666D01*
G37*
D02*
G36*
X665Y632D02*
X663Y632D01*
X663Y632D01*
X665Y632D01*
X665Y632D01*
G37*
D02*
G36*
X662Y748D02*
X662Y748D01*
X662Y748D01*
X662Y748D01*
X662Y748D01*
G37*
D02*
G36*
X659Y342D02*
X659Y342D01*
X659Y343D01*
X658Y343D01*
X658Y344D01*
X658Y344D01*
X658Y345D01*
X658Y345D01*
X658Y346D01*
X657Y346D01*
X657Y347D01*
X657Y347D01*
X657Y348D01*
X656Y348D01*
X656Y349D01*
X656Y349D01*
X656Y350D01*
X656Y350D01*
X656Y351D01*
X655Y351D01*
X655Y351D01*
X655Y351D01*
X655Y353D01*
X654Y353D01*
X654Y353D01*
X654Y353D01*
X654Y355D01*
X654Y355D01*
X654Y355D01*
X653Y355D01*
X653Y356D01*
X653Y356D01*
X653Y357D01*
X652Y357D01*
X652Y358D01*
X652Y358D01*
X652Y359D01*
X652Y359D01*
X652Y360D01*
X651Y360D01*
X651Y361D01*
X651Y361D01*
X651Y362D01*
X650Y362D01*
X650Y363D01*
X650Y363D01*
X650Y364D01*
X650Y364D01*
X650Y365D01*
X649Y365D01*
X649Y366D01*
X649Y366D01*
X649Y367D01*
X648Y367D01*
X648Y368D01*
X648Y368D01*
X648Y369D01*
X648Y369D01*
X648Y370D01*
X647Y370D01*
X647Y371D01*
X647Y371D01*
X647Y372D01*
X646Y372D01*
X646Y373D01*
X646Y373D01*
X646Y374D01*
X646Y374D01*
X646Y375D01*
X645Y375D01*
X645Y376D01*
X645Y376D01*
X645Y377D01*
X644Y377D01*
X644Y378D01*
X648Y378D01*
X648Y378D01*
X659Y378D01*
X659Y342D01*
G37*
D02*
G36*
X659Y438D02*
X659Y438D01*
X659Y438D01*
X653Y438D01*
X653Y438D01*
X650Y438D01*
X650Y437D01*
X648Y437D01*
X648Y437D01*
X647Y437D01*
X647Y436D01*
X645Y436D01*
X645Y436D01*
X644Y436D01*
X644Y436D01*
X643Y436D01*
X643Y435D01*
X642Y435D01*
X642Y435D01*
X641Y435D01*
X641Y434D01*
X640Y434D01*
X640Y434D01*
X639Y434D01*
X639Y434D01*
X638Y434D01*
X638Y433D01*
X638Y433D01*
X638Y433D01*
X637Y433D01*
X637Y432D01*
X636Y432D01*
X636Y432D01*
X636Y432D01*
X636Y431D01*
X635Y431D01*
X635Y431D01*
X635Y431D01*
X635Y431D01*
X634Y431D01*
X634Y430D01*
X633Y430D01*
X633Y430D01*
X633Y430D01*
X633Y429D01*
X633Y429D01*
X633Y429D01*
X632Y429D01*
X632Y429D01*
X632Y429D01*
X632Y428D01*
X631Y428D01*
X631Y428D01*
X631Y428D01*
X631Y427D01*
X631Y427D01*
X631Y427D01*
X630Y427D01*
X630Y427D01*
X630Y427D01*
X630Y426D01*
X629Y426D01*
X629Y426D01*
X629Y426D01*
X629Y425D01*
X629Y425D01*
X629Y425D01*
X628Y425D01*
X628Y424D01*
X628Y424D01*
X628Y424D01*
X627Y424D01*
X627Y423D01*
X627Y423D01*
X627Y423D01*
X627Y423D01*
X627Y422D01*
X626Y422D01*
X626Y421D01*
X626Y421D01*
X626Y423D01*
X625Y423D01*
X625Y423D01*
X625Y423D01*
X625Y424D01*
X625Y424D01*
X625Y425D01*
X624Y425D01*
X624Y426D01*
X624Y426D01*
X624Y427D01*
X623Y427D01*
X623Y428D01*
X623Y428D01*
X623Y429D01*
X623Y429D01*
X623Y430D01*
X622Y430D01*
X622Y431D01*
X622Y431D01*
X622Y432D01*
X621Y432D01*
X621Y433D01*
X621Y433D01*
X621Y434D01*
X621Y434D01*
X621Y435D01*
X620Y435D01*
X620Y436D01*
X620Y436D01*
X620Y437D01*
X619Y437D01*
X619Y438D01*
X619Y438D01*
X619Y439D01*
X619Y439D01*
X619Y440D01*
X618Y440D01*
X618Y441D01*
X618Y441D01*
X618Y442D01*
X617Y442D01*
X617Y443D01*
X617Y443D01*
X617Y444D01*
X617Y444D01*
X617Y445D01*
X616Y445D01*
X616Y446D01*
X616Y446D01*
X616Y447D01*
X615Y447D01*
X615Y448D01*
X615Y448D01*
X615Y449D01*
X615Y449D01*
X615Y450D01*
X614Y450D01*
X614Y451D01*
X614Y451D01*
X614Y452D01*
X613Y452D01*
X613Y453D01*
X613Y453D01*
X613Y454D01*
X613Y454D01*
X613Y454D01*
X612Y454D01*
X612Y456D01*
X612Y456D01*
X612Y456D01*
X611Y456D01*
X611Y458D01*
X611Y458D01*
X611Y458D01*
X610Y458D01*
X610Y459D01*
X610Y459D01*
X610Y460D01*
X610Y460D01*
X610Y461D01*
X609Y461D01*
X609Y462D01*
X609Y462D01*
X609Y463D01*
X608Y463D01*
X608Y464D01*
X608Y464D01*
X608Y465D01*
X608Y465D01*
X608Y465D01*
X609Y465D01*
X609Y465D01*
X610Y465D01*
X610Y466D01*
X610Y466D01*
X610Y466D01*
X610Y466D01*
X610Y467D01*
X611Y467D01*
X611Y467D01*
X611Y467D01*
X611Y467D01*
X612Y467D01*
X612Y468D01*
X613Y468D01*
X613Y468D01*
X613Y468D01*
X613Y469D01*
X613Y469D01*
X613Y469D01*
X614Y469D01*
X614Y469D01*
X615Y469D01*
X615Y470D01*
X615Y470D01*
X615Y470D01*
X616Y470D01*
X616Y471D01*
X616Y471D01*
X616Y471D01*
X617Y471D01*
X617Y471D01*
X618Y471D01*
X618Y472D01*
X618Y472D01*
X618Y472D01*
X619Y472D01*
X619Y473D01*
X620Y473D01*
X620Y473D01*
X620Y473D01*
X620Y473D01*
X621Y473D01*
X621Y474D01*
X622Y474D01*
X622Y474D01*
X623Y474D01*
X623Y475D01*
X623Y475D01*
X623Y475D01*
X624Y475D01*
X624Y475D01*
X625Y475D01*
X625Y476D01*
X626Y476D01*
X626Y476D01*
X627Y476D01*
X627Y477D01*
X628Y477D01*
X628Y477D01*
X629Y477D01*
X629Y477D01*
X630Y477D01*
X630Y478D01*
X631Y478D01*
X631Y478D01*
X632Y478D01*
X632Y479D01*
X633Y479D01*
X633Y479D01*
X635Y479D01*
X635Y479D01*
X636Y479D01*
X636Y480D01*
X637Y480D01*
X637Y480D01*
X639Y480D01*
X639Y481D01*
X641Y481D01*
X641Y481D01*
X643Y481D01*
X643Y481D01*
X646Y481D01*
X646Y482D01*
X648Y482D01*
X648Y482D01*
X653Y482D01*
X653Y483D01*
X659Y483D01*
X659Y438D01*
G37*
D02*
G36*
X658Y334D02*
X651Y334D01*
X651Y335D01*
X627Y335D01*
X627Y335D01*
X603Y335D01*
X603Y336D01*
X582Y336D01*
X582Y402D01*
X583Y402D01*
X583Y407D01*
X583Y407D01*
X583Y409D01*
X584Y409D01*
X584Y409D01*
X584Y409D01*
X584Y409D01*
X584Y409D01*
X584Y408D01*
X585Y408D01*
X585Y408D01*
X585Y408D01*
X585Y407D01*
X586Y407D01*
X586Y407D01*
X586Y407D01*
X586Y407D01*
X586Y407D01*
X586Y406D01*
X587Y406D01*
X587Y406D01*
X587Y406D01*
X587Y405D01*
X588Y405D01*
X588Y405D01*
X588Y405D01*
X588Y405D01*
X588Y405D01*
X588Y404D01*
X589Y404D01*
X589Y404D01*
X589Y404D01*
X589Y403D01*
X590Y403D01*
X590Y403D01*
X590Y403D01*
X590Y403D01*
X590Y403D01*
X590Y402D01*
X591Y402D01*
X591Y402D01*
X591Y402D01*
X591Y401D01*
X592Y401D01*
X592Y401D01*
X592Y401D01*
X592Y401D01*
X592Y401D01*
X592Y400D01*
X593Y400D01*
X593Y400D01*
X593Y400D01*
X593Y399D01*
X594Y399D01*
X594Y399D01*
X594Y399D01*
X594Y398D01*
X594Y398D01*
X594Y398D01*
X595Y398D01*
X595Y398D01*
X595Y398D01*
X595Y397D01*
X596Y397D01*
X596Y397D01*
X596Y397D01*
X596Y396D01*
X596Y396D01*
X596Y396D01*
X597Y396D01*
X597Y396D01*
X597Y396D01*
X597Y395D01*
X598Y395D01*
X598Y395D01*
X598Y395D01*
X598Y394D01*
X598Y394D01*
X598Y394D01*
X599Y394D01*
X599Y394D01*
X599Y394D01*
X599Y393D01*
X600Y393D01*
X600Y393D01*
X600Y393D01*
X600Y392D01*
X600Y392D01*
X600Y392D01*
X601Y392D01*
X601Y392D01*
X601Y392D01*
X601Y391D01*
X602Y391D01*
X602Y391D01*
X602Y391D01*
X602Y390D01*
X602Y390D01*
X602Y390D01*
X603Y390D01*
X603Y390D01*
X603Y390D01*
X603Y389D01*
X604Y389D01*
X604Y389D01*
X604Y389D01*
X604Y388D01*
X604Y388D01*
X604Y388D01*
X605Y388D01*
X605Y388D01*
X605Y388D01*
X605Y387D01*
X606Y387D01*
X606Y387D01*
X606Y387D01*
X606Y386D01*
X606Y386D01*
X606Y386D01*
X607Y386D01*
X607Y386D01*
X607Y386D01*
X607Y385D01*
X608Y385D01*
X608Y385D01*
X608Y385D01*
X608Y384D01*
X608Y384D01*
X608Y384D01*
X609Y384D01*
X609Y384D01*
X609Y384D01*
X609Y383D01*
X610Y383D01*
X610Y383D01*
X610Y383D01*
X610Y382D01*
X610Y382D01*
X610Y382D01*
X611Y382D01*
X611Y382D01*
X611Y382D01*
X611Y381D01*
X612Y381D01*
X612Y381D01*
X612Y381D01*
X612Y380D01*
X613Y380D01*
X613Y380D01*
X613Y380D01*
X613Y380D01*
X613Y380D01*
X613Y379D01*
X614Y379D01*
X614Y379D01*
X614Y379D01*
X614Y378D01*
X615Y378D01*
X615Y378D01*
X615Y378D01*
X615Y378D01*
X615Y378D01*
X615Y377D01*
X616Y377D01*
X616Y377D01*
X616Y377D01*
X616Y376D01*
X617Y376D01*
X617Y376D01*
X617Y376D01*
X617Y376D01*
X617Y376D01*
X617Y375D01*
X618Y375D01*
X618Y375D01*
X618Y375D01*
X618Y374D01*
X619Y374D01*
X619Y374D01*
X619Y374D01*
X619Y374D01*
X619Y374D01*
X619Y373D01*
X620Y373D01*
X620Y373D01*
X620Y373D01*
X620Y372D01*
X621Y372D01*
X621Y372D01*
X621Y372D01*
X621Y372D01*
X621Y372D01*
X621Y371D01*
X622Y371D01*
X622Y371D01*
X622Y371D01*
X622Y370D01*
X623Y370D01*
X623Y370D01*
X623Y370D01*
X623Y370D01*
X623Y370D01*
X623Y369D01*
X624Y369D01*
X624Y369D01*
X624Y369D01*
X624Y368D01*
X625Y368D01*
X625Y368D01*
X625Y368D01*
X625Y367D01*
X625Y367D01*
X625Y367D01*
X626Y367D01*
X626Y367D01*
X626Y367D01*
X626Y366D01*
X627Y366D01*
X627Y366D01*
X627Y366D01*
X627Y365D01*
X627Y365D01*
X627Y365D01*
X628Y365D01*
X628Y365D01*
X628Y365D01*
X628Y364D01*
X629Y364D01*
X629Y364D01*
X629Y364D01*
X629Y363D01*
X629Y363D01*
X629Y363D01*
X630Y363D01*
X630Y363D01*
X630Y363D01*
X630Y362D01*
X631Y362D01*
X631Y362D01*
X631Y362D01*
X631Y361D01*
X631Y361D01*
X631Y361D01*
X632Y361D01*
X632Y361D01*
X632Y361D01*
X632Y360D01*
X633Y360D01*
X633Y360D01*
X633Y360D01*
X633Y359D01*
X633Y359D01*
X633Y359D01*
X634Y359D01*
X634Y359D01*
X634Y359D01*
X634Y358D01*
X635Y358D01*
X635Y358D01*
X635Y358D01*
X635Y357D01*
X635Y357D01*
X635Y357D01*
X636Y357D01*
X636Y357D01*
X636Y357D01*
X636Y356D01*
X637Y356D01*
X637Y356D01*
X637Y356D01*
X637Y355D01*
X637Y355D01*
X637Y355D01*
X638Y355D01*
X638Y355D01*
X638Y355D01*
X638Y354D01*
X639Y354D01*
X639Y354D01*
X639Y354D01*
X639Y353D01*
X639Y353D01*
X639Y353D01*
X640Y353D01*
X640Y353D01*
X640Y353D01*
X640Y352D01*
X641Y352D01*
X641Y352D01*
X641Y352D01*
X641Y351D01*
X641Y351D01*
X641Y351D01*
X642Y351D01*
X642Y351D01*
X642Y351D01*
X642Y350D01*
X643Y350D01*
X643Y350D01*
X643Y350D01*
X643Y349D01*
X644Y349D01*
X644Y349D01*
X644Y349D01*
X644Y349D01*
X644Y349D01*
X644Y348D01*
X645Y348D01*
X645Y348D01*
X645Y348D01*
X645Y347D01*
X646Y347D01*
X646Y347D01*
X646Y347D01*
X646Y347D01*
X646Y347D01*
X646Y346D01*
X647Y346D01*
X647Y346D01*
X647Y346D01*
X647Y345D01*
X648Y345D01*
X648Y345D01*
X648Y345D01*
X648Y345D01*
X648Y345D01*
X648Y344D01*
X649Y344D01*
X649Y344D01*
X649Y344D01*
X649Y343D01*
X650Y343D01*
X650Y343D01*
X650Y343D01*
X650Y343D01*
X650Y343D01*
X650Y342D01*
X651Y342D01*
X651Y342D01*
X651Y342D01*
X651Y341D01*
X652Y341D01*
X652Y341D01*
X652Y341D01*
X652Y341D01*
X652Y341D01*
X652Y340D01*
X653Y340D01*
X653Y340D01*
X653Y340D01*
X653Y339D01*
X654Y339D01*
X654Y339D01*
X654Y339D01*
X654Y339D01*
X654Y339D01*
X654Y338D01*
X655Y338D01*
X655Y338D01*
X655Y338D01*
X655Y337D01*
X656Y337D01*
X656Y337D01*
X656Y337D01*
X656Y336D01*
X656Y336D01*
X656Y336D01*
X657Y336D01*
X657Y336D01*
X657Y336D01*
X657Y335D01*
X658Y335D01*
X658Y335D01*
X658Y335D01*
X658Y334D01*
G37*
D02*
G36*
X656Y341D02*
X656Y341D01*
X656Y341D01*
X656Y341D01*
X656Y341D01*
G37*
D02*
G36*
X656Y341D02*
X656Y341D01*
X656Y341D01*
X655Y341D01*
X655Y342D01*
X655Y342D01*
X655Y342D01*
X654Y342D01*
X654Y343D01*
X654Y343D01*
X654Y343D01*
X654Y343D01*
X654Y343D01*
X653Y343D01*
X653Y344D01*
X653Y344D01*
X653Y344D01*
X652Y344D01*
X652Y345D01*
X652Y345D01*
X652Y345D01*
X652Y345D01*
X652Y345D01*
X651Y345D01*
X651Y346D01*
X651Y346D01*
X651Y346D01*
X650Y346D01*
X650Y347D01*
X650Y347D01*
X650Y347D01*
X650Y347D01*
X650Y347D01*
X649Y347D01*
X649Y348D01*
X649Y348D01*
X649Y348D01*
X648Y348D01*
X648Y349D01*
X648Y349D01*
X648Y349D01*
X648Y349D01*
X648Y349D01*
X647Y349D01*
X647Y350D01*
X647Y350D01*
X647Y350D01*
X646Y350D01*
X646Y351D01*
X646Y351D01*
X646Y351D01*
X646Y351D01*
X646Y351D01*
X645Y351D01*
X645Y352D01*
X645Y352D01*
X645Y352D01*
X644Y352D01*
X644Y353D01*
X644Y353D01*
X644Y353D01*
X644Y353D01*
X644Y353D01*
X643Y353D01*
X643Y354D01*
X643Y354D01*
X643Y354D01*
X642Y354D01*
X642Y355D01*
X642Y355D01*
X642Y355D01*
X641Y355D01*
X641Y355D01*
X641Y355D01*
X641Y356D01*
X641Y356D01*
X641Y356D01*
X640Y356D01*
X640Y357D01*
X640Y357D01*
X640Y357D01*
X639Y357D01*
X639Y357D01*
X639Y357D01*
X639Y358D01*
X639Y358D01*
X639Y358D01*
X638Y358D01*
X638Y359D01*
X638Y359D01*
X638Y359D01*
X637Y359D01*
X637Y359D01*
X637Y359D01*
X637Y360D01*
X637Y360D01*
X637Y360D01*
X636Y360D01*
X636Y361D01*
X636Y361D01*
X636Y361D01*
X635Y361D01*
X635Y361D01*
X635Y361D01*
X635Y362D01*
X635Y362D01*
X635Y362D01*
X634Y362D01*
X634Y363D01*
X634Y363D01*
X634Y363D01*
X633Y363D01*
X633Y363D01*
X633Y363D01*
X633Y364D01*
X633Y364D01*
X633Y364D01*
X632Y364D01*
X632Y365D01*
X632Y365D01*
X632Y365D01*
X631Y365D01*
X631Y365D01*
X631Y365D01*
X631Y366D01*
X631Y366D01*
X631Y366D01*
X630Y366D01*
X630Y367D01*
X630Y367D01*
X630Y367D01*
X629Y367D01*
X629Y367D01*
X629Y367D01*
X629Y368D01*
X629Y368D01*
X629Y368D01*
X628Y368D01*
X628Y369D01*
X628Y369D01*
X628Y369D01*
X627Y369D01*
X627Y370D01*
X627Y370D01*
X627Y370D01*
X627Y370D01*
X627Y370D01*
X626Y370D01*
X626Y371D01*
X626Y371D01*
X626Y371D01*
X625Y371D01*
X625Y372D01*
X625Y372D01*
X625Y372D01*
X625Y372D01*
X625Y372D01*
X624Y372D01*
X624Y373D01*
X624Y373D01*
X624Y373D01*
X623Y373D01*
X623Y374D01*
X623Y374D01*
X623Y374D01*
X623Y374D01*
X623Y374D01*
X622Y374D01*
X622Y375D01*
X622Y375D01*
X622Y375D01*
X621Y375D01*
X621Y376D01*
X621Y376D01*
X621Y376D01*
X621Y376D01*
X621Y378D01*
X629Y378D01*
X629Y378D01*
X641Y378D01*
X641Y377D01*
X641Y377D01*
X641Y376D01*
X642Y376D01*
X642Y375D01*
X642Y375D01*
X642Y374D01*
X643Y374D01*
X643Y373D01*
X643Y373D01*
X643Y372D01*
X644Y372D01*
X644Y371D01*
X644Y371D01*
X644Y370D01*
X644Y370D01*
X644Y369D01*
X645Y369D01*
X645Y368D01*
X645Y368D01*
X645Y367D01*
X646Y367D01*
X646Y366D01*
X646Y366D01*
X646Y365D01*
X646Y365D01*
X646Y364D01*
X647Y364D01*
X647Y363D01*
X647Y363D01*
X647Y362D01*
X648Y362D01*
X648Y361D01*
X648Y361D01*
X648Y360D01*
X648Y360D01*
X648Y359D01*
X649Y359D01*
X649Y358D01*
X649Y358D01*
X649Y357D01*
X650Y357D01*
X650Y356D01*
X650Y356D01*
X650Y355D01*
X650Y355D01*
X650Y355D01*
X651Y355D01*
X651Y353D01*
X651Y353D01*
X651Y353D01*
X652Y353D01*
X652Y351D01*
X652Y351D01*
X652Y351D01*
X652Y351D01*
X652Y350D01*
X653Y350D01*
X653Y349D01*
X653Y349D01*
X653Y348D01*
X654Y348D01*
X654Y347D01*
X654Y347D01*
X654Y346D01*
X654Y346D01*
X654Y345D01*
X655Y345D01*
X655Y344D01*
X655Y344D01*
X655Y343D01*
X656Y343D01*
X656Y342D01*
X656Y342D01*
X656Y341D01*
G37*
D02*
G36*
X624Y417D02*
X624Y417D01*
X624Y416D01*
X623Y416D01*
X623Y415D01*
X623Y415D01*
X623Y414D01*
X623Y414D01*
X623Y412D01*
X622Y412D01*
X622Y411D01*
X622Y411D01*
X622Y409D01*
X621Y409D01*
X621Y407D01*
X621Y407D01*
X621Y404D01*
X621Y404D01*
X621Y426D01*
X621Y426D01*
X621Y425D01*
X621Y425D01*
X621Y424D01*
X622Y424D01*
X622Y423D01*
X622Y423D01*
X622Y423D01*
X623Y423D01*
X623Y421D01*
X623Y421D01*
X623Y421D01*
X623Y421D01*
X623Y419D01*
X624Y419D01*
X624Y419D01*
X624Y419D01*
X624Y417D01*
G37*
D02*
G36*
X621Y376D02*
X620Y376D01*
X620Y427D01*
X621Y427D01*
X621Y376D01*
G37*
D02*
G36*
X621Y376D02*
X620Y376D01*
X620Y427D01*
X621Y427D01*
X621Y376D01*
G37*
D02*
G36*
X620Y377D02*
X620Y377D01*
X620Y377D01*
X619Y377D01*
X619Y378D01*
X619Y378D01*
X619Y378D01*
X619Y378D01*
X619Y378D01*
X618Y378D01*
X618Y379D01*
X618Y379D01*
X618Y379D01*
X617Y379D01*
X617Y380D01*
X617Y380D01*
X617Y380D01*
X617Y380D01*
X617Y380D01*
X616Y380D01*
X616Y381D01*
X616Y381D01*
X616Y381D01*
X615Y381D01*
X615Y382D01*
X615Y382D01*
X615Y382D01*
X615Y382D01*
X615Y382D01*
X614Y382D01*
X614Y383D01*
X614Y383D01*
X614Y383D01*
X613Y383D01*
X613Y384D01*
X613Y384D01*
X613Y384D01*
X613Y384D01*
X613Y384D01*
X612Y384D01*
X612Y385D01*
X612Y385D01*
X612Y385D01*
X611Y385D01*
X611Y386D01*
X611Y386D01*
X611Y386D01*
X610Y386D01*
X610Y386D01*
X610Y386D01*
X610Y387D01*
X610Y387D01*
X610Y387D01*
X609Y387D01*
X609Y388D01*
X609Y388D01*
X609Y388D01*
X608Y388D01*
X608Y388D01*
X608Y388D01*
X608Y389D01*
X608Y389D01*
X608Y389D01*
X607Y389D01*
X607Y390D01*
X607Y390D01*
X607Y390D01*
X606Y390D01*
X606Y390D01*
X606Y390D01*
X606Y391D01*
X606Y391D01*
X606Y391D01*
X605Y391D01*
X605Y392D01*
X605Y392D01*
X605Y392D01*
X604Y392D01*
X604Y392D01*
X604Y392D01*
X604Y393D01*
X604Y393D01*
X604Y393D01*
X603Y393D01*
X603Y394D01*
X603Y394D01*
X603Y394D01*
X602Y394D01*
X602Y394D01*
X602Y394D01*
X602Y395D01*
X602Y395D01*
X602Y395D01*
X601Y395D01*
X601Y396D01*
X601Y396D01*
X601Y396D01*
X600Y396D01*
X600Y396D01*
X600Y396D01*
X600Y397D01*
X600Y397D01*
X600Y397D01*
X599Y397D01*
X599Y398D01*
X599Y398D01*
X599Y398D01*
X598Y398D01*
X598Y398D01*
X598Y398D01*
X598Y399D01*
X598Y399D01*
X598Y399D01*
X597Y399D01*
X597Y400D01*
X597Y400D01*
X597Y400D01*
X596Y400D01*
X596Y401D01*
X596Y401D01*
X596Y401D01*
X596Y401D01*
X596Y401D01*
X595Y401D01*
X595Y402D01*
X595Y402D01*
X595Y402D01*
X594Y402D01*
X594Y403D01*
X594Y403D01*
X594Y403D01*
X594Y403D01*
X594Y403D01*
X593Y403D01*
X593Y404D01*
X593Y404D01*
X593Y404D01*
X592Y404D01*
X592Y405D01*
X592Y405D01*
X592Y405D01*
X592Y405D01*
X592Y405D01*
X591Y405D01*
X591Y406D01*
X591Y406D01*
X591Y406D01*
X590Y406D01*
X590Y407D01*
X590Y407D01*
X590Y407D01*
X590Y407D01*
X590Y407D01*
X589Y407D01*
X589Y408D01*
X589Y408D01*
X589Y408D01*
X588Y408D01*
X588Y409D01*
X588Y409D01*
X588Y409D01*
X588Y409D01*
X588Y409D01*
X587Y409D01*
X587Y410D01*
X587Y410D01*
X587Y410D01*
X586Y410D01*
X586Y411D01*
X586Y411D01*
X586Y411D01*
X586Y411D01*
X586Y411D01*
X585Y411D01*
X585Y412D01*
X585Y412D01*
X585Y412D01*
X584Y412D01*
X584Y413D01*
X584Y413D01*
X584Y413D01*
X584Y413D01*
X584Y413D01*
X584Y413D01*
X584Y416D01*
X584Y416D01*
X584Y418D01*
X585Y418D01*
X585Y420D01*
X585Y420D01*
X585Y422D01*
X586Y422D01*
X586Y423D01*
X586Y423D01*
X586Y425D01*
X586Y425D01*
X586Y427D01*
X587Y427D01*
X587Y428D01*
X587Y428D01*
X587Y429D01*
X588Y429D01*
X588Y431D01*
X588Y431D01*
X588Y432D01*
X588Y432D01*
X588Y433D01*
X589Y433D01*
X589Y434D01*
X589Y434D01*
X589Y435D01*
X590Y435D01*
X590Y436D01*
X590Y436D01*
X590Y437D01*
X590Y437D01*
X590Y438D01*
X591Y438D01*
X591Y439D01*
X591Y439D01*
X591Y440D01*
X592Y440D01*
X592Y441D01*
X592Y441D01*
X592Y442D01*
X592Y442D01*
X592Y443D01*
X593Y443D01*
X593Y444D01*
X593Y444D01*
X593Y444D01*
X594Y444D01*
X594Y445D01*
X594Y445D01*
X594Y446D01*
X594Y446D01*
X594Y446D01*
X595Y446D01*
X595Y447D01*
X595Y447D01*
X595Y448D01*
X596Y448D01*
X596Y449D01*
X596Y449D01*
X596Y449D01*
X596Y449D01*
X596Y450D01*
X597Y450D01*
X597Y451D01*
X597Y451D01*
X597Y451D01*
X598Y451D01*
X598Y452D01*
X598Y452D01*
X598Y452D01*
X598Y452D01*
X598Y453D01*
X599Y453D01*
X599Y454D01*
X599Y454D01*
X599Y454D01*
X600Y454D01*
X600Y455D01*
X600Y455D01*
X600Y455D01*
X600Y455D01*
X600Y456D01*
X601Y456D01*
X601Y456D01*
X601Y456D01*
X601Y457D01*
X602Y457D01*
X602Y457D01*
X602Y457D01*
X602Y458D01*
X602Y458D01*
X602Y458D01*
X603Y458D01*
X603Y459D01*
X603Y459D01*
X603Y459D01*
X604Y459D01*
X604Y460D01*
X604Y460D01*
X604Y460D01*
X604Y460D01*
X604Y461D01*
X605Y461D01*
X605Y461D01*
X605Y461D01*
X605Y462D01*
X606Y462D01*
X606Y462D01*
X606Y462D01*
X606Y461D01*
X606Y461D01*
X606Y460D01*
X607Y460D01*
X607Y459D01*
X607Y459D01*
X607Y458D01*
X608Y458D01*
X608Y457D01*
X608Y457D01*
X608Y456D01*
X608Y456D01*
X608Y456D01*
X609Y456D01*
X609Y454D01*
X609Y454D01*
X609Y454D01*
X610Y454D01*
X610Y452D01*
X610Y452D01*
X610Y452D01*
X610Y452D01*
X610Y451D01*
X611Y451D01*
X611Y450D01*
X611Y450D01*
X611Y449D01*
X612Y449D01*
X612Y448D01*
X612Y448D01*
X612Y447D01*
X613Y447D01*
X613Y446D01*
X613Y446D01*
X613Y445D01*
X613Y445D01*
X613Y444D01*
X614Y444D01*
X614Y443D01*
X614Y443D01*
X614Y442D01*
X615Y442D01*
X615Y441D01*
X615Y441D01*
X615Y440D01*
X615Y440D01*
X615Y439D01*
X616Y439D01*
X616Y438D01*
X616Y438D01*
X616Y437D01*
X617Y437D01*
X617Y436D01*
X617Y436D01*
X617Y435D01*
X617Y435D01*
X617Y434D01*
X618Y434D01*
X618Y433D01*
X618Y433D01*
X618Y432D01*
X619Y432D01*
X619Y431D01*
X619Y431D01*
X619Y430D01*
X619Y430D01*
X619Y429D01*
X620Y429D01*
X620Y428D01*
X620Y428D01*
X620Y377D01*
G37*
D02*
G36*
X656Y747D02*
X653Y747D01*
X653Y748D01*
X656Y748D01*
X656Y747D01*
G37*
D02*
G36*
X656Y632D02*
X654Y632D01*
X654Y633D01*
X656Y633D01*
X656Y632D01*
G37*
D02*
G36*
X654Y666D02*
X653Y666D01*
X653Y667D01*
X654Y667D01*
X654Y666D01*
G37*
D02*
G36*
X646Y746D02*
X646Y746D01*
X646Y746D01*
X646Y746D01*
X646Y746D01*
G37*
D02*
G36*
X645Y633D02*
X644Y633D01*
X644Y633D01*
X645Y633D01*
X645Y633D01*
G37*
D02*
G36*
X645Y745D02*
X644Y745D01*
X644Y746D01*
X645Y746D01*
X645Y745D01*
G37*
D02*
G36*
X643Y667D02*
X641Y667D01*
X641Y667D01*
X643Y667D01*
X643Y667D01*
G37*
D02*
G36*
X643Y745D02*
X642Y745D01*
X642Y745D01*
X643Y745D01*
X643Y745D01*
G37*
D02*
G36*
X635Y633D02*
X634Y633D01*
X634Y634D01*
X635Y634D01*
X635Y633D01*
G37*
D02*
G36*
X631Y634D02*
X629Y634D01*
X629Y634D01*
X631Y634D01*
X631Y634D01*
G37*
D02*
G36*
X631Y667D02*
X630Y667D01*
X630Y667D01*
X631Y667D01*
X631Y667D01*
G37*
D02*
G36*
X631Y680D02*
X631Y680D01*
X631Y681D01*
X631Y681D01*
X631Y680D01*
G37*
D02*
G36*
X621Y634D02*
X620Y634D01*
X620Y634D01*
X621Y634D01*
X621Y634D01*
G37*
D02*
G36*
X621Y735D02*
X621Y735D01*
X621Y735D01*
X621Y735D01*
X621Y735D01*
G37*
D02*
G36*
X621Y734D02*
X620Y734D01*
X620Y735D01*
X621Y735D01*
X621Y734D01*
G37*
D02*
G36*
X620Y734D02*
X619Y734D01*
X619Y734D01*
X620Y734D01*
X620Y734D01*
G37*
D02*
G36*
X619Y733D02*
X619Y733D01*
X619Y734D01*
X619Y734D01*
X619Y733D01*
G37*
D02*
G36*
X619Y669D02*
X619Y669D01*
X619Y669D01*
X619Y669D01*
X619Y669D01*
G37*
D02*
G36*
X619Y733D02*
X619Y733D01*
X619Y733D01*
X619Y733D01*
X619Y733D01*
G37*
D02*
G36*
X619Y668D02*
X618Y668D01*
X618Y668D01*
X619Y668D01*
X619Y668D01*
G37*
D02*
G36*
X618Y666D02*
X617Y666D01*
X617Y666D01*
X618Y666D01*
X618Y666D01*
G37*
D02*
G36*
X617Y634D02*
X617Y634D01*
X617Y635D01*
X617Y635D01*
X617Y634D01*
G37*
D02*
G36*
X617Y640D02*
X617Y640D01*
X617Y640D01*
X617Y640D01*
X617Y640D01*
G37*
D02*
G36*
X617Y645D02*
X616Y645D01*
X616Y646D01*
X617Y646D01*
X617Y645D01*
G37*
D02*
G36*
X607Y722D02*
X607Y722D01*
X607Y722D01*
X607Y722D01*
X607Y722D01*
G37*
D02*
G36*
X607Y721D02*
X606Y721D01*
X606Y722D01*
X607Y722D01*
X607Y721D01*
G37*
D02*
G36*
X597Y707D02*
X596Y707D01*
X596Y708D01*
X597Y708D01*
X597Y707D01*
G37*
D02*
G54D12*
X226Y658D02*
X226Y658D01*
X292Y658D02*
X292Y658D01*
X223Y657D02*
X227Y657D01*
X292Y657D02*
X295Y657D01*
X222Y656D02*
X227Y656D01*
X291Y656D02*
X296Y656D01*
X221Y655D02*
X227Y655D01*
X291Y655D02*
X297Y655D01*
X220Y654D02*
X227Y654D01*
X291Y654D02*
X299Y654D01*
X219Y653D02*
X227Y653D01*
X291Y653D02*
X299Y653D01*
X218Y652D02*
X228Y652D01*
X291Y652D02*
X300Y652D01*
X218Y651D02*
X228Y651D01*
X290Y651D02*
X301Y651D01*
X217Y650D02*
X226Y650D01*
X292Y650D02*
X301Y650D01*
X217Y649D02*
X225Y649D01*
X293Y649D02*
X301Y649D01*
X216Y648D02*
X224Y648D01*
X294Y648D02*
X302Y648D01*
X216Y647D02*
X224Y647D01*
X295Y647D02*
X302Y647D01*
X216Y646D02*
X223Y646D01*
X295Y646D02*
X302Y646D01*
X216Y645D02*
X223Y645D01*
X295Y645D02*
X302Y645D01*
X216Y644D02*
X223Y644D01*
X295Y644D02*
X302Y644D01*
X216Y643D02*
X220Y643D01*
X298Y643D02*
X302Y643D01*
X317Y630D02*
X330Y630D01*
X346Y630D02*
X348Y630D01*
X369Y630D02*
X378Y630D01*
X388Y630D02*
X401Y630D01*
X316Y629D02*
X331Y629D01*
X346Y629D02*
X348Y629D01*
X368Y629D02*
X378Y629D01*
X387Y629D02*
X401Y629D01*
X316Y628D02*
X331Y628D01*
X345Y628D02*
X349Y628D01*
X367Y628D02*
X378Y628D01*
X387Y628D02*
X402Y628D01*
X316Y627D02*
X318Y627D01*
X329Y627D02*
X331Y627D01*
X345Y627D02*
X349Y627D01*
X366Y627D02*
X369Y627D01*
X373Y627D02*
X375Y627D01*
X387Y627D02*
X389Y627D01*
X399Y627D02*
X402Y627D01*
X316Y626D02*
X318Y626D01*
X329Y626D02*
X331Y626D01*
X345Y626D02*
X349Y626D01*
X366Y626D02*
X369Y626D01*
X373Y626D02*
X375Y626D01*
X387Y626D02*
X389Y626D01*
X399Y626D02*
X402Y626D01*
X316Y625D02*
X318Y625D01*
X329Y625D02*
X331Y625D01*
X344Y625D02*
X349Y625D01*
X365Y625D02*
X368Y625D01*
X373Y625D02*
X375Y625D01*
X388Y625D02*
X388Y625D01*
X398Y625D02*
X401Y625D01*
X316Y624D02*
X318Y624D01*
X329Y624D02*
X331Y624D01*
X344Y624D02*
X350Y624D01*
X365Y624D02*
X368Y624D01*
X373Y624D02*
X375Y624D01*
X397Y624D02*
X400Y624D01*
X316Y623D02*
X318Y623D01*
X329Y623D02*
X331Y623D01*
X344Y623D02*
X350Y623D01*
X364Y623D02*
X367Y623D01*
X373Y623D02*
X375Y623D01*
X396Y623D02*
X400Y623D01*
X316Y622D02*
X318Y622D01*
X329Y622D02*
X331Y622D01*
X344Y622D02*
X346Y622D01*
X348Y622D02*
X350Y622D01*
X364Y622D02*
X367Y622D01*
X373Y622D02*
X375Y622D01*
X396Y622D02*
X399Y622D01*
X316Y621D02*
X318Y621D01*
X329Y621D02*
X331Y621D01*
X343Y621D02*
X346Y621D01*
X348Y621D02*
X351Y621D01*
X364Y621D02*
X366Y621D01*
X373Y621D02*
X375Y621D01*
X395Y621D02*
X398Y621D01*
X316Y620D02*
X318Y620D01*
X329Y620D02*
X331Y620D01*
X343Y620D02*
X346Y620D01*
X348Y620D02*
X351Y620D01*
X363Y620D02*
X366Y620D01*
X373Y620D02*
X375Y620D01*
X394Y620D02*
X397Y620D01*
X316Y619D02*
X318Y619D01*
X329Y619D02*
X331Y619D01*
X343Y619D02*
X345Y619D01*
X349Y619D02*
X351Y619D01*
X363Y619D02*
X365Y619D01*
X373Y619D02*
X375Y619D01*
X393Y619D02*
X397Y619D01*
X316Y618D02*
X318Y618D01*
X329Y618D02*
X331Y618D01*
X342Y618D02*
X345Y618D01*
X349Y618D02*
X352Y618D01*
X363Y618D02*
X365Y618D01*
X373Y618D02*
X375Y618D01*
X393Y618D02*
X396Y618D01*
X316Y617D02*
X318Y617D01*
X329Y617D02*
X331Y617D01*
X342Y617D02*
X345Y617D01*
X349Y617D02*
X352Y617D01*
X363Y617D02*
X366Y617D01*
X373Y617D02*
X375Y617D01*
X392Y617D02*
X395Y617D01*
X316Y616D02*
X318Y616D01*
X329Y616D02*
X331Y616D01*
X342Y616D02*
X344Y616D01*
X350Y616D02*
X352Y616D01*
X363Y616D02*
X366Y616D01*
X373Y616D02*
X375Y616D01*
X391Y616D02*
X394Y616D01*
X316Y615D02*
X318Y615D01*
X329Y615D02*
X331Y615D01*
X342Y615D02*
X344Y615D01*
X350Y615D02*
X352Y615D01*
X364Y615D02*
X366Y615D01*
X373Y615D02*
X375Y615D01*
X390Y615D02*
X393Y615D01*
X316Y614D02*
X318Y614D01*
X329Y614D02*
X331Y614D01*
X341Y614D02*
X353Y614D01*
X364Y614D02*
X367Y614D01*
X373Y614D02*
X375Y614D01*
X389Y614D02*
X393Y614D01*
X316Y613D02*
X318Y613D01*
X329Y613D02*
X331Y613D01*
X341Y613D02*
X353Y613D01*
X365Y613D02*
X367Y613D01*
X373Y613D02*
X375Y613D01*
X389Y613D02*
X392Y613D01*
X316Y612D02*
X318Y612D01*
X329Y612D02*
X331Y612D01*
X341Y612D02*
X353Y612D01*
X365Y612D02*
X368Y612D01*
X373Y612D02*
X375Y612D01*
X388Y612D02*
X391Y612D01*
X316Y611D02*
X318Y611D01*
X329Y611D02*
X331Y611D01*
X340Y611D02*
X354Y611D01*
X366Y611D02*
X368Y611D01*
X373Y611D02*
X375Y611D01*
X387Y611D02*
X390Y611D01*
X400Y611D02*
X401Y611D01*
X316Y610D02*
X318Y610D01*
X329Y610D02*
X331Y610D01*
X340Y610D02*
X343Y610D01*
X351Y610D02*
X354Y610D01*
X366Y610D02*
X369Y610D01*
X373Y610D02*
X375Y610D01*
X387Y610D02*
X390Y610D01*
X400Y610D02*
X402Y610D01*
X316Y609D02*
X318Y609D01*
X329Y609D02*
X331Y609D01*
X340Y609D02*
X342Y609D01*
X352Y609D02*
X354Y609D01*
X367Y609D02*
X370Y609D01*
X373Y609D02*
X375Y609D01*
X387Y609D02*
X389Y609D01*
X399Y609D02*
X402Y609D01*
X316Y608D02*
X331Y608D01*
X340Y608D02*
X342Y608D01*
X352Y608D02*
X354Y608D01*
X367Y608D02*
X378Y608D01*
X387Y608D02*
X401Y608D01*
X316Y607D02*
X330Y607D01*
X339Y607D02*
X342Y607D01*
X352Y607D02*
X355Y607D01*
X368Y607D02*
X378Y607D01*
X387Y607D02*
X401Y607D01*
X317Y606D02*
X330Y606D01*
X340Y606D02*
X341Y606D01*
X353Y606D02*
X354Y606D01*
X369Y606D02*
X378Y606D01*
X388Y606D02*
X400Y606D01*
X216Y588D02*
X217Y588D01*
X301Y588D02*
X302Y588D01*
X216Y587D02*
X222Y587D01*
X296Y587D02*
X302Y587D01*
X216Y586D02*
X223Y586D01*
X295Y586D02*
X302Y586D01*
X216Y585D02*
X223Y585D01*
X295Y585D02*
X302Y585D01*
X216Y584D02*
X223Y584D01*
X295Y584D02*
X302Y584D01*
X216Y583D02*
X224Y583D01*
X294Y583D02*
X302Y583D01*
X217Y582D02*
X224Y582D01*
X294Y582D02*
X301Y582D01*
X217Y581D02*
X225Y581D01*
X293Y581D02*
X301Y581D01*
X217Y580D02*
X227Y580D01*
X291Y580D02*
X301Y580D01*
X218Y579D02*
X228Y579D01*
X290Y579D02*
X300Y579D01*
X218Y578D02*
X227Y578D01*
X291Y578D02*
X300Y578D01*
X219Y577D02*
X227Y577D01*
X291Y577D02*
X299Y577D01*
X220Y576D02*
X227Y576D01*
X291Y576D02*
X298Y576D01*
X221Y575D02*
X227Y575D01*
X291Y575D02*
X297Y575D01*
X222Y574D02*
X227Y574D01*
X291Y574D02*
X296Y574D01*
X224Y573D02*
X226Y573D01*
X292Y573D02*
X294Y573D01*
X224Y557D02*
X226Y557D01*
X292Y557D02*
X294Y557D01*
X222Y556D02*
X227Y556D01*
X291Y556D02*
X296Y556D01*
X221Y555D02*
X227Y555D01*
X291Y555D02*
X297Y555D01*
X220Y554D02*
X227Y554D01*
X291Y554D02*
X298Y554D01*
X219Y553D02*
X227Y553D01*
X291Y553D02*
X299Y553D01*
X218Y552D02*
X227Y552D01*
X291Y552D02*
X300Y552D01*
X218Y551D02*
X228Y551D01*
X290Y551D02*
X300Y551D01*
X217Y550D02*
X227Y550D01*
X291Y550D02*
X301Y550D01*
X217Y549D02*
X225Y549D01*
X293Y549D02*
X301Y549D01*
X217Y548D02*
X224Y548D01*
X294Y548D02*
X301Y548D01*
X216Y547D02*
X224Y547D01*
X294Y547D02*
X302Y547D01*
X216Y546D02*
X223Y546D01*
X295Y546D02*
X302Y546D01*
X216Y545D02*
X223Y545D01*
X295Y545D02*
X302Y545D01*
X216Y544D02*
X223Y544D01*
X295Y544D02*
X302Y544D01*
X216Y543D02*
X222Y543D01*
X296Y543D02*
X302Y543D01*
X216Y542D02*
X217Y542D01*
X301Y542D02*
X302Y542D01*
X323Y531D02*
X330Y531D01*
X371Y531D02*
X377Y531D01*
X391Y531D02*
X399Y531D01*
X323Y530D02*
X331Y530D01*
X346Y530D02*
X348Y530D01*
X369Y530D02*
X378Y530D01*
X389Y530D02*
X401Y530D01*
X323Y529D02*
X331Y529D01*
X346Y529D02*
X349Y529D01*
X368Y529D02*
X379Y529D01*
X388Y529D02*
X402Y529D01*
X323Y528D02*
X330Y528D01*
X346Y528D02*
X349Y528D01*
X367Y528D02*
X378Y528D01*
X387Y528D02*
X402Y528D01*
X323Y527D02*
X325Y527D01*
X345Y527D02*
X349Y527D01*
X367Y527D02*
X370Y527D01*
X373Y527D02*
X375Y527D01*
X387Y527D02*
X389Y527D01*
X400Y527D02*
X402Y527D01*
X323Y526D02*
X325Y526D01*
X345Y526D02*
X350Y526D01*
X366Y526D02*
X369Y526D01*
X373Y526D02*
X375Y526D01*
X387Y526D02*
X389Y526D01*
X399Y526D02*
X402Y526D01*
X323Y525D02*
X325Y525D01*
X345Y525D02*
X350Y525D01*
X366Y525D02*
X368Y525D01*
X373Y525D02*
X375Y525D01*
X398Y525D02*
X401Y525D01*
X323Y524D02*
X325Y524D01*
X345Y524D02*
X350Y524D01*
X365Y524D02*
X368Y524D01*
X373Y524D02*
X375Y524D01*
X397Y524D02*
X401Y524D01*
X323Y523D02*
X325Y523D01*
X344Y523D02*
X350Y523D01*
X365Y523D02*
X367Y523D01*
X373Y523D02*
X375Y523D01*
X397Y523D02*
X400Y523D01*
X323Y522D02*
X325Y522D01*
X344Y522D02*
X346Y522D01*
X348Y522D02*
X351Y522D01*
X364Y522D02*
X367Y522D01*
X373Y522D02*
X375Y522D01*
X396Y522D02*
X399Y522D01*
X323Y521D02*
X325Y521D01*
X344Y521D02*
X346Y521D01*
X349Y521D02*
X351Y521D01*
X364Y521D02*
X366Y521D01*
X373Y521D02*
X375Y521D01*
X395Y521D02*
X398Y521D01*
X323Y520D02*
X325Y520D01*
X343Y520D02*
X346Y520D01*
X349Y520D02*
X351Y520D01*
X364Y520D02*
X366Y520D01*
X373Y520D02*
X375Y520D01*
X394Y520D02*
X398Y520D01*
X323Y519D02*
X325Y519D01*
X343Y519D02*
X346Y519D01*
X349Y519D02*
X352Y519D01*
X363Y519D02*
X366Y519D01*
X373Y519D02*
X375Y519D01*
X394Y519D02*
X397Y519D01*
X323Y518D02*
X325Y518D01*
X343Y518D02*
X345Y518D01*
X349Y518D02*
X352Y518D01*
X363Y518D02*
X366Y518D01*
X373Y518D02*
X375Y518D01*
X393Y518D02*
X396Y518D01*
X317Y517D02*
X317Y517D01*
X323Y517D02*
X325Y517D01*
X342Y517D02*
X345Y517D01*
X350Y517D02*
X352Y517D01*
X363Y517D02*
X366Y517D01*
X373Y517D02*
X375Y517D01*
X392Y517D02*
X395Y517D01*
X316Y516D02*
X318Y516D01*
X323Y516D02*
X325Y516D01*
X342Y516D02*
X345Y516D01*
X350Y516D02*
X353Y516D01*
X364Y516D02*
X366Y516D01*
X373Y516D02*
X375Y516D01*
X391Y516D02*
X394Y516D01*
X316Y515D02*
X318Y515D01*
X323Y515D02*
X325Y515D01*
X342Y515D02*
X344Y515D01*
X350Y515D02*
X353Y515D01*
X364Y515D02*
X367Y515D01*
X373Y515D02*
X375Y515D01*
X390Y515D02*
X394Y515D01*
X316Y514D02*
X318Y514D01*
X323Y514D02*
X325Y514D01*
X342Y514D02*
X353Y514D01*
X365Y514D02*
X367Y514D01*
X373Y514D02*
X375Y514D01*
X390Y514D02*
X393Y514D01*
X316Y513D02*
X318Y513D01*
X323Y513D02*
X325Y513D01*
X341Y513D02*
X353Y513D01*
X365Y513D02*
X368Y513D01*
X373Y513D02*
X375Y513D01*
X389Y513D02*
X392Y513D01*
X316Y512D02*
X318Y512D01*
X323Y512D02*
X325Y512D01*
X341Y512D02*
X354Y512D01*
X366Y512D02*
X368Y512D01*
X373Y512D02*
X375Y512D01*
X388Y512D02*
X391Y512D01*
X316Y511D02*
X318Y511D01*
X323Y511D02*
X325Y511D01*
X341Y511D02*
X343Y511D01*
X351Y511D02*
X354Y511D01*
X366Y511D02*
X369Y511D01*
X373Y511D02*
X375Y511D01*
X387Y511D02*
X391Y511D01*
X400Y511D02*
X402Y511D01*
X316Y510D02*
X318Y510D01*
X323Y510D02*
X325Y510D01*
X340Y510D02*
X343Y510D01*
X352Y510D02*
X354Y510D01*
X367Y510D02*
X369Y510D01*
X373Y510D02*
X375Y510D01*
X387Y510D02*
X390Y510D01*
X400Y510D02*
X402Y510D01*
X316Y509D02*
X319Y509D01*
X322Y509D02*
X325Y509D01*
X340Y509D02*
X343Y509D01*
X352Y509D02*
X355Y509D01*
X367Y509D02*
X370Y509D01*
X373Y509D02*
X376Y509D01*
X387Y509D02*
X390Y509D01*
X399Y509D02*
X402Y509D01*
X316Y508D02*
X331Y508D01*
X340Y508D02*
X342Y508D01*
X352Y508D02*
X355Y508D01*
X368Y508D02*
X378Y508D01*
X387Y508D02*
X402Y508D01*
X316Y507D02*
X331Y507D01*
X340Y507D02*
X342Y507D01*
X353Y507D02*
X355Y507D01*
X368Y507D02*
X379Y507D01*
X388Y507D02*
X401Y507D01*
X317Y506D02*
X331Y506D01*
X340Y506D02*
X341Y506D01*
X353Y506D02*
X354Y506D01*
X370Y506D02*
X378Y506D01*
X389Y506D02*
X400Y506D01*
X216Y487D02*
X221Y487D01*
X297Y487D02*
X302Y487D01*
X216Y486D02*
X223Y486D01*
X295Y486D02*
X302Y486D01*
X216Y485D02*
X223Y485D01*
X295Y485D02*
X302Y485D01*
X216Y484D02*
X223Y484D01*
X295Y484D02*
X302Y484D01*
X216Y483D02*
X224Y483D01*
X295Y483D02*
X302Y483D01*
X216Y482D02*
X224Y482D01*
X294Y482D02*
X302Y482D01*
X217Y481D02*
X225Y481D01*
X293Y481D02*
X301Y481D01*
X217Y480D02*
X226Y480D01*
X292Y480D02*
X301Y480D01*
X218Y479D02*
X228Y479D01*
X290Y479D02*
X300Y479D01*
X218Y478D02*
X228Y478D01*
X291Y478D02*
X300Y478D01*
X219Y477D02*
X227Y477D01*
X291Y477D02*
X299Y477D01*
X220Y476D02*
X227Y476D01*
X291Y476D02*
X298Y476D01*
X221Y475D02*
X227Y475D01*
X291Y475D02*
X297Y475D01*
X222Y474D02*
X227Y474D01*
X291Y474D02*
X296Y474D01*
X224Y473D02*
X227Y473D01*
X292Y473D02*
X295Y473D01*
X226Y472D02*
X226Y472D01*
X292Y472D02*
X292Y472D01*
X225Y459D02*
X226Y459D01*
X292Y459D02*
X293Y459D01*
X223Y458D02*
X227Y458D01*
X291Y458D02*
X295Y458D01*
X222Y457D02*
X227Y457D01*
X291Y457D02*
X297Y457D01*
X220Y456D02*
X227Y456D01*
X291Y456D02*
X298Y456D01*
X219Y455D02*
X227Y455D01*
X291Y455D02*
X299Y455D01*
X219Y454D02*
X227Y454D01*
X291Y454D02*
X300Y454D01*
X218Y453D02*
X228Y453D01*
X290Y453D02*
X300Y453D01*
X217Y452D02*
X228Y452D01*
X290Y452D02*
X301Y452D01*
X217Y451D02*
X226Y451D01*
X292Y451D02*
X301Y451D01*
X217Y450D02*
X225Y450D01*
X293Y450D02*
X301Y450D01*
X216Y449D02*
X224Y449D01*
X294Y449D02*
X302Y449D01*
X216Y448D02*
X223Y448D01*
X295Y448D02*
X302Y448D01*
X216Y447D02*
X223Y447D01*
X295Y447D02*
X302Y447D01*
X216Y446D02*
X223Y446D01*
X295Y446D02*
X302Y446D01*
X216Y445D02*
X223Y445D01*
X295Y445D02*
X302Y445D01*
X216Y444D02*
X219Y444D01*
X299Y444D02*
X302Y444D01*
X322Y430D02*
X335Y430D01*
X351Y430D02*
X352Y430D01*
X374Y430D02*
X382Y430D01*
X394Y430D02*
X404Y430D01*
X321Y429D02*
X335Y429D01*
X350Y429D02*
X353Y429D01*
X373Y429D02*
X383Y429D01*
X392Y429D02*
X406Y429D01*
X320Y428D02*
X335Y428D01*
X350Y428D02*
X353Y428D01*
X372Y428D02*
X383Y428D01*
X392Y428D02*
X406Y428D01*
X320Y427D02*
X323Y427D01*
X350Y427D02*
X353Y427D01*
X371Y427D02*
X375Y427D01*
X377Y427D02*
X380Y427D01*
X391Y427D02*
X394Y427D01*
X404Y427D02*
X406Y427D01*
X320Y426D02*
X323Y426D01*
X349Y426D02*
X354Y426D01*
X371Y426D02*
X374Y426D01*
X377Y426D02*
X380Y426D01*
X391Y426D02*
X393Y426D01*
X404Y426D02*
X406Y426D01*
X320Y425D02*
X323Y425D01*
X349Y425D02*
X354Y425D01*
X370Y425D02*
X373Y425D01*
X377Y425D02*
X380Y425D01*
X391Y425D02*
X393Y425D01*
X403Y425D02*
X406Y425D01*
X320Y424D02*
X323Y424D01*
X349Y424D02*
X354Y424D01*
X370Y424D02*
X372Y424D01*
X377Y424D02*
X380Y424D01*
X402Y424D02*
X405Y424D01*
X320Y423D02*
X323Y423D01*
X349Y423D02*
X354Y423D01*
X369Y423D02*
X372Y423D01*
X377Y423D02*
X380Y423D01*
X401Y423D02*
X405Y423D01*
X320Y422D02*
X323Y422D01*
X348Y422D02*
X355Y422D01*
X369Y422D02*
X371Y422D01*
X377Y422D02*
X380Y422D01*
X401Y422D02*
X404Y422D01*
X320Y421D02*
X323Y421D01*
X348Y421D02*
X350Y421D01*
X353Y421D02*
X355Y421D01*
X368Y421D02*
X371Y421D01*
X377Y421D02*
X380Y421D01*
X400Y421D02*
X403Y421D01*
X320Y420D02*
X323Y420D01*
X348Y420D02*
X350Y420D01*
X353Y420D02*
X355Y420D01*
X368Y420D02*
X370Y420D01*
X377Y420D02*
X380Y420D01*
X399Y420D02*
X402Y420D01*
X320Y419D02*
X333Y419D01*
X347Y419D02*
X350Y419D01*
X353Y419D02*
X356Y419D01*
X368Y419D02*
X370Y419D01*
X377Y419D02*
X380Y419D01*
X398Y419D02*
X401Y419D01*
X321Y418D02*
X335Y418D01*
X347Y418D02*
X350Y418D01*
X353Y418D02*
X356Y418D01*
X368Y418D02*
X370Y418D01*
X377Y418D02*
X380Y418D01*
X397Y418D02*
X401Y418D01*
X321Y417D02*
X335Y417D01*
X347Y417D02*
X349Y417D01*
X354Y417D02*
X356Y417D01*
X368Y417D02*
X370Y417D01*
X377Y417D02*
X380Y417D01*
X397Y417D02*
X400Y417D01*
X323Y416D02*
X336Y416D01*
X347Y416D02*
X349Y416D01*
X354Y416D02*
X356Y416D01*
X368Y416D02*
X370Y416D01*
X377Y416D02*
X380Y416D01*
X396Y416D02*
X399Y416D01*
X333Y415D02*
X336Y415D01*
X346Y415D02*
X349Y415D01*
X354Y415D02*
X357Y415D01*
X368Y415D02*
X371Y415D01*
X377Y415D02*
X380Y415D01*
X395Y415D02*
X398Y415D01*
X333Y414D02*
X336Y414D01*
X346Y414D02*
X349Y414D01*
X354Y414D02*
X357Y414D01*
X368Y414D02*
X371Y414D01*
X377Y414D02*
X380Y414D01*
X394Y414D02*
X398Y414D01*
X333Y413D02*
X336Y413D01*
X346Y413D02*
X357Y413D01*
X369Y413D02*
X372Y413D01*
X377Y413D02*
X380Y413D01*
X394Y413D02*
X397Y413D01*
X333Y412D02*
X336Y412D01*
X345Y412D02*
X358Y412D01*
X369Y412D02*
X372Y412D01*
X377Y412D02*
X380Y412D01*
X393Y412D02*
X396Y412D01*
X333Y411D02*
X336Y411D01*
X345Y411D02*
X358Y411D01*
X370Y411D02*
X373Y411D01*
X377Y411D02*
X380Y411D01*
X392Y411D02*
X395Y411D01*
X333Y410D02*
X336Y410D01*
X345Y410D02*
X347Y410D01*
X356Y410D02*
X358Y410D01*
X370Y410D02*
X373Y410D01*
X377Y410D02*
X380Y410D01*
X391Y410D02*
X394Y410D01*
X404Y410D02*
X406Y410D01*
X333Y409D02*
X336Y409D01*
X345Y409D02*
X347Y409D01*
X356Y409D02*
X359Y409D01*
X371Y409D02*
X374Y409D01*
X377Y409D02*
X380Y409D01*
X391Y409D02*
X394Y409D01*
X404Y409D02*
X406Y409D01*
X321Y408D02*
X336Y408D01*
X344Y408D02*
X347Y408D01*
X356Y408D02*
X359Y408D01*
X371Y408D02*
X382Y408D01*
X391Y408D02*
X406Y408D01*
X320Y407D02*
X336Y407D01*
X344Y407D02*
X346Y407D01*
X357Y407D02*
X359Y407D01*
X372Y407D02*
X383Y407D01*
X391Y407D02*
X406Y407D01*
X320Y406D02*
X336Y406D01*
X344Y406D02*
X346Y406D01*
X357Y406D02*
X359Y406D01*
X373Y406D02*
X383Y406D01*
X392Y406D02*
X405Y406D01*
X321Y405D02*
X335Y405D01*
X345Y405D02*
X345Y405D01*
X358Y405D02*
X358Y405D01*
X375Y405D02*
X382Y405D01*
X394Y405D02*
X403Y405D01*
X216Y389D02*
X219Y389D01*
X299Y389D02*
X302Y389D01*
X216Y388D02*
X223Y388D01*
X295Y388D02*
X302Y388D01*
X216Y387D02*
X223Y387D01*
X295Y387D02*
X302Y387D01*
X216Y386D02*
X223Y386D01*
X295Y386D02*
X302Y386D01*
X216Y385D02*
X223Y385D01*
X295Y385D02*
X302Y385D01*
X216Y384D02*
X224Y384D01*
X294Y384D02*
X302Y384D01*
X217Y383D02*
X225Y383D01*
X294Y383D02*
X301Y383D01*
X217Y382D02*
X225Y382D01*
X293Y382D02*
X301Y382D01*
X217Y381D02*
X227Y381D01*
X291Y381D02*
X301Y381D01*
X218Y380D02*
X228Y380D01*
X290Y380D02*
X300Y380D01*
X218Y379D02*
X227Y379D01*
X291Y379D02*
X300Y379D01*
X219Y378D02*
X227Y378D01*
X291Y378D02*
X299Y378D01*
X220Y377D02*
X227Y377D01*
X291Y377D02*
X298Y377D01*
X221Y376D02*
X227Y376D01*
X291Y376D02*
X297Y376D01*
X223Y375D02*
X227Y375D01*
X291Y375D02*
X295Y375D01*
X225Y374D02*
X226Y374D01*
X292Y374D02*
X293Y374D01*
X275Y224D02*
X281Y224D01*
X291Y224D02*
X298Y224D01*
X308Y224D02*
X313Y224D01*
X324Y224D02*
X328Y224D01*
X339Y224D02*
X339Y224D01*
X274Y223D02*
X282Y223D01*
X289Y223D02*
X298Y223D01*
X307Y223D02*
X313Y223D01*
X322Y223D02*
X329Y223D01*
X339Y223D02*
X340Y223D01*
X274Y222D02*
X275Y222D01*
X281Y222D02*
X283Y222D01*
X289Y222D02*
X291Y222D01*
X297Y222D02*
X298Y222D01*
X306Y222D02*
X308Y222D01*
X310Y222D02*
X312Y222D01*
X322Y222D02*
X327Y222D01*
X338Y222D02*
X340Y222D01*
X274Y221D02*
X274Y221D01*
X281Y221D02*
X283Y221D01*
X289Y221D02*
X290Y221D01*
X297Y221D02*
X298Y221D01*
X306Y221D02*
X307Y221D01*
X310Y221D02*
X311Y221D01*
X321Y221D02*
X323Y221D01*
X325Y221D02*
X327Y221D01*
X338Y221D02*
X340Y221D01*
X280Y220D02*
X282Y220D01*
X289Y220D02*
X290Y220D01*
X297Y220D02*
X298Y220D01*
X305Y220D02*
X307Y220D01*
X310Y220D02*
X311Y220D01*
X321Y220D02*
X322Y220D01*
X325Y220D02*
X327Y220D01*
X338Y220D02*
X341Y220D01*
X280Y219D02*
X281Y219D01*
X289Y219D02*
X291Y219D01*
X297Y219D02*
X298Y219D01*
X305Y219D02*
X306Y219D01*
X310Y219D02*
X311Y219D01*
X320Y219D02*
X321Y219D01*
X325Y219D02*
X327Y219D01*
X337Y219D02*
X341Y219D01*
X279Y218D02*
X281Y218D01*
X289Y218D02*
X298Y218D01*
X304Y218D02*
X306Y218D01*
X310Y218D02*
X311Y218D01*
X320Y218D02*
X321Y218D01*
X325Y218D02*
X327Y218D01*
X337Y218D02*
X338Y218D01*
X340Y218D02*
X341Y218D01*
X278Y217D02*
X280Y217D01*
X291Y217D02*
X298Y217D01*
X304Y217D02*
X305Y217D01*
X310Y217D02*
X311Y217D01*
X319Y217D02*
X321Y217D01*
X325Y217D02*
X327Y217D01*
X337Y217D02*
X338Y217D01*
X340Y217D02*
X342Y217D01*
X277Y216D02*
X279Y216D01*
X293Y216D02*
X294Y216D01*
X297Y216D02*
X298Y216D01*
X304Y216D02*
X305Y216D01*
X310Y216D02*
X311Y216D01*
X319Y216D02*
X320Y216D01*
X325Y216D02*
X327Y216D01*
X336Y216D02*
X338Y216D01*
X341Y216D02*
X342Y216D01*
X277Y215D02*
X278Y215D01*
X292Y215D02*
X294Y215D01*
X297Y215D02*
X298Y215D01*
X304Y215D02*
X305Y215D01*
X310Y215D02*
X311Y215D01*
X319Y215D02*
X321Y215D01*
X325Y215D02*
X327Y215D01*
X336Y215D02*
X337Y215D01*
X341Y215D02*
X342Y215D01*
X276Y214D02*
X277Y214D01*
X291Y214D02*
X293Y214D01*
X297Y214D02*
X298Y214D01*
X304Y214D02*
X306Y214D01*
X310Y214D02*
X311Y214D01*
X320Y214D02*
X321Y214D01*
X325Y214D02*
X327Y214D01*
X336Y214D02*
X337Y214D01*
X341Y214D02*
X342Y214D01*
X275Y213D02*
X277Y213D01*
X291Y213D02*
X292Y213D01*
X297Y213D02*
X298Y213D01*
X305Y213D02*
X306Y213D01*
X310Y213D02*
X311Y213D01*
X320Y213D02*
X321Y213D01*
X325Y213D02*
X327Y213D01*
X336Y213D02*
X343Y213D01*
X274Y212D02*
X276Y212D01*
X290Y212D02*
X292Y212D01*
X297Y212D02*
X298Y212D01*
X305Y212D02*
X307Y212D01*
X310Y212D02*
X311Y212D01*
X321Y212D02*
X322Y212D01*
X325Y212D02*
X327Y212D01*
X335Y212D02*
X343Y212D01*
X274Y211D02*
X275Y211D01*
X282Y211D02*
X283Y211D01*
X290Y211D02*
X291Y211D01*
X297Y211D02*
X298Y211D01*
X306Y211D02*
X307Y211D01*
X310Y211D02*
X311Y211D01*
X321Y211D02*
X323Y211D01*
X325Y211D02*
X327Y211D01*
X335Y211D02*
X336Y211D01*
X342Y211D02*
X343Y211D01*
X273Y210D02*
X275Y210D01*
X281Y210D02*
X283Y210D01*
X289Y210D02*
X291Y210D01*
X297Y210D02*
X298Y210D01*
X306Y210D02*
X308Y210D01*
X310Y210D02*
X312Y210D01*
X322Y210D02*
X327Y210D01*
X335Y210D02*
X336Y210D01*
X342Y210D02*
X344Y210D01*
X274Y209D02*
X282Y209D01*
X289Y209D02*
X290Y209D01*
X297Y209D02*
X298Y209D01*
X307Y209D02*
X313Y209D01*
X322Y209D02*
X329Y209D01*
X335Y209D02*
X336Y209D01*
X343Y209D02*
X344Y209D01*
X275Y208D02*
X281Y208D01*
X289Y208D02*
X289Y208D01*
X308Y208D02*
X313Y208D01*
X324Y208D02*
X328Y208D01*
X335Y208D02*
X335Y208D01*
X343Y208D02*
X343Y208D01*
X274Y199D02*
X276Y199D01*
X341Y199D02*
X343Y199D01*
X272Y198D02*
X276Y198D01*
X341Y198D02*
X345Y198D01*
X270Y197D02*
X276Y197D01*
X340Y197D02*
X346Y197D01*
X269Y196D02*
X276Y196D01*
X340Y196D02*
X347Y196D01*
X268Y195D02*
X276Y195D01*
X340Y195D02*
X348Y195D01*
X268Y194D02*
X277Y194D01*
X340Y194D02*
X349Y194D01*
X267Y193D02*
X277Y193D01*
X340Y193D02*
X349Y193D01*
X267Y192D02*
X277Y192D01*
X340Y192D02*
X350Y192D01*
X266Y191D02*
X275Y191D01*
X342Y191D02*
X350Y191D01*
X266Y190D02*
X274Y190D01*
X343Y190D02*
X351Y190D01*
X266Y189D02*
X273Y189D01*
X344Y189D02*
X351Y189D01*
X265Y188D02*
X273Y188D01*
X344Y188D02*
X351Y188D01*
X265Y187D02*
X272Y187D01*
X344Y187D02*
X351Y187D01*
X265Y186D02*
X272Y186D01*
X344Y186D02*
X351Y186D01*
X265Y185D02*
X272Y185D01*
X345Y185D02*
X351Y185D01*
X265Y184D02*
X267Y184D01*
X349Y184D02*
X351Y184D01*
X265Y129D02*
X269Y129D01*
X348Y129D02*
X351Y129D01*
X265Y128D02*
X272Y128D01*
X344Y128D02*
X351Y128D01*
X265Y127D02*
X272Y127D01*
X344Y127D02*
X351Y127D01*
X265Y126D02*
X272Y126D01*
X344Y126D02*
X351Y126D01*
X265Y125D02*
X273Y125D01*
X344Y125D02*
X351Y125D01*
X266Y124D02*
X273Y124D01*
X343Y124D02*
X351Y124D01*
X266Y123D02*
X274Y123D01*
X343Y123D02*
X351Y123D01*
X266Y122D02*
X275Y122D01*
X342Y122D02*
X350Y122D01*
X267Y121D02*
X277Y121D01*
X340Y121D02*
X350Y121D01*
X267Y120D02*
X277Y120D01*
X340Y120D02*
X349Y120D01*
X268Y119D02*
X277Y119D01*
X340Y119D02*
X349Y119D01*
X269Y118D02*
X276Y118D01*
X340Y118D02*
X348Y118D01*
X270Y117D02*
X276Y117D01*
X340Y117D02*
X347Y117D01*
X271Y116D02*
X276Y116D01*
X340Y116D02*
X346Y116D01*
X272Y115D02*
X276Y115D01*
X341Y115D02*
X344Y115D01*
X274Y114D02*
X276Y114D01*
X341Y114D02*
X342Y114D01*
D02*
G04 End of Silk0*
M02*