G04 MADE WITH FRITZING*
G04 WWW.FRITZING.ORG*
G04 DOUBLE SIDED*
G04 HOLES PLATED*
G04 CONTOUR ON CENTER OF CONTOUR VECTOR*
%ASAXBY*%
%FSLAX23Y23*%
%MOIN*%
%OFA0B0*%
%SFA1.0B1.0*%
%ADD10C,0.008000*%
%ADD11R,0.001000X0.001000*%
%LNSILK0*%
G90*
G70*
G54D10*
X291Y654D02*
X228Y654D01*
D02*
X228Y575D02*
X291Y575D01*
D02*
X291Y554D02*
X228Y554D01*
D02*
X228Y475D02*
X291Y475D01*
D02*
X291Y455D02*
X228Y455D01*
D02*
X228Y377D02*
X291Y377D01*
D02*
X277Y117D02*
X340Y117D01*
D02*
X340Y196D02*
X277Y196D01*
G36*
X459Y748D02*
X459Y723D01*
X458Y723D01*
X458Y681D01*
X457Y681D01*
X457Y640D01*
X456Y640D01*
X456Y622D01*
X456Y622D01*
X456Y623D01*
X455Y623D01*
X455Y623D01*
X454Y623D01*
X454Y624D01*
X453Y624D01*
X453Y625D01*
X452Y625D01*
X452Y626D01*
X451Y626D01*
X451Y626D01*
X450Y626D01*
X450Y627D01*
X449Y627D01*
X449Y628D01*
X449Y628D01*
X449Y629D01*
X448Y629D01*
X448Y630D01*
X447Y630D01*
X447Y630D01*
X446Y630D01*
X446Y631D01*
X446Y631D01*
X446Y632D01*
X445Y632D01*
X445Y633D01*
X444Y633D01*
X444Y633D01*
X443Y633D01*
X443Y634D01*
X442Y634D01*
X442Y635D01*
X442Y635D01*
X442Y636D01*
X441Y636D01*
X441Y637D01*
X439Y637D01*
X439Y637D01*
X439Y637D01*
X439Y638D01*
X438Y638D01*
X438Y639D01*
X437Y639D01*
X437Y640D01*
X436Y640D01*
X436Y640D01*
X435Y640D01*
X435Y641D01*
X435Y641D01*
X435Y642D01*
X434Y642D01*
X434Y643D01*
X433Y643D01*
X433Y644D01*
X432Y644D01*
X432Y644D01*
X431Y644D01*
X431Y645D01*
X430Y645D01*
X430Y646D01*
X429Y646D01*
X429Y647D01*
X428Y647D01*
X428Y647D01*
X428Y647D01*
X428Y648D01*
X427Y648D01*
X427Y649D01*
X426Y649D01*
X426Y650D01*
X425Y650D01*
X425Y651D01*
X425Y651D01*
X425Y651D01*
X424Y651D01*
X424Y652D01*
X423Y652D01*
X423Y653D01*
X422Y653D01*
X422Y654D01*
X421Y654D01*
X421Y654D01*
X421Y654D01*
X421Y655D01*
X420Y655D01*
X420Y656D01*
X419Y656D01*
X419Y657D01*
X418Y657D01*
X418Y658D01*
X418Y658D01*
X418Y658D01*
X416Y658D01*
X416Y659D01*
X415Y659D01*
X415Y660D01*
X414Y660D01*
X414Y661D01*
X414Y661D01*
X414Y661D01*
X413Y661D01*
X413Y662D01*
X412Y662D01*
X412Y663D01*
X411Y663D01*
X411Y664D01*
X411Y664D01*
X411Y665D01*
X410Y665D01*
X410Y665D01*
X408Y665D01*
X408Y666D01*
X407Y666D01*
X407Y667D01*
X407Y667D01*
X407Y668D01*
X406Y668D01*
X406Y668D01*
X405Y668D01*
X405Y669D01*
X404Y669D01*
X404Y670D01*
X404Y670D01*
X404Y671D01*
X403Y671D01*
X403Y672D01*
X402Y672D01*
X402Y672D01*
X401Y672D01*
X401Y673D01*
X400Y673D01*
X400Y674D01*
X400Y674D01*
X400Y675D01*
X399Y675D01*
X399Y675D01*
X398Y675D01*
X398Y676D01*
X397Y676D01*
X397Y677D01*
X397Y677D01*
X397Y678D01*
X396Y678D01*
X396Y679D01*
X394Y679D01*
X394Y679D01*
X393Y679D01*
X393Y680D01*
X393Y680D01*
X393Y681D01*
X392Y681D01*
X392Y682D01*
X391Y682D01*
X391Y682D01*
X390Y682D01*
X390Y683D01*
X390Y683D01*
X390Y684D01*
X389Y684D01*
X389Y685D01*
X388Y685D01*
X388Y685D01*
X386Y685D01*
X386Y686D01*
X386Y686D01*
X386Y687D01*
X385Y687D01*
X385Y688D01*
X384Y688D01*
X384Y689D01*
X383Y689D01*
X383Y689D01*
X383Y689D01*
X383Y690D01*
X382Y690D01*
X382Y691D01*
X381Y691D01*
X381Y692D01*
X380Y692D01*
X380Y692D01*
X379Y692D01*
X379Y693D01*
X379Y693D01*
X379Y694D01*
X378Y694D01*
X378Y695D01*
X377Y695D01*
X377Y696D01*
X376Y696D01*
X376Y696D01*
X376Y696D01*
X376Y697D01*
X375Y697D01*
X375Y698D01*
X374Y698D01*
X374Y699D01*
X373Y699D01*
X373Y699D01*
X372Y699D01*
X372Y700D01*
X371Y700D01*
X371Y701D01*
X370Y701D01*
X370Y702D01*
X369Y702D01*
X369Y703D01*
X369Y703D01*
X369Y703D01*
X368Y703D01*
X368Y704D01*
X367Y704D01*
X367Y705D01*
X366Y705D01*
X366Y706D01*
X365Y706D01*
X365Y706D01*
X365Y706D01*
X365Y707D01*
X363Y707D01*
X363Y708D01*
X362Y708D01*
X362Y709D01*
X362Y709D01*
X362Y710D01*
X361Y710D01*
X361Y710D01*
X360Y710D01*
X360Y711D01*
X359Y711D01*
X359Y712D01*
X358Y712D01*
X358Y713D01*
X358Y713D01*
X358Y713D01*
X357Y713D01*
X357Y714D01*
X356Y714D01*
X356Y715D01*
X355Y715D01*
X355Y716D01*
X355Y716D01*
X355Y717D01*
X354Y717D01*
X354Y717D01*
X353Y717D01*
X353Y718D01*
X352Y718D01*
X352Y719D01*
X351Y719D01*
X351Y720D01*
X351Y720D01*
X351Y720D01*
X349Y720D01*
X349Y721D01*
X348Y721D01*
X348Y722D01*
X348Y722D01*
X348Y723D01*
X347Y723D01*
X347Y724D01*
X346Y724D01*
X346Y724D01*
X345Y724D01*
X345Y725D01*
X345Y725D01*
X345Y726D01*
X344Y726D01*
X344Y727D01*
X343Y727D01*
X343Y727D01*
X342Y727D01*
X342Y728D01*
X341Y728D01*
X341Y729D01*
X340Y729D01*
X340Y730D01*
X339Y730D01*
X339Y731D01*
X338Y731D01*
X338Y731D01*
X338Y731D01*
X338Y732D01*
X337Y732D01*
X337Y733D01*
X336Y733D01*
X336Y734D01*
X335Y734D01*
X335Y734D01*
X334Y734D01*
X334Y735D01*
X334Y735D01*
X334Y736D01*
X333Y736D01*
X333Y737D01*
X332Y737D01*
X332Y738D01*
X331Y738D01*
X331Y738D01*
X331Y738D01*
X331Y739D01*
X330Y739D01*
X330Y740D01*
X329Y740D01*
X329Y741D01*
X327Y741D01*
X327Y741D01*
X327Y741D01*
X327Y742D01*
X326Y742D01*
X326Y743D01*
X325Y743D01*
X325Y744D01*
X324Y744D01*
X324Y745D01*
X324Y745D01*
X324Y745D01*
X323Y745D01*
X323Y746D01*
X324Y746D01*
X324Y747D01*
X340Y747D01*
X340Y748D01*
X459Y748D01*
G37*
D02*
G36*
X323Y747D02*
X323Y746D01*
X322Y746D01*
X322Y747D01*
X323Y747D01*
G37*
D02*
G36*
X315Y745D02*
X315Y745D01*
X316Y745D01*
X316Y744D01*
X317Y744D01*
X317Y743D01*
X317Y743D01*
X317Y742D01*
X318Y742D01*
X318Y741D01*
X319Y741D01*
X319Y741D01*
X320Y741D01*
X320Y740D01*
X321Y740D01*
X321Y739D01*
X322Y739D01*
X322Y738D01*
X323Y738D01*
X323Y738D01*
X324Y738D01*
X324Y737D01*
X324Y737D01*
X324Y736D01*
X325Y736D01*
X325Y735D01*
X326Y735D01*
X326Y734D01*
X327Y734D01*
X327Y734D01*
X327Y734D01*
X327Y733D01*
X328Y733D01*
X328Y732D01*
X329Y732D01*
X329Y731D01*
X330Y731D01*
X330Y731D01*
X331Y731D01*
X331Y730D01*
X331Y730D01*
X331Y729D01*
X332Y729D01*
X332Y728D01*
X333Y728D01*
X333Y727D01*
X334Y727D01*
X334Y727D01*
X334Y727D01*
X334Y726D01*
X336Y726D01*
X336Y725D01*
X337Y725D01*
X337Y724D01*
X338Y724D01*
X338Y724D01*
X338Y724D01*
X338Y723D01*
X339Y723D01*
X339Y722D01*
X340Y722D01*
X340Y721D01*
X341Y721D01*
X341Y720D01*
X341Y720D01*
X341Y720D01*
X342Y720D01*
X342Y719D01*
X344Y719D01*
X344Y718D01*
X345Y718D01*
X345Y717D01*
X345Y717D01*
X345Y717D01*
X346Y717D01*
X346Y716D01*
X347Y716D01*
X347Y715D01*
X348Y715D01*
X348Y714D01*
X348Y714D01*
X348Y713D01*
X349Y713D01*
X349Y713D01*
X350Y713D01*
X350Y712D01*
X351Y712D01*
X351Y711D01*
X351Y711D01*
X351Y710D01*
X352Y710D01*
X352Y710D01*
X353Y710D01*
X353Y709D01*
X354Y709D01*
X354Y708D01*
X355Y708D01*
X355Y707D01*
X355Y707D01*
X355Y706D01*
X356Y706D01*
X356Y706D01*
X358Y706D01*
X358Y705D01*
X358Y705D01*
X358Y704D01*
X359Y704D01*
X359Y703D01*
X360Y703D01*
X360Y703D01*
X361Y703D01*
X361Y702D01*
X362Y702D01*
X362Y701D01*
X362Y701D01*
X362Y700D01*
X363Y700D01*
X363Y699D01*
X364Y699D01*
X364Y699D01*
X365Y699D01*
X365Y698D01*
X366Y698D01*
X366Y697D01*
X367Y697D01*
X367Y696D01*
X368Y696D01*
X368Y696D01*
X369Y696D01*
X369Y695D01*
X369Y695D01*
X369Y694D01*
X370Y694D01*
X370Y693D01*
X371Y693D01*
X371Y692D01*
X372Y692D01*
X372Y692D01*
X372Y692D01*
X372Y691D01*
X373Y691D01*
X373Y690D01*
X374Y690D01*
X374Y689D01*
X375Y689D01*
X375Y689D01*
X376Y689D01*
X376Y688D01*
X376Y688D01*
X376Y687D01*
X377Y687D01*
X377Y686D01*
X378Y686D01*
X378Y685D01*
X379Y685D01*
X379Y685D01*
X380Y685D01*
X380Y684D01*
X381Y684D01*
X381Y683D01*
X335Y683D01*
X335Y682D01*
X330Y682D01*
X330Y682D01*
X325Y682D01*
X325Y681D01*
X321Y681D01*
X321Y680D01*
X318Y680D01*
X318Y679D01*
X314Y679D01*
X314Y679D01*
X312Y679D01*
X312Y678D01*
X310Y678D01*
X310Y677D01*
X306Y677D01*
X306Y678D01*
X305Y678D01*
X305Y679D01*
X303Y679D01*
X303Y679D01*
X299Y679D01*
X299Y680D01*
X298Y680D01*
X298Y681D01*
X296Y681D01*
X296Y682D01*
X294Y682D01*
X294Y682D01*
X292Y682D01*
X292Y683D01*
X290Y683D01*
X290Y684D01*
X289Y684D01*
X289Y685D01*
X286Y685D01*
X286Y685D01*
X284Y685D01*
X284Y686D01*
X282Y686D01*
X282Y687D01*
X279Y687D01*
X279Y688D01*
X278Y688D01*
X278Y689D01*
X275Y689D01*
X275Y689D01*
X274Y689D01*
X274Y690D01*
X272Y690D01*
X272Y691D01*
X270Y691D01*
X270Y692D01*
X268Y692D01*
X268Y692D01*
X265Y692D01*
X265Y693D01*
X264Y693D01*
X264Y694D01*
X261Y694D01*
X261Y695D01*
X260Y695D01*
X260Y696D01*
X257Y696D01*
X257Y696D01*
X256Y696D01*
X256Y697D01*
X254Y697D01*
X254Y698D01*
X252Y698D01*
X252Y699D01*
X250Y699D01*
X250Y699D01*
X247Y699D01*
X247Y700D01*
X245Y700D01*
X245Y701D01*
X243Y701D01*
X243Y702D01*
X241Y702D01*
X241Y703D01*
X240Y703D01*
X240Y703D01*
X237Y703D01*
X237Y704D01*
X236Y704D01*
X236Y705D01*
X234Y705D01*
X234Y706D01*
X232Y706D01*
X232Y706D01*
X229Y706D01*
X229Y707D01*
X227Y707D01*
X227Y708D01*
X225Y708D01*
X225Y709D01*
X223Y709D01*
X223Y710D01*
X224Y710D01*
X224Y710D01*
X225Y710D01*
X225Y711D01*
X226Y711D01*
X226Y712D01*
X227Y712D01*
X227Y713D01*
X229Y713D01*
X229Y713D01*
X230Y713D01*
X230Y714D01*
X230Y714D01*
X230Y715D01*
X232Y715D01*
X232Y716D01*
X233Y716D01*
X233Y717D01*
X234Y717D01*
X234Y717D01*
X235Y717D01*
X235Y718D01*
X236Y718D01*
X236Y719D01*
X238Y719D01*
X238Y720D01*
X239Y720D01*
X239Y720D01*
X240Y720D01*
X240Y721D01*
X241Y721D01*
X241Y722D01*
X243Y722D01*
X243Y723D01*
X244Y723D01*
X244Y724D01*
X245Y724D01*
X245Y724D01*
X247Y724D01*
X247Y725D01*
X248Y725D01*
X248Y726D01*
X250Y726D01*
X250Y727D01*
X252Y727D01*
X252Y727D01*
X254Y727D01*
X254Y728D01*
X255Y728D01*
X255Y729D01*
X257Y729D01*
X257Y730D01*
X258Y730D01*
X258Y731D01*
X260Y731D01*
X260Y731D01*
X261Y731D01*
X261Y732D01*
X264Y732D01*
X264Y733D01*
X267Y733D01*
X267Y734D01*
X268Y734D01*
X268Y734D01*
X271Y734D01*
X271Y735D01*
X272Y735D01*
X272Y736D01*
X275Y736D01*
X275Y737D01*
X277Y737D01*
X277Y738D01*
X279Y738D01*
X279Y738D01*
X282Y738D01*
X282Y739D01*
X285Y739D01*
X285Y740D01*
X289Y740D01*
X289Y741D01*
X292Y741D01*
X292Y741D01*
X296Y741D01*
X296Y742D01*
X299Y742D01*
X299Y743D01*
X303Y743D01*
X303Y744D01*
X306Y744D01*
X306Y745D01*
X311Y745D01*
X311Y745D01*
X315Y745D01*
G37*
D02*
G36*
X382Y683D02*
X382Y682D01*
X383Y682D01*
X383Y682D01*
X383Y682D01*
X383Y681D01*
X384Y681D01*
X384Y680D01*
X385Y680D01*
X385Y679D01*
X386Y679D01*
X386Y679D01*
X386Y679D01*
X386Y678D01*
X387Y678D01*
X387Y677D01*
X389Y677D01*
X389Y676D01*
X390Y676D01*
X390Y675D01*
X390Y675D01*
X390Y675D01*
X391Y675D01*
X391Y674D01*
X392Y674D01*
X392Y673D01*
X393Y673D01*
X393Y672D01*
X393Y672D01*
X393Y672D01*
X394Y672D01*
X394Y671D01*
X395Y671D01*
X395Y670D01*
X396Y670D01*
X396Y669D01*
X397Y669D01*
X397Y668D01*
X397Y668D01*
X397Y668D01*
X398Y668D01*
X398Y667D01*
X399Y667D01*
X399Y666D01*
X400Y666D01*
X400Y665D01*
X400Y665D01*
X400Y665D01*
X402Y665D01*
X402Y664D01*
X403Y664D01*
X403Y663D01*
X404Y663D01*
X404Y662D01*
X404Y662D01*
X404Y661D01*
X405Y661D01*
X405Y661D01*
X406Y661D01*
X406Y660D01*
X407Y660D01*
X407Y659D01*
X407Y659D01*
X407Y658D01*
X408Y658D01*
X408Y658D01*
X409Y658D01*
X409Y657D01*
X410Y657D01*
X410Y656D01*
X411Y656D01*
X411Y655D01*
X411Y655D01*
X411Y654D01*
X413Y654D01*
X413Y653D01*
X414Y653D01*
X414Y652D01*
X414Y652D01*
X414Y651D01*
X416Y651D01*
X416Y651D01*
X417Y651D01*
X417Y650D01*
X418Y650D01*
X418Y649D01*
X418Y649D01*
X418Y648D01*
X419Y648D01*
X419Y647D01*
X420Y647D01*
X420Y647D01*
X421Y647D01*
X421Y646D01*
X421Y646D01*
X421Y645D01*
X422Y645D01*
X422Y644D01*
X423Y644D01*
X423Y644D01*
X425Y644D01*
X425Y643D01*
X425Y643D01*
X425Y642D01*
X426Y642D01*
X426Y641D01*
X427Y641D01*
X427Y640D01*
X428Y640D01*
X428Y640D01*
X428Y640D01*
X428Y639D01*
X429Y639D01*
X429Y638D01*
X430Y638D01*
X430Y637D01*
X431Y637D01*
X431Y637D01*
X432Y637D01*
X432Y636D01*
X432Y636D01*
X432Y635D01*
X433Y635D01*
X433Y634D01*
X434Y634D01*
X434Y633D01*
X435Y633D01*
X435Y633D01*
X435Y633D01*
X435Y632D01*
X436Y632D01*
X436Y631D01*
X437Y631D01*
X437Y630D01*
X439Y630D01*
X439Y630D01*
X439Y630D01*
X439Y629D01*
X440Y629D01*
X440Y628D01*
X441Y628D01*
X441Y627D01*
X442Y627D01*
X442Y626D01*
X442Y626D01*
X442Y626D01*
X443Y626D01*
X443Y625D01*
X444Y625D01*
X444Y624D01*
X442Y624D01*
X442Y625D01*
X441Y625D01*
X441Y626D01*
X439Y626D01*
X439Y626D01*
X437Y626D01*
X437Y627D01*
X435Y627D01*
X435Y628D01*
X433Y628D01*
X433Y629D01*
X432Y629D01*
X432Y630D01*
X429Y630D01*
X429Y630D01*
X427Y630D01*
X427Y631D01*
X425Y631D01*
X425Y632D01*
X422Y632D01*
X422Y633D01*
X421Y633D01*
X421Y633D01*
X418Y633D01*
X418Y634D01*
X417Y634D01*
X417Y635D01*
X414Y635D01*
X414Y636D01*
X413Y636D01*
X413Y637D01*
X411Y637D01*
X411Y637D01*
X409Y637D01*
X409Y638D01*
X407Y638D01*
X407Y639D01*
X404Y639D01*
X404Y640D01*
X402Y640D01*
X402Y640D01*
X400Y640D01*
X400Y641D01*
X399Y641D01*
X399Y642D01*
X397Y642D01*
X397Y643D01*
X395Y643D01*
X395Y644D01*
X393Y644D01*
X393Y644D01*
X390Y644D01*
X390Y645D01*
X388Y645D01*
X388Y646D01*
X386Y646D01*
X386Y647D01*
X384Y647D01*
X384Y647D01*
X383Y647D01*
X383Y648D01*
X380Y648D01*
X380Y649D01*
X379Y649D01*
X379Y650D01*
X378Y650D01*
X378Y661D01*
X379Y661D01*
X379Y683D01*
X382Y683D01*
G37*
D02*
G36*
X709Y748D02*
X709Y748D01*
X710Y748D01*
X710Y746D01*
X710Y746D01*
X710Y745D01*
X711Y745D01*
X711Y743D01*
X712Y743D01*
X712Y741D01*
X713Y741D01*
X713Y740D01*
X714Y740D01*
X714Y738D01*
X714Y738D01*
X714Y737D01*
X715Y737D01*
X715Y735D01*
X716Y735D01*
X716Y733D01*
X717Y733D01*
X717Y731D01*
X717Y731D01*
X717Y731D01*
X718Y731D01*
X718Y730D01*
X551Y730D01*
X551Y729D01*
X547Y729D01*
X547Y728D01*
X544Y728D01*
X544Y727D01*
X540Y727D01*
X540Y727D01*
X538Y727D01*
X538Y726D01*
X536Y726D01*
X536Y725D01*
X534Y725D01*
X534Y724D01*
X533Y724D01*
X533Y724D01*
X531Y724D01*
X531Y723D01*
X529Y723D01*
X529Y722D01*
X528Y722D01*
X528Y721D01*
X526Y721D01*
X526Y720D01*
X525Y720D01*
X525Y720D01*
X523Y720D01*
X523Y719D01*
X522Y719D01*
X522Y718D01*
X521Y718D01*
X521Y717D01*
X520Y717D01*
X520Y717D01*
X519Y717D01*
X519Y716D01*
X518Y716D01*
X518Y715D01*
X517Y715D01*
X517Y714D01*
X515Y714D01*
X515Y713D01*
X515Y713D01*
X515Y713D01*
X514Y713D01*
X514Y712D01*
X513Y712D01*
X513Y711D01*
X512Y711D01*
X512Y710D01*
X512Y710D01*
X512Y709D01*
X511Y709D01*
X511Y708D01*
X510Y708D01*
X510Y707D01*
X509Y707D01*
X509Y706D01*
X508Y706D01*
X508Y705D01*
X508Y705D01*
X508Y704D01*
X507Y704D01*
X507Y703D01*
X506Y703D01*
X506Y701D01*
X505Y701D01*
X505Y699D01*
X505Y699D01*
X505Y698D01*
X504Y698D01*
X504Y696D01*
X503Y696D01*
X503Y693D01*
X502Y693D01*
X502Y690D01*
X501Y690D01*
X501Y674D01*
X502Y674D01*
X502Y670D01*
X503Y670D01*
X503Y667D01*
X504Y667D01*
X504Y665D01*
X505Y665D01*
X505Y662D01*
X505Y662D01*
X505Y660D01*
X506Y660D01*
X506Y658D01*
X507Y658D01*
X507Y656D01*
X508Y656D01*
X508Y654D01*
X508Y654D01*
X508Y652D01*
X509Y652D01*
X509Y651D01*
X510Y651D01*
X510Y648D01*
X511Y648D01*
X511Y647D01*
X512Y647D01*
X512Y645D01*
X512Y645D01*
X512Y644D01*
X513Y644D01*
X513Y642D01*
X514Y642D01*
X514Y640D01*
X515Y640D01*
X515Y639D01*
X515Y639D01*
X515Y638D01*
X516Y638D01*
X516Y637D01*
X517Y637D01*
X517Y636D01*
X518Y636D01*
X518Y634D01*
X519Y634D01*
X519Y633D01*
X519Y633D01*
X519Y632D01*
X520Y632D01*
X520Y630D01*
X521Y630D01*
X521Y630D01*
X522Y630D01*
X522Y628D01*
X522Y628D01*
X522Y627D01*
X523Y627D01*
X523Y626D01*
X524Y626D01*
X524Y625D01*
X525Y625D01*
X525Y623D01*
X526Y623D01*
X526Y623D01*
X526Y623D01*
X526Y622D01*
X527Y622D01*
X527Y621D01*
X528Y621D01*
X528Y619D01*
X529Y619D01*
X529Y619D01*
X529Y619D01*
X529Y618D01*
X530Y618D01*
X530Y616D01*
X531Y616D01*
X531Y616D01*
X532Y616D01*
X532Y615D01*
X533Y615D01*
X533Y614D01*
X533Y614D01*
X533Y613D01*
X534Y613D01*
X534Y612D01*
X535Y612D01*
X535Y612D01*
X536Y612D01*
X536Y610D01*
X536Y610D01*
X536Y609D01*
X537Y609D01*
X537Y609D01*
X538Y609D01*
X538Y608D01*
X539Y608D01*
X539Y607D01*
X540Y607D01*
X540Y606D01*
X540Y606D01*
X540Y605D01*
X541Y605D01*
X541Y605D01*
X542Y605D01*
X542Y604D01*
X543Y604D01*
X543Y603D01*
X543Y603D01*
X543Y602D01*
X545Y602D01*
X545Y602D01*
X546Y602D01*
X546Y601D01*
X547Y601D01*
X547Y600D01*
X547Y600D01*
X547Y599D01*
X548Y599D01*
X548Y598D01*
X549Y598D01*
X549Y598D01*
X550Y598D01*
X550Y597D01*
X551Y597D01*
X551Y596D01*
X552Y596D01*
X552Y595D01*
X553Y595D01*
X553Y595D01*
X554Y595D01*
X554Y594D01*
X555Y594D01*
X555Y593D01*
X556Y593D01*
X556Y592D01*
X557Y592D01*
X557Y591D01*
X558Y591D01*
X558Y591D01*
X559Y591D01*
X559Y590D01*
X560Y590D01*
X560Y589D01*
X561Y589D01*
X561Y588D01*
X563Y588D01*
X563Y588D01*
X564Y588D01*
X564Y587D01*
X565Y587D01*
X565Y586D01*
X566Y586D01*
X566Y585D01*
X568Y585D01*
X568Y584D01*
X568Y584D01*
X568Y584D01*
X570Y584D01*
X570Y583D01*
X571Y583D01*
X571Y582D01*
X572Y582D01*
X572Y581D01*
X574Y581D01*
X574Y581D01*
X575Y581D01*
X575Y580D01*
X577Y580D01*
X577Y579D01*
X578Y579D01*
X578Y578D01*
X580Y578D01*
X580Y577D01*
X582Y577D01*
X582Y577D01*
X582Y577D01*
X582Y576D01*
X584Y576D01*
X584Y575D01*
X585Y575D01*
X585Y574D01*
X588Y574D01*
X588Y574D01*
X588Y574D01*
X588Y573D01*
X590Y573D01*
X590Y572D01*
X592Y572D01*
X592Y571D01*
X593Y571D01*
X593Y570D01*
X595Y570D01*
X595Y570D01*
X596Y570D01*
X596Y569D01*
X598Y569D01*
X598Y568D01*
X600Y568D01*
X600Y567D01*
X602Y567D01*
X602Y567D01*
X605Y567D01*
X605Y566D01*
X606Y566D01*
X606Y565D01*
X609Y565D01*
X609Y564D01*
X610Y564D01*
X610Y564D01*
X612Y564D01*
X612Y563D01*
X614Y563D01*
X614Y562D01*
X616Y562D01*
X616Y561D01*
X619Y561D01*
X619Y560D01*
X621Y560D01*
X621Y560D01*
X623Y560D01*
X623Y559D01*
X626Y559D01*
X626Y558D01*
X628Y558D01*
X628Y557D01*
X630Y557D01*
X630Y557D01*
X632Y557D01*
X632Y556D01*
X634Y556D01*
X634Y555D01*
X637Y555D01*
X637Y554D01*
X639Y554D01*
X639Y553D01*
X602Y553D01*
X602Y554D01*
X600Y554D01*
X600Y555D01*
X598Y555D01*
X598Y556D01*
X595Y556D01*
X595Y557D01*
X593Y557D01*
X593Y557D01*
X592Y557D01*
X592Y558D01*
X589Y558D01*
X589Y559D01*
X588Y559D01*
X588Y560D01*
X586Y560D01*
X586Y560D01*
X585Y560D01*
X585Y561D01*
X583Y561D01*
X583Y562D01*
X580Y562D01*
X580Y563D01*
X578Y563D01*
X578Y564D01*
X577Y564D01*
X577Y564D01*
X575Y564D01*
X575Y565D01*
X574Y565D01*
X574Y566D01*
X572Y566D01*
X572Y567D01*
X571Y567D01*
X571Y567D01*
X569Y567D01*
X569Y568D01*
X568Y568D01*
X568Y569D01*
X566Y569D01*
X566Y570D01*
X564Y570D01*
X564Y570D01*
X563Y570D01*
X563Y571D01*
X561Y571D01*
X561Y572D01*
X560Y572D01*
X560Y573D01*
X558Y573D01*
X558Y574D01*
X557Y574D01*
X557Y574D01*
X556Y574D01*
X556Y575D01*
X554Y575D01*
X554Y576D01*
X553Y576D01*
X553Y577D01*
X551Y577D01*
X551Y577D01*
X550Y577D01*
X550Y578D01*
X549Y578D01*
X549Y579D01*
X548Y579D01*
X548Y580D01*
X547Y580D01*
X547Y581D01*
X546Y581D01*
X546Y581D01*
X544Y581D01*
X544Y582D01*
X543Y582D01*
X543Y583D01*
X541Y583D01*
X541Y584D01*
X540Y584D01*
X540Y584D01*
X539Y584D01*
X539Y585D01*
X538Y585D01*
X538Y586D01*
X537Y586D01*
X537Y587D01*
X536Y587D01*
X536Y588D01*
X535Y588D01*
X535Y588D01*
X534Y588D01*
X534Y589D01*
X533Y589D01*
X533Y590D01*
X531Y590D01*
X531Y591D01*
X530Y591D01*
X530Y591D01*
X529Y591D01*
X529Y592D01*
X528Y592D01*
X528Y593D01*
X527Y593D01*
X527Y594D01*
X526Y594D01*
X526Y595D01*
X526Y595D01*
X526Y595D01*
X525Y595D01*
X525Y596D01*
X523Y596D01*
X523Y597D01*
X522Y597D01*
X522Y598D01*
X522Y598D01*
X522Y598D01*
X520Y598D01*
X520Y599D01*
X519Y599D01*
X519Y600D01*
X519Y600D01*
X519Y601D01*
X518Y601D01*
X518Y602D01*
X517Y602D01*
X517Y602D01*
X516Y602D01*
X516Y603D01*
X515Y603D01*
X515Y604D01*
X514Y604D01*
X514Y605D01*
X513Y605D01*
X513Y605D01*
X512Y605D01*
X512Y606D01*
X512Y606D01*
X512Y607D01*
X511Y607D01*
X511Y608D01*
X510Y608D01*
X510Y609D01*
X509Y609D01*
X509Y610D01*
X508Y610D01*
X508Y611D01*
X508Y611D01*
X508Y612D01*
X507Y612D01*
X507Y612D01*
X506Y612D01*
X506Y613D01*
X505Y613D01*
X505Y614D01*
X505Y614D01*
X505Y615D01*
X504Y615D01*
X504Y616D01*
X503Y616D01*
X503Y617D01*
X501Y617D01*
X501Y619D01*
X501Y619D01*
X501Y619D01*
X500Y619D01*
X500Y620D01*
X499Y620D01*
X499Y622D01*
X498Y622D01*
X498Y623D01*
X498Y623D01*
X498Y623D01*
X497Y623D01*
X497Y624D01*
X496Y624D01*
X496Y626D01*
X495Y626D01*
X495Y626D01*
X494Y626D01*
X494Y628D01*
X494Y628D01*
X494Y629D01*
X493Y629D01*
X493Y630D01*
X492Y630D01*
X492Y631D01*
X491Y631D01*
X491Y633D01*
X491Y633D01*
X491Y634D01*
X490Y634D01*
X490Y636D01*
X489Y636D01*
X489Y637D01*
X488Y637D01*
X488Y639D01*
X487Y639D01*
X487Y640D01*
X487Y640D01*
X487Y642D01*
X486Y642D01*
X486Y644D01*
X485Y644D01*
X485Y645D01*
X484Y645D01*
X484Y647D01*
X484Y647D01*
X484Y649D01*
X483Y649D01*
X483Y651D01*
X482Y651D01*
X482Y654D01*
X481Y654D01*
X481Y656D01*
X480Y656D01*
X480Y659D01*
X480Y659D01*
X480Y662D01*
X479Y662D01*
X479Y665D01*
X478Y665D01*
X478Y671D01*
X477Y671D01*
X477Y679D01*
X477Y679D01*
X477Y689D01*
X477Y689D01*
X477Y698D01*
X478Y698D01*
X478Y702D01*
X479Y702D01*
X479Y706D01*
X480Y706D01*
X480Y708D01*
X480Y708D01*
X480Y710D01*
X481Y710D01*
X481Y713D01*
X482Y713D01*
X482Y714D01*
X483Y714D01*
X483Y717D01*
X484Y717D01*
X484Y718D01*
X484Y718D01*
X484Y720D01*
X485Y720D01*
X485Y720D01*
X486Y720D01*
X486Y722D01*
X487Y722D01*
X487Y723D01*
X487Y723D01*
X487Y724D01*
X488Y724D01*
X488Y725D01*
X489Y725D01*
X489Y727D01*
X490Y727D01*
X490Y727D01*
X491Y727D01*
X491Y728D01*
X491Y728D01*
X491Y730D01*
X492Y730D01*
X492Y731D01*
X493Y731D01*
X493Y731D01*
X494Y731D01*
X494Y732D01*
X494Y732D01*
X494Y733D01*
X496Y733D01*
X496Y734D01*
X497Y734D01*
X497Y734D01*
X498Y734D01*
X498Y735D01*
X499Y735D01*
X499Y736D01*
X500Y736D01*
X500Y737D01*
X501Y737D01*
X501Y738D01*
X502Y738D01*
X502Y738D01*
X504Y738D01*
X504Y739D01*
X505Y739D01*
X505Y740D01*
X507Y740D01*
X507Y741D01*
X509Y741D01*
X509Y741D01*
X511Y741D01*
X511Y742D01*
X512Y742D01*
X512Y743D01*
X515Y743D01*
X515Y744D01*
X517Y744D01*
X517Y745D01*
X519Y745D01*
X519Y745D01*
X522Y745D01*
X522Y746D01*
X527Y746D01*
X527Y747D01*
X534Y747D01*
X534Y748D01*
X542Y748D01*
X542Y748D01*
X709Y748D01*
G37*
D02*
G36*
X722Y720D02*
X722Y720D01*
X723Y720D01*
X723Y718D01*
X724Y718D01*
X724Y717D01*
X724Y717D01*
X724Y715D01*
X725Y715D01*
X725Y713D01*
X726Y713D01*
X726Y712D01*
X727Y712D01*
X727Y710D01*
X728Y710D01*
X728Y709D01*
X728Y709D01*
X728Y707D01*
X729Y707D01*
X729Y706D01*
X730Y706D01*
X730Y704D01*
X731Y704D01*
X731Y703D01*
X731Y703D01*
X731Y701D01*
X732Y701D01*
X732Y700D01*
X566Y700D01*
X566Y699D01*
X560Y699D01*
X560Y699D01*
X557Y699D01*
X557Y698D01*
X554Y698D01*
X554Y697D01*
X553Y697D01*
X553Y696D01*
X552Y696D01*
X552Y696D01*
X551Y696D01*
X551Y695D01*
X550Y695D01*
X550Y694D01*
X549Y694D01*
X549Y693D01*
X548Y693D01*
X548Y692D01*
X547Y692D01*
X547Y692D01*
X547Y692D01*
X547Y691D01*
X546Y691D01*
X546Y689D01*
X545Y689D01*
X545Y688D01*
X544Y688D01*
X544Y686D01*
X543Y686D01*
X543Y685D01*
X543Y685D01*
X543Y682D01*
X542Y682D01*
X542Y679D01*
X541Y679D01*
X541Y661D01*
X542Y661D01*
X542Y656D01*
X543Y656D01*
X543Y653D01*
X543Y653D01*
X543Y650D01*
X544Y650D01*
X544Y647D01*
X545Y647D01*
X545Y645D01*
X546Y645D01*
X546Y644D01*
X547Y644D01*
X547Y642D01*
X547Y642D01*
X547Y640D01*
X548Y640D01*
X548Y638D01*
X549Y638D01*
X549Y637D01*
X550Y637D01*
X550Y636D01*
X550Y636D01*
X550Y634D01*
X551Y634D01*
X551Y633D01*
X552Y633D01*
X552Y631D01*
X553Y631D01*
X553Y630D01*
X554Y630D01*
X554Y629D01*
X554Y629D01*
X554Y627D01*
X555Y627D01*
X555Y626D01*
X556Y626D01*
X556Y626D01*
X557Y626D01*
X557Y624D01*
X557Y624D01*
X557Y623D01*
X558Y623D01*
X558Y623D01*
X559Y623D01*
X559Y622D01*
X560Y622D01*
X560Y621D01*
X561Y621D01*
X561Y620D01*
X561Y620D01*
X561Y619D01*
X562Y619D01*
X562Y618D01*
X563Y618D01*
X563Y617D01*
X564Y617D01*
X564Y616D01*
X565Y616D01*
X565Y616D01*
X566Y616D01*
X566Y615D01*
X567Y615D01*
X567Y614D01*
X568Y614D01*
X568Y613D01*
X568Y613D01*
X568Y612D01*
X569Y612D01*
X569Y612D01*
X570Y612D01*
X570Y611D01*
X571Y611D01*
X571Y610D01*
X571Y610D01*
X571Y609D01*
X573Y609D01*
X573Y609D01*
X574Y609D01*
X574Y608D01*
X575Y608D01*
X575Y607D01*
X576Y607D01*
X576Y606D01*
X577Y606D01*
X577Y605D01*
X578Y605D01*
X578Y605D01*
X578Y605D01*
X578Y604D01*
X579Y604D01*
X579Y603D01*
X581Y603D01*
X581Y602D01*
X582Y602D01*
X582Y602D01*
X583Y602D01*
X583Y601D01*
X585Y601D01*
X585Y600D01*
X585Y600D01*
X585Y599D01*
X587Y599D01*
X587Y598D01*
X588Y598D01*
X588Y598D01*
X589Y598D01*
X589Y597D01*
X590Y597D01*
X590Y596D01*
X592Y596D01*
X592Y595D01*
X593Y595D01*
X593Y595D01*
X595Y595D01*
X595Y594D01*
X596Y594D01*
X596Y593D01*
X598Y593D01*
X598Y592D01*
X599Y592D01*
X599Y591D01*
X600Y591D01*
X600Y591D01*
X602Y591D01*
X602Y590D01*
X603Y590D01*
X603Y589D01*
X605Y589D01*
X605Y588D01*
X607Y588D01*
X607Y588D01*
X609Y588D01*
X609Y587D01*
X611Y587D01*
X611Y586D01*
X613Y586D01*
X613Y585D01*
X615Y585D01*
X615Y584D01*
X616Y584D01*
X616Y584D01*
X619Y584D01*
X619Y583D01*
X621Y583D01*
X621Y582D01*
X623Y582D01*
X623Y581D01*
X627Y581D01*
X627Y581D01*
X592Y581D01*
X592Y581D01*
X592Y581D01*
X592Y582D01*
X590Y582D01*
X590Y583D01*
X588Y583D01*
X588Y584D01*
X586Y584D01*
X586Y584D01*
X585Y584D01*
X585Y585D01*
X584Y585D01*
X584Y586D01*
X582Y586D01*
X582Y587D01*
X581Y587D01*
X581Y588D01*
X579Y588D01*
X579Y588D01*
X578Y588D01*
X578Y589D01*
X577Y589D01*
X577Y590D01*
X575Y590D01*
X575Y591D01*
X574Y591D01*
X574Y591D01*
X572Y591D01*
X572Y592D01*
X571Y592D01*
X571Y593D01*
X570Y593D01*
X570Y594D01*
X569Y594D01*
X569Y595D01*
X568Y595D01*
X568Y595D01*
X567Y595D01*
X567Y596D01*
X565Y596D01*
X565Y597D01*
X564Y597D01*
X564Y598D01*
X564Y598D01*
X564Y598D01*
X562Y598D01*
X562Y599D01*
X561Y599D01*
X561Y600D01*
X561Y600D01*
X561Y601D01*
X559Y601D01*
X559Y602D01*
X558Y602D01*
X558Y602D01*
X557Y602D01*
X557Y603D01*
X556Y603D01*
X556Y604D01*
X555Y604D01*
X555Y605D01*
X554Y605D01*
X554Y605D01*
X554Y605D01*
X554Y606D01*
X553Y606D01*
X553Y607D01*
X552Y607D01*
X552Y608D01*
X551Y608D01*
X551Y609D01*
X550Y609D01*
X550Y609D01*
X550Y609D01*
X550Y610D01*
X549Y610D01*
X549Y611D01*
X548Y611D01*
X548Y612D01*
X547Y612D01*
X547Y612D01*
X546Y612D01*
X546Y614D01*
X545Y614D01*
X545Y615D01*
X544Y615D01*
X544Y616D01*
X543Y616D01*
X543Y616D01*
X543Y616D01*
X543Y617D01*
X542Y617D01*
X542Y618D01*
X541Y618D01*
X541Y619D01*
X540Y619D01*
X540Y619D01*
X540Y619D01*
X540Y620D01*
X539Y620D01*
X539Y621D01*
X538Y621D01*
X538Y623D01*
X537Y623D01*
X537Y623D01*
X536Y623D01*
X536Y624D01*
X536Y624D01*
X536Y625D01*
X535Y625D01*
X535Y626D01*
X534Y626D01*
X534Y627D01*
X533Y627D01*
X533Y628D01*
X533Y628D01*
X533Y630D01*
X532Y630D01*
X532Y630D01*
X531Y630D01*
X531Y632D01*
X530Y632D01*
X530Y633D01*
X529Y633D01*
X529Y634D01*
X529Y634D01*
X529Y636D01*
X528Y636D01*
X528Y637D01*
X527Y637D01*
X527Y638D01*
X526Y638D01*
X526Y639D01*
X526Y639D01*
X526Y640D01*
X525Y640D01*
X525Y642D01*
X524Y642D01*
X524Y643D01*
X523Y643D01*
X523Y644D01*
X522Y644D01*
X522Y646D01*
X522Y646D01*
X522Y647D01*
X521Y647D01*
X521Y649D01*
X520Y649D01*
X520Y651D01*
X519Y651D01*
X519Y651D01*
X519Y651D01*
X519Y653D01*
X518Y653D01*
X518Y655D01*
X517Y655D01*
X517Y657D01*
X516Y657D01*
X516Y658D01*
X515Y658D01*
X515Y660D01*
X515Y660D01*
X515Y662D01*
X514Y662D01*
X514Y665D01*
X513Y665D01*
X513Y667D01*
X512Y667D01*
X512Y669D01*
X512Y669D01*
X512Y674D01*
X511Y674D01*
X511Y689D01*
X512Y689D01*
X512Y693D01*
X512Y693D01*
X512Y696D01*
X513Y696D01*
X513Y697D01*
X514Y697D01*
X514Y699D01*
X515Y699D01*
X515Y699D01*
X515Y699D01*
X515Y701D01*
X516Y701D01*
X516Y702D01*
X517Y702D01*
X517Y703D01*
X518Y703D01*
X518Y704D01*
X519Y704D01*
X519Y705D01*
X519Y705D01*
X519Y706D01*
X521Y706D01*
X521Y706D01*
X522Y706D01*
X522Y707D01*
X522Y707D01*
X522Y708D01*
X523Y708D01*
X523Y709D01*
X524Y709D01*
X524Y710D01*
X525Y710D01*
X525Y710D01*
X526Y710D01*
X526Y711D01*
X527Y711D01*
X527Y712D01*
X529Y712D01*
X529Y713D01*
X530Y713D01*
X530Y713D01*
X532Y713D01*
X532Y714D01*
X533Y714D01*
X533Y715D01*
X534Y715D01*
X534Y716D01*
X536Y716D01*
X536Y717D01*
X538Y717D01*
X538Y717D01*
X540Y717D01*
X540Y718D01*
X542Y718D01*
X542Y719D01*
X546Y719D01*
X546Y720D01*
X549Y720D01*
X549Y720D01*
X722Y720D01*
G37*
D02*
G36*
X658Y675D02*
X658Y672D01*
X658Y672D01*
X658Y669D01*
X659Y669D01*
X659Y668D01*
X620Y668D01*
X620Y667D01*
X621Y667D01*
X621Y664D01*
X622Y664D01*
X622Y661D01*
X623Y661D01*
X623Y658D01*
X623Y658D01*
X623Y654D01*
X624Y654D01*
X624Y651D01*
X625Y651D01*
X625Y648D01*
X626Y648D01*
X626Y645D01*
X627Y645D01*
X627Y642D01*
X627Y642D01*
X627Y641D01*
X613Y641D01*
X613Y642D01*
X613Y642D01*
X613Y645D01*
X612Y645D01*
X612Y648D01*
X611Y648D01*
X611Y651D01*
X610Y651D01*
X610Y654D01*
X609Y654D01*
X609Y657D01*
X609Y657D01*
X609Y660D01*
X608Y660D01*
X608Y663D01*
X607Y663D01*
X607Y665D01*
X606Y665D01*
X606Y668D01*
X606Y668D01*
X606Y672D01*
X605Y672D01*
X605Y674D01*
X604Y674D01*
X604Y675D01*
X658Y675D01*
G37*
D02*
G36*
X659Y668D02*
X659Y667D01*
X660Y667D01*
X660Y665D01*
X658Y665D01*
X658Y665D01*
X655Y665D01*
X655Y664D01*
X653Y664D01*
X653Y663D01*
X652Y663D01*
X652Y665D01*
X651Y665D01*
X651Y668D01*
X651Y668D01*
X651Y668D01*
X659Y668D01*
G37*
D02*
G36*
X662Y657D02*
X662Y655D01*
X663Y655D01*
X663Y652D01*
X664Y652D01*
X664Y649D01*
X665Y649D01*
X665Y646D01*
X665Y646D01*
X665Y644D01*
X666Y644D01*
X666Y641D01*
X657Y641D01*
X657Y646D01*
X656Y646D01*
X656Y649D01*
X655Y649D01*
X655Y652D01*
X655Y652D01*
X655Y654D01*
X656Y654D01*
X656Y654D01*
X658Y654D01*
X658Y655D01*
X659Y655D01*
X659Y656D01*
X661Y656D01*
X661Y657D01*
X662Y657D01*
G37*
D02*
G36*
X666Y641D02*
X666Y640D01*
X613Y640D01*
X613Y641D01*
X666Y641D01*
G37*
D02*
G36*
X666Y641D02*
X666Y640D01*
X613Y640D01*
X613Y641D01*
X666Y641D01*
G37*
D02*
G36*
X667Y640D02*
X667Y637D01*
X668Y637D01*
X668Y634D01*
X669Y634D01*
X669Y631D01*
X669Y631D01*
X669Y629D01*
X670Y629D01*
X670Y626D01*
X671Y626D01*
X671Y623D01*
X672Y623D01*
X672Y619D01*
X672Y619D01*
X672Y616D01*
X673Y616D01*
X673Y613D01*
X674Y613D01*
X674Y610D01*
X675Y610D01*
X675Y607D01*
X634Y607D01*
X634Y605D01*
X634Y605D01*
X634Y600D01*
X635Y600D01*
X635Y596D01*
X636Y596D01*
X636Y593D01*
X637Y593D01*
X637Y590D01*
X637Y590D01*
X637Y587D01*
X638Y587D01*
X638Y584D01*
X639Y584D01*
X639Y581D01*
X628Y581D01*
X628Y584D01*
X627Y584D01*
X627Y587D01*
X627Y587D01*
X627Y590D01*
X626Y590D01*
X626Y592D01*
X625Y592D01*
X625Y595D01*
X624Y595D01*
X624Y598D01*
X623Y598D01*
X623Y602D01*
X623Y602D01*
X623Y604D01*
X622Y604D01*
X622Y607D01*
X621Y607D01*
X621Y610D01*
X620Y610D01*
X620Y613D01*
X620Y613D01*
X620Y616D01*
X619Y616D01*
X619Y619D01*
X618Y619D01*
X618Y623D01*
X617Y623D01*
X617Y625D01*
X616Y625D01*
X616Y629D01*
X616Y629D01*
X616Y632D01*
X615Y632D01*
X615Y636D01*
X614Y636D01*
X614Y639D01*
X613Y639D01*
X613Y640D01*
X667Y640D01*
G37*
D02*
G36*
X676Y607D02*
X676Y604D01*
X676Y604D01*
X676Y600D01*
X677Y600D01*
X677Y596D01*
X678Y596D01*
X678Y593D01*
X679Y593D01*
X679Y591D01*
X679Y591D01*
X679Y588D01*
X680Y588D01*
X680Y584D01*
X681Y584D01*
X681Y581D01*
X682Y581D01*
X682Y579D01*
X683Y579D01*
X683Y576D01*
X683Y576D01*
X683Y573D01*
X684Y573D01*
X684Y570D01*
X685Y570D01*
X685Y567D01*
X686Y567D01*
X686Y564D01*
X686Y564D01*
X686Y561D01*
X687Y561D01*
X687Y558D01*
X688Y558D01*
X688Y555D01*
X689Y555D01*
X689Y553D01*
X644Y553D01*
X644Y554D01*
X650Y554D01*
X650Y555D01*
X655Y555D01*
X655Y556D01*
X657Y556D01*
X657Y557D01*
X658Y557D01*
X658Y557D01*
X658Y557D01*
X658Y559D01*
X659Y559D01*
X659Y562D01*
X658Y562D01*
X658Y567D01*
X658Y567D01*
X658Y571D01*
X657Y571D01*
X657Y578D01*
X656Y578D01*
X656Y580D01*
X670Y580D01*
X670Y582D01*
X669Y582D01*
X669Y584D01*
X669Y584D01*
X669Y588D01*
X668Y588D01*
X668Y591D01*
X667Y591D01*
X667Y594D01*
X666Y594D01*
X666Y597D01*
X665Y597D01*
X665Y600D01*
X665Y600D01*
X665Y603D01*
X664Y603D01*
X664Y606D01*
X663Y606D01*
X663Y607D01*
X676Y607D01*
G37*
D02*
G36*
X640Y581D02*
X640Y580D01*
X594Y580D01*
X594Y581D01*
X640Y581D01*
G37*
D02*
G36*
X640Y581D02*
X640Y580D01*
X594Y580D01*
X594Y581D01*
X640Y581D01*
G37*
D02*
G36*
X647Y580D02*
X647Y577D01*
X648Y577D01*
X648Y572D01*
X648Y572D01*
X648Y567D01*
X649Y567D01*
X649Y564D01*
X648Y564D01*
X648Y563D01*
X643Y563D01*
X643Y562D01*
X641Y562D01*
X641Y563D01*
X638Y563D01*
X638Y564D01*
X636Y564D01*
X636Y564D01*
X634Y564D01*
X634Y565D01*
X631Y565D01*
X631Y566D01*
X630Y566D01*
X630Y567D01*
X627Y567D01*
X627Y567D01*
X625Y567D01*
X625Y568D01*
X623Y568D01*
X623Y569D01*
X620Y569D01*
X620Y570D01*
X618Y570D01*
X618Y570D01*
X616Y570D01*
X616Y571D01*
X614Y571D01*
X614Y572D01*
X612Y572D01*
X612Y573D01*
X610Y573D01*
X610Y574D01*
X609Y574D01*
X609Y574D01*
X606Y574D01*
X606Y575D01*
X605Y575D01*
X605Y576D01*
X602Y576D01*
X602Y577D01*
X600Y577D01*
X600Y577D01*
X599Y577D01*
X599Y578D01*
X597Y578D01*
X597Y579D01*
X595Y579D01*
X595Y580D01*
X647Y580D01*
G37*
D02*
G36*
X689Y553D02*
X689Y553D01*
X604Y553D01*
X604Y553D01*
X689Y553D01*
G37*
D02*
G36*
X689Y553D02*
X689Y553D01*
X604Y553D01*
X604Y553D01*
X689Y553D01*
G37*
D02*
G36*
X690Y553D02*
X690Y550D01*
X690Y550D01*
X690Y546D01*
X691Y546D01*
X691Y543D01*
X692Y543D01*
X692Y540D01*
X693Y540D01*
X693Y537D01*
X693Y537D01*
X693Y534D01*
X694Y534D01*
X694Y532D01*
X695Y532D01*
X695Y529D01*
X696Y529D01*
X696Y525D01*
X697Y525D01*
X697Y523D01*
X656Y523D01*
X656Y522D01*
X657Y522D01*
X657Y518D01*
X658Y518D01*
X658Y515D01*
X658Y515D01*
X658Y514D01*
X645Y514D01*
X645Y515D01*
X644Y515D01*
X644Y518D01*
X644Y518D01*
X644Y521D01*
X643Y521D01*
X643Y524D01*
X642Y524D01*
X642Y527D01*
X641Y527D01*
X641Y530D01*
X641Y530D01*
X641Y533D01*
X640Y533D01*
X640Y536D01*
X639Y536D01*
X639Y539D01*
X638Y539D01*
X638Y543D01*
X637Y543D01*
X637Y543D01*
X634Y543D01*
X634Y544D01*
X631Y544D01*
X631Y545D01*
X629Y545D01*
X629Y546D01*
X626Y546D01*
X626Y546D01*
X623Y546D01*
X623Y547D01*
X621Y547D01*
X621Y548D01*
X619Y548D01*
X619Y549D01*
X615Y549D01*
X615Y550D01*
X613Y550D01*
X613Y550D01*
X610Y550D01*
X610Y551D01*
X609Y551D01*
X609Y552D01*
X606Y552D01*
X606Y553D01*
X690Y553D01*
G37*
D02*
G36*
X697Y523D02*
X697Y522D01*
X697Y522D01*
X697Y518D01*
X698Y518D01*
X698Y515D01*
X699Y515D01*
X699Y511D01*
X700Y511D01*
X700Y508D01*
X700Y508D01*
X700Y505D01*
X701Y505D01*
X701Y503D01*
X702Y503D01*
X702Y500D01*
X703Y500D01*
X703Y497D01*
X703Y497D01*
X703Y496D01*
X693Y496D01*
X693Y498D01*
X693Y498D01*
X693Y501D01*
X692Y501D01*
X692Y504D01*
X691Y504D01*
X691Y507D01*
X690Y507D01*
X690Y510D01*
X690Y510D01*
X690Y514D01*
X689Y514D01*
X689Y516D01*
X688Y516D01*
X688Y520D01*
X687Y520D01*
X687Y522D01*
X686Y522D01*
X686Y523D01*
X697Y523D01*
G37*
D02*
G36*
X661Y505D02*
X661Y503D01*
X662Y503D01*
X662Y500D01*
X662Y500D01*
X662Y497D01*
X663Y497D01*
X663Y496D01*
X650Y496D01*
X650Y497D01*
X649Y497D01*
X649Y500D01*
X648Y500D01*
X648Y503D01*
X648Y503D01*
X648Y505D01*
X661Y505D01*
G37*
D02*
G36*
X703Y496D02*
X703Y495D01*
X650Y495D01*
X650Y496D01*
X703Y496D01*
G37*
D02*
G36*
X703Y496D02*
X703Y495D01*
X650Y495D01*
X650Y496D01*
X703Y496D01*
G37*
D02*
G36*
X703Y495D02*
X703Y494D01*
X704Y494D01*
X704Y491D01*
X705Y491D01*
X705Y488D01*
X706Y488D01*
X706Y485D01*
X707Y485D01*
X707Y482D01*
X707Y482D01*
X707Y479D01*
X708Y479D01*
X708Y476D01*
X709Y476D01*
X709Y476D01*
X655Y476D01*
X655Y476D01*
X655Y476D01*
X655Y480D01*
X654Y480D01*
X654Y482D01*
X653Y482D01*
X653Y485D01*
X652Y485D01*
X652Y488D01*
X651Y488D01*
X651Y491D01*
X651Y491D01*
X651Y494D01*
X650Y494D01*
X650Y495D01*
X703Y495D01*
G37*
D02*
G36*
X379Y644D02*
X379Y643D01*
X381Y643D01*
X381Y642D01*
X383Y642D01*
X383Y641D01*
X385Y641D01*
X385Y640D01*
X386Y640D01*
X386Y640D01*
X389Y640D01*
X389Y639D01*
X390Y639D01*
X390Y638D01*
X393Y638D01*
X393Y637D01*
X394Y637D01*
X394Y637D01*
X397Y637D01*
X397Y636D01*
X399Y636D01*
X399Y635D01*
X401Y635D01*
X401Y634D01*
X403Y634D01*
X403Y633D01*
X405Y633D01*
X405Y633D01*
X407Y633D01*
X407Y632D01*
X408Y632D01*
X408Y631D01*
X411Y631D01*
X411Y630D01*
X412Y630D01*
X412Y630D01*
X415Y630D01*
X415Y629D01*
X418Y629D01*
X418Y628D01*
X419Y628D01*
X419Y627D01*
X421Y627D01*
X421Y626D01*
X423Y626D01*
X423Y626D01*
X425Y626D01*
X425Y625D01*
X427Y625D01*
X427Y624D01*
X428Y624D01*
X428Y623D01*
X431Y623D01*
X431Y623D01*
X433Y623D01*
X433Y622D01*
X435Y622D01*
X435Y621D01*
X437Y621D01*
X437Y620D01*
X439Y620D01*
X439Y619D01*
X442Y619D01*
X442Y619D01*
X377Y619D01*
X377Y628D01*
X378Y628D01*
X378Y644D01*
X379Y644D01*
G37*
D02*
G36*
X442Y612D02*
X442Y612D01*
X439Y612D01*
X439Y611D01*
X438Y611D01*
X438Y610D01*
X435Y610D01*
X435Y609D01*
X433Y609D01*
X433Y609D01*
X431Y609D01*
X431Y608D01*
X429Y608D01*
X429Y607D01*
X427Y607D01*
X427Y606D01*
X425Y606D01*
X425Y605D01*
X424Y605D01*
X424Y605D01*
X421Y605D01*
X421Y604D01*
X419Y604D01*
X419Y603D01*
X417Y603D01*
X417Y602D01*
X414Y602D01*
X414Y602D01*
X413Y602D01*
X413Y601D01*
X411Y601D01*
X411Y600D01*
X409Y600D01*
X409Y599D01*
X407Y599D01*
X407Y598D01*
X405Y598D01*
X405Y598D01*
X404Y598D01*
X404Y597D01*
X400Y597D01*
X400Y596D01*
X399Y596D01*
X399Y595D01*
X397Y595D01*
X397Y595D01*
X395Y595D01*
X395Y594D01*
X393Y594D01*
X393Y593D01*
X391Y593D01*
X391Y592D01*
X390Y592D01*
X390Y591D01*
X387Y591D01*
X387Y591D01*
X385Y591D01*
X385Y590D01*
X383Y590D01*
X383Y589D01*
X380Y589D01*
X380Y588D01*
X379Y588D01*
X379Y588D01*
X377Y588D01*
X377Y587D01*
X376Y587D01*
X376Y594D01*
X377Y594D01*
X377Y612D01*
X442Y612D01*
G37*
D02*
G36*
X456Y609D02*
X456Y598D01*
X456Y598D01*
X456Y557D01*
X455Y557D01*
X455Y515D01*
X454Y515D01*
X454Y480D01*
X332Y480D01*
X332Y480D01*
X322Y480D01*
X322Y481D01*
X318Y481D01*
X318Y482D01*
X319Y482D01*
X319Y483D01*
X320Y483D01*
X320Y483D01*
X320Y483D01*
X320Y484D01*
X322Y484D01*
X322Y485D01*
X323Y485D01*
X323Y486D01*
X324Y486D01*
X324Y487D01*
X324Y487D01*
X324Y487D01*
X325Y487D01*
X325Y488D01*
X326Y488D01*
X326Y489D01*
X327Y489D01*
X327Y490D01*
X327Y490D01*
X327Y490D01*
X328Y490D01*
X328Y491D01*
X329Y491D01*
X329Y492D01*
X330Y492D01*
X330Y493D01*
X331Y493D01*
X331Y494D01*
X332Y494D01*
X332Y494D01*
X333Y494D01*
X333Y495D01*
X334Y495D01*
X334Y496D01*
X334Y496D01*
X334Y497D01*
X335Y497D01*
X335Y497D01*
X336Y497D01*
X336Y498D01*
X337Y498D01*
X337Y499D01*
X338Y499D01*
X338Y500D01*
X338Y500D01*
X338Y501D01*
X339Y501D01*
X339Y501D01*
X340Y501D01*
X340Y502D01*
X341Y502D01*
X341Y503D01*
X341Y503D01*
X341Y504D01*
X342Y504D01*
X342Y504D01*
X343Y504D01*
X343Y505D01*
X344Y505D01*
X344Y506D01*
X345Y506D01*
X345Y507D01*
X346Y507D01*
X346Y508D01*
X347Y508D01*
X347Y508D01*
X348Y508D01*
X348Y509D01*
X348Y509D01*
X348Y510D01*
X349Y510D01*
X349Y511D01*
X350Y511D01*
X350Y511D01*
X351Y511D01*
X351Y512D01*
X351Y512D01*
X351Y513D01*
X353Y513D01*
X353Y514D01*
X354Y514D01*
X354Y515D01*
X355Y515D01*
X355Y515D01*
X355Y515D01*
X355Y516D01*
X356Y516D01*
X356Y517D01*
X357Y517D01*
X357Y518D01*
X358Y518D01*
X358Y518D01*
X358Y518D01*
X358Y519D01*
X359Y519D01*
X359Y520D01*
X360Y520D01*
X360Y521D01*
X361Y521D01*
X361Y522D01*
X362Y522D01*
X362Y522D01*
X362Y522D01*
X362Y523D01*
X363Y523D01*
X363Y524D01*
X364Y524D01*
X364Y525D01*
X365Y525D01*
X365Y525D01*
X365Y525D01*
X365Y526D01*
X366Y526D01*
X366Y527D01*
X368Y527D01*
X368Y528D01*
X369Y528D01*
X369Y529D01*
X369Y529D01*
X369Y529D01*
X370Y529D01*
X370Y530D01*
X371Y530D01*
X371Y531D01*
X372Y531D01*
X372Y532D01*
X372Y532D01*
X372Y532D01*
X373Y532D01*
X373Y533D01*
X374Y533D01*
X374Y534D01*
X376Y534D01*
X376Y535D01*
X376Y535D01*
X376Y536D01*
X377Y536D01*
X377Y536D01*
X378Y536D01*
X378Y537D01*
X379Y537D01*
X379Y538D01*
X379Y538D01*
X379Y539D01*
X380Y539D01*
X380Y539D01*
X381Y539D01*
X381Y540D01*
X382Y540D01*
X382Y541D01*
X383Y541D01*
X383Y542D01*
X383Y542D01*
X383Y543D01*
X384Y543D01*
X384Y543D01*
X385Y543D01*
X385Y544D01*
X386Y544D01*
X386Y545D01*
X386Y545D01*
X386Y546D01*
X387Y546D01*
X387Y546D01*
X388Y546D01*
X388Y547D01*
X390Y547D01*
X390Y548D01*
X390Y548D01*
X390Y549D01*
X391Y549D01*
X391Y550D01*
X392Y550D01*
X392Y550D01*
X393Y550D01*
X393Y551D01*
X393Y551D01*
X393Y552D01*
X394Y552D01*
X394Y553D01*
X395Y553D01*
X395Y553D01*
X396Y553D01*
X396Y554D01*
X397Y554D01*
X397Y555D01*
X398Y555D01*
X398Y556D01*
X399Y556D01*
X399Y557D01*
X400Y557D01*
X400Y557D01*
X400Y557D01*
X400Y558D01*
X401Y558D01*
X401Y559D01*
X402Y559D01*
X402Y560D01*
X403Y560D01*
X403Y560D01*
X404Y560D01*
X404Y561D01*
X404Y561D01*
X404Y562D01*
X405Y562D01*
X405Y563D01*
X406Y563D01*
X406Y564D01*
X407Y564D01*
X407Y564D01*
X407Y564D01*
X407Y565D01*
X408Y565D01*
X408Y566D01*
X409Y566D01*
X409Y567D01*
X410Y567D01*
X410Y567D01*
X411Y567D01*
X411Y568D01*
X412Y568D01*
X412Y569D01*
X413Y569D01*
X413Y570D01*
X414Y570D01*
X414Y570D01*
X414Y570D01*
X414Y571D01*
X415Y571D01*
X415Y572D01*
X416Y572D01*
X416Y573D01*
X417Y573D01*
X417Y574D01*
X418Y574D01*
X418Y574D01*
X418Y574D01*
X418Y575D01*
X419Y575D01*
X419Y576D01*
X420Y576D01*
X420Y577D01*
X421Y577D01*
X421Y577D01*
X421Y577D01*
X421Y578D01*
X422Y578D01*
X422Y579D01*
X423Y579D01*
X423Y580D01*
X425Y580D01*
X425Y581D01*
X425Y581D01*
X425Y581D01*
X426Y581D01*
X426Y582D01*
X427Y582D01*
X427Y583D01*
X428Y583D01*
X428Y584D01*
X428Y584D01*
X428Y584D01*
X429Y584D01*
X429Y585D01*
X430Y585D01*
X430Y586D01*
X431Y586D01*
X431Y587D01*
X432Y587D01*
X432Y588D01*
X432Y588D01*
X432Y588D01*
X434Y588D01*
X434Y589D01*
X435Y589D01*
X435Y590D01*
X435Y590D01*
X435Y591D01*
X436Y591D01*
X436Y591D01*
X437Y591D01*
X437Y592D01*
X438Y592D01*
X438Y593D01*
X439Y593D01*
X439Y594D01*
X439Y594D01*
X439Y595D01*
X440Y595D01*
X440Y595D01*
X441Y595D01*
X441Y596D01*
X442Y596D01*
X442Y597D01*
X442Y597D01*
X442Y598D01*
X443Y598D01*
X443Y598D01*
X444Y598D01*
X444Y599D01*
X445Y599D01*
X445Y600D01*
X446Y600D01*
X446Y601D01*
X446Y601D01*
X446Y602D01*
X448Y602D01*
X448Y602D01*
X449Y602D01*
X449Y603D01*
X449Y603D01*
X449Y604D01*
X450Y604D01*
X450Y605D01*
X451Y605D01*
X451Y605D01*
X452Y605D01*
X452Y606D01*
X453Y606D01*
X453Y607D01*
X453Y607D01*
X453Y608D01*
X454Y608D01*
X454Y609D01*
X455Y609D01*
X455Y609D01*
X456Y609D01*
G37*
D02*
G36*
X444Y607D02*
X444Y606D01*
X443Y606D01*
X443Y607D01*
X444Y607D01*
G37*
D02*
G36*
X443Y606D02*
X443Y605D01*
X442Y605D01*
X442Y605D01*
X442Y605D01*
X442Y604D01*
X441Y604D01*
X441Y603D01*
X439Y603D01*
X439Y602D01*
X439Y602D01*
X439Y602D01*
X438Y602D01*
X438Y601D01*
X437Y601D01*
X437Y600D01*
X436Y600D01*
X436Y599D01*
X435Y599D01*
X435Y598D01*
X435Y598D01*
X435Y598D01*
X434Y598D01*
X434Y597D01*
X433Y597D01*
X433Y596D01*
X432Y596D01*
X432Y595D01*
X432Y595D01*
X432Y595D01*
X431Y595D01*
X431Y594D01*
X430Y594D01*
X430Y593D01*
X429Y593D01*
X429Y592D01*
X428Y592D01*
X428Y591D01*
X428Y591D01*
X428Y591D01*
X427Y591D01*
X427Y590D01*
X425Y590D01*
X425Y589D01*
X425Y589D01*
X425Y588D01*
X424Y588D01*
X424Y588D01*
X423Y588D01*
X423Y587D01*
X422Y587D01*
X422Y586D01*
X421Y586D01*
X421Y585D01*
X421Y585D01*
X421Y584D01*
X420Y584D01*
X420Y584D01*
X419Y584D01*
X419Y583D01*
X418Y583D01*
X418Y582D01*
X417Y582D01*
X417Y581D01*
X416Y581D01*
X416Y581D01*
X415Y581D01*
X415Y580D01*
X414Y580D01*
X414Y579D01*
X414Y579D01*
X414Y578D01*
X413Y578D01*
X413Y577D01*
X412Y577D01*
X412Y577D01*
X411Y577D01*
X411Y576D01*
X411Y576D01*
X411Y575D01*
X410Y575D01*
X410Y574D01*
X409Y574D01*
X409Y574D01*
X408Y574D01*
X408Y573D01*
X407Y573D01*
X407Y572D01*
X407Y572D01*
X407Y571D01*
X406Y571D01*
X406Y570D01*
X405Y570D01*
X405Y570D01*
X404Y570D01*
X404Y569D01*
X403Y569D01*
X403Y568D01*
X402Y568D01*
X402Y567D01*
X401Y567D01*
X401Y567D01*
X400Y567D01*
X400Y566D01*
X400Y566D01*
X400Y565D01*
X399Y565D01*
X399Y564D01*
X398Y564D01*
X398Y564D01*
X397Y564D01*
X397Y563D01*
X397Y563D01*
X397Y562D01*
X395Y562D01*
X395Y561D01*
X394Y561D01*
X394Y560D01*
X393Y560D01*
X393Y560D01*
X393Y560D01*
X393Y559D01*
X392Y559D01*
X392Y558D01*
X391Y558D01*
X391Y557D01*
X390Y557D01*
X390Y557D01*
X390Y557D01*
X390Y556D01*
X389Y556D01*
X389Y555D01*
X388Y555D01*
X388Y554D01*
X387Y554D01*
X387Y553D01*
X386Y553D01*
X386Y553D01*
X386Y553D01*
X386Y552D01*
X385Y552D01*
X385Y551D01*
X384Y551D01*
X384Y550D01*
X383Y550D01*
X383Y550D01*
X383Y550D01*
X383Y549D01*
X381Y549D01*
X381Y548D01*
X380Y548D01*
X380Y547D01*
X379Y547D01*
X379Y546D01*
X379Y546D01*
X379Y546D01*
X376Y546D01*
X376Y560D01*
X376Y560D01*
X376Y581D01*
X379Y581D01*
X379Y582D01*
X381Y582D01*
X381Y583D01*
X383Y583D01*
X383Y584D01*
X385Y584D01*
X385Y584D01*
X386Y584D01*
X386Y585D01*
X389Y585D01*
X389Y586D01*
X390Y586D01*
X390Y587D01*
X393Y587D01*
X393Y588D01*
X394Y588D01*
X394Y588D01*
X397Y588D01*
X397Y589D01*
X400Y589D01*
X400Y590D01*
X401Y590D01*
X401Y591D01*
X403Y591D01*
X403Y591D01*
X405Y591D01*
X405Y592D01*
X407Y592D01*
X407Y593D01*
X408Y593D01*
X408Y594D01*
X411Y594D01*
X411Y595D01*
X413Y595D01*
X413Y595D01*
X415Y595D01*
X415Y596D01*
X418Y596D01*
X418Y597D01*
X419Y597D01*
X419Y598D01*
X421Y598D01*
X421Y598D01*
X423Y598D01*
X423Y599D01*
X425Y599D01*
X425Y600D01*
X427Y600D01*
X427Y601D01*
X428Y601D01*
X428Y602D01*
X431Y602D01*
X431Y602D01*
X434Y602D01*
X434Y603D01*
X435Y603D01*
X435Y604D01*
X437Y604D01*
X437Y605D01*
X439Y605D01*
X439Y605D01*
X441Y605D01*
X441Y606D01*
X443Y606D01*
G37*
D02*
G36*
X303Y552D02*
X303Y551D01*
X306Y551D01*
X306Y550D01*
X308Y550D01*
X308Y550D01*
X310Y550D01*
X310Y549D01*
X313Y549D01*
X313Y548D01*
X316Y548D01*
X316Y547D01*
X323Y547D01*
X323Y546D01*
X328Y546D01*
X328Y546D01*
X285Y546D01*
X285Y546D01*
X288Y546D01*
X288Y547D01*
X291Y547D01*
X291Y548D01*
X292Y548D01*
X292Y549D01*
X295Y549D01*
X295Y550D01*
X296Y550D01*
X296Y550D01*
X298Y550D01*
X298Y551D01*
X300Y551D01*
X300Y552D01*
X303Y552D01*
G37*
D02*
G36*
X378Y546D02*
X378Y545D01*
X284Y545D01*
X284Y546D01*
X378Y546D01*
G37*
D02*
G36*
X378Y546D02*
X378Y545D01*
X284Y545D01*
X284Y546D01*
X378Y546D01*
G37*
D02*
G36*
X462Y467D02*
X462Y466D01*
X460Y466D01*
X460Y467D01*
X462Y467D01*
G37*
D02*
G36*
X464Y466D02*
X464Y466D01*
X462Y466D01*
X462Y466D01*
X464Y466D01*
G37*
D02*
G36*
X383Y466D02*
X383Y466D01*
X372Y466D01*
X372Y466D01*
X383Y466D01*
G37*
D02*
G36*
X371Y466D02*
X371Y466D01*
X369Y466D01*
X369Y466D01*
X371Y466D01*
G37*
D02*
G36*
X366Y466D02*
X366Y466D01*
X365Y466D01*
X365Y466D01*
X366Y466D01*
G37*
D02*
G36*
X466Y466D02*
X466Y465D01*
X464Y465D01*
X464Y466D01*
X466Y466D01*
G37*
D02*
G36*
X369Y466D02*
X369Y465D01*
X366Y465D01*
X366Y466D01*
X369Y466D01*
G37*
D02*
G36*
X365Y466D02*
X365Y465D01*
X351Y465D01*
X351Y466D01*
X365Y466D01*
G37*
D02*
G36*
X348Y466D02*
X348Y465D01*
X348Y465D01*
X348Y466D01*
X348Y466D01*
G37*
D02*
G36*
X469Y465D02*
X469Y464D01*
X466Y464D01*
X466Y465D01*
X469Y465D01*
G37*
D02*
G36*
X351Y465D02*
X351Y464D01*
X349Y464D01*
X349Y465D01*
X351Y465D01*
G37*
D02*
G36*
X348Y465D02*
X348Y464D01*
X335Y464D01*
X335Y465D01*
X348Y465D01*
G37*
D02*
G36*
X471Y464D02*
X471Y463D01*
X470Y463D01*
X470Y464D01*
X471Y464D01*
G37*
D02*
G36*
X334Y464D02*
X334Y463D01*
X334Y463D01*
X334Y464D01*
X334Y464D01*
G37*
D02*
G36*
X332Y464D02*
X332Y463D01*
X325Y463D01*
X325Y464D01*
X332Y464D01*
G37*
D02*
G36*
X473Y463D02*
X473Y462D01*
X472Y462D01*
X472Y463D01*
X473Y463D01*
G37*
D02*
G36*
X324Y463D02*
X324Y462D01*
X320Y462D01*
X320Y463D01*
X324Y463D01*
G37*
D02*
G36*
X476Y462D02*
X476Y462D01*
X475Y462D01*
X475Y462D01*
X476Y462D01*
G37*
D02*
G36*
X479Y462D02*
X479Y461D01*
X478Y461D01*
X478Y462D01*
X479Y462D01*
G37*
D02*
G36*
X314Y462D02*
X314Y461D01*
X313Y461D01*
X313Y462D01*
X314Y462D01*
G37*
D02*
G36*
X481Y461D02*
X481Y460D01*
X480Y460D01*
X480Y461D01*
X481Y461D01*
G37*
D02*
G36*
X312Y461D02*
X312Y460D01*
X310Y460D01*
X310Y461D01*
X312Y461D01*
G37*
D02*
G36*
X484Y460D02*
X484Y459D01*
X483Y459D01*
X483Y460D01*
X484Y460D01*
G37*
D02*
G36*
X309Y460D02*
X309Y459D01*
X307Y459D01*
X307Y460D01*
X309Y460D01*
G37*
D02*
G36*
X487Y459D02*
X487Y459D01*
X485Y459D01*
X485Y459D01*
X487Y459D01*
G37*
D02*
G36*
X306Y459D02*
X306Y459D01*
X305Y459D01*
X305Y459D01*
X306Y459D01*
G37*
D02*
G36*
X490Y459D02*
X490Y458D01*
X487Y458D01*
X487Y459D01*
X490Y459D01*
G37*
D02*
G36*
X304Y459D02*
X304Y458D01*
X302Y458D01*
X302Y459D01*
X304Y459D01*
G37*
D02*
G36*
X712Y458D02*
X712Y455D01*
X615Y455D01*
X615Y442D01*
X616Y442D01*
X616Y441D01*
X620Y441D01*
X620Y434D01*
X627Y434D01*
X627Y420D01*
X629Y420D01*
X629Y419D01*
X630Y419D01*
X630Y418D01*
X631Y418D01*
X631Y417D01*
X632Y417D01*
X632Y417D01*
X633Y417D01*
X633Y415D01*
X634Y415D01*
X634Y414D01*
X635Y414D01*
X635Y414D01*
X636Y414D01*
X636Y413D01*
X637Y413D01*
X637Y412D01*
X637Y412D01*
X637Y411D01*
X639Y411D01*
X639Y410D01*
X637Y410D01*
X637Y406D01*
X638Y406D01*
X638Y405D01*
X639Y405D01*
X639Y404D01*
X641Y404D01*
X641Y403D01*
X572Y403D01*
X572Y405D01*
X571Y405D01*
X571Y406D01*
X571Y406D01*
X571Y407D01*
X569Y407D01*
X569Y409D01*
X568Y409D01*
X568Y410D01*
X568Y410D01*
X568Y412D01*
X567Y412D01*
X567Y414D01*
X566Y414D01*
X566Y414D01*
X565Y414D01*
X565Y416D01*
X564Y416D01*
X564Y417D01*
X564Y417D01*
X564Y419D01*
X563Y419D01*
X563Y421D01*
X562Y421D01*
X562Y421D01*
X561Y421D01*
X561Y423D01*
X561Y423D01*
X561Y424D01*
X560Y424D01*
X560Y426D01*
X559Y426D01*
X559Y428D01*
X557Y428D01*
X557Y429D01*
X557Y429D01*
X557Y430D01*
X556Y430D01*
X556Y431D01*
X555Y431D01*
X555Y433D01*
X554Y433D01*
X554Y435D01*
X554Y435D01*
X554Y435D01*
X553Y435D01*
X553Y437D01*
X552Y437D01*
X552Y438D01*
X551Y438D01*
X551Y440D01*
X550Y440D01*
X550Y442D01*
X550Y442D01*
X550Y443D01*
X549Y443D01*
X549Y444D01*
X548Y444D01*
X548Y445D01*
X547Y445D01*
X547Y446D01*
X547Y446D01*
X547Y448D01*
X546Y448D01*
X546Y449D01*
X545Y449D01*
X545Y450D01*
X544Y450D01*
X544Y452D01*
X543Y452D01*
X543Y452D01*
X543Y452D01*
X543Y454D01*
X542Y454D01*
X542Y455D01*
X541Y455D01*
X541Y457D01*
X540Y457D01*
X540Y458D01*
X712Y458D01*
G37*
D02*
G36*
X712Y455D02*
X712Y455D01*
X713Y455D01*
X713Y452D01*
X714Y452D01*
X714Y450D01*
X714Y450D01*
X714Y448D01*
X715Y448D01*
X715Y445D01*
X716Y445D01*
X716Y442D01*
X717Y442D01*
X717Y440D01*
X717Y440D01*
X717Y438D01*
X718Y438D01*
X718Y435D01*
X719Y435D01*
X719Y434D01*
X666Y434D01*
X666Y435D01*
X667Y435D01*
X667Y441D01*
X669Y441D01*
X669Y442D01*
X671Y442D01*
X671Y455D01*
X712Y455D01*
G37*
D02*
G36*
X658Y435D02*
X658Y434D01*
X658Y434D01*
X658Y435D01*
X658Y435D01*
G37*
D02*
G36*
X719Y434D02*
X719Y433D01*
X658Y433D01*
X658Y434D01*
X719Y434D01*
G37*
D02*
G36*
X719Y434D02*
X719Y433D01*
X658Y433D01*
X658Y434D01*
X719Y434D01*
G37*
D02*
G36*
X719Y433D02*
X719Y432D01*
X720Y432D01*
X720Y430D01*
X721Y430D01*
X721Y428D01*
X721Y428D01*
X721Y424D01*
X722Y424D01*
X722Y423D01*
X723Y423D01*
X723Y422D01*
X724Y422D01*
X724Y420D01*
X724Y420D01*
X724Y417D01*
X725Y417D01*
X725Y414D01*
X726Y414D01*
X726Y412D01*
X727Y412D01*
X727Y410D01*
X728Y410D01*
X728Y407D01*
X728Y407D01*
X728Y405D01*
X729Y405D01*
X729Y403D01*
X645Y403D01*
X645Y404D01*
X647Y404D01*
X647Y405D01*
X648Y405D01*
X648Y406D01*
X648Y406D01*
X648Y410D01*
X647Y410D01*
X647Y411D01*
X648Y411D01*
X648Y412D01*
X649Y412D01*
X649Y413D01*
X651Y413D01*
X651Y414D01*
X651Y414D01*
X651Y414D01*
X652Y414D01*
X652Y415D01*
X653Y415D01*
X653Y416D01*
X654Y416D01*
X654Y417D01*
X655Y417D01*
X655Y417D01*
X655Y417D01*
X655Y418D01*
X656Y418D01*
X656Y419D01*
X658Y419D01*
X658Y433D01*
X719Y433D01*
G37*
D02*
G36*
X729Y403D02*
X729Y403D01*
X573Y403D01*
X573Y403D01*
X729Y403D01*
G37*
D02*
G36*
X729Y403D02*
X729Y403D01*
X573Y403D01*
X573Y403D01*
X729Y403D01*
G37*
D02*
G36*
X638Y403D02*
X638Y401D01*
X639Y401D01*
X639Y400D01*
X640Y400D01*
X640Y400D01*
X641Y400D01*
X641Y399D01*
X641Y399D01*
X641Y398D01*
X642Y398D01*
X642Y396D01*
X643Y396D01*
X643Y395D01*
X644Y395D01*
X644Y394D01*
X644Y394D01*
X644Y393D01*
X645Y393D01*
X645Y392D01*
X646Y392D01*
X646Y391D01*
X647Y391D01*
X647Y389D01*
X648Y389D01*
X648Y388D01*
X648Y388D01*
X648Y387D01*
X649Y387D01*
X649Y386D01*
X650Y386D01*
X650Y385D01*
X651Y385D01*
X651Y383D01*
X652Y383D01*
X652Y382D01*
X653Y382D01*
X653Y381D01*
X654Y381D01*
X654Y379D01*
X655Y379D01*
X655Y379D01*
X655Y379D01*
X655Y378D01*
X656Y378D01*
X656Y376D01*
X657Y376D01*
X657Y375D01*
X658Y375D01*
X658Y374D01*
X658Y374D01*
X658Y372D01*
X659Y372D01*
X659Y372D01*
X660Y372D01*
X660Y371D01*
X661Y371D01*
X661Y369D01*
X662Y369D01*
X662Y368D01*
X662Y368D01*
X662Y367D01*
X663Y367D01*
X663Y366D01*
X664Y366D01*
X664Y365D01*
X665Y365D01*
X665Y365D01*
X665Y365D01*
X665Y363D01*
X666Y363D01*
X666Y362D01*
X667Y362D01*
X667Y361D01*
X668Y361D01*
X668Y360D01*
X669Y360D01*
X669Y358D01*
X669Y358D01*
X669Y358D01*
X670Y358D01*
X670Y356D01*
X671Y356D01*
X671Y355D01*
X672Y355D01*
X672Y354D01*
X672Y354D01*
X672Y353D01*
X673Y353D01*
X673Y351D01*
X674Y351D01*
X674Y351D01*
X675Y351D01*
X675Y349D01*
X676Y349D01*
X676Y347D01*
X677Y347D01*
X677Y347D01*
X678Y347D01*
X678Y345D01*
X679Y345D01*
X679Y344D01*
X679Y344D01*
X679Y343D01*
X680Y343D01*
X680Y342D01*
X681Y342D01*
X681Y340D01*
X682Y340D01*
X682Y340D01*
X683Y340D01*
X683Y338D01*
X683Y338D01*
X683Y337D01*
X684Y337D01*
X684Y336D01*
X685Y336D01*
X685Y335D01*
X684Y335D01*
X684Y334D01*
X682Y334D01*
X682Y333D01*
X679Y333D01*
X679Y333D01*
X677Y333D01*
X677Y332D01*
X675Y332D01*
X675Y331D01*
X672Y331D01*
X672Y330D01*
X670Y330D01*
X670Y330D01*
X669Y330D01*
X669Y329D01*
X667Y329D01*
X667Y328D01*
X666Y328D01*
X666Y327D01*
X665Y327D01*
X665Y327D01*
X663Y327D01*
X663Y326D01*
X662Y326D01*
X662Y325D01*
X661Y325D01*
X661Y324D01*
X659Y324D01*
X659Y323D01*
X658Y323D01*
X658Y323D01*
X657Y323D01*
X657Y322D01*
X655Y322D01*
X655Y321D01*
X655Y321D01*
X655Y320D01*
X654Y320D01*
X654Y320D01*
X653Y320D01*
X653Y319D01*
X652Y319D01*
X652Y318D01*
X651Y318D01*
X651Y317D01*
X650Y317D01*
X650Y316D01*
X649Y316D01*
X649Y316D01*
X648Y316D01*
X648Y315D01*
X647Y315D01*
X647Y314D01*
X646Y314D01*
X646Y313D01*
X645Y313D01*
X645Y312D01*
X644Y312D01*
X644Y311D01*
X644Y311D01*
X644Y310D01*
X643Y310D01*
X643Y309D01*
X642Y309D01*
X642Y309D01*
X641Y309D01*
X641Y308D01*
X641Y308D01*
X641Y307D01*
X640Y307D01*
X640Y306D01*
X639Y306D01*
X639Y306D01*
X638Y306D01*
X638Y304D01*
X637Y304D01*
X637Y303D01*
X637Y303D01*
X637Y302D01*
X636Y302D01*
X636Y301D01*
X635Y301D01*
X635Y300D01*
X634Y300D01*
X634Y299D01*
X634Y299D01*
X634Y297D01*
X633Y297D01*
X633Y296D01*
X632Y296D01*
X632Y295D01*
X631Y295D01*
X631Y293D01*
X630Y293D01*
X630Y292D01*
X630Y292D01*
X630Y290D01*
X629Y290D01*
X629Y289D01*
X628Y289D01*
X628Y288D01*
X627Y288D01*
X627Y286D01*
X627Y286D01*
X627Y284D01*
X626Y284D01*
X626Y281D01*
X625Y281D01*
X625Y279D01*
X624Y279D01*
X624Y276D01*
X623Y276D01*
X623Y272D01*
X623Y272D01*
X623Y267D01*
X622Y267D01*
X622Y248D01*
X623Y248D01*
X623Y243D01*
X623Y243D01*
X623Y239D01*
X624Y239D01*
X624Y236D01*
X625Y236D01*
X625Y233D01*
X626Y233D01*
X626Y231D01*
X627Y231D01*
X627Y229D01*
X627Y229D01*
X627Y227D01*
X628Y227D01*
X628Y225D01*
X629Y225D01*
X629Y225D01*
X630Y225D01*
X630Y223D01*
X630Y223D01*
X630Y222D01*
X631Y222D01*
X631Y220D01*
X632Y220D01*
X632Y218D01*
X633Y218D01*
X633Y217D01*
X634Y217D01*
X634Y216D01*
X634Y216D01*
X634Y215D01*
X635Y215D01*
X635Y214D01*
X636Y214D01*
X636Y212D01*
X637Y212D01*
X637Y212D01*
X637Y212D01*
X637Y210D01*
X638Y210D01*
X638Y209D01*
X639Y209D01*
X639Y208D01*
X640Y208D01*
X640Y208D01*
X641Y208D01*
X641Y207D01*
X641Y207D01*
X641Y206D01*
X642Y206D01*
X642Y205D01*
X643Y205D01*
X643Y205D01*
X644Y205D01*
X644Y204D01*
X644Y204D01*
X644Y203D01*
X645Y203D01*
X645Y202D01*
X646Y202D01*
X646Y201D01*
X647Y201D01*
X647Y200D01*
X648Y200D01*
X648Y199D01*
X649Y199D01*
X649Y198D01*
X650Y198D01*
X650Y198D01*
X651Y198D01*
X651Y197D01*
X651Y197D01*
X651Y196D01*
X653Y196D01*
X653Y195D01*
X654Y195D01*
X654Y194D01*
X655Y194D01*
X655Y194D01*
X656Y194D01*
X656Y193D01*
X657Y193D01*
X657Y192D01*
X658Y192D01*
X658Y191D01*
X659Y191D01*
X659Y191D01*
X660Y191D01*
X660Y190D01*
X662Y190D01*
X662Y189D01*
X663Y189D01*
X663Y188D01*
X665Y188D01*
X665Y187D01*
X666Y187D01*
X666Y187D01*
X668Y187D01*
X668Y186D01*
X669Y186D01*
X669Y185D01*
X671Y185D01*
X671Y184D01*
X672Y184D01*
X672Y184D01*
X675Y184D01*
X675Y183D01*
X676Y183D01*
X676Y182D01*
X679Y182D01*
X679Y181D01*
X682Y181D01*
X682Y180D01*
X684Y180D01*
X684Y180D01*
X686Y180D01*
X686Y179D01*
X690Y179D01*
X690Y178D01*
X694Y178D01*
X694Y177D01*
X678Y177D01*
X678Y178D01*
X666Y178D01*
X666Y179D01*
X660Y179D01*
X660Y180D01*
X655Y180D01*
X655Y180D01*
X651Y180D01*
X651Y181D01*
X647Y181D01*
X647Y182D01*
X644Y182D01*
X644Y183D01*
X641Y183D01*
X641Y184D01*
X637Y184D01*
X637Y184D01*
X634Y184D01*
X634Y185D01*
X631Y185D01*
X631Y186D01*
X629Y186D01*
X629Y187D01*
X627Y187D01*
X627Y187D01*
X624Y187D01*
X624Y188D01*
X623Y188D01*
X623Y189D01*
X620Y189D01*
X620Y190D01*
X619Y190D01*
X619Y191D01*
X617Y191D01*
X617Y191D01*
X614Y191D01*
X614Y192D01*
X613Y192D01*
X613Y193D01*
X611Y193D01*
X611Y194D01*
X609Y194D01*
X609Y194D01*
X609Y194D01*
X609Y195D01*
X607Y195D01*
X607Y196D01*
X606Y196D01*
X606Y197D01*
X604Y197D01*
X604Y198D01*
X603Y198D01*
X603Y198D01*
X601Y198D01*
X601Y199D01*
X600Y199D01*
X600Y200D01*
X599Y200D01*
X599Y201D01*
X598Y201D01*
X598Y201D01*
X597Y201D01*
X597Y202D01*
X595Y202D01*
X595Y203D01*
X595Y203D01*
X595Y204D01*
X593Y204D01*
X593Y205D01*
X592Y205D01*
X592Y205D01*
X591Y205D01*
X591Y206D01*
X590Y206D01*
X590Y207D01*
X589Y207D01*
X589Y208D01*
X588Y208D01*
X588Y208D01*
X588Y208D01*
X588Y209D01*
X587Y209D01*
X587Y210D01*
X586Y210D01*
X586Y211D01*
X585Y211D01*
X585Y212D01*
X585Y212D01*
X585Y212D01*
X584Y212D01*
X584Y213D01*
X583Y213D01*
X583Y214D01*
X582Y214D01*
X582Y215D01*
X581Y215D01*
X581Y215D01*
X580Y215D01*
X580Y216D01*
X579Y216D01*
X579Y218D01*
X578Y218D01*
X578Y218D01*
X578Y218D01*
X578Y219D01*
X577Y219D01*
X577Y220D01*
X576Y220D01*
X576Y221D01*
X575Y221D01*
X575Y222D01*
X575Y222D01*
X575Y223D01*
X574Y223D01*
X574Y225D01*
X573Y225D01*
X573Y225D01*
X572Y225D01*
X572Y227D01*
X571Y227D01*
X571Y228D01*
X571Y228D01*
X571Y229D01*
X570Y229D01*
X570Y229D01*
X569Y229D01*
X569Y231D01*
X568Y231D01*
X568Y232D01*
X568Y232D01*
X568Y233D01*
X567Y233D01*
X567Y235D01*
X566Y235D01*
X566Y236D01*
X565Y236D01*
X565Y239D01*
X564Y239D01*
X564Y240D01*
X564Y240D01*
X564Y242D01*
X563Y242D01*
X563Y244D01*
X562Y244D01*
X562Y246D01*
X561Y246D01*
X561Y249D01*
X561Y249D01*
X561Y251D01*
X560Y251D01*
X560Y254D01*
X559Y254D01*
X559Y257D01*
X558Y257D01*
X558Y258D01*
X557Y258D01*
X557Y261D01*
X557Y261D01*
X557Y266D01*
X556Y266D01*
X556Y272D01*
X555Y272D01*
X555Y295D01*
X556Y295D01*
X556Y299D01*
X557Y299D01*
X557Y303D01*
X557Y303D01*
X557Y306D01*
X558Y306D01*
X558Y306D01*
X559Y306D01*
X559Y309D01*
X560Y309D01*
X560Y312D01*
X561Y312D01*
X561Y313D01*
X561Y313D01*
X561Y316D01*
X562Y316D01*
X562Y317D01*
X563Y317D01*
X563Y320D01*
X564Y320D01*
X564Y321D01*
X564Y321D01*
X564Y323D01*
X565Y323D01*
X565Y324D01*
X566Y324D01*
X566Y326D01*
X567Y326D01*
X567Y327D01*
X568Y327D01*
X568Y328D01*
X568Y328D01*
X568Y330D01*
X569Y330D01*
X569Y331D01*
X570Y331D01*
X570Y332D01*
X571Y332D01*
X571Y333D01*
X571Y333D01*
X571Y333D01*
X572Y333D01*
X572Y335D01*
X573Y335D01*
X573Y336D01*
X574Y336D01*
X574Y337D01*
X575Y337D01*
X575Y338D01*
X575Y338D01*
X575Y339D01*
X576Y339D01*
X576Y340D01*
X577Y340D01*
X577Y341D01*
X578Y341D01*
X578Y343D01*
X579Y343D01*
X579Y344D01*
X580Y344D01*
X580Y345D01*
X581Y345D01*
X581Y346D01*
X582Y346D01*
X582Y347D01*
X582Y347D01*
X582Y347D01*
X583Y347D01*
X583Y348D01*
X584Y348D01*
X584Y349D01*
X585Y349D01*
X585Y350D01*
X585Y350D01*
X585Y351D01*
X587Y351D01*
X587Y351D01*
X588Y351D01*
X588Y352D01*
X588Y352D01*
X588Y353D01*
X589Y353D01*
X589Y354D01*
X590Y354D01*
X590Y354D01*
X591Y354D01*
X591Y355D01*
X592Y355D01*
X592Y356D01*
X593Y356D01*
X593Y357D01*
X595Y357D01*
X595Y358D01*
X595Y358D01*
X595Y358D01*
X597Y358D01*
X597Y359D01*
X598Y359D01*
X598Y361D01*
X597Y361D01*
X597Y362D01*
X596Y362D01*
X596Y364D01*
X595Y364D01*
X595Y365D01*
X595Y365D01*
X595Y366D01*
X594Y366D01*
X594Y367D01*
X593Y367D01*
X593Y368D01*
X592Y368D01*
X592Y369D01*
X592Y369D01*
X592Y371D01*
X591Y371D01*
X591Y372D01*
X590Y372D01*
X590Y373D01*
X589Y373D01*
X589Y375D01*
X588Y375D01*
X588Y376D01*
X588Y376D01*
X588Y378D01*
X587Y378D01*
X587Y379D01*
X586Y379D01*
X586Y380D01*
X585Y380D01*
X585Y382D01*
X585Y382D01*
X585Y383D01*
X584Y383D01*
X584Y385D01*
X583Y385D01*
X583Y386D01*
X582Y386D01*
X582Y387D01*
X582Y387D01*
X582Y388D01*
X581Y388D01*
X581Y389D01*
X580Y389D01*
X580Y391D01*
X579Y391D01*
X579Y392D01*
X578Y392D01*
X578Y393D01*
X578Y393D01*
X578Y395D01*
X577Y395D01*
X577Y396D01*
X576Y396D01*
X576Y398D01*
X575Y398D01*
X575Y399D01*
X575Y399D01*
X575Y400D01*
X574Y400D01*
X574Y402D01*
X573Y402D01*
X573Y403D01*
X638Y403D01*
G37*
D02*
G36*
X492Y458D02*
X492Y457D01*
X491Y457D01*
X491Y458D01*
X492Y458D01*
G37*
D02*
G36*
X302Y458D02*
X302Y457D01*
X299Y457D01*
X299Y458D01*
X302Y458D01*
G37*
D02*
G36*
X494Y457D02*
X494Y456D01*
X493Y456D01*
X493Y457D01*
X494Y457D01*
G37*
D02*
G36*
X299Y457D02*
X299Y456D01*
X297Y456D01*
X297Y457D01*
X299Y457D01*
G37*
D02*
G36*
X497Y456D02*
X497Y455D01*
X495Y455D01*
X495Y456D01*
X497Y456D01*
G37*
D02*
G36*
X296Y456D02*
X296Y455D01*
X295Y455D01*
X295Y456D01*
X296Y456D01*
G37*
D02*
G36*
X294Y455D02*
X294Y455D01*
X293Y455D01*
X293Y455D01*
X294Y455D01*
G37*
D02*
G36*
X506Y454D02*
X506Y453D01*
X505Y453D01*
X505Y454D01*
X506Y454D01*
G37*
D02*
G36*
X508Y453D02*
X508Y452D01*
X507Y452D01*
X507Y453D01*
X508Y453D01*
G37*
D02*
G36*
X286Y453D02*
X286Y452D01*
X285Y452D01*
X285Y453D01*
X286Y453D01*
G37*
D02*
G36*
X511Y452D02*
X511Y452D01*
X509Y452D01*
X509Y452D01*
X511Y452D01*
G37*
D02*
G36*
X285Y452D02*
X285Y452D01*
X283Y452D01*
X283Y452D01*
X285Y452D01*
G37*
D02*
G36*
X664Y452D02*
X664Y451D01*
X663Y451D01*
X663Y450D01*
X662Y450D01*
X662Y451D01*
X662Y451D01*
X662Y452D01*
X664Y452D01*
G37*
D02*
G36*
X623Y452D02*
X623Y451D01*
X622Y451D01*
X622Y452D01*
X623Y452D01*
G37*
D02*
G36*
X514Y452D02*
X514Y451D01*
X515Y451D01*
X515Y445D01*
X394Y445D01*
X394Y446D01*
X403Y446D01*
X403Y447D01*
X420Y447D01*
X420Y448D01*
X440Y448D01*
X440Y449D01*
X460Y449D01*
X460Y449D01*
X480Y449D01*
X480Y450D01*
X501Y450D01*
X501Y451D01*
X511Y451D01*
X511Y452D01*
X514Y452D01*
G37*
D02*
G36*
X393Y446D02*
X393Y445D01*
X390Y445D01*
X390Y446D01*
X393Y446D01*
G37*
D02*
G36*
X515Y445D02*
X515Y445D01*
X385Y445D01*
X385Y445D01*
X515Y445D01*
G37*
D02*
G36*
X515Y445D02*
X515Y445D01*
X385Y445D01*
X385Y445D01*
X515Y445D01*
G37*
D02*
G36*
X515Y445D02*
X515Y438D01*
X516Y438D01*
X516Y417D01*
X517Y417D01*
X517Y415D01*
X516Y415D01*
X516Y357D01*
X515Y357D01*
X515Y356D01*
X516Y356D01*
X516Y355D01*
X515Y355D01*
X515Y353D01*
X516Y353D01*
X516Y337D01*
X515Y337D01*
X515Y330D01*
X516Y330D01*
X516Y314D01*
X515Y314D01*
X515Y306D01*
X516Y306D01*
X516Y302D01*
X515Y302D01*
X515Y302D01*
X516Y302D01*
X516Y299D01*
X515Y299D01*
X515Y237D01*
X515Y237D01*
X515Y233D01*
X515Y233D01*
X515Y219D01*
X515Y219D01*
X515Y211D01*
X515Y211D01*
X515Y201D01*
X515Y201D01*
X515Y190D01*
X515Y190D01*
X515Y184D01*
X515Y184D01*
X515Y183D01*
X515Y183D01*
X515Y182D01*
X515Y182D01*
X515Y180D01*
X512Y180D01*
X512Y180D01*
X408Y180D01*
X408Y180D01*
X422Y180D01*
X422Y181D01*
X436Y181D01*
X436Y182D01*
X449Y182D01*
X449Y183D01*
X463Y183D01*
X463Y184D01*
X485Y184D01*
X485Y184D01*
X498Y184D01*
X498Y185D01*
X508Y185D01*
X508Y222D01*
X509Y222D01*
X509Y223D01*
X508Y223D01*
X508Y239D01*
X509Y239D01*
X509Y244D01*
X508Y244D01*
X508Y258D01*
X509Y258D01*
X509Y265D01*
X508Y265D01*
X508Y267D01*
X509Y267D01*
X509Y269D01*
X508Y269D01*
X508Y270D01*
X509Y270D01*
X509Y271D01*
X508Y271D01*
X508Y278D01*
X509Y278D01*
X509Y294D01*
X508Y294D01*
X508Y296D01*
X509Y296D01*
X509Y326D01*
X510Y326D01*
X510Y327D01*
X509Y327D01*
X509Y327D01*
X510Y327D01*
X510Y330D01*
X509Y330D01*
X509Y345D01*
X510Y345D01*
X510Y351D01*
X509Y351D01*
X509Y354D01*
X510Y354D01*
X510Y360D01*
X509Y360D01*
X509Y364D01*
X510Y364D01*
X510Y372D01*
X509Y372D01*
X509Y373D01*
X510Y373D01*
X510Y445D01*
X515Y445D01*
G37*
D02*
G36*
X479Y444D02*
X479Y443D01*
X478Y443D01*
X478Y444D01*
X479Y444D01*
G37*
D02*
G36*
X498Y180D02*
X498Y179D01*
X347Y179D01*
X347Y180D01*
X498Y180D01*
G37*
D02*
G36*
X498Y180D02*
X498Y179D01*
X347Y179D01*
X347Y180D01*
X498Y180D01*
G37*
D02*
G36*
X485Y179D02*
X485Y178D01*
X471Y178D01*
X471Y177D01*
X449Y177D01*
X449Y177D01*
X435Y177D01*
X435Y176D01*
X422Y176D01*
X422Y175D01*
X411Y175D01*
X411Y174D01*
X379Y174D01*
X379Y175D01*
X372Y175D01*
X372Y176D01*
X366Y176D01*
X366Y177D01*
X361Y177D01*
X361Y177D01*
X355Y177D01*
X355Y178D01*
X351Y178D01*
X351Y179D01*
X485Y179D01*
G37*
D02*
G36*
X452Y177D02*
X452Y177D01*
X450Y177D01*
X450Y177D01*
X452Y177D01*
G37*
D02*
G36*
X425Y176D02*
X425Y175D01*
X423Y175D01*
X423Y176D01*
X425Y176D01*
G37*
D02*
G36*
X282Y452D02*
X282Y451D01*
X282Y451D01*
X282Y452D01*
X282Y452D01*
G37*
D02*
G36*
X624Y451D02*
X624Y450D01*
X623Y450D01*
X623Y451D01*
X624Y451D01*
G37*
D02*
G36*
X281Y451D02*
X281Y450D01*
X280Y450D01*
X280Y451D01*
X281Y451D01*
G37*
D02*
G36*
X662Y450D02*
X662Y449D01*
X661Y449D01*
X661Y450D01*
X662Y450D01*
G37*
D02*
G36*
X625Y450D02*
X625Y449D01*
X624Y449D01*
X624Y450D01*
X625Y450D01*
G37*
D02*
G36*
X279Y450D02*
X279Y449D01*
X278Y449D01*
X278Y450D01*
X279Y450D01*
G37*
D02*
G36*
X661Y449D02*
X661Y449D01*
X660Y449D01*
X660Y449D01*
X661Y449D01*
G37*
D02*
G36*
X626Y449D02*
X626Y449D01*
X625Y449D01*
X625Y449D01*
X626Y449D01*
G37*
D02*
G36*
X277Y449D02*
X277Y449D01*
X276Y449D01*
X276Y449D01*
X277Y449D01*
G37*
D02*
G36*
X660Y449D02*
X660Y448D01*
X659Y448D01*
X659Y449D01*
X660Y449D01*
G37*
D02*
G36*
X275Y449D02*
X275Y448D01*
X275Y448D01*
X275Y449D01*
X275Y449D01*
G37*
D02*
G36*
X272Y447D02*
X272Y446D01*
X271Y446D01*
X271Y447D01*
X272Y447D01*
G37*
D02*
G36*
X268Y445D02*
X268Y445D01*
X268Y445D01*
X268Y445D01*
X268Y445D01*
G37*
D02*
G36*
X263Y442D02*
X263Y442D01*
X262Y442D01*
X262Y442D01*
X263Y442D01*
G37*
D02*
G36*
X261Y442D02*
X261Y441D01*
X260Y441D01*
X260Y442D01*
X261Y442D01*
G37*
D02*
G36*
X259Y441D02*
X259Y440D01*
X258Y440D01*
X258Y441D01*
X259Y441D01*
G37*
D02*
G36*
X257Y439D02*
X257Y438D01*
X256Y438D01*
X256Y439D01*
X257Y439D01*
G37*
D02*
G36*
X255Y438D02*
X255Y438D01*
X254Y438D01*
X254Y438D01*
X255Y438D01*
G37*
D02*
G36*
X251Y436D02*
X251Y435D01*
X250Y435D01*
X250Y436D01*
X251Y436D01*
G37*
D02*
G36*
X250Y435D02*
X250Y435D01*
X250Y435D01*
X250Y435D01*
X250Y435D01*
G37*
D02*
G36*
X249Y435D02*
X249Y434D01*
X248Y434D01*
X248Y435D01*
X249Y435D01*
G37*
D02*
G36*
X247Y434D02*
X247Y433D01*
X247Y433D01*
X247Y434D01*
X247Y434D01*
G37*
D02*
G36*
X240Y428D02*
X240Y428D01*
X239Y428D01*
X239Y428D01*
X240Y428D01*
G37*
D02*
G36*
X239Y428D02*
X239Y427D01*
X238Y427D01*
X238Y428D01*
X239Y428D01*
G37*
D02*
G36*
X236Y425D02*
X236Y424D01*
X235Y424D01*
X235Y425D01*
X236Y425D01*
G37*
D02*
G36*
X235Y424D02*
X235Y424D01*
X234Y424D01*
X234Y424D01*
X235Y424D01*
G37*
D02*
G36*
X230Y421D02*
X230Y420D01*
X229Y420D01*
X229Y421D01*
X230Y421D01*
G37*
D02*
G36*
X227Y418D02*
X227Y417D01*
X226Y417D01*
X226Y418D01*
X227Y418D01*
G37*
D02*
G36*
X226Y417D02*
X226Y417D01*
X226Y417D01*
X226Y417D01*
X226Y417D01*
G37*
D02*
G36*
X224Y415D02*
X224Y414D01*
X223Y414D01*
X223Y415D01*
X224Y415D01*
G37*
D02*
G36*
X223Y414D02*
X223Y414D01*
X223Y414D01*
X223Y414D01*
X223Y414D01*
G37*
D02*
G36*
X223Y414D02*
X223Y413D01*
X222Y413D01*
X222Y414D01*
X223Y414D01*
G37*
D02*
G36*
X222Y413D02*
X222Y412D01*
X221Y412D01*
X221Y413D01*
X222Y413D01*
G37*
D02*
G36*
X221Y412D02*
X221Y411D01*
X220Y411D01*
X220Y412D01*
X221Y412D01*
G37*
D02*
G36*
X220Y411D02*
X220Y410D01*
X219Y410D01*
X219Y411D01*
X220Y411D01*
G37*
D02*
G36*
X219Y410D02*
X219Y410D01*
X219Y410D01*
X219Y410D01*
X219Y410D01*
G37*
D02*
G36*
X219Y410D02*
X219Y409D01*
X218Y409D01*
X218Y410D01*
X219Y410D01*
G37*
D02*
G36*
X218Y409D02*
X218Y408D01*
X217Y408D01*
X217Y409D01*
X218Y409D01*
G37*
D02*
G36*
X217Y408D02*
X217Y407D01*
X216Y407D01*
X216Y408D01*
X217Y408D01*
G37*
D02*
G36*
X216Y407D02*
X216Y407D01*
X216Y407D01*
X216Y407D01*
X216Y407D01*
G37*
D02*
G36*
X216Y407D02*
X216Y405D01*
X215Y405D01*
X215Y404D01*
X214Y404D01*
X214Y406D01*
X215Y406D01*
X215Y407D01*
X216Y407D01*
G37*
D02*
G36*
X214Y404D02*
X214Y403D01*
X213Y403D01*
X213Y404D01*
X214Y404D01*
G37*
D02*
G36*
X213Y403D02*
X213Y403D01*
X212Y403D01*
X212Y403D01*
X213Y403D01*
G37*
D02*
G36*
X212Y403D02*
X212Y402D01*
X212Y402D01*
X212Y403D01*
X212Y403D01*
G37*
D02*
G36*
X212Y401D02*
X212Y400D01*
X211Y400D01*
X211Y401D01*
X212Y401D01*
G37*
D02*
G36*
X211Y400D02*
X211Y400D01*
X210Y400D01*
X210Y400D01*
X211Y400D01*
G37*
D02*
G36*
X210Y400D02*
X210Y399D01*
X209Y399D01*
X209Y400D01*
X210Y400D01*
G37*
D02*
G36*
X209Y398D02*
X209Y397D01*
X209Y397D01*
X209Y398D01*
X209Y398D01*
G37*
D02*
G36*
X209Y397D02*
X209Y396D01*
X208Y396D01*
X208Y397D01*
X209Y397D01*
G37*
D02*
G36*
X208Y396D02*
X208Y396D01*
X207Y396D01*
X207Y396D01*
X208Y396D01*
G37*
D02*
G36*
X207Y396D02*
X207Y395D01*
X206Y395D01*
X206Y396D01*
X207Y396D01*
G37*
D02*
G36*
X206Y395D02*
X206Y394D01*
X205Y394D01*
X205Y395D01*
X206Y395D01*
G37*
D02*
G36*
X205Y393D02*
X205Y393D01*
X205Y393D01*
X205Y393D01*
X205Y393D01*
G37*
D02*
G36*
X205Y393D02*
X205Y391D01*
X204Y391D01*
X204Y393D01*
X205Y393D01*
G37*
D02*
G36*
X204Y391D02*
X204Y390D01*
X203Y390D01*
X203Y391D01*
X204Y391D01*
G37*
D02*
G36*
X203Y390D02*
X203Y388D01*
X202Y388D01*
X202Y386D01*
X202Y386D01*
X202Y386D01*
X201Y386D01*
X201Y387D01*
X202Y387D01*
X202Y389D01*
X202Y389D01*
X202Y390D01*
X203Y390D01*
G37*
D02*
G36*
X201Y386D02*
X201Y384D01*
X200Y384D01*
X200Y386D01*
X201Y386D01*
G37*
D02*
G36*
X200Y384D02*
X200Y382D01*
X199Y382D01*
X199Y384D01*
X200Y384D01*
G37*
D02*
G36*
X440Y382D02*
X440Y381D01*
X439Y381D01*
X439Y382D01*
X411Y382D01*
X411Y382D01*
X440Y382D01*
G37*
D02*
G36*
X199Y382D02*
X199Y381D01*
X198Y381D01*
X198Y382D01*
X199Y382D01*
G37*
D02*
G36*
X410Y382D02*
X410Y381D01*
X397Y381D01*
X397Y382D01*
X410Y382D01*
G37*
D02*
G36*
X439Y381D02*
X439Y373D01*
X440Y373D01*
X440Y372D01*
X439Y372D01*
X439Y339D01*
X439Y339D01*
X439Y340D01*
X438Y340D01*
X438Y347D01*
X439Y347D01*
X439Y354D01*
X438Y354D01*
X438Y355D01*
X439Y355D01*
X439Y381D01*
X439Y381D01*
G37*
D02*
G36*
X397Y381D02*
X397Y380D01*
X393Y380D01*
X393Y381D01*
X397Y381D01*
G37*
D02*
G36*
X198Y381D02*
X198Y379D01*
X198Y379D01*
X198Y381D01*
X198Y381D01*
G37*
D02*
G36*
X391Y380D02*
X391Y379D01*
X389Y379D01*
X389Y380D01*
X391Y380D01*
G37*
D02*
G36*
X387Y379D02*
X387Y379D01*
X386Y379D01*
X386Y379D01*
X387Y379D01*
G37*
D02*
G36*
X198Y379D02*
X198Y378D01*
X197Y378D01*
X197Y379D01*
X198Y379D01*
G37*
D02*
G36*
X383Y379D02*
X383Y378D01*
X383Y378D01*
X383Y379D01*
X383Y379D01*
G37*
D02*
G36*
X380Y378D02*
X380Y377D01*
X379Y377D01*
X379Y378D01*
X380Y378D01*
G37*
D02*
G36*
X378Y377D02*
X378Y376D01*
X376Y376D01*
X376Y377D01*
X378Y377D01*
G37*
D02*
G36*
X197Y377D02*
X197Y376D01*
X196Y376D01*
X196Y377D01*
X197Y377D01*
G37*
D02*
G36*
X376Y376D02*
X376Y375D01*
X374Y375D01*
X374Y376D01*
X376Y376D01*
G37*
D02*
G36*
X373Y375D02*
X373Y375D01*
X372Y375D01*
X372Y375D01*
X373Y375D01*
G37*
D02*
G36*
X196Y375D02*
X196Y375D01*
X195Y375D01*
X195Y375D01*
X196Y375D01*
G37*
D02*
G36*
X372Y375D02*
X372Y374D01*
X370Y374D01*
X370Y375D01*
X372Y375D01*
G37*
D02*
G36*
X369Y374D02*
X369Y373D01*
X369Y373D01*
X369Y374D01*
X369Y374D01*
G37*
D02*
G36*
X195Y374D02*
X195Y373D01*
X195Y373D01*
X195Y374D01*
X195Y374D01*
G37*
D02*
G36*
X368Y373D02*
X368Y372D01*
X366Y372D01*
X366Y373D01*
X368Y373D01*
G37*
D02*
G36*
X365Y372D02*
X365Y372D01*
X365Y372D01*
X365Y372D01*
X365Y372D01*
G37*
D02*
G36*
X363Y372D02*
X363Y371D01*
X362Y371D01*
X362Y372D01*
X363Y372D01*
G37*
D02*
G36*
X362Y371D02*
X362Y370D01*
X361Y370D01*
X361Y371D01*
X362Y371D01*
G37*
D02*
G36*
X360Y370D02*
X360Y369D01*
X359Y369D01*
X359Y370D01*
X360Y370D01*
G37*
D02*
G36*
X194Y370D02*
X194Y369D01*
X193Y369D01*
X193Y370D01*
X194Y370D01*
G37*
D02*
G36*
X359Y369D02*
X359Y368D01*
X358Y368D01*
X358Y369D01*
X359Y369D01*
G37*
D02*
G36*
X358Y368D02*
X358Y368D01*
X357Y368D01*
X357Y368D01*
X358Y368D01*
G37*
D02*
G36*
X193Y368D02*
X193Y367D01*
X192Y367D01*
X192Y368D01*
X193Y368D01*
G37*
D02*
G36*
X356Y368D02*
X356Y367D01*
X355Y367D01*
X355Y368D01*
X356Y368D01*
G37*
D02*
G36*
X355Y367D02*
X355Y366D01*
X355Y366D01*
X355Y367D01*
X355Y367D01*
G37*
D02*
G36*
X192Y367D02*
X192Y364D01*
X191Y364D01*
X191Y361D01*
X191Y361D01*
X191Y358D01*
X190Y358D01*
X190Y355D01*
X189Y355D01*
X189Y352D01*
X188Y352D01*
X188Y356D01*
X189Y356D01*
X189Y359D01*
X190Y359D01*
X190Y362D01*
X191Y362D01*
X191Y365D01*
X191Y365D01*
X191Y367D01*
X192Y367D01*
G37*
D02*
G36*
X354Y366D02*
X354Y365D01*
X353Y365D01*
X353Y366D01*
X354Y366D01*
G37*
D02*
G36*
X353Y365D02*
X353Y365D01*
X351Y365D01*
X351Y365D01*
X353Y365D01*
G37*
D02*
G36*
X362Y365D02*
X362Y364D01*
X361Y364D01*
X361Y365D01*
X362Y365D01*
G37*
D02*
G36*
X351Y365D02*
X351Y364D01*
X351Y364D01*
X351Y365D01*
X351Y365D01*
G37*
D02*
G36*
X365Y364D02*
X365Y359D01*
X365Y359D01*
X365Y354D01*
X365Y354D01*
X365Y351D01*
X365Y351D01*
X365Y344D01*
X364Y344D01*
X364Y363D01*
X365Y363D01*
X365Y364D01*
X365Y364D01*
G37*
D02*
G36*
X361Y364D02*
X361Y363D01*
X360Y363D01*
X360Y364D01*
X361Y364D01*
G37*
D02*
G36*
X351Y364D02*
X351Y363D01*
X349Y363D01*
X349Y364D01*
X351Y364D01*
G37*
D02*
G36*
X359Y363D02*
X359Y362D01*
X358Y362D01*
X358Y363D01*
X359Y363D01*
G37*
D02*
G36*
X349Y363D02*
X349Y362D01*
X348Y362D01*
X348Y363D01*
X349Y363D01*
G37*
D02*
G36*
X358Y362D02*
X358Y361D01*
X358Y361D01*
X358Y362D01*
X358Y362D01*
G37*
D02*
G36*
X348Y362D02*
X348Y361D01*
X348Y361D01*
X348Y362D01*
X348Y362D01*
G37*
D02*
G36*
X358Y361D02*
X358Y361D01*
X356Y361D01*
X356Y361D01*
X358Y361D01*
G37*
D02*
G36*
X348Y361D02*
X348Y361D01*
X347Y361D01*
X347Y361D01*
X348Y361D01*
G37*
D02*
G36*
X356Y361D02*
X356Y360D01*
X355Y360D01*
X355Y361D01*
X356Y361D01*
G37*
D02*
G36*
X347Y361D02*
X347Y360D01*
X346Y360D01*
X346Y361D01*
X347Y361D01*
G37*
D02*
G36*
X355Y360D02*
X355Y359D01*
X354Y359D01*
X354Y360D01*
X355Y360D01*
G37*
D02*
G36*
X346Y360D02*
X346Y359D01*
X345Y359D01*
X345Y360D01*
X346Y360D01*
G37*
D02*
G36*
X345Y359D02*
X345Y358D01*
X345Y358D01*
X345Y359D01*
X345Y359D01*
G37*
D02*
G36*
X344Y358D02*
X344Y358D01*
X343Y358D01*
X343Y358D01*
X344Y358D01*
G37*
D02*
G36*
X343Y358D02*
X343Y357D01*
X342Y357D01*
X342Y358D01*
X343Y358D01*
G37*
D02*
G36*
X351Y357D02*
X351Y356D01*
X350Y356D01*
X350Y357D01*
X351Y357D01*
G37*
D02*
G36*
X350Y356D02*
X350Y355D01*
X349Y355D01*
X349Y356D01*
X350Y356D01*
G37*
D02*
G36*
X349Y355D02*
X349Y354D01*
X348Y354D01*
X348Y355D01*
X349Y355D01*
G37*
D02*
G36*
X348Y354D02*
X348Y354D01*
X348Y354D01*
X348Y354D01*
X348Y354D01*
G37*
D02*
G36*
X340Y354D02*
X340Y353D01*
X339Y353D01*
X339Y352D01*
X338Y352D01*
X338Y351D01*
X338Y351D01*
X338Y353D01*
X338Y353D01*
X338Y354D01*
X339Y354D01*
X339Y354D01*
X340Y354D01*
G37*
D02*
G36*
X348Y354D02*
X348Y353D01*
X347Y353D01*
X347Y354D01*
X348Y354D01*
G37*
D02*
G36*
X347Y353D02*
X347Y352D01*
X346Y352D01*
X346Y353D01*
X347Y353D01*
G37*
D02*
G36*
X346Y352D02*
X346Y351D01*
X345Y351D01*
X345Y352D01*
X346Y352D01*
G37*
D02*
G36*
X188Y352D02*
X188Y348D01*
X188Y348D01*
X188Y352D01*
X188Y352D01*
G37*
D02*
G36*
X345Y351D02*
X345Y350D01*
X345Y350D01*
X345Y349D01*
X344Y349D01*
X344Y351D01*
X345Y351D01*
X345Y351D01*
X345Y351D01*
G37*
D02*
G36*
X338Y351D02*
X338Y351D01*
X337Y351D01*
X337Y351D01*
X338Y351D01*
G37*
D02*
G36*
X337Y351D02*
X337Y349D01*
X336Y349D01*
X336Y351D01*
X337Y351D01*
G37*
D02*
G36*
X344Y349D02*
X344Y348D01*
X343Y348D01*
X343Y349D01*
X344Y349D01*
G37*
D02*
G36*
X336Y349D02*
X336Y348D01*
X335Y348D01*
X335Y349D01*
X336Y349D01*
G37*
D02*
G36*
X343Y348D02*
X343Y347D01*
X342Y347D01*
X342Y348D01*
X343Y348D01*
G37*
D02*
G36*
X335Y348D02*
X335Y347D01*
X334Y347D01*
X334Y348D01*
X335Y348D01*
G37*
D02*
G36*
X188Y348D02*
X188Y342D01*
X187Y342D01*
X187Y348D01*
X188Y348D01*
G37*
D02*
G36*
X342Y347D02*
X342Y346D01*
X341Y346D01*
X341Y345D01*
X341Y345D01*
X341Y344D01*
X340Y344D01*
X340Y346D01*
X341Y346D01*
X341Y347D01*
X341Y347D01*
X341Y347D01*
X342Y347D01*
G37*
D02*
G36*
X334Y347D02*
X334Y346D01*
X334Y346D01*
X334Y347D01*
X334Y347D01*
G37*
D02*
G36*
X334Y346D02*
X334Y344D01*
X333Y344D01*
X333Y346D01*
X334Y346D01*
G37*
D02*
G36*
X340Y344D02*
X340Y344D01*
X339Y344D01*
X339Y344D01*
X340Y344D01*
G37*
D02*
G36*
X333Y344D02*
X333Y343D01*
X332Y343D01*
X332Y344D01*
X333Y344D01*
G37*
D02*
G36*
X365Y344D02*
X365Y342D01*
X365Y342D01*
X365Y340D01*
X365Y340D01*
X365Y340D01*
X365Y340D01*
X365Y339D01*
X365Y339D01*
X365Y333D01*
X365Y333D01*
X365Y331D01*
X365Y331D01*
X365Y322D01*
X365Y322D01*
X365Y320D01*
X365Y320D01*
X365Y320D01*
X365Y320D01*
X365Y319D01*
X365Y319D01*
X365Y312D01*
X365Y312D01*
X365Y311D01*
X365Y311D01*
X365Y301D01*
X365Y301D01*
X365Y300D01*
X365Y300D01*
X365Y299D01*
X365Y299D01*
X365Y299D01*
X365Y299D01*
X365Y292D01*
X365Y292D01*
X365Y291D01*
X365Y291D01*
X365Y279D01*
X365Y279D01*
X365Y278D01*
X365Y278D01*
X365Y265D01*
X364Y265D01*
X364Y344D01*
X365Y344D01*
G37*
D02*
G36*
X339Y344D02*
X339Y343D01*
X338Y343D01*
X338Y344D01*
X339Y344D01*
G37*
D02*
G36*
X332Y343D02*
X332Y342D01*
X331Y342D01*
X331Y343D01*
X332Y343D01*
G37*
D02*
G36*
X338Y342D02*
X338Y341D01*
X338Y341D01*
X338Y342D01*
X338Y342D01*
G37*
D02*
G36*
X187Y342D02*
X187Y337D01*
X186Y337D01*
X186Y342D01*
X187Y342D01*
G37*
D02*
G36*
X338Y341D02*
X338Y340D01*
X337Y340D01*
X337Y341D01*
X338Y341D01*
G37*
D02*
G36*
X331Y341D02*
X331Y340D01*
X331Y340D01*
X331Y341D01*
X331Y341D01*
G37*
D02*
G36*
X337Y340D02*
X337Y338D01*
X336Y338D01*
X336Y340D01*
X337Y340D01*
G37*
D02*
G36*
X331Y340D02*
X331Y339D01*
X330Y339D01*
X330Y340D01*
X331Y340D01*
G37*
D02*
G36*
X439Y339D02*
X439Y305D01*
X438Y305D01*
X438Y304D01*
X439Y304D01*
X439Y303D01*
X438Y303D01*
X438Y299D01*
X439Y299D01*
X439Y298D01*
X438Y298D01*
X438Y262D01*
X437Y262D01*
X437Y249D01*
X438Y249D01*
X438Y247D01*
X437Y247D01*
X437Y243D01*
X430Y243D01*
X430Y243D01*
X436Y243D01*
X436Y264D01*
X437Y264D01*
X437Y306D01*
X438Y306D01*
X438Y339D01*
X439Y339D01*
G37*
D02*
G36*
X336Y338D02*
X336Y337D01*
X335Y337D01*
X335Y338D01*
X336Y338D01*
G37*
D02*
G36*
X330Y338D02*
X330Y337D01*
X329Y337D01*
X329Y338D01*
X330Y338D01*
G37*
D02*
G36*
X335Y337D02*
X335Y334D01*
X334Y334D01*
X334Y333D01*
X334Y333D01*
X334Y335D01*
X334Y335D01*
X334Y337D01*
X335Y337D01*
G37*
D02*
G36*
X186Y337D02*
X186Y333D01*
X185Y333D01*
X185Y337D01*
X186Y337D01*
G37*
D02*
G36*
X329Y336D02*
X329Y335D01*
X328Y335D01*
X328Y336D01*
X329Y336D01*
G37*
D02*
G36*
X334Y333D02*
X334Y330D01*
X333Y330D01*
X333Y333D01*
X334Y333D01*
G37*
D02*
G36*
X327Y332D02*
X327Y330D01*
X326Y330D01*
X326Y331D01*
X327Y331D01*
X327Y332D01*
X327Y332D01*
G37*
D02*
G36*
X186Y332D02*
X186Y313D01*
X185Y313D01*
X185Y332D01*
X186Y332D01*
G37*
D02*
G36*
X333Y330D02*
X333Y327D01*
X332Y327D01*
X332Y323D01*
X331Y323D01*
X331Y328D01*
X332Y328D01*
X332Y330D01*
X333Y330D01*
G37*
D02*
G36*
X327Y329D02*
X327Y327D01*
X326Y327D01*
X326Y329D01*
X327Y329D01*
G37*
D02*
G36*
X326Y327D02*
X326Y323D01*
X325Y323D01*
X325Y327D01*
X326Y327D01*
G37*
D02*
G36*
X331Y323D02*
X331Y320D01*
X331Y320D01*
X331Y323D01*
X331Y323D01*
G37*
D02*
G36*
X325Y323D02*
X325Y316D01*
X324Y316D01*
X324Y299D01*
X325Y299D01*
X325Y292D01*
X324Y292D01*
X324Y296D01*
X324Y296D01*
X324Y320D01*
X324Y320D01*
X324Y323D01*
X325Y323D01*
G37*
D02*
G36*
X331Y320D02*
X331Y316D01*
X330Y316D01*
X330Y320D01*
X331Y320D01*
G37*
D02*
G36*
X330Y316D02*
X330Y304D01*
X331Y304D01*
X331Y292D01*
X330Y292D01*
X330Y300D01*
X329Y300D01*
X329Y316D01*
X330Y316D01*
G37*
D02*
G36*
X187Y313D02*
X187Y306D01*
X186Y306D01*
X186Y313D01*
X187Y313D01*
G37*
D02*
G36*
X188Y306D02*
X188Y302D01*
X188Y302D01*
X188Y298D01*
X189Y298D01*
X189Y295D01*
X190Y295D01*
X190Y292D01*
X191Y292D01*
X191Y289D01*
X191Y289D01*
X191Y288D01*
X192Y288D01*
X192Y285D01*
X191Y285D01*
X191Y287D01*
X191Y287D01*
X191Y288D01*
X190Y288D01*
X190Y292D01*
X189Y292D01*
X189Y295D01*
X188Y295D01*
X188Y297D01*
X188Y297D01*
X188Y302D01*
X187Y302D01*
X187Y306D01*
X188Y306D01*
G37*
D02*
G36*
X326Y292D02*
X326Y289D01*
X325Y289D01*
X325Y292D01*
X326Y292D01*
G37*
D02*
G36*
X331Y292D02*
X331Y290D01*
X331Y290D01*
X331Y292D01*
X331Y292D01*
G37*
D02*
G36*
X332Y289D02*
X332Y287D01*
X333Y287D01*
X333Y285D01*
X332Y285D01*
X332Y286D01*
X331Y286D01*
X331Y289D01*
X332Y289D01*
G37*
D02*
G36*
X327Y288D02*
X327Y286D01*
X326Y286D01*
X326Y288D01*
X327Y288D01*
G37*
D02*
G36*
X327Y285D02*
X327Y285D01*
X327Y285D01*
X327Y285D01*
X327Y285D01*
G37*
D02*
G36*
X193Y285D02*
X193Y283D01*
X192Y283D01*
X192Y285D01*
X193Y285D01*
G37*
D02*
G36*
X334Y285D02*
X334Y281D01*
X334Y281D01*
X334Y278D01*
X334Y278D01*
X334Y281D01*
X333Y281D01*
X333Y285D01*
X334Y285D01*
G37*
D02*
G36*
X194Y283D02*
X194Y281D01*
X193Y281D01*
X193Y283D01*
X194Y283D01*
G37*
D02*
G36*
X328Y282D02*
X328Y281D01*
X327Y281D01*
X327Y282D01*
X328Y282D01*
G37*
D02*
G36*
X195Y281D02*
X195Y280D01*
X194Y280D01*
X194Y281D01*
X195Y281D01*
G37*
D02*
G36*
X329Y281D02*
X329Y279D01*
X328Y279D01*
X328Y281D01*
X329Y281D01*
G37*
D02*
G36*
X195Y280D02*
X195Y279D01*
X195Y279D01*
X195Y280D01*
X195Y280D01*
G37*
D02*
G36*
X335Y278D02*
X335Y277D01*
X334Y277D01*
X334Y278D01*
X335Y278D01*
G37*
D02*
G36*
X196Y278D02*
X196Y278D01*
X195Y278D01*
X195Y278D01*
X196Y278D01*
G37*
D02*
G36*
X330Y278D02*
X330Y277D01*
X329Y277D01*
X329Y278D01*
X330Y278D01*
G37*
D02*
G36*
X336Y277D02*
X336Y275D01*
X335Y275D01*
X335Y277D01*
X336Y277D01*
G37*
D02*
G36*
X331Y276D02*
X331Y274D01*
X330Y274D01*
X330Y276D01*
X331Y276D01*
G37*
D02*
G36*
X337Y275D02*
X337Y274D01*
X336Y274D01*
X336Y275D01*
X337Y275D01*
G37*
D02*
G36*
X198Y275D02*
X198Y274D01*
X197Y274D01*
X197Y275D01*
X198Y275D01*
G37*
D02*
G36*
X331Y274D02*
X331Y273D01*
X331Y273D01*
X331Y274D01*
X331Y274D01*
G37*
D02*
G36*
X338Y274D02*
X338Y272D01*
X337Y272D01*
X337Y274D01*
X338Y274D01*
G37*
D02*
G36*
X198Y274D02*
X198Y272D01*
X198Y272D01*
X198Y274D01*
X198Y274D01*
G37*
D02*
G36*
X332Y273D02*
X332Y271D01*
X331Y271D01*
X331Y273D01*
X332Y273D01*
G37*
D02*
G36*
X199Y272D02*
X199Y271D01*
X198Y271D01*
X198Y272D01*
X199Y272D01*
G37*
D02*
G36*
X333Y271D02*
X333Y270D01*
X332Y270D01*
X332Y271D01*
X333Y271D01*
G37*
D02*
G36*
X200Y271D02*
X200Y270D01*
X199Y270D01*
X199Y271D01*
X200Y271D01*
G37*
D02*
G36*
X334Y270D02*
X334Y268D01*
X333Y268D01*
X333Y270D01*
X334Y270D01*
G37*
D02*
G36*
X201Y270D02*
X201Y269D01*
X200Y269D01*
X200Y270D01*
X201Y270D01*
G37*
D02*
G36*
X341Y269D02*
X341Y267D01*
X340Y267D01*
X340Y269D01*
X341Y269D01*
G37*
D02*
G36*
X334Y268D02*
X334Y267D01*
X334Y267D01*
X334Y268D01*
X334Y268D01*
G37*
D02*
G36*
X202Y268D02*
X202Y267D01*
X201Y267D01*
X201Y268D01*
X202Y268D01*
G37*
D02*
G36*
X341Y267D02*
X341Y267D01*
X341Y267D01*
X341Y267D01*
X341Y267D01*
G37*
D02*
G36*
X202Y267D02*
X202Y266D01*
X202Y266D01*
X202Y267D01*
X202Y267D01*
G37*
D02*
G36*
X342Y267D02*
X342Y266D01*
X343Y266D01*
X343Y264D01*
X342Y264D01*
X342Y265D01*
X341Y265D01*
X341Y267D01*
X342Y267D01*
G37*
D02*
G36*
X335Y267D02*
X335Y266D01*
X334Y266D01*
X334Y267D01*
X335Y267D01*
G37*
D02*
G36*
X336Y266D02*
X336Y265D01*
X337Y265D01*
X337Y264D01*
X336Y264D01*
X336Y264D01*
X335Y264D01*
X335Y266D01*
X336Y266D01*
G37*
D02*
G36*
X203Y266D02*
X203Y265D01*
X202Y265D01*
X202Y266D01*
X203Y266D01*
G37*
D02*
G36*
X363Y265D02*
X363Y264D01*
X362Y264D01*
X362Y265D01*
X363Y265D01*
G37*
D02*
G36*
X204Y265D02*
X204Y264D01*
X205Y264D01*
X205Y263D01*
X204Y263D01*
X204Y264D01*
X203Y264D01*
X203Y265D01*
X204Y265D01*
G37*
D02*
G36*
X361Y264D02*
X361Y264D01*
X352Y264D01*
X352Y264D01*
X361Y264D01*
G37*
D02*
G36*
X344Y264D02*
X344Y264D01*
X343Y264D01*
X343Y264D01*
X344Y264D01*
G37*
D02*
G36*
X351Y264D02*
X351Y263D01*
X345Y263D01*
X345Y264D01*
X351Y264D01*
G37*
D02*
G36*
X338Y264D02*
X338Y263D01*
X337Y263D01*
X337Y264D01*
X338Y264D01*
G37*
D02*
G36*
X338Y263D02*
X338Y262D01*
X338Y262D01*
X338Y263D01*
X338Y263D01*
G37*
D02*
G36*
X205Y263D02*
X205Y262D01*
X205Y262D01*
X205Y263D01*
X205Y263D01*
G37*
D02*
G36*
X339Y262D02*
X339Y261D01*
X340Y261D01*
X340Y260D01*
X339Y260D01*
X339Y260D01*
X338Y260D01*
X338Y262D01*
X339Y262D01*
G37*
D02*
G36*
X206Y262D02*
X206Y260D01*
X205Y260D01*
X205Y262D01*
X206Y262D01*
G37*
D02*
G36*
X207Y260D02*
X207Y260D01*
X206Y260D01*
X206Y260D01*
X207Y260D01*
G37*
D02*
G36*
X208Y260D02*
X208Y258D01*
X207Y258D01*
X207Y260D01*
X208Y260D01*
G37*
D02*
G36*
X210Y257D02*
X210Y256D01*
X209Y256D01*
X209Y257D01*
X210Y257D01*
G37*
D02*
G36*
X345Y256D02*
X345Y255D01*
X345Y255D01*
X345Y256D01*
X345Y256D01*
G37*
D02*
G36*
X346Y255D02*
X346Y254D01*
X345Y254D01*
X345Y255D01*
X346Y255D01*
G37*
D02*
G36*
X212Y255D02*
X212Y254D01*
X211Y254D01*
X211Y255D01*
X212Y255D01*
G37*
D02*
G36*
X347Y254D02*
X347Y253D01*
X346Y253D01*
X346Y254D01*
X347Y254D01*
G37*
D02*
G36*
X348Y253D02*
X348Y253D01*
X347Y253D01*
X347Y253D01*
X348Y253D01*
G37*
D02*
G36*
X212Y253D02*
X212Y253D01*
X212Y253D01*
X212Y253D01*
X212Y253D01*
G37*
D02*
G36*
X349Y253D02*
X349Y252D01*
X348Y252D01*
X348Y253D01*
X349Y253D01*
G37*
D02*
G36*
X213Y253D02*
X213Y252D01*
X212Y252D01*
X212Y253D01*
X213Y253D01*
G37*
D02*
G36*
X350Y252D02*
X350Y251D01*
X349Y251D01*
X349Y252D01*
X350Y252D01*
G37*
D02*
G36*
X214Y252D02*
X214Y251D01*
X213Y251D01*
X213Y252D01*
X214Y252D01*
G37*
D02*
G36*
X351Y251D02*
X351Y250D01*
X350Y250D01*
X350Y251D01*
X351Y251D01*
G37*
D02*
G36*
X215Y251D02*
X215Y250D01*
X214Y250D01*
X214Y251D01*
X215Y251D01*
G37*
D02*
G36*
X352Y250D02*
X352Y250D01*
X351Y250D01*
X351Y250D01*
X352Y250D01*
G37*
D02*
G36*
X216Y250D02*
X216Y250D01*
X215Y250D01*
X215Y250D01*
X216Y250D01*
G37*
D02*
G36*
X354Y250D02*
X354Y249D01*
X353Y249D01*
X353Y250D01*
X354Y250D01*
G37*
D02*
G36*
X216Y250D02*
X216Y249D01*
X216Y249D01*
X216Y250D01*
X216Y250D01*
G37*
D02*
G36*
X355Y249D02*
X355Y248D01*
X355Y248D01*
X355Y249D01*
X355Y249D01*
G37*
D02*
G36*
X217Y249D02*
X217Y248D01*
X216Y248D01*
X216Y249D01*
X217Y249D01*
G37*
D02*
G36*
X357Y248D02*
X357Y247D01*
X356Y247D01*
X356Y248D01*
X357Y248D01*
G37*
D02*
G36*
X218Y248D02*
X218Y247D01*
X217Y247D01*
X217Y248D01*
X218Y248D01*
G37*
D02*
G36*
X358Y247D02*
X358Y246D01*
X358Y246D01*
X358Y247D01*
X358Y247D01*
G37*
D02*
G36*
X219Y247D02*
X219Y246D01*
X218Y246D01*
X218Y247D01*
X219Y247D01*
G37*
D02*
G36*
X361Y246D02*
X361Y246D01*
X359Y246D01*
X359Y246D01*
X361Y246D01*
G37*
D02*
G36*
X219Y246D02*
X219Y246D01*
X219Y246D01*
X219Y246D01*
X219Y246D01*
G37*
D02*
G36*
X363Y246D02*
X363Y245D01*
X362Y245D01*
X362Y246D01*
X363Y246D01*
G37*
D02*
G36*
X220Y246D02*
X220Y245D01*
X219Y245D01*
X219Y246D01*
X220Y246D01*
G37*
D02*
G36*
X365Y245D02*
X365Y244D01*
X364Y244D01*
X364Y245D01*
X365Y245D01*
G37*
D02*
G36*
X221Y245D02*
X221Y244D01*
X220Y244D01*
X220Y245D01*
X221Y245D01*
G37*
D02*
G36*
X369Y244D02*
X369Y243D01*
X366Y243D01*
X366Y244D01*
X369Y244D01*
G37*
D02*
G36*
X372Y243D02*
X372Y243D01*
X369Y243D01*
X369Y243D01*
X372Y243D01*
G37*
D02*
G36*
X427Y243D02*
X427Y242D01*
X418Y242D01*
X418Y243D01*
X427Y243D01*
G37*
D02*
G36*
X375Y243D02*
X375Y242D01*
X372Y242D01*
X372Y243D01*
X375Y243D01*
G37*
D02*
G36*
X414Y242D02*
X414Y241D01*
X406Y241D01*
X406Y242D01*
X414Y242D01*
G37*
D02*
G36*
X379Y242D02*
X379Y241D01*
X376Y241D01*
X376Y242D01*
X379Y242D01*
G37*
D02*
G36*
X225Y242D02*
X225Y241D01*
X224Y241D01*
X224Y242D01*
X225Y242D01*
G37*
D02*
G36*
X401Y241D02*
X401Y240D01*
X398Y240D01*
X398Y241D01*
X401Y241D01*
G37*
D02*
G36*
X384Y241D02*
X384Y240D01*
X383Y240D01*
X383Y241D01*
X384Y241D01*
G37*
D02*
G36*
X226Y241D02*
X226Y240D01*
X225Y240D01*
X225Y241D01*
X226Y241D01*
G37*
D02*
G36*
X226Y240D02*
X226Y239D01*
X226Y239D01*
X226Y240D01*
X226Y240D01*
G37*
D02*
G36*
X227Y239D02*
X227Y239D01*
X226Y239D01*
X226Y239D01*
X227Y239D01*
G37*
D02*
G36*
X228Y239D02*
X228Y238D01*
X227Y238D01*
X227Y239D01*
X228Y239D01*
G37*
D02*
G36*
X229Y238D02*
X229Y237D01*
X228Y237D01*
X228Y238D01*
X229Y238D01*
G37*
D02*
G36*
X230Y237D02*
X230Y236D01*
X231Y236D01*
X231Y236D01*
X230Y236D01*
X230Y236D01*
X229Y236D01*
X229Y237D01*
X230Y237D01*
G37*
D02*
G36*
X232Y236D02*
X232Y235D01*
X231Y235D01*
X231Y236D01*
X232Y236D01*
G37*
D02*
G36*
X233Y235D02*
X233Y234D01*
X232Y234D01*
X232Y235D01*
X233Y235D01*
G37*
D02*
G36*
X233Y234D02*
X233Y233D01*
X233Y233D01*
X233Y234D01*
X233Y234D01*
G37*
D02*
G36*
X234Y233D02*
X234Y232D01*
X233Y232D01*
X233Y233D01*
X234Y233D01*
G37*
D02*
G36*
X236Y232D02*
X236Y232D01*
X235Y232D01*
X235Y232D01*
X236Y232D01*
G37*
D02*
G36*
X238Y231D02*
X238Y230D01*
X237Y230D01*
X237Y231D01*
X238Y231D01*
G37*
D02*
G36*
X239Y230D02*
X239Y229D01*
X238Y229D01*
X238Y230D01*
X239Y230D01*
G37*
D02*
G36*
X240Y229D02*
X240Y229D01*
X239Y229D01*
X239Y229D01*
X240Y229D01*
G37*
D02*
G36*
X241Y229D02*
X241Y228D01*
X240Y228D01*
X240Y229D01*
X241Y229D01*
G37*
D02*
G36*
X242Y228D02*
X242Y227D01*
X241Y227D01*
X241Y228D01*
X242Y228D01*
G37*
D02*
G36*
X243Y227D02*
X243Y226D01*
X243Y226D01*
X243Y227D01*
X243Y227D01*
G37*
D02*
G36*
X244Y226D02*
X244Y225D01*
X243Y225D01*
X243Y226D01*
X244Y226D01*
G37*
D02*
G36*
X246Y225D02*
X246Y225D01*
X245Y225D01*
X245Y225D01*
X246Y225D01*
G37*
D02*
G36*
X247Y225D02*
X247Y224D01*
X246Y224D01*
X246Y225D01*
X247Y225D01*
G37*
D02*
G36*
X248Y224D02*
X248Y223D01*
X247Y223D01*
X247Y224D01*
X248Y224D01*
G37*
D02*
G36*
X250Y223D02*
X250Y222D01*
X249Y222D01*
X249Y223D01*
X250Y223D01*
G37*
D02*
G36*
X250Y222D02*
X250Y222D01*
X250Y222D01*
X250Y222D01*
X250Y222D01*
G37*
D02*
G36*
X252Y222D02*
X252Y221D01*
X251Y221D01*
X251Y222D01*
X252Y222D01*
G37*
D02*
G36*
X253Y221D02*
X253Y220D01*
X252Y220D01*
X252Y221D01*
X253Y221D01*
G37*
D02*
G36*
X254Y220D02*
X254Y219D01*
X254Y219D01*
X254Y220D01*
X254Y220D01*
G37*
D02*
G36*
X256Y219D02*
X256Y218D01*
X254Y218D01*
X254Y219D01*
X256Y219D01*
G37*
D02*
G36*
X257Y218D02*
X257Y218D01*
X256Y218D01*
X256Y218D01*
X257Y218D01*
G37*
D02*
G36*
X258Y218D02*
X258Y217D01*
X257Y217D01*
X257Y218D01*
X258Y218D01*
G37*
D02*
G36*
X260Y217D02*
X260Y216D01*
X259Y216D01*
X259Y217D01*
X260Y217D01*
G37*
D02*
G36*
X261Y216D02*
X261Y215D01*
X260Y215D01*
X260Y216D01*
X261Y216D01*
G37*
D02*
G36*
X264Y215D02*
X264Y214D01*
X263Y214D01*
X263Y215D01*
X264Y215D01*
G37*
D02*
G36*
X265Y214D02*
X265Y213D01*
X264Y213D01*
X264Y214D01*
X265Y214D01*
G37*
D02*
G36*
X267Y213D02*
X267Y212D01*
X266Y212D01*
X266Y213D01*
X267Y213D01*
G37*
D02*
G36*
X268Y212D02*
X268Y212D01*
X268Y212D01*
X268Y212D01*
X268Y212D01*
G37*
D02*
G36*
X270Y212D02*
X270Y211D01*
X268Y211D01*
X268Y212D01*
X270Y212D01*
G37*
D02*
G36*
X271Y211D02*
X271Y210D01*
X270Y210D01*
X270Y211D01*
X271Y211D01*
G37*
D02*
G36*
X273Y210D02*
X273Y209D01*
X272Y209D01*
X272Y210D01*
X273Y210D01*
G37*
D02*
G36*
X275Y209D02*
X275Y208D01*
X274Y208D01*
X274Y209D01*
X275Y209D01*
G37*
D02*
G36*
X277Y208D02*
X277Y208D01*
X275Y208D01*
X275Y208D01*
X277Y208D01*
G37*
D02*
G36*
X278Y208D02*
X278Y207D01*
X277Y207D01*
X277Y208D01*
X278Y208D01*
G37*
D02*
G36*
X279Y207D02*
X279Y206D01*
X278Y206D01*
X278Y207D01*
X279Y207D01*
G37*
D02*
G36*
X281Y206D02*
X281Y205D01*
X280Y205D01*
X280Y206D01*
X281Y206D01*
G37*
D02*
G36*
X283Y205D02*
X283Y205D01*
X282Y205D01*
X282Y205D01*
X283Y205D01*
G37*
D02*
G36*
X285Y205D02*
X285Y204D01*
X284Y204D01*
X284Y205D01*
X285Y205D01*
G37*
D02*
G36*
X287Y204D02*
X287Y203D01*
X285Y203D01*
X285Y204D01*
X287Y204D01*
G37*
D02*
G36*
X289Y203D02*
X289Y202D01*
X287Y202D01*
X287Y203D01*
X289Y203D01*
G37*
D02*
G36*
X290Y202D02*
X290Y201D01*
X289Y201D01*
X289Y202D01*
X290Y202D01*
G37*
D02*
G36*
X292Y201D02*
X292Y201D01*
X291Y201D01*
X291Y201D01*
X292Y201D01*
G37*
D02*
G36*
X293Y201D02*
X293Y200D01*
X292Y200D01*
X292Y201D01*
X293Y201D01*
G37*
D02*
G36*
X295Y200D02*
X295Y199D01*
X294Y199D01*
X294Y200D01*
X295Y200D01*
G37*
D02*
G54D11*
X0Y925D02*
X924Y925D01*
X0Y924D02*
X924Y924D01*
X0Y923D02*
X924Y923D01*
X0Y922D02*
X924Y922D01*
X0Y921D02*
X924Y921D01*
X0Y920D02*
X924Y920D01*
X0Y919D02*
X924Y919D01*
X0Y918D02*
X924Y918D01*
X0Y917D02*
X7Y917D01*
X917Y917D02*
X924Y917D01*
X0Y916D02*
X7Y916D01*
X917Y916D02*
X924Y916D01*
X0Y915D02*
X7Y915D01*
X917Y915D02*
X924Y915D01*
X0Y914D02*
X7Y914D01*
X917Y914D02*
X924Y914D01*
X0Y913D02*
X7Y913D01*
X917Y913D02*
X924Y913D01*
X0Y912D02*
X7Y912D01*
X917Y912D02*
X924Y912D01*
X0Y911D02*
X7Y911D01*
X917Y911D02*
X924Y911D01*
X0Y910D02*
X7Y910D01*
X917Y910D02*
X924Y910D01*
X0Y909D02*
X7Y909D01*
X917Y909D02*
X924Y909D01*
X0Y908D02*
X7Y908D01*
X917Y908D02*
X924Y908D01*
X0Y907D02*
X7Y907D01*
X917Y907D02*
X924Y907D01*
X0Y906D02*
X7Y906D01*
X917Y906D02*
X924Y906D01*
X0Y905D02*
X7Y905D01*
X917Y905D02*
X924Y905D01*
X0Y904D02*
X7Y904D01*
X917Y904D02*
X924Y904D01*
X0Y903D02*
X7Y903D01*
X917Y903D02*
X924Y903D01*
X0Y902D02*
X7Y902D01*
X917Y902D02*
X924Y902D01*
X0Y901D02*
X7Y901D01*
X917Y901D02*
X924Y901D01*
X0Y900D02*
X7Y900D01*
X917Y900D02*
X924Y900D01*
X0Y899D02*
X7Y899D01*
X917Y899D02*
X924Y899D01*
X0Y898D02*
X7Y898D01*
X917Y898D02*
X924Y898D01*
X0Y897D02*
X7Y897D01*
X917Y897D02*
X924Y897D01*
X0Y896D02*
X7Y896D01*
X917Y896D02*
X924Y896D01*
X0Y895D02*
X7Y895D01*
X917Y895D02*
X924Y895D01*
X0Y894D02*
X7Y894D01*
X917Y894D02*
X924Y894D01*
X0Y893D02*
X7Y893D01*
X917Y893D02*
X924Y893D01*
X0Y892D02*
X7Y892D01*
X917Y892D02*
X924Y892D01*
X0Y891D02*
X7Y891D01*
X917Y891D02*
X924Y891D01*
X0Y890D02*
X7Y890D01*
X917Y890D02*
X924Y890D01*
X0Y889D02*
X7Y889D01*
X917Y889D02*
X924Y889D01*
X0Y888D02*
X7Y888D01*
X917Y888D02*
X924Y888D01*
X0Y887D02*
X7Y887D01*
X917Y887D02*
X924Y887D01*
X0Y886D02*
X7Y886D01*
X917Y886D02*
X924Y886D01*
X0Y885D02*
X7Y885D01*
X917Y885D02*
X924Y885D01*
X0Y884D02*
X7Y884D01*
X917Y884D02*
X924Y884D01*
X0Y883D02*
X7Y883D01*
X917Y883D02*
X924Y883D01*
X0Y882D02*
X7Y882D01*
X917Y882D02*
X924Y882D01*
X0Y881D02*
X7Y881D01*
X917Y881D02*
X924Y881D01*
X0Y880D02*
X7Y880D01*
X917Y880D02*
X924Y880D01*
X0Y879D02*
X7Y879D01*
X917Y879D02*
X924Y879D01*
X0Y878D02*
X7Y878D01*
X917Y878D02*
X924Y878D01*
X0Y877D02*
X7Y877D01*
X917Y877D02*
X924Y877D01*
X0Y876D02*
X7Y876D01*
X917Y876D02*
X924Y876D01*
X0Y875D02*
X7Y875D01*
X917Y875D02*
X924Y875D01*
X0Y874D02*
X7Y874D01*
X917Y874D02*
X924Y874D01*
X0Y873D02*
X7Y873D01*
X917Y873D02*
X924Y873D01*
X0Y872D02*
X7Y872D01*
X917Y872D02*
X924Y872D01*
X0Y871D02*
X7Y871D01*
X917Y871D02*
X924Y871D01*
X0Y870D02*
X7Y870D01*
X917Y870D02*
X924Y870D01*
X0Y869D02*
X7Y869D01*
X917Y869D02*
X924Y869D01*
X0Y868D02*
X7Y868D01*
X917Y868D02*
X924Y868D01*
X0Y867D02*
X7Y867D01*
X917Y867D02*
X924Y867D01*
X0Y866D02*
X7Y866D01*
X917Y866D02*
X924Y866D01*
X0Y865D02*
X7Y865D01*
X917Y865D02*
X924Y865D01*
X0Y864D02*
X7Y864D01*
X917Y864D02*
X924Y864D01*
X0Y863D02*
X7Y863D01*
X917Y863D02*
X924Y863D01*
X0Y862D02*
X7Y862D01*
X917Y862D02*
X924Y862D01*
X0Y861D02*
X7Y861D01*
X917Y861D02*
X924Y861D01*
X0Y860D02*
X7Y860D01*
X917Y860D02*
X924Y860D01*
X0Y859D02*
X7Y859D01*
X917Y859D02*
X924Y859D01*
X0Y858D02*
X7Y858D01*
X917Y858D02*
X924Y858D01*
X0Y857D02*
X7Y857D01*
X917Y857D02*
X924Y857D01*
X0Y856D02*
X7Y856D01*
X917Y856D02*
X924Y856D01*
X0Y855D02*
X7Y855D01*
X917Y855D02*
X924Y855D01*
X0Y854D02*
X7Y854D01*
X917Y854D02*
X924Y854D01*
X0Y853D02*
X7Y853D01*
X917Y853D02*
X924Y853D01*
X0Y852D02*
X7Y852D01*
X917Y852D02*
X924Y852D01*
X0Y851D02*
X7Y851D01*
X917Y851D02*
X924Y851D01*
X0Y850D02*
X7Y850D01*
X917Y850D02*
X924Y850D01*
X0Y849D02*
X7Y849D01*
X917Y849D02*
X924Y849D01*
X0Y848D02*
X7Y848D01*
X917Y848D02*
X924Y848D01*
X0Y847D02*
X7Y847D01*
X917Y847D02*
X924Y847D01*
X0Y846D02*
X7Y846D01*
X917Y846D02*
X924Y846D01*
X0Y845D02*
X7Y845D01*
X917Y845D02*
X924Y845D01*
X0Y844D02*
X7Y844D01*
X917Y844D02*
X924Y844D01*
X0Y843D02*
X7Y843D01*
X917Y843D02*
X924Y843D01*
X0Y842D02*
X7Y842D01*
X917Y842D02*
X924Y842D01*
X0Y841D02*
X7Y841D01*
X917Y841D02*
X924Y841D01*
X0Y840D02*
X7Y840D01*
X917Y840D02*
X924Y840D01*
X0Y839D02*
X7Y839D01*
X917Y839D02*
X924Y839D01*
X0Y838D02*
X7Y838D01*
X917Y838D02*
X924Y838D01*
X0Y837D02*
X7Y837D01*
X917Y837D02*
X924Y837D01*
X0Y836D02*
X7Y836D01*
X917Y836D02*
X924Y836D01*
X0Y835D02*
X7Y835D01*
X917Y835D02*
X924Y835D01*
X0Y834D02*
X7Y834D01*
X917Y834D02*
X924Y834D01*
X0Y833D02*
X7Y833D01*
X917Y833D02*
X924Y833D01*
X0Y832D02*
X7Y832D01*
X917Y832D02*
X924Y832D01*
X0Y831D02*
X7Y831D01*
X917Y831D02*
X924Y831D01*
X0Y830D02*
X7Y830D01*
X917Y830D02*
X924Y830D01*
X0Y829D02*
X7Y829D01*
X917Y829D02*
X924Y829D01*
X0Y828D02*
X7Y828D01*
X917Y828D02*
X924Y828D01*
X0Y827D02*
X7Y827D01*
X917Y827D02*
X924Y827D01*
X0Y826D02*
X7Y826D01*
X917Y826D02*
X924Y826D01*
X0Y825D02*
X7Y825D01*
X917Y825D02*
X924Y825D01*
X0Y824D02*
X7Y824D01*
X917Y824D02*
X924Y824D01*
X0Y823D02*
X7Y823D01*
X917Y823D02*
X924Y823D01*
X0Y822D02*
X7Y822D01*
X917Y822D02*
X924Y822D01*
X0Y821D02*
X7Y821D01*
X917Y821D02*
X924Y821D01*
X0Y820D02*
X7Y820D01*
X917Y820D02*
X924Y820D01*
X0Y819D02*
X7Y819D01*
X917Y819D02*
X924Y819D01*
X0Y818D02*
X7Y818D01*
X917Y818D02*
X924Y818D01*
X0Y817D02*
X7Y817D01*
X917Y817D02*
X924Y817D01*
X0Y816D02*
X7Y816D01*
X917Y816D02*
X924Y816D01*
X0Y815D02*
X7Y815D01*
X917Y815D02*
X924Y815D01*
X0Y814D02*
X7Y814D01*
X917Y814D02*
X924Y814D01*
X0Y813D02*
X7Y813D01*
X917Y813D02*
X924Y813D01*
X0Y812D02*
X7Y812D01*
X917Y812D02*
X924Y812D01*
X0Y811D02*
X7Y811D01*
X917Y811D02*
X924Y811D01*
X0Y810D02*
X7Y810D01*
X917Y810D02*
X924Y810D01*
X0Y809D02*
X7Y809D01*
X917Y809D02*
X924Y809D01*
X0Y808D02*
X7Y808D01*
X917Y808D02*
X924Y808D01*
X0Y807D02*
X7Y807D01*
X917Y807D02*
X924Y807D01*
X0Y806D02*
X7Y806D01*
X917Y806D02*
X924Y806D01*
X0Y805D02*
X7Y805D01*
X917Y805D02*
X924Y805D01*
X0Y804D02*
X7Y804D01*
X917Y804D02*
X924Y804D01*
X0Y803D02*
X7Y803D01*
X917Y803D02*
X924Y803D01*
X0Y802D02*
X7Y802D01*
X917Y802D02*
X924Y802D01*
X0Y801D02*
X7Y801D01*
X917Y801D02*
X924Y801D01*
X0Y800D02*
X7Y800D01*
X917Y800D02*
X924Y800D01*
X0Y799D02*
X7Y799D01*
X917Y799D02*
X924Y799D01*
X0Y798D02*
X7Y798D01*
X917Y798D02*
X924Y798D01*
X0Y797D02*
X7Y797D01*
X917Y797D02*
X924Y797D01*
X0Y796D02*
X7Y796D01*
X917Y796D02*
X924Y796D01*
X0Y795D02*
X7Y795D01*
X917Y795D02*
X924Y795D01*
X0Y794D02*
X7Y794D01*
X917Y794D02*
X924Y794D01*
X0Y793D02*
X7Y793D01*
X917Y793D02*
X924Y793D01*
X0Y792D02*
X7Y792D01*
X917Y792D02*
X924Y792D01*
X0Y791D02*
X7Y791D01*
X917Y791D02*
X924Y791D01*
X0Y790D02*
X7Y790D01*
X917Y790D02*
X924Y790D01*
X0Y789D02*
X7Y789D01*
X917Y789D02*
X924Y789D01*
X0Y788D02*
X7Y788D01*
X917Y788D02*
X924Y788D01*
X0Y787D02*
X7Y787D01*
X917Y787D02*
X924Y787D01*
X0Y786D02*
X7Y786D01*
X917Y786D02*
X924Y786D01*
X0Y785D02*
X7Y785D01*
X917Y785D02*
X924Y785D01*
X0Y784D02*
X7Y784D01*
X917Y784D02*
X924Y784D01*
X0Y783D02*
X7Y783D01*
X917Y783D02*
X924Y783D01*
X0Y782D02*
X7Y782D01*
X917Y782D02*
X924Y782D01*
X0Y781D02*
X7Y781D01*
X917Y781D02*
X924Y781D01*
X0Y780D02*
X7Y780D01*
X917Y780D02*
X924Y780D01*
X0Y779D02*
X7Y779D01*
X917Y779D02*
X924Y779D01*
X0Y778D02*
X7Y778D01*
X917Y778D02*
X924Y778D01*
X0Y777D02*
X7Y777D01*
X917Y777D02*
X924Y777D01*
X0Y776D02*
X7Y776D01*
X917Y776D02*
X924Y776D01*
X0Y775D02*
X7Y775D01*
X917Y775D02*
X924Y775D01*
X0Y774D02*
X7Y774D01*
X917Y774D02*
X924Y774D01*
X0Y773D02*
X7Y773D01*
X917Y773D02*
X924Y773D01*
X0Y772D02*
X7Y772D01*
X917Y772D02*
X924Y772D01*
X0Y771D02*
X7Y771D01*
X917Y771D02*
X924Y771D01*
X0Y770D02*
X7Y770D01*
X917Y770D02*
X924Y770D01*
X0Y769D02*
X7Y769D01*
X917Y769D02*
X924Y769D01*
X0Y768D02*
X7Y768D01*
X917Y768D02*
X924Y768D01*
X0Y767D02*
X7Y767D01*
X917Y767D02*
X924Y767D01*
X0Y766D02*
X7Y766D01*
X917Y766D02*
X924Y766D01*
X0Y765D02*
X7Y765D01*
X917Y765D02*
X924Y765D01*
X0Y764D02*
X7Y764D01*
X917Y764D02*
X924Y764D01*
X0Y763D02*
X7Y763D01*
X917Y763D02*
X924Y763D01*
X0Y762D02*
X7Y762D01*
X917Y762D02*
X924Y762D01*
X0Y761D02*
X7Y761D01*
X917Y761D02*
X924Y761D01*
X0Y760D02*
X7Y760D01*
X917Y760D02*
X924Y760D01*
X0Y759D02*
X7Y759D01*
X917Y759D02*
X924Y759D01*
X0Y758D02*
X7Y758D01*
X917Y758D02*
X924Y758D01*
X0Y757D02*
X7Y757D01*
X917Y757D02*
X924Y757D01*
X0Y756D02*
X7Y756D01*
X917Y756D02*
X924Y756D01*
X0Y755D02*
X7Y755D01*
X917Y755D02*
X924Y755D01*
X0Y754D02*
X7Y754D01*
X917Y754D02*
X924Y754D01*
X0Y753D02*
X7Y753D01*
X917Y753D02*
X924Y753D01*
X0Y752D02*
X7Y752D01*
X917Y752D02*
X924Y752D01*
X0Y751D02*
X7Y751D01*
X917Y751D02*
X924Y751D01*
X0Y750D02*
X7Y750D01*
X917Y750D02*
X924Y750D01*
X0Y749D02*
X7Y749D01*
X917Y749D02*
X924Y749D01*
X0Y748D02*
X7Y748D01*
X917Y748D02*
X924Y748D01*
X0Y747D02*
X7Y747D01*
X917Y747D02*
X924Y747D01*
X0Y746D02*
X7Y746D01*
X917Y746D02*
X924Y746D01*
X0Y745D02*
X7Y745D01*
X917Y745D02*
X924Y745D01*
X0Y744D02*
X7Y744D01*
X917Y744D02*
X924Y744D01*
X0Y743D02*
X7Y743D01*
X917Y743D02*
X924Y743D01*
X0Y742D02*
X7Y742D01*
X917Y742D02*
X924Y742D01*
X0Y741D02*
X7Y741D01*
X917Y741D02*
X924Y741D01*
X0Y740D02*
X7Y740D01*
X917Y740D02*
X924Y740D01*
X0Y739D02*
X7Y739D01*
X917Y739D02*
X924Y739D01*
X0Y738D02*
X7Y738D01*
X917Y738D02*
X924Y738D01*
X0Y737D02*
X7Y737D01*
X917Y737D02*
X924Y737D01*
X0Y736D02*
X7Y736D01*
X917Y736D02*
X924Y736D01*
X0Y735D02*
X7Y735D01*
X917Y735D02*
X924Y735D01*
X0Y734D02*
X7Y734D01*
X917Y734D02*
X924Y734D01*
X0Y733D02*
X7Y733D01*
X917Y733D02*
X924Y733D01*
X0Y732D02*
X7Y732D01*
X917Y732D02*
X924Y732D01*
X0Y731D02*
X7Y731D01*
X917Y731D02*
X924Y731D01*
X0Y730D02*
X7Y730D01*
X917Y730D02*
X924Y730D01*
X0Y729D02*
X7Y729D01*
X917Y729D02*
X924Y729D01*
X0Y728D02*
X7Y728D01*
X917Y728D02*
X924Y728D01*
X0Y727D02*
X7Y727D01*
X917Y727D02*
X924Y727D01*
X0Y726D02*
X7Y726D01*
X917Y726D02*
X924Y726D01*
X0Y725D02*
X7Y725D01*
X917Y725D02*
X924Y725D01*
X0Y724D02*
X7Y724D01*
X917Y724D02*
X924Y724D01*
X0Y723D02*
X7Y723D01*
X917Y723D02*
X924Y723D01*
X0Y722D02*
X7Y722D01*
X917Y722D02*
X924Y722D01*
X0Y721D02*
X7Y721D01*
X917Y721D02*
X924Y721D01*
X0Y720D02*
X7Y720D01*
X917Y720D02*
X924Y720D01*
X0Y719D02*
X7Y719D01*
X917Y719D02*
X924Y719D01*
X0Y718D02*
X7Y718D01*
X917Y718D02*
X924Y718D01*
X0Y717D02*
X7Y717D01*
X917Y717D02*
X924Y717D01*
X0Y716D02*
X7Y716D01*
X917Y716D02*
X924Y716D01*
X0Y715D02*
X7Y715D01*
X917Y715D02*
X924Y715D01*
X0Y714D02*
X7Y714D01*
X917Y714D02*
X924Y714D01*
X0Y713D02*
X7Y713D01*
X917Y713D02*
X924Y713D01*
X0Y712D02*
X7Y712D01*
X917Y712D02*
X924Y712D01*
X0Y711D02*
X7Y711D01*
X917Y711D02*
X924Y711D01*
X0Y710D02*
X7Y710D01*
X917Y710D02*
X924Y710D01*
X0Y709D02*
X7Y709D01*
X917Y709D02*
X924Y709D01*
X0Y708D02*
X7Y708D01*
X917Y708D02*
X924Y708D01*
X0Y707D02*
X7Y707D01*
X917Y707D02*
X924Y707D01*
X0Y706D02*
X7Y706D01*
X917Y706D02*
X924Y706D01*
X0Y705D02*
X7Y705D01*
X218Y705D02*
X219Y705D01*
X917Y705D02*
X924Y705D01*
X0Y704D02*
X7Y704D01*
X217Y704D02*
X221Y704D01*
X917Y704D02*
X924Y704D01*
X0Y703D02*
X7Y703D01*
X216Y703D02*
X223Y703D01*
X917Y703D02*
X924Y703D01*
X0Y702D02*
X7Y702D01*
X215Y702D02*
X227Y702D01*
X917Y702D02*
X924Y702D01*
X0Y701D02*
X7Y701D01*
X214Y701D02*
X228Y701D01*
X917Y701D02*
X924Y701D01*
X0Y700D02*
X7Y700D01*
X213Y700D02*
X230Y700D01*
X917Y700D02*
X924Y700D01*
X0Y699D02*
X7Y699D01*
X213Y699D02*
X235Y699D01*
X917Y699D02*
X924Y699D01*
X0Y698D02*
X7Y698D01*
X211Y698D02*
X237Y698D01*
X917Y698D02*
X924Y698D01*
X0Y697D02*
X7Y697D01*
X211Y697D02*
X239Y697D01*
X917Y697D02*
X924Y697D01*
X0Y696D02*
X7Y696D01*
X210Y696D02*
X241Y696D01*
X917Y696D02*
X924Y696D01*
X0Y695D02*
X7Y695D01*
X209Y695D02*
X245Y695D01*
X917Y695D02*
X924Y695D01*
X0Y694D02*
X7Y694D01*
X208Y694D02*
X246Y694D01*
X917Y694D02*
X924Y694D01*
X0Y693D02*
X7Y693D01*
X207Y693D02*
X249Y693D01*
X917Y693D02*
X924Y693D01*
X0Y692D02*
X7Y692D01*
X206Y692D02*
X253Y692D01*
X917Y692D02*
X924Y692D01*
X0Y691D02*
X7Y691D01*
X205Y691D02*
X256Y691D01*
X917Y691D02*
X924Y691D01*
X0Y690D02*
X7Y690D01*
X204Y690D02*
X257Y690D01*
X917Y690D02*
X924Y690D01*
X0Y689D02*
X7Y689D01*
X204Y689D02*
X259Y689D01*
X917Y689D02*
X924Y689D01*
X0Y688D02*
X7Y688D01*
X203Y688D02*
X262Y688D01*
X917Y688D02*
X924Y688D01*
X0Y687D02*
X7Y687D01*
X202Y687D02*
X265Y687D01*
X917Y687D02*
X924Y687D01*
X0Y686D02*
X7Y686D01*
X202Y686D02*
X267Y686D01*
X917Y686D02*
X924Y686D01*
X0Y685D02*
X7Y685D01*
X201Y685D02*
X271Y685D01*
X917Y685D02*
X924Y685D01*
X0Y684D02*
X7Y684D01*
X200Y684D02*
X273Y684D01*
X917Y684D02*
X924Y684D01*
X0Y683D02*
X7Y683D01*
X200Y683D02*
X275Y683D01*
X917Y683D02*
X924Y683D01*
X0Y682D02*
X7Y682D01*
X199Y682D02*
X278Y682D01*
X917Y682D02*
X924Y682D01*
X0Y681D02*
X7Y681D01*
X199Y681D02*
X280Y681D01*
X917Y681D02*
X924Y681D01*
X0Y680D02*
X7Y680D01*
X198Y680D02*
X283Y680D01*
X917Y680D02*
X924Y680D01*
X0Y679D02*
X7Y679D01*
X198Y679D02*
X285Y679D01*
X917Y679D02*
X924Y679D01*
X0Y678D02*
X7Y678D01*
X197Y678D02*
X289Y678D01*
X917Y678D02*
X924Y678D01*
X0Y677D02*
X7Y677D01*
X197Y677D02*
X291Y677D01*
X917Y677D02*
X924Y677D01*
X0Y676D02*
X7Y676D01*
X196Y676D02*
X294Y676D01*
X917Y676D02*
X924Y676D01*
X0Y675D02*
X7Y675D01*
X196Y675D02*
X296Y675D01*
X917Y675D02*
X924Y675D01*
X0Y674D02*
X7Y674D01*
X195Y674D02*
X299Y674D01*
X917Y674D02*
X924Y674D01*
X0Y673D02*
X7Y673D01*
X195Y673D02*
X298Y673D01*
X917Y673D02*
X924Y673D01*
X0Y672D02*
X7Y672D01*
X194Y672D02*
X295Y672D01*
X917Y672D02*
X924Y672D01*
X0Y671D02*
X7Y671D01*
X193Y671D02*
X293Y671D01*
X917Y671D02*
X924Y671D01*
X0Y670D02*
X7Y670D01*
X193Y670D02*
X291Y670D01*
X917Y670D02*
X924Y670D01*
X0Y669D02*
X7Y669D01*
X193Y669D02*
X290Y669D01*
X917Y669D02*
X924Y669D01*
X0Y668D02*
X7Y668D01*
X192Y668D02*
X289Y668D01*
X917Y668D02*
X924Y668D01*
X0Y667D02*
X7Y667D01*
X192Y667D02*
X288Y667D01*
X917Y667D02*
X924Y667D01*
X0Y666D02*
X7Y666D01*
X191Y666D02*
X286Y666D01*
X917Y666D02*
X924Y666D01*
X0Y665D02*
X7Y665D01*
X191Y665D02*
X285Y665D01*
X917Y665D02*
X924Y665D01*
X0Y664D02*
X7Y664D01*
X190Y664D02*
X283Y664D01*
X917Y664D02*
X924Y664D01*
X0Y663D02*
X7Y663D01*
X190Y663D02*
X282Y663D01*
X917Y663D02*
X924Y663D01*
X0Y662D02*
X7Y662D01*
X190Y662D02*
X281Y662D01*
X917Y662D02*
X924Y662D01*
X0Y661D02*
X7Y661D01*
X189Y661D02*
X280Y661D01*
X917Y661D02*
X924Y661D01*
X0Y660D02*
X7Y660D01*
X189Y660D02*
X279Y660D01*
X917Y660D02*
X924Y660D01*
X0Y659D02*
X7Y659D01*
X188Y659D02*
X278Y659D01*
X917Y659D02*
X924Y659D01*
X0Y658D02*
X7Y658D01*
X188Y658D02*
X277Y658D01*
X292Y658D02*
X292Y658D01*
X917Y658D02*
X924Y658D01*
X0Y657D02*
X7Y657D01*
X188Y657D02*
X276Y657D01*
X292Y657D02*
X295Y657D01*
X917Y657D02*
X924Y657D01*
X0Y656D02*
X7Y656D01*
X187Y656D02*
X276Y656D01*
X291Y656D02*
X296Y656D01*
X917Y656D02*
X924Y656D01*
X0Y655D02*
X7Y655D01*
X187Y655D02*
X275Y655D01*
X291Y655D02*
X297Y655D01*
X917Y655D02*
X924Y655D01*
X0Y654D02*
X7Y654D01*
X187Y654D02*
X274Y654D01*
X291Y654D02*
X299Y654D01*
X917Y654D02*
X924Y654D01*
X0Y653D02*
X7Y653D01*
X187Y653D02*
X274Y653D01*
X291Y653D02*
X299Y653D01*
X917Y653D02*
X924Y653D01*
X0Y652D02*
X7Y652D01*
X187Y652D02*
X273Y652D01*
X291Y652D02*
X300Y652D01*
X917Y652D02*
X924Y652D01*
X0Y651D02*
X7Y651D01*
X186Y651D02*
X272Y651D01*
X290Y651D02*
X301Y651D01*
X917Y651D02*
X924Y651D01*
X0Y650D02*
X7Y650D01*
X186Y650D02*
X271Y650D01*
X292Y650D02*
X301Y650D01*
X917Y650D02*
X924Y650D01*
X0Y649D02*
X7Y649D01*
X185Y649D02*
X271Y649D01*
X293Y649D02*
X301Y649D01*
X917Y649D02*
X924Y649D01*
X0Y648D02*
X7Y648D01*
X185Y648D02*
X270Y648D01*
X294Y648D02*
X302Y648D01*
X917Y648D02*
X924Y648D01*
X0Y647D02*
X7Y647D01*
X185Y647D02*
X270Y647D01*
X295Y647D02*
X302Y647D01*
X917Y647D02*
X924Y647D01*
X0Y646D02*
X7Y646D01*
X185Y646D02*
X269Y646D01*
X295Y646D02*
X302Y646D01*
X917Y646D02*
X924Y646D01*
X0Y645D02*
X7Y645D01*
X184Y645D02*
X224Y645D01*
X259Y645D02*
X259Y645D01*
X295Y645D02*
X302Y645D01*
X917Y645D02*
X924Y645D01*
X0Y644D02*
X7Y644D01*
X184Y644D02*
X223Y644D01*
X259Y644D02*
X259Y644D01*
X295Y644D02*
X302Y644D01*
X917Y644D02*
X924Y644D01*
X0Y643D02*
X7Y643D01*
X184Y643D02*
X223Y643D01*
X259Y643D02*
X259Y643D01*
X298Y643D02*
X302Y643D01*
X917Y643D02*
X924Y643D01*
X0Y642D02*
X7Y642D01*
X184Y642D02*
X223Y642D01*
X259Y642D02*
X259Y642D01*
X917Y642D02*
X924Y642D01*
X0Y641D02*
X7Y641D01*
X184Y641D02*
X223Y641D01*
X259Y641D02*
X259Y641D01*
X917Y641D02*
X924Y641D01*
X0Y640D02*
X7Y640D01*
X184Y640D02*
X223Y640D01*
X259Y640D02*
X259Y640D01*
X917Y640D02*
X924Y640D01*
X0Y639D02*
X7Y639D01*
X184Y639D02*
X223Y639D01*
X259Y639D02*
X259Y639D01*
X917Y639D02*
X924Y639D01*
X0Y638D02*
X7Y638D01*
X183Y638D02*
X223Y638D01*
X259Y638D02*
X259Y638D01*
X917Y638D02*
X924Y638D01*
X0Y637D02*
X7Y637D01*
X183Y637D02*
X223Y637D01*
X259Y637D02*
X259Y637D01*
X917Y637D02*
X924Y637D01*
X0Y636D02*
X7Y636D01*
X183Y636D02*
X223Y636D01*
X259Y636D02*
X259Y636D01*
X917Y636D02*
X924Y636D01*
X0Y635D02*
X7Y635D01*
X183Y635D02*
X223Y635D01*
X259Y635D02*
X259Y635D01*
X917Y635D02*
X924Y635D01*
X0Y634D02*
X7Y634D01*
X183Y634D02*
X223Y634D01*
X259Y634D02*
X259Y634D01*
X917Y634D02*
X924Y634D01*
X0Y633D02*
X7Y633D01*
X182Y633D02*
X223Y633D01*
X259Y633D02*
X259Y633D01*
X917Y633D02*
X924Y633D01*
X0Y632D02*
X7Y632D01*
X182Y632D02*
X223Y632D01*
X259Y632D02*
X259Y632D01*
X917Y632D02*
X924Y632D01*
X0Y631D02*
X7Y631D01*
X182Y631D02*
X223Y631D01*
X259Y631D02*
X259Y631D01*
X917Y631D02*
X924Y631D01*
X0Y630D02*
X7Y630D01*
X182Y630D02*
X223Y630D01*
X259Y630D02*
X259Y630D01*
X317Y630D02*
X330Y630D01*
X346Y630D02*
X348Y630D01*
X369Y630D02*
X378Y630D01*
X388Y630D02*
X401Y630D01*
X917Y630D02*
X924Y630D01*
X0Y629D02*
X7Y629D01*
X182Y629D02*
X223Y629D01*
X259Y629D02*
X259Y629D01*
X316Y629D02*
X331Y629D01*
X346Y629D02*
X348Y629D01*
X368Y629D02*
X378Y629D01*
X387Y629D02*
X401Y629D01*
X917Y629D02*
X924Y629D01*
X0Y628D02*
X7Y628D01*
X182Y628D02*
X223Y628D01*
X259Y628D02*
X259Y628D01*
X316Y628D02*
X331Y628D01*
X345Y628D02*
X349Y628D01*
X367Y628D02*
X378Y628D01*
X387Y628D02*
X402Y628D01*
X917Y628D02*
X924Y628D01*
X0Y627D02*
X7Y627D01*
X182Y627D02*
X223Y627D01*
X259Y627D02*
X259Y627D01*
X316Y627D02*
X318Y627D01*
X329Y627D02*
X331Y627D01*
X345Y627D02*
X349Y627D01*
X366Y627D02*
X369Y627D01*
X373Y627D02*
X375Y627D01*
X387Y627D02*
X389Y627D01*
X399Y627D02*
X402Y627D01*
X917Y627D02*
X924Y627D01*
X0Y626D02*
X7Y626D01*
X182Y626D02*
X223Y626D01*
X259Y626D02*
X259Y626D01*
X316Y626D02*
X318Y626D01*
X329Y626D02*
X331Y626D01*
X345Y626D02*
X349Y626D01*
X366Y626D02*
X369Y626D01*
X373Y626D02*
X375Y626D01*
X387Y626D02*
X389Y626D01*
X399Y626D02*
X402Y626D01*
X917Y626D02*
X924Y626D01*
X0Y625D02*
X7Y625D01*
X182Y625D02*
X223Y625D01*
X259Y625D02*
X259Y625D01*
X316Y625D02*
X318Y625D01*
X329Y625D02*
X331Y625D01*
X344Y625D02*
X349Y625D01*
X365Y625D02*
X368Y625D01*
X373Y625D02*
X375Y625D01*
X388Y625D02*
X388Y625D01*
X398Y625D02*
X401Y625D01*
X917Y625D02*
X924Y625D01*
X0Y624D02*
X7Y624D01*
X181Y624D02*
X223Y624D01*
X259Y624D02*
X259Y624D01*
X316Y624D02*
X318Y624D01*
X329Y624D02*
X331Y624D01*
X344Y624D02*
X350Y624D01*
X365Y624D02*
X368Y624D01*
X373Y624D02*
X375Y624D01*
X397Y624D02*
X400Y624D01*
X917Y624D02*
X924Y624D01*
X0Y623D02*
X7Y623D01*
X181Y623D02*
X223Y623D01*
X259Y623D02*
X259Y623D01*
X316Y623D02*
X318Y623D01*
X329Y623D02*
X331Y623D01*
X344Y623D02*
X350Y623D01*
X364Y623D02*
X367Y623D01*
X373Y623D02*
X375Y623D01*
X396Y623D02*
X400Y623D01*
X917Y623D02*
X924Y623D01*
X0Y622D02*
X7Y622D01*
X181Y622D02*
X223Y622D01*
X259Y622D02*
X259Y622D01*
X316Y622D02*
X318Y622D01*
X329Y622D02*
X331Y622D01*
X344Y622D02*
X346Y622D01*
X348Y622D02*
X350Y622D01*
X364Y622D02*
X367Y622D01*
X373Y622D02*
X375Y622D01*
X396Y622D02*
X399Y622D01*
X917Y622D02*
X924Y622D01*
X0Y621D02*
X7Y621D01*
X181Y621D02*
X223Y621D01*
X259Y621D02*
X259Y621D01*
X316Y621D02*
X318Y621D01*
X329Y621D02*
X331Y621D01*
X343Y621D02*
X346Y621D01*
X348Y621D02*
X351Y621D01*
X364Y621D02*
X366Y621D01*
X373Y621D02*
X375Y621D01*
X395Y621D02*
X398Y621D01*
X917Y621D02*
X924Y621D01*
X0Y620D02*
X7Y620D01*
X181Y620D02*
X223Y620D01*
X259Y620D02*
X259Y620D01*
X316Y620D02*
X318Y620D01*
X329Y620D02*
X331Y620D01*
X343Y620D02*
X346Y620D01*
X348Y620D02*
X351Y620D01*
X363Y620D02*
X366Y620D01*
X373Y620D02*
X375Y620D01*
X394Y620D02*
X397Y620D01*
X917Y620D02*
X924Y620D01*
X0Y619D02*
X7Y619D01*
X316Y619D02*
X318Y619D01*
X329Y619D02*
X331Y619D01*
X343Y619D02*
X345Y619D01*
X349Y619D02*
X351Y619D01*
X363Y619D02*
X365Y619D01*
X373Y619D02*
X375Y619D01*
X393Y619D02*
X397Y619D01*
X917Y619D02*
X924Y619D01*
X0Y618D02*
X7Y618D01*
X316Y618D02*
X318Y618D01*
X329Y618D02*
X331Y618D01*
X342Y618D02*
X345Y618D01*
X349Y618D02*
X352Y618D01*
X363Y618D02*
X365Y618D01*
X373Y618D02*
X375Y618D01*
X393Y618D02*
X396Y618D01*
X917Y618D02*
X924Y618D01*
X0Y617D02*
X7Y617D01*
X316Y617D02*
X318Y617D01*
X329Y617D02*
X331Y617D01*
X342Y617D02*
X345Y617D01*
X349Y617D02*
X352Y617D01*
X363Y617D02*
X366Y617D01*
X373Y617D02*
X375Y617D01*
X392Y617D02*
X395Y617D01*
X917Y617D02*
X924Y617D01*
X0Y616D02*
X7Y616D01*
X316Y616D02*
X318Y616D01*
X329Y616D02*
X331Y616D01*
X342Y616D02*
X344Y616D01*
X350Y616D02*
X352Y616D01*
X363Y616D02*
X366Y616D01*
X373Y616D02*
X375Y616D01*
X391Y616D02*
X394Y616D01*
X917Y616D02*
X924Y616D01*
X0Y615D02*
X7Y615D01*
X316Y615D02*
X318Y615D01*
X329Y615D02*
X331Y615D01*
X342Y615D02*
X344Y615D01*
X350Y615D02*
X352Y615D01*
X364Y615D02*
X366Y615D01*
X373Y615D02*
X375Y615D01*
X390Y615D02*
X393Y615D01*
X917Y615D02*
X924Y615D01*
X0Y614D02*
X7Y614D01*
X316Y614D02*
X318Y614D01*
X329Y614D02*
X331Y614D01*
X341Y614D02*
X353Y614D01*
X364Y614D02*
X367Y614D01*
X373Y614D02*
X375Y614D01*
X389Y614D02*
X393Y614D01*
X917Y614D02*
X924Y614D01*
X0Y613D02*
X7Y613D01*
X316Y613D02*
X318Y613D01*
X329Y613D02*
X331Y613D01*
X341Y613D02*
X353Y613D01*
X365Y613D02*
X367Y613D01*
X373Y613D02*
X375Y613D01*
X389Y613D02*
X392Y613D01*
X917Y613D02*
X924Y613D01*
X0Y612D02*
X7Y612D01*
X181Y612D02*
X223Y612D01*
X259Y612D02*
X259Y612D01*
X316Y612D02*
X318Y612D01*
X329Y612D02*
X331Y612D01*
X341Y612D02*
X353Y612D01*
X365Y612D02*
X368Y612D01*
X373Y612D02*
X375Y612D01*
X388Y612D02*
X391Y612D01*
X917Y612D02*
X924Y612D01*
X0Y611D02*
X7Y611D01*
X181Y611D02*
X223Y611D01*
X259Y611D02*
X259Y611D01*
X316Y611D02*
X318Y611D01*
X329Y611D02*
X331Y611D01*
X340Y611D02*
X354Y611D01*
X366Y611D02*
X368Y611D01*
X373Y611D02*
X375Y611D01*
X387Y611D02*
X390Y611D01*
X400Y611D02*
X401Y611D01*
X917Y611D02*
X924Y611D01*
X0Y610D02*
X7Y610D01*
X181Y610D02*
X223Y610D01*
X259Y610D02*
X259Y610D01*
X316Y610D02*
X318Y610D01*
X329Y610D02*
X331Y610D01*
X340Y610D02*
X343Y610D01*
X351Y610D02*
X354Y610D01*
X366Y610D02*
X369Y610D01*
X373Y610D02*
X375Y610D01*
X387Y610D02*
X390Y610D01*
X400Y610D02*
X402Y610D01*
X917Y610D02*
X924Y610D01*
X0Y609D02*
X7Y609D01*
X181Y609D02*
X223Y609D01*
X259Y609D02*
X259Y609D01*
X316Y609D02*
X318Y609D01*
X329Y609D02*
X331Y609D01*
X340Y609D02*
X342Y609D01*
X352Y609D02*
X354Y609D01*
X367Y609D02*
X370Y609D01*
X373Y609D02*
X375Y609D01*
X387Y609D02*
X389Y609D01*
X399Y609D02*
X402Y609D01*
X917Y609D02*
X924Y609D01*
X0Y608D02*
X7Y608D01*
X181Y608D02*
X223Y608D01*
X259Y608D02*
X259Y608D01*
X316Y608D02*
X331Y608D01*
X340Y608D02*
X342Y608D01*
X352Y608D02*
X354Y608D01*
X367Y608D02*
X378Y608D01*
X387Y608D02*
X401Y608D01*
X917Y608D02*
X924Y608D01*
X0Y607D02*
X7Y607D01*
X181Y607D02*
X223Y607D01*
X259Y607D02*
X259Y607D01*
X316Y607D02*
X330Y607D01*
X339Y607D02*
X342Y607D01*
X352Y607D02*
X355Y607D01*
X368Y607D02*
X378Y607D01*
X387Y607D02*
X401Y607D01*
X917Y607D02*
X924Y607D01*
X0Y606D02*
X7Y606D01*
X181Y606D02*
X223Y606D01*
X259Y606D02*
X259Y606D01*
X317Y606D02*
X330Y606D01*
X340Y606D02*
X341Y606D01*
X353Y606D02*
X354Y606D01*
X369Y606D02*
X378Y606D01*
X388Y606D02*
X400Y606D01*
X917Y606D02*
X924Y606D01*
X0Y605D02*
X7Y605D01*
X181Y605D02*
X223Y605D01*
X259Y605D02*
X259Y605D01*
X917Y605D02*
X924Y605D01*
X0Y604D02*
X7Y604D01*
X181Y604D02*
X223Y604D01*
X259Y604D02*
X259Y604D01*
X917Y604D02*
X924Y604D01*
X0Y603D02*
X7Y603D01*
X181Y603D02*
X223Y603D01*
X259Y603D02*
X259Y603D01*
X917Y603D02*
X924Y603D01*
X0Y602D02*
X7Y602D01*
X182Y602D02*
X223Y602D01*
X259Y602D02*
X259Y602D01*
X917Y602D02*
X924Y602D01*
X0Y601D02*
X7Y601D01*
X182Y601D02*
X223Y601D01*
X259Y601D02*
X259Y601D01*
X917Y601D02*
X924Y601D01*
X0Y600D02*
X7Y600D01*
X182Y600D02*
X223Y600D01*
X259Y600D02*
X259Y600D01*
X917Y600D02*
X924Y600D01*
X0Y599D02*
X7Y599D01*
X182Y599D02*
X223Y599D01*
X259Y599D02*
X259Y599D01*
X917Y599D02*
X924Y599D01*
X0Y598D02*
X7Y598D01*
X182Y598D02*
X223Y598D01*
X259Y598D02*
X259Y598D01*
X917Y598D02*
X924Y598D01*
X0Y597D02*
X7Y597D01*
X182Y597D02*
X223Y597D01*
X259Y597D02*
X259Y597D01*
X917Y597D02*
X924Y597D01*
X0Y596D02*
X7Y596D01*
X182Y596D02*
X223Y596D01*
X259Y596D02*
X259Y596D01*
X917Y596D02*
X924Y596D01*
X0Y595D02*
X7Y595D01*
X182Y595D02*
X223Y595D01*
X259Y595D02*
X259Y595D01*
X917Y595D02*
X924Y595D01*
X0Y594D02*
X7Y594D01*
X183Y594D02*
X223Y594D01*
X259Y594D02*
X259Y594D01*
X917Y594D02*
X924Y594D01*
X0Y593D02*
X7Y593D01*
X183Y593D02*
X223Y593D01*
X259Y593D02*
X259Y593D01*
X917Y593D02*
X924Y593D01*
X0Y592D02*
X7Y592D01*
X183Y592D02*
X223Y592D01*
X259Y592D02*
X259Y592D01*
X917Y592D02*
X924Y592D01*
X0Y591D02*
X7Y591D01*
X183Y591D02*
X223Y591D01*
X259Y591D02*
X259Y591D01*
X917Y591D02*
X924Y591D01*
X0Y590D02*
X7Y590D01*
X183Y590D02*
X223Y590D01*
X259Y590D02*
X259Y590D01*
X917Y590D02*
X924Y590D01*
X0Y589D02*
X7Y589D01*
X184Y589D02*
X223Y589D01*
X259Y589D02*
X259Y589D01*
X917Y589D02*
X924Y589D01*
X0Y588D02*
X7Y588D01*
X184Y588D02*
X223Y588D01*
X259Y588D02*
X259Y588D01*
X301Y588D02*
X302Y588D01*
X917Y588D02*
X924Y588D01*
X0Y587D02*
X7Y587D01*
X184Y587D02*
X223Y587D01*
X259Y587D02*
X259Y587D01*
X296Y587D02*
X302Y587D01*
X917Y587D02*
X924Y587D01*
X0Y586D02*
X7Y586D01*
X184Y586D02*
X223Y586D01*
X259Y586D02*
X259Y586D01*
X295Y586D02*
X302Y586D01*
X917Y586D02*
X924Y586D01*
X0Y585D02*
X7Y585D01*
X184Y585D02*
X268Y585D01*
X295Y585D02*
X302Y585D01*
X917Y585D02*
X924Y585D01*
X0Y584D02*
X7Y584D01*
X184Y584D02*
X268Y584D01*
X295Y584D02*
X302Y584D01*
X917Y584D02*
X924Y584D01*
X0Y583D02*
X7Y583D01*
X184Y583D02*
X269Y583D01*
X294Y583D02*
X302Y583D01*
X917Y583D02*
X924Y583D01*
X0Y582D02*
X7Y582D01*
X185Y582D02*
X269Y582D01*
X294Y582D02*
X301Y582D01*
X917Y582D02*
X924Y582D01*
X0Y581D02*
X7Y581D01*
X185Y581D02*
X270Y581D01*
X293Y581D02*
X301Y581D01*
X917Y581D02*
X924Y581D01*
X0Y580D02*
X7Y580D01*
X185Y580D02*
X270Y580D01*
X291Y580D02*
X301Y580D01*
X917Y580D02*
X924Y580D01*
X0Y579D02*
X7Y579D01*
X185Y579D02*
X270Y579D01*
X290Y579D02*
X300Y579D01*
X917Y579D02*
X924Y579D01*
X0Y578D02*
X7Y578D01*
X185Y578D02*
X271Y578D01*
X291Y578D02*
X300Y578D01*
X917Y578D02*
X924Y578D01*
X0Y577D02*
X7Y577D01*
X186Y577D02*
X272Y577D01*
X291Y577D02*
X299Y577D01*
X917Y577D02*
X924Y577D01*
X0Y576D02*
X7Y576D01*
X186Y576D02*
X272Y576D01*
X291Y576D02*
X298Y576D01*
X917Y576D02*
X924Y576D01*
X0Y575D02*
X7Y575D01*
X187Y575D02*
X273Y575D01*
X291Y575D02*
X297Y575D01*
X917Y575D02*
X924Y575D01*
X0Y574D02*
X7Y574D01*
X187Y574D02*
X274Y574D01*
X291Y574D02*
X296Y574D01*
X917Y574D02*
X924Y574D01*
X0Y573D02*
X7Y573D01*
X187Y573D02*
X274Y573D01*
X292Y573D02*
X294Y573D01*
X917Y573D02*
X924Y573D01*
X0Y572D02*
X7Y572D01*
X187Y572D02*
X275Y572D01*
X917Y572D02*
X924Y572D01*
X0Y571D02*
X7Y571D01*
X187Y571D02*
X276Y571D01*
X917Y571D02*
X924Y571D01*
X0Y570D02*
X7Y570D01*
X188Y570D02*
X276Y570D01*
X917Y570D02*
X924Y570D01*
X0Y569D02*
X7Y569D01*
X188Y569D02*
X277Y569D01*
X917Y569D02*
X924Y569D01*
X0Y568D02*
X7Y568D01*
X188Y568D02*
X278Y568D01*
X917Y568D02*
X924Y568D01*
X0Y567D02*
X7Y567D01*
X189Y567D02*
X279Y567D01*
X917Y567D02*
X924Y567D01*
X0Y566D02*
X7Y566D01*
X189Y566D02*
X280Y566D01*
X917Y566D02*
X924Y566D01*
X0Y565D02*
X7Y565D01*
X190Y565D02*
X281Y565D01*
X917Y565D02*
X924Y565D01*
X0Y564D02*
X7Y564D01*
X190Y564D02*
X282Y564D01*
X917Y564D02*
X924Y564D01*
X0Y563D02*
X7Y563D01*
X191Y563D02*
X283Y563D01*
X917Y563D02*
X924Y563D01*
X0Y562D02*
X7Y562D01*
X191Y562D02*
X284Y562D01*
X917Y562D02*
X924Y562D01*
X0Y561D02*
X7Y561D01*
X191Y561D02*
X286Y561D01*
X917Y561D02*
X924Y561D01*
X0Y560D02*
X7Y560D01*
X192Y560D02*
X287Y560D01*
X917Y560D02*
X924Y560D01*
X0Y559D02*
X7Y559D01*
X192Y559D02*
X289Y559D01*
X917Y559D02*
X924Y559D01*
X0Y558D02*
X7Y558D01*
X193Y558D02*
X290Y558D01*
X917Y558D02*
X924Y558D01*
X0Y557D02*
X7Y557D01*
X193Y557D02*
X294Y557D01*
X917Y557D02*
X924Y557D01*
X0Y556D02*
X7Y556D01*
X194Y556D02*
X296Y556D01*
X917Y556D02*
X924Y556D01*
X0Y555D02*
X7Y555D01*
X194Y555D02*
X297Y555D01*
X917Y555D02*
X924Y555D01*
X0Y554D02*
X7Y554D01*
X195Y554D02*
X289Y554D01*
X291Y554D02*
X298Y554D01*
X917Y554D02*
X924Y554D01*
X0Y553D02*
X7Y553D01*
X195Y553D02*
X286Y553D01*
X291Y553D02*
X299Y553D01*
X917Y553D02*
X924Y553D01*
X0Y552D02*
X7Y552D01*
X196Y552D02*
X284Y552D01*
X291Y552D02*
X300Y552D01*
X917Y552D02*
X924Y552D01*
X0Y551D02*
X7Y551D01*
X196Y551D02*
X281Y551D01*
X290Y551D02*
X300Y551D01*
X917Y551D02*
X924Y551D01*
X0Y550D02*
X7Y550D01*
X197Y550D02*
X279Y550D01*
X291Y550D02*
X301Y550D01*
X917Y550D02*
X924Y550D01*
X0Y549D02*
X7Y549D01*
X198Y549D02*
X275Y549D01*
X293Y549D02*
X301Y549D01*
X917Y549D02*
X924Y549D01*
X0Y548D02*
X7Y548D01*
X198Y548D02*
X273Y548D01*
X294Y548D02*
X301Y548D01*
X917Y548D02*
X924Y548D01*
X0Y547D02*
X7Y547D01*
X198Y547D02*
X271Y547D01*
X294Y547D02*
X302Y547D01*
X917Y547D02*
X924Y547D01*
X0Y546D02*
X7Y546D01*
X199Y546D02*
X268Y546D01*
X295Y546D02*
X302Y546D01*
X917Y546D02*
X924Y546D01*
X0Y545D02*
X7Y545D01*
X199Y545D02*
X265Y545D01*
X282Y545D02*
X376Y545D01*
X917Y545D02*
X924Y545D01*
X0Y544D02*
X7Y544D01*
X200Y544D02*
X223Y544D01*
X259Y544D02*
X259Y544D01*
X295Y544D02*
X375Y544D01*
X917Y544D02*
X924Y544D01*
X0Y543D02*
X7Y543D01*
X200Y543D02*
X223Y543D01*
X259Y543D02*
X259Y543D01*
X295Y543D02*
X374Y543D01*
X917Y543D02*
X924Y543D01*
X0Y542D02*
X7Y542D01*
X201Y542D02*
X223Y542D01*
X295Y542D02*
X373Y542D01*
X917Y542D02*
X924Y542D01*
X0Y541D02*
X7Y541D01*
X202Y541D02*
X223Y541D01*
X295Y541D02*
X372Y541D01*
X917Y541D02*
X924Y541D01*
X0Y540D02*
X7Y540D01*
X202Y540D02*
X223Y540D01*
X295Y540D02*
X371Y540D01*
X917Y540D02*
X924Y540D01*
X0Y539D02*
X7Y539D01*
X203Y539D02*
X223Y539D01*
X295Y539D02*
X370Y539D01*
X917Y539D02*
X924Y539D01*
X0Y538D02*
X7Y538D01*
X204Y538D02*
X223Y538D01*
X295Y538D02*
X369Y538D01*
X917Y538D02*
X924Y538D01*
X0Y537D02*
X7Y537D01*
X205Y537D02*
X223Y537D01*
X295Y537D02*
X368Y537D01*
X917Y537D02*
X924Y537D01*
X0Y536D02*
X7Y536D01*
X206Y536D02*
X223Y536D01*
X259Y536D02*
X259Y536D01*
X295Y536D02*
X366Y536D01*
X917Y536D02*
X924Y536D01*
X0Y535D02*
X7Y535D01*
X207Y535D02*
X223Y535D01*
X259Y535D02*
X259Y535D01*
X295Y535D02*
X365Y535D01*
X917Y535D02*
X924Y535D01*
X0Y534D02*
X7Y534D01*
X208Y534D02*
X223Y534D01*
X259Y534D02*
X259Y534D01*
X295Y534D02*
X364Y534D01*
X917Y534D02*
X924Y534D01*
X0Y533D02*
X7Y533D01*
X208Y533D02*
X223Y533D01*
X259Y533D02*
X259Y533D01*
X295Y533D02*
X363Y533D01*
X917Y533D02*
X924Y533D01*
X0Y532D02*
X7Y532D01*
X209Y532D02*
X223Y532D01*
X259Y532D02*
X259Y532D01*
X295Y532D02*
X362Y532D01*
X917Y532D02*
X924Y532D01*
X0Y531D02*
X7Y531D01*
X210Y531D02*
X223Y531D01*
X259Y531D02*
X259Y531D01*
X295Y531D02*
X361Y531D01*
X371Y531D02*
X377Y531D01*
X391Y531D02*
X399Y531D01*
X917Y531D02*
X924Y531D01*
X0Y530D02*
X7Y530D01*
X211Y530D02*
X223Y530D01*
X259Y530D02*
X259Y530D01*
X295Y530D02*
X360Y530D01*
X369Y530D02*
X378Y530D01*
X389Y530D02*
X401Y530D01*
X917Y530D02*
X924Y530D01*
X0Y529D02*
X7Y529D01*
X212Y529D02*
X223Y529D01*
X259Y529D02*
X259Y529D01*
X295Y529D02*
X359Y529D01*
X368Y529D02*
X379Y529D01*
X388Y529D02*
X402Y529D01*
X917Y529D02*
X924Y529D01*
X0Y528D02*
X7Y528D01*
X213Y528D02*
X221Y528D01*
X259Y528D02*
X259Y528D01*
X295Y528D02*
X358Y528D01*
X367Y528D02*
X378Y528D01*
X387Y528D02*
X402Y528D01*
X917Y528D02*
X924Y528D01*
X0Y527D02*
X7Y527D01*
X214Y527D02*
X218Y527D01*
X259Y527D02*
X259Y527D01*
X295Y527D02*
X357Y527D01*
X367Y527D02*
X370Y527D01*
X373Y527D02*
X375Y527D01*
X387Y527D02*
X389Y527D01*
X400Y527D02*
X402Y527D01*
X917Y527D02*
X924Y527D01*
X0Y526D02*
X7Y526D01*
X214Y526D02*
X217Y526D01*
X259Y526D02*
X259Y526D01*
X295Y526D02*
X356Y526D01*
X366Y526D02*
X369Y526D01*
X373Y526D02*
X375Y526D01*
X387Y526D02*
X389Y526D01*
X399Y526D02*
X402Y526D01*
X917Y526D02*
X924Y526D01*
X0Y525D02*
X7Y525D01*
X259Y525D02*
X259Y525D01*
X295Y525D02*
X355Y525D01*
X366Y525D02*
X368Y525D01*
X373Y525D02*
X375Y525D01*
X398Y525D02*
X401Y525D01*
X917Y525D02*
X924Y525D01*
X0Y524D02*
X7Y524D01*
X259Y524D02*
X259Y524D01*
X295Y524D02*
X354Y524D01*
X365Y524D02*
X368Y524D01*
X373Y524D02*
X375Y524D01*
X397Y524D02*
X401Y524D01*
X917Y524D02*
X924Y524D01*
X0Y523D02*
X7Y523D01*
X259Y523D02*
X259Y523D01*
X295Y523D02*
X353Y523D01*
X365Y523D02*
X367Y523D01*
X373Y523D02*
X375Y523D01*
X397Y523D02*
X400Y523D01*
X917Y523D02*
X924Y523D01*
X0Y522D02*
X7Y522D01*
X259Y522D02*
X259Y522D01*
X295Y522D02*
X352Y522D01*
X364Y522D02*
X367Y522D01*
X373Y522D02*
X375Y522D01*
X396Y522D02*
X399Y522D01*
X917Y522D02*
X924Y522D01*
X0Y521D02*
X7Y521D01*
X220Y521D02*
X223Y521D01*
X259Y521D02*
X259Y521D01*
X295Y521D02*
X351Y521D01*
X364Y521D02*
X366Y521D01*
X373Y521D02*
X375Y521D01*
X395Y521D02*
X398Y521D01*
X917Y521D02*
X924Y521D01*
X0Y520D02*
X7Y520D01*
X221Y520D02*
X223Y520D01*
X259Y520D02*
X259Y520D01*
X295Y520D02*
X351Y520D01*
X364Y520D02*
X366Y520D01*
X373Y520D02*
X375Y520D01*
X394Y520D02*
X398Y520D01*
X917Y520D02*
X924Y520D01*
X0Y519D02*
X7Y519D01*
X222Y519D02*
X223Y519D01*
X259Y519D02*
X259Y519D01*
X295Y519D02*
X352Y519D01*
X363Y519D02*
X366Y519D01*
X373Y519D02*
X375Y519D01*
X394Y519D02*
X397Y519D01*
X917Y519D02*
X924Y519D01*
X0Y518D02*
X7Y518D01*
X223Y518D02*
X223Y518D01*
X259Y518D02*
X259Y518D01*
X295Y518D02*
X352Y518D01*
X363Y518D02*
X366Y518D01*
X373Y518D02*
X375Y518D01*
X393Y518D02*
X396Y518D01*
X917Y518D02*
X924Y518D01*
X0Y517D02*
X7Y517D01*
X259Y517D02*
X259Y517D01*
X295Y517D02*
X347Y517D01*
X350Y517D02*
X352Y517D01*
X363Y517D02*
X366Y517D01*
X373Y517D02*
X375Y517D01*
X392Y517D02*
X395Y517D01*
X917Y517D02*
X924Y517D01*
X0Y516D02*
X7Y516D01*
X259Y516D02*
X259Y516D01*
X295Y516D02*
X346Y516D01*
X350Y516D02*
X353Y516D01*
X364Y516D02*
X366Y516D01*
X373Y516D02*
X375Y516D01*
X391Y516D02*
X394Y516D01*
X917Y516D02*
X924Y516D01*
X0Y515D02*
X7Y515D01*
X259Y515D02*
X259Y515D01*
X295Y515D02*
X344Y515D01*
X350Y515D02*
X353Y515D01*
X364Y515D02*
X367Y515D01*
X373Y515D02*
X375Y515D01*
X390Y515D02*
X394Y515D01*
X917Y515D02*
X924Y515D01*
X0Y514D02*
X7Y514D01*
X259Y514D02*
X259Y514D01*
X295Y514D02*
X353Y514D01*
X365Y514D02*
X367Y514D01*
X373Y514D02*
X375Y514D01*
X390Y514D02*
X393Y514D01*
X917Y514D02*
X924Y514D01*
X0Y513D02*
X7Y513D01*
X259Y513D02*
X259Y513D01*
X295Y513D02*
X353Y513D01*
X365Y513D02*
X368Y513D01*
X373Y513D02*
X375Y513D01*
X389Y513D02*
X392Y513D01*
X917Y513D02*
X924Y513D01*
X0Y512D02*
X7Y512D01*
X259Y512D02*
X259Y512D01*
X295Y512D02*
X354Y512D01*
X366Y512D02*
X368Y512D01*
X373Y512D02*
X375Y512D01*
X388Y512D02*
X391Y512D01*
X917Y512D02*
X924Y512D01*
X0Y511D02*
X7Y511D01*
X259Y511D02*
X259Y511D01*
X295Y511D02*
X343Y511D01*
X351Y511D02*
X354Y511D01*
X366Y511D02*
X369Y511D01*
X373Y511D02*
X375Y511D01*
X387Y511D02*
X391Y511D01*
X400Y511D02*
X402Y511D01*
X917Y511D02*
X924Y511D01*
X0Y510D02*
X7Y510D01*
X259Y510D02*
X259Y510D01*
X295Y510D02*
X343Y510D01*
X352Y510D02*
X354Y510D01*
X367Y510D02*
X369Y510D01*
X373Y510D02*
X375Y510D01*
X387Y510D02*
X390Y510D01*
X400Y510D02*
X402Y510D01*
X917Y510D02*
X924Y510D01*
X0Y509D02*
X7Y509D01*
X259Y509D02*
X259Y509D01*
X295Y509D02*
X338Y509D01*
X340Y509D02*
X343Y509D01*
X352Y509D02*
X355Y509D01*
X367Y509D02*
X370Y509D01*
X373Y509D02*
X376Y509D01*
X387Y509D02*
X390Y509D01*
X399Y509D02*
X402Y509D01*
X917Y509D02*
X924Y509D01*
X0Y508D02*
X7Y508D01*
X259Y508D02*
X259Y508D01*
X295Y508D02*
X337Y508D01*
X340Y508D02*
X342Y508D01*
X352Y508D02*
X355Y508D01*
X368Y508D02*
X378Y508D01*
X387Y508D02*
X402Y508D01*
X917Y508D02*
X924Y508D01*
X0Y507D02*
X7Y507D01*
X259Y507D02*
X259Y507D01*
X295Y507D02*
X335Y507D01*
X340Y507D02*
X342Y507D01*
X353Y507D02*
X355Y507D01*
X368Y507D02*
X379Y507D01*
X388Y507D02*
X401Y507D01*
X917Y507D02*
X924Y507D01*
X0Y506D02*
X7Y506D01*
X259Y506D02*
X259Y506D01*
X295Y506D02*
X334Y506D01*
X340Y506D02*
X341Y506D01*
X353Y506D02*
X354Y506D01*
X370Y506D02*
X378Y506D01*
X389Y506D02*
X400Y506D01*
X917Y506D02*
X924Y506D01*
X0Y505D02*
X7Y505D01*
X259Y505D02*
X259Y505D01*
X295Y505D02*
X333Y505D01*
X917Y505D02*
X924Y505D01*
X0Y504D02*
X7Y504D01*
X259Y504D02*
X259Y504D01*
X295Y504D02*
X332Y504D01*
X917Y504D02*
X924Y504D01*
X0Y503D02*
X7Y503D01*
X259Y503D02*
X259Y503D01*
X295Y503D02*
X331Y503D01*
X917Y503D02*
X924Y503D01*
X0Y502D02*
X7Y502D01*
X259Y502D02*
X259Y502D01*
X295Y502D02*
X330Y502D01*
X917Y502D02*
X924Y502D01*
X0Y501D02*
X7Y501D01*
X259Y501D02*
X259Y501D01*
X295Y501D02*
X329Y501D01*
X917Y501D02*
X924Y501D01*
X0Y500D02*
X7Y500D01*
X259Y500D02*
X259Y500D01*
X295Y500D02*
X328Y500D01*
X917Y500D02*
X924Y500D01*
X0Y499D02*
X7Y499D01*
X259Y499D02*
X259Y499D01*
X295Y499D02*
X327Y499D01*
X917Y499D02*
X924Y499D01*
X0Y498D02*
X7Y498D01*
X259Y498D02*
X259Y498D01*
X295Y498D02*
X326Y498D01*
X917Y498D02*
X924Y498D01*
X0Y497D02*
X7Y497D01*
X259Y497D02*
X259Y497D01*
X295Y497D02*
X325Y497D01*
X917Y497D02*
X924Y497D01*
X0Y496D02*
X7Y496D01*
X295Y496D02*
X324Y496D01*
X917Y496D02*
X924Y496D01*
X0Y495D02*
X7Y495D01*
X295Y495D02*
X323Y495D01*
X917Y495D02*
X924Y495D01*
X0Y494D02*
X7Y494D01*
X295Y494D02*
X322Y494D01*
X917Y494D02*
X924Y494D01*
X0Y493D02*
X7Y493D01*
X295Y493D02*
X320Y493D01*
X917Y493D02*
X924Y493D01*
X0Y492D02*
X7Y492D01*
X295Y492D02*
X319Y492D01*
X917Y492D02*
X924Y492D01*
X0Y491D02*
X7Y491D01*
X295Y491D02*
X318Y491D01*
X917Y491D02*
X924Y491D01*
X0Y490D02*
X7Y490D01*
X295Y490D02*
X317Y490D01*
X917Y490D02*
X924Y490D01*
X0Y489D02*
X7Y489D01*
X295Y489D02*
X316Y489D01*
X917Y489D02*
X924Y489D01*
X0Y488D02*
X7Y488D01*
X295Y488D02*
X315Y488D01*
X917Y488D02*
X924Y488D01*
X0Y487D02*
X7Y487D01*
X216Y487D02*
X221Y487D01*
X295Y487D02*
X314Y487D01*
X917Y487D02*
X924Y487D01*
X0Y486D02*
X7Y486D01*
X216Y486D02*
X223Y486D01*
X295Y486D02*
X313Y486D01*
X917Y486D02*
X924Y486D01*
X0Y485D02*
X7Y485D01*
X216Y485D02*
X223Y485D01*
X295Y485D02*
X312Y485D01*
X917Y485D02*
X924Y485D01*
X0Y484D02*
X7Y484D01*
X216Y484D02*
X223Y484D01*
X295Y484D02*
X311Y484D01*
X917Y484D02*
X924Y484D01*
X0Y483D02*
X7Y483D01*
X216Y483D02*
X224Y483D01*
X295Y483D02*
X302Y483D01*
X309Y483D02*
X310Y483D01*
X917Y483D02*
X924Y483D01*
X0Y482D02*
X7Y482D01*
X216Y482D02*
X224Y482D01*
X294Y482D02*
X302Y482D01*
X917Y482D02*
X924Y482D01*
X0Y481D02*
X7Y481D01*
X217Y481D02*
X225Y481D01*
X293Y481D02*
X301Y481D01*
X917Y481D02*
X924Y481D01*
X0Y480D02*
X7Y480D01*
X217Y480D02*
X226Y480D01*
X292Y480D02*
X301Y480D01*
X917Y480D02*
X924Y480D01*
X0Y479D02*
X7Y479D01*
X218Y479D02*
X228Y479D01*
X290Y479D02*
X300Y479D01*
X917Y479D02*
X924Y479D01*
X0Y478D02*
X7Y478D01*
X218Y478D02*
X228Y478D01*
X291Y478D02*
X300Y478D01*
X917Y478D02*
X924Y478D01*
X0Y477D02*
X7Y477D01*
X219Y477D02*
X227Y477D01*
X291Y477D02*
X299Y477D01*
X917Y477D02*
X924Y477D01*
X0Y476D02*
X7Y476D01*
X220Y476D02*
X227Y476D01*
X291Y476D02*
X298Y476D01*
X917Y476D02*
X924Y476D01*
X0Y475D02*
X7Y475D01*
X221Y475D02*
X227Y475D01*
X291Y475D02*
X297Y475D01*
X917Y475D02*
X924Y475D01*
X0Y474D02*
X7Y474D01*
X222Y474D02*
X227Y474D01*
X291Y474D02*
X296Y474D01*
X917Y474D02*
X924Y474D01*
X0Y473D02*
X7Y473D01*
X224Y473D02*
X227Y473D01*
X292Y473D02*
X295Y473D01*
X917Y473D02*
X924Y473D01*
X0Y472D02*
X7Y472D01*
X226Y472D02*
X226Y472D01*
X292Y472D02*
X292Y472D01*
X917Y472D02*
X924Y472D01*
X0Y471D02*
X7Y471D01*
X917Y471D02*
X924Y471D01*
X0Y470D02*
X7Y470D01*
X917Y470D02*
X924Y470D01*
X0Y469D02*
X7Y469D01*
X917Y469D02*
X924Y469D01*
X0Y468D02*
X7Y468D01*
X917Y468D02*
X924Y468D01*
X0Y467D02*
X7Y467D01*
X917Y467D02*
X924Y467D01*
X0Y466D02*
X7Y466D01*
X917Y466D02*
X924Y466D01*
X0Y465D02*
X7Y465D01*
X917Y465D02*
X924Y465D01*
X0Y464D02*
X7Y464D01*
X917Y464D02*
X924Y464D01*
X0Y463D02*
X7Y463D01*
X917Y463D02*
X924Y463D01*
X0Y462D02*
X7Y462D01*
X917Y462D02*
X924Y462D01*
X0Y461D02*
X7Y461D01*
X917Y461D02*
X924Y461D01*
X0Y460D02*
X7Y460D01*
X917Y460D02*
X924Y460D01*
X0Y459D02*
X7Y459D01*
X225Y459D02*
X226Y459D01*
X292Y459D02*
X293Y459D01*
X917Y459D02*
X924Y459D01*
X0Y458D02*
X7Y458D01*
X223Y458D02*
X227Y458D01*
X291Y458D02*
X295Y458D01*
X917Y458D02*
X924Y458D01*
X0Y457D02*
X7Y457D01*
X222Y457D02*
X227Y457D01*
X291Y457D02*
X297Y457D01*
X917Y457D02*
X924Y457D01*
X0Y456D02*
X7Y456D01*
X220Y456D02*
X227Y456D01*
X291Y456D02*
X298Y456D01*
X917Y456D02*
X924Y456D01*
X0Y455D02*
X7Y455D01*
X219Y455D02*
X227Y455D01*
X291Y455D02*
X299Y455D01*
X917Y455D02*
X924Y455D01*
X0Y454D02*
X7Y454D01*
X219Y454D02*
X227Y454D01*
X291Y454D02*
X300Y454D01*
X917Y454D02*
X924Y454D01*
X0Y453D02*
X7Y453D01*
X218Y453D02*
X228Y453D01*
X290Y453D02*
X300Y453D01*
X917Y453D02*
X924Y453D01*
X0Y452D02*
X7Y452D01*
X217Y452D02*
X228Y452D01*
X290Y452D02*
X301Y452D01*
X917Y452D02*
X924Y452D01*
X0Y451D02*
X7Y451D01*
X217Y451D02*
X226Y451D01*
X292Y451D02*
X301Y451D01*
X917Y451D02*
X924Y451D01*
X0Y450D02*
X7Y450D01*
X217Y450D02*
X225Y450D01*
X293Y450D02*
X301Y450D01*
X917Y450D02*
X924Y450D01*
X0Y449D02*
X7Y449D01*
X216Y449D02*
X224Y449D01*
X294Y449D02*
X302Y449D01*
X917Y449D02*
X924Y449D01*
X0Y448D02*
X7Y448D01*
X216Y448D02*
X223Y448D01*
X295Y448D02*
X302Y448D01*
X917Y448D02*
X924Y448D01*
X0Y447D02*
X7Y447D01*
X216Y447D02*
X223Y447D01*
X295Y447D02*
X302Y447D01*
X917Y447D02*
X924Y447D01*
X0Y446D02*
X7Y446D01*
X216Y446D02*
X223Y446D01*
X295Y446D02*
X302Y446D01*
X917Y446D02*
X924Y446D01*
X0Y445D02*
X7Y445D01*
X216Y445D02*
X223Y445D01*
X295Y445D02*
X302Y445D01*
X381Y445D02*
X493Y445D01*
X917Y445D02*
X924Y445D01*
X0Y444D02*
X7Y444D01*
X216Y444D02*
X219Y444D01*
X299Y444D02*
X302Y444D01*
X376Y444D02*
X473Y444D01*
X917Y444D02*
X924Y444D01*
X0Y443D02*
X7Y443D01*
X372Y443D02*
X449Y443D01*
X917Y443D02*
X924Y443D01*
X0Y442D02*
X7Y442D01*
X367Y442D02*
X418Y442D01*
X917Y442D02*
X924Y442D01*
X0Y441D02*
X7Y441D01*
X362Y441D02*
X393Y441D01*
X917Y441D02*
X924Y441D01*
X0Y440D02*
X7Y440D01*
X358Y440D02*
X387Y440D01*
X917Y440D02*
X924Y440D01*
X0Y439D02*
X7Y439D01*
X354Y439D02*
X382Y439D01*
X917Y439D02*
X924Y439D01*
X0Y438D02*
X7Y438D01*
X350Y438D02*
X374Y438D01*
X917Y438D02*
X924Y438D01*
X0Y437D02*
X7Y437D01*
X348Y437D02*
X371Y437D01*
X917Y437D02*
X924Y437D01*
X0Y436D02*
X7Y436D01*
X344Y436D02*
X367Y436D01*
X917Y436D02*
X924Y436D01*
X0Y435D02*
X7Y435D01*
X342Y435D02*
X362Y435D01*
X917Y435D02*
X924Y435D01*
X0Y434D02*
X7Y434D01*
X338Y434D02*
X357Y434D01*
X917Y434D02*
X924Y434D01*
X0Y433D02*
X7Y433D01*
X334Y433D02*
X354Y433D01*
X917Y433D02*
X924Y433D01*
X0Y432D02*
X7Y432D01*
X333Y432D02*
X351Y432D01*
X917Y432D02*
X924Y432D01*
X0Y431D02*
X7Y431D01*
X329Y431D02*
X347Y431D01*
X917Y431D02*
X924Y431D01*
X0Y430D02*
X7Y430D01*
X322Y430D02*
X344Y430D01*
X351Y430D02*
X352Y430D01*
X374Y430D02*
X382Y430D01*
X394Y430D02*
X404Y430D01*
X917Y430D02*
X924Y430D01*
X0Y429D02*
X7Y429D01*
X321Y429D02*
X343Y429D01*
X350Y429D02*
X353Y429D01*
X373Y429D02*
X383Y429D01*
X392Y429D02*
X406Y429D01*
X917Y429D02*
X924Y429D01*
X0Y428D02*
X7Y428D01*
X320Y428D02*
X339Y428D01*
X350Y428D02*
X353Y428D01*
X372Y428D02*
X383Y428D01*
X392Y428D02*
X406Y428D01*
X917Y428D02*
X924Y428D01*
X0Y427D02*
X7Y427D01*
X320Y427D02*
X335Y427D01*
X350Y427D02*
X353Y427D01*
X371Y427D02*
X375Y427D01*
X377Y427D02*
X380Y427D01*
X391Y427D02*
X394Y427D01*
X404Y427D02*
X406Y427D01*
X917Y427D02*
X924Y427D01*
X0Y426D02*
X7Y426D01*
X319Y426D02*
X333Y426D01*
X349Y426D02*
X354Y426D01*
X371Y426D02*
X374Y426D01*
X377Y426D02*
X380Y426D01*
X391Y426D02*
X393Y426D01*
X404Y426D02*
X406Y426D01*
X917Y426D02*
X924Y426D01*
X0Y425D02*
X7Y425D01*
X317Y425D02*
X332Y425D01*
X349Y425D02*
X354Y425D01*
X370Y425D02*
X373Y425D01*
X377Y425D02*
X380Y425D01*
X391Y425D02*
X393Y425D01*
X403Y425D02*
X406Y425D01*
X917Y425D02*
X924Y425D01*
X0Y424D02*
X7Y424D01*
X315Y424D02*
X328Y424D01*
X349Y424D02*
X354Y424D01*
X370Y424D02*
X372Y424D01*
X377Y424D02*
X380Y424D01*
X402Y424D02*
X405Y424D01*
X917Y424D02*
X924Y424D01*
X0Y423D02*
X7Y423D01*
X313Y423D02*
X327Y423D01*
X349Y423D02*
X354Y423D01*
X369Y423D02*
X372Y423D01*
X377Y423D02*
X380Y423D01*
X401Y423D02*
X405Y423D01*
X917Y423D02*
X924Y423D01*
X0Y422D02*
X7Y422D01*
X311Y422D02*
X325Y422D01*
X348Y422D02*
X355Y422D01*
X369Y422D02*
X371Y422D01*
X377Y422D02*
X380Y422D01*
X401Y422D02*
X404Y422D01*
X917Y422D02*
X924Y422D01*
X0Y421D02*
X7Y421D01*
X310Y421D02*
X323Y421D01*
X348Y421D02*
X350Y421D01*
X353Y421D02*
X355Y421D01*
X368Y421D02*
X371Y421D01*
X377Y421D02*
X380Y421D01*
X400Y421D02*
X403Y421D01*
X917Y421D02*
X924Y421D01*
X0Y420D02*
X7Y420D01*
X307Y420D02*
X323Y420D01*
X348Y420D02*
X350Y420D01*
X353Y420D02*
X355Y420D01*
X368Y420D02*
X370Y420D01*
X377Y420D02*
X380Y420D01*
X399Y420D02*
X402Y420D01*
X917Y420D02*
X924Y420D01*
X0Y419D02*
X7Y419D01*
X306Y419D02*
X318Y419D01*
X320Y419D02*
X333Y419D01*
X347Y419D02*
X350Y419D01*
X353Y419D02*
X356Y419D01*
X368Y419D02*
X370Y419D01*
X377Y419D02*
X380Y419D01*
X398Y419D02*
X401Y419D01*
X917Y419D02*
X924Y419D01*
X0Y418D02*
X7Y418D01*
X304Y418D02*
X317Y418D01*
X321Y418D02*
X335Y418D01*
X347Y418D02*
X350Y418D01*
X353Y418D02*
X356Y418D01*
X368Y418D02*
X370Y418D01*
X377Y418D02*
X380Y418D01*
X397Y418D02*
X401Y418D01*
X917Y418D02*
X924Y418D01*
X0Y417D02*
X7Y417D01*
X303Y417D02*
X314Y417D01*
X321Y417D02*
X335Y417D01*
X347Y417D02*
X349Y417D01*
X354Y417D02*
X356Y417D01*
X368Y417D02*
X370Y417D01*
X377Y417D02*
X380Y417D01*
X397Y417D02*
X400Y417D01*
X917Y417D02*
X924Y417D01*
X0Y416D02*
X7Y416D01*
X301Y416D02*
X313Y416D01*
X323Y416D02*
X336Y416D01*
X347Y416D02*
X349Y416D01*
X354Y416D02*
X356Y416D01*
X368Y416D02*
X370Y416D01*
X377Y416D02*
X380Y416D01*
X396Y416D02*
X399Y416D01*
X917Y416D02*
X924Y416D01*
X0Y415D02*
X7Y415D01*
X300Y415D02*
X311Y415D01*
X333Y415D02*
X336Y415D01*
X346Y415D02*
X349Y415D01*
X354Y415D02*
X357Y415D01*
X368Y415D02*
X371Y415D01*
X377Y415D02*
X380Y415D01*
X395Y415D02*
X398Y415D01*
X917Y415D02*
X924Y415D01*
X0Y414D02*
X7Y414D01*
X298Y414D02*
X310Y414D01*
X333Y414D02*
X336Y414D01*
X346Y414D02*
X349Y414D01*
X354Y414D02*
X357Y414D01*
X368Y414D02*
X371Y414D01*
X377Y414D02*
X380Y414D01*
X394Y414D02*
X398Y414D01*
X917Y414D02*
X924Y414D01*
X0Y413D02*
X7Y413D01*
X297Y413D02*
X307Y413D01*
X333Y413D02*
X336Y413D01*
X346Y413D02*
X357Y413D01*
X369Y413D02*
X372Y413D01*
X377Y413D02*
X380Y413D01*
X394Y413D02*
X397Y413D01*
X917Y413D02*
X924Y413D01*
X0Y412D02*
X7Y412D01*
X295Y412D02*
X306Y412D01*
X333Y412D02*
X336Y412D01*
X345Y412D02*
X358Y412D01*
X369Y412D02*
X372Y412D01*
X377Y412D02*
X380Y412D01*
X393Y412D02*
X396Y412D01*
X917Y412D02*
X924Y412D01*
X0Y411D02*
X7Y411D01*
X295Y411D02*
X304Y411D01*
X333Y411D02*
X336Y411D01*
X345Y411D02*
X358Y411D01*
X370Y411D02*
X373Y411D01*
X377Y411D02*
X380Y411D01*
X392Y411D02*
X395Y411D01*
X917Y411D02*
X924Y411D01*
X0Y410D02*
X7Y410D01*
X295Y410D02*
X303Y410D01*
X333Y410D02*
X336Y410D01*
X345Y410D02*
X347Y410D01*
X356Y410D02*
X358Y410D01*
X370Y410D02*
X373Y410D01*
X377Y410D02*
X380Y410D01*
X391Y410D02*
X394Y410D01*
X404Y410D02*
X406Y410D01*
X917Y410D02*
X924Y410D01*
X0Y409D02*
X7Y409D01*
X295Y409D02*
X302Y409D01*
X333Y409D02*
X336Y409D01*
X345Y409D02*
X347Y409D01*
X356Y409D02*
X359Y409D01*
X371Y409D02*
X374Y409D01*
X377Y409D02*
X380Y409D01*
X391Y409D02*
X394Y409D01*
X404Y409D02*
X406Y409D01*
X917Y409D02*
X924Y409D01*
X0Y408D02*
X7Y408D01*
X295Y408D02*
X301Y408D01*
X321Y408D02*
X336Y408D01*
X344Y408D02*
X347Y408D01*
X356Y408D02*
X359Y408D01*
X371Y408D02*
X382Y408D01*
X391Y408D02*
X406Y408D01*
X917Y408D02*
X924Y408D01*
X0Y407D02*
X7Y407D01*
X295Y407D02*
X299Y407D01*
X320Y407D02*
X336Y407D01*
X344Y407D02*
X346Y407D01*
X357Y407D02*
X359Y407D01*
X372Y407D02*
X383Y407D01*
X391Y407D02*
X406Y407D01*
X917Y407D02*
X924Y407D01*
X0Y406D02*
X7Y406D01*
X295Y406D02*
X297Y406D01*
X320Y406D02*
X336Y406D01*
X344Y406D02*
X346Y406D01*
X357Y406D02*
X359Y406D01*
X373Y406D02*
X383Y406D01*
X392Y406D02*
X405Y406D01*
X917Y406D02*
X924Y406D01*
X0Y405D02*
X7Y405D01*
X295Y405D02*
X296Y405D01*
X321Y405D02*
X335Y405D01*
X345Y405D02*
X345Y405D01*
X358Y405D02*
X358Y405D01*
X375Y405D02*
X382Y405D01*
X394Y405D02*
X403Y405D01*
X917Y405D02*
X924Y405D01*
X0Y404D02*
X7Y404D01*
X295Y404D02*
X295Y404D01*
X917Y404D02*
X924Y404D01*
X0Y403D02*
X7Y403D01*
X917Y403D02*
X924Y403D01*
X0Y402D02*
X7Y402D01*
X917Y402D02*
X924Y402D01*
X0Y401D02*
X7Y401D01*
X917Y401D02*
X924Y401D01*
X0Y400D02*
X7Y400D01*
X917Y400D02*
X924Y400D01*
X0Y399D02*
X7Y399D01*
X917Y399D02*
X924Y399D01*
X0Y398D02*
X7Y398D01*
X917Y398D02*
X924Y398D01*
X0Y397D02*
X7Y397D01*
X917Y397D02*
X924Y397D01*
X0Y396D02*
X7Y396D01*
X917Y396D02*
X924Y396D01*
X0Y395D02*
X7Y395D01*
X917Y395D02*
X924Y395D01*
X0Y394D02*
X7Y394D01*
X917Y394D02*
X924Y394D01*
X0Y393D02*
X7Y393D01*
X917Y393D02*
X924Y393D01*
X0Y392D02*
X7Y392D01*
X917Y392D02*
X924Y392D01*
X0Y391D02*
X7Y391D01*
X917Y391D02*
X924Y391D01*
X0Y390D02*
X7Y390D01*
X917Y390D02*
X924Y390D01*
X0Y389D02*
X7Y389D01*
X216Y389D02*
X219Y389D01*
X299Y389D02*
X302Y389D01*
X917Y389D02*
X924Y389D01*
X0Y388D02*
X7Y388D01*
X216Y388D02*
X223Y388D01*
X295Y388D02*
X302Y388D01*
X917Y388D02*
X924Y388D01*
X0Y387D02*
X7Y387D01*
X216Y387D02*
X223Y387D01*
X295Y387D02*
X302Y387D01*
X917Y387D02*
X924Y387D01*
X0Y386D02*
X7Y386D01*
X216Y386D02*
X223Y386D01*
X268Y386D02*
X276Y386D01*
X295Y386D02*
X302Y386D01*
X917Y386D02*
X924Y386D01*
X0Y385D02*
X7Y385D01*
X216Y385D02*
X223Y385D01*
X268Y385D02*
X275Y385D01*
X295Y385D02*
X302Y385D01*
X917Y385D02*
X924Y385D01*
X0Y384D02*
X7Y384D01*
X216Y384D02*
X224Y384D01*
X267Y384D02*
X274Y384D01*
X294Y384D02*
X302Y384D01*
X917Y384D02*
X924Y384D01*
X0Y383D02*
X7Y383D01*
X217Y383D02*
X225Y383D01*
X266Y383D02*
X274Y383D01*
X294Y383D02*
X301Y383D01*
X917Y383D02*
X924Y383D01*
X0Y382D02*
X7Y382D01*
X217Y382D02*
X225Y382D01*
X265Y382D02*
X272Y382D01*
X293Y382D02*
X301Y382D01*
X917Y382D02*
X924Y382D01*
X0Y381D02*
X7Y381D01*
X217Y381D02*
X227Y381D01*
X264Y381D02*
X271Y381D01*
X291Y381D02*
X301Y381D01*
X917Y381D02*
X924Y381D01*
X0Y380D02*
X7Y380D01*
X218Y380D02*
X228Y380D01*
X264Y380D02*
X271Y380D01*
X290Y380D02*
X300Y380D01*
X917Y380D02*
X924Y380D01*
X0Y379D02*
X7Y379D01*
X218Y379D02*
X227Y379D01*
X263Y379D02*
X270Y379D01*
X291Y379D02*
X300Y379D01*
X917Y379D02*
X924Y379D01*
X0Y378D02*
X7Y378D01*
X219Y378D02*
X227Y378D01*
X262Y378D02*
X270Y378D01*
X291Y378D02*
X299Y378D01*
X917Y378D02*
X924Y378D01*
X0Y377D02*
X7Y377D01*
X220Y377D02*
X227Y377D01*
X262Y377D02*
X269Y377D01*
X291Y377D02*
X298Y377D01*
X917Y377D02*
X924Y377D01*
X0Y376D02*
X7Y376D01*
X221Y376D02*
X227Y376D01*
X261Y376D02*
X269Y376D01*
X291Y376D02*
X297Y376D01*
X917Y376D02*
X924Y376D01*
X0Y375D02*
X7Y375D01*
X223Y375D02*
X227Y375D01*
X261Y375D02*
X268Y375D01*
X291Y375D02*
X295Y375D01*
X917Y375D02*
X924Y375D01*
X0Y374D02*
X7Y374D01*
X225Y374D02*
X226Y374D01*
X260Y374D02*
X267Y374D01*
X292Y374D02*
X293Y374D01*
X917Y374D02*
X924Y374D01*
X0Y373D02*
X7Y373D01*
X260Y373D02*
X267Y373D01*
X917Y373D02*
X924Y373D01*
X0Y372D02*
X7Y372D01*
X259Y372D02*
X266Y372D01*
X917Y372D02*
X924Y372D01*
X0Y371D02*
X7Y371D01*
X258Y371D02*
X266Y371D01*
X917Y371D02*
X924Y371D01*
X0Y370D02*
X7Y370D01*
X258Y370D02*
X265Y370D01*
X917Y370D02*
X924Y370D01*
X0Y369D02*
X7Y369D01*
X257Y369D02*
X265Y369D01*
X917Y369D02*
X924Y369D01*
X0Y368D02*
X7Y368D01*
X257Y368D02*
X264Y368D01*
X917Y368D02*
X924Y368D01*
X0Y367D02*
X7Y367D01*
X256Y367D02*
X263Y367D01*
X917Y367D02*
X924Y367D01*
X0Y366D02*
X7Y366D01*
X256Y366D02*
X263Y366D01*
X917Y366D02*
X924Y366D01*
X0Y365D02*
X7Y365D01*
X255Y365D02*
X262Y365D01*
X917Y365D02*
X924Y365D01*
X0Y364D02*
X7Y364D01*
X255Y364D02*
X262Y364D01*
X917Y364D02*
X924Y364D01*
X0Y363D02*
X7Y363D01*
X254Y363D02*
X261Y363D01*
X917Y363D02*
X924Y363D01*
X0Y362D02*
X7Y362D01*
X254Y362D02*
X261Y362D01*
X917Y362D02*
X924Y362D01*
X0Y361D02*
X7Y361D01*
X254Y361D02*
X260Y361D01*
X917Y361D02*
X924Y361D01*
X0Y360D02*
X7Y360D01*
X253Y360D02*
X259Y360D01*
X917Y360D02*
X924Y360D01*
X0Y359D02*
X7Y359D01*
X253Y359D02*
X259Y359D01*
X917Y359D02*
X924Y359D01*
X0Y358D02*
X7Y358D01*
X252Y358D02*
X258Y358D01*
X917Y358D02*
X924Y358D01*
X0Y357D02*
X7Y357D01*
X251Y357D02*
X258Y357D01*
X917Y357D02*
X924Y357D01*
X0Y356D02*
X7Y356D01*
X251Y356D02*
X257Y356D01*
X917Y356D02*
X924Y356D01*
X0Y355D02*
X7Y355D01*
X251Y355D02*
X257Y355D01*
X917Y355D02*
X924Y355D01*
X0Y354D02*
X7Y354D01*
X250Y354D02*
X257Y354D01*
X917Y354D02*
X924Y354D01*
X0Y353D02*
X7Y353D01*
X250Y353D02*
X257Y353D01*
X917Y353D02*
X924Y353D01*
X0Y352D02*
X7Y352D01*
X250Y352D02*
X256Y352D01*
X917Y352D02*
X924Y352D01*
X0Y351D02*
X7Y351D01*
X250Y351D02*
X256Y351D01*
X917Y351D02*
X924Y351D01*
X0Y350D02*
X7Y350D01*
X249Y350D02*
X256Y350D01*
X917Y350D02*
X924Y350D01*
X0Y349D02*
X7Y349D01*
X249Y349D02*
X256Y349D01*
X917Y349D02*
X924Y349D01*
X0Y348D02*
X7Y348D01*
X249Y348D02*
X255Y348D01*
X917Y348D02*
X924Y348D01*
X0Y347D02*
X7Y347D01*
X248Y347D02*
X255Y347D01*
X917Y347D02*
X924Y347D01*
X0Y346D02*
X7Y346D01*
X248Y346D02*
X254Y346D01*
X917Y346D02*
X924Y346D01*
X0Y345D02*
X7Y345D01*
X247Y345D02*
X254Y345D01*
X917Y345D02*
X924Y345D01*
X0Y344D02*
X7Y344D01*
X247Y344D02*
X254Y344D01*
X917Y344D02*
X924Y344D01*
X0Y343D02*
X7Y343D01*
X247Y343D02*
X253Y343D01*
X917Y343D02*
X924Y343D01*
X0Y342D02*
X7Y342D01*
X247Y342D02*
X253Y342D01*
X917Y342D02*
X924Y342D01*
X0Y341D02*
X7Y341D01*
X247Y341D02*
X253Y341D01*
X917Y341D02*
X924Y341D01*
X0Y340D02*
X7Y340D01*
X247Y340D02*
X253Y340D01*
X917Y340D02*
X924Y340D01*
X0Y339D02*
X7Y339D01*
X247Y339D02*
X253Y339D01*
X917Y339D02*
X924Y339D01*
X0Y338D02*
X7Y338D01*
X246Y338D02*
X252Y338D01*
X917Y338D02*
X924Y338D01*
X0Y337D02*
X7Y337D01*
X246Y337D02*
X252Y337D01*
X917Y337D02*
X924Y337D01*
X0Y336D02*
X7Y336D01*
X246Y336D02*
X252Y336D01*
X917Y336D02*
X924Y336D01*
X0Y335D02*
X7Y335D01*
X245Y335D02*
X252Y335D01*
X917Y335D02*
X924Y335D01*
X0Y334D02*
X7Y334D01*
X245Y334D02*
X251Y334D01*
X917Y334D02*
X924Y334D01*
X0Y333D02*
X7Y333D01*
X245Y333D02*
X251Y333D01*
X917Y333D02*
X924Y333D01*
X0Y332D02*
X7Y332D01*
X244Y332D02*
X251Y332D01*
X917Y332D02*
X924Y332D01*
X0Y331D02*
X7Y331D01*
X244Y331D02*
X251Y331D01*
X917Y331D02*
X924Y331D01*
X0Y330D02*
X7Y330D01*
X245Y330D02*
X251Y330D01*
X917Y330D02*
X924Y330D01*
X0Y329D02*
X7Y329D01*
X244Y329D02*
X251Y329D01*
X917Y329D02*
X924Y329D01*
X0Y328D02*
X7Y328D01*
X244Y328D02*
X250Y328D01*
X917Y328D02*
X924Y328D01*
X0Y327D02*
X7Y327D01*
X244Y327D02*
X250Y327D01*
X917Y327D02*
X924Y327D01*
X0Y326D02*
X7Y326D01*
X244Y326D02*
X250Y326D01*
X917Y326D02*
X924Y326D01*
X0Y325D02*
X7Y325D01*
X244Y325D02*
X250Y325D01*
X917Y325D02*
X924Y325D01*
X0Y324D02*
X7Y324D01*
X244Y324D02*
X249Y324D01*
X917Y324D02*
X924Y324D01*
X0Y323D02*
X7Y323D01*
X244Y323D02*
X249Y323D01*
X917Y323D02*
X924Y323D01*
X0Y322D02*
X7Y322D01*
X244Y322D02*
X249Y322D01*
X917Y322D02*
X924Y322D01*
X0Y321D02*
X7Y321D01*
X243Y321D02*
X249Y321D01*
X917Y321D02*
X924Y321D01*
X0Y320D02*
X7Y320D01*
X243Y320D02*
X249Y320D01*
X917Y320D02*
X924Y320D01*
X0Y319D02*
X7Y319D01*
X243Y319D02*
X249Y319D01*
X917Y319D02*
X924Y319D01*
X0Y318D02*
X7Y318D01*
X243Y318D02*
X249Y318D01*
X917Y318D02*
X924Y318D01*
X0Y317D02*
X7Y317D01*
X243Y317D02*
X249Y317D01*
X917Y317D02*
X924Y317D01*
X0Y316D02*
X7Y316D01*
X243Y316D02*
X249Y316D01*
X917Y316D02*
X924Y316D01*
X0Y315D02*
X7Y315D01*
X243Y315D02*
X249Y315D01*
X917Y315D02*
X924Y315D01*
X0Y314D02*
X7Y314D01*
X243Y314D02*
X249Y314D01*
X917Y314D02*
X924Y314D01*
X0Y313D02*
X7Y313D01*
X243Y313D02*
X249Y313D01*
X917Y313D02*
X924Y313D01*
X0Y312D02*
X7Y312D01*
X243Y312D02*
X249Y312D01*
X917Y312D02*
X924Y312D01*
X0Y311D02*
X7Y311D01*
X243Y311D02*
X249Y311D01*
X917Y311D02*
X924Y311D01*
X0Y310D02*
X7Y310D01*
X243Y310D02*
X249Y310D01*
X917Y310D02*
X924Y310D01*
X0Y309D02*
X7Y309D01*
X243Y309D02*
X249Y309D01*
X917Y309D02*
X924Y309D01*
X0Y308D02*
X7Y308D01*
X243Y308D02*
X249Y308D01*
X917Y308D02*
X924Y308D01*
X0Y307D02*
X7Y307D01*
X243Y307D02*
X249Y307D01*
X917Y307D02*
X924Y307D01*
X0Y306D02*
X7Y306D01*
X243Y306D02*
X249Y306D01*
X917Y306D02*
X924Y306D01*
X0Y305D02*
X7Y305D01*
X243Y305D02*
X249Y305D01*
X917Y305D02*
X924Y305D01*
X0Y304D02*
X7Y304D01*
X243Y304D02*
X249Y304D01*
X917Y304D02*
X924Y304D01*
X0Y303D02*
X7Y303D01*
X243Y303D02*
X249Y303D01*
X917Y303D02*
X924Y303D01*
X0Y302D02*
X7Y302D01*
X243Y302D02*
X249Y302D01*
X917Y302D02*
X924Y302D01*
X0Y301D02*
X7Y301D01*
X243Y301D02*
X249Y301D01*
X917Y301D02*
X924Y301D01*
X0Y300D02*
X7Y300D01*
X243Y300D02*
X249Y300D01*
X917Y300D02*
X924Y300D01*
X0Y299D02*
X7Y299D01*
X243Y299D02*
X249Y299D01*
X917Y299D02*
X924Y299D01*
X0Y298D02*
X7Y298D01*
X243Y298D02*
X249Y298D01*
X917Y298D02*
X924Y298D01*
X0Y297D02*
X7Y297D01*
X243Y297D02*
X249Y297D01*
X917Y297D02*
X924Y297D01*
X0Y296D02*
X7Y296D01*
X243Y296D02*
X249Y296D01*
X917Y296D02*
X924Y296D01*
X0Y295D02*
X7Y295D01*
X243Y295D02*
X249Y295D01*
X917Y295D02*
X924Y295D01*
X0Y294D02*
X7Y294D01*
X243Y294D02*
X249Y294D01*
X917Y294D02*
X924Y294D01*
X0Y293D02*
X7Y293D01*
X243Y293D02*
X249Y293D01*
X917Y293D02*
X924Y293D01*
X0Y292D02*
X7Y292D01*
X243Y292D02*
X249Y292D01*
X917Y292D02*
X924Y292D01*
X0Y291D02*
X7Y291D01*
X243Y291D02*
X249Y291D01*
X917Y291D02*
X924Y291D01*
X0Y290D02*
X7Y290D01*
X243Y290D02*
X249Y290D01*
X917Y290D02*
X924Y290D01*
X0Y289D02*
X7Y289D01*
X243Y289D02*
X249Y289D01*
X917Y289D02*
X924Y289D01*
X0Y288D02*
X7Y288D01*
X243Y288D02*
X249Y288D01*
X917Y288D02*
X924Y288D01*
X0Y287D02*
X7Y287D01*
X243Y287D02*
X249Y287D01*
X917Y287D02*
X924Y287D01*
X0Y286D02*
X7Y286D01*
X244Y286D02*
X249Y286D01*
X917Y286D02*
X924Y286D01*
X0Y285D02*
X7Y285D01*
X243Y285D02*
X249Y285D01*
X917Y285D02*
X924Y285D01*
X0Y284D02*
X7Y284D01*
X244Y284D02*
X250Y284D01*
X917Y284D02*
X924Y284D01*
X0Y283D02*
X7Y283D01*
X244Y283D02*
X250Y283D01*
X917Y283D02*
X924Y283D01*
X0Y282D02*
X7Y282D01*
X244Y282D02*
X250Y282D01*
X917Y282D02*
X924Y282D01*
X0Y281D02*
X7Y281D01*
X245Y281D02*
X250Y281D01*
X917Y281D02*
X924Y281D01*
X0Y280D02*
X7Y280D01*
X245Y280D02*
X250Y280D01*
X917Y280D02*
X924Y280D01*
X0Y279D02*
X7Y279D01*
X245Y279D02*
X250Y279D01*
X917Y279D02*
X924Y279D01*
X0Y278D02*
X7Y278D01*
X245Y278D02*
X251Y278D01*
X917Y278D02*
X924Y278D01*
X0Y277D02*
X7Y277D01*
X245Y277D02*
X251Y277D01*
X917Y277D02*
X924Y277D01*
X0Y276D02*
X7Y276D01*
X245Y276D02*
X251Y276D01*
X917Y276D02*
X924Y276D01*
X0Y275D02*
X7Y275D01*
X246Y275D02*
X251Y275D01*
X917Y275D02*
X924Y275D01*
X0Y274D02*
X7Y274D01*
X246Y274D02*
X251Y274D01*
X917Y274D02*
X924Y274D01*
X0Y273D02*
X7Y273D01*
X246Y273D02*
X252Y273D01*
X917Y273D02*
X924Y273D01*
X0Y272D02*
X7Y272D01*
X246Y272D02*
X252Y272D01*
X917Y272D02*
X924Y272D01*
X0Y271D02*
X7Y271D01*
X247Y271D02*
X252Y271D01*
X917Y271D02*
X924Y271D01*
X0Y270D02*
X7Y270D01*
X247Y270D02*
X252Y270D01*
X917Y270D02*
X924Y270D01*
X0Y269D02*
X7Y269D01*
X247Y269D02*
X253Y269D01*
X917Y269D02*
X924Y269D01*
X0Y268D02*
X7Y268D01*
X247Y268D02*
X253Y268D01*
X917Y268D02*
X924Y268D01*
X0Y267D02*
X7Y267D01*
X247Y267D02*
X253Y267D01*
X917Y267D02*
X924Y267D01*
X0Y266D02*
X7Y266D01*
X247Y266D02*
X253Y266D01*
X917Y266D02*
X924Y266D01*
X0Y265D02*
X7Y265D01*
X248Y265D02*
X253Y265D01*
X917Y265D02*
X924Y265D01*
X0Y264D02*
X7Y264D01*
X248Y264D02*
X254Y264D01*
X917Y264D02*
X924Y264D01*
X0Y263D02*
X7Y263D01*
X248Y263D02*
X254Y263D01*
X917Y263D02*
X924Y263D01*
X0Y262D02*
X7Y262D01*
X248Y262D02*
X254Y262D01*
X917Y262D02*
X924Y262D01*
X0Y261D02*
X7Y261D01*
X249Y261D02*
X255Y261D01*
X917Y261D02*
X924Y261D01*
X0Y260D02*
X7Y260D01*
X249Y260D02*
X255Y260D01*
X917Y260D02*
X924Y260D01*
X0Y259D02*
X7Y259D01*
X250Y259D02*
X256Y259D01*
X917Y259D02*
X924Y259D01*
X0Y258D02*
X7Y258D01*
X250Y258D02*
X256Y258D01*
X917Y258D02*
X924Y258D01*
X0Y257D02*
X7Y257D01*
X250Y257D02*
X256Y257D01*
X917Y257D02*
X924Y257D01*
X0Y256D02*
X7Y256D01*
X250Y256D02*
X256Y256D01*
X917Y256D02*
X924Y256D01*
X0Y255D02*
X7Y255D01*
X251Y255D02*
X256Y255D01*
X917Y255D02*
X924Y255D01*
X0Y254D02*
X7Y254D01*
X251Y254D02*
X257Y254D01*
X917Y254D02*
X924Y254D01*
X0Y253D02*
X7Y253D01*
X252Y253D02*
X257Y253D01*
X917Y253D02*
X924Y253D01*
X0Y252D02*
X7Y252D01*
X252Y252D02*
X258Y252D01*
X917Y252D02*
X924Y252D01*
X0Y251D02*
X7Y251D01*
X253Y251D02*
X258Y251D01*
X917Y251D02*
X924Y251D01*
X0Y250D02*
X7Y250D01*
X254Y250D02*
X259Y250D01*
X917Y250D02*
X924Y250D01*
X0Y249D02*
X7Y249D01*
X254Y249D02*
X259Y249D01*
X917Y249D02*
X924Y249D01*
X0Y248D02*
X7Y248D01*
X254Y248D02*
X260Y248D01*
X917Y248D02*
X924Y248D01*
X0Y247D02*
X7Y247D01*
X254Y247D02*
X261Y247D01*
X917Y247D02*
X924Y247D01*
X0Y246D02*
X7Y246D01*
X254Y246D02*
X262Y246D01*
X917Y246D02*
X924Y246D01*
X0Y245D02*
X7Y245D01*
X255Y245D02*
X262Y245D01*
X917Y245D02*
X924Y245D01*
X0Y244D02*
X7Y244D01*
X256Y244D02*
X262Y244D01*
X917Y244D02*
X924Y244D01*
X0Y243D02*
X7Y243D01*
X256Y243D02*
X263Y243D01*
X917Y243D02*
X924Y243D01*
X0Y242D02*
X7Y242D01*
X257Y242D02*
X263Y242D01*
X917Y242D02*
X924Y242D01*
X0Y241D02*
X7Y241D01*
X258Y241D02*
X264Y241D01*
X917Y241D02*
X924Y241D01*
X0Y240D02*
X7Y240D01*
X258Y240D02*
X264Y240D01*
X917Y240D02*
X924Y240D01*
X0Y239D02*
X7Y239D01*
X259Y239D02*
X265Y239D01*
X917Y239D02*
X924Y239D01*
X0Y238D02*
X7Y238D01*
X259Y238D02*
X266Y238D01*
X917Y238D02*
X924Y238D01*
X0Y237D02*
X7Y237D01*
X260Y237D02*
X266Y237D01*
X917Y237D02*
X924Y237D01*
X0Y236D02*
X7Y236D01*
X260Y236D02*
X267Y236D01*
X917Y236D02*
X924Y236D01*
X0Y235D02*
X7Y235D01*
X261Y235D02*
X267Y235D01*
X917Y235D02*
X924Y235D01*
X0Y234D02*
X7Y234D01*
X261Y234D02*
X268Y234D01*
X917Y234D02*
X924Y234D01*
X0Y233D02*
X7Y233D01*
X262Y233D02*
X268Y233D01*
X917Y233D02*
X924Y233D01*
X0Y232D02*
X7Y232D01*
X263Y232D02*
X269Y232D01*
X917Y232D02*
X924Y232D01*
X0Y231D02*
X7Y231D01*
X264Y231D02*
X270Y231D01*
X917Y231D02*
X924Y231D01*
X0Y230D02*
X7Y230D01*
X264Y230D02*
X271Y230D01*
X917Y230D02*
X924Y230D01*
X0Y229D02*
X7Y229D01*
X265Y229D02*
X272Y229D01*
X917Y229D02*
X924Y229D01*
X0Y228D02*
X7Y228D01*
X266Y228D02*
X273Y228D01*
X917Y228D02*
X924Y228D01*
X0Y227D02*
X7Y227D01*
X267Y227D02*
X274Y227D01*
X917Y227D02*
X924Y227D01*
X0Y226D02*
X7Y226D01*
X267Y226D02*
X275Y226D01*
X917Y226D02*
X924Y226D01*
X0Y225D02*
X7Y225D01*
X268Y225D02*
X276Y225D01*
X917Y225D02*
X924Y225D01*
X0Y224D02*
X7Y224D01*
X269Y224D02*
X281Y224D01*
X291Y224D02*
X298Y224D01*
X308Y224D02*
X313Y224D01*
X324Y224D02*
X328Y224D01*
X339Y224D02*
X339Y224D01*
X917Y224D02*
X924Y224D01*
X0Y223D02*
X7Y223D01*
X269Y223D02*
X282Y223D01*
X289Y223D02*
X298Y223D01*
X307Y223D02*
X313Y223D01*
X322Y223D02*
X329Y223D01*
X339Y223D02*
X340Y223D01*
X917Y223D02*
X924Y223D01*
X0Y222D02*
X7Y222D01*
X270Y222D02*
X278Y222D01*
X281Y222D02*
X283Y222D01*
X289Y222D02*
X291Y222D01*
X297Y222D02*
X298Y222D01*
X306Y222D02*
X308Y222D01*
X310Y222D02*
X312Y222D01*
X322Y222D02*
X327Y222D01*
X338Y222D02*
X340Y222D01*
X917Y222D02*
X924Y222D01*
X0Y221D02*
X7Y221D01*
X271Y221D02*
X279Y221D01*
X281Y221D02*
X283Y221D01*
X289Y221D02*
X290Y221D01*
X297Y221D02*
X298Y221D01*
X306Y221D02*
X307Y221D01*
X310Y221D02*
X311Y221D01*
X321Y221D02*
X323Y221D01*
X325Y221D02*
X327Y221D01*
X338Y221D02*
X340Y221D01*
X917Y221D02*
X924Y221D01*
X0Y220D02*
X7Y220D01*
X272Y220D02*
X282Y220D01*
X289Y220D02*
X290Y220D01*
X297Y220D02*
X298Y220D01*
X305Y220D02*
X307Y220D01*
X310Y220D02*
X311Y220D01*
X321Y220D02*
X322Y220D01*
X325Y220D02*
X327Y220D01*
X338Y220D02*
X341Y220D01*
X917Y220D02*
X924Y220D01*
X0Y219D02*
X7Y219D01*
X273Y219D02*
X281Y219D01*
X289Y219D02*
X291Y219D01*
X297Y219D02*
X298Y219D01*
X305Y219D02*
X306Y219D01*
X310Y219D02*
X311Y219D01*
X320Y219D02*
X322Y219D01*
X325Y219D02*
X327Y219D01*
X337Y219D02*
X341Y219D01*
X917Y219D02*
X924Y219D01*
X0Y218D02*
X7Y218D01*
X274Y218D02*
X282Y218D01*
X289Y218D02*
X298Y218D01*
X304Y218D02*
X306Y218D01*
X310Y218D02*
X311Y218D01*
X320Y218D02*
X321Y218D01*
X325Y218D02*
X327Y218D01*
X337Y218D02*
X338Y218D01*
X340Y218D02*
X341Y218D01*
X917Y218D02*
X924Y218D01*
X0Y217D02*
X7Y217D01*
X275Y217D02*
X283Y217D01*
X291Y217D02*
X298Y217D01*
X304Y217D02*
X305Y217D01*
X310Y217D02*
X311Y217D01*
X319Y217D02*
X321Y217D01*
X325Y217D02*
X327Y217D01*
X337Y217D02*
X338Y217D01*
X340Y217D02*
X342Y217D01*
X917Y217D02*
X924Y217D01*
X0Y216D02*
X7Y216D01*
X276Y216D02*
X284Y216D01*
X293Y216D02*
X294Y216D01*
X297Y216D02*
X298Y216D01*
X304Y216D02*
X305Y216D01*
X310Y216D02*
X311Y216D01*
X319Y216D02*
X320Y216D01*
X325Y216D02*
X327Y216D01*
X336Y216D02*
X338Y216D01*
X341Y216D02*
X342Y216D01*
X917Y216D02*
X924Y216D01*
X0Y215D02*
X7Y215D01*
X277Y215D02*
X285Y215D01*
X292Y215D02*
X294Y215D01*
X297Y215D02*
X298Y215D01*
X304Y215D02*
X305Y215D01*
X310Y215D02*
X311Y215D01*
X319Y215D02*
X321Y215D01*
X325Y215D02*
X327Y215D01*
X336Y215D02*
X337Y215D01*
X341Y215D02*
X342Y215D01*
X917Y215D02*
X924Y215D01*
X0Y214D02*
X7Y214D01*
X276Y214D02*
X287Y214D01*
X291Y214D02*
X293Y214D01*
X297Y214D02*
X298Y214D01*
X304Y214D02*
X306Y214D01*
X310Y214D02*
X311Y214D01*
X320Y214D02*
X321Y214D01*
X325Y214D02*
X327Y214D01*
X336Y214D02*
X337Y214D01*
X341Y214D02*
X342Y214D01*
X917Y214D02*
X924Y214D01*
X0Y213D02*
X7Y213D01*
X275Y213D02*
X277Y213D01*
X279Y213D02*
X288Y213D01*
X291Y213D02*
X292Y213D01*
X297Y213D02*
X298Y213D01*
X305Y213D02*
X306Y213D01*
X310Y213D02*
X311Y213D01*
X320Y213D02*
X322Y213D01*
X325Y213D02*
X327Y213D01*
X336Y213D02*
X343Y213D01*
X917Y213D02*
X924Y213D01*
X0Y212D02*
X7Y212D01*
X274Y212D02*
X276Y212D01*
X280Y212D02*
X292Y212D01*
X297Y212D02*
X298Y212D01*
X305Y212D02*
X307Y212D01*
X310Y212D02*
X311Y212D01*
X321Y212D02*
X322Y212D01*
X325Y212D02*
X327Y212D01*
X335Y212D02*
X343Y212D01*
X917Y212D02*
X924Y212D01*
X0Y211D02*
X7Y211D01*
X274Y211D02*
X275Y211D01*
X281Y211D02*
X291Y211D01*
X297Y211D02*
X298Y211D01*
X306Y211D02*
X307Y211D01*
X310Y211D02*
X311Y211D01*
X321Y211D02*
X323Y211D01*
X325Y211D02*
X327Y211D01*
X335Y211D02*
X336Y211D01*
X342Y211D02*
X343Y211D01*
X917Y211D02*
X924Y211D01*
X0Y210D02*
X7Y210D01*
X273Y210D02*
X275Y210D01*
X281Y210D02*
X291Y210D01*
X297Y210D02*
X298Y210D01*
X306Y210D02*
X308Y210D01*
X310Y210D02*
X312Y210D01*
X322Y210D02*
X327Y210D01*
X335Y210D02*
X336Y210D01*
X342Y210D02*
X344Y210D01*
X917Y210D02*
X924Y210D01*
X0Y209D02*
X7Y209D01*
X274Y209D02*
X292Y209D01*
X297Y209D02*
X298Y209D01*
X307Y209D02*
X313Y209D01*
X322Y209D02*
X329Y209D01*
X335Y209D02*
X336Y209D01*
X343Y209D02*
X344Y209D01*
X917Y209D02*
X924Y209D01*
X0Y208D02*
X7Y208D01*
X275Y208D02*
X281Y208D01*
X285Y208D02*
X294Y208D01*
X308Y208D02*
X313Y208D01*
X324Y208D02*
X328Y208D01*
X335Y208D02*
X335Y208D01*
X343Y208D02*
X343Y208D01*
X917Y208D02*
X924Y208D01*
X0Y207D02*
X7Y207D01*
X286Y207D02*
X295Y207D01*
X917Y207D02*
X924Y207D01*
X0Y206D02*
X7Y206D01*
X287Y206D02*
X297Y206D01*
X917Y206D02*
X924Y206D01*
X0Y205D02*
X7Y205D01*
X288Y205D02*
X298Y205D01*
X917Y205D02*
X924Y205D01*
X0Y204D02*
X7Y204D01*
X291Y204D02*
X300Y204D01*
X917Y204D02*
X924Y204D01*
X0Y203D02*
X7Y203D01*
X292Y203D02*
X302Y203D01*
X917Y203D02*
X924Y203D01*
X0Y202D02*
X7Y202D01*
X293Y202D02*
X303Y202D01*
X917Y202D02*
X924Y202D01*
X0Y201D02*
X7Y201D01*
X294Y201D02*
X306Y201D01*
X917Y201D02*
X924Y201D01*
X0Y200D02*
X7Y200D01*
X297Y200D02*
X307Y200D01*
X917Y200D02*
X924Y200D01*
X0Y199D02*
X7Y199D01*
X274Y199D02*
X276Y199D01*
X296Y199D02*
X308Y199D01*
X341Y199D02*
X343Y199D01*
X917Y199D02*
X924Y199D01*
X0Y198D02*
X7Y198D01*
X272Y198D02*
X276Y198D01*
X300Y198D02*
X310Y198D01*
X341Y198D02*
X345Y198D01*
X917Y198D02*
X924Y198D01*
X0Y197D02*
X7Y197D01*
X270Y197D02*
X276Y197D01*
X302Y197D02*
X314Y197D01*
X340Y197D02*
X346Y197D01*
X917Y197D02*
X924Y197D01*
X0Y196D02*
X7Y196D01*
X269Y196D02*
X276Y196D01*
X304Y196D02*
X316Y196D01*
X340Y196D02*
X347Y196D01*
X917Y196D02*
X924Y196D01*
X0Y195D02*
X7Y195D01*
X268Y195D02*
X276Y195D01*
X305Y195D02*
X317Y195D01*
X340Y195D02*
X348Y195D01*
X917Y195D02*
X924Y195D01*
X0Y194D02*
X7Y194D01*
X268Y194D02*
X277Y194D01*
X308Y194D02*
X320Y194D01*
X340Y194D02*
X349Y194D01*
X917Y194D02*
X924Y194D01*
X0Y193D02*
X7Y193D01*
X267Y193D02*
X277Y193D01*
X309Y193D02*
X322Y193D01*
X340Y193D02*
X349Y193D01*
X917Y193D02*
X924Y193D01*
X0Y192D02*
X7Y192D01*
X267Y192D02*
X277Y192D01*
X310Y192D02*
X324Y192D01*
X340Y192D02*
X350Y192D01*
X917Y192D02*
X924Y192D01*
X0Y191D02*
X7Y191D01*
X266Y191D02*
X275Y191D01*
X313Y191D02*
X326Y191D01*
X342Y191D02*
X350Y191D01*
X917Y191D02*
X924Y191D01*
X0Y190D02*
X7Y190D01*
X266Y190D02*
X274Y190D01*
X316Y190D02*
X331Y190D01*
X343Y190D02*
X351Y190D01*
X917Y190D02*
X924Y190D01*
X0Y189D02*
X7Y189D01*
X266Y189D02*
X273Y189D01*
X318Y189D02*
X333Y189D01*
X344Y189D02*
X351Y189D01*
X917Y189D02*
X924Y189D01*
X0Y188D02*
X7Y188D01*
X265Y188D02*
X273Y188D01*
X320Y188D02*
X336Y188D01*
X344Y188D02*
X351Y188D01*
X917Y188D02*
X924Y188D01*
X0Y187D02*
X7Y187D01*
X265Y187D02*
X272Y187D01*
X323Y187D02*
X341Y187D01*
X344Y187D02*
X351Y187D01*
X917Y187D02*
X924Y187D01*
X0Y186D02*
X7Y186D01*
X265Y186D02*
X272Y186D01*
X344Y186D02*
X351Y186D01*
X917Y186D02*
X924Y186D01*
X0Y185D02*
X7Y185D01*
X265Y185D02*
X272Y185D01*
X344Y185D02*
X351Y185D01*
X917Y185D02*
X924Y185D01*
X0Y184D02*
X7Y184D01*
X265Y184D02*
X267Y184D01*
X344Y184D02*
X351Y184D01*
X917Y184D02*
X924Y184D01*
X0Y183D02*
X7Y183D01*
X344Y183D02*
X360Y183D01*
X917Y183D02*
X924Y183D01*
X0Y182D02*
X7Y182D01*
X344Y182D02*
X365Y182D01*
X917Y182D02*
X924Y182D01*
X0Y181D02*
X7Y181D01*
X344Y181D02*
X371Y181D01*
X917Y181D02*
X924Y181D01*
X0Y180D02*
X7Y180D01*
X917Y180D02*
X924Y180D01*
X0Y179D02*
X7Y179D01*
X917Y179D02*
X924Y179D01*
X0Y178D02*
X7Y178D01*
X917Y178D02*
X924Y178D01*
X0Y177D02*
X7Y177D01*
X917Y177D02*
X924Y177D01*
X0Y176D02*
X7Y176D01*
X917Y176D02*
X924Y176D01*
X0Y175D02*
X7Y175D01*
X917Y175D02*
X924Y175D01*
X0Y174D02*
X7Y174D01*
X917Y174D02*
X924Y174D01*
X0Y173D02*
X7Y173D01*
X917Y173D02*
X924Y173D01*
X0Y172D02*
X7Y172D01*
X917Y172D02*
X924Y172D01*
X0Y171D02*
X7Y171D01*
X917Y171D02*
X924Y171D01*
X0Y170D02*
X7Y170D01*
X917Y170D02*
X924Y170D01*
X0Y169D02*
X7Y169D01*
X917Y169D02*
X924Y169D01*
X0Y168D02*
X7Y168D01*
X917Y168D02*
X924Y168D01*
X0Y167D02*
X7Y167D01*
X917Y167D02*
X924Y167D01*
X0Y166D02*
X7Y166D01*
X917Y166D02*
X924Y166D01*
X0Y165D02*
X7Y165D01*
X917Y165D02*
X924Y165D01*
X0Y164D02*
X7Y164D01*
X917Y164D02*
X924Y164D01*
X0Y163D02*
X7Y163D01*
X917Y163D02*
X924Y163D01*
X0Y162D02*
X7Y162D01*
X917Y162D02*
X924Y162D01*
X0Y161D02*
X7Y161D01*
X917Y161D02*
X924Y161D01*
X0Y160D02*
X7Y160D01*
X917Y160D02*
X924Y160D01*
X0Y159D02*
X7Y159D01*
X917Y159D02*
X924Y159D01*
X0Y158D02*
X7Y158D01*
X917Y158D02*
X924Y158D01*
X0Y157D02*
X7Y157D01*
X917Y157D02*
X924Y157D01*
X0Y156D02*
X7Y156D01*
X917Y156D02*
X924Y156D01*
X0Y155D02*
X7Y155D01*
X917Y155D02*
X924Y155D01*
X0Y154D02*
X7Y154D01*
X917Y154D02*
X924Y154D01*
X0Y153D02*
X7Y153D01*
X917Y153D02*
X924Y153D01*
X0Y152D02*
X7Y152D01*
X917Y152D02*
X924Y152D01*
X0Y151D02*
X7Y151D01*
X917Y151D02*
X924Y151D01*
X0Y150D02*
X7Y150D01*
X917Y150D02*
X924Y150D01*
X0Y149D02*
X7Y149D01*
X917Y149D02*
X924Y149D01*
X0Y148D02*
X7Y148D01*
X917Y148D02*
X924Y148D01*
X0Y147D02*
X7Y147D01*
X917Y147D02*
X924Y147D01*
X0Y146D02*
X7Y146D01*
X917Y146D02*
X924Y146D01*
X0Y145D02*
X7Y145D01*
X917Y145D02*
X924Y145D01*
X0Y144D02*
X7Y144D01*
X917Y144D02*
X924Y144D01*
X0Y143D02*
X7Y143D01*
X917Y143D02*
X924Y143D01*
X0Y142D02*
X7Y142D01*
X917Y142D02*
X924Y142D01*
X0Y141D02*
X7Y141D01*
X917Y141D02*
X924Y141D01*
X0Y140D02*
X7Y140D01*
X917Y140D02*
X924Y140D01*
X0Y139D02*
X7Y139D01*
X917Y139D02*
X924Y139D01*
X0Y138D02*
X7Y138D01*
X917Y138D02*
X924Y138D01*
X0Y137D02*
X7Y137D01*
X917Y137D02*
X924Y137D01*
X0Y136D02*
X7Y136D01*
X917Y136D02*
X924Y136D01*
X0Y135D02*
X7Y135D01*
X917Y135D02*
X924Y135D01*
X0Y134D02*
X7Y134D01*
X917Y134D02*
X924Y134D01*
X0Y133D02*
X7Y133D01*
X917Y133D02*
X924Y133D01*
X0Y132D02*
X7Y132D01*
X917Y132D02*
X924Y132D01*
X0Y131D02*
X7Y131D01*
X917Y131D02*
X924Y131D01*
X0Y130D02*
X7Y130D01*
X917Y130D02*
X924Y130D01*
X0Y129D02*
X7Y129D01*
X265Y129D02*
X269Y129D01*
X348Y129D02*
X351Y129D01*
X917Y129D02*
X924Y129D01*
X0Y128D02*
X7Y128D01*
X265Y128D02*
X272Y128D01*
X344Y128D02*
X351Y128D01*
X917Y128D02*
X924Y128D01*
X0Y127D02*
X7Y127D01*
X265Y127D02*
X272Y127D01*
X344Y127D02*
X351Y127D01*
X917Y127D02*
X924Y127D01*
X0Y126D02*
X7Y126D01*
X265Y126D02*
X272Y126D01*
X344Y126D02*
X351Y126D01*
X917Y126D02*
X924Y126D01*
X0Y125D02*
X7Y125D01*
X265Y125D02*
X273Y125D01*
X344Y125D02*
X351Y125D01*
X917Y125D02*
X924Y125D01*
X0Y124D02*
X7Y124D01*
X266Y124D02*
X273Y124D01*
X343Y124D02*
X351Y124D01*
X917Y124D02*
X924Y124D01*
X0Y123D02*
X7Y123D01*
X266Y123D02*
X274Y123D01*
X343Y123D02*
X351Y123D01*
X917Y123D02*
X924Y123D01*
X0Y122D02*
X7Y122D01*
X266Y122D02*
X275Y122D01*
X342Y122D02*
X350Y122D01*
X917Y122D02*
X924Y122D01*
X0Y121D02*
X7Y121D01*
X267Y121D02*
X277Y121D01*
X340Y121D02*
X350Y121D01*
X917Y121D02*
X924Y121D01*
X0Y120D02*
X7Y120D01*
X267Y120D02*
X277Y120D01*
X340Y120D02*
X349Y120D01*
X917Y120D02*
X924Y120D01*
X0Y119D02*
X7Y119D01*
X268Y119D02*
X277Y119D01*
X340Y119D02*
X349Y119D01*
X917Y119D02*
X924Y119D01*
X0Y118D02*
X7Y118D01*
X269Y118D02*
X276Y118D01*
X340Y118D02*
X348Y118D01*
X917Y118D02*
X924Y118D01*
X0Y117D02*
X7Y117D01*
X270Y117D02*
X276Y117D01*
X340Y117D02*
X347Y117D01*
X917Y117D02*
X924Y117D01*
X0Y116D02*
X7Y116D01*
X271Y116D02*
X276Y116D01*
X340Y116D02*
X346Y116D01*
X917Y116D02*
X924Y116D01*
X0Y115D02*
X7Y115D01*
X272Y115D02*
X276Y115D01*
X341Y115D02*
X344Y115D01*
X917Y115D02*
X924Y115D01*
X0Y114D02*
X7Y114D01*
X274Y114D02*
X276Y114D01*
X341Y114D02*
X342Y114D01*
X917Y114D02*
X924Y114D01*
X0Y113D02*
X7Y113D01*
X917Y113D02*
X924Y113D01*
X0Y112D02*
X7Y112D01*
X917Y112D02*
X924Y112D01*
X0Y111D02*
X7Y111D01*
X917Y111D02*
X924Y111D01*
X0Y110D02*
X7Y110D01*
X917Y110D02*
X924Y110D01*
X0Y109D02*
X7Y109D01*
X917Y109D02*
X924Y109D01*
X0Y108D02*
X7Y108D01*
X917Y108D02*
X924Y108D01*
X0Y107D02*
X7Y107D01*
X917Y107D02*
X924Y107D01*
X0Y106D02*
X7Y106D01*
X917Y106D02*
X924Y106D01*
X0Y105D02*
X7Y105D01*
X917Y105D02*
X924Y105D01*
X0Y104D02*
X7Y104D01*
X917Y104D02*
X924Y104D01*
X0Y103D02*
X7Y103D01*
X917Y103D02*
X924Y103D01*
X0Y102D02*
X7Y102D01*
X917Y102D02*
X924Y102D01*
X0Y101D02*
X7Y101D01*
X917Y101D02*
X924Y101D01*
X0Y100D02*
X7Y100D01*
X917Y100D02*
X924Y100D01*
X0Y99D02*
X7Y99D01*
X917Y99D02*
X924Y99D01*
X0Y98D02*
X7Y98D01*
X917Y98D02*
X924Y98D01*
X0Y97D02*
X7Y97D01*
X917Y97D02*
X924Y97D01*
X0Y96D02*
X7Y96D01*
X917Y96D02*
X924Y96D01*
X0Y95D02*
X7Y95D01*
X917Y95D02*
X924Y95D01*
X0Y94D02*
X7Y94D01*
X917Y94D02*
X924Y94D01*
X0Y93D02*
X7Y93D01*
X917Y93D02*
X924Y93D01*
X0Y92D02*
X7Y92D01*
X917Y92D02*
X924Y92D01*
X0Y91D02*
X7Y91D01*
X917Y91D02*
X924Y91D01*
X0Y90D02*
X7Y90D01*
X917Y90D02*
X924Y90D01*
X0Y89D02*
X7Y89D01*
X917Y89D02*
X924Y89D01*
X0Y88D02*
X7Y88D01*
X917Y88D02*
X924Y88D01*
X0Y87D02*
X7Y87D01*
X917Y87D02*
X924Y87D01*
X0Y86D02*
X7Y86D01*
X917Y86D02*
X924Y86D01*
X0Y85D02*
X7Y85D01*
X917Y85D02*
X924Y85D01*
X0Y84D02*
X7Y84D01*
X917Y84D02*
X924Y84D01*
X0Y83D02*
X7Y83D01*
X917Y83D02*
X924Y83D01*
X0Y82D02*
X7Y82D01*
X917Y82D02*
X924Y82D01*
X0Y81D02*
X7Y81D01*
X917Y81D02*
X924Y81D01*
X0Y80D02*
X7Y80D01*
X917Y80D02*
X924Y80D01*
X0Y79D02*
X7Y79D01*
X917Y79D02*
X924Y79D01*
X0Y78D02*
X7Y78D01*
X917Y78D02*
X924Y78D01*
X0Y77D02*
X7Y77D01*
X917Y77D02*
X924Y77D01*
X0Y76D02*
X7Y76D01*
X917Y76D02*
X924Y76D01*
X0Y75D02*
X7Y75D01*
X917Y75D02*
X924Y75D01*
X0Y74D02*
X7Y74D01*
X917Y74D02*
X924Y74D01*
X0Y73D02*
X7Y73D01*
X917Y73D02*
X924Y73D01*
X0Y72D02*
X7Y72D01*
X917Y72D02*
X924Y72D01*
X0Y71D02*
X7Y71D01*
X917Y71D02*
X924Y71D01*
X0Y70D02*
X7Y70D01*
X917Y70D02*
X924Y70D01*
X0Y69D02*
X7Y69D01*
X917Y69D02*
X924Y69D01*
X0Y68D02*
X7Y68D01*
X917Y68D02*
X924Y68D01*
X0Y67D02*
X7Y67D01*
X917Y67D02*
X924Y67D01*
X0Y66D02*
X7Y66D01*
X917Y66D02*
X924Y66D01*
X0Y65D02*
X7Y65D01*
X917Y65D02*
X924Y65D01*
X0Y64D02*
X7Y64D01*
X917Y64D02*
X924Y64D01*
X0Y63D02*
X7Y63D01*
X917Y63D02*
X924Y63D01*
X0Y62D02*
X7Y62D01*
X917Y62D02*
X924Y62D01*
X0Y61D02*
X7Y61D01*
X917Y61D02*
X924Y61D01*
X0Y60D02*
X7Y60D01*
X917Y60D02*
X924Y60D01*
X0Y59D02*
X7Y59D01*
X917Y59D02*
X924Y59D01*
X0Y58D02*
X7Y58D01*
X917Y58D02*
X924Y58D01*
X0Y57D02*
X7Y57D01*
X917Y57D02*
X924Y57D01*
X0Y56D02*
X7Y56D01*
X917Y56D02*
X924Y56D01*
X0Y55D02*
X7Y55D01*
X917Y55D02*
X924Y55D01*
X0Y54D02*
X7Y54D01*
X917Y54D02*
X924Y54D01*
X0Y53D02*
X7Y53D01*
X917Y53D02*
X924Y53D01*
X0Y52D02*
X7Y52D01*
X917Y52D02*
X924Y52D01*
X0Y51D02*
X7Y51D01*
X917Y51D02*
X924Y51D01*
X0Y50D02*
X7Y50D01*
X917Y50D02*
X924Y50D01*
X0Y49D02*
X7Y49D01*
X917Y49D02*
X924Y49D01*
X0Y48D02*
X7Y48D01*
X917Y48D02*
X924Y48D01*
X0Y47D02*
X7Y47D01*
X917Y47D02*
X924Y47D01*
X0Y46D02*
X7Y46D01*
X917Y46D02*
X924Y46D01*
X0Y45D02*
X7Y45D01*
X917Y45D02*
X924Y45D01*
X0Y44D02*
X7Y44D01*
X917Y44D02*
X924Y44D01*
X0Y43D02*
X7Y43D01*
X917Y43D02*
X924Y43D01*
X0Y42D02*
X7Y42D01*
X917Y42D02*
X924Y42D01*
X0Y41D02*
X7Y41D01*
X917Y41D02*
X924Y41D01*
X0Y40D02*
X7Y40D01*
X917Y40D02*
X924Y40D01*
X0Y39D02*
X7Y39D01*
X917Y39D02*
X924Y39D01*
X0Y38D02*
X7Y38D01*
X917Y38D02*
X924Y38D01*
X0Y37D02*
X7Y37D01*
X917Y37D02*
X924Y37D01*
X0Y36D02*
X7Y36D01*
X917Y36D02*
X924Y36D01*
X0Y35D02*
X7Y35D01*
X917Y35D02*
X924Y35D01*
X0Y34D02*
X7Y34D01*
X917Y34D02*
X924Y34D01*
X0Y33D02*
X7Y33D01*
X917Y33D02*
X924Y33D01*
X0Y32D02*
X7Y32D01*
X917Y32D02*
X924Y32D01*
X0Y31D02*
X7Y31D01*
X917Y31D02*
X924Y31D01*
X0Y30D02*
X7Y30D01*
X917Y30D02*
X924Y30D01*
X0Y29D02*
X7Y29D01*
X917Y29D02*
X924Y29D01*
X0Y28D02*
X7Y28D01*
X917Y28D02*
X924Y28D01*
X0Y27D02*
X7Y27D01*
X917Y27D02*
X924Y27D01*
X0Y26D02*
X7Y26D01*
X917Y26D02*
X924Y26D01*
X0Y25D02*
X7Y25D01*
X917Y25D02*
X924Y25D01*
X0Y24D02*
X7Y24D01*
X917Y24D02*
X924Y24D01*
X0Y23D02*
X7Y23D01*
X917Y23D02*
X924Y23D01*
X0Y22D02*
X7Y22D01*
X917Y22D02*
X924Y22D01*
X0Y21D02*
X7Y21D01*
X917Y21D02*
X924Y21D01*
X0Y20D02*
X7Y20D01*
X917Y20D02*
X924Y20D01*
X0Y19D02*
X7Y19D01*
X917Y19D02*
X924Y19D01*
X0Y18D02*
X7Y18D01*
X917Y18D02*
X924Y18D01*
X0Y17D02*
X7Y17D01*
X917Y17D02*
X924Y17D01*
X0Y16D02*
X7Y16D01*
X917Y16D02*
X924Y16D01*
X0Y15D02*
X7Y15D01*
X917Y15D02*
X924Y15D01*
X0Y14D02*
X7Y14D01*
X917Y14D02*
X924Y14D01*
X0Y13D02*
X7Y13D01*
X917Y13D02*
X924Y13D01*
X0Y12D02*
X7Y12D01*
X917Y12D02*
X924Y12D01*
X0Y11D02*
X7Y11D01*
X917Y11D02*
X924Y11D01*
X0Y10D02*
X7Y10D01*
X917Y10D02*
X924Y10D01*
X0Y9D02*
X7Y9D01*
X917Y9D02*
X924Y9D01*
X0Y8D02*
X924Y8D01*
X0Y7D02*
X924Y7D01*
X0Y6D02*
X924Y6D01*
X0Y5D02*
X924Y5D01*
X0Y4D02*
X924Y4D01*
X0Y3D02*
X924Y3D01*
X0Y2D02*
X924Y2D01*
X0Y1D02*
X924Y1D01*
D02*
G04 End of Silk0*
M02*