<?xml version='1.0' encoding='UTF-8' standalone='no'?>
<!-- Created with Fritzing (http://www.fritzing.org/) -->
<svg xmlns="http://www.w3.org/2000/svg"  baseProfile="tiny" version="1.2" width="0.925197in" x="0in" xmlns:svg="http://www.w3.org/2000/svg" y="0in" height="0.925197in" viewBox="0 0 66.6142 66.6142">
 <g partID="57660">
  <g  id="board">
   <rect  id="boardoutline" stroke-width="0.5" width="66.0382" x="0.288" stroke="black" fill="none" fill-opacity="0.5" y="0.288" height="66.0382"/>
  </g>
 </g>
 <g partID="854693990">
  <g transform="translate(2.88,2.88)">
   <g  id="groundplane1">
    <g  id="connector0pad">
     <polygon  stroke-width="0" stroke="none" fill="black" points="0,0,0,5.04,15.264,5.04,15.264,4.896,14.832,4.896,14.832,4.752,14.544,4.752,14.544,4.608,14.256,4.608,14.256,4.464,14.112,4.464,14.112,4.32,13.968,4.32,13.968,4.176,13.68,4.176,13.68,4.032,13.536,4.032,13.536,3.744,13.392,3.744,13.392,3.6,13.248,3.6,13.248,3.312,13.104,3.312,13.104,3.168,12.96,3.168,12.96,2.736,12.816,2.736,12.816,2.16,12.672,2.16,12.672,0"/>
     <polygon  stroke-width="0" stroke="none" fill="black" points="41.04,0,41.04,5.04,60.768,5.04,60.768,0"/>
     <polygon  stroke-width="0" stroke="none" fill="black" points="19.008,3.312,19.008,3.456,18.864,3.456,18.864,3.744,18.72,3.744,18.72,3.888,18.576,3.888,18.576,4.032,18.432,4.032,18.432,4.176,18.288,4.176,18.288,4.32,18.144,4.32,18.144,4.464,17.856,4.464,17.856,4.608,17.712,4.608,17.712,4.752,17.424,4.752,17.424,4.896,16.848,4.896,16.848,5.04,22.464,5.04,22.464,4.896,22.032,4.896,22.032,4.752,21.744,4.752,21.744,4.608,21.456,4.608,21.456,4.464,21.312,4.464,21.312,4.32,21.168,4.32,21.168,4.176,20.88,4.176,20.88,4.032,20.736,4.032,20.736,3.744,20.592,3.744,20.592,3.6,20.448,3.6,20.448,3.312"/>
     <polygon  stroke-width="0" stroke="none" fill="black" points="26.208,3.312,26.208,3.456,26.064,3.456,26.064,3.744,25.92,3.744,25.92,3.888,25.776,3.888,25.776,4.032,25.632,4.032,25.632,4.176,25.488,4.176,25.488,4.32,25.344,4.32,25.344,4.464,25.056,4.464,25.056,4.608,24.912,4.608,24.912,4.752,24.624,4.752,24.624,4.896,24.048,4.896,24.048,5.04,29.664,5.04,29.664,4.896,29.232,4.896,29.232,4.752,28.944,4.752,28.944,4.608,28.656,4.608,28.656,4.464,28.512,4.464,28.512,4.32,28.368,4.32,28.368,4.176,28.08,4.176,28.08,4.032,27.936,4.032,27.936,3.744,27.792,3.744,27.792,3.6,27.648,3.6,27.648,3.312"/>
     <polygon  stroke-width="0" stroke="none" fill="black" points="32.832,4.032,32.832,4.176,32.688,4.176,32.688,4.32,32.544,4.32,32.544,4.464,32.256,4.464,32.256,4.608,32.112,4.608,32.112,4.752,31.824,4.752,31.824,4.896,31.248,4.896,31.248,5.04,34.272,5.04,34.272,4.032"/>
     <polygon  stroke-width="0" stroke="none" fill="black" points="0,5.04,0,5.184,60.768,5.184,60.768,5.04"/>
     <polygon  stroke-width="0" stroke="none" fill="black" points="0,5.04,0,5.184,60.768,5.184,60.768,5.04"/>
     <polygon  stroke-width="0" stroke="none" fill="black" points="0,5.04,0,5.184,60.768,5.184,60.768,5.04"/>
     <polygon  stroke-width="0" stroke="none" fill="black" points="0,5.04,0,5.184,60.768,5.184,60.768,5.04"/>
     <polygon  stroke-width="0" stroke="none" fill="black" points="0,5.04,0,5.184,60.768,5.184,60.768,5.04"/>
     <polygon  stroke-width="0" stroke="none" fill="black" points="0,5.184,0,9.216,58.032,9.216,58.032,9.36,58.464,9.36,58.464,9.504,58.752,9.504,58.752,9.648,58.896,9.648,58.896,9.792,59.184,9.792,59.184,9.936,59.328,9.936,59.328,10.08,60.768,10.08,60.768,5.184"/>
     <polygon  stroke-width="0" stroke="none" fill="black" points="0,9.216,0,10.512,1.44,10.512,1.44,10.368,1.584,10.368,1.584,10.08,1.728,10.08,1.728,9.936,2.016,9.936,2.016,9.792,2.16,9.792,2.16,9.648,2.448,9.648,2.448,9.504,2.592,9.504,2.592,9.36,3.024,9.36,3.024,9.216"/>
     <polygon  stroke-width="0" stroke="none" fill="black" points="4.752,9.216,4.752,9.36,5.184,9.36,5.184,9.504,5.472,9.504,5.472,9.648,5.616,9.648,5.616,9.792,5.904,9.792,5.904,9.936,6.048,9.936,6.048,10.08,6.192,10.08,6.192,10.224,6.336,10.224,6.336,10.368,6.48,10.368,6.48,10.656,54.576,10.656,54.576,10.512,54.72,10.512,54.72,10.368,54.864,10.368,54.864,10.08,55.008,10.08,55.008,9.936,55.296,9.936,55.296,9.792,55.44,9.792,55.44,9.648,55.728,9.648,55.728,9.504,55.872,9.504,55.872,9.36,56.448,9.36,56.448,9.216"/>
    </g>
   </g>
  </g>
 </g>
 <g partID="854694000">
  <g transform="translate(7.92,16.704)">
   <g  id="groundplane1">
    <g  id="connector0pad">
     <polygon  stroke-width="0" stroke="none" fill="black" points="1.584,0,1.584,0.144,1.44,0.144,1.44,0.288,1.296,0.288,1.296,0.432,1.152,0.432,1.152,0.72,1.008,0.72,1.008,0.864,0.72,0.864,0.72,1.008,0.576,1.008,0.576,1.152,0.288,1.152,0.288,1.296,0,1.296,0,2.736,0.144,2.736,0.144,2.88,0.432,2.88,0.432,3.024,0.576,3.024,0.576,3.168,0.864,3.168,0.864,3.312,1.008,3.312,1.008,3.456,1.152,3.456,1.152,3.6,1.296,3.6,1.296,3.744,1.44,3.744,1.44,4.032,49.536,4.032,49.536,3.888,49.68,3.888,49.68,3.744,49.824,3.744,49.824,3.456,49.968,3.456,49.968,3.312,50.256,3.312,50.256,3.168,50.4,3.168,50.4,3.024,50.688,3.024,50.688,2.88,50.832,2.88,50.832,2.736,50.976,2.736,50.976,1.296,50.688,1.296,50.688,1.152,50.4,1.152,50.4,1.008,50.256,1.008,50.256,0.864,50.112,0.864,50.112,0.72,49.968,0.72,49.968,0.576,49.824,0.576,49.824,0.432,49.68,0.432,49.68,0.288,49.536,0.288,49.536,0"/>
    </g>
   </g>
  </g>
 </g>
 <g partID="854694010">
  <g transform="translate(2.88,16.992)">
   <g  id="groundplane1">
    <g  id="connector0pad">
     <polygon  stroke-width="0" stroke="none" fill="black" points="0,0,0,3.6,1.44,3.6,1.44,3.456,1.584,3.456,1.584,3.168,1.728,3.168,1.728,3.024,2.016,3.024,2.016,2.88,2.16,2.88,2.16,2.736,2.448,2.736,2.448,2.592,2.592,2.592,2.592,2.448,2.736,2.448,2.736,1.008,2.448,1.008,2.448,0.864,2.16,0.864,2.16,0.72,2.016,0.72,2.016,0.576,1.872,0.576,1.872,0.432,1.728,0.432,1.728,0.288,1.584,0.288,1.584,0.144,1.44,0.144,1.44,0"/>
    </g>
   </g>
  </g>
 </g>
 <g partID="854694020">
  <g transform="translate(7.92,23.904)">
   <g  id="groundplane1">
    <g  id="connector0pad">
     <polygon  stroke-width="0" stroke="none" fill="black" points="1.584,0,1.584,0.144,1.44,0.144,1.44,0.288,1.296,0.288,1.296,0.432,1.152,0.432,1.152,0.72,1.008,0.72,1.008,0.864,0.72,0.864,0.72,1.008,0.576,1.008,0.576,1.152,0.288,1.152,0.288,1.296,0,1.296,0,2.736,0.144,2.736,0.144,2.88,0.432,2.88,0.432,3.024,0.576,3.024,0.576,3.168,0.864,3.168,0.864,3.312,1.008,3.312,1.008,3.456,1.152,3.456,1.152,3.6,1.296,3.6,1.296,3.744,1.44,3.744,1.44,4.032,49.536,4.032,49.536,3.888,49.68,3.888,49.68,3.744,49.824,3.744,49.824,3.456,49.968,3.456,49.968,3.312,50.256,3.312,50.256,3.168,50.4,3.168,50.4,3.024,50.688,3.024,50.688,2.88,50.832,2.88,50.832,2.736,50.976,2.736,50.976,1.296,50.688,1.296,50.688,1.152,50.4,1.152,50.4,1.008,50.256,1.008,50.256,0.864,50.112,0.864,50.112,0.72,49.968,0.72,49.968,0.576,49.824,0.576,49.824,0.432,49.68,0.432,49.68,0.288,49.536,0.288,49.536,0"/>
    </g>
   </g>
  </g>
 </g>
 <g partID="854694030">
  <g transform="translate(2.88,24.192)">
   <g  id="groundplane1">
    <g  id="connector0pad">
     <polygon  stroke-width="0" stroke="none" fill="black" points="0,0,0,3.6,1.44,3.6,1.44,3.456,1.584,3.456,1.584,3.168,1.728,3.168,1.728,3.024,2.016,3.024,2.016,2.88,2.16,2.88,2.16,2.736,2.448,2.736,2.448,2.592,2.592,2.592,2.592,2.448,2.736,2.448,2.736,1.008,2.448,1.008,2.448,0.864,2.16,0.864,2.16,0.72,2.016,0.72,2.016,0.576,1.872,0.576,1.872,0.432,1.728,0.432,1.728,0.288,1.584,0.288,1.584,0.144,1.44,0.144,1.44,0"/>
    </g>
   </g>
  </g>
 </g>
 <g partID="854694040">
  <g transform="translate(7.92,31.104)">
   <g  id="groundplane1">
    <g  id="connector0pad">
     <polygon  stroke-width="0" stroke="none" fill="black" points="1.584,0,1.584,0.144,1.44,0.144,1.44,0.288,1.296,0.288,1.296,0.432,1.152,0.432,1.152,0.72,1.008,0.72,1.008,0.864,0.72,0.864,0.72,1.008,0.576,1.008,0.576,1.152,0.288,1.152,0.288,1.296,0,1.296,0,2.736,0.144,2.736,0.144,2.88,0.432,2.88,0.432,3.024,0.576,3.024,0.576,3.168,0.864,3.168,0.864,3.312,1.008,3.312,1.008,3.456,1.152,3.456,1.152,3.6,1.296,3.6,1.296,3.744,1.44,3.744,1.44,4.032,49.536,4.032,49.536,3.888,49.68,3.888,49.68,3.744,49.824,3.744,49.824,3.456,49.968,3.456,49.968,3.312,50.256,3.312,50.256,3.168,50.4,3.168,50.4,3.024,50.688,3.024,50.688,2.88,50.832,2.88,50.832,2.736,50.976,2.736,50.976,1.296,50.688,1.296,50.688,1.152,50.4,1.152,50.4,1.008,50.256,1.008,50.256,0.864,50.112,0.864,50.112,0.72,49.968,0.72,49.968,0.576,49.824,0.576,49.824,0.432,49.68,0.432,49.68,0.288,49.536,0.288,49.536,0"/>
    </g>
   </g>
  </g>
 </g>
 <g partID="854694050">
  <g transform="translate(2.88,31.392)">
   <g  id="groundplane1">
    <g  id="connector0pad">
     <polygon  stroke-width="0" stroke="none" fill="black" points="0,0,0,3.6,1.44,3.6,1.44,3.456,1.584,3.456,1.584,3.168,1.728,3.168,1.728,3.024,2.016,3.024,2.016,2.88,2.16,2.88,2.16,2.736,2.448,2.736,2.448,2.592,2.592,2.592,2.592,2.448,2.736,2.448,2.736,1.008,2.448,1.008,2.448,0.864,2.16,0.864,2.16,0.72,2.016,0.72,2.016,0.576,1.872,0.576,1.872,0.432,1.728,0.432,1.728,0.288,1.584,0.288,1.584,0.144,1.44,0.144,1.44,0"/>
    </g>
   </g>
  </g>
 </g>
 <g partID="854694060">
  <g transform="translate(7.92,38.304)">
   <g  id="groundplane1">
    <g  id="connector0pad">
     <polygon  stroke-width="0" stroke="none" fill="black" points="1.584,0,1.584,0.144,1.44,0.144,1.44,0.288,1.296,0.288,1.296,0.432,1.152,0.432,1.152,0.72,1.008,0.72,1.008,0.864,0.72,0.864,0.72,1.008,0.576,1.008,0.576,1.152,0.288,1.152,0.288,1.296,0,1.296,0,2.736,0.144,2.736,0.144,2.88,0.432,2.88,0.432,3.024,0.576,3.024,0.576,3.168,0.864,3.168,0.864,3.312,1.008,3.312,1.008,3.456,1.152,3.456,1.152,3.6,1.296,3.6,1.296,3.744,1.44,3.744,1.44,4.032,49.536,4.032,49.536,3.888,49.68,3.888,49.68,3.744,49.824,3.744,49.824,3.456,49.968,3.456,49.968,3.312,50.256,3.312,50.256,3.168,50.4,3.168,50.4,3.024,50.688,3.024,50.688,2.88,50.832,2.88,50.832,2.736,50.976,2.736,50.976,1.296,50.688,1.296,50.688,1.152,50.4,1.152,50.4,1.008,50.256,1.008,50.256,0.864,50.112,0.864,50.112,0.72,49.968,0.72,49.968,0.576,49.824,0.576,49.824,0.432,49.68,0.432,49.68,0.288,49.536,0.288,49.536,0"/>
    </g>
   </g>
  </g>
 </g>
 <g partID="854694070">
  <g transform="translate(2.88,38.592)">
   <g  id="groundplane1">
    <g  id="connector0pad">
     <polygon  stroke-width="0" stroke="none" fill="black" points="0,0,0,3.6,1.44,3.6,1.44,3.456,1.584,3.456,1.584,3.168,1.728,3.168,1.728,3.024,2.016,3.024,2.016,2.88,2.16,2.88,2.16,2.736,2.448,2.736,2.448,2.592,2.592,2.592,2.592,2.448,2.736,2.448,2.736,1.008,2.448,1.008,2.448,0.864,2.16,0.864,2.16,0.72,2.016,0.72,2.016,0.576,1.872,0.576,1.872,0.432,1.728,0.432,1.728,0.288,1.584,0.288,1.584,0.144,1.44,0.144,1.44,0"/>
    </g>
   </g>
  </g>
 </g>
 <g partID="854694080">
  <g transform="translate(2.88,45.792)">
   <g  id="groundplane1">
    <g  id="connector0pad">
     <polygon  stroke-width="0" stroke="none" fill="black" points="0,0,0,3.6,1.44,3.6,1.44,3.456,1.584,3.456,1.584,3.168,1.728,3.168,1.728,3.024,2.016,3.024,2.016,2.88,2.16,2.88,2.16,2.736,2.448,2.736,2.448,2.592,2.592,2.592,2.592,2.448,2.736,2.448,2.736,1.008,2.448,1.008,2.448,0.864,2.16,0.864,2.16,0.72,2.016,0.72,2.016,0.576,1.872,0.576,1.872,0.432,1.728,0.432,1.728,0.288,1.584,0.288,1.584,0.144,1.44,0.144,1.44,0"/>
    </g>
   </g>
  </g>
 </g>
 <g partID="854694090">
  <g transform="translate(2.88,45.504)">
   <g  id="groundplane1">
    <polygon  stroke-width="0" stroke="none" fill="black" points="6.624,0,6.624,0.144,6.48,0.144,6.48,0.288,6.336,0.288,6.336,0.432,6.192,0.432,6.192,0.72,6.048,0.72,6.048,0.864,5.76,0.864,5.76,1.008,5.616,1.008,5.616,1.152,5.328,1.152,5.328,1.296,5.04,1.296,5.04,2.736,5.184,2.736,5.184,2.88,5.472,2.88,5.472,3.024,5.616,3.024,5.616,3.168,5.904,3.168,5.904,3.312,6.048,3.312,6.048,3.456,6.192,3.456,6.192,3.6,6.336,3.6,6.336,3.744,6.48,3.744,6.48,4.032,6.624,4.032,6.624,4.32,6.768,4.32,6.768,4.608,6.912,4.608,6.912,5.184,7.056,5.184,7.056,6.192,6.912,6.192,6.912,6.768,6.768,6.768,6.768,7.056,6.624,7.056,6.624,7.344,6.48,7.344,6.48,7.488,6.336,7.488,6.336,7.632,6.192,7.632,6.192,7.92,6.048,7.92,6.048,8.064,5.76,8.064,5.76,8.208,5.616,8.208,5.616,8.352,5.328,8.352,5.328,8.496,5.04,8.496,5.04,8.64,4.608,8.64,4.608,8.784,56.448,8.784,56.448,8.64,56.016,8.64,56.016,8.496,55.728,8.496,55.728,8.352,55.44,8.352,55.44,8.208,55.296,8.208,55.296,8.064,55.152,8.064,55.152,7.92,55.008,7.92,55.008,7.776,54.864,7.776,54.864,7.632,54.72,7.632,54.72,7.488,54.576,7.488,54.576,7.2,54.432,7.2,54.432,6.912,54.288,6.912,54.288,6.624,54.144,6.624,54.144,5.76,54,5.76,54,5.616,54.144,5.616,54.144,4.752,54.288,4.752,54.288,4.32,54.432,4.32,54.432,4.176,54.576,4.176,54.576,3.888,54.72,3.888,54.72,3.744,54.864,3.744,54.864,3.456,55.008,3.456,55.008,3.312,55.296,3.312,55.296,3.168,55.44,3.168,55.44,3.024,55.728,3.024,55.728,2.88,55.872,2.88,55.872,2.736,56.016,2.736,56.016,1.296,55.728,1.296,55.728,1.152,55.44,1.152,55.44,1.008,55.296,1.008,55.296,0.864,55.152,0.864,55.152,0.72,55.008,0.72,55.008,0.576,54.864,0.576,54.864,0.432,54.72,0.432,54.72,0.288,54.576,0.288,54.576,0"/>
    <polygon  stroke-width="0" stroke="none" fill="black" points="0,7.488,0,8.784,3.168,8.784,3.168,8.64,2.736,8.64,2.736,8.496,2.448,8.496,2.448,8.352,2.16,8.352,2.16,8.208,2.016,8.208,2.016,8.064,1.872,8.064,1.872,7.92,1.728,7.92,1.728,7.776,1.584,7.776,1.584,7.632,1.44,7.632,1.44,7.488"/>
    <polygon  stroke-width="0" stroke="none" fill="black" points="59.328,7.92,59.328,8.064,59.04,8.064,59.04,8.208,58.896,8.208,58.896,8.352,58.608,8.352,58.608,8.496,58.32,8.496,58.32,8.64,57.888,8.64,57.888,8.784,60.768,8.784,60.768,7.92"/>
    <polygon  stroke-width="0" stroke="none" fill="black" points="0,8.784,0,8.928,60.768,8.928,60.768,8.784"/>
    <polygon  stroke-width="0" stroke="none" fill="black" points="0,8.784,0,8.928,60.768,8.928,60.768,8.784"/>
    <polygon  stroke-width="0" stroke="none" fill="black" points="0,8.784,0,8.928,60.768,8.928,60.768,8.784"/>
    <polygon  stroke-width="0" stroke="none" fill="black" points="0,8.928,0,13.248,52.56,13.248,52.56,13.392,53.136,13.392,53.136,13.536,53.568,13.536,53.568,13.68,53.712,13.68,53.712,13.824,54,13.824,54,13.968,54.144,13.968,54.144,14.112,54.432,14.112,54.432,14.256,54.576,14.256,54.576,14.544,54.72,14.544,54.72,14.688,54.864,14.688,54.864,14.832,55.008,14.832,55.008,14.976,56.448,14.976,56.448,14.688,56.592,14.688,56.592,14.544,56.736,14.544,56.736,14.4,56.88,14.4,56.88,14.256,57.024,14.256,57.024,14.112,57.168,14.112,57.168,13.968,57.312,13.968,57.312,13.824,57.6,13.824,57.6,13.68,57.888,13.68,57.888,13.536,58.32,13.536,58.32,13.392,58.896,13.392,58.896,13.248,60.768,13.248,60.768,8.928"/>
    <polygon  stroke-width="0" stroke="none" fill="black" points="2.16,13.248,2.16,13.392,2.736,13.392,2.736,13.536,3.168,13.536,3.168,13.68,3.312,13.68,3.312,13.824,3.6,13.824,3.6,13.968,3.744,13.968,3.744,14.112,4.032,14.112,4.032,14.256,4.176,14.256,4.176,14.544,4.32,14.544,4.32,14.688,4.464,14.688,4.464,14.832,4.608,14.832,4.608,14.976,6.048,14.976,6.048,14.688,6.192,14.688,6.192,14.544,6.336,14.544,6.336,14.4,6.48,14.4,6.48,14.256,6.624,14.256,6.624,14.112,6.768,14.112,6.768,13.968,6.912,13.968,6.912,13.824,7.2,13.824,7.2,13.68,7.488,13.68,7.488,13.536,7.92,13.536,7.92,13.392,8.496,13.392,8.496,13.248"/>
    <polygon  stroke-width="0" stroke="none" fill="black" points="9.36,13.248,9.36,13.392,9.936,13.392,9.936,13.536,10.368,13.536,10.368,13.68,10.512,13.68,10.512,13.824,10.8,13.824,10.8,13.968,10.944,13.968,10.944,14.112,11.232,14.112,11.232,14.256,11.376,14.256,11.376,14.544,11.52,14.544,11.52,14.688,11.664,14.688,11.664,14.832,11.808,14.832,11.808,14.976,13.248,14.976,13.248,14.688,13.392,14.688,13.392,14.544,13.536,14.544,13.536,14.4,13.68,14.4,13.68,14.256,13.824,14.256,13.824,14.112,13.968,14.112,13.968,13.968,14.112,13.968,14.112,13.824,14.4,13.824,14.4,13.68,14.688,13.68,14.688,13.536,15.12,13.536,15.12,13.392,15.696,13.392,15.696,13.248"/>
    <polygon  stroke-width="0" stroke="none" fill="black" points="16.56,13.248,16.56,13.392,17.136,13.392,17.136,13.536,17.568,13.536,17.568,13.68,17.712,13.68,17.712,13.824,18,13.824,18,13.968,18.144,13.968,18.144,14.112,18.432,14.112,18.432,14.256,18.576,14.256,18.576,14.544,18.72,14.544,18.72,14.688,18.864,14.688,18.864,14.832,19.008,14.832,19.008,14.976,20.448,14.976,20.448,14.688,20.592,14.688,20.592,14.544,20.736,14.544,20.736,14.4,20.88,14.4,20.88,14.256,21.024,14.256,21.024,14.112,21.168,14.112,21.168,13.968,21.312,13.968,21.312,13.824,21.6,13.824,21.6,13.68,21.888,13.68,21.888,13.536,22.32,13.536,22.32,13.392,22.896,13.392,22.896,13.248"/>
    <polygon  stroke-width="0" stroke="none" fill="black" points="23.76,13.248,23.76,13.392,24.336,13.392,24.336,13.536,24.768,13.536,24.768,13.68,24.912,13.68,24.912,13.824,25.2,13.824,25.2,13.968,25.344,13.968,25.344,14.112,25.632,14.112,25.632,14.256,25.776,14.256,25.776,14.544,25.92,14.544,25.92,14.688,26.064,14.688,26.064,14.832,26.208,14.832,26.208,14.976,27.648,14.976,27.648,14.688,27.792,14.688,27.792,14.544,27.936,14.544,27.936,14.4,28.08,14.4,28.08,14.256,28.224,14.256,28.224,14.112,28.368,14.112,28.368,13.968,28.512,13.968,28.512,13.824,28.8,13.824,28.8,13.68,29.088,13.68,29.088,13.536,29.52,13.536,29.52,13.392,30.096,13.392,30.096,13.248"/>
    <polygon  stroke-width="0" stroke="none" fill="black" points="30.96,13.248,30.96,13.392,31.536,13.392,31.536,13.536,31.968,13.536,31.968,13.68,32.112,13.68,32.112,13.824,32.4,13.824,32.4,13.968,32.544,13.968,32.544,14.112,32.832,14.112,32.832,14.256,32.976,14.256,32.976,14.544,33.12,14.544,33.12,14.688,33.264,14.688,33.264,14.832,33.408,14.832,33.408,14.976,34.848,14.976,34.848,14.688,34.992,14.688,34.992,14.544,35.136,14.544,35.136,14.4,35.28,14.4,35.28,14.256,35.424,14.256,35.424,14.112,35.568,14.112,35.568,13.968,35.712,13.968,35.712,13.824,36,13.824,36,13.68,36.288,13.68,36.288,13.536,36.72,13.536,36.72,13.392,37.296,13.392,37.296,13.248"/>
    <polygon  stroke-width="0" stroke="none" fill="black" points="38.16,13.248,38.16,13.392,38.736,13.392,38.736,13.536,39.168,13.536,39.168,13.68,39.312,13.68,39.312,13.824,39.6,13.824,39.6,13.968,39.744,13.968,39.744,14.112,40.032,14.112,40.032,14.256,40.176,14.256,40.176,14.544,40.32,14.544,40.32,14.688,40.464,14.688,40.464,14.832,40.608,14.832,40.608,14.976,42.048,14.976,42.048,14.688,42.192,14.688,42.192,14.544,42.336,14.544,42.336,14.4,42.48,14.4,42.48,14.256,42.624,14.256,42.624,14.112,42.768,14.112,42.768,13.968,42.912,13.968,42.912,13.824,43.2,13.824,43.2,13.68,43.488,13.68,43.488,13.536,43.92,13.536,43.92,13.392,44.496,13.392,44.496,13.248"/>
    <polygon  stroke-width="0" stroke="none" fill="black" points="45.36,13.248,45.36,13.392,45.936,13.392,45.936,13.536,46.368,13.536,46.368,13.68,46.512,13.68,46.512,13.824,46.8,13.824,46.8,13.968,46.944,13.968,46.944,14.112,47.232,14.112,47.232,14.256,47.376,14.256,47.376,14.544,47.52,14.544,47.52,14.688,47.664,14.688,47.664,14.832,47.808,14.832,47.808,14.976,49.248,14.976,49.248,14.688,49.392,14.688,49.392,14.544,49.536,14.544,49.536,14.4,49.68,14.4,49.68,14.256,49.824,14.256,49.824,14.112,49.968,14.112,49.968,13.968,50.112,13.968,50.112,13.824,50.4,13.824,50.4,13.68,50.688,13.68,50.688,13.536,51.12,13.536,51.12,13.392,51.696,13.392,51.696,13.248"/>
    <g  id="connector0pad">
     <circle  stroke-width="0" stroke="none" cy="4.077" cx="10.3599" fill="black" r="2.7"/>
    </g>
   </g>
  </g>
 </g>
 <g partID="854694100">
  <g transform="translate(3.312,49.536)">
   <g  id="groundplane1">
    <polygon  stroke-width="0" stroke="none" fill="black" points="0,0,2.016,0,2.016,2.808,0,2.808"/>
   </g>
  </g>
 </g>
 <g partID="854694110">
  <g transform="translate(8.064,49.536)">
   <g  id="groundplane1">
    <polygon  stroke-width="0" stroke="none" fill="black" points="0,0,1.872,0,1.872,2.808,0,2.808"/>
   </g>
  </g>
 </g>
 <g partID="854694120">
  <g transform="translate(56.736,49.536)">
   <g  id="groundplane1">
    <polygon  stroke-width="0" stroke="none" fill="black" points="0,0,1.728,0,1.728,2.808,0,2.808"/>
   </g>
  </g>
 </g>
 <g partID="854694130">
  <g transform="translate(61.2,49.536)">
   <g  id="groundplane1">
    <polygon  stroke-width="0" stroke="none" fill="black" points="0,0,2.016,0,2.016,2.808,0,2.808"/>
   </g>
  </g>
 </g>
 <g partID="60331">
  <g transform="translate(65.7744,0.972384)">
   <g transform="matrix(0,1,-1,0,0,0)">
    <g  id="copper1" gorn="0.3">
     <g  id="copper0" gorn="0.3.0">
      <circle  id="connector12pad" stroke-width="1.224" connectorname="GND" stroke="black" cy="25.2" cx="3.6" fill="none" gorn="0.3.0.0" r="2.052"/>
      <rect  stroke-width="1.224" width="4.104" x="1.548" stroke="black" fill="none" y="23.148" height="4.104"/>
      <circle  id="connector13pad" stroke-width="1.224" connectorname="VDD" stroke="black" cy="32.4" cx="3.6" fill="none" gorn="0.3.0.2" r="2.052"/>
      <circle  id="connector14pad" stroke-width="1.224" connectorname="SDA" stroke="black" cy="39.6" cx="3.6" fill="none" gorn="0.3.0.3" r="2.052"/>
      <circle  id="connector15pad" stroke-width="1.224" connectorname="SCL" stroke="black" cy="46.8" cx="3.6" fill="none" gorn="0.3.0.4" r="2.052"/>
      <circle  id="connector16pad" stroke-width="1.224" connectorname="SDO_A/G" stroke="black" cy="61.2" cx="61.2" fill="none" gorn="0.3.0.5" r="2.052"/>
      <circle  id="connector17pad" stroke-width="1.224" connectorname="SDO_M" stroke="black" cy="54" cx="61.2" fill="none" gorn="0.3.0.6" r="2.052"/>
      <circle  id="connector18pad" stroke-width="1.224" connectorname="CS_A/G" stroke="black" cy="46.8" cx="61.2" fill="none" gorn="0.3.0.7" r="2.052"/>
      <circle  id="connector19pad" stroke-width="1.224" connectorname="CS_M" stroke="black" cy="39.6" cx="61.2" fill="none" gorn="0.3.0.8" r="2.052"/>
      <circle  id="connector20pad" stroke-width="1.224" connectorname="DRDY_M" stroke="black" cy="32.4" cx="61.2" fill="none" gorn="0.3.0.9" r="2.052"/>
      <circle  id="connector21pad" stroke-width="1.224" connectorname="INT_M" stroke="black" cy="25.2" cx="61.2" fill="none" gorn="0.3.0.10" r="2.052"/>
      <circle  id="connector22pad" stroke-width="1.224" connectorname="INT1_A/G" stroke="black" cy="18" cx="61.2" fill="none" gorn="0.3.0.11" r="2.052"/>
      <circle  id="connector23pad" stroke-width="1.224" connectorname="INT2_A/G" stroke="black" cy="10.8" cx="61.2" fill="none" gorn="0.3.0.12" r="2.052"/>
      <circle  id="connector24pad" stroke-width="1.224" connectorname="DEN_A/G" stroke="black" cy="3.6" cx="61.2" fill="none" gorn="0.3.0.13" r="2.052"/>
     </g>
    </g>
   </g>
  </g>
 </g>
 <g partID="854668571">
  <g transform="translate(55.0368,10.1339)">
   <g  id="copper1">
    <g  id="copper0">
     <circle  id="connector0pin" stroke-width="0.992124" stroke="black" cy="5.04" cx="5.04" fill="none" r="1.91339"/>
     <circle  id="connector1pin" stroke-width="0.992124" stroke="black" cy="12.24" cx="5.04" fill="none" r="1.91339"/>
     <circle  id="connector2pin" stroke-width="0.992124" stroke="black" cy="19.44" cx="5.04" fill="none" r="1.91339"/>
     <circle  id="connector3pin" stroke-width="0.992124" stroke="black" cy="26.64" cx="5.04" fill="none" r="1.91339"/>
     <circle  id="connector4pin" stroke-width="0.992124" stroke="black" cy="33.84" cx="5.04" fill="none" r="1.91339"/>
     <circle  id="connector5pin" stroke-width="0.992124" stroke="black" cy="41.04" cx="5.04" fill="none" r="1.91339"/>
    </g>
   </g>
  </g>
 </g>
 <g partID="854668991">
  <g transform="translate(1.7456,10.1339)">
   <g  id="copper1">
    <g  id="copper0">
     <circle  id="connector0pin" stroke-width="0.992124" stroke="black" cy="5.04" cx="5.04" fill="none" r="1.91339"/>
     <circle  id="connector1pin" stroke-width="0.992124" stroke="black" cy="12.24" cx="5.04" fill="none" r="1.91339"/>
     <circle  id="connector2pin" stroke-width="0.992124" stroke="black" cy="19.44" cx="5.04" fill="none" r="1.91339"/>
     <circle  id="connector3pin" stroke-width="0.992124" stroke="black" cy="26.64" cx="5.04" fill="none" r="1.91339"/>
     <circle  id="connector4pin" stroke-width="0.992124" stroke="black" cy="33.84" cx="5.04" fill="none" r="1.91339"/>
     <circle  id="connector5pin" stroke-width="0.992124" stroke="black" cy="41.04" cx="5.04" fill="none" r="1.91339"/>
    </g>
   </g>
  </g>
 </g>
 <g partID="854690220">
  <line stroke-width="1.728" stroke-linecap="round" y1="43.9739" y2="43.9739" stroke="black" x2="57.8595" x1="9.00292"/>
 </g>
 <g partID="854690330">
  <line stroke-width="1.728" stroke-linecap="round" y1="36.7739" y2="36.7739" stroke="black" x2="9.00292" x1="57.8595"/>
 </g>
 <g partID="854690440">
  <line stroke-width="1.728" stroke-linecap="round" y1="29.5739" y2="29.5739" stroke="black" x2="9.00292" x1="57.8595"/>
 </g>
 <g partID="854690550">
  <line stroke-width="1.728" stroke-linecap="round" y1="22.3739" y2="22.3739" stroke="black" x2="9.00292" x1="57.8595"/>
 </g>
 <g partID="854690660">
  <line stroke-width="1.728" stroke-linecap="round" y1="15.1739" y2="15.1739" stroke="black" x2="9.00292" x1="57.8595"/>
 </g>
</svg>
