G04 MADE WITH FRITZING*
G04 WWW.FRITZING.ORG*
G04 DOUBLE SIDED*
G04 HOLES PLATED*
G04 CONTOUR ON CENTER OF CONTOUR VECTOR*
%ASAXBY*%
%FSLAX23Y23*%
%MOIN*%
%OFA0B0*%
%SFA1.0B1.0*%
%ADD10R,0.925197X0.925197X0.909197X0.909197*%
%ADD11C,0.008000*%
%ADD12R,0.001000X0.001000*%
%LNSILK1*%
G90*
G70*
G54D11*
X4Y921D02*
X921Y921D01*
X921Y4D01*
X4Y4D01*
X4Y921D01*
D02*
X228Y455D02*
X291Y455D01*
D02*
X291Y377D02*
X228Y377D01*
D02*
X228Y558D02*
X291Y558D01*
D02*
X291Y479D02*
X228Y479D01*
D02*
X228Y656D02*
X291Y656D01*
D02*
X291Y577D02*
X228Y577D01*
D02*
X340Y117D02*
X277Y117D01*
D02*
X277Y196D02*
X340Y196D01*
G54D12*
X228Y729D02*
X239Y729D01*
X256Y729D02*
X264Y729D01*
X274Y729D02*
X275Y729D01*
X227Y728D02*
X240Y728D01*
X255Y728D02*
X265Y728D01*
X273Y728D02*
X276Y728D01*
X226Y727D02*
X241Y727D01*
X254Y727D02*
X265Y727D01*
X273Y727D02*
X276Y727D01*
X226Y726D02*
X229Y726D01*
X238Y726D02*
X241Y726D01*
X253Y726D02*
X256Y726D01*
X273Y726D02*
X276Y726D01*
X226Y725D02*
X229Y725D01*
X239Y725D02*
X241Y725D01*
X253Y725D02*
X256Y725D01*
X273Y725D02*
X276Y725D01*
X227Y724D02*
X230Y724D01*
X240Y724D02*
X241Y724D01*
X252Y724D02*
X255Y724D01*
X273Y724D02*
X276Y724D01*
X227Y723D02*
X230Y723D01*
X252Y723D02*
X255Y723D01*
X273Y723D02*
X276Y723D01*
X228Y722D02*
X231Y722D01*
X251Y722D02*
X254Y722D01*
X273Y722D02*
X276Y722D01*
X229Y721D02*
X232Y721D01*
X251Y721D02*
X254Y721D01*
X273Y721D02*
X276Y721D01*
X230Y720D02*
X233Y720D01*
X250Y720D02*
X253Y720D01*
X273Y720D02*
X276Y720D01*
X230Y719D02*
X234Y719D01*
X250Y719D02*
X252Y719D01*
X273Y719D02*
X276Y719D01*
X231Y718D02*
X234Y718D01*
X250Y718D02*
X252Y718D01*
X273Y718D02*
X276Y718D01*
X232Y717D02*
X235Y717D01*
X250Y717D02*
X252Y717D01*
X273Y717D02*
X276Y717D01*
X233Y716D02*
X236Y716D01*
X250Y716D02*
X252Y716D01*
X273Y716D02*
X276Y716D01*
X233Y715D02*
X237Y715D01*
X250Y715D02*
X252Y715D01*
X273Y715D02*
X276Y715D01*
X234Y714D02*
X237Y714D01*
X250Y714D02*
X253Y714D01*
X273Y714D02*
X276Y714D01*
X235Y713D02*
X238Y713D01*
X251Y713D02*
X253Y713D01*
X273Y713D02*
X276Y713D01*
X236Y712D02*
X239Y712D01*
X251Y712D02*
X254Y712D01*
X273Y712D02*
X276Y712D01*
X237Y711D02*
X240Y711D01*
X252Y711D02*
X254Y711D01*
X273Y711D02*
X276Y711D01*
X227Y710D02*
X227Y710D01*
X237Y710D02*
X241Y710D01*
X252Y710D02*
X255Y710D01*
X273Y710D02*
X276Y710D01*
X226Y709D02*
X228Y709D01*
X238Y709D02*
X241Y709D01*
X253Y709D02*
X255Y709D01*
X273Y709D02*
X276Y709D01*
X226Y708D02*
X229Y708D01*
X239Y708D02*
X241Y708D01*
X253Y708D02*
X256Y708D01*
X273Y708D02*
X276Y708D01*
X226Y707D02*
X241Y707D01*
X254Y707D02*
X264Y707D01*
X273Y707D02*
X288Y707D01*
X227Y706D02*
X241Y706D01*
X254Y706D02*
X265Y706D01*
X273Y706D02*
X288Y706D01*
X228Y705D02*
X240Y705D01*
X255Y705D02*
X265Y705D01*
X273Y705D02*
X288Y705D01*
X226Y660D02*
X226Y660D01*
X292Y660D02*
X292Y660D01*
X223Y659D02*
X227Y659D01*
X291Y659D02*
X295Y659D01*
X222Y658D02*
X227Y658D01*
X291Y658D02*
X296Y658D01*
X221Y657D02*
X227Y657D01*
X291Y657D02*
X297Y657D01*
X220Y656D02*
X227Y656D01*
X291Y656D02*
X298Y656D01*
X219Y655D02*
X227Y655D01*
X291Y655D02*
X299Y655D01*
X218Y654D02*
X228Y654D01*
X290Y654D02*
X300Y654D01*
X218Y653D02*
X228Y653D01*
X290Y653D02*
X300Y653D01*
X217Y652D02*
X226Y652D01*
X292Y652D02*
X301Y652D01*
X217Y651D02*
X225Y651D01*
X293Y651D02*
X301Y651D01*
X216Y650D02*
X224Y650D01*
X294Y650D02*
X302Y650D01*
X216Y649D02*
X223Y649D01*
X295Y649D02*
X302Y649D01*
X216Y648D02*
X223Y648D01*
X295Y648D02*
X302Y648D01*
X216Y647D02*
X223Y647D01*
X295Y647D02*
X302Y647D01*
X216Y646D02*
X223Y646D01*
X295Y646D02*
X302Y646D01*
X216Y645D02*
X220Y645D01*
X298Y645D02*
X302Y645D01*
X317Y630D02*
X329Y630D01*
X340Y630D02*
X349Y630D01*
X370Y630D02*
X372Y630D01*
X388Y630D02*
X401Y630D01*
X316Y629D02*
X330Y629D01*
X339Y629D02*
X350Y629D01*
X369Y629D02*
X372Y629D01*
X387Y629D02*
X402Y629D01*
X316Y628D02*
X331Y628D01*
X340Y628D02*
X351Y628D01*
X369Y628D02*
X372Y628D01*
X387Y628D02*
X402Y628D01*
X316Y627D02*
X318Y627D01*
X329Y627D02*
X331Y627D01*
X343Y627D02*
X345Y627D01*
X348Y627D02*
X351Y627D01*
X369Y627D02*
X373Y627D01*
X387Y627D02*
X389Y627D01*
X400Y627D02*
X402Y627D01*
X316Y626D02*
X319Y626D01*
X329Y626D02*
X331Y626D01*
X343Y626D02*
X345Y626D01*
X349Y626D02*
X352Y626D01*
X369Y626D02*
X373Y626D01*
X387Y626D02*
X389Y626D01*
X400Y626D02*
X402Y626D01*
X317Y625D02*
X320Y625D01*
X330Y625D02*
X330Y625D01*
X343Y625D02*
X345Y625D01*
X349Y625D02*
X352Y625D01*
X368Y625D02*
X373Y625D01*
X387Y625D02*
X389Y625D01*
X400Y625D02*
X402Y625D01*
X317Y624D02*
X321Y624D01*
X343Y624D02*
X345Y624D01*
X350Y624D02*
X353Y624D01*
X368Y624D02*
X373Y624D01*
X387Y624D02*
X389Y624D01*
X400Y624D02*
X402Y624D01*
X318Y623D02*
X321Y623D01*
X343Y623D02*
X345Y623D01*
X350Y623D02*
X353Y623D01*
X368Y623D02*
X374Y623D01*
X387Y623D02*
X389Y623D01*
X400Y623D02*
X402Y623D01*
X319Y622D02*
X322Y622D01*
X343Y622D02*
X345Y622D01*
X351Y622D02*
X354Y622D01*
X367Y622D02*
X370Y622D01*
X372Y622D02*
X374Y622D01*
X387Y622D02*
X389Y622D01*
X400Y622D02*
X402Y622D01*
X320Y621D02*
X323Y621D01*
X343Y621D02*
X345Y621D01*
X352Y621D02*
X354Y621D01*
X367Y621D02*
X370Y621D01*
X372Y621D02*
X374Y621D01*
X387Y621D02*
X389Y621D01*
X400Y621D02*
X402Y621D01*
X320Y620D02*
X324Y620D01*
X343Y620D02*
X345Y620D01*
X352Y620D02*
X354Y620D01*
X367Y620D02*
X369Y620D01*
X372Y620D02*
X375Y620D01*
X387Y620D02*
X389Y620D01*
X400Y620D02*
X402Y620D01*
X321Y619D02*
X324Y619D01*
X343Y619D02*
X345Y619D01*
X352Y619D02*
X355Y619D01*
X366Y619D02*
X369Y619D01*
X372Y619D02*
X375Y619D01*
X387Y619D02*
X389Y619D01*
X400Y619D02*
X402Y619D01*
X322Y618D02*
X325Y618D01*
X343Y618D02*
X345Y618D01*
X352Y618D02*
X355Y618D01*
X366Y618D02*
X369Y618D01*
X373Y618D02*
X375Y618D01*
X387Y618D02*
X389Y618D01*
X400Y618D02*
X402Y618D01*
X323Y617D02*
X326Y617D01*
X343Y617D02*
X345Y617D01*
X352Y617D02*
X355Y617D01*
X366Y617D02*
X368Y617D01*
X373Y617D02*
X376Y617D01*
X387Y617D02*
X389Y617D01*
X400Y617D02*
X402Y617D01*
X323Y616D02*
X327Y616D01*
X343Y616D02*
X345Y616D01*
X352Y616D02*
X354Y616D01*
X366Y616D02*
X368Y616D01*
X373Y616D02*
X376Y616D01*
X387Y616D02*
X389Y616D01*
X400Y616D02*
X402Y616D01*
X324Y615D02*
X328Y615D01*
X343Y615D02*
X345Y615D01*
X351Y615D02*
X354Y615D01*
X365Y615D02*
X368Y615D01*
X374Y615D02*
X376Y615D01*
X387Y615D02*
X389Y615D01*
X400Y615D02*
X402Y615D01*
X325Y614D02*
X328Y614D01*
X343Y614D02*
X345Y614D01*
X351Y614D02*
X354Y614D01*
X365Y614D02*
X376Y614D01*
X387Y614D02*
X389Y614D01*
X400Y614D02*
X402Y614D01*
X326Y613D02*
X329Y613D01*
X343Y613D02*
X345Y613D01*
X350Y613D02*
X353Y613D01*
X365Y613D02*
X377Y613D01*
X387Y613D02*
X389Y613D01*
X400Y613D02*
X402Y613D01*
X327Y612D02*
X330Y612D01*
X343Y612D02*
X345Y612D01*
X350Y612D02*
X353Y612D01*
X364Y612D02*
X377Y612D01*
X387Y612D02*
X389Y612D01*
X400Y612D02*
X402Y612D01*
X316Y611D02*
X318Y611D01*
X327Y611D02*
X331Y611D01*
X343Y611D02*
X345Y611D01*
X349Y611D02*
X352Y611D01*
X364Y611D02*
X377Y611D01*
X387Y611D02*
X389Y611D01*
X400Y611D02*
X402Y611D01*
X316Y610D02*
X318Y610D01*
X328Y610D02*
X331Y610D01*
X343Y610D02*
X345Y610D01*
X349Y610D02*
X352Y610D01*
X364Y610D02*
X366Y610D01*
X375Y610D02*
X378Y610D01*
X387Y610D02*
X389Y610D01*
X400Y610D02*
X402Y610D01*
X316Y609D02*
X319Y609D01*
X329Y609D02*
X331Y609D01*
X343Y609D02*
X345Y609D01*
X348Y609D02*
X351Y609D01*
X364Y609D02*
X366Y609D01*
X375Y609D02*
X378Y609D01*
X387Y609D02*
X389Y609D01*
X400Y609D02*
X402Y609D01*
X316Y608D02*
X331Y608D01*
X340Y608D02*
X351Y608D01*
X363Y608D02*
X366Y608D01*
X376Y608D02*
X378Y608D01*
X387Y608D02*
X402Y608D01*
X317Y607D02*
X330Y607D01*
X339Y607D02*
X350Y607D01*
X363Y607D02*
X365Y607D01*
X376Y607D02*
X378Y607D01*
X387Y607D02*
X401Y607D01*
X318Y606D02*
X329Y606D01*
X340Y606D02*
X349Y606D01*
X363Y606D02*
X365Y606D01*
X377Y606D02*
X378Y606D01*
X388Y606D02*
X400Y606D01*
X216Y590D02*
X217Y590D01*
X301Y590D02*
X302Y590D01*
X216Y589D02*
X222Y589D01*
X296Y589D02*
X302Y589D01*
X216Y588D02*
X223Y588D01*
X295Y588D02*
X302Y588D01*
X216Y587D02*
X223Y587D01*
X295Y587D02*
X302Y587D01*
X216Y586D02*
X223Y586D01*
X295Y586D02*
X302Y586D01*
X216Y585D02*
X224Y585D01*
X294Y585D02*
X302Y585D01*
X217Y584D02*
X224Y584D01*
X294Y584D02*
X301Y584D01*
X217Y583D02*
X225Y583D01*
X293Y583D02*
X301Y583D01*
X217Y582D02*
X227Y582D01*
X291Y582D02*
X301Y582D01*
X218Y581D02*
X228Y581D01*
X290Y581D02*
X300Y581D01*
X218Y580D02*
X227Y580D01*
X291Y580D02*
X300Y580D01*
X219Y579D02*
X227Y579D01*
X291Y579D02*
X299Y579D01*
X220Y578D02*
X227Y578D01*
X291Y578D02*
X298Y578D01*
X221Y577D02*
X227Y577D01*
X291Y577D02*
X297Y577D01*
X222Y576D02*
X227Y576D01*
X291Y576D02*
X296Y576D01*
X224Y575D02*
X226Y575D01*
X292Y575D02*
X294Y575D01*
X224Y561D02*
X226Y561D01*
X292Y561D02*
X294Y561D01*
X222Y560D02*
X227Y560D01*
X291Y560D02*
X296Y560D01*
X221Y559D02*
X227Y559D01*
X291Y559D02*
X297Y559D01*
X220Y558D02*
X227Y558D01*
X291Y558D02*
X298Y558D01*
X219Y557D02*
X227Y557D01*
X291Y557D02*
X299Y557D01*
X218Y556D02*
X227Y556D01*
X291Y556D02*
X300Y556D01*
X218Y555D02*
X228Y555D01*
X290Y555D02*
X300Y555D01*
X217Y554D02*
X227Y554D01*
X291Y554D02*
X301Y554D01*
X217Y553D02*
X225Y553D01*
X293Y553D02*
X301Y553D01*
X217Y552D02*
X224Y552D01*
X294Y552D02*
X301Y552D01*
X216Y551D02*
X224Y551D01*
X294Y551D02*
X302Y551D01*
X216Y550D02*
X223Y550D01*
X295Y550D02*
X302Y550D01*
X216Y549D02*
X223Y549D01*
X295Y549D02*
X302Y549D01*
X216Y548D02*
X223Y548D01*
X295Y548D02*
X302Y548D01*
X216Y547D02*
X223Y547D01*
X295Y547D02*
X302Y547D01*
X216Y546D02*
X218Y546D01*
X300Y546D02*
X302Y546D01*
X319Y531D02*
X328Y531D01*
X341Y531D02*
X348Y531D01*
X371Y531D02*
X371Y531D01*
X388Y531D02*
X396Y531D01*
X317Y530D02*
X330Y530D01*
X340Y530D02*
X350Y530D01*
X370Y530D02*
X372Y530D01*
X387Y530D02*
X396Y530D01*
X317Y529D02*
X331Y529D01*
X340Y529D02*
X351Y529D01*
X370Y529D02*
X372Y529D01*
X387Y529D02*
X396Y529D01*
X316Y528D02*
X331Y528D01*
X341Y528D02*
X351Y528D01*
X369Y528D02*
X373Y528D01*
X388Y528D02*
X396Y528D01*
X316Y527D02*
X319Y527D01*
X329Y527D02*
X331Y527D01*
X343Y527D02*
X345Y527D01*
X349Y527D02*
X352Y527D01*
X369Y527D02*
X373Y527D01*
X394Y527D02*
X396Y527D01*
X316Y526D02*
X319Y526D01*
X329Y526D02*
X331Y526D01*
X343Y526D02*
X345Y526D01*
X349Y526D02*
X352Y526D01*
X369Y526D02*
X373Y526D01*
X394Y526D02*
X396Y526D01*
X317Y525D02*
X320Y525D01*
X343Y525D02*
X345Y525D01*
X350Y525D02*
X353Y525D01*
X369Y525D02*
X374Y525D01*
X394Y525D02*
X396Y525D01*
X318Y524D02*
X321Y524D01*
X343Y524D02*
X345Y524D01*
X350Y524D02*
X353Y524D01*
X368Y524D02*
X374Y524D01*
X394Y524D02*
X396Y524D01*
X319Y523D02*
X322Y523D01*
X343Y523D02*
X345Y523D01*
X351Y523D02*
X354Y523D01*
X368Y523D02*
X374Y523D01*
X394Y523D02*
X396Y523D01*
X319Y522D02*
X323Y522D01*
X343Y522D02*
X345Y522D01*
X351Y522D02*
X354Y522D01*
X368Y522D02*
X370Y522D01*
X372Y522D02*
X374Y522D01*
X394Y522D02*
X396Y522D01*
X320Y521D02*
X323Y521D01*
X343Y521D02*
X345Y521D01*
X352Y521D02*
X355Y521D01*
X367Y521D02*
X370Y521D01*
X372Y521D02*
X375Y521D01*
X394Y521D02*
X396Y521D01*
X321Y520D02*
X324Y520D01*
X343Y520D02*
X345Y520D01*
X352Y520D02*
X355Y520D01*
X367Y520D02*
X370Y520D01*
X373Y520D02*
X375Y520D01*
X394Y520D02*
X396Y520D01*
X322Y519D02*
X325Y519D01*
X343Y519D02*
X345Y519D01*
X353Y519D02*
X355Y519D01*
X367Y519D02*
X369Y519D01*
X373Y519D02*
X375Y519D01*
X394Y519D02*
X396Y519D01*
X322Y518D02*
X326Y518D01*
X343Y518D02*
X345Y518D01*
X353Y518D02*
X355Y518D01*
X366Y518D02*
X369Y518D01*
X373Y518D02*
X376Y518D01*
X394Y518D02*
X396Y518D01*
X323Y517D02*
X326Y517D01*
X343Y517D02*
X345Y517D01*
X353Y517D02*
X355Y517D01*
X366Y517D02*
X369Y517D01*
X373Y517D02*
X376Y517D01*
X394Y517D02*
X396Y517D01*
X401Y517D02*
X401Y517D01*
X324Y516D02*
X327Y516D01*
X343Y516D02*
X345Y516D01*
X352Y516D02*
X355Y516D01*
X366Y516D02*
X368Y516D01*
X374Y516D02*
X376Y516D01*
X394Y516D02*
X396Y516D01*
X400Y516D02*
X402Y516D01*
X325Y515D02*
X328Y515D01*
X343Y515D02*
X345Y515D01*
X352Y515D02*
X354Y515D01*
X366Y515D02*
X368Y515D01*
X374Y515D02*
X377Y515D01*
X394Y515D02*
X396Y515D01*
X400Y515D02*
X402Y515D01*
X326Y514D02*
X329Y514D01*
X343Y514D02*
X345Y514D01*
X351Y514D02*
X354Y514D01*
X365Y514D02*
X377Y514D01*
X394Y514D02*
X396Y514D01*
X400Y514D02*
X402Y514D01*
X326Y513D02*
X330Y513D01*
X343Y513D02*
X345Y513D01*
X351Y513D02*
X353Y513D01*
X365Y513D02*
X377Y513D01*
X394Y513D02*
X396Y513D01*
X400Y513D02*
X402Y513D01*
X327Y512D02*
X330Y512D01*
X343Y512D02*
X345Y512D01*
X350Y512D02*
X353Y512D01*
X365Y512D02*
X377Y512D01*
X394Y512D02*
X396Y512D01*
X400Y512D02*
X402Y512D01*
X317Y511D02*
X318Y511D01*
X328Y511D02*
X331Y511D01*
X343Y511D02*
X345Y511D01*
X350Y511D02*
X352Y511D01*
X364Y511D02*
X367Y511D01*
X375Y511D02*
X378Y511D01*
X394Y511D02*
X396Y511D01*
X400Y511D02*
X402Y511D01*
X316Y510D02*
X319Y510D01*
X329Y510D02*
X331Y510D01*
X343Y510D02*
X345Y510D01*
X349Y510D02*
X352Y510D01*
X364Y510D02*
X367Y510D01*
X376Y510D02*
X378Y510D01*
X394Y510D02*
X396Y510D01*
X400Y510D02*
X402Y510D01*
X316Y509D02*
X319Y509D01*
X329Y509D02*
X331Y509D01*
X343Y509D02*
X346Y509D01*
X348Y509D02*
X351Y509D01*
X364Y509D02*
X366Y509D01*
X376Y509D02*
X378Y509D01*
X393Y509D02*
X396Y509D01*
X400Y509D02*
X402Y509D01*
X317Y508D02*
X331Y508D01*
X340Y508D02*
X351Y508D01*
X364Y508D02*
X366Y508D01*
X376Y508D02*
X379Y508D01*
X387Y508D02*
X402Y508D01*
X317Y507D02*
X331Y507D01*
X340Y507D02*
X350Y507D01*
X363Y507D02*
X366Y507D01*
X376Y507D02*
X379Y507D01*
X387Y507D02*
X402Y507D01*
X319Y506D02*
X329Y506D01*
X340Y506D02*
X349Y506D01*
X364Y506D02*
X365Y506D01*
X377Y506D02*
X378Y506D01*
X388Y506D02*
X402Y506D01*
X216Y491D02*
X220Y491D01*
X298Y491D02*
X302Y491D01*
X216Y490D02*
X223Y490D01*
X295Y490D02*
X302Y490D01*
X216Y489D02*
X223Y489D01*
X295Y489D02*
X302Y489D01*
X216Y488D02*
X223Y488D01*
X295Y488D02*
X302Y488D01*
X216Y487D02*
X223Y487D01*
X295Y487D02*
X302Y487D01*
X216Y486D02*
X224Y486D01*
X294Y486D02*
X302Y486D01*
X217Y485D02*
X225Y485D01*
X293Y485D02*
X301Y485D01*
X217Y484D02*
X226Y484D01*
X292Y484D02*
X301Y484D01*
X217Y483D02*
X228Y483D01*
X290Y483D02*
X300Y483D01*
X218Y482D02*
X228Y482D01*
X290Y482D02*
X300Y482D01*
X219Y481D02*
X227Y481D01*
X291Y481D02*
X299Y481D01*
X220Y480D02*
X227Y480D01*
X291Y480D02*
X298Y480D01*
X221Y479D02*
X227Y479D01*
X291Y479D02*
X297Y479D01*
X222Y478D02*
X227Y478D01*
X291Y478D02*
X296Y478D01*
X223Y477D02*
X227Y477D01*
X291Y477D02*
X295Y477D01*
X226Y476D02*
X226Y476D01*
X292Y476D02*
X292Y476D01*
X225Y459D02*
X226Y459D01*
X292Y459D02*
X293Y459D01*
X223Y458D02*
X227Y458D01*
X291Y458D02*
X295Y458D01*
X221Y457D02*
X227Y457D01*
X291Y457D02*
X296Y457D01*
X220Y456D02*
X227Y456D01*
X291Y456D02*
X298Y456D01*
X219Y455D02*
X227Y455D01*
X291Y455D02*
X299Y455D01*
X219Y454D02*
X227Y454D01*
X291Y454D02*
X299Y454D01*
X218Y453D02*
X228Y453D01*
X290Y453D02*
X300Y453D01*
X217Y452D02*
X228Y452D01*
X290Y452D02*
X301Y452D01*
X217Y451D02*
X226Y451D01*
X292Y451D02*
X301Y451D01*
X217Y450D02*
X225Y450D01*
X293Y450D02*
X301Y450D01*
X216Y449D02*
X224Y449D01*
X294Y449D02*
X302Y449D01*
X216Y448D02*
X223Y448D01*
X295Y448D02*
X302Y448D01*
X216Y447D02*
X223Y447D01*
X295Y447D02*
X302Y447D01*
X216Y446D02*
X223Y446D01*
X295Y446D02*
X302Y446D01*
X216Y445D02*
X223Y445D01*
X295Y445D02*
X302Y445D01*
X216Y444D02*
X219Y444D01*
X299Y444D02*
X302Y444D01*
X322Y430D02*
X333Y430D01*
X345Y430D02*
X353Y430D01*
X375Y430D02*
X376Y430D01*
X392Y430D02*
X405Y430D01*
X321Y429D02*
X334Y429D01*
X344Y429D02*
X354Y429D01*
X374Y429D02*
X376Y429D01*
X391Y429D02*
X406Y429D01*
X321Y428D02*
X335Y428D01*
X344Y428D02*
X355Y428D01*
X374Y428D02*
X377Y428D01*
X391Y428D02*
X406Y428D01*
X320Y427D02*
X323Y427D01*
X332Y427D02*
X335Y427D01*
X347Y427D02*
X350Y427D01*
X352Y427D02*
X355Y427D01*
X373Y427D02*
X377Y427D01*
X404Y427D02*
X407Y427D01*
X320Y426D02*
X323Y426D01*
X333Y426D02*
X336Y426D01*
X347Y426D02*
X350Y426D01*
X353Y426D02*
X356Y426D01*
X373Y426D02*
X377Y426D01*
X404Y426D02*
X407Y426D01*
X321Y425D02*
X324Y425D01*
X334Y425D02*
X335Y425D01*
X347Y425D02*
X350Y425D01*
X354Y425D02*
X356Y425D01*
X373Y425D02*
X378Y425D01*
X404Y425D02*
X407Y425D01*
X321Y424D02*
X325Y424D01*
X347Y424D02*
X350Y424D01*
X354Y424D02*
X357Y424D01*
X373Y424D02*
X378Y424D01*
X404Y424D02*
X407Y424D01*
X322Y423D02*
X325Y423D01*
X347Y423D02*
X350Y423D01*
X355Y423D02*
X357Y423D01*
X372Y423D02*
X378Y423D01*
X404Y423D02*
X407Y423D01*
X323Y422D02*
X326Y422D01*
X347Y422D02*
X350Y422D01*
X355Y422D02*
X358Y422D01*
X372Y422D02*
X378Y422D01*
X404Y422D02*
X407Y422D01*
X324Y421D02*
X327Y421D01*
X347Y421D02*
X350Y421D01*
X356Y421D02*
X358Y421D01*
X372Y421D02*
X374Y421D01*
X376Y421D02*
X379Y421D01*
X404Y421D02*
X407Y421D01*
X324Y420D02*
X328Y420D01*
X347Y420D02*
X350Y420D01*
X356Y420D02*
X359Y420D01*
X371Y420D02*
X374Y420D01*
X377Y420D02*
X379Y420D01*
X404Y420D02*
X407Y420D01*
X325Y419D02*
X329Y419D01*
X347Y419D02*
X350Y419D01*
X357Y419D02*
X359Y419D01*
X371Y419D02*
X374Y419D01*
X377Y419D02*
X379Y419D01*
X393Y419D02*
X406Y419D01*
X326Y418D02*
X329Y418D01*
X347Y418D02*
X350Y418D01*
X357Y418D02*
X359Y418D01*
X371Y418D02*
X373Y418D01*
X377Y418D02*
X380Y418D01*
X392Y418D02*
X406Y418D01*
X327Y417D02*
X330Y417D01*
X347Y417D02*
X350Y417D01*
X357Y417D02*
X359Y417D01*
X371Y417D02*
X373Y417D01*
X377Y417D02*
X380Y417D01*
X391Y417D02*
X406Y417D01*
X328Y416D02*
X331Y416D01*
X347Y416D02*
X350Y416D01*
X357Y416D02*
X359Y416D01*
X370Y416D02*
X373Y416D01*
X378Y416D02*
X380Y416D01*
X391Y416D02*
X403Y416D01*
X328Y415D02*
X332Y415D01*
X347Y415D02*
X350Y415D01*
X356Y415D02*
X359Y415D01*
X370Y415D02*
X372Y415D01*
X378Y415D02*
X380Y415D01*
X391Y415D02*
X394Y415D01*
X329Y414D02*
X332Y414D01*
X347Y414D02*
X350Y414D01*
X356Y414D02*
X358Y414D01*
X370Y414D02*
X372Y414D01*
X378Y414D02*
X381Y414D01*
X391Y414D02*
X394Y414D01*
X330Y413D02*
X333Y413D01*
X347Y413D02*
X350Y413D01*
X355Y413D02*
X358Y413D01*
X369Y413D02*
X381Y413D01*
X391Y413D02*
X394Y413D01*
X331Y412D02*
X334Y412D01*
X347Y412D02*
X350Y412D01*
X355Y412D02*
X357Y412D01*
X369Y412D02*
X381Y412D01*
X391Y412D02*
X394Y412D01*
X331Y411D02*
X335Y411D01*
X347Y411D02*
X350Y411D01*
X354Y411D02*
X357Y411D01*
X369Y411D02*
X382Y411D01*
X391Y411D02*
X394Y411D01*
X321Y410D02*
X322Y410D01*
X332Y410D02*
X335Y410D01*
X347Y410D02*
X350Y410D01*
X354Y410D02*
X356Y410D01*
X369Y410D02*
X371Y410D01*
X379Y410D02*
X382Y410D01*
X391Y410D02*
X394Y410D01*
X320Y409D02*
X323Y409D01*
X333Y409D02*
X336Y409D01*
X347Y409D02*
X350Y409D01*
X353Y409D02*
X356Y409D01*
X368Y409D02*
X371Y409D01*
X380Y409D02*
X382Y409D01*
X391Y409D02*
X394Y409D01*
X321Y408D02*
X336Y408D01*
X345Y408D02*
X355Y408D01*
X368Y408D02*
X370Y408D01*
X380Y408D02*
X383Y408D01*
X391Y408D02*
X405Y408D01*
X321Y407D02*
X335Y407D01*
X344Y407D02*
X355Y407D01*
X368Y407D02*
X370Y407D01*
X380Y407D02*
X383Y407D01*
X391Y407D02*
X406Y407D01*
X322Y406D02*
X335Y406D01*
X344Y406D02*
X354Y406D01*
X368Y406D02*
X370Y406D01*
X381Y406D02*
X383Y406D01*
X391Y406D02*
X406Y406D01*
X324Y405D02*
X333Y405D01*
X345Y405D02*
X352Y405D01*
X369Y405D02*
X369Y405D01*
X382Y405D02*
X382Y405D01*
X391Y405D02*
X406Y405D01*
X216Y389D02*
X219Y389D01*
X299Y389D02*
X302Y389D01*
X216Y388D02*
X223Y388D01*
X295Y388D02*
X302Y388D01*
X216Y387D02*
X223Y387D01*
X295Y387D02*
X302Y387D01*
X216Y386D02*
X223Y386D01*
X295Y386D02*
X302Y386D01*
X216Y385D02*
X223Y385D01*
X295Y385D02*
X302Y385D01*
X216Y384D02*
X224Y384D01*
X294Y384D02*
X302Y384D01*
X217Y383D02*
X224Y383D01*
X294Y383D02*
X301Y383D01*
X217Y382D02*
X225Y382D01*
X293Y382D02*
X301Y382D01*
X217Y381D02*
X227Y381D01*
X291Y381D02*
X301Y381D01*
X218Y380D02*
X228Y380D01*
X290Y380D02*
X300Y380D01*
X218Y379D02*
X227Y379D01*
X291Y379D02*
X300Y379D01*
X219Y378D02*
X227Y378D01*
X291Y378D02*
X299Y378D01*
X220Y377D02*
X227Y377D01*
X291Y377D02*
X298Y377D01*
X221Y376D02*
X227Y376D01*
X291Y376D02*
X297Y376D01*
X223Y375D02*
X227Y375D01*
X291Y375D02*
X295Y375D01*
X225Y374D02*
X226Y374D01*
X292Y374D02*
X293Y374D01*
X199Y330D02*
X203Y330D01*
X222Y330D02*
X227Y330D01*
X166Y329D02*
X168Y329D01*
X179Y329D02*
X181Y329D01*
X195Y329D02*
X205Y329D01*
X219Y329D02*
X229Y329D01*
X166Y328D02*
X169Y328D01*
X179Y328D02*
X182Y328D01*
X194Y328D02*
X205Y328D01*
X218Y328D02*
X229Y328D01*
X166Y327D02*
X169Y327D01*
X179Y327D02*
X182Y327D01*
X194Y327D02*
X204Y327D01*
X217Y327D02*
X228Y327D01*
X166Y326D02*
X169Y326D01*
X179Y326D02*
X182Y326D01*
X193Y326D02*
X196Y326D01*
X217Y326D02*
X220Y326D01*
X166Y325D02*
X169Y325D01*
X179Y325D02*
X182Y325D01*
X193Y325D02*
X196Y325D01*
X216Y325D02*
X219Y325D01*
X166Y324D02*
X169Y324D01*
X179Y324D02*
X182Y324D01*
X192Y324D02*
X195Y324D01*
X216Y324D02*
X219Y324D01*
X166Y323D02*
X169Y323D01*
X179Y323D02*
X182Y323D01*
X192Y323D02*
X195Y323D01*
X215Y323D02*
X218Y323D01*
X166Y322D02*
X169Y322D01*
X179Y322D02*
X181Y322D01*
X191Y322D02*
X194Y322D01*
X215Y322D02*
X218Y322D01*
X167Y321D02*
X169Y321D01*
X178Y321D02*
X181Y321D01*
X191Y321D02*
X194Y321D01*
X214Y321D02*
X217Y321D01*
X167Y320D02*
X170Y320D01*
X178Y320D02*
X181Y320D01*
X190Y320D02*
X193Y320D01*
X214Y320D02*
X217Y320D01*
X168Y319D02*
X170Y319D01*
X178Y319D02*
X180Y319D01*
X190Y319D02*
X193Y319D01*
X214Y319D02*
X216Y319D01*
X168Y318D02*
X171Y318D01*
X177Y318D02*
X180Y318D01*
X190Y318D02*
X192Y318D01*
X214Y318D02*
X216Y318D01*
X168Y317D02*
X171Y317D01*
X177Y317D02*
X179Y317D01*
X190Y317D02*
X192Y317D01*
X214Y317D02*
X216Y317D01*
X169Y316D02*
X171Y316D01*
X177Y316D02*
X179Y316D01*
X190Y316D02*
X192Y316D01*
X214Y316D02*
X216Y316D01*
X169Y315D02*
X172Y315D01*
X176Y315D02*
X179Y315D01*
X190Y315D02*
X193Y315D01*
X214Y315D02*
X216Y315D01*
X170Y314D02*
X172Y314D01*
X176Y314D02*
X178Y314D01*
X191Y314D02*
X193Y314D01*
X214Y314D02*
X217Y314D01*
X170Y313D02*
X173Y313D01*
X175Y313D02*
X178Y313D01*
X191Y313D02*
X194Y313D01*
X215Y313D02*
X217Y313D01*
X170Y312D02*
X173Y312D01*
X175Y312D02*
X178Y312D01*
X192Y312D02*
X194Y312D01*
X215Y312D02*
X218Y312D01*
X171Y311D02*
X177Y311D01*
X192Y311D02*
X195Y311D01*
X216Y311D02*
X218Y311D01*
X171Y310D02*
X177Y310D01*
X193Y310D02*
X195Y310D01*
X216Y310D02*
X219Y310D01*
X171Y309D02*
X176Y309D01*
X193Y309D02*
X196Y309D01*
X217Y309D02*
X219Y309D01*
X172Y308D02*
X176Y308D01*
X194Y308D02*
X197Y308D01*
X217Y308D02*
X220Y308D01*
X172Y307D02*
X176Y307D01*
X194Y307D02*
X205Y307D01*
X218Y307D02*
X228Y307D01*
X173Y306D02*
X175Y306D01*
X195Y306D02*
X205Y306D01*
X219Y306D02*
X229Y306D01*
X173Y305D02*
X175Y305D01*
X196Y305D02*
X205Y305D01*
X220Y305D02*
X228Y305D01*
X175Y229D02*
X182Y229D01*
X191Y229D02*
X194Y229D01*
X204Y229D02*
X205Y229D01*
X215Y229D02*
X223Y229D01*
X174Y228D02*
X182Y228D01*
X191Y228D02*
X195Y228D01*
X204Y228D02*
X206Y228D01*
X214Y228D02*
X224Y228D01*
X173Y227D02*
X182Y227D01*
X191Y227D02*
X195Y227D01*
X204Y227D02*
X206Y227D01*
X215Y227D02*
X225Y227D01*
X172Y226D02*
X175Y226D01*
X191Y226D02*
X196Y226D01*
X204Y226D02*
X206Y226D01*
X217Y226D02*
X220Y226D01*
X222Y226D02*
X226Y226D01*
X171Y225D02*
X174Y225D01*
X191Y225D02*
X196Y225D01*
X204Y225D02*
X206Y225D01*
X218Y225D02*
X220Y225D01*
X224Y225D02*
X226Y225D01*
X170Y224D02*
X173Y224D01*
X191Y224D02*
X196Y224D01*
X204Y224D02*
X206Y224D01*
X218Y224D02*
X220Y224D01*
X224Y224D02*
X227Y224D01*
X169Y223D02*
X173Y223D01*
X191Y223D02*
X197Y223D01*
X204Y223D02*
X206Y223D01*
X218Y223D02*
X220Y223D01*
X225Y223D02*
X227Y223D01*
X169Y222D02*
X172Y222D01*
X191Y222D02*
X193Y222D01*
X195Y222D02*
X197Y222D01*
X204Y222D02*
X206Y222D01*
X218Y222D02*
X220Y222D01*
X225Y222D02*
X228Y222D01*
X168Y221D02*
X171Y221D01*
X191Y221D02*
X193Y221D01*
X195Y221D02*
X198Y221D01*
X204Y221D02*
X206Y221D01*
X218Y221D02*
X220Y221D01*
X226Y221D02*
X228Y221D01*
X168Y220D02*
X170Y220D01*
X191Y220D02*
X193Y220D01*
X196Y220D02*
X198Y220D01*
X204Y220D02*
X206Y220D01*
X218Y220D02*
X220Y220D01*
X226Y220D02*
X229Y220D01*
X167Y219D02*
X170Y219D01*
X191Y219D02*
X193Y219D01*
X196Y219D02*
X199Y219D01*
X204Y219D02*
X206Y219D01*
X218Y219D02*
X220Y219D01*
X227Y219D02*
X229Y219D01*
X167Y218D02*
X169Y218D01*
X191Y218D02*
X193Y218D01*
X196Y218D02*
X199Y218D01*
X204Y218D02*
X206Y218D01*
X218Y218D02*
X220Y218D01*
X227Y218D02*
X229Y218D01*
X167Y217D02*
X169Y217D01*
X191Y217D02*
X193Y217D01*
X197Y217D02*
X200Y217D01*
X204Y217D02*
X206Y217D01*
X218Y217D02*
X220Y217D01*
X227Y217D02*
X230Y217D01*
X167Y216D02*
X169Y216D01*
X191Y216D02*
X193Y216D01*
X197Y216D02*
X200Y216D01*
X204Y216D02*
X206Y216D01*
X218Y216D02*
X220Y216D01*
X227Y216D02*
X230Y216D01*
X167Y215D02*
X169Y215D01*
X176Y215D02*
X182Y215D01*
X191Y215D02*
X193Y215D01*
X198Y215D02*
X200Y215D01*
X204Y215D02*
X206Y215D01*
X218Y215D02*
X220Y215D01*
X227Y215D02*
X229Y215D01*
X167Y214D02*
X169Y214D01*
X175Y214D02*
X182Y214D01*
X191Y214D02*
X193Y214D01*
X198Y214D02*
X201Y214D01*
X204Y214D02*
X206Y214D01*
X218Y214D02*
X220Y214D01*
X227Y214D02*
X229Y214D01*
X167Y213D02*
X169Y213D01*
X176Y213D02*
X182Y213D01*
X191Y213D02*
X193Y213D01*
X199Y213D02*
X201Y213D01*
X204Y213D02*
X206Y213D01*
X218Y213D02*
X220Y213D01*
X226Y213D02*
X229Y213D01*
X167Y212D02*
X169Y212D01*
X180Y212D02*
X182Y212D01*
X191Y212D02*
X193Y212D01*
X199Y212D02*
X202Y212D01*
X204Y212D02*
X206Y212D01*
X218Y212D02*
X220Y212D01*
X225Y212D02*
X228Y212D01*
X167Y211D02*
X169Y211D01*
X180Y211D02*
X182Y211D01*
X191Y211D02*
X193Y211D01*
X199Y211D02*
X202Y211D01*
X204Y211D02*
X206Y211D01*
X218Y211D02*
X220Y211D01*
X225Y211D02*
X228Y211D01*
X167Y210D02*
X169Y210D01*
X180Y210D02*
X182Y210D01*
X191Y210D02*
X193Y210D01*
X200Y210D02*
X206Y210D01*
X218Y210D02*
X220Y210D01*
X224Y210D02*
X227Y210D01*
X167Y209D02*
X169Y209D01*
X180Y209D02*
X182Y209D01*
X191Y209D02*
X193Y209D01*
X200Y209D02*
X206Y209D01*
X218Y209D02*
X220Y209D01*
X224Y209D02*
X227Y209D01*
X167Y208D02*
X170Y208D01*
X180Y208D02*
X182Y208D01*
X191Y208D02*
X193Y208D01*
X201Y208D02*
X206Y208D01*
X218Y208D02*
X220Y208D01*
X223Y208D02*
X226Y208D01*
X167Y207D02*
X182Y207D01*
X191Y207D02*
X193Y207D01*
X201Y207D02*
X206Y207D01*
X215Y207D02*
X226Y207D01*
X168Y206D02*
X181Y206D01*
X191Y206D02*
X193Y206D01*
X202Y206D02*
X206Y206D01*
X214Y206D02*
X225Y206D01*
X169Y205D02*
X180Y205D01*
X191Y205D02*
X193Y205D01*
X202Y205D02*
X206Y205D01*
X214Y205D02*
X224Y205D01*
X171Y204D02*
X178Y204D01*
X192Y204D02*
X192Y204D01*
X203Y204D02*
X206Y204D01*
X215Y204D02*
X222Y204D01*
X274Y199D02*
X276Y199D01*
X341Y199D02*
X343Y199D01*
X272Y198D02*
X276Y198D01*
X341Y198D02*
X345Y198D01*
X270Y197D02*
X276Y197D01*
X340Y197D02*
X346Y197D01*
X269Y196D02*
X276Y196D01*
X340Y196D02*
X347Y196D01*
X268Y195D02*
X276Y195D01*
X340Y195D02*
X348Y195D01*
X268Y194D02*
X277Y194D01*
X340Y194D02*
X349Y194D01*
X267Y193D02*
X277Y193D01*
X340Y193D02*
X349Y193D01*
X267Y192D02*
X277Y192D01*
X340Y192D02*
X350Y192D01*
X266Y191D02*
X275Y191D01*
X342Y191D02*
X350Y191D01*
X266Y190D02*
X274Y190D01*
X343Y190D02*
X351Y190D01*
X266Y189D02*
X273Y189D01*
X344Y189D02*
X351Y189D01*
X265Y188D02*
X273Y188D01*
X344Y188D02*
X351Y188D01*
X265Y187D02*
X272Y187D01*
X344Y187D02*
X351Y187D01*
X265Y186D02*
X272Y186D01*
X344Y186D02*
X351Y186D01*
X265Y185D02*
X272Y185D01*
X345Y185D02*
X351Y185D01*
X265Y184D02*
X267Y184D01*
X349Y184D02*
X351Y184D01*
X265Y129D02*
X269Y129D01*
X348Y129D02*
X351Y129D01*
X265Y128D02*
X272Y128D01*
X344Y128D02*
X351Y128D01*
X265Y127D02*
X272Y127D01*
X344Y127D02*
X351Y127D01*
X265Y126D02*
X272Y126D01*
X344Y126D02*
X351Y126D01*
X265Y125D02*
X273Y125D01*
X344Y125D02*
X351Y125D01*
X266Y124D02*
X273Y124D01*
X343Y124D02*
X351Y124D01*
X266Y123D02*
X274Y123D01*
X343Y123D02*
X351Y123D01*
X266Y122D02*
X275Y122D01*
X342Y122D02*
X350Y122D01*
X267Y121D02*
X277Y121D01*
X340Y121D02*
X350Y121D01*
X267Y120D02*
X277Y120D01*
X340Y120D02*
X349Y120D01*
X268Y119D02*
X277Y119D01*
X340Y119D02*
X349Y119D01*
X269Y118D02*
X276Y118D01*
X340Y118D02*
X348Y118D01*
X270Y117D02*
X276Y117D01*
X340Y117D02*
X347Y117D01*
X271Y116D02*
X276Y116D01*
X340Y116D02*
X346Y116D01*
X272Y115D02*
X276Y115D01*
X341Y115D02*
X344Y115D01*
X274Y114D02*
X276Y114D01*
X341Y114D02*
X342Y114D01*
D02*
G04 End of Silk1*
M02*