G04 MADE WITH FRITZING*
G04 WWW.FRITZING.ORG*
G04 DOUBLE SIDED*
G04 HOLES PLATED*
G04 CONTOUR ON CENTER OF CONTOUR VECTOR*
%ASAXBY*%
%FSLAX23Y23*%
%MOIN*%
%OFA0B0*%
%SFA1.0B1.0*%
%ADD10R,1.200790X0.966382X1.184790X0.950382*%
%ADD11C,0.008000*%
%ADD12R,0.001000X0.001000*%
%LNSILK1*%
G90*
G70*
G54D11*
X4Y962D02*
X1197Y962D01*
X1197Y4D01*
X4Y4D01*
X4Y962D01*
D02*
X420Y167D02*
X357Y167D01*
D02*
X357Y246D02*
X420Y246D01*
G54D12*
X161Y674D02*
X169Y674D01*
X189Y674D02*
X195Y674D01*
X206Y674D02*
X206Y674D01*
X992Y674D02*
X1001Y674D01*
X1021Y674D02*
X1027Y674D01*
X1038Y674D02*
X1038Y674D01*
X159Y673D02*
X171Y673D01*
X187Y673D02*
X196Y673D01*
X205Y673D02*
X207Y673D01*
X990Y673D02*
X1003Y673D01*
X1018Y673D02*
X1028Y673D01*
X1037Y673D02*
X1039Y673D01*
X158Y672D02*
X172Y672D01*
X186Y672D02*
X196Y672D01*
X205Y672D02*
X207Y672D01*
X990Y672D02*
X1004Y672D01*
X1017Y672D02*
X1028Y672D01*
X1037Y672D02*
X1039Y672D01*
X158Y671D02*
X173Y671D01*
X185Y671D02*
X195Y671D01*
X205Y671D02*
X207Y671D01*
X989Y671D02*
X1004Y671D01*
X1017Y671D02*
X1027Y671D01*
X1037Y671D02*
X1039Y671D01*
X158Y670D02*
X160Y670D01*
X170Y670D02*
X173Y670D01*
X184Y670D02*
X187Y670D01*
X205Y670D02*
X207Y670D01*
X989Y670D02*
X992Y670D01*
X1002Y670D02*
X1005Y670D01*
X1016Y670D02*
X1019Y670D01*
X1037Y670D02*
X1039Y670D01*
X158Y669D02*
X161Y669D01*
X171Y669D02*
X173Y669D01*
X184Y669D02*
X187Y669D01*
X205Y669D02*
X207Y669D01*
X990Y669D02*
X993Y669D01*
X1003Y669D02*
X1004Y669D01*
X1016Y669D02*
X1019Y669D01*
X1037Y669D02*
X1039Y669D01*
X158Y668D02*
X162Y668D01*
X184Y668D02*
X186Y668D01*
X205Y668D02*
X207Y668D01*
X990Y668D02*
X993Y668D01*
X1015Y668D02*
X1018Y668D01*
X1037Y668D02*
X1039Y668D01*
X159Y667D02*
X162Y667D01*
X183Y667D02*
X186Y667D01*
X205Y667D02*
X207Y667D01*
X991Y667D02*
X994Y667D01*
X1015Y667D02*
X1018Y667D01*
X1037Y667D02*
X1039Y667D01*
X160Y666D02*
X163Y666D01*
X183Y666D02*
X185Y666D01*
X205Y666D02*
X207Y666D01*
X992Y666D02*
X995Y666D01*
X1014Y666D02*
X1017Y666D01*
X1037Y666D02*
X1039Y666D01*
X161Y665D02*
X164Y665D01*
X182Y665D02*
X185Y665D01*
X205Y665D02*
X207Y665D01*
X992Y665D02*
X996Y665D01*
X1014Y665D02*
X1017Y665D01*
X1037Y665D02*
X1039Y665D01*
X161Y664D02*
X165Y664D01*
X182Y664D02*
X184Y664D01*
X205Y664D02*
X207Y664D01*
X993Y664D02*
X996Y664D01*
X1013Y664D02*
X1016Y664D01*
X1037Y664D02*
X1039Y664D01*
X162Y663D02*
X165Y663D01*
X181Y663D02*
X184Y663D01*
X205Y663D02*
X207Y663D01*
X994Y663D02*
X997Y663D01*
X1013Y663D02*
X1016Y663D01*
X1037Y663D02*
X1039Y663D01*
X163Y662D02*
X166Y662D01*
X181Y662D02*
X184Y662D01*
X205Y662D02*
X207Y662D01*
X995Y662D02*
X998Y662D01*
X1013Y662D02*
X1015Y662D01*
X1037Y662D02*
X1039Y662D01*
X164Y661D02*
X167Y661D01*
X181Y661D02*
X183Y661D01*
X205Y661D02*
X207Y661D01*
X996Y661D02*
X999Y661D01*
X1013Y661D02*
X1015Y661D01*
X1037Y661D02*
X1039Y661D01*
X165Y660D02*
X168Y660D01*
X181Y660D02*
X184Y660D01*
X205Y660D02*
X207Y660D01*
X996Y660D02*
X1000Y660D01*
X1013Y660D02*
X1016Y660D01*
X1037Y660D02*
X1039Y660D01*
X165Y659D02*
X169Y659D01*
X182Y659D02*
X184Y659D01*
X205Y659D02*
X207Y659D01*
X997Y659D02*
X1000Y659D01*
X1013Y659D02*
X1016Y659D01*
X1037Y659D02*
X1039Y659D01*
X166Y658D02*
X169Y658D01*
X182Y658D02*
X185Y658D01*
X205Y658D02*
X207Y658D01*
X998Y658D02*
X1001Y658D01*
X1014Y658D02*
X1016Y658D01*
X1037Y658D02*
X1039Y658D01*
X167Y657D02*
X170Y657D01*
X182Y657D02*
X185Y657D01*
X205Y657D02*
X207Y657D01*
X999Y657D02*
X1002Y657D01*
X1014Y657D02*
X1017Y657D01*
X1037Y657D02*
X1039Y657D01*
X168Y656D02*
X171Y656D01*
X183Y656D02*
X186Y656D01*
X205Y656D02*
X207Y656D01*
X999Y656D02*
X1003Y656D01*
X1015Y656D02*
X1017Y656D01*
X1037Y656D02*
X1039Y656D01*
X168Y655D02*
X172Y655D01*
X183Y655D02*
X186Y655D01*
X205Y655D02*
X207Y655D01*
X1000Y655D02*
X1003Y655D01*
X1015Y655D02*
X1018Y655D01*
X1037Y655D02*
X1039Y655D01*
X158Y654D02*
X159Y654D01*
X169Y654D02*
X172Y654D01*
X184Y654D02*
X187Y654D01*
X205Y654D02*
X207Y654D01*
X990Y654D02*
X991Y654D01*
X1001Y654D02*
X1004Y654D01*
X1016Y654D02*
X1018Y654D01*
X1037Y654D02*
X1039Y654D01*
X158Y653D02*
X160Y653D01*
X170Y653D02*
X173Y653D01*
X184Y653D02*
X187Y653D01*
X205Y653D02*
X207Y653D01*
X989Y653D02*
X992Y653D01*
X1002Y653D02*
X1005Y653D01*
X1016Y653D02*
X1019Y653D01*
X1037Y653D02*
X1039Y653D01*
X158Y652D02*
X161Y652D01*
X170Y652D02*
X173Y652D01*
X185Y652D02*
X188Y652D01*
X205Y652D02*
X207Y652D01*
X989Y652D02*
X992Y652D01*
X1002Y652D02*
X1005Y652D01*
X1017Y652D02*
X1020Y652D01*
X1037Y652D02*
X1039Y652D01*
X158Y651D02*
X173Y651D01*
X185Y651D02*
X196Y651D01*
X205Y651D02*
X220Y651D01*
X990Y651D02*
X1004Y651D01*
X1017Y651D02*
X1028Y651D01*
X1037Y651D02*
X1052Y651D01*
X159Y650D02*
X172Y650D01*
X186Y650D02*
X196Y650D01*
X205Y650D02*
X220Y650D01*
X991Y650D02*
X1004Y650D01*
X1018Y650D02*
X1028Y650D01*
X1037Y650D02*
X1052Y650D01*
X160Y649D02*
X171Y649D01*
X188Y649D02*
X196Y649D01*
X205Y649D02*
X219Y649D01*
X992Y649D02*
X1003Y649D01*
X1020Y649D02*
X1028Y649D01*
X1037Y649D02*
X1051Y649D01*
X988Y575D02*
X998Y575D01*
X1010Y575D02*
X1018Y575D01*
X1040Y575D02*
X1041Y575D01*
X160Y574D02*
X169Y574D01*
X182Y574D02*
X189Y574D01*
X212Y574D02*
X212Y574D01*
X987Y574D02*
X1000Y574D01*
X1010Y574D02*
X1020Y574D01*
X1040Y574D02*
X1042Y574D01*
X158Y573D02*
X171Y573D01*
X181Y573D02*
X190Y573D01*
X211Y573D02*
X213Y573D01*
X986Y573D02*
X1001Y573D01*
X1010Y573D02*
X1020Y573D01*
X1039Y573D02*
X1042Y573D01*
X157Y572D02*
X172Y572D01*
X181Y572D02*
X191Y572D01*
X210Y572D02*
X213Y572D01*
X986Y572D02*
X989Y572D01*
X998Y572D02*
X1001Y572D01*
X1012Y572D02*
X1021Y572D01*
X1039Y572D02*
X1043Y572D01*
X157Y571D02*
X172Y571D01*
X182Y571D02*
X192Y571D01*
X210Y571D02*
X214Y571D01*
X986Y571D02*
X989Y571D01*
X999Y571D02*
X1001Y571D01*
X1013Y571D02*
X1015Y571D01*
X1019Y571D02*
X1022Y571D01*
X1039Y571D02*
X1043Y571D01*
X157Y570D02*
X160Y570D01*
X170Y570D02*
X172Y570D01*
X184Y570D02*
X186Y570D01*
X190Y570D02*
X192Y570D01*
X210Y570D02*
X214Y570D01*
X986Y570D02*
X989Y570D01*
X999Y570D02*
X1001Y570D01*
X1013Y570D02*
X1015Y570D01*
X1019Y570D02*
X1022Y570D01*
X1038Y570D02*
X1043Y570D01*
X157Y569D02*
X160Y569D01*
X170Y569D02*
X172Y569D01*
X184Y569D02*
X186Y569D01*
X190Y569D02*
X193Y569D01*
X210Y569D02*
X214Y569D01*
X987Y569D02*
X990Y569D01*
X1013Y569D02*
X1015Y569D01*
X1020Y569D02*
X1023Y569D01*
X1038Y569D02*
X1043Y569D01*
X158Y568D02*
X161Y568D01*
X184Y568D02*
X186Y568D01*
X191Y568D02*
X193Y568D01*
X209Y568D02*
X214Y568D01*
X988Y568D02*
X991Y568D01*
X1013Y568D02*
X1015Y568D01*
X1020Y568D02*
X1023Y568D01*
X1038Y568D02*
X1044Y568D01*
X159Y567D02*
X162Y567D01*
X184Y567D02*
X186Y567D01*
X191Y567D02*
X194Y567D01*
X209Y567D02*
X215Y567D01*
X988Y567D02*
X992Y567D01*
X1013Y567D02*
X1015Y567D01*
X1021Y567D02*
X1024Y567D01*
X1038Y567D02*
X1044Y567D01*
X159Y566D02*
X163Y566D01*
X184Y566D02*
X186Y566D01*
X192Y566D02*
X194Y566D01*
X209Y566D02*
X215Y566D01*
X989Y566D02*
X993Y566D01*
X1013Y566D02*
X1015Y566D01*
X1021Y566D02*
X1024Y566D01*
X1037Y566D02*
X1040Y566D01*
X1042Y566D02*
X1044Y566D01*
X160Y565D02*
X163Y565D01*
X184Y565D02*
X186Y565D01*
X192Y565D02*
X195Y565D01*
X208Y565D02*
X211Y565D01*
X213Y565D02*
X215Y565D01*
X990Y565D02*
X993Y565D01*
X1013Y565D02*
X1015Y565D01*
X1022Y565D02*
X1024Y565D01*
X1037Y565D02*
X1039Y565D01*
X1042Y565D02*
X1045Y565D01*
X161Y564D02*
X164Y564D01*
X184Y564D02*
X186Y564D01*
X193Y564D02*
X195Y564D01*
X208Y564D02*
X211Y564D01*
X213Y564D02*
X216Y564D01*
X991Y564D02*
X994Y564D01*
X1013Y564D02*
X1015Y564D01*
X1022Y564D02*
X1025Y564D01*
X1037Y564D02*
X1039Y564D01*
X1042Y564D02*
X1045Y564D01*
X162Y563D02*
X165Y563D01*
X184Y563D02*
X186Y563D01*
X193Y563D02*
X196Y563D01*
X208Y563D02*
X210Y563D01*
X213Y563D02*
X216Y563D01*
X992Y563D02*
X995Y563D01*
X1013Y563D02*
X1015Y563D01*
X1023Y563D02*
X1025Y563D01*
X1036Y563D02*
X1039Y563D01*
X1043Y563D02*
X1045Y563D01*
X162Y562D02*
X166Y562D01*
X184Y562D02*
X186Y562D01*
X194Y562D02*
X196Y562D01*
X208Y562D02*
X210Y562D01*
X214Y562D02*
X216Y562D01*
X992Y562D02*
X996Y562D01*
X1013Y562D02*
X1015Y562D01*
X1022Y562D02*
X1025Y562D01*
X1036Y562D02*
X1039Y562D01*
X1043Y562D02*
X1045Y562D01*
X163Y561D02*
X167Y561D01*
X184Y561D02*
X186Y561D01*
X193Y561D02*
X196Y561D01*
X207Y561D02*
X210Y561D01*
X214Y561D02*
X216Y561D01*
X993Y561D02*
X996Y561D01*
X1013Y561D02*
X1015Y561D01*
X1022Y561D02*
X1025Y561D01*
X1036Y561D02*
X1038Y561D01*
X1043Y561D02*
X1046Y561D01*
X164Y560D02*
X167Y560D01*
X184Y560D02*
X186Y560D01*
X193Y560D02*
X196Y560D01*
X207Y560D02*
X209Y560D01*
X214Y560D02*
X217Y560D01*
X994Y560D02*
X997Y560D01*
X1013Y560D02*
X1015Y560D01*
X1022Y560D02*
X1024Y560D01*
X1036Y560D02*
X1038Y560D01*
X1044Y560D02*
X1046Y560D01*
X165Y559D02*
X168Y559D01*
X184Y559D02*
X186Y559D01*
X193Y559D02*
X195Y559D01*
X207Y559D02*
X209Y559D01*
X215Y559D02*
X217Y559D01*
X995Y559D02*
X998Y559D01*
X1013Y559D02*
X1015Y559D01*
X1021Y559D02*
X1024Y559D01*
X1035Y559D02*
X1038Y559D01*
X1044Y559D02*
X1046Y559D01*
X166Y558D02*
X169Y558D01*
X184Y558D02*
X186Y558D01*
X192Y558D02*
X195Y558D01*
X206Y558D02*
X209Y558D01*
X215Y558D02*
X217Y558D01*
X995Y558D02*
X999Y558D01*
X1013Y558D02*
X1015Y558D01*
X1021Y558D02*
X1023Y558D01*
X1035Y558D02*
X1047Y558D01*
X166Y557D02*
X170Y557D01*
X184Y557D02*
X186Y557D01*
X192Y557D02*
X195Y557D01*
X206Y557D02*
X218Y557D01*
X996Y557D02*
X1000Y557D01*
X1013Y557D02*
X1015Y557D01*
X1020Y557D02*
X1023Y557D01*
X1035Y557D02*
X1047Y557D01*
X167Y556D02*
X170Y556D01*
X184Y556D02*
X186Y556D01*
X191Y556D02*
X194Y556D01*
X206Y556D02*
X218Y556D01*
X997Y556D02*
X1000Y556D01*
X1013Y556D02*
X1015Y556D01*
X1020Y556D02*
X1022Y556D01*
X1034Y556D02*
X1047Y556D01*
X168Y555D02*
X171Y555D01*
X184Y555D02*
X186Y555D01*
X191Y555D02*
X194Y555D01*
X205Y555D02*
X218Y555D01*
X986Y555D02*
X988Y555D01*
X998Y555D02*
X1001Y555D01*
X1013Y555D02*
X1015Y555D01*
X1019Y555D02*
X1022Y555D01*
X1034Y555D02*
X1037Y555D01*
X1045Y555D02*
X1047Y555D01*
X157Y554D02*
X159Y554D01*
X169Y554D02*
X172Y554D01*
X184Y554D02*
X186Y554D01*
X190Y554D02*
X193Y554D01*
X205Y554D02*
X208Y554D01*
X216Y554D02*
X218Y554D01*
X986Y554D02*
X988Y554D01*
X999Y554D02*
X1001Y554D01*
X1013Y554D02*
X1015Y554D01*
X1019Y554D02*
X1022Y554D01*
X1034Y554D02*
X1036Y554D01*
X1045Y554D02*
X1048Y554D01*
X157Y553D02*
X159Y553D01*
X169Y553D02*
X172Y553D01*
X184Y553D02*
X186Y553D01*
X190Y553D02*
X193Y553D01*
X205Y553D02*
X207Y553D01*
X216Y553D02*
X219Y553D01*
X986Y553D02*
X1001Y553D01*
X1011Y553D02*
X1021Y553D01*
X1034Y553D02*
X1036Y553D01*
X1046Y553D02*
X1048Y553D01*
X157Y552D02*
X160Y552D01*
X170Y552D02*
X172Y552D01*
X183Y552D02*
X186Y552D01*
X189Y552D02*
X192Y552D01*
X205Y552D02*
X207Y552D01*
X217Y552D02*
X219Y552D01*
X987Y552D02*
X1001Y552D01*
X1010Y552D02*
X1020Y552D01*
X1033Y552D02*
X1036Y552D01*
X1046Y552D02*
X1048Y552D01*
X158Y551D02*
X172Y551D01*
X181Y551D02*
X192Y551D01*
X204Y551D02*
X207Y551D01*
X217Y551D02*
X219Y551D01*
X987Y551D02*
X1000Y551D01*
X1010Y551D02*
X1020Y551D01*
X1033Y551D02*
X1035Y551D01*
X1046Y551D02*
X1048Y551D01*
X158Y550D02*
X171Y550D01*
X181Y550D02*
X191Y550D01*
X204Y550D02*
X206Y550D01*
X217Y550D02*
X219Y550D01*
X989Y550D02*
X999Y550D01*
X1010Y550D02*
X1018Y550D01*
X1034Y550D02*
X1034Y550D01*
X1047Y550D02*
X1048Y550D01*
X160Y549D02*
X170Y549D01*
X181Y549D02*
X189Y549D01*
X205Y549D02*
X206Y549D01*
X218Y549D02*
X219Y549D01*
X156Y474D02*
X158Y474D01*
X169Y474D02*
X171Y474D01*
X185Y474D02*
X195Y474D01*
X209Y474D02*
X218Y474D01*
X986Y474D02*
X988Y474D01*
X999Y474D02*
X1001Y474D01*
X1015Y474D02*
X1025Y474D01*
X1039Y474D02*
X1048Y474D01*
X156Y473D02*
X158Y473D01*
X169Y473D02*
X171Y473D01*
X184Y473D02*
X195Y473D01*
X208Y473D02*
X218Y473D01*
X986Y473D02*
X988Y473D01*
X999Y473D02*
X1001Y473D01*
X1014Y473D02*
X1025Y473D01*
X1038Y473D02*
X1048Y473D01*
X156Y472D02*
X158Y472D01*
X169Y472D02*
X171Y472D01*
X183Y472D02*
X194Y472D01*
X207Y472D02*
X218Y472D01*
X986Y472D02*
X988Y472D01*
X999Y472D02*
X1001Y472D01*
X1014Y472D02*
X1024Y472D01*
X1037Y472D02*
X1048Y472D01*
X156Y471D02*
X158Y471D01*
X169Y471D02*
X171Y471D01*
X183Y471D02*
X186Y471D01*
X207Y471D02*
X209Y471D01*
X986Y471D02*
X988Y471D01*
X999Y471D02*
X1001Y471D01*
X1013Y471D02*
X1016Y471D01*
X1037Y471D02*
X1040Y471D01*
X156Y470D02*
X158Y470D01*
X169Y470D02*
X171Y470D01*
X182Y470D02*
X185Y470D01*
X206Y470D02*
X209Y470D01*
X986Y470D02*
X988Y470D01*
X999Y470D02*
X1001Y470D01*
X1013Y470D02*
X1015Y470D01*
X1036Y470D02*
X1039Y470D01*
X156Y469D02*
X158Y469D01*
X169Y469D02*
X171Y469D01*
X182Y469D02*
X185Y469D01*
X206Y469D02*
X208Y469D01*
X986Y469D02*
X988Y469D01*
X999Y469D02*
X1001Y469D01*
X1012Y469D02*
X1015Y469D01*
X1036Y469D02*
X1038Y469D01*
X156Y468D02*
X158Y468D01*
X169Y468D02*
X171Y468D01*
X181Y468D02*
X184Y468D01*
X205Y468D02*
X208Y468D01*
X986Y468D02*
X988Y468D01*
X999Y468D02*
X1001Y468D01*
X1012Y468D02*
X1014Y468D01*
X1035Y468D02*
X1038Y468D01*
X156Y467D02*
X159Y467D01*
X168Y467D02*
X171Y467D01*
X181Y467D02*
X184Y467D01*
X205Y467D02*
X207Y467D01*
X986Y467D02*
X989Y467D01*
X999Y467D02*
X1001Y467D01*
X1011Y467D02*
X1014Y467D01*
X1035Y467D02*
X1037Y467D01*
X156Y466D02*
X159Y466D01*
X168Y466D02*
X171Y466D01*
X180Y466D02*
X183Y466D01*
X204Y466D02*
X207Y466D01*
X986Y466D02*
X989Y466D01*
X998Y466D02*
X1001Y466D01*
X1011Y466D02*
X1013Y466D01*
X1034Y466D02*
X1037Y466D01*
X157Y465D02*
X159Y465D01*
X168Y465D02*
X170Y465D01*
X180Y465D02*
X183Y465D01*
X204Y465D02*
X206Y465D01*
X987Y465D02*
X989Y465D01*
X998Y465D02*
X1000Y465D01*
X1010Y465D02*
X1013Y465D01*
X1034Y465D02*
X1036Y465D01*
X157Y464D02*
X160Y464D01*
X167Y464D02*
X170Y464D01*
X180Y464D02*
X182Y464D01*
X203Y464D02*
X206Y464D01*
X987Y464D02*
X990Y464D01*
X997Y464D02*
X1000Y464D01*
X1010Y464D02*
X1012Y464D01*
X1033Y464D02*
X1036Y464D01*
X157Y463D02*
X160Y463D01*
X167Y463D02*
X169Y463D01*
X180Y463D02*
X182Y463D01*
X203Y463D02*
X206Y463D01*
X988Y463D02*
X990Y463D01*
X997Y463D02*
X1000Y463D01*
X1010Y463D02*
X1012Y463D01*
X1033Y463D02*
X1036Y463D01*
X158Y462D02*
X160Y462D01*
X166Y462D02*
X169Y462D01*
X179Y462D02*
X182Y462D01*
X203Y462D02*
X205Y462D01*
X988Y462D02*
X991Y462D01*
X997Y462D02*
X999Y462D01*
X1010Y462D02*
X1012Y462D01*
X1033Y462D02*
X1036Y462D01*
X158Y461D02*
X161Y461D01*
X166Y461D02*
X169Y461D01*
X180Y461D02*
X182Y461D01*
X203Y461D02*
X206Y461D01*
X988Y461D02*
X991Y461D01*
X996Y461D02*
X999Y461D01*
X1010Y461D02*
X1012Y461D01*
X1033Y461D02*
X1036Y461D01*
X159Y460D02*
X161Y460D01*
X166Y460D02*
X168Y460D01*
X180Y460D02*
X182Y460D01*
X203Y460D02*
X206Y460D01*
X989Y460D02*
X991Y460D01*
X996Y460D02*
X998Y460D01*
X1010Y460D02*
X1012Y460D01*
X1034Y460D02*
X1036Y460D01*
X159Y459D02*
X162Y459D01*
X165Y459D02*
X168Y459D01*
X180Y459D02*
X183Y459D01*
X204Y459D02*
X206Y459D01*
X989Y459D02*
X992Y459D01*
X995Y459D02*
X998Y459D01*
X1010Y459D02*
X1013Y459D01*
X1034Y459D02*
X1037Y459D01*
X159Y458D02*
X162Y458D01*
X165Y458D02*
X167Y458D01*
X181Y458D02*
X183Y458D01*
X204Y458D02*
X207Y458D01*
X990Y458D02*
X992Y458D01*
X995Y458D02*
X998Y458D01*
X1011Y458D02*
X1013Y458D01*
X1034Y458D02*
X1037Y458D01*
X160Y457D02*
X162Y457D01*
X165Y457D02*
X167Y457D01*
X181Y457D02*
X184Y457D01*
X205Y457D02*
X207Y457D01*
X990Y457D02*
X993Y457D01*
X995Y457D02*
X997Y457D01*
X1011Y457D02*
X1014Y457D01*
X1035Y457D02*
X1038Y457D01*
X160Y456D02*
X167Y456D01*
X182Y456D02*
X184Y456D01*
X205Y456D02*
X208Y456D01*
X990Y456D02*
X997Y456D01*
X1012Y456D02*
X1014Y456D01*
X1035Y456D02*
X1038Y456D01*
X161Y455D02*
X166Y455D01*
X182Y455D02*
X185Y455D01*
X206Y455D02*
X208Y455D01*
X991Y455D02*
X996Y455D01*
X1012Y455D02*
X1015Y455D01*
X1036Y455D02*
X1039Y455D01*
X161Y454D02*
X166Y454D01*
X183Y454D02*
X185Y454D01*
X206Y454D02*
X209Y454D01*
X991Y454D02*
X996Y454D01*
X1013Y454D02*
X1015Y454D01*
X1036Y454D02*
X1039Y454D01*
X161Y453D02*
X166Y453D01*
X183Y453D02*
X186Y453D01*
X207Y453D02*
X210Y453D01*
X992Y453D02*
X996Y453D01*
X1013Y453D02*
X1016Y453D01*
X1037Y453D02*
X1040Y453D01*
X162Y452D02*
X165Y452D01*
X184Y452D02*
X194Y452D01*
X207Y452D02*
X218Y452D01*
X992Y452D02*
X995Y452D01*
X1014Y452D02*
X1024Y452D01*
X1037Y452D02*
X1048Y452D01*
X162Y451D02*
X165Y451D01*
X184Y451D02*
X195Y451D01*
X208Y451D02*
X218Y451D01*
X992Y451D02*
X995Y451D01*
X1014Y451D02*
X1025Y451D01*
X1038Y451D02*
X1048Y451D01*
X163Y450D02*
X164Y450D01*
X186Y450D02*
X194Y450D01*
X209Y450D02*
X218Y450D01*
X993Y450D02*
X994Y450D01*
X1016Y450D02*
X1024Y450D01*
X1039Y450D02*
X1048Y450D01*
X166Y376D02*
X172Y376D01*
X181Y376D02*
X184Y376D01*
X195Y376D02*
X195Y376D01*
X206Y376D02*
X212Y376D01*
X992Y376D02*
X999Y376D01*
X1008Y376D02*
X1011Y376D01*
X1022Y376D02*
X1022Y376D01*
X1032Y376D02*
X1040Y376D01*
X164Y375D02*
X173Y375D01*
X181Y375D02*
X185Y375D01*
X194Y375D02*
X196Y375D01*
X205Y375D02*
X214Y375D01*
X991Y375D02*
X999Y375D01*
X1008Y375D02*
X1012Y375D01*
X1021Y375D02*
X1023Y375D01*
X1032Y375D02*
X1041Y375D01*
X163Y374D02*
X173Y374D01*
X181Y374D02*
X185Y374D01*
X194Y374D02*
X196Y374D01*
X205Y374D02*
X215Y374D01*
X990Y374D02*
X999Y374D01*
X1008Y374D02*
X1012Y374D01*
X1021Y374D02*
X1023Y374D01*
X1032Y374D02*
X1042Y374D01*
X162Y373D02*
X172Y373D01*
X181Y373D02*
X186Y373D01*
X194Y373D02*
X196Y373D01*
X206Y373D02*
X216Y373D01*
X989Y373D02*
X998Y373D01*
X1008Y373D02*
X1013Y373D01*
X1021Y373D02*
X1023Y373D01*
X1033Y373D02*
X1043Y373D01*
X162Y372D02*
X165Y372D01*
X181Y372D02*
X186Y372D01*
X194Y372D02*
X196Y372D01*
X208Y372D02*
X210Y372D01*
X214Y372D02*
X217Y372D01*
X988Y372D02*
X991Y372D01*
X1008Y372D02*
X1013Y372D01*
X1021Y372D02*
X1023Y372D01*
X1035Y372D02*
X1037Y372D01*
X1041Y372D02*
X1043Y372D01*
X161Y371D02*
X164Y371D01*
X181Y371D02*
X187Y371D01*
X194Y371D02*
X196Y371D01*
X208Y371D02*
X210Y371D01*
X214Y371D02*
X217Y371D01*
X987Y371D02*
X991Y371D01*
X1008Y371D02*
X1013Y371D01*
X1021Y371D02*
X1023Y371D01*
X1035Y371D02*
X1037Y371D01*
X1041Y371D02*
X1044Y371D01*
X160Y370D02*
X163Y370D01*
X181Y370D02*
X187Y370D01*
X194Y370D02*
X196Y370D01*
X208Y370D02*
X210Y370D01*
X215Y370D02*
X218Y370D01*
X987Y370D02*
X990Y370D01*
X1008Y370D02*
X1014Y370D01*
X1021Y370D02*
X1023Y370D01*
X1035Y370D02*
X1037Y370D01*
X1042Y370D02*
X1044Y370D01*
X159Y369D02*
X162Y369D01*
X181Y369D02*
X188Y369D01*
X194Y369D02*
X196Y369D01*
X208Y369D02*
X210Y369D01*
X215Y369D02*
X218Y369D01*
X986Y369D02*
X989Y369D01*
X1008Y369D02*
X1010Y369D01*
X1012Y369D02*
X1014Y369D01*
X1021Y369D02*
X1023Y369D01*
X1035Y369D02*
X1037Y369D01*
X1042Y369D02*
X1045Y369D01*
X159Y368D02*
X162Y368D01*
X181Y368D02*
X183Y368D01*
X185Y368D02*
X188Y368D01*
X194Y368D02*
X196Y368D01*
X208Y368D02*
X210Y368D01*
X216Y368D02*
X219Y368D01*
X985Y368D02*
X988Y368D01*
X1008Y368D02*
X1010Y368D01*
X1012Y368D02*
X1015Y368D01*
X1021Y368D02*
X1023Y368D01*
X1035Y368D02*
X1037Y368D01*
X1043Y368D02*
X1045Y368D01*
X158Y367D02*
X161Y367D01*
X181Y367D02*
X183Y367D01*
X186Y367D02*
X188Y367D01*
X194Y367D02*
X196Y367D01*
X208Y367D02*
X210Y367D01*
X216Y367D02*
X219Y367D01*
X985Y367D02*
X988Y367D01*
X1008Y367D02*
X1010Y367D01*
X1013Y367D02*
X1015Y367D01*
X1021Y367D02*
X1023Y367D01*
X1035Y367D02*
X1037Y367D01*
X1043Y367D02*
X1046Y367D01*
X158Y366D02*
X160Y366D01*
X181Y366D02*
X183Y366D01*
X186Y366D02*
X189Y366D01*
X194Y366D02*
X196Y366D01*
X208Y366D02*
X210Y366D01*
X217Y366D02*
X219Y366D01*
X984Y366D02*
X987Y366D01*
X1008Y366D02*
X1010Y366D01*
X1013Y366D02*
X1016Y366D01*
X1021Y366D02*
X1023Y366D01*
X1035Y366D02*
X1037Y366D01*
X1044Y366D02*
X1046Y366D01*
X158Y365D02*
X160Y365D01*
X181Y365D02*
X183Y365D01*
X187Y365D02*
X189Y365D01*
X194Y365D02*
X196Y365D01*
X208Y365D02*
X210Y365D01*
X217Y365D02*
X220Y365D01*
X984Y365D02*
X987Y365D01*
X1008Y365D02*
X1010Y365D01*
X1013Y365D02*
X1016Y365D01*
X1021Y365D02*
X1023Y365D01*
X1035Y365D02*
X1037Y365D01*
X1044Y365D02*
X1047Y365D01*
X157Y364D02*
X160Y364D01*
X181Y364D02*
X183Y364D01*
X187Y364D02*
X190Y364D01*
X194Y364D02*
X196Y364D01*
X208Y364D02*
X210Y364D01*
X218Y364D02*
X220Y364D01*
X984Y364D02*
X987Y364D01*
X1008Y364D02*
X1010Y364D01*
X1014Y364D02*
X1017Y364D01*
X1021Y364D02*
X1023Y364D01*
X1035Y364D02*
X1037Y364D01*
X1044Y364D02*
X1047Y364D01*
X157Y363D02*
X160Y363D01*
X181Y363D02*
X183Y363D01*
X188Y363D02*
X190Y363D01*
X194Y363D02*
X196Y363D01*
X208Y363D02*
X210Y363D01*
X218Y363D02*
X220Y363D01*
X984Y363D02*
X987Y363D01*
X1008Y363D02*
X1010Y363D01*
X1014Y363D02*
X1017Y363D01*
X1021Y363D02*
X1023Y363D01*
X1035Y363D02*
X1037Y363D01*
X1044Y363D02*
X1047Y363D01*
X157Y362D02*
X160Y362D01*
X167Y362D02*
X173Y362D01*
X181Y362D02*
X183Y362D01*
X188Y362D02*
X191Y362D01*
X194Y362D02*
X196Y362D01*
X208Y362D02*
X210Y362D01*
X217Y362D02*
X220Y362D01*
X984Y362D02*
X987Y362D01*
X993Y362D02*
X999Y362D01*
X1008Y362D02*
X1010Y362D01*
X1015Y362D02*
X1017Y362D01*
X1021Y362D02*
X1023Y362D01*
X1035Y362D02*
X1037Y362D01*
X1044Y362D02*
X1047Y362D01*
X157Y361D02*
X160Y361D01*
X166Y361D02*
X173Y361D01*
X181Y361D02*
X183Y361D01*
X188Y361D02*
X191Y361D01*
X194Y361D02*
X196Y361D01*
X208Y361D02*
X210Y361D01*
X217Y361D02*
X220Y361D01*
X984Y361D02*
X987Y361D01*
X992Y361D02*
X1000Y361D01*
X1008Y361D02*
X1010Y361D01*
X1015Y361D02*
X1018Y361D01*
X1021Y361D02*
X1023Y361D01*
X1035Y361D02*
X1037Y361D01*
X1044Y361D02*
X1046Y361D01*
X157Y360D02*
X160Y360D01*
X166Y360D02*
X173Y360D01*
X181Y360D02*
X183Y360D01*
X189Y360D02*
X192Y360D01*
X194Y360D02*
X196Y360D01*
X208Y360D02*
X210Y360D01*
X217Y360D02*
X219Y360D01*
X984Y360D02*
X987Y360D01*
X993Y360D02*
X1000Y360D01*
X1008Y360D02*
X1010Y360D01*
X1016Y360D02*
X1018Y360D01*
X1021Y360D02*
X1023Y360D01*
X1035Y360D02*
X1037Y360D01*
X1043Y360D02*
X1046Y360D01*
X157Y359D02*
X160Y359D01*
X167Y359D02*
X173Y359D01*
X181Y359D02*
X183Y359D01*
X189Y359D02*
X192Y359D01*
X194Y359D02*
X196Y359D01*
X208Y359D02*
X210Y359D01*
X216Y359D02*
X219Y359D01*
X984Y359D02*
X987Y359D01*
X997Y359D02*
X1000Y359D01*
X1008Y359D02*
X1010Y359D01*
X1016Y359D02*
X1019Y359D01*
X1021Y359D02*
X1023Y359D01*
X1035Y359D02*
X1037Y359D01*
X1043Y359D02*
X1045Y359D01*
X157Y358D02*
X160Y358D01*
X170Y358D02*
X173Y358D01*
X181Y358D02*
X183Y358D01*
X190Y358D02*
X192Y358D01*
X194Y358D02*
X196Y358D01*
X208Y358D02*
X210Y358D01*
X216Y358D02*
X218Y358D01*
X984Y358D02*
X987Y358D01*
X997Y358D02*
X1000Y358D01*
X1008Y358D02*
X1010Y358D01*
X1017Y358D02*
X1019Y358D01*
X1021Y358D02*
X1023Y358D01*
X1035Y358D02*
X1037Y358D01*
X1042Y358D02*
X1045Y358D01*
X157Y357D02*
X160Y357D01*
X170Y357D02*
X173Y357D01*
X181Y357D02*
X183Y357D01*
X190Y357D02*
X196Y357D01*
X208Y357D02*
X210Y357D01*
X215Y357D02*
X218Y357D01*
X984Y357D02*
X987Y357D01*
X997Y357D02*
X1000Y357D01*
X1008Y357D02*
X1010Y357D01*
X1017Y357D02*
X1023Y357D01*
X1035Y357D02*
X1037Y357D01*
X1042Y357D02*
X1044Y357D01*
X157Y356D02*
X160Y356D01*
X170Y356D02*
X173Y356D01*
X181Y356D02*
X183Y356D01*
X191Y356D02*
X196Y356D01*
X208Y356D02*
X210Y356D01*
X214Y356D02*
X217Y356D01*
X984Y356D02*
X987Y356D01*
X997Y356D02*
X1000Y356D01*
X1008Y356D02*
X1010Y356D01*
X1017Y356D02*
X1023Y356D01*
X1035Y356D02*
X1037Y356D01*
X1041Y356D02*
X1044Y356D01*
X158Y355D02*
X160Y355D01*
X170Y355D02*
X173Y355D01*
X181Y355D02*
X183Y355D01*
X191Y355D02*
X196Y355D01*
X208Y355D02*
X210Y355D01*
X214Y355D02*
X217Y355D01*
X984Y355D02*
X987Y355D01*
X997Y355D02*
X999Y355D01*
X1008Y355D02*
X1010Y355D01*
X1018Y355D02*
X1023Y355D01*
X1035Y355D02*
X1037Y355D01*
X1041Y355D02*
X1043Y355D01*
X158Y354D02*
X161Y354D01*
X169Y354D02*
X173Y354D01*
X181Y354D02*
X183Y354D01*
X192Y354D02*
X196Y354D01*
X208Y354D02*
X211Y354D01*
X213Y354D02*
X216Y354D01*
X985Y354D02*
X988Y354D01*
X995Y354D02*
X999Y354D01*
X1008Y354D02*
X1010Y354D01*
X1018Y354D02*
X1023Y354D01*
X1034Y354D02*
X1037Y354D01*
X1039Y354D02*
X1043Y354D01*
X158Y353D02*
X172Y353D01*
X181Y353D02*
X183Y353D01*
X192Y353D02*
X196Y353D01*
X205Y353D02*
X216Y353D01*
X985Y353D02*
X999Y353D01*
X1008Y353D02*
X1010Y353D01*
X1019Y353D02*
X1023Y353D01*
X1032Y353D02*
X1042Y353D01*
X159Y352D02*
X171Y352D01*
X181Y352D02*
X183Y352D01*
X192Y352D02*
X196Y352D01*
X205Y352D02*
X215Y352D01*
X986Y352D02*
X998Y352D01*
X1008Y352D02*
X1010Y352D01*
X1019Y352D02*
X1023Y352D01*
X1032Y352D02*
X1042Y352D01*
X160Y351D02*
X170Y351D01*
X182Y351D02*
X183Y351D01*
X193Y351D02*
X196Y351D01*
X205Y351D02*
X213Y351D01*
X988Y351D02*
X996Y351D01*
X1009Y351D02*
X1009Y351D01*
X1020Y351D02*
X1023Y351D01*
X1032Y351D02*
X1040Y351D01*
X349Y291D02*
X350Y291D01*
X374Y291D02*
X382Y291D01*
X394Y291D02*
X398Y291D01*
X411Y291D02*
X412Y291D01*
X425Y291D02*
X434Y291D01*
X348Y290D02*
X351Y290D01*
X372Y290D02*
X383Y290D01*
X393Y290D02*
X399Y290D01*
X410Y290D02*
X413Y290D01*
X424Y290D02*
X436Y290D01*
X348Y289D02*
X351Y289D01*
X371Y289D02*
X383Y289D01*
X393Y289D02*
X399Y289D01*
X410Y289D02*
X413Y289D01*
X424Y289D02*
X437Y289D01*
X348Y288D02*
X351Y288D01*
X370Y288D02*
X383Y288D01*
X393Y288D02*
X399Y288D01*
X410Y288D02*
X413Y288D01*
X424Y288D02*
X438Y288D01*
X348Y287D02*
X351Y287D01*
X369Y287D02*
X375Y287D01*
X393Y287D02*
X400Y287D01*
X410Y287D02*
X413Y287D01*
X427Y287D02*
X431Y287D01*
X433Y287D02*
X438Y287D01*
X348Y286D02*
X351Y286D01*
X369Y286D02*
X373Y286D01*
X393Y286D02*
X400Y286D01*
X410Y286D02*
X413Y286D01*
X428Y286D02*
X431Y286D01*
X435Y286D02*
X439Y286D01*
X348Y285D02*
X351Y285D01*
X368Y285D02*
X372Y285D01*
X393Y285D02*
X401Y285D01*
X410Y285D02*
X413Y285D01*
X428Y285D02*
X431Y285D01*
X436Y285D02*
X439Y285D01*
X348Y284D02*
X351Y284D01*
X367Y284D02*
X372Y284D01*
X393Y284D02*
X401Y284D01*
X410Y284D02*
X413Y284D01*
X428Y284D02*
X431Y284D01*
X436Y284D02*
X440Y284D01*
X348Y283D02*
X351Y283D01*
X366Y283D02*
X371Y283D01*
X393Y283D02*
X402Y283D01*
X410Y283D02*
X413Y283D01*
X428Y283D02*
X431Y283D01*
X437Y283D02*
X440Y283D01*
X348Y282D02*
X351Y282D01*
X366Y282D02*
X370Y282D01*
X393Y282D02*
X402Y282D01*
X410Y282D02*
X413Y282D01*
X428Y282D02*
X431Y282D01*
X437Y282D02*
X441Y282D01*
X348Y281D02*
X351Y281D01*
X365Y281D02*
X369Y281D01*
X393Y281D02*
X397Y281D01*
X399Y281D02*
X403Y281D01*
X410Y281D02*
X413Y281D01*
X428Y281D02*
X431Y281D01*
X438Y281D02*
X441Y281D01*
X348Y280D02*
X351Y280D01*
X364Y280D02*
X368Y280D01*
X393Y280D02*
X397Y280D01*
X399Y280D02*
X403Y280D01*
X410Y280D02*
X413Y280D01*
X428Y280D02*
X431Y280D01*
X438Y280D02*
X442Y280D01*
X348Y279D02*
X351Y279D01*
X364Y279D02*
X368Y279D01*
X393Y279D02*
X397Y279D01*
X400Y279D02*
X403Y279D01*
X410Y279D02*
X413Y279D01*
X428Y279D02*
X431Y279D01*
X439Y279D02*
X442Y279D01*
X348Y278D02*
X351Y278D01*
X364Y278D02*
X367Y278D01*
X393Y278D02*
X397Y278D01*
X400Y278D02*
X404Y278D01*
X410Y278D02*
X413Y278D01*
X428Y278D02*
X431Y278D01*
X439Y278D02*
X443Y278D01*
X348Y277D02*
X351Y277D01*
X364Y277D02*
X367Y277D01*
X393Y277D02*
X397Y277D01*
X401Y277D02*
X404Y277D01*
X410Y277D02*
X413Y277D01*
X428Y277D02*
X431Y277D01*
X440Y277D02*
X443Y277D01*
X348Y276D02*
X351Y276D01*
X364Y276D02*
X367Y276D01*
X393Y276D02*
X397Y276D01*
X401Y276D02*
X405Y276D01*
X410Y276D02*
X413Y276D01*
X428Y276D02*
X431Y276D01*
X440Y276D02*
X443Y276D01*
X348Y275D02*
X351Y275D01*
X364Y275D02*
X367Y275D01*
X393Y275D02*
X397Y275D01*
X402Y275D02*
X405Y275D01*
X410Y275D02*
X413Y275D01*
X428Y275D02*
X431Y275D01*
X440Y275D02*
X443Y275D01*
X348Y274D02*
X351Y274D01*
X364Y274D02*
X367Y274D01*
X393Y274D02*
X397Y274D01*
X402Y274D02*
X406Y274D01*
X410Y274D02*
X413Y274D01*
X428Y274D02*
X431Y274D01*
X440Y274D02*
X443Y274D01*
X336Y273D02*
X338Y273D01*
X348Y273D02*
X351Y273D01*
X364Y273D02*
X367Y273D01*
X375Y273D02*
X383Y273D01*
X393Y273D02*
X397Y273D01*
X402Y273D02*
X406Y273D01*
X410Y273D02*
X413Y273D01*
X428Y273D02*
X431Y273D01*
X440Y273D02*
X443Y273D01*
X336Y272D02*
X339Y272D01*
X348Y272D02*
X351Y272D01*
X364Y272D02*
X367Y272D01*
X374Y272D02*
X383Y272D01*
X393Y272D02*
X397Y272D01*
X403Y272D02*
X406Y272D01*
X410Y272D02*
X413Y272D01*
X428Y272D02*
X431Y272D01*
X439Y272D02*
X443Y272D01*
X336Y271D02*
X339Y271D01*
X348Y271D02*
X351Y271D01*
X364Y271D02*
X367Y271D01*
X374Y271D02*
X383Y271D01*
X393Y271D02*
X397Y271D01*
X403Y271D02*
X407Y271D01*
X410Y271D02*
X413Y271D01*
X428Y271D02*
X431Y271D01*
X439Y271D02*
X442Y271D01*
X336Y270D02*
X339Y270D01*
X348Y270D02*
X351Y270D01*
X364Y270D02*
X367Y270D01*
X375Y270D02*
X383Y270D01*
X393Y270D02*
X397Y270D01*
X404Y270D02*
X407Y270D01*
X410Y270D02*
X413Y270D01*
X428Y270D02*
X431Y270D01*
X438Y270D02*
X442Y270D01*
X336Y269D02*
X339Y269D01*
X348Y269D02*
X351Y269D01*
X364Y269D02*
X367Y269D01*
X380Y269D02*
X383Y269D01*
X393Y269D02*
X397Y269D01*
X404Y269D02*
X408Y269D01*
X410Y269D02*
X413Y269D01*
X428Y269D02*
X431Y269D01*
X438Y269D02*
X441Y269D01*
X336Y268D02*
X339Y268D01*
X348Y268D02*
X351Y268D01*
X364Y268D02*
X367Y268D01*
X380Y268D02*
X383Y268D01*
X393Y268D02*
X397Y268D01*
X405Y268D02*
X408Y268D01*
X410Y268D02*
X413Y268D01*
X428Y268D02*
X431Y268D01*
X437Y268D02*
X441Y268D01*
X336Y267D02*
X339Y267D01*
X348Y267D02*
X351Y267D01*
X364Y267D02*
X367Y267D01*
X380Y267D02*
X383Y267D01*
X393Y267D02*
X397Y267D01*
X405Y267D02*
X413Y267D01*
X428Y267D02*
X431Y267D01*
X437Y267D02*
X440Y267D01*
X336Y266D02*
X339Y266D01*
X348Y266D02*
X351Y266D01*
X364Y266D02*
X367Y266D01*
X380Y266D02*
X383Y266D01*
X393Y266D02*
X397Y266D01*
X405Y266D02*
X413Y266D01*
X428Y266D02*
X431Y266D01*
X436Y266D02*
X440Y266D01*
X336Y265D02*
X339Y265D01*
X348Y265D02*
X351Y265D01*
X364Y265D02*
X367Y265D01*
X380Y265D02*
X383Y265D01*
X393Y265D02*
X397Y265D01*
X406Y265D02*
X413Y265D01*
X428Y265D02*
X431Y265D01*
X436Y265D02*
X439Y265D01*
X336Y264D02*
X339Y264D01*
X348Y264D02*
X351Y264D01*
X364Y264D02*
X367Y264D01*
X380Y264D02*
X383Y264D01*
X393Y264D02*
X397Y264D01*
X406Y264D02*
X413Y264D01*
X428Y264D02*
X431Y264D01*
X435Y264D02*
X439Y264D01*
X336Y263D02*
X351Y263D01*
X364Y263D02*
X383Y263D01*
X393Y263D02*
X397Y263D01*
X407Y263D02*
X413Y263D01*
X426Y263D02*
X438Y263D01*
X337Y262D02*
X350Y262D01*
X364Y262D02*
X382Y262D01*
X393Y262D02*
X397Y262D01*
X407Y262D02*
X413Y262D01*
X424Y262D02*
X438Y262D01*
X337Y261D02*
X350Y261D01*
X365Y261D02*
X382Y261D01*
X394Y261D02*
X397Y261D01*
X408Y261D02*
X413Y261D01*
X424Y261D02*
X437Y261D01*
X338Y260D02*
X348Y260D01*
X366Y260D02*
X380Y260D01*
X394Y260D02*
X396Y260D01*
X408Y260D02*
X413Y260D01*
X424Y260D02*
X436Y260D01*
X340Y259D02*
X346Y259D01*
X368Y259D02*
X378Y259D01*
X395Y259D02*
X395Y259D01*
X409Y259D02*
X413Y259D01*
X425Y259D02*
X434Y259D01*
X420Y250D02*
X420Y250D01*
X352Y249D02*
X355Y249D01*
X420Y249D02*
X422Y249D01*
X351Y248D02*
X355Y248D01*
X420Y248D02*
X424Y248D01*
X349Y247D02*
X355Y247D01*
X419Y247D02*
X425Y247D01*
X348Y246D02*
X355Y246D01*
X419Y246D02*
X427Y246D01*
X347Y245D02*
X356Y245D01*
X419Y245D02*
X427Y245D01*
X347Y244D02*
X356Y244D01*
X419Y244D02*
X428Y244D01*
X346Y243D02*
X356Y243D01*
X419Y243D02*
X429Y243D01*
X346Y242D02*
X355Y242D01*
X420Y242D02*
X429Y242D01*
X345Y241D02*
X353Y241D01*
X421Y241D02*
X430Y241D01*
X345Y240D02*
X353Y240D01*
X422Y240D02*
X430Y240D01*
X345Y239D02*
X352Y239D01*
X423Y239D02*
X430Y239D01*
X345Y238D02*
X352Y238D01*
X423Y238D02*
X430Y238D01*
X344Y237D02*
X351Y237D01*
X423Y237D02*
X430Y237D01*
X344Y236D02*
X351Y236D01*
X423Y236D02*
X430Y236D01*
X344Y235D02*
X350Y235D01*
X425Y235D02*
X430Y235D01*
X345Y234D02*
X345Y234D01*
X430Y234D02*
X430Y234D01*
X345Y180D02*
X345Y180D01*
X430Y180D02*
X430Y180D01*
X345Y179D02*
X350Y179D01*
X425Y179D02*
X430Y179D01*
X344Y178D02*
X351Y178D01*
X423Y178D02*
X430Y178D01*
X344Y177D02*
X351Y177D01*
X423Y177D02*
X430Y177D01*
X345Y176D02*
X351Y176D01*
X423Y176D02*
X430Y176D01*
X345Y175D02*
X352Y175D01*
X423Y175D02*
X430Y175D01*
X345Y174D02*
X352Y174D01*
X422Y174D02*
X430Y174D01*
X345Y173D02*
X353Y173D01*
X421Y173D02*
X430Y173D01*
X345Y172D02*
X355Y172D01*
X420Y172D02*
X429Y172D01*
X346Y171D02*
X356Y171D01*
X419Y171D02*
X429Y171D01*
X347Y170D02*
X356Y170D01*
X419Y170D02*
X428Y170D01*
X347Y169D02*
X356Y169D01*
X419Y169D02*
X427Y169D01*
X348Y168D02*
X355Y168D01*
X419Y168D02*
X427Y168D01*
X349Y167D02*
X355Y167D01*
X419Y167D02*
X426Y167D01*
X350Y166D02*
X355Y166D01*
X420Y166D02*
X424Y166D01*
X352Y165D02*
X355Y165D01*
X420Y165D02*
X423Y165D01*
X355Y164D02*
X355Y164D01*
X420Y164D02*
X420Y164D01*
D02*
G04 End of Silk1*
M02*