G04 MADE WITH FRITZING*
G04 WWW.FRITZING.ORG*
G04 DOUBLE SIDED*
G04 HOLES PLATED*
G04 CONTOUR ON CENTER OF CONTOUR VECTOR*
%ASAXBY*%
%FSLAX23Y23*%
%MOIN*%
%OFA0B0*%
%SFA1.0B1.0*%
%ADD10C,0.075000*%
%ADD11C,0.074000*%
%ADD12C,0.078000*%
%ADD13R,0.074000X0.074000*%
%ADD14C,0.024000*%
%LNCOPPER0*%
G90*
G70*
G54D10*
X121Y782D03*
X214Y380D03*
G54D11*
X704Y888D03*
X604Y888D03*
X504Y888D03*
X404Y888D03*
X204Y88D03*
X304Y88D03*
X404Y88D03*
X504Y88D03*
X604Y88D03*
X704Y88D03*
X804Y88D03*
X904Y88D03*
X1004Y88D03*
G54D12*
X1113Y661D03*
X1113Y561D03*
X1113Y461D03*
X1113Y361D03*
X89Y661D03*
X89Y561D03*
X89Y461D03*
X89Y361D03*
G54D13*
X704Y888D03*
G54D14*
X1083Y661D02*
X120Y661D01*
D02*
X1083Y561D02*
X120Y561D01*
D02*
X1083Y461D02*
X120Y461D01*
G36*
X40Y926D02*
X40Y842D01*
X392Y842D01*
X392Y844D01*
X386Y844D01*
X386Y846D01*
X382Y846D01*
X382Y848D01*
X378Y848D01*
X378Y850D01*
X376Y850D01*
X376Y852D01*
X374Y852D01*
X374Y854D01*
X372Y854D01*
X372Y856D01*
X370Y856D01*
X370Y858D01*
X368Y858D01*
X368Y860D01*
X366Y860D01*
X366Y862D01*
X364Y862D01*
X364Y866D01*
X362Y866D01*
X362Y870D01*
X360Y870D01*
X360Y876D01*
X358Y876D01*
X358Y900D01*
X360Y900D01*
X360Y906D01*
X362Y906D01*
X362Y926D01*
X40Y926D01*
G37*
D02*
G36*
X752Y926D02*
X752Y842D01*
X1160Y842D01*
X1160Y926D01*
X752Y926D01*
G37*
D02*
G36*
X444Y864D02*
X444Y862D01*
X442Y862D01*
X442Y860D01*
X440Y860D01*
X440Y856D01*
X438Y856D01*
X438Y854D01*
X436Y854D01*
X436Y852D01*
X432Y852D01*
X432Y850D01*
X430Y850D01*
X430Y848D01*
X426Y848D01*
X426Y846D01*
X424Y846D01*
X424Y844D01*
X416Y844D01*
X416Y842D01*
X492Y842D01*
X492Y844D01*
X486Y844D01*
X486Y846D01*
X482Y846D01*
X482Y848D01*
X478Y848D01*
X478Y850D01*
X476Y850D01*
X476Y852D01*
X474Y852D01*
X474Y854D01*
X472Y854D01*
X472Y856D01*
X470Y856D01*
X470Y858D01*
X468Y858D01*
X468Y860D01*
X466Y860D01*
X466Y862D01*
X464Y862D01*
X464Y864D01*
X444Y864D01*
G37*
D02*
G36*
X544Y864D02*
X544Y862D01*
X542Y862D01*
X542Y860D01*
X540Y860D01*
X540Y856D01*
X538Y856D01*
X538Y854D01*
X536Y854D01*
X536Y852D01*
X532Y852D01*
X532Y850D01*
X530Y850D01*
X530Y848D01*
X526Y848D01*
X526Y846D01*
X524Y846D01*
X524Y844D01*
X516Y844D01*
X516Y842D01*
X592Y842D01*
X592Y844D01*
X586Y844D01*
X586Y846D01*
X582Y846D01*
X582Y848D01*
X578Y848D01*
X578Y850D01*
X576Y850D01*
X576Y852D01*
X574Y852D01*
X574Y854D01*
X572Y854D01*
X572Y856D01*
X570Y856D01*
X570Y858D01*
X568Y858D01*
X568Y860D01*
X566Y860D01*
X566Y862D01*
X564Y862D01*
X564Y864D01*
X544Y864D01*
G37*
D02*
G36*
X638Y856D02*
X638Y854D01*
X636Y854D01*
X636Y852D01*
X632Y852D01*
X632Y850D01*
X630Y850D01*
X630Y848D01*
X626Y848D01*
X626Y846D01*
X624Y846D01*
X624Y844D01*
X616Y844D01*
X616Y842D01*
X658Y842D01*
X658Y856D01*
X638Y856D01*
G37*
D02*
G36*
X40Y842D02*
X40Y840D01*
X1160Y840D01*
X1160Y842D01*
X40Y842D01*
G37*
D02*
G36*
X40Y842D02*
X40Y840D01*
X1160Y840D01*
X1160Y842D01*
X40Y842D01*
G37*
D02*
G36*
X40Y842D02*
X40Y840D01*
X1160Y840D01*
X1160Y842D01*
X40Y842D01*
G37*
D02*
G36*
X40Y842D02*
X40Y840D01*
X1160Y840D01*
X1160Y842D01*
X40Y842D01*
G37*
D02*
G36*
X40Y842D02*
X40Y840D01*
X1160Y840D01*
X1160Y842D01*
X40Y842D01*
G37*
D02*
G36*
X40Y840D02*
X40Y710D01*
X1120Y710D01*
X1120Y708D01*
X1128Y708D01*
X1128Y706D01*
X1134Y706D01*
X1134Y704D01*
X1136Y704D01*
X1136Y702D01*
X1140Y702D01*
X1140Y700D01*
X1160Y700D01*
X1160Y840D01*
X40Y840D01*
G37*
D02*
G36*
X40Y710D02*
X40Y698D01*
X60Y698D01*
X60Y700D01*
X62Y700D01*
X62Y702D01*
X66Y702D01*
X66Y704D01*
X70Y704D01*
X70Y706D01*
X74Y706D01*
X74Y708D01*
X84Y708D01*
X84Y710D01*
X40Y710D01*
G37*
D02*
G36*
X96Y710D02*
X96Y708D01*
X104Y708D01*
X104Y706D01*
X110Y706D01*
X110Y704D01*
X114Y704D01*
X114Y702D01*
X116Y702D01*
X116Y700D01*
X120Y700D01*
X120Y698D01*
X122Y698D01*
X122Y696D01*
X124Y696D01*
X124Y694D01*
X126Y694D01*
X126Y692D01*
X128Y692D01*
X128Y690D01*
X130Y690D01*
X130Y686D01*
X132Y686D01*
X132Y682D01*
X1070Y682D01*
X1070Y686D01*
X1072Y686D01*
X1072Y688D01*
X1074Y688D01*
X1074Y690D01*
X1076Y690D01*
X1076Y694D01*
X1078Y694D01*
X1078Y696D01*
X1080Y696D01*
X1080Y698D01*
X1084Y698D01*
X1084Y700D01*
X1086Y700D01*
X1086Y702D01*
X1090Y702D01*
X1090Y704D01*
X1092Y704D01*
X1092Y706D01*
X1098Y706D01*
X1098Y708D01*
X1106Y708D01*
X1106Y710D01*
X96Y710D01*
G37*
D02*
G36*
X132Y638D02*
X132Y636D01*
X130Y636D01*
X130Y632D01*
X128Y632D01*
X128Y630D01*
X126Y630D01*
X126Y628D01*
X124Y628D01*
X124Y624D01*
X120Y624D01*
X120Y622D01*
X118Y622D01*
X118Y620D01*
X116Y620D01*
X116Y600D01*
X120Y600D01*
X120Y598D01*
X122Y598D01*
X122Y596D01*
X124Y596D01*
X124Y594D01*
X126Y594D01*
X126Y592D01*
X128Y592D01*
X128Y590D01*
X130Y590D01*
X130Y586D01*
X132Y586D01*
X132Y582D01*
X1070Y582D01*
X1070Y586D01*
X1072Y586D01*
X1072Y588D01*
X1074Y588D01*
X1074Y590D01*
X1076Y590D01*
X1076Y594D01*
X1078Y594D01*
X1078Y596D01*
X1080Y596D01*
X1080Y598D01*
X1084Y598D01*
X1084Y600D01*
X1086Y600D01*
X1086Y620D01*
X1084Y620D01*
X1084Y622D01*
X1082Y622D01*
X1082Y624D01*
X1080Y624D01*
X1080Y626D01*
X1078Y626D01*
X1078Y628D01*
X1076Y628D01*
X1076Y630D01*
X1074Y630D01*
X1074Y632D01*
X1072Y632D01*
X1072Y636D01*
X1070Y636D01*
X1070Y638D01*
X132Y638D01*
G37*
D02*
G36*
X132Y538D02*
X132Y536D01*
X130Y536D01*
X130Y532D01*
X128Y532D01*
X128Y530D01*
X126Y530D01*
X126Y528D01*
X124Y528D01*
X124Y524D01*
X120Y524D01*
X120Y522D01*
X118Y522D01*
X118Y520D01*
X116Y520D01*
X116Y500D01*
X120Y500D01*
X120Y498D01*
X122Y498D01*
X122Y496D01*
X124Y496D01*
X124Y494D01*
X126Y494D01*
X126Y492D01*
X128Y492D01*
X128Y490D01*
X130Y490D01*
X130Y486D01*
X132Y486D01*
X132Y482D01*
X1070Y482D01*
X1070Y486D01*
X1072Y486D01*
X1072Y488D01*
X1074Y488D01*
X1074Y490D01*
X1076Y490D01*
X1076Y494D01*
X1078Y494D01*
X1078Y496D01*
X1080Y496D01*
X1080Y498D01*
X1084Y498D01*
X1084Y500D01*
X1086Y500D01*
X1086Y520D01*
X1084Y520D01*
X1084Y522D01*
X1082Y522D01*
X1082Y524D01*
X1080Y524D01*
X1080Y526D01*
X1078Y526D01*
X1078Y528D01*
X1076Y528D01*
X1076Y530D01*
X1074Y530D01*
X1074Y532D01*
X1072Y532D01*
X1072Y536D01*
X1070Y536D01*
X1070Y538D01*
X132Y538D01*
G37*
D02*
G36*
X132Y438D02*
X132Y436D01*
X130Y436D01*
X130Y432D01*
X128Y432D01*
X128Y430D01*
X126Y430D01*
X126Y428D01*
X124Y428D01*
X124Y424D01*
X120Y424D01*
X120Y422D01*
X118Y422D01*
X118Y420D01*
X116Y420D01*
X116Y400D01*
X120Y400D01*
X120Y398D01*
X122Y398D01*
X122Y396D01*
X124Y396D01*
X124Y394D01*
X126Y394D01*
X126Y392D01*
X128Y392D01*
X128Y390D01*
X130Y390D01*
X130Y386D01*
X132Y386D01*
X132Y382D01*
X134Y382D01*
X134Y378D01*
X136Y378D01*
X136Y372D01*
X138Y372D01*
X138Y350D01*
X136Y350D01*
X136Y342D01*
X134Y342D01*
X134Y338D01*
X132Y338D01*
X132Y336D01*
X130Y336D01*
X130Y332D01*
X128Y332D01*
X128Y330D01*
X126Y330D01*
X126Y328D01*
X124Y328D01*
X124Y324D01*
X120Y324D01*
X120Y322D01*
X118Y322D01*
X118Y320D01*
X116Y320D01*
X116Y318D01*
X112Y318D01*
X112Y316D01*
X108Y316D01*
X108Y314D01*
X100Y314D01*
X100Y312D01*
X1102Y312D01*
X1102Y314D01*
X1096Y314D01*
X1096Y316D01*
X1090Y316D01*
X1090Y318D01*
X1088Y318D01*
X1088Y320D01*
X1084Y320D01*
X1084Y322D01*
X1082Y322D01*
X1082Y324D01*
X1080Y324D01*
X1080Y326D01*
X1078Y326D01*
X1078Y328D01*
X1076Y328D01*
X1076Y330D01*
X1074Y330D01*
X1074Y332D01*
X1072Y332D01*
X1072Y336D01*
X1070Y336D01*
X1070Y340D01*
X1068Y340D01*
X1068Y344D01*
X1066Y344D01*
X1066Y352D01*
X1064Y352D01*
X1064Y370D01*
X1066Y370D01*
X1066Y376D01*
X1068Y376D01*
X1068Y382D01*
X1070Y382D01*
X1070Y386D01*
X1072Y386D01*
X1072Y388D01*
X1074Y388D01*
X1074Y390D01*
X1076Y390D01*
X1076Y394D01*
X1078Y394D01*
X1078Y396D01*
X1080Y396D01*
X1080Y398D01*
X1084Y398D01*
X1084Y400D01*
X1086Y400D01*
X1086Y420D01*
X1084Y420D01*
X1084Y422D01*
X1082Y422D01*
X1082Y424D01*
X1080Y424D01*
X1080Y426D01*
X1078Y426D01*
X1078Y428D01*
X1076Y428D01*
X1076Y430D01*
X1074Y430D01*
X1074Y432D01*
X1072Y432D01*
X1072Y436D01*
X1070Y436D01*
X1070Y438D01*
X132Y438D01*
G37*
D02*
G36*
X40Y322D02*
X40Y312D01*
X78Y312D01*
X78Y314D01*
X72Y314D01*
X72Y316D01*
X68Y316D01*
X68Y318D01*
X64Y318D01*
X64Y320D01*
X60Y320D01*
X60Y322D01*
X40Y322D01*
G37*
D02*
G36*
X1138Y320D02*
X1138Y318D01*
X1136Y318D01*
X1136Y316D01*
X1130Y316D01*
X1130Y314D01*
X1124Y314D01*
X1124Y312D01*
X1160Y312D01*
X1160Y320D01*
X1138Y320D01*
G37*
D02*
G36*
X40Y312D02*
X40Y310D01*
X1160Y310D01*
X1160Y312D01*
X40Y312D01*
G37*
D02*
G36*
X40Y312D02*
X40Y310D01*
X1160Y310D01*
X1160Y312D01*
X40Y312D01*
G37*
D02*
G36*
X40Y312D02*
X40Y310D01*
X1160Y310D01*
X1160Y312D01*
X40Y312D01*
G37*
D02*
G36*
X40Y310D02*
X40Y136D01*
X1006Y136D01*
X1006Y134D01*
X1018Y134D01*
X1018Y132D01*
X1024Y132D01*
X1024Y130D01*
X1026Y130D01*
X1026Y128D01*
X1030Y128D01*
X1030Y126D01*
X1034Y126D01*
X1034Y124D01*
X1036Y124D01*
X1036Y122D01*
X1038Y122D01*
X1038Y120D01*
X1040Y120D01*
X1040Y118D01*
X1042Y118D01*
X1042Y114D01*
X1044Y114D01*
X1044Y112D01*
X1046Y112D01*
X1046Y108D01*
X1048Y108D01*
X1048Y102D01*
X1050Y102D01*
X1050Y94D01*
X1052Y94D01*
X1052Y82D01*
X1050Y82D01*
X1050Y74D01*
X1048Y74D01*
X1048Y68D01*
X1046Y68D01*
X1046Y64D01*
X1044Y64D01*
X1044Y62D01*
X1042Y62D01*
X1042Y60D01*
X1040Y60D01*
X1040Y40D01*
X1160Y40D01*
X1160Y310D01*
X40Y310D01*
G37*
D02*
G36*
X40Y136D02*
X40Y40D01*
X168Y40D01*
X168Y60D01*
X166Y60D01*
X166Y62D01*
X164Y62D01*
X164Y66D01*
X162Y66D01*
X162Y70D01*
X160Y70D01*
X160Y76D01*
X158Y76D01*
X158Y100D01*
X160Y100D01*
X160Y106D01*
X162Y106D01*
X162Y110D01*
X164Y110D01*
X164Y114D01*
X166Y114D01*
X166Y116D01*
X168Y116D01*
X168Y118D01*
X170Y118D01*
X170Y122D01*
X174Y122D01*
X174Y124D01*
X176Y124D01*
X176Y126D01*
X178Y126D01*
X178Y128D01*
X182Y128D01*
X182Y130D01*
X186Y130D01*
X186Y132D01*
X192Y132D01*
X192Y134D01*
X204Y134D01*
X204Y136D01*
X40Y136D01*
G37*
D02*
G36*
X206Y136D02*
X206Y134D01*
X218Y134D01*
X218Y132D01*
X224Y132D01*
X224Y130D01*
X226Y130D01*
X226Y128D01*
X230Y128D01*
X230Y126D01*
X234Y126D01*
X234Y124D01*
X236Y124D01*
X236Y122D01*
X238Y122D01*
X238Y120D01*
X240Y120D01*
X240Y118D01*
X242Y118D01*
X242Y114D01*
X244Y114D01*
X244Y112D01*
X264Y112D01*
X264Y114D01*
X266Y114D01*
X266Y116D01*
X268Y116D01*
X268Y118D01*
X270Y118D01*
X270Y122D01*
X274Y122D01*
X274Y124D01*
X276Y124D01*
X276Y126D01*
X278Y126D01*
X278Y128D01*
X282Y128D01*
X282Y130D01*
X286Y130D01*
X286Y132D01*
X292Y132D01*
X292Y134D01*
X304Y134D01*
X304Y136D01*
X206Y136D01*
G37*
D02*
G36*
X306Y136D02*
X306Y134D01*
X318Y134D01*
X318Y132D01*
X324Y132D01*
X324Y130D01*
X326Y130D01*
X326Y128D01*
X330Y128D01*
X330Y126D01*
X334Y126D01*
X334Y124D01*
X336Y124D01*
X336Y122D01*
X338Y122D01*
X338Y120D01*
X340Y120D01*
X340Y118D01*
X342Y118D01*
X342Y114D01*
X344Y114D01*
X344Y112D01*
X364Y112D01*
X364Y114D01*
X366Y114D01*
X366Y116D01*
X368Y116D01*
X368Y118D01*
X370Y118D01*
X370Y122D01*
X374Y122D01*
X374Y124D01*
X376Y124D01*
X376Y126D01*
X378Y126D01*
X378Y128D01*
X382Y128D01*
X382Y130D01*
X386Y130D01*
X386Y132D01*
X392Y132D01*
X392Y134D01*
X404Y134D01*
X404Y136D01*
X306Y136D01*
G37*
D02*
G36*
X406Y136D02*
X406Y134D01*
X418Y134D01*
X418Y132D01*
X424Y132D01*
X424Y130D01*
X426Y130D01*
X426Y128D01*
X430Y128D01*
X430Y126D01*
X434Y126D01*
X434Y124D01*
X436Y124D01*
X436Y122D01*
X438Y122D01*
X438Y120D01*
X440Y120D01*
X440Y118D01*
X442Y118D01*
X442Y114D01*
X444Y114D01*
X444Y112D01*
X464Y112D01*
X464Y114D01*
X466Y114D01*
X466Y116D01*
X468Y116D01*
X468Y118D01*
X470Y118D01*
X470Y122D01*
X474Y122D01*
X474Y124D01*
X476Y124D01*
X476Y126D01*
X478Y126D01*
X478Y128D01*
X482Y128D01*
X482Y130D01*
X486Y130D01*
X486Y132D01*
X492Y132D01*
X492Y134D01*
X504Y134D01*
X504Y136D01*
X406Y136D01*
G37*
D02*
G36*
X506Y136D02*
X506Y134D01*
X518Y134D01*
X518Y132D01*
X524Y132D01*
X524Y130D01*
X526Y130D01*
X526Y128D01*
X530Y128D01*
X530Y126D01*
X534Y126D01*
X534Y124D01*
X536Y124D01*
X536Y122D01*
X538Y122D01*
X538Y120D01*
X540Y120D01*
X540Y118D01*
X542Y118D01*
X542Y114D01*
X544Y114D01*
X544Y112D01*
X564Y112D01*
X564Y114D01*
X566Y114D01*
X566Y116D01*
X568Y116D01*
X568Y118D01*
X570Y118D01*
X570Y122D01*
X574Y122D01*
X574Y124D01*
X576Y124D01*
X576Y126D01*
X578Y126D01*
X578Y128D01*
X582Y128D01*
X582Y130D01*
X586Y130D01*
X586Y132D01*
X592Y132D01*
X592Y134D01*
X604Y134D01*
X604Y136D01*
X506Y136D01*
G37*
D02*
G36*
X606Y136D02*
X606Y134D01*
X618Y134D01*
X618Y132D01*
X624Y132D01*
X624Y130D01*
X626Y130D01*
X626Y128D01*
X630Y128D01*
X630Y126D01*
X634Y126D01*
X634Y124D01*
X636Y124D01*
X636Y122D01*
X638Y122D01*
X638Y120D01*
X640Y120D01*
X640Y118D01*
X642Y118D01*
X642Y114D01*
X644Y114D01*
X644Y112D01*
X664Y112D01*
X664Y114D01*
X666Y114D01*
X666Y116D01*
X668Y116D01*
X668Y118D01*
X670Y118D01*
X670Y122D01*
X674Y122D01*
X674Y124D01*
X676Y124D01*
X676Y126D01*
X678Y126D01*
X678Y128D01*
X682Y128D01*
X682Y130D01*
X686Y130D01*
X686Y132D01*
X692Y132D01*
X692Y134D01*
X704Y134D01*
X704Y136D01*
X606Y136D01*
G37*
D02*
G36*
X706Y136D02*
X706Y134D01*
X718Y134D01*
X718Y132D01*
X724Y132D01*
X724Y130D01*
X726Y130D01*
X726Y128D01*
X730Y128D01*
X730Y126D01*
X734Y126D01*
X734Y124D01*
X736Y124D01*
X736Y122D01*
X738Y122D01*
X738Y120D01*
X740Y120D01*
X740Y118D01*
X742Y118D01*
X742Y114D01*
X744Y114D01*
X744Y112D01*
X764Y112D01*
X764Y114D01*
X766Y114D01*
X766Y116D01*
X768Y116D01*
X768Y118D01*
X770Y118D01*
X770Y122D01*
X774Y122D01*
X774Y124D01*
X776Y124D01*
X776Y126D01*
X778Y126D01*
X778Y128D01*
X782Y128D01*
X782Y130D01*
X786Y130D01*
X786Y132D01*
X792Y132D01*
X792Y134D01*
X804Y134D01*
X804Y136D01*
X706Y136D01*
G37*
D02*
G36*
X806Y136D02*
X806Y134D01*
X818Y134D01*
X818Y132D01*
X824Y132D01*
X824Y130D01*
X826Y130D01*
X826Y128D01*
X830Y128D01*
X830Y126D01*
X834Y126D01*
X834Y124D01*
X836Y124D01*
X836Y122D01*
X838Y122D01*
X838Y120D01*
X840Y120D01*
X840Y118D01*
X842Y118D01*
X842Y114D01*
X844Y114D01*
X844Y112D01*
X864Y112D01*
X864Y114D01*
X866Y114D01*
X866Y116D01*
X868Y116D01*
X868Y118D01*
X870Y118D01*
X870Y122D01*
X874Y122D01*
X874Y124D01*
X876Y124D01*
X876Y126D01*
X878Y126D01*
X878Y128D01*
X882Y128D01*
X882Y130D01*
X886Y130D01*
X886Y132D01*
X892Y132D01*
X892Y134D01*
X904Y134D01*
X904Y136D01*
X806Y136D01*
G37*
D02*
G36*
X906Y136D02*
X906Y134D01*
X918Y134D01*
X918Y132D01*
X924Y132D01*
X924Y130D01*
X926Y130D01*
X926Y128D01*
X930Y128D01*
X930Y126D01*
X934Y126D01*
X934Y124D01*
X936Y124D01*
X936Y122D01*
X938Y122D01*
X938Y120D01*
X940Y120D01*
X940Y118D01*
X942Y118D01*
X942Y114D01*
X944Y114D01*
X944Y112D01*
X964Y112D01*
X964Y114D01*
X966Y114D01*
X966Y116D01*
X968Y116D01*
X968Y118D01*
X970Y118D01*
X970Y122D01*
X974Y122D01*
X974Y124D01*
X976Y124D01*
X976Y126D01*
X978Y126D01*
X978Y128D01*
X982Y128D01*
X982Y130D01*
X986Y130D01*
X986Y132D01*
X992Y132D01*
X992Y134D01*
X1004Y134D01*
X1004Y136D01*
X906Y136D01*
G37*
D02*
G36*
X1089Y344D02*
X1134Y344D01*
X1134Y312D01*
X1089Y312D01*
X1089Y344D01*
G37*
D02*
G36*
X1060Y385D02*
X1092Y385D01*
X1092Y340D01*
X1060Y340D01*
X1060Y385D01*
G37*
D02*
G36*
X1130Y385D02*
X1160Y385D01*
X1160Y340D01*
X1130Y340D01*
X1130Y385D01*
G37*
D02*
G36*
X65Y344D02*
X110Y344D01*
X110Y312D01*
X65Y312D01*
X65Y344D01*
G37*
D02*
G36*
X36Y385D02*
X68Y385D01*
X68Y340D01*
X36Y340D01*
X36Y385D01*
G37*
D02*
G36*
X106Y385D02*
X138Y385D01*
X138Y340D01*
X106Y340D01*
X106Y385D01*
G37*
D02*
G36*
X680Y934D02*
X723Y934D01*
X723Y910D01*
X680Y910D01*
X680Y934D01*
G37*
D02*
G36*
X680Y872D02*
X723Y872D01*
X723Y842D01*
X680Y842D01*
X680Y872D01*
G37*
D02*
G36*
X720Y912D02*
X752Y912D01*
X752Y869D01*
X720Y869D01*
X720Y912D01*
G37*
D02*
G04 End of Copper0*
M02*