; NON-PLATED HOLES START AT T1
; THROUGH (PLATED) HOLES START AT T100
M48
INCH
T100C0.015748
T101C0.039370
%
T100
X004701Y010023
X006984Y016952
T101
X004228Y011527
X001000Y018413
X001000Y015413
X001000Y020413
X008244Y010511
X001000Y003413
X002000Y002031
X010291Y020952
X001000Y009413
X008527Y024452
X002000Y018413
X008244Y003511
X007527Y024452
X008244Y011511
X011291Y021952
X009283Y019952
X001000Y004413
X010291Y019952
X001000Y001031
X004228Y006527
X011291Y019952
X001000Y016413
X002000Y017413
X001000Y022413
X008244Y006511
X009283Y016960
X004527Y024452
X001000Y006413
X002000Y022413
X008244Y009511
X002000Y014413
X008244Y012511
X001000Y010413
X004228Y007527
X004228Y010527
X008244Y004511
X008283Y016960
X001000Y017413
X001000Y002031
X001000Y019413
X008244Y005511
X001000Y012413
X001000Y011413
X002000Y009413
X008283Y017960
X002000Y005413
X001000Y013413
X008283Y018960
X005527Y024452
X001000Y014413
X003527Y024452
X002000Y015413
X009283Y017960
X006527Y024452
X008244Y002511
X002000Y020413
X009283Y018960
X004228Y009527
X002000Y007413
X008283Y020952
X010291Y021952
X004228Y005527
X002000Y003413
X002000Y010413
X008244Y008511
X002000Y001031
X002000Y012413
X002000Y016413
X009283Y021952
X008244Y007511
X011291Y020952
X001000Y008413
X001000Y007413
X002000Y006413
X009283Y020952
X002000Y004413
X002000Y019413
X002000Y011413
X001000Y005413
X004228Y008527
X002000Y013413
X008283Y019952
X008283Y021952
X002000Y021413
X001000Y021413
X002000Y008413
X004228Y004527
T00
M30
