%
M48
M72
T01C0.02000
T02C0.03543
T03C0.03937
T04C0.04000
T05C0.11024
%
T01
X81950Y31100
X111650Y63500
X128750Y66200
X131900Y38300
X128750Y27950
X172850Y34250
X234950Y90600
X204800Y137750
X186800Y161600
X181850Y160250
X198950Y166550
X169700Y137750
X153500Y170600
X128750Y186800
X120200Y175550
X111650Y170150
X127400Y149450
X101750Y145850
X128750Y94100
X203000Y212900
T02
X207953Y216693
X217953Y216693
X227953Y216693
X227953Y206693
X217953Y206693
X207953Y206693
X197953Y206693
X197953Y216693
X187953Y216693
X187953Y206693
X177953Y206693
X167953Y206693
X167953Y216693
X177953Y216693
X157953Y216693
X157953Y206693
X147953Y206693
X147953Y216693
X137953Y216693
X137953Y206693
X127953Y206693
X117953Y206693
X117953Y216693
X127953Y216693
X107953Y216693
X107953Y206693
X97953Y206693
X97953Y216693
X87953Y216693
X87953Y206693
X77953Y206693
X77953Y216693
X67953Y216693
X57953Y216693
X57953Y206693
X67953Y206693
X47953Y206693
X47953Y216693
X37953Y216693
X37953Y206693
T03
X34000Y191000
X24000Y191000
X14000Y191000
X44000Y191000
X54000Y191000
X64000Y191000
X74000Y191000
X84000Y191000
X94000Y191000
X104000Y191000
X114000Y191000
X124000Y191000
X134000Y191000
X144000Y191000
X154000Y191000
X164000Y191000
X174000Y191000
X184000Y191000
X194000Y191000
X204000Y191000
X214000Y191000
X224000Y191000
X234000Y191000
X244000Y191000
X254000Y191000
T04
X244000Y171000
X244000Y161000
X234000Y161000
X234000Y171000
X224000Y171000
X224000Y161000
X214000Y161000
X214000Y171000
X204000Y171000
X204000Y161000
X174000Y161000
X174000Y151000
X164000Y151000
X164000Y161000
X154000Y161000
X154000Y151000
X144000Y151000
X134000Y151000
X134000Y161000
X144000Y161000
X94000Y161000
X84000Y161000
X84000Y151000
X94000Y151000
X74000Y151000
X74000Y161000
X64000Y161000
X64000Y151000
X54000Y151000
X54000Y161000
X54000Y111000
X54000Y101000
X64000Y101000
X64000Y111000
X74000Y111000
X74000Y101000
X84000Y101000
X94000Y101000
X94000Y111000
X84000Y111000
X134000Y111000
X144000Y111000
X144000Y101000
X134000Y101000
X154000Y101000
X154000Y111000
X164000Y111000
X164000Y101000
X174000Y101000
X174000Y111000
X204000Y111000
X204000Y101000
X204000Y91000
X204000Y81000
X204000Y71000
X204000Y61000
X174000Y61000
X174000Y51000
X164000Y51000
X164000Y61000
X154000Y61000
X154000Y51000
X144000Y51000
X134000Y51000
X134000Y61000
X144000Y61000
X145500Y22000
X135500Y21000
X125500Y22000
X115500Y21000
X105500Y22000
X95500Y21000
X85500Y22000
X75500Y21000
X65500Y22000
X64000Y51000
X64000Y61000
X54000Y61000
X54000Y51000
X74000Y51000
X74000Y61000
X84000Y61000
X94000Y61000
X94000Y51000
X84000Y51000
X155500Y21000
X185500Y21500
X185500Y11500
X195500Y11500
X195500Y21500
X205500Y21500
X205500Y11500
X215500Y11500
X215500Y21500
X225500Y21500
X225500Y11500
X244000Y41000
X254000Y41000
X254000Y51000
X244000Y51000
X244000Y61000
X254000Y61000
X254000Y71000
X244000Y71000
X244000Y81000
X254000Y81000
X254000Y91000
X244000Y91000
X244000Y101000
X254000Y101000
X254000Y111000
X244000Y111000
X244000Y121000
X244000Y131000
X244000Y141000
X204000Y131000
X204000Y121000
T05
X18780Y18780
X18780Y211693
X247126Y211693
X247126Y18780
M30
