G75*
%MOIN*%
%OFA0B0*%
%FSLAX25Y25*%
%IPPOS*%
%LPD*%
%AMOC8*
5,1,8,0,0,1.08239X$1,22.5*
%
%ADD10C,0.06600*%
%ADD11C,0.07400*%
%ADD12C,0.01000*%
%ADD13C,0.04000*%
%ADD14C,0.01600*%
D10*
X0014000Y0191000D03*
X0024000Y0191000D03*
X0034000Y0191000D03*
X0044000Y0191000D03*
X0054000Y0191000D03*
X0064000Y0191000D03*
X0074000Y0191000D03*
X0084000Y0191000D03*
X0094000Y0191000D03*
X0104000Y0191000D03*
X0114000Y0191000D03*
X0124000Y0191000D03*
X0134000Y0191000D03*
X0144000Y0191000D03*
X0154000Y0191000D03*
X0164000Y0191000D03*
X0174000Y0191000D03*
X0184000Y0191000D03*
X0194000Y0191000D03*
X0204000Y0191000D03*
X0214000Y0191000D03*
X0224000Y0191000D03*
X0234000Y0191000D03*
X0244000Y0191000D03*
X0254000Y0191000D03*
X0227953Y0206693D03*
X0227953Y0216693D03*
X0217953Y0216693D03*
X0217953Y0206693D03*
X0207953Y0206693D03*
X0207953Y0216693D03*
X0197953Y0216693D03*
X0197953Y0206693D03*
X0187953Y0206693D03*
X0187953Y0216693D03*
X0177953Y0216693D03*
X0167953Y0216693D03*
X0167953Y0206693D03*
X0177953Y0206693D03*
X0157953Y0206693D03*
X0157953Y0216693D03*
X0147953Y0216693D03*
X0147953Y0206693D03*
X0137953Y0206693D03*
X0137953Y0216693D03*
X0127953Y0216693D03*
X0117953Y0216693D03*
X0117953Y0206693D03*
X0127953Y0206693D03*
X0107953Y0206693D03*
X0107953Y0216693D03*
X0097953Y0216693D03*
X0097953Y0206693D03*
X0087953Y0206693D03*
X0087953Y0216693D03*
X0077953Y0216693D03*
X0077953Y0206693D03*
X0067953Y0206693D03*
X0057953Y0206693D03*
X0057953Y0216693D03*
X0067953Y0216693D03*
X0047953Y0216693D03*
X0047953Y0206693D03*
X0037953Y0206693D03*
X0037953Y0216693D03*
D11*
X0054000Y0161000D03*
X0054000Y0151000D03*
X0064000Y0151000D03*
X0064000Y0161000D03*
X0074000Y0161000D03*
X0074000Y0151000D03*
X0084000Y0151000D03*
X0094000Y0151000D03*
X0094000Y0161000D03*
X0084000Y0161000D03*
X0134000Y0161000D03*
X0144000Y0161000D03*
X0144000Y0151000D03*
X0134000Y0151000D03*
X0154000Y0151000D03*
X0154000Y0161000D03*
X0164000Y0161000D03*
X0164000Y0151000D03*
X0174000Y0151000D03*
X0174000Y0161000D03*
X0204000Y0161000D03*
X0204000Y0171000D03*
X0214000Y0171000D03*
X0214000Y0161000D03*
X0224000Y0161000D03*
X0224000Y0171000D03*
X0234000Y0171000D03*
X0234000Y0161000D03*
X0244000Y0161000D03*
X0244000Y0171000D03*
X0244000Y0141000D03*
X0244000Y0131000D03*
X0244000Y0121000D03*
X0244000Y0111000D03*
X0254000Y0111000D03*
X0254000Y0101000D03*
X0244000Y0101000D03*
X0244000Y0091000D03*
X0254000Y0091000D03*
X0254000Y0081000D03*
X0244000Y0081000D03*
X0244000Y0071000D03*
X0254000Y0071000D03*
X0254000Y0061000D03*
X0244000Y0061000D03*
X0244000Y0051000D03*
X0254000Y0051000D03*
X0254000Y0041000D03*
X0244000Y0041000D03*
X0225500Y0021500D03*
X0225500Y0011500D03*
X0215500Y0011500D03*
X0215500Y0021500D03*
X0205500Y0021500D03*
X0205500Y0011500D03*
X0195500Y0011500D03*
X0195500Y0021500D03*
X0185500Y0021500D03*
X0185500Y0011500D03*
X0155500Y0021000D03*
X0145500Y0022000D03*
X0135500Y0021000D03*
X0125500Y0022000D03*
X0115500Y0021000D03*
X0105500Y0022000D03*
X0095500Y0021000D03*
X0085500Y0022000D03*
X0075500Y0021000D03*
X0065500Y0022000D03*
X0064000Y0051000D03*
X0064000Y0061000D03*
X0054000Y0061000D03*
X0054000Y0051000D03*
X0074000Y0051000D03*
X0074000Y0061000D03*
X0084000Y0061000D03*
X0094000Y0061000D03*
X0094000Y0051000D03*
X0084000Y0051000D03*
X0134000Y0051000D03*
X0144000Y0051000D03*
X0144000Y0061000D03*
X0134000Y0061000D03*
X0154000Y0061000D03*
X0154000Y0051000D03*
X0164000Y0051000D03*
X0164000Y0061000D03*
X0174000Y0061000D03*
X0174000Y0051000D03*
X0204000Y0061000D03*
X0204000Y0071000D03*
X0204000Y0081000D03*
X0204000Y0091000D03*
X0204000Y0101000D03*
X0204000Y0111000D03*
X0204000Y0121000D03*
X0204000Y0131000D03*
X0174000Y0111000D03*
X0174000Y0101000D03*
X0164000Y0101000D03*
X0164000Y0111000D03*
X0154000Y0111000D03*
X0154000Y0101000D03*
X0144000Y0101000D03*
X0134000Y0101000D03*
X0134000Y0111000D03*
X0144000Y0111000D03*
X0094000Y0111000D03*
X0084000Y0111000D03*
X0084000Y0101000D03*
X0094000Y0101000D03*
X0074000Y0101000D03*
X0074000Y0111000D03*
X0064000Y0111000D03*
X0064000Y0101000D03*
X0054000Y0101000D03*
X0054000Y0111000D03*
D12*
X0083750Y0111200D02*
X0084000Y0111000D01*
X0083750Y0111200D02*
X0048650Y0146300D01*
X0048650Y0201650D01*
X0037850Y0201650D01*
X0027500Y0191300D01*
X0024350Y0191300D01*
X0024000Y0191000D01*
X0014000Y0191000D02*
X0014000Y0191300D01*
X0034250Y0211550D01*
X0043250Y0211550D01*
X0047750Y0207050D01*
X0047953Y0206693D01*
X0048650Y0201650D02*
X0052700Y0201650D01*
X0057650Y0206600D01*
X0057953Y0206693D01*
X0064400Y0191300D02*
X0064000Y0191000D01*
X0064400Y0191300D02*
X0067550Y0191300D01*
X0077900Y0201650D01*
X0082850Y0201650D01*
X0087800Y0206600D01*
X0087953Y0206693D01*
X0094100Y0193100D02*
X0107600Y0206600D01*
X0107953Y0206693D01*
X0112550Y0212000D02*
X0108050Y0216500D01*
X0107953Y0216693D01*
X0112550Y0212000D02*
X0129200Y0212000D01*
X0132800Y0208400D01*
X0132800Y0205250D01*
X0138650Y0199400D01*
X0138650Y0189500D01*
X0141800Y0186350D01*
X0155750Y0186350D01*
X0181850Y0160250D01*
X0186800Y0161600D02*
X0158900Y0189500D01*
X0158900Y0192650D01*
X0149900Y0201650D01*
X0146300Y0201650D01*
X0142700Y0205250D01*
X0142700Y0208850D01*
X0139550Y0212000D01*
X0135950Y0212000D01*
X0132800Y0215150D01*
X0132800Y0218750D01*
X0130100Y0221450D01*
X0122900Y0221450D01*
X0118400Y0216950D01*
X0117953Y0216693D01*
X0127953Y0206693D02*
X0128300Y0206600D01*
X0133700Y0201200D01*
X0133700Y0191300D01*
X0134000Y0191000D01*
X0133700Y0190850D01*
X0133700Y0178700D01*
X0123800Y0168800D01*
X0123800Y0148100D01*
X0125150Y0146750D01*
X0125150Y0022100D01*
X0125500Y0022000D01*
X0128750Y0027950D02*
X0146750Y0027950D01*
X0153500Y0021200D01*
X0155300Y0021200D01*
X0155500Y0021000D01*
X0161150Y0061250D02*
X0156200Y0066200D01*
X0128750Y0066200D01*
X0122000Y0065750D02*
X0122000Y0169700D01*
X0128750Y0176450D01*
X0128750Y0186800D01*
X0124000Y0191000D02*
X0123800Y0190850D01*
X0123800Y0174200D01*
X0120200Y0170600D01*
X0120200Y0066650D01*
X0085550Y0032000D01*
X0085550Y0022100D01*
X0085500Y0022000D01*
X0081950Y0031100D02*
X0101750Y0050900D01*
X0101750Y0145850D01*
X0111650Y0165200D02*
X0120200Y0173750D01*
X0120200Y0175550D01*
X0111650Y0165200D02*
X0111650Y0063500D01*
X0122000Y0065750D02*
X0105800Y0049550D01*
X0105800Y0022100D01*
X0105500Y0022000D01*
X0161150Y0061250D02*
X0163850Y0061250D01*
X0164000Y0061000D01*
X0180950Y0061250D02*
X0152600Y0089600D01*
X0133250Y0089600D01*
X0128750Y0094100D01*
X0127400Y0100400D02*
X0127400Y0149450D01*
X0164000Y0151000D02*
X0164300Y0150800D01*
X0164300Y0111200D01*
X0164000Y0111000D01*
X0136400Y0091400D02*
X0127400Y0100400D01*
X0136400Y0091400D02*
X0203900Y0091400D01*
X0204000Y0091000D01*
X0203900Y0061250D02*
X0180950Y0061250D01*
X0203900Y0061250D02*
X0204000Y0061000D01*
X0198950Y0166550D02*
X0198950Y0200750D01*
X0203000Y0204800D01*
X0203000Y0212900D01*
X0207953Y0206693D02*
X0208400Y0206600D01*
X0211100Y0206600D01*
X0221900Y0195800D01*
X0229100Y0195800D01*
X0233600Y0191300D01*
X0234000Y0191000D01*
X0174000Y0191000D02*
X0173750Y0191300D01*
X0173750Y0194000D01*
X0162950Y0204800D01*
X0162950Y0211550D01*
X0158000Y0216500D01*
X0157953Y0216693D01*
X0153050Y0208400D02*
X0153050Y0202100D01*
X0163850Y0191300D01*
X0164000Y0191000D01*
X0144000Y0191000D02*
X0143600Y0191300D01*
X0143600Y0201200D01*
X0138200Y0206600D01*
X0137953Y0206693D01*
X0148100Y0213350D02*
X0148100Y0216500D01*
X0147953Y0216693D01*
X0148100Y0213350D02*
X0153050Y0208400D01*
X0094100Y0193100D02*
X0094100Y0191300D01*
X0094000Y0191000D01*
D13*
X0111650Y0170150D03*
X0120200Y0175550D03*
X0128750Y0186800D03*
X0153500Y0170600D03*
X0127400Y0149450D03*
X0101750Y0145850D03*
X0128750Y0094100D03*
X0128750Y0066200D03*
X0111650Y0063500D03*
X0131900Y0038300D03*
X0128750Y0027950D03*
X0172850Y0034250D03*
X0234950Y0090600D03*
X0204800Y0137750D03*
X0186800Y0161600D03*
X0181850Y0160250D03*
X0198950Y0166550D03*
X0169700Y0137750D03*
X0203000Y0212900D03*
X0081950Y0031100D03*
D14*
X0064400Y0015350D02*
X0048650Y0031100D01*
X0048650Y0063500D01*
X0073850Y0088700D01*
X0073850Y0100850D01*
X0074000Y0101000D01*
X0064000Y0101000D02*
X0063950Y0101300D01*
X0063950Y0110300D01*
X0064000Y0111000D01*
X0063950Y0111200D01*
X0018950Y0156200D01*
X0018950Y0193100D01*
X0032450Y0206600D01*
X0037850Y0206600D01*
X0037953Y0206693D01*
X0059000Y0200750D02*
X0059000Y0189050D01*
X0073850Y0174200D01*
X0073850Y0161150D01*
X0074000Y0161000D01*
X0064000Y0161000D02*
X0063950Y0160700D01*
X0063950Y0151700D01*
X0064000Y0151000D01*
X0064400Y0150800D01*
X0069800Y0145400D01*
X0095900Y0145400D01*
X0108950Y0158450D01*
X0108950Y0170150D01*
X0111650Y0170150D01*
X0108950Y0170150D02*
X0108950Y0193100D01*
X0117950Y0202100D01*
X0117950Y0206600D01*
X0117953Y0206693D01*
X0097953Y0216693D02*
X0097700Y0216950D01*
X0092750Y0221900D01*
X0076100Y0221900D01*
X0072950Y0218750D01*
X0072950Y0214700D01*
X0077900Y0209750D01*
X0077900Y0207050D01*
X0077953Y0206693D01*
X0063050Y0204800D02*
X0063050Y0218750D01*
X0068900Y0224600D01*
X0230900Y0224600D01*
X0239000Y0216500D01*
X0239000Y0183650D01*
X0253850Y0168800D01*
X0253850Y0111200D01*
X0254000Y0111000D01*
X0243950Y0120650D02*
X0244000Y0121000D01*
X0243950Y0120650D02*
X0234950Y0120650D01*
X0225950Y0111650D01*
X0204350Y0111650D01*
X0204000Y0111000D01*
X0203900Y0110750D01*
X0194450Y0101300D01*
X0174200Y0101300D01*
X0174000Y0101000D01*
X0173300Y0100850D01*
X0171500Y0100850D01*
X0166100Y0095450D01*
X0139550Y0095450D01*
X0134000Y0101000D01*
X0094100Y0100850D02*
X0094100Y0068450D01*
X0099500Y0063050D01*
X0099500Y0057200D01*
X0094100Y0051800D01*
X0094000Y0051000D01*
X0093650Y0050900D01*
X0091400Y0050900D01*
X0080600Y0040100D01*
X0065750Y0040100D01*
X0065300Y0039650D01*
X0054050Y0050900D01*
X0054000Y0051000D01*
X0065300Y0039650D02*
X0065300Y0022100D01*
X0065500Y0022000D01*
X0064400Y0015350D02*
X0169700Y0015350D01*
X0238550Y0084200D01*
X0238550Y0095450D01*
X0243950Y0100850D01*
X0244000Y0101000D01*
X0234950Y0090600D02*
X0234950Y0084200D01*
X0181400Y0030650D01*
X0171050Y0030650D01*
X0163400Y0038300D01*
X0131900Y0038300D01*
X0139550Y0045500D02*
X0134150Y0050900D01*
X0134000Y0051000D01*
X0139550Y0045500D02*
X0166100Y0045500D01*
X0172850Y0038750D01*
X0172850Y0034250D01*
X0166100Y0045500D02*
X0171500Y0050900D01*
X0173750Y0050900D01*
X0174000Y0051000D01*
X0204000Y0121000D02*
X0204350Y0121100D01*
X0231800Y0121100D01*
X0241700Y0131000D01*
X0244000Y0131000D01*
X0244400Y0131450D01*
X0249350Y0136400D01*
X0249350Y0163400D01*
X0244400Y0168350D01*
X0244400Y0170600D01*
X0244000Y0171000D01*
X0243950Y0161150D02*
X0234500Y0161150D01*
X0234000Y0161000D01*
X0233600Y0161150D01*
X0224600Y0161150D01*
X0224000Y0161000D01*
X0223700Y0161150D01*
X0214700Y0161150D01*
X0214000Y0161000D01*
X0213800Y0161150D01*
X0204800Y0161150D01*
X0204000Y0161000D01*
X0203900Y0160700D01*
X0194450Y0151250D01*
X0174200Y0151250D01*
X0174000Y0151000D01*
X0169700Y0137750D02*
X0204800Y0137750D01*
X0204000Y0131000D02*
X0234050Y0131000D01*
X0243950Y0140900D01*
X0244000Y0141000D01*
X0244000Y0161000D02*
X0243950Y0161150D01*
X0227953Y0206693D02*
X0228200Y0207050D01*
X0228200Y0209750D01*
X0233150Y0214700D01*
X0233150Y0218750D01*
X0230000Y0221900D01*
X0203000Y0221900D01*
X0198050Y0216950D01*
X0197953Y0216693D01*
X0153500Y0170600D02*
X0144050Y0161150D01*
X0144000Y0161000D01*
X0094000Y0101000D02*
X0094100Y0100850D01*
X0059000Y0200750D02*
X0063050Y0204800D01*
M02*
