G75*
%MOIN*%
%OFA0B0*%
%FSLAX25Y25*%
%IPPOS*%
%LPD*%
%AMOC8*
5,1,8,0,0,1.08239X$1,22.5*
%
%ADD10C,0.00500*%
%ADD11C,0.00300*%
%ADD12C,0.00400*%
%ADD13C,0.00200*%
%ADD14C,0.00800*%
D10*
X0012664Y0175535D02*
X0013331Y0175535D01*
X0013998Y0176202D01*
X0013998Y0177536D01*
X0014666Y0178204D01*
X0015333Y0178204D01*
X0016000Y0177536D01*
X0016000Y0176202D01*
X0015333Y0175535D01*
X0012664Y0175535D02*
X0011997Y0176202D01*
X0011997Y0177536D01*
X0012664Y0178204D01*
X0011997Y0179678D02*
X0011997Y0181680D01*
X0012664Y0182347D01*
X0015333Y0182347D01*
X0016000Y0181680D01*
X0016000Y0179678D01*
X0011997Y0179678D01*
X0013331Y0183822D02*
X0011997Y0185156D01*
X0013331Y0186491D01*
X0016000Y0186491D01*
X0013998Y0186491D02*
X0013998Y0183822D01*
X0013331Y0183822D02*
X0016000Y0183822D01*
X0021997Y0183822D02*
X0026000Y0183822D01*
X0026000Y0186491D01*
X0025333Y0182347D02*
X0026000Y0181680D01*
X0026000Y0180345D01*
X0025333Y0179678D01*
X0022664Y0179678D01*
X0021997Y0180345D01*
X0021997Y0181680D01*
X0022664Y0182347D01*
X0022664Y0178204D02*
X0021997Y0177536D01*
X0021997Y0176202D01*
X0022664Y0175535D01*
X0023331Y0175535D01*
X0023998Y0176202D01*
X0023998Y0177536D01*
X0024666Y0178204D01*
X0025333Y0178204D01*
X0026000Y0177536D01*
X0026000Y0176202D01*
X0025333Y0175535D01*
X0031997Y0175535D02*
X0031997Y0178204D01*
X0031997Y0176869D02*
X0036000Y0176869D01*
X0036000Y0179678D02*
X0031997Y0182347D01*
X0031997Y0183822D02*
X0031997Y0185823D01*
X0032664Y0186491D01*
X0035333Y0186491D01*
X0036000Y0185823D01*
X0036000Y0183822D01*
X0031997Y0183822D01*
X0031997Y0179678D02*
X0036000Y0182347D01*
X0041997Y0182347D02*
X0046000Y0179678D01*
X0046000Y0178204D02*
X0044666Y0176869D01*
X0044666Y0177536D02*
X0044666Y0175535D01*
X0046000Y0175535D02*
X0041997Y0175535D01*
X0041997Y0177536D01*
X0042664Y0178204D01*
X0043998Y0178204D01*
X0044666Y0177536D01*
X0041997Y0179678D02*
X0046000Y0182347D01*
X0046000Y0183822D02*
X0041997Y0183822D01*
X0041997Y0185823D01*
X0042664Y0186491D01*
X0045333Y0186491D01*
X0046000Y0185823D01*
X0046000Y0183822D01*
X0051997Y0184252D02*
X0053998Y0182250D01*
X0053998Y0184919D01*
X0051997Y0184252D02*
X0056000Y0184252D01*
X0054666Y0180775D02*
X0054666Y0178106D01*
X0053331Y0178106D02*
X0053331Y0180108D01*
X0053331Y0180775D01*
X0051997Y0180108D02*
X0056000Y0180108D01*
X0056000Y0178774D02*
X0051997Y0178774D01*
D11*
X0061148Y0178631D02*
X0061849Y0177931D01*
X0061148Y0177230D01*
X0063250Y0177230D01*
X0063250Y0178631D02*
X0061148Y0178631D01*
X0061148Y0179440D02*
X0062900Y0179440D01*
X0063250Y0179790D01*
X0063250Y0180491D01*
X0062900Y0180841D01*
X0061148Y0180841D01*
X0061148Y0181650D02*
X0063250Y0183051D01*
X0063250Y0183860D02*
X0063250Y0185261D01*
X0062199Y0184560D02*
X0062199Y0183860D01*
X0061148Y0183860D02*
X0063250Y0183860D01*
X0064748Y0184156D02*
X0065099Y0184156D01*
X0066500Y0182755D01*
X0066850Y0182755D01*
X0066850Y0181946D02*
X0066850Y0180545D01*
X0066850Y0181246D02*
X0064748Y0181246D01*
X0065449Y0180545D01*
X0065449Y0179736D02*
X0065449Y0179386D01*
X0065449Y0178335D01*
X0066149Y0178335D02*
X0066149Y0179736D01*
X0066850Y0179386D02*
X0064748Y0179386D01*
X0064748Y0178685D02*
X0066850Y0178685D01*
X0063250Y0181650D02*
X0061148Y0183051D01*
X0061148Y0183860D02*
X0061148Y0185261D01*
X0064748Y0184156D02*
X0064748Y0182755D01*
X0071148Y0182755D02*
X0071148Y0183806D01*
X0071499Y0184156D01*
X0071849Y0184156D01*
X0072199Y0183806D01*
X0072199Y0182755D01*
X0073250Y0182755D02*
X0071148Y0182755D01*
X0071499Y0181946D02*
X0071148Y0181596D01*
X0071148Y0180545D01*
X0073250Y0180545D01*
X0073250Y0181596D01*
X0072900Y0181946D01*
X0071499Y0181946D01*
X0073250Y0182755D02*
X0073250Y0183806D01*
X0072900Y0184156D01*
X0072549Y0184156D01*
X0072199Y0183806D01*
X0071148Y0184965D02*
X0073250Y0184965D01*
X0073250Y0186366D01*
X0075099Y0184156D02*
X0075449Y0184156D01*
X0075799Y0183806D01*
X0075799Y0183105D01*
X0075449Y0182755D01*
X0075099Y0182755D01*
X0074748Y0183105D01*
X0074748Y0183806D01*
X0075099Y0184156D01*
X0075799Y0183806D02*
X0076149Y0184156D01*
X0076500Y0184156D01*
X0076850Y0183806D01*
X0076850Y0183105D01*
X0076500Y0182755D01*
X0076149Y0182755D01*
X0075799Y0183105D01*
X0076850Y0181946D02*
X0076850Y0180545D01*
X0076850Y0181246D02*
X0074748Y0181246D01*
X0075449Y0180545D01*
X0075449Y0179736D02*
X0075449Y0179386D01*
X0075449Y0178335D01*
X0076149Y0178335D02*
X0076149Y0179736D01*
X0076850Y0179386D02*
X0074748Y0179386D01*
X0074748Y0178685D02*
X0076850Y0178685D01*
X0081148Y0178281D02*
X0081148Y0177581D01*
X0081499Y0177230D01*
X0082900Y0177230D01*
X0083250Y0177581D01*
X0083250Y0178281D01*
X0082900Y0178631D01*
X0083250Y0179440D02*
X0083250Y0180491D01*
X0082900Y0180841D01*
X0081499Y0180841D01*
X0081148Y0180491D01*
X0081148Y0179440D01*
X0083250Y0179440D01*
X0084748Y0179386D02*
X0086850Y0179386D01*
X0086850Y0178685D02*
X0084748Y0178685D01*
X0085449Y0178335D02*
X0085449Y0179386D01*
X0085449Y0179736D01*
X0086149Y0179736D02*
X0086149Y0178335D01*
X0086850Y0180545D02*
X0085449Y0181946D01*
X0085099Y0181946D01*
X0084748Y0181596D01*
X0084748Y0180895D01*
X0085099Y0180545D01*
X0086850Y0180545D02*
X0086850Y0181946D01*
X0086850Y0182755D02*
X0086500Y0182755D01*
X0085099Y0184156D01*
X0084748Y0184156D01*
X0084748Y0182755D01*
X0083250Y0183051D02*
X0082549Y0182351D01*
X0082549Y0182701D02*
X0082549Y0181650D01*
X0083250Y0181650D02*
X0081148Y0181650D01*
X0081148Y0182701D01*
X0081499Y0183051D01*
X0082199Y0183051D01*
X0082549Y0182701D01*
X0082900Y0183860D02*
X0083250Y0184210D01*
X0083250Y0184911D01*
X0082900Y0185261D01*
X0082549Y0185261D01*
X0082199Y0184911D01*
X0082199Y0184210D01*
X0081849Y0183860D01*
X0081499Y0183860D01*
X0081148Y0184210D01*
X0081148Y0184911D01*
X0081499Y0185261D01*
X0081148Y0186070D02*
X0081148Y0187471D01*
X0081148Y0186770D02*
X0083250Y0186770D01*
X0081499Y0178631D02*
X0081148Y0178281D01*
X0083250Y0176422D02*
X0083250Y0175020D01*
X0081148Y0175020D01*
X0073250Y0176125D02*
X0073250Y0177526D01*
X0072900Y0178335D02*
X0073250Y0178685D01*
X0073250Y0179386D01*
X0072900Y0179736D01*
X0072900Y0178335D02*
X0071499Y0178335D01*
X0071148Y0178685D01*
X0071148Y0179386D01*
X0071499Y0179736D01*
X0071148Y0176125D02*
X0073250Y0176125D01*
X0091148Y0179790D02*
X0091499Y0179440D01*
X0091849Y0179440D01*
X0092199Y0179790D01*
X0092199Y0180491D01*
X0092549Y0180841D01*
X0092900Y0180841D01*
X0093250Y0180491D01*
X0093250Y0179790D01*
X0092900Y0179440D01*
X0091148Y0179790D02*
X0091148Y0180491D01*
X0091499Y0180841D01*
X0091499Y0181650D02*
X0091148Y0182000D01*
X0091148Y0182701D01*
X0091499Y0183051D01*
X0092900Y0181650D01*
X0093250Y0182000D01*
X0093250Y0182701D01*
X0092900Y0183051D01*
X0091499Y0183051D01*
X0091499Y0181650D02*
X0092900Y0181650D01*
X0094748Y0181596D02*
X0094748Y0180895D01*
X0095099Y0180545D01*
X0095449Y0179736D02*
X0095449Y0179386D01*
X0095449Y0178335D01*
X0096149Y0178335D02*
X0096149Y0179736D01*
X0096850Y0179386D02*
X0094748Y0179386D01*
X0094748Y0178685D02*
X0096850Y0178685D01*
X0096850Y0180545D02*
X0095449Y0181946D01*
X0095099Y0181946D01*
X0094748Y0181596D01*
X0095099Y0182755D02*
X0094748Y0183105D01*
X0094748Y0183806D01*
X0095099Y0184156D01*
X0095449Y0184156D01*
X0096850Y0182755D01*
X0096850Y0184156D01*
X0096850Y0181946D02*
X0096850Y0180545D01*
X0101148Y0180491D02*
X0101148Y0179790D01*
X0101499Y0179440D01*
X0101849Y0179440D01*
X0102199Y0179790D01*
X0102199Y0180491D01*
X0102549Y0180841D01*
X0102900Y0180841D01*
X0103250Y0180491D01*
X0103250Y0179790D01*
X0102900Y0179440D01*
X0104748Y0179386D02*
X0106850Y0179386D01*
X0106850Y0178685D02*
X0104748Y0178685D01*
X0105449Y0178335D02*
X0105449Y0179386D01*
X0105449Y0179736D01*
X0106149Y0179736D02*
X0106149Y0178335D01*
X0106850Y0180545D02*
X0105449Y0181946D01*
X0105099Y0181946D01*
X0104748Y0181596D01*
X0104748Y0180895D01*
X0105099Y0180545D01*
X0106850Y0180545D02*
X0106850Y0181946D01*
X0106500Y0182755D02*
X0106850Y0183105D01*
X0106850Y0183806D01*
X0106500Y0184156D01*
X0106149Y0184156D01*
X0105799Y0183806D01*
X0105799Y0183456D01*
X0105799Y0183806D02*
X0105449Y0184156D01*
X0105099Y0184156D01*
X0104748Y0183806D01*
X0104748Y0183105D01*
X0105099Y0182755D01*
X0103250Y0183051D02*
X0103250Y0181650D01*
X0103250Y0182351D02*
X0101148Y0182351D01*
X0101849Y0181650D01*
X0101499Y0180841D02*
X0101148Y0180491D01*
X0111148Y0180491D02*
X0111148Y0179790D01*
X0111499Y0179440D01*
X0111849Y0179440D01*
X0112199Y0179790D01*
X0112199Y0180491D01*
X0112549Y0180841D01*
X0112900Y0180841D01*
X0113250Y0180491D01*
X0113250Y0179790D01*
X0112900Y0179440D01*
X0114748Y0179386D02*
X0116850Y0179386D01*
X0116850Y0178685D02*
X0114748Y0178685D01*
X0115449Y0178335D02*
X0115449Y0179386D01*
X0115449Y0179736D01*
X0116149Y0179736D02*
X0116149Y0178335D01*
X0116850Y0180545D02*
X0115449Y0181946D01*
X0115099Y0181946D01*
X0114748Y0181596D01*
X0114748Y0180895D01*
X0115099Y0180545D01*
X0116850Y0180545D02*
X0116850Y0181946D01*
X0115799Y0182755D02*
X0114748Y0183806D01*
X0116850Y0183806D01*
X0115799Y0184156D02*
X0115799Y0182755D01*
X0113250Y0183051D02*
X0113250Y0181650D01*
X0111849Y0183051D01*
X0111499Y0183051D01*
X0111148Y0182701D01*
X0111148Y0182000D01*
X0111499Y0181650D01*
X0111499Y0180841D02*
X0111148Y0180491D01*
X0121148Y0179386D02*
X0121148Y0178335D01*
X0123250Y0178335D01*
X0123250Y0179386D01*
X0122900Y0179736D01*
X0121499Y0179736D01*
X0121148Y0179386D01*
X0123250Y0180545D02*
X0121148Y0181946D01*
X0121499Y0182755D02*
X0122900Y0182755D01*
X0123250Y0183105D01*
X0123250Y0183806D01*
X0122900Y0184156D01*
X0121499Y0184156D02*
X0121148Y0183806D01*
X0121148Y0183105D01*
X0121499Y0182755D01*
X0124748Y0182755D02*
X0125799Y0182755D01*
X0125449Y0183456D01*
X0125449Y0183806D01*
X0125799Y0184156D01*
X0126500Y0184156D01*
X0126850Y0183806D01*
X0126850Y0183105D01*
X0126500Y0182755D01*
X0126850Y0181946D02*
X0126850Y0180545D01*
X0125449Y0181946D01*
X0125099Y0181946D01*
X0124748Y0181596D01*
X0124748Y0180895D01*
X0125099Y0180545D01*
X0125449Y0179736D02*
X0125449Y0179386D01*
X0125449Y0178335D01*
X0126149Y0178335D02*
X0126149Y0179736D01*
X0126850Y0179386D02*
X0124748Y0179386D01*
X0124748Y0178685D02*
X0126850Y0178685D01*
X0124748Y0182755D02*
X0124748Y0184156D01*
X0161148Y0184815D02*
X0161499Y0184465D01*
X0161849Y0184465D01*
X0162199Y0184815D01*
X0162199Y0185516D01*
X0162549Y0185866D01*
X0162900Y0185866D01*
X0163250Y0185516D01*
X0163250Y0184815D01*
X0162900Y0184465D01*
X0162900Y0183656D02*
X0163250Y0183306D01*
X0163250Y0182605D01*
X0162900Y0182255D01*
X0161499Y0182255D01*
X0161148Y0182605D01*
X0161148Y0183306D01*
X0161499Y0183656D01*
X0161148Y0184815D02*
X0161148Y0185516D01*
X0161499Y0185866D01*
X0161499Y0181446D02*
X0161148Y0181096D01*
X0161148Y0180045D01*
X0163250Y0180045D01*
X0163250Y0181096D01*
X0162900Y0181446D01*
X0161499Y0181446D01*
X0161499Y0179236D02*
X0161148Y0178886D01*
X0161148Y0178185D01*
X0161499Y0177835D01*
X0162900Y0177835D01*
X0163250Y0178185D01*
X0163250Y0178886D01*
X0162900Y0179236D01*
X0164748Y0179290D02*
X0166850Y0179290D01*
X0166850Y0179991D02*
X0164748Y0179991D01*
X0165449Y0179991D02*
X0165449Y0180341D01*
X0165449Y0179991D02*
X0165449Y0178940D01*
X0166149Y0178940D02*
X0166149Y0180341D01*
X0166149Y0181150D02*
X0165799Y0181500D01*
X0165799Y0182201D01*
X0166149Y0182551D01*
X0166500Y0182551D01*
X0166850Y0182201D01*
X0166850Y0181500D01*
X0166500Y0181150D01*
X0166149Y0181150D01*
X0165799Y0181500D02*
X0165449Y0181150D01*
X0165099Y0181150D01*
X0164748Y0181500D01*
X0164748Y0182201D01*
X0165099Y0182551D01*
X0165449Y0182551D01*
X0165799Y0182201D01*
X0171148Y0182201D02*
X0171148Y0181500D01*
X0171499Y0181150D01*
X0172900Y0181150D01*
X0173250Y0181500D01*
X0173250Y0182201D01*
X0172900Y0182551D01*
X0172900Y0183360D02*
X0173250Y0183710D01*
X0173250Y0184411D01*
X0172900Y0184761D01*
X0172549Y0184761D01*
X0172199Y0184411D01*
X0172199Y0183710D01*
X0171849Y0183360D01*
X0171499Y0183360D01*
X0171148Y0183710D01*
X0171148Y0184411D01*
X0171499Y0184761D01*
X0171499Y0182551D02*
X0171148Y0182201D01*
X0171499Y0180341D02*
X0171148Y0179991D01*
X0171148Y0178940D01*
X0173250Y0178940D01*
X0173250Y0179991D01*
X0172900Y0180341D01*
X0171499Y0180341D01*
X0171499Y0178131D02*
X0171148Y0177781D01*
X0171148Y0177081D01*
X0171499Y0176730D01*
X0171849Y0176730D01*
X0172199Y0177081D01*
X0172199Y0177781D01*
X0172549Y0178131D01*
X0172900Y0178131D01*
X0173250Y0177781D01*
X0173250Y0177081D01*
X0172900Y0176730D01*
X0174748Y0179290D02*
X0176850Y0179290D01*
X0176850Y0179991D02*
X0174748Y0179991D01*
X0175449Y0179991D02*
X0175449Y0180341D01*
X0175449Y0179991D02*
X0175449Y0178940D01*
X0176149Y0178940D02*
X0176149Y0180341D01*
X0176500Y0181150D02*
X0175099Y0182551D01*
X0174748Y0182551D01*
X0174748Y0181150D01*
X0176500Y0181150D02*
X0176850Y0181150D01*
X0163250Y0177026D02*
X0163250Y0175625D01*
X0161148Y0175625D01*
X0146550Y0014656D02*
X0145499Y0013605D01*
X0145849Y0013255D02*
X0144448Y0014656D01*
X0144448Y0013255D02*
X0146550Y0013255D01*
X0146200Y0012446D02*
X0146550Y0012096D01*
X0146550Y0011395D01*
X0146200Y0011045D01*
X0144799Y0011045D01*
X0144448Y0011395D01*
X0144448Y0012096D01*
X0144799Y0012446D01*
X0144799Y0010236D02*
X0144448Y0009886D01*
X0144448Y0009185D01*
X0144799Y0008835D01*
X0145149Y0008835D01*
X0145499Y0009185D01*
X0145499Y0009886D01*
X0145849Y0010236D01*
X0146200Y0010236D01*
X0146550Y0009886D01*
X0146550Y0009185D01*
X0146200Y0008835D01*
X0154448Y0009940D02*
X0154448Y0010991D01*
X0154799Y0011341D01*
X0155149Y0011341D01*
X0155499Y0010991D01*
X0155499Y0009940D01*
X0156550Y0009940D02*
X0154448Y0009940D01*
X0155499Y0010991D02*
X0155849Y0011341D01*
X0156200Y0011341D01*
X0156550Y0010991D01*
X0156550Y0009940D01*
X0156550Y0012150D02*
X0154448Y0012150D01*
X0156550Y0012150D02*
X0156550Y0013551D01*
X0137050Y0012833D02*
X0137050Y0012132D01*
X0136700Y0011782D01*
X0135999Y0012132D02*
X0135999Y0012833D01*
X0136349Y0013183D01*
X0136700Y0013183D01*
X0137050Y0012833D01*
X0136700Y0013992D02*
X0135299Y0013992D01*
X0134948Y0014342D01*
X0134948Y0015042D01*
X0135299Y0015393D01*
X0136700Y0015393D01*
X0137050Y0015042D01*
X0137050Y0014342D01*
X0136700Y0013992D01*
X0135299Y0013183D02*
X0134948Y0012833D01*
X0134948Y0012132D01*
X0135299Y0011782D01*
X0135649Y0011782D01*
X0135999Y0012132D01*
X0134948Y0011009D02*
X0134948Y0010308D01*
X0134948Y0010659D02*
X0137050Y0010659D01*
X0137050Y0011009D02*
X0137050Y0010308D01*
X0137050Y0009500D02*
X0134948Y0009500D01*
X0135649Y0008799D01*
X0134948Y0008099D01*
X0137050Y0008099D01*
X0126550Y0008099D02*
X0124448Y0008099D01*
X0125149Y0008799D01*
X0124448Y0009500D01*
X0126550Y0009500D01*
X0126200Y0010308D02*
X0126550Y0010659D01*
X0126550Y0011359D01*
X0126200Y0011710D01*
X0124799Y0011710D01*
X0124448Y0011359D01*
X0124448Y0010659D01*
X0124799Y0010308D01*
X0126200Y0010308D01*
X0126200Y0012518D02*
X0126550Y0012869D01*
X0126550Y0013569D01*
X0126200Y0013920D01*
X0125849Y0013920D01*
X0125499Y0013569D01*
X0125499Y0012869D01*
X0125149Y0012518D01*
X0124799Y0012518D01*
X0124448Y0012869D01*
X0124448Y0013569D01*
X0124799Y0013920D01*
X0124448Y0014728D02*
X0124448Y0015429D01*
X0124448Y0015078D02*
X0126550Y0015078D01*
X0126550Y0014728D02*
X0126550Y0015429D01*
X0096550Y0013956D02*
X0094448Y0013956D01*
X0094448Y0014656D02*
X0094448Y0013255D01*
X0094799Y0012446D02*
X0094448Y0012096D01*
X0094448Y0011395D01*
X0094799Y0011045D01*
X0095149Y0011045D01*
X0095499Y0011395D01*
X0095499Y0012096D01*
X0095849Y0012446D01*
X0096200Y0012446D01*
X0096550Y0012096D01*
X0096550Y0011395D01*
X0096200Y0011045D01*
X0096550Y0010236D02*
X0095849Y0009536D01*
X0095849Y0009886D02*
X0095849Y0008835D01*
X0096550Y0008835D02*
X0094448Y0008835D01*
X0094448Y0009886D01*
X0094799Y0010236D01*
X0095499Y0010236D01*
X0095849Y0009886D01*
X0086550Y0009886D02*
X0086550Y0008835D01*
X0084448Y0008835D01*
X0084448Y0009886D01*
X0084799Y0010236D01*
X0086200Y0010236D01*
X0086550Y0009886D01*
X0086550Y0011045D02*
X0084448Y0012446D01*
X0084799Y0013255D02*
X0086200Y0013255D01*
X0086550Y0013605D01*
X0086550Y0014306D01*
X0086200Y0014656D01*
X0084799Y0014656D02*
X0084448Y0014306D01*
X0084448Y0013605D01*
X0084799Y0013255D01*
X0076550Y0012648D02*
X0076550Y0011948D01*
X0076200Y0011598D01*
X0074799Y0012999D01*
X0076200Y0012999D01*
X0076550Y0012648D01*
X0076200Y0011598D02*
X0074799Y0011598D01*
X0074448Y0011948D01*
X0074448Y0012648D01*
X0074799Y0012999D01*
X0074448Y0013807D02*
X0075849Y0013807D01*
X0076550Y0014508D01*
X0075849Y0015209D01*
X0074448Y0015209D01*
X0076200Y0010843D02*
X0076550Y0010843D01*
X0076550Y0010493D01*
X0076200Y0010493D01*
X0076200Y0010843D01*
X0076200Y0009684D02*
X0076550Y0009334D01*
X0076550Y0008633D01*
X0076200Y0008283D01*
X0075499Y0008283D02*
X0075149Y0008983D01*
X0075149Y0009334D01*
X0075499Y0009684D01*
X0076200Y0009684D01*
X0075499Y0008283D02*
X0074448Y0008283D01*
X0074448Y0009684D01*
X0066550Y0009886D02*
X0066200Y0010236D01*
X0065499Y0010236D01*
X0065499Y0009536D01*
X0064799Y0010236D02*
X0064448Y0009886D01*
X0064448Y0009185D01*
X0064799Y0008835D01*
X0066200Y0008835D01*
X0066550Y0009185D01*
X0066550Y0009886D01*
X0066550Y0011045D02*
X0064448Y0011045D01*
X0066550Y0012446D01*
X0064448Y0012446D01*
X0064448Y0013255D02*
X0064448Y0014306D01*
X0064799Y0014656D01*
X0066200Y0014656D01*
X0066550Y0014306D01*
X0066550Y0013255D01*
X0064448Y0013255D01*
D12*
X0170044Y0012402D02*
X0170044Y0011001D01*
X0170978Y0011468D01*
X0171445Y0011468D01*
X0171912Y0011001D01*
X0171912Y0010067D01*
X0171445Y0009600D01*
X0170511Y0009600D01*
X0170044Y0010067D01*
X0170044Y0012402D02*
X0171912Y0012402D01*
X0172990Y0010067D02*
X0173457Y0010067D01*
X0173457Y0009600D01*
X0172990Y0009600D01*
X0172990Y0010067D01*
X0174463Y0010067D02*
X0176332Y0011935D01*
X0176332Y0010067D01*
X0175865Y0009600D01*
X0174930Y0009600D01*
X0174463Y0010067D01*
X0174463Y0011935D01*
X0174930Y0012402D01*
X0175865Y0012402D01*
X0176332Y0011935D01*
X0177410Y0012402D02*
X0177410Y0010534D01*
X0178344Y0009600D01*
X0179278Y0010534D01*
X0179278Y0012402D01*
X0179074Y0020100D02*
X0177673Y0020100D01*
X0177673Y0022902D01*
X0179074Y0022902D01*
X0179542Y0022435D01*
X0179542Y0020567D01*
X0179074Y0020100D01*
X0176595Y0020100D02*
X0176595Y0022902D01*
X0174727Y0022902D02*
X0176595Y0020100D01*
X0174727Y0020100D02*
X0174727Y0022902D01*
X0173648Y0022435D02*
X0173181Y0022902D01*
X0172247Y0022902D01*
X0171780Y0022435D01*
X0171780Y0020567D01*
X0172247Y0020100D01*
X0173181Y0020100D01*
X0173648Y0020567D01*
X0173648Y0021501D01*
X0172714Y0021501D01*
X0250747Y0159600D02*
X0251681Y0159600D01*
X0252148Y0160067D01*
X0252148Y0161001D01*
X0251214Y0161001D01*
X0250280Y0160067D02*
X0250747Y0159600D01*
X0250280Y0160067D02*
X0250280Y0161935D01*
X0250747Y0162402D01*
X0251681Y0162402D01*
X0252148Y0161935D01*
X0253227Y0162402D02*
X0253227Y0159600D01*
X0255095Y0159600D02*
X0255095Y0162402D01*
X0256173Y0162402D02*
X0257574Y0162402D01*
X0258042Y0161935D01*
X0258042Y0160067D01*
X0257574Y0159600D01*
X0256173Y0159600D01*
X0256173Y0162402D01*
X0253227Y0162402D02*
X0255095Y0159600D01*
X0255365Y0169600D02*
X0254430Y0169600D01*
X0253963Y0170067D01*
X0252957Y0170067D02*
X0252957Y0169600D01*
X0252490Y0169600D01*
X0252490Y0170067D01*
X0252957Y0170067D01*
X0251412Y0170067D02*
X0250945Y0169600D01*
X0250011Y0169600D01*
X0249544Y0170067D01*
X0250478Y0171001D02*
X0250945Y0171001D01*
X0251412Y0170534D01*
X0251412Y0170067D01*
X0250945Y0171001D02*
X0251412Y0171468D01*
X0251412Y0171935D01*
X0250945Y0172402D01*
X0250011Y0172402D01*
X0249544Y0171935D01*
X0253963Y0171935D02*
X0254430Y0172402D01*
X0255365Y0172402D01*
X0255832Y0171935D01*
X0255832Y0171468D01*
X0255365Y0171001D01*
X0255832Y0170534D01*
X0255832Y0170067D01*
X0255365Y0169600D01*
X0255365Y0171001D02*
X0254897Y0171001D01*
X0256910Y0170534D02*
X0256910Y0172402D01*
X0256910Y0170534D02*
X0257844Y0169600D01*
X0258778Y0170534D01*
X0258778Y0172402D01*
X0255400Y0177247D02*
X0252598Y0177247D01*
X0252598Y0178181D02*
X0255400Y0178181D01*
X0254466Y0178648D02*
X0254466Y0176780D01*
X0253532Y0176780D02*
X0253532Y0178181D01*
X0253532Y0178648D01*
X0253065Y0179727D02*
X0252598Y0180194D01*
X0252598Y0181128D01*
X0253065Y0181595D01*
X0253532Y0181595D01*
X0255400Y0179727D01*
X0255400Y0181595D01*
X0255400Y0182673D02*
X0255400Y0184542D01*
X0255400Y0183607D02*
X0252598Y0183607D01*
X0253532Y0182673D01*
X0245400Y0183140D02*
X0244933Y0182673D01*
X0243065Y0184542D01*
X0244933Y0184542D01*
X0245400Y0184074D01*
X0245400Y0183140D01*
X0244933Y0182673D02*
X0243065Y0182673D01*
X0242598Y0183140D01*
X0242598Y0184074D01*
X0243065Y0184542D01*
X0243065Y0181595D02*
X0242598Y0181128D01*
X0242598Y0180194D01*
X0243065Y0179727D01*
X0243532Y0178648D02*
X0243532Y0178181D01*
X0243532Y0176780D01*
X0244466Y0176780D02*
X0244466Y0178648D01*
X0245400Y0178181D02*
X0242598Y0178181D01*
X0242598Y0177247D02*
X0245400Y0177247D01*
X0245400Y0179727D02*
X0243532Y0181595D01*
X0243065Y0181595D01*
X0245400Y0181595D02*
X0245400Y0179727D01*
X0235400Y0179727D02*
X0235400Y0181595D01*
X0235400Y0180661D02*
X0232598Y0180661D01*
X0233532Y0179727D01*
X0233532Y0178648D02*
X0233532Y0178181D01*
X0233532Y0176780D01*
X0234466Y0176780D02*
X0234466Y0178648D01*
X0235400Y0178181D02*
X0232598Y0178181D01*
X0232598Y0177247D02*
X0235400Y0177247D01*
X0234933Y0182673D02*
X0235400Y0183140D01*
X0235400Y0184074D01*
X0234933Y0184542D01*
X0233065Y0184542D01*
X0232598Y0184074D01*
X0232598Y0183140D01*
X0233065Y0182673D01*
X0233532Y0182673D01*
X0233999Y0183140D01*
X0233999Y0184542D01*
X0225400Y0184074D02*
X0224933Y0184542D01*
X0224466Y0184542D01*
X0223999Y0184074D01*
X0223999Y0182673D01*
X0224933Y0182673D01*
X0225400Y0183140D01*
X0225400Y0184074D01*
X0223999Y0182673D02*
X0223065Y0183607D01*
X0222598Y0184542D01*
X0222598Y0180661D02*
X0225400Y0180661D01*
X0225400Y0179727D02*
X0225400Y0181595D01*
X0223532Y0179727D02*
X0222598Y0180661D01*
X0223532Y0178648D02*
X0223532Y0178181D01*
X0223532Y0176780D01*
X0224466Y0176780D02*
X0224466Y0178648D01*
X0225400Y0178181D02*
X0222598Y0178181D01*
X0222598Y0177247D02*
X0225400Y0177247D01*
X0215400Y0177247D02*
X0212598Y0177247D01*
X0212598Y0178181D02*
X0215400Y0178181D01*
X0214466Y0178648D02*
X0214466Y0176780D01*
X0213532Y0176780D02*
X0213532Y0178181D01*
X0213532Y0178648D01*
X0213532Y0179727D02*
X0212598Y0180661D01*
X0215400Y0180661D01*
X0215400Y0179727D02*
X0215400Y0181595D01*
X0214933Y0182673D02*
X0215400Y0183140D01*
X0215400Y0184074D01*
X0214933Y0184542D01*
X0214466Y0184542D01*
X0213999Y0184074D01*
X0213999Y0183607D01*
X0213999Y0184074D02*
X0213532Y0184542D01*
X0213065Y0184542D01*
X0212598Y0184074D01*
X0212598Y0183140D01*
X0213065Y0182673D01*
X0205400Y0182673D02*
X0203532Y0184542D01*
X0203065Y0184542D01*
X0202598Y0184074D01*
X0202598Y0183140D01*
X0203065Y0182673D01*
X0202598Y0180661D02*
X0205400Y0180661D01*
X0205400Y0179727D02*
X0205400Y0181595D01*
X0205400Y0182673D02*
X0205400Y0184542D01*
X0202598Y0180661D02*
X0203532Y0179727D01*
X0203532Y0178648D02*
X0203532Y0178181D01*
X0203532Y0176780D01*
X0204466Y0176780D02*
X0204466Y0178648D01*
X0205400Y0178181D02*
X0202598Y0178181D01*
X0202598Y0177247D02*
X0205400Y0177247D01*
X0195400Y0179221D02*
X0192598Y0179221D01*
X0192598Y0180155D02*
X0195400Y0180155D01*
X0194466Y0180622D02*
X0194466Y0178753D01*
X0193532Y0178753D02*
X0193532Y0180155D01*
X0193532Y0180622D01*
X0193999Y0181700D02*
X0193065Y0182634D01*
X0192598Y0183568D01*
X0193999Y0183101D02*
X0193999Y0181700D01*
X0194933Y0181700D01*
X0195400Y0182167D01*
X0195400Y0183101D01*
X0194933Y0183568D01*
X0194466Y0183568D01*
X0193999Y0183101D01*
X0185400Y0183101D02*
X0185400Y0182167D01*
X0184933Y0181700D01*
X0183999Y0181700D02*
X0183532Y0182634D01*
X0183532Y0183101D01*
X0183999Y0183568D01*
X0184933Y0183568D01*
X0185400Y0183101D01*
X0183999Y0181700D02*
X0182598Y0181700D01*
X0182598Y0183568D01*
X0183532Y0180622D02*
X0183532Y0180155D01*
X0183532Y0178753D01*
X0184466Y0178753D02*
X0184466Y0180622D01*
X0185400Y0180155D02*
X0182598Y0180155D01*
X0182598Y0179221D02*
X0185400Y0179221D01*
X0155400Y0180194D02*
X0155400Y0181128D01*
X0154933Y0181595D01*
X0155400Y0182673D02*
X0152598Y0182673D01*
X0153065Y0181595D02*
X0152598Y0181128D01*
X0152598Y0180194D01*
X0153065Y0179727D01*
X0154933Y0179727D01*
X0155400Y0180194D01*
X0154933Y0178648D02*
X0155400Y0178181D01*
X0155400Y0177247D01*
X0154933Y0176780D01*
X0153999Y0177247D02*
X0153999Y0178181D01*
X0154466Y0178648D01*
X0154933Y0178648D01*
X0153999Y0177247D02*
X0153532Y0176780D01*
X0153065Y0176780D01*
X0152598Y0177247D01*
X0152598Y0178181D01*
X0153065Y0178648D01*
X0154466Y0182673D02*
X0152598Y0184542D01*
X0153999Y0183140D02*
X0155400Y0184542D01*
X0145400Y0184123D02*
X0145400Y0185057D01*
X0144933Y0185524D01*
X0143065Y0185524D01*
X0142598Y0185057D01*
X0142598Y0184123D01*
X0143065Y0183655D01*
X0144933Y0183655D01*
X0145400Y0184123D01*
X0144933Y0182577D02*
X0145400Y0182110D01*
X0145400Y0181176D01*
X0144933Y0180709D01*
X0143999Y0181176D02*
X0143999Y0182110D01*
X0144466Y0182577D01*
X0144933Y0182577D01*
X0143999Y0181176D02*
X0143532Y0180709D01*
X0143065Y0180709D01*
X0142598Y0181176D01*
X0142598Y0182110D01*
X0143065Y0182577D01*
X0142598Y0179679D02*
X0142598Y0178745D01*
X0142598Y0179212D02*
X0145400Y0179212D01*
X0145400Y0178745D02*
X0145400Y0179679D01*
X0145400Y0177666D02*
X0142598Y0177666D01*
X0143532Y0176732D01*
X0142598Y0175798D01*
X0145400Y0175798D01*
X0135400Y0176298D02*
X0132598Y0176298D01*
X0133532Y0177232D01*
X0132598Y0178166D01*
X0135400Y0178166D01*
X0134933Y0179245D02*
X0133065Y0179245D01*
X0132598Y0179712D01*
X0132598Y0180646D01*
X0133065Y0181113D01*
X0134933Y0181113D01*
X0135400Y0180646D01*
X0135400Y0179712D01*
X0134933Y0179245D01*
X0134933Y0182191D02*
X0135400Y0182658D01*
X0135400Y0183592D01*
X0134933Y0184059D01*
X0134466Y0184059D01*
X0133999Y0183592D01*
X0133999Y0182658D01*
X0133532Y0182191D01*
X0133065Y0182191D01*
X0132598Y0182658D01*
X0132598Y0183592D01*
X0133065Y0184059D01*
X0132598Y0185138D02*
X0132598Y0186072D01*
X0132598Y0185605D02*
X0135400Y0185605D01*
X0135400Y0185138D02*
X0135400Y0186072D01*
D13*
X0115966Y0015244D02*
X0116200Y0015010D01*
X0116200Y0014543D01*
X0115966Y0014310D01*
X0115499Y0014543D02*
X0115499Y0015010D01*
X0115733Y0015244D01*
X0115966Y0015244D01*
X0115499Y0014543D02*
X0115266Y0014310D01*
X0115032Y0014310D01*
X0114799Y0014543D01*
X0114799Y0015010D01*
X0115032Y0015244D01*
X0115032Y0013771D02*
X0114799Y0013537D01*
X0114799Y0013070D01*
X0115032Y0012837D01*
X0115966Y0012837D01*
X0116200Y0013070D01*
X0116200Y0013537D01*
X0115966Y0013771D01*
X0115966Y0012297D02*
X0115032Y0012297D01*
X0114799Y0012064D01*
X0114799Y0011363D01*
X0116200Y0011363D01*
X0116200Y0012064D01*
X0115966Y0012297D01*
X0115966Y0010824D02*
X0116200Y0010591D01*
X0116200Y0010124D01*
X0115966Y0009890D01*
X0115032Y0009890D01*
X0114799Y0010124D01*
X0114799Y0010591D01*
X0115032Y0010824D01*
X0116200Y0009351D02*
X0116200Y0008417D01*
X0114799Y0008417D01*
X0106200Y0009387D02*
X0105966Y0009153D01*
X0106200Y0009387D02*
X0106200Y0009854D01*
X0105966Y0010088D01*
X0105733Y0010088D01*
X0105499Y0009854D01*
X0105499Y0009387D01*
X0105266Y0009153D01*
X0105032Y0009153D01*
X0104799Y0009387D01*
X0104799Y0009854D01*
X0105032Y0010088D01*
X0104799Y0010627D02*
X0104799Y0011327D01*
X0105032Y0011561D01*
X0105966Y0011561D01*
X0106200Y0011327D01*
X0106200Y0010627D01*
X0104799Y0010627D01*
X0105032Y0012100D02*
X0105966Y0012100D01*
X0106200Y0012334D01*
X0106200Y0012801D01*
X0105966Y0013034D01*
X0105966Y0013573D02*
X0106200Y0013807D01*
X0106200Y0014274D01*
X0105966Y0014507D01*
X0105733Y0014507D01*
X0105499Y0014274D01*
X0105499Y0013807D01*
X0105266Y0013573D01*
X0105032Y0013573D01*
X0104799Y0013807D01*
X0104799Y0014274D01*
X0105032Y0014507D01*
X0105032Y0013034D02*
X0104799Y0012801D01*
X0104799Y0012334D01*
X0105032Y0012100D01*
D14*
X0034236Y0038283D02*
X0034236Y0073323D01*
X0034236Y0073717D02*
X0113764Y0073717D01*
X0113764Y0038283D01*
X0082661Y0038283D01*
X0082661Y0044189D01*
X0065339Y0044189D01*
X0065339Y0038283D01*
X0034236Y0038283D01*
X0051500Y0045075D02*
X0056500Y0045075D01*
X0065339Y0038283D02*
X0082661Y0038283D01*
X0083000Y0026500D02*
X0088000Y0026500D01*
X0090500Y0024000D01*
X0093000Y0026500D01*
X0098000Y0026500D01*
X0100500Y0024000D01*
X0103000Y0026500D01*
X0108000Y0026500D01*
X0110500Y0024000D01*
X0113000Y0026500D01*
X0118000Y0026500D01*
X0120500Y0024000D01*
X0123000Y0026500D01*
X0128000Y0026500D01*
X0130500Y0024000D01*
X0133000Y0026500D01*
X0138000Y0026500D01*
X0140500Y0024000D01*
X0143000Y0026500D01*
X0148000Y0026500D01*
X0150500Y0024000D01*
X0153000Y0026500D01*
X0158000Y0026500D01*
X0160500Y0024000D01*
X0160500Y0019000D01*
X0158000Y0016500D01*
X0153000Y0016500D01*
X0150500Y0019000D01*
X0148000Y0016500D01*
X0143000Y0016500D01*
X0140500Y0019000D01*
X0138000Y0016500D01*
X0133000Y0016500D01*
X0130500Y0019000D01*
X0128000Y0016500D01*
X0123000Y0016500D01*
X0120500Y0019000D01*
X0118000Y0016500D01*
X0113000Y0016500D01*
X0110500Y0019000D01*
X0108000Y0016500D01*
X0103000Y0016500D01*
X0100500Y0019000D01*
X0098000Y0016500D01*
X0093000Y0016500D01*
X0090500Y0019000D01*
X0088000Y0016500D01*
X0083000Y0016500D01*
X0080500Y0019000D01*
X0078000Y0016500D01*
X0073000Y0016500D01*
X0070500Y0019000D01*
X0068000Y0016500D01*
X0063000Y0016500D01*
X0060500Y0019000D01*
X0060500Y0024000D01*
X0063000Y0026500D01*
X0068000Y0026500D01*
X0070500Y0024000D01*
X0073000Y0026500D01*
X0078000Y0026500D01*
X0080500Y0024000D01*
X0083000Y0026500D01*
X0114236Y0038283D02*
X0114236Y0073323D01*
X0114236Y0073717D02*
X0193764Y0073717D01*
X0193764Y0038283D01*
X0162661Y0038283D01*
X0162661Y0044189D01*
X0145339Y0044189D01*
X0145339Y0038283D01*
X0114236Y0038283D01*
X0131500Y0045075D02*
X0136500Y0045075D01*
X0145339Y0038283D02*
X0162661Y0038283D01*
X0180500Y0024000D02*
X0183000Y0026500D01*
X0188000Y0026500D01*
X0190500Y0024000D01*
X0193000Y0026500D01*
X0198000Y0026500D01*
X0200500Y0024000D01*
X0203000Y0026500D01*
X0208000Y0026500D01*
X0210500Y0024000D01*
X0213000Y0026500D01*
X0218000Y0026500D01*
X0220500Y0024000D01*
X0223000Y0026500D01*
X0228000Y0026500D01*
X0230500Y0024000D01*
X0230500Y0019000D01*
X0228000Y0016500D01*
X0223000Y0016500D01*
X0220500Y0019000D01*
X0218000Y0016500D01*
X0213000Y0016500D01*
X0210500Y0019000D01*
X0208000Y0016500D01*
X0203000Y0016500D01*
X0200500Y0019000D01*
X0198000Y0016500D01*
X0193000Y0016500D01*
X0190500Y0019000D01*
X0188000Y0016500D01*
X0183000Y0016500D01*
X0180500Y0019000D01*
X0180500Y0024000D01*
X0183000Y0016500D02*
X0180500Y0014000D01*
X0180500Y0009000D01*
X0183000Y0006500D01*
X0188000Y0006500D01*
X0190500Y0009000D01*
X0193000Y0006500D01*
X0198000Y0006500D01*
X0200500Y0009000D01*
X0203000Y0006500D01*
X0208000Y0006500D01*
X0210500Y0009000D01*
X0213000Y0006500D01*
X0218000Y0006500D01*
X0220500Y0009000D01*
X0223000Y0006500D01*
X0228000Y0006500D01*
X0230500Y0009000D01*
X0230500Y0014000D01*
X0228000Y0016500D01*
X0223000Y0016500D01*
X0220500Y0014000D01*
X0218000Y0016500D01*
X0213000Y0016500D01*
X0210500Y0014000D01*
X0208000Y0016500D01*
X0203000Y0016500D01*
X0200500Y0014000D01*
X0198000Y0016500D01*
X0193000Y0016500D01*
X0190500Y0014000D01*
X0188000Y0016500D01*
X0183000Y0016500D01*
X0193764Y0088283D02*
X0162661Y0088283D01*
X0162661Y0094189D01*
X0145339Y0094189D01*
X0145339Y0088283D01*
X0114236Y0088283D01*
X0114236Y0123323D01*
X0114236Y0123717D02*
X0193764Y0123717D01*
X0193764Y0088283D01*
X0162661Y0088283D02*
X0145339Y0088283D01*
X0136500Y0095075D02*
X0131500Y0095075D01*
X0113764Y0088283D02*
X0113764Y0123717D01*
X0034236Y0123717D01*
X0034236Y0123323D02*
X0034236Y0088283D01*
X0065339Y0088283D01*
X0065339Y0094189D01*
X0082661Y0094189D01*
X0082661Y0088283D01*
X0065339Y0088283D01*
X0056500Y0095075D02*
X0051500Y0095075D01*
X0082661Y0088283D02*
X0113764Y0088283D01*
X0113764Y0138283D02*
X0082661Y0138283D01*
X0082661Y0144189D01*
X0065339Y0144189D01*
X0065339Y0138283D01*
X0034236Y0138283D01*
X0034236Y0173323D01*
X0034236Y0173717D02*
X0113764Y0173717D01*
X0113764Y0138283D01*
X0114236Y0138283D02*
X0114236Y0173323D01*
X0114236Y0173717D02*
X0193764Y0173717D01*
X0193764Y0138283D01*
X0162661Y0138283D01*
X0162661Y0144189D01*
X0145339Y0144189D01*
X0145339Y0138283D01*
X0114236Y0138283D01*
X0131500Y0145075D02*
X0136500Y0145075D01*
X0145339Y0138283D02*
X0162661Y0138283D01*
X0199000Y0158500D02*
X0201500Y0156000D01*
X0206500Y0156000D01*
X0209000Y0158500D01*
X0211500Y0156000D01*
X0216500Y0156000D01*
X0219000Y0158500D01*
X0221500Y0156000D01*
X0226500Y0156000D01*
X0229000Y0158500D01*
X0231500Y0156000D01*
X0236500Y0156000D01*
X0239000Y0158500D01*
X0241500Y0156000D01*
X0246500Y0156000D01*
X0249000Y0158500D01*
X0249000Y0163500D01*
X0246500Y0166000D01*
X0241500Y0166000D01*
X0239000Y0163500D01*
X0236500Y0166000D01*
X0231500Y0166000D01*
X0229000Y0163500D01*
X0226500Y0166000D01*
X0221500Y0166000D01*
X0219000Y0163500D01*
X0216500Y0166000D01*
X0211500Y0166000D01*
X0209000Y0163500D01*
X0206500Y0166000D01*
X0201500Y0166000D01*
X0199000Y0163500D01*
X0199000Y0158500D01*
X0201500Y0166000D02*
X0206500Y0166000D01*
X0209000Y0168500D01*
X0211500Y0166000D01*
X0216500Y0166000D01*
X0219000Y0168500D01*
X0221500Y0166000D01*
X0226500Y0166000D01*
X0229000Y0168500D01*
X0231500Y0166000D01*
X0236500Y0166000D01*
X0239000Y0168500D01*
X0241500Y0166000D01*
X0246500Y0166000D01*
X0249000Y0168500D01*
X0249000Y0173500D01*
X0246500Y0176000D01*
X0241500Y0176000D01*
X0239000Y0173500D01*
X0236500Y0176000D01*
X0231500Y0176000D01*
X0229000Y0173500D01*
X0226500Y0176000D01*
X0221500Y0176000D01*
X0219000Y0173500D01*
X0216500Y0176000D01*
X0211500Y0176000D01*
X0209000Y0173500D01*
X0206500Y0176000D01*
X0201500Y0176000D01*
X0199000Y0173500D01*
X0199000Y0168500D01*
X0201500Y0166000D01*
X0082661Y0138283D02*
X0065339Y0138283D01*
X0056500Y0145075D02*
X0051500Y0145075D01*
M02*
