G75*
%MOIN*%
%OFA0B0*%
%FSLAX25Y25*%
%IPPOS*%
%LPD*%
%AMOC8*
5,1,8,0,0,1.08239X$1,22.5*
%
%ADD10C,0.11824*%
%ADD11C,0.07400*%
%ADD12C,0.08200*%
%ADD13C,0.07500*%
D10*
X0018780Y0018780D03*
X0018780Y0211693D03*
X0247126Y0211693D03*
X0247126Y0018780D03*
D11*
X0244000Y0191000D03*
X0254000Y0191000D03*
X0234000Y0191000D03*
X0224000Y0191000D03*
X0214000Y0191000D03*
X0204000Y0191000D03*
X0194000Y0191000D03*
X0184000Y0191000D03*
X0174000Y0191000D03*
X0164000Y0191000D03*
X0154000Y0191000D03*
X0144000Y0191000D03*
X0134000Y0191000D03*
X0124000Y0191000D03*
X0114000Y0191000D03*
X0104000Y0191000D03*
X0094000Y0191000D03*
X0084000Y0191000D03*
X0074000Y0191000D03*
X0064000Y0191000D03*
X0054000Y0191000D03*
X0044000Y0191000D03*
X0034000Y0191000D03*
X0024000Y0191000D03*
X0014000Y0191000D03*
X0037953Y0206693D03*
X0047953Y0206693D03*
X0057953Y0206693D03*
X0067953Y0206693D03*
X0077953Y0206693D03*
X0087953Y0206693D03*
X0097953Y0206693D03*
X0107953Y0206693D03*
X0117953Y0206693D03*
X0127953Y0206693D03*
X0137953Y0206693D03*
X0147953Y0206693D03*
X0157953Y0206693D03*
X0167953Y0206693D03*
X0177953Y0206693D03*
X0187953Y0206693D03*
X0197953Y0206693D03*
X0207953Y0206693D03*
X0217953Y0206693D03*
X0227953Y0206693D03*
X0227953Y0216693D03*
X0217953Y0216693D03*
X0207953Y0216693D03*
X0197953Y0216693D03*
X0187953Y0216693D03*
X0177953Y0216693D03*
X0167953Y0216693D03*
X0157953Y0216693D03*
X0147953Y0216693D03*
X0137953Y0216693D03*
X0127953Y0216693D03*
X0117953Y0216693D03*
X0107953Y0216693D03*
X0097953Y0216693D03*
X0087953Y0216693D03*
X0077953Y0216693D03*
X0067953Y0216693D03*
X0057953Y0216693D03*
X0047953Y0216693D03*
X0037953Y0216693D03*
D12*
X0054000Y0161000D03*
X0054000Y0151000D03*
X0064000Y0151000D03*
X0064000Y0161000D03*
X0074000Y0161000D03*
X0074000Y0151000D03*
X0084000Y0151000D03*
X0094000Y0151000D03*
X0094000Y0161000D03*
X0084000Y0161000D03*
X0134000Y0161000D03*
X0144000Y0161000D03*
X0144000Y0151000D03*
X0134000Y0151000D03*
X0154000Y0151000D03*
X0154000Y0161000D03*
X0164000Y0161000D03*
X0164000Y0151000D03*
X0174000Y0151000D03*
X0174000Y0161000D03*
X0204000Y0161000D03*
X0204000Y0171000D03*
X0214000Y0171000D03*
X0214000Y0161000D03*
X0224000Y0161000D03*
X0224000Y0171000D03*
X0234000Y0171000D03*
X0234000Y0161000D03*
X0244000Y0161000D03*
X0244000Y0171000D03*
X0204000Y0131000D03*
X0204000Y0121000D03*
X0204000Y0111000D03*
X0204000Y0101000D03*
X0204000Y0091000D03*
X0204000Y0081000D03*
X0204000Y0071000D03*
X0204000Y0061000D03*
X0174000Y0061000D03*
X0174000Y0051000D03*
X0164000Y0051000D03*
X0164000Y0061000D03*
X0154000Y0061000D03*
X0154000Y0051000D03*
X0144000Y0051000D03*
X0134000Y0051000D03*
X0134000Y0061000D03*
X0144000Y0061000D03*
X0145500Y0022000D03*
X0135500Y0021000D03*
X0125500Y0022000D03*
X0115500Y0021000D03*
X0105500Y0022000D03*
X0095500Y0021000D03*
X0085500Y0022000D03*
X0075500Y0021000D03*
X0065500Y0022000D03*
X0064000Y0051000D03*
X0064000Y0061000D03*
X0054000Y0061000D03*
X0054000Y0051000D03*
X0074000Y0051000D03*
X0074000Y0061000D03*
X0084000Y0061000D03*
X0094000Y0061000D03*
X0094000Y0051000D03*
X0084000Y0051000D03*
X0084000Y0101000D03*
X0094000Y0101000D03*
X0094000Y0111000D03*
X0084000Y0111000D03*
X0074000Y0111000D03*
X0074000Y0101000D03*
X0064000Y0101000D03*
X0064000Y0111000D03*
X0054000Y0111000D03*
X0054000Y0101000D03*
X0134000Y0101000D03*
X0144000Y0101000D03*
X0144000Y0111000D03*
X0134000Y0111000D03*
X0154000Y0111000D03*
X0154000Y0101000D03*
X0164000Y0101000D03*
X0164000Y0111000D03*
X0174000Y0111000D03*
X0174000Y0101000D03*
X0254000Y0101000D03*
X0254000Y0111000D03*
X0254000Y0091000D03*
X0254000Y0081000D03*
X0254000Y0071000D03*
X0254000Y0061000D03*
X0254000Y0051000D03*
X0254000Y0041000D03*
X0225500Y0021500D03*
X0225500Y0011500D03*
X0215500Y0011500D03*
X0215500Y0021500D03*
X0205500Y0021500D03*
X0205500Y0011500D03*
X0195500Y0011500D03*
X0195500Y0021500D03*
X0185500Y0021500D03*
X0185500Y0011500D03*
X0155500Y0021000D03*
D13*
X0244000Y0041000D03*
X0244000Y0051000D03*
X0244000Y0061000D03*
X0244000Y0071000D03*
X0244000Y0081000D03*
X0244000Y0091000D03*
X0244000Y0101000D03*
X0244000Y0111000D03*
X0244000Y0121000D03*
X0244000Y0131000D03*
X0244000Y0141000D03*
M02*
