G04 MADE WITH FRITZING*
G04 WWW.FRITZING.ORG*
G04 DOUBLE SIDED*
G04 HOLES PLATED*
G04 CONTOUR ON CENTER OF CONTOUR VECTOR*
%ASAXBY*%
%FSLAX23Y23*%
%MOIN*%
%OFA0B0*%
%SFA1.0B1.0*%
%ADD10C,0.008000*%
%ADD11C,0.010000*%
%ADD12R,0.001000X0.001000*%
%LNSILK1*%
G90*
G70*
G54D10*
X420Y167D02*
X357Y167D01*
D02*
X357Y246D02*
X420Y246D01*
G54D11*
D02*
X39Y793D02*
X39Y193D01*
D02*
X39Y193D02*
X139Y193D01*
D02*
X139Y193D02*
X139Y793D01*
D02*
X139Y793D02*
X39Y793D01*
D02*
X1063Y793D02*
X1063Y193D01*
D02*
X1063Y193D02*
X1163Y193D01*
D02*
X1163Y193D02*
X1163Y793D01*
D02*
X1163Y793D02*
X1063Y793D01*
G54D10*
D02*
X227Y482D02*
X290Y482D01*
D02*
X290Y403D02*
X227Y403D01*
D02*
X227Y584D02*
X290Y584D01*
D02*
X290Y506D02*
X227Y506D01*
D02*
X227Y683D02*
X290Y683D01*
D02*
X290Y604D02*
X227Y604D01*
G54D12*
X0Y966D02*
X1199Y966D01*
X0Y965D02*
X1199Y965D01*
X0Y964D02*
X1199Y964D01*
X0Y963D02*
X1199Y963D01*
X0Y962D02*
X1199Y962D01*
X0Y961D02*
X1199Y961D01*
X0Y960D02*
X1199Y960D01*
X0Y959D02*
X1199Y959D01*
X0Y958D02*
X7Y958D01*
X1192Y958D02*
X1199Y958D01*
X0Y957D02*
X7Y957D01*
X1192Y957D02*
X1199Y957D01*
X0Y956D02*
X7Y956D01*
X1192Y956D02*
X1199Y956D01*
X0Y955D02*
X7Y955D01*
X1192Y955D02*
X1199Y955D01*
X0Y954D02*
X7Y954D01*
X1192Y954D02*
X1199Y954D01*
X0Y953D02*
X7Y953D01*
X1192Y953D02*
X1199Y953D01*
X0Y952D02*
X7Y952D01*
X1192Y952D02*
X1199Y952D01*
X0Y951D02*
X7Y951D01*
X1192Y951D02*
X1199Y951D01*
X0Y950D02*
X7Y950D01*
X1192Y950D02*
X1199Y950D01*
X0Y949D02*
X7Y949D01*
X1192Y949D02*
X1199Y949D01*
X0Y948D02*
X7Y948D01*
X1192Y948D02*
X1199Y948D01*
X0Y947D02*
X7Y947D01*
X1192Y947D02*
X1199Y947D01*
X0Y946D02*
X7Y946D01*
X1192Y946D02*
X1199Y946D01*
X0Y945D02*
X7Y945D01*
X1192Y945D02*
X1199Y945D01*
X0Y944D02*
X7Y944D01*
X1192Y944D02*
X1199Y944D01*
X0Y943D02*
X7Y943D01*
X1192Y943D02*
X1199Y943D01*
X0Y942D02*
X7Y942D01*
X1192Y942D02*
X1199Y942D01*
X0Y941D02*
X7Y941D01*
X1192Y941D02*
X1199Y941D01*
X0Y940D02*
X7Y940D01*
X1192Y940D02*
X1199Y940D01*
X0Y939D02*
X7Y939D01*
X1192Y939D02*
X1199Y939D01*
X0Y938D02*
X7Y938D01*
X1192Y938D02*
X1199Y938D01*
X0Y937D02*
X7Y937D01*
X1192Y937D02*
X1199Y937D01*
X0Y936D02*
X7Y936D01*
X1192Y936D02*
X1199Y936D01*
X0Y935D02*
X7Y935D01*
X1192Y935D02*
X1199Y935D01*
X0Y934D02*
X7Y934D01*
X1192Y934D02*
X1199Y934D01*
X0Y933D02*
X7Y933D01*
X1192Y933D02*
X1199Y933D01*
X0Y932D02*
X7Y932D01*
X1192Y932D02*
X1199Y932D01*
X0Y931D02*
X7Y931D01*
X1192Y931D02*
X1199Y931D01*
X0Y930D02*
X7Y930D01*
X1192Y930D02*
X1199Y930D01*
X0Y929D02*
X7Y929D01*
X1192Y929D02*
X1199Y929D01*
X0Y928D02*
X7Y928D01*
X1192Y928D02*
X1199Y928D01*
X0Y927D02*
X7Y927D01*
X1192Y927D02*
X1199Y927D01*
X0Y926D02*
X7Y926D01*
X1192Y926D02*
X1199Y926D01*
X0Y925D02*
X7Y925D01*
X1192Y925D02*
X1199Y925D01*
X0Y924D02*
X7Y924D01*
X1192Y924D02*
X1199Y924D01*
X0Y923D02*
X7Y923D01*
X1192Y923D02*
X1199Y923D01*
X0Y922D02*
X7Y922D01*
X1192Y922D02*
X1199Y922D01*
X0Y921D02*
X7Y921D01*
X1192Y921D02*
X1199Y921D01*
X0Y920D02*
X7Y920D01*
X1192Y920D02*
X1199Y920D01*
X0Y919D02*
X7Y919D01*
X1192Y919D02*
X1199Y919D01*
X0Y918D02*
X7Y918D01*
X1192Y918D02*
X1199Y918D01*
X0Y917D02*
X7Y917D01*
X1192Y917D02*
X1199Y917D01*
X0Y916D02*
X7Y916D01*
X1192Y916D02*
X1199Y916D01*
X0Y915D02*
X7Y915D01*
X1192Y915D02*
X1199Y915D01*
X0Y914D02*
X7Y914D01*
X1192Y914D02*
X1199Y914D01*
X0Y913D02*
X7Y913D01*
X1192Y913D02*
X1199Y913D01*
X0Y912D02*
X7Y912D01*
X1192Y912D02*
X1199Y912D01*
X0Y911D02*
X7Y911D01*
X1192Y911D02*
X1199Y911D01*
X0Y910D02*
X7Y910D01*
X1192Y910D02*
X1199Y910D01*
X0Y909D02*
X7Y909D01*
X1192Y909D02*
X1199Y909D01*
X0Y908D02*
X7Y908D01*
X1192Y908D02*
X1199Y908D01*
X0Y907D02*
X7Y907D01*
X1192Y907D02*
X1199Y907D01*
X0Y906D02*
X7Y906D01*
X1192Y906D02*
X1199Y906D01*
X0Y905D02*
X7Y905D01*
X1192Y905D02*
X1199Y905D01*
X0Y904D02*
X7Y904D01*
X1192Y904D02*
X1199Y904D01*
X0Y903D02*
X7Y903D01*
X1192Y903D02*
X1199Y903D01*
X0Y902D02*
X7Y902D01*
X1192Y902D02*
X1199Y902D01*
X0Y901D02*
X7Y901D01*
X1192Y901D02*
X1199Y901D01*
X0Y900D02*
X7Y900D01*
X1192Y900D02*
X1199Y900D01*
X0Y899D02*
X7Y899D01*
X1192Y899D02*
X1199Y899D01*
X0Y898D02*
X7Y898D01*
X1192Y898D02*
X1199Y898D01*
X0Y897D02*
X7Y897D01*
X1192Y897D02*
X1199Y897D01*
X0Y896D02*
X7Y896D01*
X1192Y896D02*
X1199Y896D01*
X0Y895D02*
X7Y895D01*
X1192Y895D02*
X1199Y895D01*
X0Y894D02*
X7Y894D01*
X1192Y894D02*
X1199Y894D01*
X0Y893D02*
X7Y893D01*
X1192Y893D02*
X1199Y893D01*
X0Y892D02*
X7Y892D01*
X1192Y892D02*
X1199Y892D01*
X0Y891D02*
X7Y891D01*
X1192Y891D02*
X1199Y891D01*
X0Y890D02*
X7Y890D01*
X1192Y890D02*
X1199Y890D01*
X0Y889D02*
X7Y889D01*
X1192Y889D02*
X1199Y889D01*
X0Y888D02*
X7Y888D01*
X1192Y888D02*
X1199Y888D01*
X0Y887D02*
X7Y887D01*
X1192Y887D02*
X1199Y887D01*
X0Y886D02*
X7Y886D01*
X1192Y886D02*
X1199Y886D01*
X0Y885D02*
X7Y885D01*
X1192Y885D02*
X1199Y885D01*
X0Y884D02*
X7Y884D01*
X1192Y884D02*
X1199Y884D01*
X0Y883D02*
X7Y883D01*
X1192Y883D02*
X1199Y883D01*
X0Y882D02*
X7Y882D01*
X1192Y882D02*
X1199Y882D01*
X0Y881D02*
X7Y881D01*
X1192Y881D02*
X1199Y881D01*
X0Y880D02*
X7Y880D01*
X1192Y880D02*
X1199Y880D01*
X0Y879D02*
X7Y879D01*
X1192Y879D02*
X1199Y879D01*
X0Y878D02*
X7Y878D01*
X1192Y878D02*
X1199Y878D01*
X0Y877D02*
X7Y877D01*
X1192Y877D02*
X1199Y877D01*
X0Y876D02*
X7Y876D01*
X1192Y876D02*
X1199Y876D01*
X0Y875D02*
X7Y875D01*
X1192Y875D02*
X1199Y875D01*
X0Y874D02*
X7Y874D01*
X1192Y874D02*
X1199Y874D01*
X0Y873D02*
X7Y873D01*
X1192Y873D02*
X1199Y873D01*
X0Y872D02*
X7Y872D01*
X1192Y872D02*
X1199Y872D01*
X0Y871D02*
X7Y871D01*
X1192Y871D02*
X1199Y871D01*
X0Y870D02*
X7Y870D01*
X1192Y870D02*
X1199Y870D01*
X0Y869D02*
X7Y869D01*
X1192Y869D02*
X1199Y869D01*
X0Y868D02*
X7Y868D01*
X1192Y868D02*
X1199Y868D01*
X0Y867D02*
X7Y867D01*
X1192Y867D02*
X1199Y867D01*
X0Y866D02*
X7Y866D01*
X1192Y866D02*
X1199Y866D01*
X0Y865D02*
X7Y865D01*
X1192Y865D02*
X1199Y865D01*
X0Y864D02*
X7Y864D01*
X1192Y864D02*
X1199Y864D01*
X0Y863D02*
X7Y863D01*
X1192Y863D02*
X1199Y863D01*
X0Y862D02*
X7Y862D01*
X1192Y862D02*
X1199Y862D01*
X0Y861D02*
X7Y861D01*
X1192Y861D02*
X1199Y861D01*
X0Y860D02*
X7Y860D01*
X1192Y860D02*
X1199Y860D01*
X0Y859D02*
X7Y859D01*
X1192Y859D02*
X1199Y859D01*
X0Y858D02*
X7Y858D01*
X1192Y858D02*
X1199Y858D01*
X0Y857D02*
X7Y857D01*
X1192Y857D02*
X1199Y857D01*
X0Y856D02*
X7Y856D01*
X1192Y856D02*
X1199Y856D01*
X0Y855D02*
X7Y855D01*
X1192Y855D02*
X1199Y855D01*
X0Y854D02*
X7Y854D01*
X1192Y854D02*
X1199Y854D01*
X0Y853D02*
X7Y853D01*
X1192Y853D02*
X1199Y853D01*
X0Y852D02*
X7Y852D01*
X1192Y852D02*
X1199Y852D01*
X0Y851D02*
X7Y851D01*
X1192Y851D02*
X1199Y851D01*
X0Y850D02*
X7Y850D01*
X1192Y850D02*
X1199Y850D01*
X0Y849D02*
X7Y849D01*
X1192Y849D02*
X1199Y849D01*
X0Y848D02*
X7Y848D01*
X1192Y848D02*
X1199Y848D01*
X0Y847D02*
X7Y847D01*
X1192Y847D02*
X1199Y847D01*
X0Y846D02*
X7Y846D01*
X1192Y846D02*
X1199Y846D01*
X0Y845D02*
X7Y845D01*
X1192Y845D02*
X1199Y845D01*
X0Y844D02*
X7Y844D01*
X1192Y844D02*
X1199Y844D01*
X0Y843D02*
X7Y843D01*
X1192Y843D02*
X1199Y843D01*
X0Y842D02*
X7Y842D01*
X1192Y842D02*
X1199Y842D01*
X0Y841D02*
X7Y841D01*
X1192Y841D02*
X1199Y841D01*
X0Y840D02*
X7Y840D01*
X1192Y840D02*
X1199Y840D01*
X0Y839D02*
X7Y839D01*
X1192Y839D02*
X1199Y839D01*
X0Y838D02*
X7Y838D01*
X1192Y838D02*
X1199Y838D01*
X0Y837D02*
X7Y837D01*
X1192Y837D02*
X1199Y837D01*
X0Y836D02*
X7Y836D01*
X1192Y836D02*
X1199Y836D01*
X0Y835D02*
X7Y835D01*
X1192Y835D02*
X1199Y835D01*
X0Y834D02*
X7Y834D01*
X1192Y834D02*
X1199Y834D01*
X0Y833D02*
X7Y833D01*
X1192Y833D02*
X1199Y833D01*
X0Y832D02*
X7Y832D01*
X1192Y832D02*
X1199Y832D01*
X0Y831D02*
X7Y831D01*
X1192Y831D02*
X1199Y831D01*
X0Y830D02*
X7Y830D01*
X1192Y830D02*
X1199Y830D01*
X0Y829D02*
X7Y829D01*
X1192Y829D02*
X1199Y829D01*
X0Y828D02*
X7Y828D01*
X1192Y828D02*
X1199Y828D01*
X0Y827D02*
X7Y827D01*
X1192Y827D02*
X1199Y827D01*
X0Y826D02*
X7Y826D01*
X1192Y826D02*
X1199Y826D01*
X0Y825D02*
X7Y825D01*
X1192Y825D02*
X1199Y825D01*
X0Y824D02*
X7Y824D01*
X1192Y824D02*
X1199Y824D01*
X0Y823D02*
X7Y823D01*
X1192Y823D02*
X1199Y823D01*
X0Y822D02*
X7Y822D01*
X1192Y822D02*
X1199Y822D01*
X0Y821D02*
X7Y821D01*
X1192Y821D02*
X1199Y821D01*
X0Y820D02*
X7Y820D01*
X1192Y820D02*
X1199Y820D01*
X0Y819D02*
X7Y819D01*
X1192Y819D02*
X1199Y819D01*
X0Y818D02*
X7Y818D01*
X1192Y818D02*
X1199Y818D01*
X0Y817D02*
X7Y817D01*
X1192Y817D02*
X1199Y817D01*
X0Y816D02*
X7Y816D01*
X1192Y816D02*
X1199Y816D01*
X0Y815D02*
X7Y815D01*
X1192Y815D02*
X1199Y815D01*
X0Y814D02*
X7Y814D01*
X1192Y814D02*
X1199Y814D01*
X0Y813D02*
X7Y813D01*
X1192Y813D02*
X1199Y813D01*
X0Y812D02*
X7Y812D01*
X1192Y812D02*
X1199Y812D01*
X0Y811D02*
X7Y811D01*
X1192Y811D02*
X1199Y811D01*
X0Y810D02*
X7Y810D01*
X1192Y810D02*
X1199Y810D01*
X0Y809D02*
X7Y809D01*
X1192Y809D02*
X1199Y809D01*
X0Y808D02*
X7Y808D01*
X1192Y808D02*
X1199Y808D01*
X0Y807D02*
X7Y807D01*
X1192Y807D02*
X1199Y807D01*
X0Y806D02*
X7Y806D01*
X1192Y806D02*
X1199Y806D01*
X0Y805D02*
X7Y805D01*
X1192Y805D02*
X1199Y805D01*
X0Y804D02*
X7Y804D01*
X1192Y804D02*
X1199Y804D01*
X0Y803D02*
X7Y803D01*
X1192Y803D02*
X1199Y803D01*
X0Y802D02*
X7Y802D01*
X1192Y802D02*
X1199Y802D01*
X0Y801D02*
X7Y801D01*
X1192Y801D02*
X1199Y801D01*
X0Y800D02*
X7Y800D01*
X1192Y800D02*
X1199Y800D01*
X0Y799D02*
X7Y799D01*
X1192Y799D02*
X1199Y799D01*
X0Y798D02*
X7Y798D01*
X1192Y798D02*
X1199Y798D01*
X0Y797D02*
X7Y797D01*
X1192Y797D02*
X1199Y797D01*
X0Y796D02*
X7Y796D01*
X1192Y796D02*
X1199Y796D01*
X0Y795D02*
X7Y795D01*
X1192Y795D02*
X1199Y795D01*
X0Y794D02*
X7Y794D01*
X72Y794D02*
X72Y794D01*
X1095Y794D02*
X1095Y794D01*
X1192Y794D02*
X1199Y794D01*
X0Y793D02*
X7Y793D01*
X71Y793D02*
X73Y793D01*
X1094Y793D02*
X1096Y793D01*
X1192Y793D02*
X1199Y793D01*
X0Y792D02*
X7Y792D01*
X70Y792D02*
X74Y792D01*
X1093Y792D02*
X1097Y792D01*
X1192Y792D02*
X1199Y792D01*
X0Y791D02*
X7Y791D01*
X69Y791D02*
X75Y791D01*
X1092Y791D02*
X1098Y791D01*
X1192Y791D02*
X1199Y791D01*
X0Y790D02*
X7Y790D01*
X68Y790D02*
X74Y790D01*
X1091Y790D02*
X1097Y790D01*
X1192Y790D02*
X1199Y790D01*
X0Y789D02*
X7Y789D01*
X67Y789D02*
X73Y789D01*
X1090Y789D02*
X1096Y789D01*
X1192Y789D02*
X1199Y789D01*
X0Y788D02*
X7Y788D01*
X66Y788D02*
X72Y788D01*
X1089Y788D02*
X1095Y788D01*
X1192Y788D02*
X1199Y788D01*
X0Y787D02*
X7Y787D01*
X65Y787D02*
X71Y787D01*
X1088Y787D02*
X1094Y787D01*
X1192Y787D02*
X1199Y787D01*
X0Y786D02*
X7Y786D01*
X64Y786D02*
X70Y786D01*
X1087Y786D02*
X1093Y786D01*
X1192Y786D02*
X1199Y786D01*
X0Y785D02*
X7Y785D01*
X63Y785D02*
X69Y785D01*
X1086Y785D02*
X1092Y785D01*
X1192Y785D02*
X1199Y785D01*
X0Y784D02*
X7Y784D01*
X62Y784D02*
X68Y784D01*
X1085Y784D02*
X1091Y784D01*
X1192Y784D02*
X1199Y784D01*
X0Y783D02*
X7Y783D01*
X61Y783D02*
X67Y783D01*
X1084Y783D02*
X1090Y783D01*
X1192Y783D02*
X1199Y783D01*
X0Y782D02*
X7Y782D01*
X60Y782D02*
X66Y782D01*
X1083Y782D02*
X1089Y782D01*
X1192Y782D02*
X1199Y782D01*
X0Y781D02*
X7Y781D01*
X59Y781D02*
X65Y781D01*
X1082Y781D02*
X1088Y781D01*
X1192Y781D02*
X1199Y781D01*
X0Y780D02*
X7Y780D01*
X58Y780D02*
X64Y780D01*
X1081Y780D02*
X1087Y780D01*
X1192Y780D02*
X1199Y780D01*
X0Y779D02*
X7Y779D01*
X57Y779D02*
X63Y779D01*
X1080Y779D02*
X1086Y779D01*
X1192Y779D02*
X1199Y779D01*
X0Y778D02*
X7Y778D01*
X56Y778D02*
X62Y778D01*
X1079Y778D02*
X1085Y778D01*
X1192Y778D02*
X1199Y778D01*
X0Y777D02*
X7Y777D01*
X55Y777D02*
X61Y777D01*
X1078Y777D02*
X1084Y777D01*
X1192Y777D02*
X1199Y777D01*
X0Y776D02*
X7Y776D01*
X54Y776D02*
X59Y776D01*
X1077Y776D02*
X1082Y776D01*
X1192Y776D02*
X1199Y776D01*
X0Y775D02*
X7Y775D01*
X53Y775D02*
X58Y775D01*
X1076Y775D02*
X1081Y775D01*
X1192Y775D02*
X1199Y775D01*
X0Y774D02*
X7Y774D01*
X52Y774D02*
X57Y774D01*
X1075Y774D02*
X1080Y774D01*
X1192Y774D02*
X1199Y774D01*
X0Y773D02*
X7Y773D01*
X51Y773D02*
X56Y773D01*
X1074Y773D02*
X1079Y773D01*
X1192Y773D02*
X1199Y773D01*
X0Y772D02*
X7Y772D01*
X50Y772D02*
X55Y772D01*
X1073Y772D02*
X1078Y772D01*
X1192Y772D02*
X1199Y772D01*
X0Y771D02*
X7Y771D01*
X49Y771D02*
X55Y771D01*
X1072Y771D02*
X1077Y771D01*
X1192Y771D02*
X1199Y771D01*
X0Y770D02*
X7Y770D01*
X48Y770D02*
X54Y770D01*
X1071Y770D02*
X1077Y770D01*
X1192Y770D02*
X1199Y770D01*
X0Y769D02*
X7Y769D01*
X47Y769D02*
X53Y769D01*
X1070Y769D02*
X1076Y769D01*
X1192Y769D02*
X1199Y769D01*
X0Y768D02*
X7Y768D01*
X46Y768D02*
X52Y768D01*
X1069Y768D02*
X1075Y768D01*
X1192Y768D02*
X1199Y768D01*
X0Y767D02*
X7Y767D01*
X45Y767D02*
X51Y767D01*
X1068Y767D02*
X1074Y767D01*
X1192Y767D02*
X1199Y767D01*
X0Y766D02*
X7Y766D01*
X44Y766D02*
X50Y766D01*
X1067Y766D02*
X1073Y766D01*
X1192Y766D02*
X1199Y766D01*
X0Y765D02*
X7Y765D01*
X43Y765D02*
X49Y765D01*
X1066Y765D02*
X1072Y765D01*
X1192Y765D02*
X1199Y765D01*
X0Y764D02*
X7Y764D01*
X42Y764D02*
X48Y764D01*
X1065Y764D02*
X1071Y764D01*
X1192Y764D02*
X1199Y764D01*
X0Y763D02*
X7Y763D01*
X41Y763D02*
X47Y763D01*
X1064Y763D02*
X1070Y763D01*
X1192Y763D02*
X1199Y763D01*
X0Y762D02*
X7Y762D01*
X40Y762D02*
X46Y762D01*
X1063Y762D02*
X1069Y762D01*
X1192Y762D02*
X1199Y762D01*
X0Y761D02*
X7Y761D01*
X39Y761D02*
X45Y761D01*
X1062Y761D02*
X1068Y761D01*
X1192Y761D02*
X1199Y761D01*
X0Y760D02*
X7Y760D01*
X38Y760D02*
X44Y760D01*
X1061Y760D02*
X1067Y760D01*
X1192Y760D02*
X1199Y760D01*
X0Y759D02*
X7Y759D01*
X38Y759D02*
X43Y759D01*
X1061Y759D02*
X1066Y759D01*
X1192Y759D02*
X1199Y759D01*
X0Y758D02*
X7Y758D01*
X39Y758D02*
X42Y758D01*
X1062Y758D02*
X1065Y758D01*
X1192Y758D02*
X1199Y758D01*
X0Y757D02*
X7Y757D01*
X40Y757D02*
X41Y757D01*
X975Y757D02*
X986Y757D01*
X1003Y757D02*
X1011Y757D01*
X1021Y757D02*
X1022Y757D01*
X1063Y757D02*
X1064Y757D01*
X1192Y757D02*
X1199Y757D01*
X0Y756D02*
X7Y756D01*
X163Y756D02*
X172Y756D01*
X191Y756D02*
X198Y756D01*
X209Y756D02*
X209Y756D01*
X974Y756D02*
X987Y756D01*
X1002Y756D02*
X1012Y756D01*
X1020Y756D02*
X1022Y756D01*
X1192Y756D02*
X1199Y756D01*
X0Y755D02*
X7Y755D01*
X162Y755D02*
X174Y755D01*
X189Y755D02*
X199Y755D01*
X208Y755D02*
X210Y755D01*
X973Y755D02*
X988Y755D01*
X1001Y755D02*
X1012Y755D01*
X1020Y755D02*
X1022Y755D01*
X1192Y755D02*
X1199Y755D01*
X0Y754D02*
X7Y754D01*
X161Y754D02*
X175Y754D01*
X189Y754D02*
X199Y754D01*
X208Y754D02*
X210Y754D01*
X973Y754D02*
X976Y754D01*
X985Y754D02*
X988Y754D01*
X1000Y754D02*
X1004Y754D01*
X1020Y754D02*
X1022Y754D01*
X1192Y754D02*
X1199Y754D01*
X0Y753D02*
X7Y753D01*
X161Y753D02*
X176Y753D01*
X188Y753D02*
X198Y753D01*
X208Y753D02*
X210Y753D01*
X973Y753D02*
X976Y753D01*
X986Y753D02*
X988Y753D01*
X1000Y753D02*
X1002Y753D01*
X1020Y753D02*
X1022Y753D01*
X1192Y753D02*
X1199Y753D01*
X0Y752D02*
X7Y752D01*
X161Y752D02*
X163Y752D01*
X173Y752D02*
X176Y752D01*
X187Y752D02*
X190Y752D01*
X208Y752D02*
X210Y752D01*
X973Y752D02*
X976Y752D01*
X986Y752D02*
X988Y752D01*
X999Y752D02*
X1002Y752D01*
X1020Y752D02*
X1022Y752D01*
X1192Y752D02*
X1199Y752D01*
X0Y751D02*
X7Y751D01*
X161Y751D02*
X164Y751D01*
X174Y751D02*
X176Y751D01*
X187Y751D02*
X190Y751D01*
X208Y751D02*
X210Y751D01*
X974Y751D02*
X977Y751D01*
X999Y751D02*
X1001Y751D01*
X1020Y751D02*
X1022Y751D01*
X1192Y751D02*
X1199Y751D01*
X0Y750D02*
X7Y750D01*
X161Y750D02*
X165Y750D01*
X186Y750D02*
X189Y750D01*
X208Y750D02*
X210Y750D01*
X975Y750D02*
X978Y750D01*
X998Y750D02*
X1001Y750D01*
X1020Y750D02*
X1022Y750D01*
X1192Y750D02*
X1199Y750D01*
X0Y749D02*
X7Y749D01*
X162Y749D02*
X165Y749D01*
X186Y749D02*
X189Y749D01*
X208Y749D02*
X210Y749D01*
X975Y749D02*
X979Y749D01*
X998Y749D02*
X1000Y749D01*
X1020Y749D02*
X1022Y749D01*
X1192Y749D02*
X1199Y749D01*
X0Y748D02*
X7Y748D01*
X163Y748D02*
X166Y748D01*
X185Y748D02*
X188Y748D01*
X208Y748D02*
X210Y748D01*
X976Y748D02*
X979Y748D01*
X997Y748D02*
X1000Y748D01*
X1020Y748D02*
X1022Y748D01*
X1192Y748D02*
X1199Y748D01*
X0Y747D02*
X7Y747D01*
X164Y747D02*
X167Y747D01*
X185Y747D02*
X188Y747D01*
X208Y747D02*
X210Y747D01*
X977Y747D02*
X980Y747D01*
X997Y747D02*
X999Y747D01*
X1020Y747D02*
X1022Y747D01*
X1192Y747D02*
X1199Y747D01*
X0Y746D02*
X7Y746D01*
X164Y746D02*
X168Y746D01*
X185Y746D02*
X187Y746D01*
X208Y746D02*
X210Y746D01*
X978Y746D02*
X981Y746D01*
X997Y746D02*
X999Y746D01*
X1020Y746D02*
X1022Y746D01*
X1192Y746D02*
X1199Y746D01*
X0Y745D02*
X7Y745D01*
X165Y745D02*
X169Y745D01*
X184Y745D02*
X187Y745D01*
X208Y745D02*
X210Y745D01*
X979Y745D02*
X982Y745D01*
X996Y745D02*
X999Y745D01*
X1020Y745D02*
X1022Y745D01*
X1192Y745D02*
X1199Y745D01*
X0Y744D02*
X7Y744D01*
X166Y744D02*
X169Y744D01*
X184Y744D02*
X187Y744D01*
X208Y744D02*
X210Y744D01*
X979Y744D02*
X983Y744D01*
X997Y744D02*
X999Y744D01*
X1020Y744D02*
X1022Y744D01*
X1192Y744D02*
X1199Y744D01*
X0Y743D02*
X7Y743D01*
X167Y743D02*
X170Y743D01*
X184Y743D02*
X187Y743D01*
X208Y743D02*
X210Y743D01*
X980Y743D02*
X983Y743D01*
X997Y743D02*
X999Y743D01*
X1020Y743D02*
X1022Y743D01*
X1192Y743D02*
X1199Y743D01*
X0Y742D02*
X7Y742D01*
X168Y742D02*
X171Y742D01*
X184Y742D02*
X187Y742D01*
X208Y742D02*
X210Y742D01*
X981Y742D02*
X984Y742D01*
X997Y742D02*
X1000Y742D01*
X1020Y742D02*
X1022Y742D01*
X1192Y742D02*
X1199Y742D01*
X0Y741D02*
X7Y741D01*
X168Y741D02*
X172Y741D01*
X185Y741D02*
X187Y741D01*
X208Y741D02*
X210Y741D01*
X982Y741D02*
X985Y741D01*
X997Y741D02*
X1000Y741D01*
X1020Y741D02*
X1022Y741D01*
X1192Y741D02*
X1199Y741D01*
X0Y740D02*
X7Y740D01*
X169Y740D02*
X172Y740D01*
X185Y740D02*
X188Y740D01*
X208Y740D02*
X210Y740D01*
X982Y740D02*
X986Y740D01*
X998Y740D02*
X1001Y740D01*
X1020Y740D02*
X1022Y740D01*
X1192Y740D02*
X1199Y740D01*
X0Y739D02*
X7Y739D01*
X170Y739D02*
X173Y739D01*
X185Y739D02*
X188Y739D01*
X208Y739D02*
X210Y739D01*
X983Y739D02*
X986Y739D01*
X998Y739D02*
X1001Y739D01*
X1020Y739D02*
X1022Y739D01*
X1192Y739D02*
X1199Y739D01*
X0Y738D02*
X7Y738D01*
X171Y738D02*
X174Y738D01*
X186Y738D02*
X189Y738D01*
X208Y738D02*
X210Y738D01*
X984Y738D02*
X987Y738D01*
X999Y738D02*
X1002Y738D01*
X1020Y738D02*
X1022Y738D01*
X1192Y738D02*
X1199Y738D01*
X0Y737D02*
X7Y737D01*
X171Y737D02*
X175Y737D01*
X186Y737D02*
X189Y737D01*
X208Y737D02*
X210Y737D01*
X973Y737D02*
X975Y737D01*
X985Y737D02*
X988Y737D01*
X999Y737D02*
X1002Y737D01*
X1020Y737D02*
X1022Y737D01*
X1192Y737D02*
X1199Y737D01*
X0Y736D02*
X7Y736D01*
X161Y736D02*
X162Y736D01*
X172Y736D02*
X175Y736D01*
X187Y736D02*
X190Y736D01*
X208Y736D02*
X210Y736D01*
X973Y736D02*
X975Y736D01*
X986Y736D02*
X988Y736D01*
X1000Y736D02*
X1003Y736D01*
X1020Y736D02*
X1022Y736D01*
X1192Y736D02*
X1199Y736D01*
X0Y735D02*
X7Y735D01*
X161Y735D02*
X163Y735D01*
X173Y735D02*
X176Y735D01*
X187Y735D02*
X190Y735D01*
X208Y735D02*
X210Y735D01*
X973Y735D02*
X988Y735D01*
X1000Y735D02*
X1011Y735D01*
X1020Y735D02*
X1034Y735D01*
X1192Y735D02*
X1199Y735D01*
X0Y734D02*
X7Y734D01*
X161Y734D02*
X164Y734D01*
X173Y734D02*
X176Y734D01*
X188Y734D02*
X191Y734D01*
X208Y734D02*
X210Y734D01*
X974Y734D02*
X988Y734D01*
X1001Y734D02*
X1012Y734D01*
X1020Y734D02*
X1035Y734D01*
X1192Y734D02*
X1199Y734D01*
X0Y733D02*
X7Y733D01*
X161Y733D02*
X175Y733D01*
X188Y733D02*
X199Y733D01*
X208Y733D02*
X223Y733D01*
X974Y733D02*
X987Y733D01*
X1002Y733D02*
X1012Y733D01*
X1020Y733D02*
X1035Y733D01*
X1192Y733D02*
X1199Y733D01*
X0Y732D02*
X7Y732D01*
X162Y732D02*
X175Y732D01*
X189Y732D02*
X199Y732D01*
X208Y732D02*
X223Y732D01*
X976Y732D02*
X985Y732D01*
X1004Y732D02*
X1011Y732D01*
X1020Y732D02*
X1034Y732D01*
X1192Y732D02*
X1199Y732D01*
X0Y731D02*
X7Y731D01*
X163Y731D02*
X174Y731D01*
X191Y731D02*
X199Y731D01*
X208Y731D02*
X222Y731D01*
X1192Y731D02*
X1199Y731D01*
X0Y730D02*
X7Y730D01*
X1192Y730D02*
X1199Y730D01*
X0Y729D02*
X7Y729D01*
X1192Y729D02*
X1199Y729D01*
X0Y728D02*
X7Y728D01*
X1192Y728D02*
X1199Y728D01*
X0Y727D02*
X7Y727D01*
X1192Y727D02*
X1199Y727D01*
X0Y726D02*
X7Y726D01*
X1192Y726D02*
X1199Y726D01*
X0Y725D02*
X7Y725D01*
X1192Y725D02*
X1199Y725D01*
X0Y724D02*
X7Y724D01*
X1192Y724D02*
X1199Y724D01*
X0Y723D02*
X7Y723D01*
X1192Y723D02*
X1199Y723D01*
X0Y722D02*
X7Y722D01*
X1192Y722D02*
X1199Y722D01*
X0Y721D02*
X7Y721D01*
X1192Y721D02*
X1199Y721D01*
X0Y720D02*
X7Y720D01*
X1192Y720D02*
X1199Y720D01*
X0Y719D02*
X7Y719D01*
X1192Y719D02*
X1199Y719D01*
X0Y718D02*
X7Y718D01*
X1192Y718D02*
X1199Y718D01*
X0Y717D02*
X7Y717D01*
X1192Y717D02*
X1199Y717D01*
X0Y716D02*
X7Y716D01*
X1192Y716D02*
X1199Y716D01*
X0Y715D02*
X7Y715D01*
X1192Y715D02*
X1199Y715D01*
X0Y714D02*
X7Y714D01*
X1192Y714D02*
X1199Y714D01*
X0Y713D02*
X7Y713D01*
X1192Y713D02*
X1199Y713D01*
X0Y712D02*
X7Y712D01*
X1192Y712D02*
X1199Y712D01*
X0Y711D02*
X7Y711D01*
X1192Y711D02*
X1199Y711D01*
X0Y710D02*
X7Y710D01*
X1192Y710D02*
X1199Y710D01*
X0Y709D02*
X7Y709D01*
X1192Y709D02*
X1199Y709D01*
X0Y708D02*
X7Y708D01*
X1192Y708D02*
X1199Y708D01*
X0Y707D02*
X7Y707D01*
X1192Y707D02*
X1199Y707D01*
X0Y706D02*
X7Y706D01*
X1192Y706D02*
X1199Y706D01*
X0Y705D02*
X7Y705D01*
X1192Y705D02*
X1199Y705D01*
X0Y704D02*
X7Y704D01*
X1192Y704D02*
X1199Y704D01*
X0Y703D02*
X7Y703D01*
X1192Y703D02*
X1199Y703D01*
X0Y702D02*
X7Y702D01*
X1192Y702D02*
X1199Y702D01*
X0Y701D02*
X7Y701D01*
X1192Y701D02*
X1199Y701D01*
X0Y700D02*
X7Y700D01*
X1192Y700D02*
X1199Y700D01*
X0Y699D02*
X7Y699D01*
X1192Y699D02*
X1199Y699D01*
X0Y698D02*
X7Y698D01*
X1192Y698D02*
X1199Y698D01*
X0Y697D02*
X7Y697D01*
X1192Y697D02*
X1199Y697D01*
X0Y696D02*
X7Y696D01*
X1192Y696D02*
X1199Y696D01*
X0Y695D02*
X7Y695D01*
X1192Y695D02*
X1199Y695D01*
X0Y694D02*
X7Y694D01*
X1192Y694D02*
X1199Y694D01*
X0Y693D02*
X7Y693D01*
X1192Y693D02*
X1199Y693D01*
X0Y692D02*
X7Y692D01*
X1192Y692D02*
X1199Y692D01*
X0Y691D02*
X7Y691D01*
X1192Y691D02*
X1199Y691D01*
X0Y690D02*
X7Y690D01*
X1192Y690D02*
X1199Y690D01*
X0Y689D02*
X7Y689D01*
X1192Y689D02*
X1199Y689D01*
X0Y688D02*
X7Y688D01*
X1192Y688D02*
X1199Y688D01*
X0Y687D02*
X7Y687D01*
X1192Y687D02*
X1199Y687D01*
X0Y686D02*
X7Y686D01*
X223Y686D02*
X225Y686D01*
X291Y686D02*
X293Y686D01*
X1192Y686D02*
X1199Y686D01*
X0Y685D02*
X7Y685D01*
X221Y685D02*
X226Y685D01*
X290Y685D02*
X295Y685D01*
X1192Y685D02*
X1199Y685D01*
X0Y684D02*
X7Y684D01*
X220Y684D02*
X226Y684D01*
X290Y684D02*
X296Y684D01*
X1192Y684D02*
X1199Y684D01*
X0Y683D02*
X7Y683D01*
X219Y683D02*
X226Y683D01*
X290Y683D02*
X297Y683D01*
X1192Y683D02*
X1199Y683D01*
X0Y682D02*
X7Y682D01*
X218Y682D02*
X226Y682D01*
X290Y682D02*
X298Y682D01*
X1192Y682D02*
X1199Y682D01*
X0Y681D02*
X7Y681D01*
X217Y681D02*
X226Y681D01*
X290Y681D02*
X299Y681D01*
X1192Y681D02*
X1199Y681D01*
X0Y680D02*
X7Y680D01*
X217Y680D02*
X227Y680D01*
X289Y680D02*
X299Y680D01*
X1192Y680D02*
X1199Y680D01*
X0Y679D02*
X7Y679D01*
X216Y679D02*
X226Y679D01*
X290Y679D02*
X300Y679D01*
X1192Y679D02*
X1199Y679D01*
X0Y678D02*
X7Y678D01*
X216Y678D02*
X224Y678D01*
X292Y678D02*
X300Y678D01*
X1192Y678D02*
X1199Y678D01*
X0Y677D02*
X7Y677D01*
X216Y677D02*
X223Y677D01*
X293Y677D02*
X300Y677D01*
X1192Y677D02*
X1199Y677D01*
X0Y676D02*
X7Y676D01*
X215Y676D02*
X223Y676D01*
X293Y676D02*
X301Y676D01*
X1192Y676D02*
X1199Y676D01*
X0Y675D02*
X7Y675D01*
X215Y675D02*
X222Y675D01*
X294Y675D02*
X301Y675D01*
X1192Y675D02*
X1199Y675D01*
X0Y674D02*
X7Y674D01*
X215Y674D02*
X222Y674D01*
X294Y674D02*
X301Y674D01*
X1192Y674D02*
X1199Y674D01*
X0Y673D02*
X7Y673D01*
X215Y673D02*
X222Y673D01*
X294Y673D02*
X301Y673D01*
X1192Y673D02*
X1199Y673D01*
X0Y672D02*
X7Y672D01*
X215Y672D02*
X221Y672D01*
X295Y672D02*
X301Y672D01*
X1192Y672D02*
X1199Y672D01*
X0Y671D02*
X7Y671D01*
X215Y671D02*
X216Y671D01*
X300Y671D02*
X301Y671D01*
X1192Y671D02*
X1199Y671D01*
X0Y670D02*
X7Y670D01*
X1192Y670D02*
X1199Y670D01*
X0Y669D02*
X7Y669D01*
X1192Y669D02*
X1199Y669D01*
X0Y668D02*
X7Y668D01*
X1192Y668D02*
X1199Y668D01*
X0Y667D02*
X7Y667D01*
X1192Y667D02*
X1199Y667D01*
X0Y666D02*
X7Y666D01*
X1192Y666D02*
X1199Y666D01*
X0Y665D02*
X7Y665D01*
X1192Y665D02*
X1199Y665D01*
X0Y664D02*
X7Y664D01*
X1192Y664D02*
X1199Y664D01*
X0Y663D02*
X7Y663D01*
X1192Y663D02*
X1199Y663D01*
X0Y662D02*
X7Y662D01*
X1192Y662D02*
X1199Y662D01*
X0Y661D02*
X7Y661D01*
X1192Y661D02*
X1199Y661D01*
X0Y660D02*
X7Y660D01*
X1192Y660D02*
X1199Y660D01*
X0Y659D02*
X7Y659D01*
X1192Y659D02*
X1199Y659D01*
X0Y658D02*
X7Y658D01*
X1192Y658D02*
X1199Y658D01*
X0Y657D02*
X7Y657D01*
X328Y657D02*
X339Y657D01*
X350Y657D02*
X359Y657D01*
X381Y657D02*
X382Y657D01*
X399Y657D02*
X411Y657D01*
X954Y657D02*
X965Y657D01*
X976Y657D02*
X984Y657D01*
X1006Y657D02*
X1007Y657D01*
X1025Y657D02*
X1036Y657D01*
X1192Y657D02*
X1199Y657D01*
X0Y656D02*
X7Y656D01*
X327Y656D02*
X340Y656D01*
X350Y656D02*
X360Y656D01*
X380Y656D02*
X382Y656D01*
X398Y656D02*
X412Y656D01*
X953Y656D02*
X966Y656D01*
X976Y656D02*
X986Y656D01*
X1006Y656D02*
X1008Y656D01*
X1023Y656D02*
X1037Y656D01*
X1192Y656D02*
X1199Y656D01*
X0Y655D02*
X7Y655D01*
X327Y655D02*
X341Y655D01*
X350Y655D02*
X361Y655D01*
X380Y655D02*
X383Y655D01*
X397Y655D02*
X412Y655D01*
X952Y655D02*
X967Y655D01*
X976Y655D02*
X986Y655D01*
X1005Y655D02*
X1008Y655D01*
X1023Y655D02*
X1038Y655D01*
X1192Y655D02*
X1199Y655D01*
X0Y654D02*
X7Y654D01*
X326Y654D02*
X329Y654D01*
X339Y654D02*
X341Y654D01*
X353Y654D02*
X356Y654D01*
X358Y654D02*
X361Y654D01*
X379Y654D02*
X383Y654D01*
X397Y654D02*
X400Y654D01*
X410Y654D02*
X412Y654D01*
X952Y654D02*
X955Y654D01*
X964Y654D02*
X967Y654D01*
X978Y654D02*
X981Y654D01*
X984Y654D02*
X987Y654D01*
X1005Y654D02*
X1009Y654D01*
X1023Y654D02*
X1025Y654D01*
X1035Y654D02*
X1038Y654D01*
X1192Y654D02*
X1199Y654D01*
X0Y653D02*
X7Y653D01*
X326Y653D02*
X329Y653D01*
X339Y653D02*
X342Y653D01*
X353Y653D02*
X355Y653D01*
X359Y653D02*
X362Y653D01*
X379Y653D02*
X383Y653D01*
X397Y653D02*
X399Y653D01*
X410Y653D02*
X412Y653D01*
X952Y653D02*
X955Y653D01*
X965Y653D02*
X967Y653D01*
X979Y653D02*
X981Y653D01*
X985Y653D02*
X988Y653D01*
X1005Y653D02*
X1009Y653D01*
X1023Y653D02*
X1025Y653D01*
X1036Y653D02*
X1038Y653D01*
X1192Y653D02*
X1199Y653D01*
X0Y652D02*
X7Y652D01*
X327Y652D02*
X330Y652D01*
X340Y652D02*
X341Y652D01*
X353Y652D02*
X355Y652D01*
X360Y652D02*
X362Y652D01*
X379Y652D02*
X384Y652D01*
X397Y652D02*
X399Y652D01*
X410Y652D02*
X412Y652D01*
X952Y652D02*
X955Y652D01*
X965Y652D02*
X967Y652D01*
X979Y652D02*
X981Y652D01*
X985Y652D02*
X988Y652D01*
X1004Y652D02*
X1009Y652D01*
X1023Y652D02*
X1025Y652D01*
X1036Y652D02*
X1038Y652D01*
X1192Y652D02*
X1199Y652D01*
X0Y651D02*
X7Y651D01*
X327Y651D02*
X331Y651D01*
X353Y651D02*
X355Y651D01*
X360Y651D02*
X363Y651D01*
X378Y651D02*
X384Y651D01*
X397Y651D02*
X399Y651D01*
X410Y651D02*
X412Y651D01*
X953Y651D02*
X956Y651D01*
X979Y651D02*
X981Y651D01*
X986Y651D02*
X989Y651D01*
X1004Y651D02*
X1009Y651D01*
X1023Y651D02*
X1025Y651D01*
X1036Y651D02*
X1038Y651D01*
X1192Y651D02*
X1199Y651D01*
X0Y650D02*
X7Y650D01*
X328Y650D02*
X331Y650D01*
X353Y650D02*
X355Y650D01*
X361Y650D02*
X363Y650D01*
X378Y650D02*
X384Y650D01*
X397Y650D02*
X399Y650D01*
X410Y650D02*
X412Y650D01*
X954Y650D02*
X957Y650D01*
X979Y650D02*
X981Y650D01*
X986Y650D02*
X989Y650D01*
X1004Y650D02*
X1010Y650D01*
X1023Y650D02*
X1025Y650D01*
X1036Y650D02*
X1038Y650D01*
X1192Y650D02*
X1199Y650D01*
X0Y649D02*
X7Y649D01*
X329Y649D02*
X332Y649D01*
X353Y649D02*
X355Y649D01*
X361Y649D02*
X364Y649D01*
X378Y649D02*
X380Y649D01*
X382Y649D02*
X384Y649D01*
X397Y649D02*
X399Y649D01*
X410Y649D02*
X412Y649D01*
X955Y649D02*
X958Y649D01*
X979Y649D02*
X981Y649D01*
X987Y649D02*
X990Y649D01*
X1004Y649D02*
X1010Y649D01*
X1023Y649D02*
X1025Y649D01*
X1036Y649D02*
X1038Y649D01*
X1192Y649D02*
X1199Y649D01*
X0Y648D02*
X7Y648D01*
X330Y648D02*
X333Y648D01*
X353Y648D02*
X355Y648D01*
X362Y648D02*
X364Y648D01*
X378Y648D02*
X380Y648D01*
X382Y648D02*
X385Y648D01*
X397Y648D02*
X399Y648D01*
X410Y648D02*
X412Y648D01*
X955Y648D02*
X959Y648D01*
X979Y648D02*
X981Y648D01*
X987Y648D02*
X990Y648D01*
X1003Y648D02*
X1006Y648D01*
X1008Y648D02*
X1010Y648D01*
X1023Y648D02*
X1025Y648D01*
X1036Y648D02*
X1038Y648D01*
X1192Y648D02*
X1199Y648D01*
X0Y647D02*
X7Y647D01*
X331Y647D02*
X334Y647D01*
X353Y647D02*
X355Y647D01*
X362Y647D02*
X365Y647D01*
X377Y647D02*
X380Y647D01*
X383Y647D02*
X385Y647D01*
X397Y647D02*
X399Y647D01*
X410Y647D02*
X412Y647D01*
X956Y647D02*
X959Y647D01*
X979Y647D02*
X981Y647D01*
X988Y647D02*
X990Y647D01*
X1003Y647D02*
X1005Y647D01*
X1008Y647D02*
X1011Y647D01*
X1023Y647D02*
X1025Y647D01*
X1036Y647D02*
X1038Y647D01*
X1192Y647D02*
X1199Y647D01*
X0Y646D02*
X7Y646D01*
X331Y646D02*
X335Y646D01*
X353Y646D02*
X355Y646D01*
X363Y646D02*
X365Y646D01*
X377Y646D02*
X379Y646D01*
X383Y646D02*
X385Y646D01*
X397Y646D02*
X399Y646D01*
X410Y646D02*
X412Y646D01*
X957Y646D02*
X960Y646D01*
X979Y646D02*
X981Y646D01*
X988Y646D02*
X991Y646D01*
X1003Y646D02*
X1005Y646D01*
X1008Y646D02*
X1011Y646D01*
X1023Y646D02*
X1025Y646D01*
X1036Y646D02*
X1038Y646D01*
X1192Y646D02*
X1199Y646D01*
X0Y645D02*
X7Y645D01*
X332Y645D02*
X335Y645D01*
X353Y645D02*
X355Y645D01*
X363Y645D02*
X365Y645D01*
X377Y645D02*
X379Y645D01*
X383Y645D02*
X386Y645D01*
X397Y645D02*
X399Y645D01*
X410Y645D02*
X412Y645D01*
X958Y645D02*
X961Y645D01*
X979Y645D02*
X981Y645D01*
X989Y645D02*
X991Y645D01*
X1002Y645D02*
X1005Y645D01*
X1009Y645D02*
X1011Y645D01*
X1023Y645D02*
X1025Y645D01*
X1036Y645D02*
X1038Y645D01*
X1192Y645D02*
X1199Y645D01*
X0Y644D02*
X7Y644D01*
X333Y644D02*
X336Y644D01*
X353Y644D02*
X355Y644D01*
X363Y644D02*
X365Y644D01*
X376Y644D02*
X379Y644D01*
X383Y644D02*
X386Y644D01*
X397Y644D02*
X399Y644D01*
X410Y644D02*
X412Y644D01*
X958Y644D02*
X962Y644D01*
X979Y644D02*
X981Y644D01*
X988Y644D02*
X991Y644D01*
X1002Y644D02*
X1005Y644D01*
X1009Y644D02*
X1011Y644D01*
X1023Y644D02*
X1025Y644D01*
X1036Y644D02*
X1038Y644D01*
X1192Y644D02*
X1199Y644D01*
X0Y643D02*
X7Y643D01*
X334Y643D02*
X337Y643D01*
X353Y643D02*
X355Y643D01*
X362Y643D02*
X365Y643D01*
X376Y643D02*
X379Y643D01*
X384Y643D02*
X386Y643D01*
X397Y643D02*
X399Y643D01*
X410Y643D02*
X412Y643D01*
X959Y643D02*
X962Y643D01*
X979Y643D02*
X981Y643D01*
X988Y643D02*
X991Y643D01*
X1002Y643D02*
X1004Y643D01*
X1009Y643D02*
X1012Y643D01*
X1023Y643D02*
X1025Y643D01*
X1036Y643D02*
X1038Y643D01*
X1192Y643D02*
X1199Y643D01*
X0Y642D02*
X7Y642D01*
X334Y642D02*
X338Y642D01*
X353Y642D02*
X355Y642D01*
X362Y642D02*
X365Y642D01*
X376Y642D02*
X378Y642D01*
X384Y642D02*
X386Y642D01*
X397Y642D02*
X399Y642D01*
X410Y642D02*
X412Y642D01*
X960Y642D02*
X963Y642D01*
X979Y642D02*
X981Y642D01*
X988Y642D02*
X990Y642D01*
X1002Y642D02*
X1004Y642D01*
X1010Y642D02*
X1012Y642D01*
X1023Y642D02*
X1025Y642D01*
X1036Y642D02*
X1038Y642D01*
X1192Y642D02*
X1199Y642D01*
X0Y641D02*
X7Y641D01*
X335Y641D02*
X338Y641D01*
X353Y641D02*
X355Y641D01*
X362Y641D02*
X364Y641D01*
X376Y641D02*
X378Y641D01*
X384Y641D02*
X387Y641D01*
X397Y641D02*
X399Y641D01*
X410Y641D02*
X412Y641D01*
X961Y641D02*
X964Y641D01*
X979Y641D02*
X981Y641D01*
X987Y641D02*
X990Y641D01*
X1001Y641D02*
X1004Y641D01*
X1010Y641D02*
X1012Y641D01*
X1023Y641D02*
X1025Y641D01*
X1036Y641D02*
X1038Y641D01*
X1192Y641D02*
X1199Y641D01*
X0Y640D02*
X7Y640D01*
X336Y640D02*
X339Y640D01*
X353Y640D02*
X355Y640D01*
X361Y640D02*
X364Y640D01*
X375Y640D02*
X387Y640D01*
X397Y640D02*
X399Y640D01*
X410Y640D02*
X412Y640D01*
X962Y640D02*
X965Y640D01*
X979Y640D02*
X981Y640D01*
X987Y640D02*
X989Y640D01*
X1001Y640D02*
X1013Y640D01*
X1023Y640D02*
X1025Y640D01*
X1036Y640D02*
X1038Y640D01*
X1192Y640D02*
X1199Y640D01*
X0Y639D02*
X7Y639D01*
X337Y639D02*
X340Y639D01*
X353Y639D02*
X355Y639D01*
X360Y639D02*
X363Y639D01*
X375Y639D02*
X387Y639D01*
X397Y639D02*
X399Y639D01*
X410Y639D02*
X412Y639D01*
X962Y639D02*
X966Y639D01*
X979Y639D02*
X981Y639D01*
X986Y639D02*
X989Y639D01*
X1001Y639D02*
X1013Y639D01*
X1023Y639D02*
X1025Y639D01*
X1036Y639D02*
X1038Y639D01*
X1192Y639D02*
X1199Y639D01*
X0Y638D02*
X7Y638D01*
X338Y638D02*
X341Y638D01*
X353Y638D02*
X355Y638D01*
X360Y638D02*
X363Y638D01*
X375Y638D02*
X388Y638D01*
X397Y638D02*
X399Y638D01*
X410Y638D02*
X412Y638D01*
X963Y638D02*
X966Y638D01*
X979Y638D02*
X981Y638D01*
X986Y638D02*
X988Y638D01*
X1000Y638D02*
X1013Y638D01*
X1023Y638D02*
X1025Y638D01*
X1036Y638D02*
X1038Y638D01*
X1192Y638D02*
X1199Y638D01*
X0Y637D02*
X7Y637D01*
X326Y637D02*
X328Y637D01*
X338Y637D02*
X341Y637D01*
X353Y637D02*
X355Y637D01*
X359Y637D02*
X362Y637D01*
X374Y637D02*
X377Y637D01*
X385Y637D02*
X388Y637D01*
X397Y637D02*
X399Y637D01*
X410Y637D02*
X412Y637D01*
X952Y637D02*
X954Y637D01*
X964Y637D02*
X967Y637D01*
X979Y637D02*
X981Y637D01*
X985Y637D02*
X988Y637D01*
X1000Y637D02*
X1003Y637D01*
X1011Y637D02*
X1013Y637D01*
X1023Y637D02*
X1025Y637D01*
X1036Y637D02*
X1038Y637D01*
X1192Y637D02*
X1199Y637D01*
X0Y636D02*
X7Y636D01*
X326Y636D02*
X329Y636D01*
X339Y636D02*
X342Y636D01*
X353Y636D02*
X355Y636D01*
X359Y636D02*
X362Y636D01*
X374Y636D02*
X377Y636D01*
X386Y636D02*
X388Y636D01*
X397Y636D02*
X399Y636D01*
X410Y636D02*
X412Y636D01*
X952Y636D02*
X954Y636D01*
X965Y636D02*
X967Y636D01*
X979Y636D02*
X981Y636D01*
X985Y636D02*
X987Y636D01*
X1000Y636D02*
X1002Y636D01*
X1011Y636D02*
X1014Y636D01*
X1023Y636D02*
X1025Y636D01*
X1036Y636D02*
X1038Y636D01*
X1192Y636D02*
X1199Y636D01*
X0Y635D02*
X7Y635D01*
X327Y635D02*
X341Y635D01*
X351Y635D02*
X361Y635D01*
X374Y635D02*
X376Y635D01*
X386Y635D02*
X388Y635D01*
X397Y635D02*
X412Y635D01*
X952Y635D02*
X967Y635D01*
X977Y635D02*
X987Y635D01*
X999Y635D02*
X1002Y635D01*
X1012Y635D02*
X1014Y635D01*
X1023Y635D02*
X1038Y635D01*
X1192Y635D02*
X1199Y635D01*
X0Y634D02*
X7Y634D01*
X327Y634D02*
X341Y634D01*
X350Y634D02*
X361Y634D01*
X374Y634D02*
X376Y634D01*
X386Y634D02*
X389Y634D01*
X397Y634D02*
X412Y634D01*
X953Y634D02*
X967Y634D01*
X976Y634D02*
X986Y634D01*
X999Y634D02*
X1002Y634D01*
X1012Y634D02*
X1014Y634D01*
X1023Y634D02*
X1038Y634D01*
X1192Y634D02*
X1199Y634D01*
X0Y633D02*
X7Y633D01*
X328Y633D02*
X340Y633D01*
X350Y633D02*
X360Y633D01*
X374Y633D02*
X376Y633D01*
X387Y633D02*
X389Y633D01*
X398Y633D02*
X411Y633D01*
X953Y633D02*
X966Y633D01*
X976Y633D02*
X985Y633D01*
X999Y633D02*
X1001Y633D01*
X1012Y633D02*
X1014Y633D01*
X1024Y633D02*
X1037Y633D01*
X1192Y633D02*
X1199Y633D01*
X0Y632D02*
X7Y632D01*
X331Y632D02*
X338Y632D01*
X351Y632D02*
X357Y632D01*
X400Y632D02*
X409Y632D01*
X955Y632D02*
X964Y632D01*
X977Y632D02*
X984Y632D01*
X1000Y632D02*
X1000Y632D01*
X1013Y632D02*
X1013Y632D01*
X1025Y632D02*
X1036Y632D01*
X1192Y632D02*
X1199Y632D01*
X0Y631D02*
X7Y631D01*
X1192Y631D02*
X1199Y631D01*
X0Y630D02*
X7Y630D01*
X1192Y630D02*
X1199Y630D01*
X0Y629D02*
X7Y629D01*
X1192Y629D02*
X1199Y629D01*
X0Y628D02*
X7Y628D01*
X1192Y628D02*
X1199Y628D01*
X0Y627D02*
X7Y627D01*
X1192Y627D02*
X1199Y627D01*
X0Y626D02*
X7Y626D01*
X1192Y626D02*
X1199Y626D01*
X0Y625D02*
X7Y625D01*
X1192Y625D02*
X1199Y625D01*
X0Y624D02*
X7Y624D01*
X1192Y624D02*
X1199Y624D01*
X0Y623D02*
X7Y623D01*
X1192Y623D02*
X1199Y623D01*
X0Y622D02*
X7Y622D01*
X1192Y622D02*
X1199Y622D01*
X0Y621D02*
X7Y621D01*
X1192Y621D02*
X1199Y621D01*
X0Y620D02*
X7Y620D01*
X1192Y620D02*
X1199Y620D01*
X0Y619D02*
X7Y619D01*
X1192Y619D02*
X1199Y619D01*
X0Y618D02*
X7Y618D01*
X1192Y618D02*
X1199Y618D01*
X0Y617D02*
X7Y617D01*
X1192Y617D02*
X1199Y617D01*
X0Y616D02*
X7Y616D01*
X215Y616D02*
X219Y616D01*
X297Y616D02*
X301Y616D01*
X1192Y616D02*
X1199Y616D01*
X0Y615D02*
X7Y615D01*
X215Y615D02*
X222Y615D01*
X294Y615D02*
X301Y615D01*
X1192Y615D02*
X1199Y615D01*
X0Y614D02*
X7Y614D01*
X215Y614D02*
X222Y614D01*
X294Y614D02*
X301Y614D01*
X1192Y614D02*
X1199Y614D01*
X0Y613D02*
X7Y613D01*
X215Y613D02*
X222Y613D01*
X294Y613D02*
X301Y613D01*
X1192Y613D02*
X1199Y613D01*
X0Y612D02*
X7Y612D01*
X215Y612D02*
X222Y612D01*
X293Y612D02*
X301Y612D01*
X1192Y612D02*
X1199Y612D01*
X0Y611D02*
X7Y611D01*
X215Y611D02*
X223Y611D01*
X293Y611D02*
X301Y611D01*
X1192Y611D02*
X1199Y611D01*
X0Y610D02*
X7Y610D01*
X216Y610D02*
X224Y610D01*
X292Y610D02*
X300Y610D01*
X1192Y610D02*
X1199Y610D01*
X0Y609D02*
X7Y609D01*
X216Y609D02*
X225Y609D01*
X291Y609D02*
X300Y609D01*
X1192Y609D02*
X1199Y609D01*
X0Y608D02*
X7Y608D01*
X217Y608D02*
X227Y608D01*
X289Y608D02*
X299Y608D01*
X1192Y608D02*
X1199Y608D01*
X0Y607D02*
X7Y607D01*
X217Y607D02*
X227Y607D01*
X289Y607D02*
X299Y607D01*
X1192Y607D02*
X1199Y607D01*
X0Y606D02*
X7Y606D01*
X218Y606D02*
X226Y606D01*
X290Y606D02*
X298Y606D01*
X1192Y606D02*
X1199Y606D01*
X0Y605D02*
X7Y605D01*
X219Y605D02*
X226Y605D01*
X290Y605D02*
X297Y605D01*
X1192Y605D02*
X1199Y605D01*
X0Y604D02*
X7Y604D01*
X220Y604D02*
X226Y604D01*
X290Y604D02*
X296Y604D01*
X1192Y604D02*
X1199Y604D01*
X0Y603D02*
X7Y603D01*
X221Y603D02*
X226Y603D01*
X290Y603D02*
X295Y603D01*
X1192Y603D02*
X1199Y603D01*
X0Y602D02*
X7Y602D01*
X222Y602D02*
X226Y602D01*
X290Y602D02*
X294Y602D01*
X1192Y602D02*
X1199Y602D01*
X0Y601D02*
X7Y601D01*
X225Y601D02*
X225Y601D01*
X291Y601D02*
X291Y601D01*
X1192Y601D02*
X1199Y601D01*
X0Y600D02*
X7Y600D01*
X1192Y600D02*
X1199Y600D01*
X0Y599D02*
X7Y599D01*
X1192Y599D02*
X1199Y599D01*
X0Y598D02*
X7Y598D01*
X1192Y598D02*
X1199Y598D01*
X0Y597D02*
X7Y597D01*
X1192Y597D02*
X1199Y597D01*
X0Y596D02*
X7Y596D01*
X1192Y596D02*
X1199Y596D01*
X0Y595D02*
X7Y595D01*
X1192Y595D02*
X1199Y595D01*
X0Y594D02*
X7Y594D01*
X1192Y594D02*
X1199Y594D01*
X0Y593D02*
X7Y593D01*
X1192Y593D02*
X1199Y593D01*
X0Y592D02*
X7Y592D01*
X1192Y592D02*
X1199Y592D01*
X0Y591D02*
X7Y591D01*
X1192Y591D02*
X1199Y591D01*
X0Y590D02*
X7Y590D01*
X1192Y590D02*
X1199Y590D01*
X0Y589D02*
X7Y589D01*
X1192Y589D02*
X1199Y589D01*
X0Y588D02*
X7Y588D01*
X224Y588D02*
X225Y588D01*
X291Y588D02*
X292Y588D01*
X1192Y588D02*
X1199Y588D01*
X0Y587D02*
X7Y587D01*
X222Y587D02*
X226Y587D01*
X290Y587D02*
X294Y587D01*
X1192Y587D02*
X1199Y587D01*
X0Y586D02*
X7Y586D01*
X221Y586D02*
X226Y586D01*
X290Y586D02*
X295Y586D01*
X1192Y586D02*
X1199Y586D01*
X0Y585D02*
X7Y585D01*
X219Y585D02*
X226Y585D01*
X290Y585D02*
X297Y585D01*
X1192Y585D02*
X1199Y585D01*
X0Y584D02*
X7Y584D01*
X218Y584D02*
X226Y584D01*
X290Y584D02*
X298Y584D01*
X1192Y584D02*
X1199Y584D01*
X0Y583D02*
X7Y583D01*
X218Y583D02*
X226Y583D01*
X290Y583D02*
X298Y583D01*
X1192Y583D02*
X1199Y583D01*
X0Y582D02*
X7Y582D01*
X217Y582D02*
X227Y582D01*
X289Y582D02*
X299Y582D01*
X1192Y582D02*
X1199Y582D01*
X0Y581D02*
X7Y581D01*
X216Y581D02*
X227Y581D01*
X289Y581D02*
X300Y581D01*
X1192Y581D02*
X1199Y581D01*
X0Y580D02*
X7Y580D01*
X216Y580D02*
X225Y580D01*
X291Y580D02*
X300Y580D01*
X1192Y580D02*
X1199Y580D01*
X0Y579D02*
X7Y579D01*
X216Y579D02*
X224Y579D01*
X292Y579D02*
X300Y579D01*
X1192Y579D02*
X1199Y579D01*
X0Y578D02*
X7Y578D01*
X215Y578D02*
X223Y578D01*
X293Y578D02*
X301Y578D01*
X1192Y578D02*
X1199Y578D01*
X0Y577D02*
X7Y577D01*
X215Y577D02*
X222Y577D01*
X294Y577D02*
X301Y577D01*
X1192Y577D02*
X1199Y577D01*
X0Y576D02*
X7Y576D01*
X215Y576D02*
X222Y576D01*
X294Y576D02*
X301Y576D01*
X1192Y576D02*
X1199Y576D01*
X0Y575D02*
X7Y575D01*
X215Y575D02*
X222Y575D01*
X294Y575D02*
X301Y575D01*
X1192Y575D02*
X1199Y575D01*
X0Y574D02*
X7Y574D01*
X215Y574D02*
X222Y574D01*
X294Y574D02*
X301Y574D01*
X1192Y574D02*
X1199Y574D01*
X0Y573D02*
X7Y573D01*
X215Y573D02*
X218Y573D01*
X298Y573D02*
X301Y573D01*
X1192Y573D02*
X1199Y573D01*
X0Y572D02*
X7Y572D01*
X1192Y572D02*
X1199Y572D01*
X0Y571D02*
X7Y571D01*
X1192Y571D02*
X1199Y571D01*
X0Y570D02*
X7Y570D01*
X1192Y570D02*
X1199Y570D01*
X0Y569D02*
X7Y569D01*
X1192Y569D02*
X1199Y569D01*
X0Y568D02*
X7Y568D01*
X1192Y568D02*
X1199Y568D01*
X0Y567D02*
X7Y567D01*
X1192Y567D02*
X1199Y567D01*
X0Y566D02*
X7Y566D01*
X1192Y566D02*
X1199Y566D01*
X0Y565D02*
X7Y565D01*
X1192Y565D02*
X1199Y565D01*
X0Y564D02*
X7Y564D01*
X1192Y564D02*
X1199Y564D01*
X0Y563D02*
X7Y563D01*
X1192Y563D02*
X1199Y563D01*
X0Y562D02*
X7Y562D01*
X1192Y562D02*
X1199Y562D01*
X0Y561D02*
X7Y561D01*
X1192Y561D02*
X1199Y561D01*
X0Y560D02*
X7Y560D01*
X1192Y560D02*
X1199Y560D01*
X0Y559D02*
X7Y559D01*
X1192Y559D02*
X1199Y559D01*
X0Y558D02*
X7Y558D01*
X1192Y558D02*
X1199Y558D01*
X0Y557D02*
X7Y557D01*
X331Y557D02*
X343Y557D01*
X354Y557D02*
X362Y557D01*
X384Y557D02*
X385Y557D01*
X401Y557D02*
X409Y557D01*
X1192Y557D02*
X1199Y557D01*
X0Y556D02*
X7Y556D01*
X330Y556D02*
X344Y556D01*
X353Y556D02*
X364Y556D01*
X383Y556D02*
X386Y556D01*
X400Y556D02*
X409Y556D01*
X959Y556D02*
X969Y556D01*
X981Y556D02*
X989Y556D01*
X1011Y556D02*
X1012Y556D01*
X1028Y556D02*
X1036Y556D01*
X1192Y556D02*
X1199Y556D01*
X0Y555D02*
X7Y555D01*
X330Y555D02*
X345Y555D01*
X354Y555D02*
X364Y555D01*
X383Y555D02*
X386Y555D01*
X401Y555D02*
X409Y555D01*
X957Y555D02*
X971Y555D01*
X980Y555D02*
X990Y555D01*
X1010Y555D02*
X1013Y555D01*
X1027Y555D02*
X1036Y555D01*
X1192Y555D02*
X1199Y555D01*
X0Y554D02*
X7Y554D01*
X330Y554D02*
X332Y554D01*
X342Y554D02*
X345Y554D01*
X356Y554D02*
X359Y554D01*
X362Y554D02*
X365Y554D01*
X383Y554D02*
X386Y554D01*
X407Y554D02*
X409Y554D01*
X957Y554D02*
X971Y554D01*
X980Y554D02*
X991Y554D01*
X1010Y554D02*
X1013Y554D01*
X1028Y554D02*
X1036Y554D01*
X1192Y554D02*
X1199Y554D01*
X0Y553D02*
X7Y553D01*
X330Y553D02*
X333Y553D01*
X343Y553D02*
X345Y553D01*
X356Y553D02*
X359Y553D01*
X363Y553D02*
X365Y553D01*
X382Y553D02*
X387Y553D01*
X407Y553D02*
X409Y553D01*
X957Y553D02*
X959Y553D01*
X969Y553D02*
X972Y553D01*
X983Y553D02*
X986Y553D01*
X989Y553D02*
X992Y553D01*
X1010Y553D02*
X1013Y553D01*
X1034Y553D02*
X1036Y553D01*
X1192Y553D02*
X1199Y553D01*
X0Y552D02*
X7Y552D01*
X330Y552D02*
X333Y552D01*
X343Y552D02*
X344Y552D01*
X356Y552D02*
X359Y552D01*
X363Y552D02*
X366Y552D01*
X382Y552D02*
X387Y552D01*
X407Y552D02*
X409Y552D01*
X957Y552D02*
X959Y552D01*
X970Y552D02*
X972Y552D01*
X983Y552D02*
X986Y552D01*
X989Y552D02*
X992Y552D01*
X1009Y552D02*
X1013Y552D01*
X1034Y552D02*
X1036Y552D01*
X1192Y552D02*
X1199Y552D01*
X0Y551D02*
X7Y551D01*
X331Y551D02*
X334Y551D01*
X356Y551D02*
X359Y551D01*
X364Y551D02*
X366Y551D01*
X382Y551D02*
X387Y551D01*
X407Y551D02*
X409Y551D01*
X957Y551D02*
X960Y551D01*
X970Y551D02*
X971Y551D01*
X983Y551D02*
X986Y551D01*
X990Y551D02*
X993Y551D01*
X1009Y551D02*
X1014Y551D01*
X1034Y551D02*
X1036Y551D01*
X1192Y551D02*
X1199Y551D01*
X0Y550D02*
X7Y550D01*
X332Y550D02*
X335Y550D01*
X356Y550D02*
X359Y550D01*
X364Y550D02*
X367Y550D01*
X381Y550D02*
X387Y550D01*
X407Y550D02*
X409Y550D01*
X958Y550D02*
X961Y550D01*
X983Y550D02*
X986Y550D01*
X991Y550D02*
X993Y550D01*
X1009Y550D02*
X1014Y550D01*
X1034Y550D02*
X1036Y550D01*
X1192Y550D02*
X1199Y550D01*
X0Y549D02*
X7Y549D01*
X332Y549D02*
X336Y549D01*
X356Y549D02*
X359Y549D01*
X365Y549D02*
X367Y549D01*
X381Y549D02*
X388Y549D01*
X407Y549D02*
X409Y549D01*
X958Y549D02*
X962Y549D01*
X983Y549D02*
X986Y549D01*
X991Y549D02*
X994Y549D01*
X1008Y549D02*
X1014Y549D01*
X1034Y549D02*
X1036Y549D01*
X1192Y549D02*
X1199Y549D01*
X0Y548D02*
X7Y548D01*
X333Y548D02*
X336Y548D01*
X356Y548D02*
X359Y548D01*
X365Y548D02*
X368Y548D01*
X381Y548D02*
X383Y548D01*
X386Y548D02*
X388Y548D01*
X407Y548D02*
X409Y548D01*
X959Y548D02*
X962Y548D01*
X983Y548D02*
X986Y548D01*
X992Y548D02*
X994Y548D01*
X1008Y548D02*
X1015Y548D01*
X1034Y548D02*
X1036Y548D01*
X1192Y548D02*
X1199Y548D01*
X0Y547D02*
X7Y547D01*
X334Y547D02*
X337Y547D01*
X356Y547D02*
X359Y547D01*
X366Y547D02*
X368Y547D01*
X381Y547D02*
X383Y547D01*
X386Y547D02*
X388Y547D01*
X407Y547D02*
X409Y547D01*
X960Y547D02*
X963Y547D01*
X983Y547D02*
X986Y547D01*
X992Y547D02*
X995Y547D01*
X1008Y547D02*
X1010Y547D01*
X1012Y547D02*
X1015Y547D01*
X1034Y547D02*
X1036Y547D01*
X1192Y547D02*
X1199Y547D01*
X0Y546D02*
X7Y546D01*
X335Y546D02*
X338Y546D01*
X356Y546D02*
X359Y546D01*
X366Y546D02*
X368Y546D01*
X380Y546D02*
X383Y546D01*
X386Y546D02*
X389Y546D01*
X407Y546D02*
X409Y546D01*
X961Y546D02*
X964Y546D01*
X983Y546D02*
X986Y546D01*
X993Y546D02*
X995Y546D01*
X1008Y546D02*
X1010Y546D01*
X1013Y546D02*
X1015Y546D01*
X1034Y546D02*
X1036Y546D01*
X1192Y546D02*
X1199Y546D01*
X0Y545D02*
X7Y545D01*
X336Y545D02*
X339Y545D01*
X356Y545D02*
X359Y545D01*
X366Y545D02*
X369Y545D01*
X380Y545D02*
X382Y545D01*
X386Y545D02*
X389Y545D01*
X407Y545D02*
X409Y545D01*
X962Y545D02*
X965Y545D01*
X983Y545D02*
X986Y545D01*
X993Y545D02*
X995Y545D01*
X1007Y545D02*
X1010Y545D01*
X1013Y545D02*
X1016Y545D01*
X1034Y545D02*
X1036Y545D01*
X1192Y545D02*
X1199Y545D01*
X0Y544D02*
X7Y544D01*
X336Y544D02*
X340Y544D01*
X356Y544D02*
X359Y544D01*
X366Y544D02*
X368Y544D01*
X380Y544D02*
X382Y544D01*
X387Y544D02*
X389Y544D01*
X407Y544D02*
X409Y544D01*
X962Y544D02*
X966Y544D01*
X983Y544D02*
X986Y544D01*
X993Y544D02*
X995Y544D01*
X1007Y544D02*
X1009Y544D01*
X1013Y544D02*
X1016Y544D01*
X1034Y544D02*
X1036Y544D01*
X1192Y544D02*
X1199Y544D01*
X0Y543D02*
X7Y543D01*
X337Y543D02*
X340Y543D01*
X356Y543D02*
X359Y543D01*
X366Y543D02*
X368Y543D01*
X379Y543D02*
X382Y543D01*
X387Y543D02*
X390Y543D01*
X407Y543D02*
X409Y543D01*
X414Y543D02*
X415Y543D01*
X963Y543D02*
X966Y543D01*
X983Y543D02*
X986Y543D01*
X993Y543D02*
X995Y543D01*
X1007Y543D02*
X1009Y543D01*
X1014Y543D02*
X1016Y543D01*
X1034Y543D02*
X1036Y543D01*
X1192Y543D02*
X1199Y543D01*
X0Y542D02*
X7Y542D01*
X338Y542D02*
X341Y542D01*
X356Y542D02*
X359Y542D01*
X365Y542D02*
X368Y542D01*
X379Y542D02*
X382Y542D01*
X387Y542D02*
X390Y542D01*
X407Y542D02*
X409Y542D01*
X413Y542D02*
X416Y542D01*
X964Y542D02*
X967Y542D01*
X983Y542D02*
X986Y542D01*
X993Y542D02*
X995Y542D01*
X1006Y542D02*
X1009Y542D01*
X1014Y542D02*
X1016Y542D01*
X1034Y542D02*
X1036Y542D01*
X1041Y542D02*
X1042Y542D01*
X1192Y542D02*
X1199Y542D01*
X0Y541D02*
X7Y541D01*
X339Y541D02*
X342Y541D01*
X356Y541D02*
X359Y541D01*
X365Y541D02*
X367Y541D01*
X379Y541D02*
X390Y541D01*
X407Y541D02*
X409Y541D01*
X413Y541D02*
X416Y541D01*
X965Y541D02*
X968Y541D01*
X983Y541D02*
X986Y541D01*
X992Y541D02*
X995Y541D01*
X1006Y541D02*
X1009Y541D01*
X1014Y541D02*
X1017Y541D01*
X1034Y541D02*
X1036Y541D01*
X1040Y541D02*
X1043Y541D01*
X1192Y541D02*
X1199Y541D01*
X0Y540D02*
X7Y540D01*
X339Y540D02*
X343Y540D01*
X356Y540D02*
X359Y540D01*
X364Y540D02*
X367Y540D01*
X379Y540D02*
X390Y540D01*
X407Y540D02*
X409Y540D01*
X413Y540D02*
X416Y540D01*
X965Y540D02*
X969Y540D01*
X983Y540D02*
X986Y540D01*
X992Y540D02*
X995Y540D01*
X1006Y540D02*
X1009Y540D01*
X1014Y540D02*
X1017Y540D01*
X1034Y540D02*
X1036Y540D01*
X1040Y540D02*
X1043Y540D01*
X1192Y540D02*
X1199Y540D01*
X0Y539D02*
X7Y539D01*
X340Y539D02*
X344Y539D01*
X356Y539D02*
X359Y539D01*
X364Y539D02*
X366Y539D01*
X378Y539D02*
X391Y539D01*
X407Y539D02*
X409Y539D01*
X413Y539D02*
X416Y539D01*
X966Y539D02*
X969Y539D01*
X983Y539D02*
X986Y539D01*
X991Y539D02*
X994Y539D01*
X1006Y539D02*
X1017Y539D01*
X1034Y539D02*
X1036Y539D01*
X1040Y539D02*
X1043Y539D01*
X1192Y539D02*
X1199Y539D01*
X0Y538D02*
X7Y538D01*
X330Y538D02*
X331Y538D01*
X341Y538D02*
X344Y538D01*
X356Y538D02*
X359Y538D01*
X363Y538D02*
X366Y538D01*
X378Y538D02*
X391Y538D01*
X407Y538D02*
X409Y538D01*
X413Y538D02*
X416Y538D01*
X967Y538D02*
X970Y538D01*
X983Y538D02*
X986Y538D01*
X991Y538D02*
X994Y538D01*
X1005Y538D02*
X1018Y538D01*
X1034Y538D02*
X1036Y538D01*
X1040Y538D02*
X1043Y538D01*
X1192Y538D02*
X1199Y538D01*
X0Y537D02*
X7Y537D01*
X330Y537D02*
X332Y537D01*
X342Y537D02*
X345Y537D01*
X356Y537D02*
X359Y537D01*
X363Y537D02*
X365Y537D01*
X378Y537D02*
X380Y537D01*
X389Y537D02*
X391Y537D01*
X407Y537D02*
X409Y537D01*
X413Y537D02*
X416Y537D01*
X968Y537D02*
X971Y537D01*
X983Y537D02*
X986Y537D01*
X990Y537D02*
X993Y537D01*
X1005Y537D02*
X1018Y537D01*
X1034Y537D02*
X1036Y537D01*
X1040Y537D02*
X1043Y537D01*
X1192Y537D02*
X1199Y537D01*
X0Y536D02*
X7Y536D01*
X330Y536D02*
X332Y536D01*
X342Y536D02*
X345Y536D01*
X356Y536D02*
X359Y536D01*
X362Y536D02*
X365Y536D01*
X377Y536D02*
X380Y536D01*
X389Y536D02*
X392Y536D01*
X407Y536D02*
X409Y536D01*
X413Y536D02*
X416Y536D01*
X957Y536D02*
X959Y536D01*
X969Y536D02*
X972Y536D01*
X983Y536D02*
X986Y536D01*
X990Y536D02*
X993Y536D01*
X1005Y536D02*
X1007Y536D01*
X1016Y536D02*
X1018Y536D01*
X1034Y536D02*
X1036Y536D01*
X1040Y536D02*
X1043Y536D01*
X1192Y536D02*
X1199Y536D01*
X0Y535D02*
X7Y535D01*
X330Y535D02*
X345Y535D01*
X354Y535D02*
X364Y535D01*
X377Y535D02*
X380Y535D01*
X389Y535D02*
X392Y535D01*
X401Y535D02*
X416Y535D01*
X957Y535D02*
X959Y535D01*
X969Y535D02*
X972Y535D01*
X983Y535D02*
X986Y535D01*
X989Y535D02*
X992Y535D01*
X1004Y535D02*
X1007Y535D01*
X1016Y535D02*
X1018Y535D01*
X1034Y535D02*
X1036Y535D01*
X1040Y535D02*
X1043Y535D01*
X1192Y535D02*
X1199Y535D01*
X0Y534D02*
X7Y534D01*
X331Y534D02*
X344Y534D01*
X353Y534D02*
X364Y534D01*
X377Y534D02*
X379Y534D01*
X390Y534D02*
X392Y534D01*
X400Y534D02*
X416Y534D01*
X957Y534D02*
X972Y534D01*
X981Y534D02*
X992Y534D01*
X1004Y534D02*
X1007Y534D01*
X1016Y534D02*
X1019Y534D01*
X1028Y534D02*
X1043Y534D01*
X1192Y534D02*
X1199Y534D01*
X0Y533D02*
X7Y533D01*
X332Y533D02*
X343Y533D01*
X353Y533D02*
X363Y533D01*
X377Y533D02*
X379Y533D01*
X390Y533D02*
X392Y533D01*
X401Y533D02*
X415Y533D01*
X957Y533D02*
X971Y533D01*
X980Y533D02*
X991Y533D01*
X1004Y533D02*
X1006Y533D01*
X1017Y533D02*
X1019Y533D01*
X1027Y533D02*
X1043Y533D01*
X1192Y533D02*
X1199Y533D01*
X0Y532D02*
X7Y532D01*
X958Y532D02*
X971Y532D01*
X980Y532D02*
X990Y532D01*
X1004Y532D02*
X1006Y532D01*
X1017Y532D02*
X1019Y532D01*
X1028Y532D02*
X1043Y532D01*
X1192Y532D02*
X1199Y532D01*
X0Y531D02*
X7Y531D01*
X961Y531D02*
X969Y531D01*
X981Y531D02*
X988Y531D01*
X1005Y531D02*
X1005Y531D01*
X1018Y531D02*
X1018Y531D01*
X1029Y531D02*
X1041Y531D01*
X1192Y531D02*
X1199Y531D01*
X0Y530D02*
X7Y530D01*
X1192Y530D02*
X1199Y530D01*
X0Y529D02*
X7Y529D01*
X1192Y529D02*
X1199Y529D01*
X0Y528D02*
X7Y528D01*
X1192Y528D02*
X1199Y528D01*
X0Y527D02*
X7Y527D01*
X1192Y527D02*
X1199Y527D01*
X0Y526D02*
X7Y526D01*
X1192Y526D02*
X1199Y526D01*
X0Y525D02*
X7Y525D01*
X1192Y525D02*
X1199Y525D01*
X0Y524D02*
X7Y524D01*
X1192Y524D02*
X1199Y524D01*
X0Y523D02*
X7Y523D01*
X1192Y523D02*
X1199Y523D01*
X0Y522D02*
X7Y522D01*
X1192Y522D02*
X1199Y522D01*
X0Y521D02*
X7Y521D01*
X1192Y521D02*
X1199Y521D01*
X0Y520D02*
X7Y520D01*
X1192Y520D02*
X1199Y520D01*
X0Y519D02*
X7Y519D01*
X1192Y519D02*
X1199Y519D01*
X0Y518D02*
X7Y518D01*
X215Y518D02*
X217Y518D01*
X299Y518D02*
X301Y518D01*
X1192Y518D02*
X1199Y518D01*
X0Y517D02*
X7Y517D01*
X215Y517D02*
X222Y517D01*
X294Y517D02*
X301Y517D01*
X1192Y517D02*
X1199Y517D01*
X0Y516D02*
X7Y516D01*
X215Y516D02*
X222Y516D01*
X294Y516D02*
X301Y516D01*
X1192Y516D02*
X1199Y516D01*
X0Y515D02*
X7Y515D01*
X215Y515D02*
X222Y515D01*
X294Y515D02*
X301Y515D01*
X1192Y515D02*
X1199Y515D01*
X0Y514D02*
X7Y514D01*
X215Y514D02*
X222Y514D01*
X294Y514D02*
X301Y514D01*
X1192Y514D02*
X1199Y514D01*
X0Y513D02*
X7Y513D01*
X215Y513D02*
X223Y513D01*
X293Y513D02*
X301Y513D01*
X1192Y513D02*
X1199Y513D01*
X0Y512D02*
X7Y512D01*
X216Y512D02*
X223Y512D01*
X293Y512D02*
X300Y512D01*
X1192Y512D02*
X1199Y512D01*
X0Y511D02*
X7Y511D01*
X216Y511D02*
X224Y511D01*
X292Y511D02*
X300Y511D01*
X1192Y511D02*
X1199Y511D01*
X0Y510D02*
X7Y510D01*
X216Y510D02*
X226Y510D01*
X290Y510D02*
X300Y510D01*
X1192Y510D02*
X1199Y510D01*
X0Y509D02*
X7Y509D01*
X217Y509D02*
X227Y509D01*
X289Y509D02*
X299Y509D01*
X1192Y509D02*
X1199Y509D01*
X0Y508D02*
X7Y508D01*
X217Y508D02*
X226Y508D01*
X290Y508D02*
X299Y508D01*
X1192Y508D02*
X1199Y508D01*
X0Y507D02*
X7Y507D01*
X218Y507D02*
X226Y507D01*
X290Y507D02*
X298Y507D01*
X1192Y507D02*
X1199Y507D01*
X0Y506D02*
X7Y506D01*
X219Y506D02*
X226Y506D01*
X290Y506D02*
X297Y506D01*
X1192Y506D02*
X1199Y506D01*
X0Y505D02*
X7Y505D01*
X220Y505D02*
X226Y505D01*
X290Y505D02*
X296Y505D01*
X1192Y505D02*
X1199Y505D01*
X0Y504D02*
X7Y504D01*
X222Y504D02*
X226Y504D01*
X290Y504D02*
X294Y504D01*
X1192Y504D02*
X1199Y504D01*
X0Y503D02*
X7Y503D01*
X224Y503D02*
X225Y503D01*
X291Y503D02*
X292Y503D01*
X1192Y503D02*
X1199Y503D01*
X0Y502D02*
X7Y502D01*
X1192Y502D02*
X1199Y502D01*
X0Y501D02*
X7Y501D01*
X1192Y501D02*
X1199Y501D01*
X0Y500D02*
X7Y500D01*
X1192Y500D02*
X1199Y500D01*
X0Y499D02*
X7Y499D01*
X1192Y499D02*
X1199Y499D01*
X0Y498D02*
X7Y498D01*
X1192Y498D02*
X1199Y498D01*
X0Y497D02*
X7Y497D01*
X1192Y497D02*
X1199Y497D01*
X0Y496D02*
X7Y496D01*
X1192Y496D02*
X1199Y496D01*
X0Y495D02*
X7Y495D01*
X1192Y495D02*
X1199Y495D01*
X0Y494D02*
X7Y494D01*
X1192Y494D02*
X1199Y494D01*
X0Y493D02*
X7Y493D01*
X1192Y493D02*
X1199Y493D01*
X0Y492D02*
X7Y492D01*
X1192Y492D02*
X1199Y492D01*
X0Y491D02*
X7Y491D01*
X1192Y491D02*
X1199Y491D01*
X0Y490D02*
X7Y490D01*
X1192Y490D02*
X1199Y490D01*
X0Y489D02*
X7Y489D01*
X1192Y489D02*
X1199Y489D01*
X0Y488D02*
X7Y488D01*
X1192Y488D02*
X1199Y488D01*
X0Y487D02*
X7Y487D01*
X1192Y487D02*
X1199Y487D01*
X0Y486D02*
X7Y486D01*
X225Y486D02*
X225Y486D01*
X291Y486D02*
X291Y486D01*
X1192Y486D02*
X1199Y486D01*
X0Y485D02*
X7Y485D01*
X223Y485D02*
X226Y485D01*
X290Y485D02*
X293Y485D01*
X1192Y485D02*
X1199Y485D01*
X0Y484D02*
X7Y484D01*
X221Y484D02*
X226Y484D01*
X290Y484D02*
X295Y484D01*
X1192Y484D02*
X1199Y484D01*
X0Y483D02*
X7Y483D01*
X220Y483D02*
X226Y483D01*
X290Y483D02*
X296Y483D01*
X1192Y483D02*
X1199Y483D01*
X0Y482D02*
X7Y482D01*
X219Y482D02*
X226Y482D01*
X290Y482D02*
X297Y482D01*
X1192Y482D02*
X1199Y482D01*
X0Y481D02*
X7Y481D01*
X218Y481D02*
X226Y481D01*
X290Y481D02*
X298Y481D01*
X1192Y481D02*
X1199Y481D01*
X0Y480D02*
X7Y480D01*
X217Y480D02*
X227Y480D01*
X289Y480D02*
X299Y480D01*
X1192Y480D02*
X1199Y480D01*
X0Y479D02*
X7Y479D01*
X217Y479D02*
X227Y479D01*
X289Y479D02*
X299Y479D01*
X1192Y479D02*
X1199Y479D01*
X0Y478D02*
X7Y478D01*
X216Y478D02*
X225Y478D01*
X291Y478D02*
X300Y478D01*
X1192Y478D02*
X1199Y478D01*
X0Y477D02*
X7Y477D01*
X216Y477D02*
X224Y477D01*
X292Y477D02*
X300Y477D01*
X1192Y477D02*
X1199Y477D01*
X0Y476D02*
X7Y476D01*
X215Y476D02*
X223Y476D01*
X293Y476D02*
X301Y476D01*
X1192Y476D02*
X1199Y476D01*
X0Y475D02*
X7Y475D01*
X215Y475D02*
X223Y475D01*
X293Y475D02*
X301Y475D01*
X1192Y475D02*
X1199Y475D01*
X0Y474D02*
X7Y474D01*
X215Y474D02*
X222Y474D01*
X294Y474D02*
X301Y474D01*
X1192Y474D02*
X1199Y474D01*
X0Y473D02*
X7Y473D01*
X215Y473D02*
X222Y473D01*
X294Y473D02*
X301Y473D01*
X1192Y473D02*
X1199Y473D01*
X0Y472D02*
X7Y472D01*
X215Y472D02*
X222Y472D01*
X294Y472D02*
X301Y472D01*
X1192Y472D02*
X1199Y472D01*
X0Y471D02*
X7Y471D01*
X215Y471D02*
X220Y471D01*
X296Y471D02*
X301Y471D01*
X1192Y471D02*
X1199Y471D01*
X0Y470D02*
X7Y470D01*
X1192Y470D02*
X1199Y470D01*
X0Y469D02*
X7Y469D01*
X1192Y469D02*
X1199Y469D01*
X0Y468D02*
X7Y468D01*
X1192Y468D02*
X1199Y468D01*
X0Y467D02*
X7Y467D01*
X1192Y467D02*
X1199Y467D01*
X0Y466D02*
X7Y466D01*
X1192Y466D02*
X1199Y466D01*
X0Y465D02*
X7Y465D01*
X1192Y465D02*
X1199Y465D01*
X0Y464D02*
X7Y464D01*
X1192Y464D02*
X1199Y464D01*
X0Y463D02*
X7Y463D01*
X1192Y463D02*
X1199Y463D01*
X0Y462D02*
X7Y462D01*
X1192Y462D02*
X1199Y462D01*
X0Y461D02*
X7Y461D01*
X1192Y461D02*
X1199Y461D01*
X0Y460D02*
X7Y460D01*
X1192Y460D02*
X1199Y460D01*
X0Y459D02*
X7Y459D01*
X1192Y459D02*
X1199Y459D01*
X0Y458D02*
X7Y458D01*
X1192Y458D02*
X1199Y458D01*
X0Y457D02*
X7Y457D01*
X333Y457D02*
X340Y457D01*
X354Y457D02*
X360Y457D01*
X402Y457D02*
X412Y457D01*
X960Y457D02*
X968Y457D01*
X982Y457D02*
X987Y457D01*
X1029Y457D02*
X1040Y457D01*
X1192Y457D02*
X1199Y457D01*
X0Y456D02*
X7Y456D01*
X331Y456D02*
X343Y456D01*
X353Y456D02*
X363Y456D01*
X383Y456D02*
X385Y456D01*
X400Y456D02*
X414Y456D01*
X958Y456D02*
X970Y456D01*
X980Y456D02*
X990Y456D01*
X1010Y456D02*
X1012Y456D01*
X1028Y456D02*
X1042Y456D01*
X1192Y456D02*
X1199Y456D01*
X0Y455D02*
X7Y455D01*
X330Y455D02*
X344Y455D01*
X353Y455D02*
X364Y455D01*
X383Y455D02*
X386Y455D01*
X400Y455D02*
X415Y455D01*
X957Y455D02*
X971Y455D01*
X980Y455D02*
X991Y455D01*
X1010Y455D02*
X1013Y455D01*
X1027Y455D02*
X1042Y455D01*
X1192Y455D02*
X1199Y455D01*
X0Y454D02*
X7Y454D01*
X329Y454D02*
X344Y454D01*
X354Y454D02*
X364Y454D01*
X383Y454D02*
X386Y454D01*
X401Y454D02*
X415Y454D01*
X957Y454D02*
X972Y454D01*
X981Y454D02*
X991Y454D01*
X1010Y454D02*
X1013Y454D01*
X1028Y454D02*
X1043Y454D01*
X1192Y454D02*
X1199Y454D01*
X0Y453D02*
X7Y453D01*
X329Y453D02*
X332Y453D01*
X342Y453D02*
X345Y453D01*
X356Y453D02*
X359Y453D01*
X362Y453D02*
X365Y453D01*
X382Y453D02*
X386Y453D01*
X413Y453D02*
X416Y453D01*
X957Y453D02*
X959Y453D01*
X969Y453D02*
X972Y453D01*
X983Y453D02*
X986Y453D01*
X989Y453D02*
X992Y453D01*
X1009Y453D02*
X1013Y453D01*
X1040Y453D02*
X1043Y453D01*
X1192Y453D02*
X1199Y453D01*
X0Y452D02*
X7Y452D01*
X330Y452D02*
X333Y452D01*
X343Y452D02*
X345Y452D01*
X356Y452D02*
X359Y452D01*
X363Y452D02*
X365Y452D01*
X382Y452D02*
X386Y452D01*
X413Y452D02*
X416Y452D01*
X957Y452D02*
X960Y452D01*
X970Y452D02*
X972Y452D01*
X983Y452D02*
X986Y452D01*
X990Y452D02*
X992Y452D01*
X1009Y452D02*
X1014Y452D01*
X1040Y452D02*
X1043Y452D01*
X1192Y452D02*
X1199Y452D01*
X0Y451D02*
X7Y451D01*
X330Y451D02*
X333Y451D01*
X356Y451D02*
X359Y451D01*
X363Y451D02*
X366Y451D01*
X382Y451D02*
X387Y451D01*
X413Y451D02*
X416Y451D01*
X957Y451D02*
X961Y451D01*
X983Y451D02*
X986Y451D01*
X990Y451D02*
X993Y451D01*
X1009Y451D02*
X1014Y451D01*
X1040Y451D02*
X1043Y451D01*
X1192Y451D02*
X1199Y451D01*
X0Y450D02*
X7Y450D01*
X331Y450D02*
X334Y450D01*
X356Y450D02*
X359Y450D01*
X364Y450D02*
X366Y450D01*
X381Y450D02*
X387Y450D01*
X413Y450D02*
X416Y450D01*
X958Y450D02*
X961Y450D01*
X983Y450D02*
X986Y450D01*
X991Y450D02*
X994Y450D01*
X1009Y450D02*
X1014Y450D01*
X1040Y450D02*
X1043Y450D01*
X1192Y450D02*
X1199Y450D01*
X0Y449D02*
X7Y449D01*
X332Y449D02*
X335Y449D01*
X356Y449D02*
X359Y449D01*
X364Y449D02*
X367Y449D01*
X381Y449D02*
X387Y449D01*
X413Y449D02*
X416Y449D01*
X959Y449D02*
X962Y449D01*
X983Y449D02*
X986Y449D01*
X991Y449D02*
X994Y449D01*
X1008Y449D02*
X1015Y449D01*
X1040Y449D02*
X1043Y449D01*
X1192Y449D02*
X1199Y449D01*
X0Y448D02*
X7Y448D01*
X332Y448D02*
X336Y448D01*
X356Y448D02*
X359Y448D01*
X365Y448D02*
X367Y448D01*
X381Y448D02*
X383Y448D01*
X385Y448D02*
X388Y448D01*
X413Y448D02*
X416Y448D01*
X960Y448D02*
X963Y448D01*
X983Y448D02*
X986Y448D01*
X992Y448D02*
X995Y448D01*
X1008Y448D02*
X1010Y448D01*
X1012Y448D02*
X1015Y448D01*
X1040Y448D02*
X1043Y448D01*
X1192Y448D02*
X1199Y448D01*
X0Y447D02*
X7Y447D01*
X333Y447D02*
X336Y447D01*
X356Y447D02*
X359Y447D01*
X365Y447D02*
X368Y447D01*
X381Y447D02*
X383Y447D01*
X385Y447D02*
X388Y447D01*
X413Y447D02*
X416Y447D01*
X960Y447D02*
X964Y447D01*
X983Y447D02*
X986Y447D01*
X992Y447D02*
X995Y447D01*
X1008Y447D02*
X1010Y447D01*
X1013Y447D02*
X1015Y447D01*
X1040Y447D02*
X1043Y447D01*
X1192Y447D02*
X1199Y447D01*
X0Y446D02*
X7Y446D01*
X334Y446D02*
X337Y446D01*
X356Y446D02*
X359Y446D01*
X366Y446D02*
X368Y446D01*
X380Y446D02*
X383Y446D01*
X386Y446D02*
X388Y446D01*
X413Y446D02*
X416Y446D01*
X961Y446D02*
X964Y446D01*
X983Y446D02*
X986Y446D01*
X993Y446D02*
X995Y446D01*
X1007Y446D02*
X1010Y446D01*
X1013Y446D02*
X1015Y446D01*
X1040Y446D02*
X1043Y446D01*
X1192Y446D02*
X1199Y446D01*
X0Y445D02*
X7Y445D01*
X335Y445D02*
X338Y445D01*
X356Y445D02*
X359Y445D01*
X366Y445D02*
X368Y445D01*
X380Y445D02*
X382Y445D01*
X386Y445D02*
X388Y445D01*
X401Y445D02*
X415Y445D01*
X962Y445D02*
X965Y445D01*
X983Y445D02*
X986Y445D01*
X993Y445D02*
X995Y445D01*
X1007Y445D02*
X1010Y445D01*
X1013Y445D02*
X1016Y445D01*
X1029Y445D02*
X1043Y445D01*
X1192Y445D02*
X1199Y445D01*
X0Y444D02*
X7Y444D01*
X336Y444D02*
X339Y444D01*
X356Y444D02*
X359Y444D01*
X366Y444D02*
X368Y444D01*
X380Y444D02*
X382Y444D01*
X386Y444D02*
X389Y444D01*
X401Y444D02*
X415Y444D01*
X963Y444D02*
X966Y444D01*
X983Y444D02*
X986Y444D01*
X993Y444D02*
X995Y444D01*
X1007Y444D02*
X1009Y444D01*
X1014Y444D02*
X1016Y444D01*
X1028Y444D02*
X1042Y444D01*
X1192Y444D02*
X1199Y444D01*
X0Y443D02*
X7Y443D01*
X336Y443D02*
X340Y443D01*
X356Y443D02*
X359Y443D01*
X366Y443D02*
X368Y443D01*
X379Y443D02*
X382Y443D01*
X387Y443D02*
X389Y443D01*
X400Y443D02*
X414Y443D01*
X964Y443D02*
X967Y443D01*
X983Y443D02*
X986Y443D01*
X993Y443D02*
X995Y443D01*
X1007Y443D02*
X1009Y443D01*
X1014Y443D02*
X1016Y443D01*
X1027Y443D02*
X1041Y443D01*
X1192Y443D02*
X1199Y443D01*
X0Y442D02*
X7Y442D01*
X337Y442D02*
X340Y442D01*
X356Y442D02*
X359Y442D01*
X365Y442D02*
X368Y442D01*
X379Y442D02*
X382Y442D01*
X387Y442D02*
X389Y442D01*
X400Y442D02*
X403Y442D01*
X964Y442D02*
X968Y442D01*
X983Y442D02*
X986Y442D01*
X993Y442D02*
X995Y442D01*
X1006Y442D02*
X1009Y442D01*
X1014Y442D02*
X1017Y442D01*
X1027Y442D02*
X1030Y442D01*
X1192Y442D02*
X1199Y442D01*
X0Y441D02*
X7Y441D01*
X338Y441D02*
X341Y441D01*
X356Y441D02*
X359Y441D01*
X365Y441D02*
X368Y441D01*
X379Y441D02*
X381Y441D01*
X387Y441D02*
X390Y441D01*
X400Y441D02*
X403Y441D01*
X965Y441D02*
X968Y441D01*
X983Y441D02*
X986Y441D01*
X992Y441D02*
X995Y441D01*
X1006Y441D02*
X1008Y441D01*
X1014Y441D02*
X1017Y441D01*
X1027Y441D02*
X1030Y441D01*
X1192Y441D02*
X1199Y441D01*
X0Y440D02*
X7Y440D01*
X339Y440D02*
X342Y440D01*
X356Y440D02*
X359Y440D01*
X364Y440D02*
X367Y440D01*
X378Y440D02*
X390Y440D01*
X400Y440D02*
X403Y440D01*
X966Y440D02*
X969Y440D01*
X983Y440D02*
X986Y440D01*
X992Y440D02*
X994Y440D01*
X1006Y440D02*
X1017Y440D01*
X1027Y440D02*
X1030Y440D01*
X1192Y440D02*
X1199Y440D01*
X0Y439D02*
X7Y439D01*
X339Y439D02*
X343Y439D01*
X356Y439D02*
X359Y439D01*
X364Y439D02*
X367Y439D01*
X378Y439D02*
X390Y439D01*
X400Y439D02*
X403Y439D01*
X967Y439D02*
X970Y439D01*
X983Y439D02*
X986Y439D01*
X991Y439D02*
X994Y439D01*
X1005Y439D02*
X1017Y439D01*
X1027Y439D02*
X1030Y439D01*
X1192Y439D02*
X1199Y439D01*
X0Y438D02*
X7Y438D01*
X340Y438D02*
X343Y438D01*
X356Y438D02*
X359Y438D01*
X363Y438D02*
X366Y438D01*
X378Y438D02*
X391Y438D01*
X400Y438D02*
X403Y438D01*
X967Y438D02*
X971Y438D01*
X983Y438D02*
X986Y438D01*
X991Y438D02*
X993Y438D01*
X1005Y438D02*
X1018Y438D01*
X1027Y438D02*
X1030Y438D01*
X1192Y438D02*
X1199Y438D01*
X0Y437D02*
X7Y437D01*
X330Y437D02*
X331Y437D01*
X341Y437D02*
X344Y437D01*
X356Y437D02*
X359Y437D01*
X363Y437D02*
X366Y437D01*
X378Y437D02*
X380Y437D01*
X388Y437D02*
X391Y437D01*
X400Y437D02*
X403Y437D01*
X957Y437D02*
X958Y437D01*
X968Y437D02*
X971Y437D01*
X983Y437D02*
X986Y437D01*
X990Y437D02*
X993Y437D01*
X1005Y437D02*
X1008Y437D01*
X1015Y437D02*
X1018Y437D01*
X1027Y437D02*
X1030Y437D01*
X1192Y437D02*
X1199Y437D01*
X0Y436D02*
X7Y436D01*
X329Y436D02*
X332Y436D01*
X342Y436D02*
X345Y436D01*
X356Y436D02*
X359Y436D01*
X362Y436D02*
X365Y436D01*
X377Y436D02*
X380Y436D01*
X389Y436D02*
X391Y436D01*
X400Y436D02*
X403Y436D01*
X957Y436D02*
X959Y436D01*
X969Y436D02*
X972Y436D01*
X983Y436D02*
X986Y436D01*
X989Y436D02*
X992Y436D01*
X1005Y436D02*
X1007Y436D01*
X1016Y436D02*
X1018Y436D01*
X1027Y436D02*
X1030Y436D01*
X1192Y436D02*
X1199Y436D01*
X0Y435D02*
X7Y435D01*
X330Y435D02*
X332Y435D01*
X342Y435D02*
X345Y435D01*
X356Y435D02*
X359Y435D01*
X361Y435D02*
X365Y435D01*
X377Y435D02*
X379Y435D01*
X389Y435D02*
X391Y435D01*
X400Y435D02*
X403Y435D01*
X957Y435D02*
X960Y435D01*
X969Y435D02*
X972Y435D01*
X983Y435D02*
X986Y435D01*
X989Y435D02*
X992Y435D01*
X1004Y435D02*
X1007Y435D01*
X1016Y435D02*
X1019Y435D01*
X1027Y435D02*
X1030Y435D01*
X1192Y435D02*
X1199Y435D01*
X0Y434D02*
X7Y434D01*
X330Y434D02*
X344Y434D01*
X353Y434D02*
X364Y434D01*
X377Y434D02*
X379Y434D01*
X389Y434D02*
X392Y434D01*
X400Y434D02*
X415Y434D01*
X957Y434D02*
X972Y434D01*
X980Y434D02*
X991Y434D01*
X1004Y434D02*
X1006Y434D01*
X1016Y434D02*
X1019Y434D01*
X1027Y434D02*
X1042Y434D01*
X1192Y434D02*
X1199Y434D01*
X0Y433D02*
X7Y433D01*
X331Y433D02*
X344Y433D01*
X353Y433D02*
X363Y433D01*
X377Y433D02*
X379Y433D01*
X390Y433D02*
X392Y433D01*
X400Y433D02*
X415Y433D01*
X958Y433D02*
X971Y433D01*
X980Y433D02*
X990Y433D01*
X1004Y433D02*
X1006Y433D01*
X1017Y433D02*
X1019Y433D01*
X1027Y433D02*
X1043Y433D01*
X1192Y433D02*
X1199Y433D01*
X0Y432D02*
X7Y432D01*
X332Y432D02*
X343Y432D01*
X354Y432D02*
X362Y432D01*
X377Y432D02*
X378Y432D01*
X390Y432D02*
X391Y432D01*
X400Y432D02*
X415Y432D01*
X959Y432D02*
X970Y432D01*
X981Y432D02*
X989Y432D01*
X1004Y432D02*
X1005Y432D01*
X1017Y432D02*
X1019Y432D01*
X1027Y432D02*
X1042Y432D01*
X1192Y432D02*
X1199Y432D01*
X0Y431D02*
X7Y431D01*
X1192Y431D02*
X1199Y431D01*
X0Y430D02*
X7Y430D01*
X1192Y430D02*
X1199Y430D01*
X0Y429D02*
X7Y429D01*
X1192Y429D02*
X1199Y429D01*
X0Y428D02*
X7Y428D01*
X1192Y428D02*
X1199Y428D01*
X0Y427D02*
X7Y427D01*
X1192Y427D02*
X1199Y427D01*
X0Y426D02*
X7Y426D01*
X1192Y426D02*
X1199Y426D01*
X0Y425D02*
X7Y425D01*
X1192Y425D02*
X1199Y425D01*
X0Y424D02*
X7Y424D01*
X1192Y424D02*
X1199Y424D01*
X0Y423D02*
X7Y423D01*
X1192Y423D02*
X1199Y423D01*
X0Y422D02*
X7Y422D01*
X1192Y422D02*
X1199Y422D01*
X0Y421D02*
X7Y421D01*
X1192Y421D02*
X1199Y421D01*
X0Y420D02*
X7Y420D01*
X1192Y420D02*
X1199Y420D01*
X0Y419D02*
X7Y419D01*
X1192Y419D02*
X1199Y419D01*
X0Y418D02*
X7Y418D01*
X1192Y418D02*
X1199Y418D01*
X0Y417D02*
X7Y417D01*
X1192Y417D02*
X1199Y417D01*
X0Y416D02*
X7Y416D01*
X215Y416D02*
X216Y416D01*
X300Y416D02*
X301Y416D01*
X1192Y416D02*
X1199Y416D01*
X0Y415D02*
X7Y415D01*
X215Y415D02*
X221Y415D01*
X295Y415D02*
X301Y415D01*
X1192Y415D02*
X1199Y415D01*
X0Y414D02*
X7Y414D01*
X215Y414D02*
X222Y414D01*
X294Y414D02*
X301Y414D01*
X1192Y414D02*
X1199Y414D01*
X0Y413D02*
X7Y413D01*
X215Y413D02*
X222Y413D01*
X294Y413D02*
X301Y413D01*
X1192Y413D02*
X1199Y413D01*
X0Y412D02*
X7Y412D01*
X215Y412D02*
X222Y412D01*
X294Y412D02*
X301Y412D01*
X1192Y412D02*
X1199Y412D01*
X0Y411D02*
X7Y411D01*
X215Y411D02*
X223Y411D01*
X293Y411D02*
X301Y411D01*
X1192Y411D02*
X1199Y411D01*
X0Y410D02*
X7Y410D01*
X216Y410D02*
X223Y410D01*
X293Y410D02*
X300Y410D01*
X1192Y410D02*
X1199Y410D01*
X0Y409D02*
X7Y409D01*
X216Y409D02*
X224Y409D01*
X292Y409D02*
X300Y409D01*
X1192Y409D02*
X1199Y409D01*
X0Y408D02*
X7Y408D01*
X216Y408D02*
X226Y408D01*
X290Y408D02*
X300Y408D01*
X1192Y408D02*
X1199Y408D01*
X0Y407D02*
X7Y407D01*
X217Y407D02*
X227Y407D01*
X289Y407D02*
X299Y407D01*
X1192Y407D02*
X1199Y407D01*
X0Y406D02*
X7Y406D01*
X217Y406D02*
X226Y406D01*
X290Y406D02*
X299Y406D01*
X1192Y406D02*
X1199Y406D01*
X0Y405D02*
X7Y405D01*
X218Y405D02*
X226Y405D01*
X290Y405D02*
X298Y405D01*
X1192Y405D02*
X1199Y405D01*
X0Y404D02*
X7Y404D01*
X219Y404D02*
X226Y404D01*
X290Y404D02*
X297Y404D01*
X1192Y404D02*
X1199Y404D01*
X0Y403D02*
X7Y403D01*
X220Y403D02*
X226Y403D01*
X290Y403D02*
X296Y403D01*
X1192Y403D02*
X1199Y403D01*
X0Y402D02*
X7Y402D01*
X221Y402D02*
X226Y402D01*
X290Y402D02*
X295Y402D01*
X1192Y402D02*
X1199Y402D01*
X0Y401D02*
X7Y401D01*
X223Y401D02*
X225Y401D01*
X291Y401D02*
X293Y401D01*
X1192Y401D02*
X1199Y401D01*
X0Y400D02*
X7Y400D01*
X1192Y400D02*
X1199Y400D01*
X0Y399D02*
X7Y399D01*
X1192Y399D02*
X1199Y399D01*
X0Y398D02*
X7Y398D01*
X1192Y398D02*
X1199Y398D01*
X0Y397D02*
X7Y397D01*
X1192Y397D02*
X1199Y397D01*
X0Y396D02*
X7Y396D01*
X1192Y396D02*
X1199Y396D01*
X0Y395D02*
X7Y395D01*
X1192Y395D02*
X1199Y395D01*
X0Y394D02*
X7Y394D01*
X1192Y394D02*
X1199Y394D01*
X0Y393D02*
X7Y393D01*
X1192Y393D02*
X1199Y393D01*
X0Y392D02*
X7Y392D01*
X1192Y392D02*
X1199Y392D01*
X0Y391D02*
X7Y391D01*
X1192Y391D02*
X1199Y391D01*
X0Y390D02*
X7Y390D01*
X1192Y390D02*
X1199Y390D01*
X0Y389D02*
X7Y389D01*
X1192Y389D02*
X1199Y389D01*
X0Y388D02*
X7Y388D01*
X1192Y388D02*
X1199Y388D01*
X0Y387D02*
X7Y387D01*
X1192Y387D02*
X1199Y387D01*
X0Y386D02*
X7Y386D01*
X1192Y386D02*
X1199Y386D01*
X0Y385D02*
X7Y385D01*
X1192Y385D02*
X1199Y385D01*
X0Y384D02*
X7Y384D01*
X1192Y384D02*
X1199Y384D01*
X0Y383D02*
X7Y383D01*
X1192Y383D02*
X1199Y383D01*
X0Y382D02*
X7Y382D01*
X1192Y382D02*
X1199Y382D01*
X0Y381D02*
X7Y381D01*
X1192Y381D02*
X1199Y381D01*
X0Y380D02*
X7Y380D01*
X1192Y380D02*
X1199Y380D01*
X0Y379D02*
X7Y379D01*
X1192Y379D02*
X1199Y379D01*
X0Y378D02*
X7Y378D01*
X1192Y378D02*
X1199Y378D01*
X0Y377D02*
X7Y377D01*
X1192Y377D02*
X1199Y377D01*
X0Y376D02*
X7Y376D01*
X1192Y376D02*
X1199Y376D01*
X0Y375D02*
X7Y375D01*
X1192Y375D02*
X1199Y375D01*
X0Y374D02*
X7Y374D01*
X1192Y374D02*
X1199Y374D01*
X0Y373D02*
X7Y373D01*
X1192Y373D02*
X1199Y373D01*
X0Y372D02*
X7Y372D01*
X1192Y372D02*
X1199Y372D01*
X0Y371D02*
X7Y371D01*
X1192Y371D02*
X1199Y371D01*
X0Y370D02*
X7Y370D01*
X1192Y370D02*
X1199Y370D01*
X0Y369D02*
X7Y369D01*
X1192Y369D02*
X1199Y369D01*
X0Y368D02*
X7Y368D01*
X1192Y368D02*
X1199Y368D01*
X0Y367D02*
X7Y367D01*
X1192Y367D02*
X1199Y367D01*
X0Y366D02*
X7Y366D01*
X1192Y366D02*
X1199Y366D01*
X0Y365D02*
X7Y365D01*
X1192Y365D02*
X1199Y365D01*
X0Y364D02*
X7Y364D01*
X1192Y364D02*
X1199Y364D01*
X0Y363D02*
X7Y363D01*
X1192Y363D02*
X1199Y363D01*
X0Y362D02*
X7Y362D01*
X1192Y362D02*
X1199Y362D01*
X0Y361D02*
X7Y361D01*
X1192Y361D02*
X1199Y361D01*
X0Y360D02*
X7Y360D01*
X1192Y360D02*
X1199Y360D01*
X0Y359D02*
X7Y359D01*
X1192Y359D02*
X1199Y359D01*
X0Y358D02*
X7Y358D01*
X1192Y358D02*
X1199Y358D01*
X0Y357D02*
X7Y357D01*
X970Y357D02*
X972Y357D01*
X983Y357D02*
X985Y357D01*
X999Y357D02*
X1009Y357D01*
X1023Y357D02*
X1032Y357D01*
X1192Y357D02*
X1199Y357D01*
X0Y356D02*
X7Y356D01*
X156Y356D02*
X157Y356D01*
X169Y356D02*
X170Y356D01*
X185Y356D02*
X194Y356D01*
X209Y356D02*
X218Y356D01*
X970Y356D02*
X972Y356D01*
X983Y356D02*
X985Y356D01*
X998Y356D02*
X1009Y356D01*
X1022Y356D02*
X1032Y356D01*
X1192Y356D02*
X1199Y356D01*
X0Y355D02*
X7Y355D01*
X155Y355D02*
X158Y355D01*
X168Y355D02*
X171Y355D01*
X184Y355D02*
X194Y355D01*
X207Y355D02*
X218Y355D01*
X970Y355D02*
X972Y355D01*
X983Y355D02*
X985Y355D01*
X998Y355D02*
X1008Y355D01*
X1021Y355D02*
X1032Y355D01*
X1192Y355D02*
X1199Y355D01*
X0Y354D02*
X7Y354D01*
X155Y354D02*
X158Y354D01*
X168Y354D02*
X171Y354D01*
X183Y354D02*
X194Y354D01*
X207Y354D02*
X217Y354D01*
X970Y354D02*
X972Y354D01*
X983Y354D02*
X985Y354D01*
X997Y354D02*
X1000Y354D01*
X1021Y354D02*
X1024Y354D01*
X1192Y354D02*
X1199Y354D01*
X0Y353D02*
X7Y353D01*
X155Y353D02*
X158Y353D01*
X168Y353D02*
X171Y353D01*
X183Y353D02*
X186Y353D01*
X206Y353D02*
X209Y353D01*
X970Y353D02*
X972Y353D01*
X983Y353D02*
X985Y353D01*
X997Y353D02*
X999Y353D01*
X1020Y353D02*
X1023Y353D01*
X1192Y353D02*
X1199Y353D01*
X0Y352D02*
X7Y352D01*
X155Y352D02*
X158Y352D01*
X168Y352D02*
X171Y352D01*
X182Y352D02*
X185Y352D01*
X206Y352D02*
X208Y352D01*
X970Y352D02*
X972Y352D01*
X983Y352D02*
X985Y352D01*
X996Y352D02*
X999Y352D01*
X1020Y352D02*
X1022Y352D01*
X1192Y352D02*
X1199Y352D01*
X0Y351D02*
X7Y351D01*
X155Y351D02*
X158Y351D01*
X168Y351D02*
X171Y351D01*
X182Y351D02*
X184Y351D01*
X205Y351D02*
X208Y351D01*
X970Y351D02*
X972Y351D01*
X983Y351D02*
X985Y351D01*
X996Y351D02*
X998Y351D01*
X1019Y351D02*
X1022Y351D01*
X1192Y351D02*
X1199Y351D01*
X0Y350D02*
X7Y350D01*
X155Y350D02*
X158Y350D01*
X168Y350D02*
X171Y350D01*
X181Y350D02*
X184Y350D01*
X205Y350D02*
X207Y350D01*
X970Y350D02*
X973Y350D01*
X983Y350D02*
X985Y350D01*
X995Y350D02*
X998Y350D01*
X1019Y350D02*
X1021Y350D01*
X1192Y350D02*
X1199Y350D01*
X0Y349D02*
X7Y349D01*
X155Y349D02*
X158Y349D01*
X168Y349D02*
X171Y349D01*
X181Y349D02*
X183Y349D01*
X204Y349D02*
X207Y349D01*
X970Y349D02*
X973Y349D01*
X982Y349D02*
X985Y349D01*
X995Y349D02*
X997Y349D01*
X1018Y349D02*
X1021Y349D01*
X1192Y349D02*
X1199Y349D01*
X0Y348D02*
X7Y348D01*
X156Y348D02*
X158Y348D01*
X168Y348D02*
X170Y348D01*
X180Y348D02*
X183Y348D01*
X204Y348D02*
X206Y348D01*
X971Y348D02*
X973Y348D01*
X982Y348D02*
X984Y348D01*
X994Y348D02*
X997Y348D01*
X1018Y348D02*
X1020Y348D01*
X1192Y348D02*
X1199Y348D01*
X0Y347D02*
X7Y347D01*
X156Y347D02*
X159Y347D01*
X167Y347D02*
X170Y347D01*
X180Y347D02*
X182Y347D01*
X203Y347D02*
X206Y347D01*
X971Y347D02*
X974Y347D01*
X981Y347D02*
X984Y347D01*
X994Y347D02*
X996Y347D01*
X1017Y347D02*
X1020Y347D01*
X1192Y347D02*
X1199Y347D01*
X0Y346D02*
X7Y346D01*
X157Y346D02*
X159Y346D01*
X167Y346D02*
X169Y346D01*
X179Y346D02*
X182Y346D01*
X203Y346D02*
X205Y346D01*
X972Y346D02*
X974Y346D01*
X981Y346D02*
X984Y346D01*
X994Y346D02*
X996Y346D01*
X1017Y346D02*
X1020Y346D01*
X1192Y346D02*
X1199Y346D01*
X0Y345D02*
X7Y345D01*
X157Y345D02*
X160Y345D01*
X167Y345D02*
X169Y345D01*
X179Y345D02*
X182Y345D01*
X203Y345D02*
X205Y345D01*
X972Y345D02*
X974Y345D01*
X981Y345D02*
X983Y345D01*
X994Y345D02*
X996Y345D01*
X1017Y345D02*
X1019Y345D01*
X1192Y345D02*
X1199Y345D01*
X0Y344D02*
X7Y344D01*
X157Y344D02*
X160Y344D01*
X166Y344D02*
X169Y344D01*
X179Y344D02*
X181Y344D01*
X203Y344D02*
X205Y344D01*
X972Y344D02*
X975Y344D01*
X980Y344D02*
X983Y344D01*
X994Y344D02*
X996Y344D01*
X1017Y344D02*
X1020Y344D01*
X1192Y344D02*
X1199Y344D01*
X0Y343D02*
X7Y343D01*
X158Y343D02*
X160Y343D01*
X166Y343D02*
X168Y343D01*
X179Y343D02*
X181Y343D01*
X203Y343D02*
X205Y343D01*
X973Y343D02*
X975Y343D01*
X980Y343D02*
X982Y343D01*
X994Y343D02*
X996Y343D01*
X1017Y343D02*
X1020Y343D01*
X1192Y343D02*
X1199Y343D01*
X0Y342D02*
X7Y342D01*
X158Y342D02*
X161Y342D01*
X165Y342D02*
X168Y342D01*
X179Y342D02*
X182Y342D01*
X203Y342D02*
X205Y342D01*
X973Y342D02*
X976Y342D01*
X979Y342D02*
X982Y342D01*
X994Y342D02*
X997Y342D01*
X1018Y342D02*
X1020Y342D01*
X1192Y342D02*
X1199Y342D01*
X0Y341D02*
X7Y341D01*
X159Y341D02*
X161Y341D01*
X165Y341D02*
X168Y341D01*
X180Y341D02*
X182Y341D01*
X203Y341D02*
X206Y341D01*
X973Y341D02*
X976Y341D01*
X979Y341D02*
X982Y341D01*
X995Y341D02*
X997Y341D01*
X1018Y341D02*
X1021Y341D01*
X1192Y341D02*
X1199Y341D01*
X0Y340D02*
X7Y340D01*
X159Y340D02*
X161Y340D01*
X165Y340D02*
X167Y340D01*
X180Y340D02*
X183Y340D01*
X204Y340D02*
X206Y340D01*
X974Y340D02*
X976Y340D01*
X979Y340D02*
X981Y340D01*
X995Y340D02*
X998Y340D01*
X1019Y340D02*
X1021Y340D01*
X1192Y340D02*
X1199Y340D01*
X0Y339D02*
X7Y339D01*
X159Y339D02*
X162Y339D01*
X164Y339D02*
X167Y339D01*
X181Y339D02*
X183Y339D01*
X204Y339D02*
X207Y339D01*
X974Y339D02*
X981Y339D01*
X996Y339D02*
X998Y339D01*
X1019Y339D02*
X1022Y339D01*
X1192Y339D02*
X1199Y339D01*
X0Y338D02*
X7Y338D01*
X160Y338D02*
X162Y338D01*
X164Y338D02*
X166Y338D01*
X181Y338D02*
X184Y338D01*
X205Y338D02*
X207Y338D01*
X975Y338D02*
X980Y338D01*
X996Y338D02*
X999Y338D01*
X1020Y338D02*
X1022Y338D01*
X1192Y338D02*
X1199Y338D01*
X0Y337D02*
X7Y337D01*
X160Y337D02*
X166Y337D01*
X182Y337D02*
X184Y337D01*
X205Y337D02*
X208Y337D01*
X975Y337D02*
X980Y337D01*
X997Y337D02*
X999Y337D01*
X1020Y337D02*
X1023Y337D01*
X1192Y337D02*
X1199Y337D01*
X0Y336D02*
X7Y336D01*
X160Y336D02*
X166Y336D01*
X182Y336D02*
X185Y336D01*
X206Y336D02*
X208Y336D01*
X975Y336D02*
X980Y336D01*
X997Y336D02*
X1000Y336D01*
X1021Y336D02*
X1024Y336D01*
X1192Y336D02*
X1199Y336D01*
X0Y335D02*
X7Y335D01*
X161Y335D02*
X165Y335D01*
X183Y335D02*
X185Y335D01*
X206Y335D02*
X209Y335D01*
X976Y335D02*
X979Y335D01*
X998Y335D02*
X1008Y335D01*
X1021Y335D02*
X1032Y335D01*
X1192Y335D02*
X1199Y335D01*
X0Y334D02*
X7Y334D01*
X161Y334D02*
X165Y334D01*
X183Y334D02*
X194Y334D01*
X207Y334D02*
X217Y334D01*
X976Y334D02*
X979Y334D01*
X998Y334D02*
X1009Y334D01*
X1022Y334D02*
X1032Y334D01*
X1192Y334D02*
X1199Y334D01*
X0Y333D02*
X7Y333D01*
X162Y333D02*
X164Y333D01*
X184Y333D02*
X194Y333D01*
X207Y333D02*
X218Y333D01*
X977Y333D02*
X978Y333D01*
X999Y333D02*
X1008Y333D01*
X1023Y333D02*
X1032Y333D01*
X1192Y333D02*
X1199Y333D01*
X0Y332D02*
X7Y332D01*
X162Y332D02*
X164Y332D01*
X185Y332D02*
X194Y332D01*
X208Y332D02*
X218Y332D01*
X1192Y332D02*
X1199Y332D01*
X0Y331D02*
X7Y331D01*
X1192Y331D02*
X1199Y331D01*
X0Y330D02*
X7Y330D01*
X1192Y330D02*
X1199Y330D01*
X0Y329D02*
X7Y329D01*
X1192Y329D02*
X1199Y329D01*
X0Y328D02*
X7Y328D01*
X1192Y328D02*
X1199Y328D01*
X0Y327D02*
X7Y327D01*
X1192Y327D02*
X1199Y327D01*
X0Y326D02*
X7Y326D01*
X1192Y326D02*
X1199Y326D01*
X0Y325D02*
X7Y325D01*
X1192Y325D02*
X1199Y325D01*
X0Y324D02*
X7Y324D01*
X1192Y324D02*
X1199Y324D01*
X0Y323D02*
X7Y323D01*
X1192Y323D02*
X1199Y323D01*
X0Y322D02*
X7Y322D01*
X1192Y322D02*
X1199Y322D01*
X0Y321D02*
X7Y321D01*
X1192Y321D02*
X1199Y321D01*
X0Y320D02*
X7Y320D01*
X1192Y320D02*
X1199Y320D01*
X0Y319D02*
X7Y319D01*
X1192Y319D02*
X1199Y319D01*
X0Y318D02*
X7Y318D01*
X1192Y318D02*
X1199Y318D01*
X0Y317D02*
X7Y317D01*
X1192Y317D02*
X1199Y317D01*
X0Y316D02*
X7Y316D01*
X1192Y316D02*
X1199Y316D01*
X0Y315D02*
X7Y315D01*
X1192Y315D02*
X1199Y315D01*
X0Y314D02*
X7Y314D01*
X1192Y314D02*
X1199Y314D01*
X0Y313D02*
X7Y313D01*
X1192Y313D02*
X1199Y313D01*
X0Y312D02*
X7Y312D01*
X1192Y312D02*
X1199Y312D01*
X0Y311D02*
X7Y311D01*
X1192Y311D02*
X1199Y311D01*
X0Y310D02*
X7Y310D01*
X1192Y310D02*
X1199Y310D01*
X0Y309D02*
X7Y309D01*
X1192Y309D02*
X1199Y309D01*
X0Y308D02*
X7Y308D01*
X1192Y308D02*
X1199Y308D01*
X0Y307D02*
X7Y307D01*
X1192Y307D02*
X1199Y307D01*
X0Y306D02*
X7Y306D01*
X1192Y306D02*
X1199Y306D01*
X0Y305D02*
X7Y305D01*
X1192Y305D02*
X1199Y305D01*
X0Y304D02*
X7Y304D01*
X1192Y304D02*
X1199Y304D01*
X0Y303D02*
X7Y303D01*
X1192Y303D02*
X1199Y303D01*
X0Y302D02*
X7Y302D01*
X1192Y302D02*
X1199Y302D01*
X0Y301D02*
X7Y301D01*
X1192Y301D02*
X1199Y301D01*
X0Y300D02*
X7Y300D01*
X1192Y300D02*
X1199Y300D01*
X0Y299D02*
X7Y299D01*
X1192Y299D02*
X1199Y299D01*
X0Y298D02*
X7Y298D01*
X1192Y298D02*
X1199Y298D01*
X0Y297D02*
X7Y297D01*
X1192Y297D02*
X1199Y297D01*
X0Y296D02*
X7Y296D01*
X1192Y296D02*
X1199Y296D01*
X0Y295D02*
X7Y295D01*
X1192Y295D02*
X1199Y295D01*
X0Y294D02*
X7Y294D01*
X1192Y294D02*
X1199Y294D01*
X0Y293D02*
X7Y293D01*
X1192Y293D02*
X1199Y293D01*
X0Y292D02*
X7Y292D01*
X1192Y292D02*
X1199Y292D01*
X0Y291D02*
X7Y291D01*
X349Y291D02*
X350Y291D01*
X374Y291D02*
X382Y291D01*
X394Y291D02*
X398Y291D01*
X411Y291D02*
X412Y291D01*
X425Y291D02*
X434Y291D01*
X1192Y291D02*
X1199Y291D01*
X0Y290D02*
X7Y290D01*
X348Y290D02*
X351Y290D01*
X372Y290D02*
X383Y290D01*
X393Y290D02*
X399Y290D01*
X410Y290D02*
X413Y290D01*
X424Y290D02*
X436Y290D01*
X1192Y290D02*
X1199Y290D01*
X0Y289D02*
X7Y289D01*
X348Y289D02*
X351Y289D01*
X371Y289D02*
X383Y289D01*
X393Y289D02*
X399Y289D01*
X410Y289D02*
X413Y289D01*
X424Y289D02*
X437Y289D01*
X1192Y289D02*
X1199Y289D01*
X0Y288D02*
X7Y288D01*
X348Y288D02*
X351Y288D01*
X370Y288D02*
X383Y288D01*
X393Y288D02*
X399Y288D01*
X410Y288D02*
X413Y288D01*
X424Y288D02*
X438Y288D01*
X1192Y288D02*
X1199Y288D01*
X0Y287D02*
X7Y287D01*
X348Y287D02*
X351Y287D01*
X369Y287D02*
X375Y287D01*
X393Y287D02*
X400Y287D01*
X410Y287D02*
X413Y287D01*
X427Y287D02*
X431Y287D01*
X433Y287D02*
X438Y287D01*
X1192Y287D02*
X1199Y287D01*
X0Y286D02*
X7Y286D01*
X348Y286D02*
X351Y286D01*
X369Y286D02*
X373Y286D01*
X393Y286D02*
X400Y286D01*
X410Y286D02*
X413Y286D01*
X428Y286D02*
X431Y286D01*
X435Y286D02*
X439Y286D01*
X1192Y286D02*
X1199Y286D01*
X0Y285D02*
X7Y285D01*
X348Y285D02*
X351Y285D01*
X368Y285D02*
X372Y285D01*
X393Y285D02*
X401Y285D01*
X410Y285D02*
X413Y285D01*
X428Y285D02*
X431Y285D01*
X436Y285D02*
X439Y285D01*
X1192Y285D02*
X1199Y285D01*
X0Y284D02*
X7Y284D01*
X348Y284D02*
X351Y284D01*
X367Y284D02*
X372Y284D01*
X393Y284D02*
X401Y284D01*
X410Y284D02*
X413Y284D01*
X428Y284D02*
X431Y284D01*
X436Y284D02*
X440Y284D01*
X1192Y284D02*
X1199Y284D01*
X0Y283D02*
X7Y283D01*
X348Y283D02*
X351Y283D01*
X366Y283D02*
X371Y283D01*
X393Y283D02*
X402Y283D01*
X410Y283D02*
X413Y283D01*
X428Y283D02*
X431Y283D01*
X437Y283D02*
X440Y283D01*
X1192Y283D02*
X1199Y283D01*
X0Y282D02*
X7Y282D01*
X348Y282D02*
X351Y282D01*
X366Y282D02*
X370Y282D01*
X393Y282D02*
X402Y282D01*
X410Y282D02*
X413Y282D01*
X428Y282D02*
X431Y282D01*
X437Y282D02*
X441Y282D01*
X1192Y282D02*
X1199Y282D01*
X0Y281D02*
X7Y281D01*
X348Y281D02*
X351Y281D01*
X365Y281D02*
X369Y281D01*
X393Y281D02*
X397Y281D01*
X399Y281D02*
X403Y281D01*
X410Y281D02*
X413Y281D01*
X428Y281D02*
X431Y281D01*
X438Y281D02*
X441Y281D01*
X1192Y281D02*
X1199Y281D01*
X0Y280D02*
X7Y280D01*
X348Y280D02*
X351Y280D01*
X364Y280D02*
X368Y280D01*
X393Y280D02*
X397Y280D01*
X399Y280D02*
X403Y280D01*
X410Y280D02*
X413Y280D01*
X428Y280D02*
X431Y280D01*
X438Y280D02*
X442Y280D01*
X1192Y280D02*
X1199Y280D01*
X0Y279D02*
X7Y279D01*
X348Y279D02*
X351Y279D01*
X364Y279D02*
X368Y279D01*
X393Y279D02*
X397Y279D01*
X400Y279D02*
X403Y279D01*
X410Y279D02*
X413Y279D01*
X428Y279D02*
X431Y279D01*
X439Y279D02*
X442Y279D01*
X1192Y279D02*
X1199Y279D01*
X0Y278D02*
X7Y278D01*
X348Y278D02*
X351Y278D01*
X364Y278D02*
X367Y278D01*
X393Y278D02*
X397Y278D01*
X400Y278D02*
X404Y278D01*
X410Y278D02*
X413Y278D01*
X428Y278D02*
X431Y278D01*
X439Y278D02*
X443Y278D01*
X1192Y278D02*
X1199Y278D01*
X0Y277D02*
X7Y277D01*
X348Y277D02*
X351Y277D01*
X364Y277D02*
X367Y277D01*
X393Y277D02*
X397Y277D01*
X401Y277D02*
X404Y277D01*
X410Y277D02*
X413Y277D01*
X428Y277D02*
X431Y277D01*
X440Y277D02*
X443Y277D01*
X1192Y277D02*
X1199Y277D01*
X0Y276D02*
X7Y276D01*
X348Y276D02*
X351Y276D01*
X364Y276D02*
X367Y276D01*
X393Y276D02*
X397Y276D01*
X401Y276D02*
X405Y276D01*
X410Y276D02*
X413Y276D01*
X428Y276D02*
X431Y276D01*
X440Y276D02*
X443Y276D01*
X1192Y276D02*
X1199Y276D01*
X0Y275D02*
X7Y275D01*
X348Y275D02*
X351Y275D01*
X364Y275D02*
X367Y275D01*
X393Y275D02*
X397Y275D01*
X402Y275D02*
X405Y275D01*
X410Y275D02*
X413Y275D01*
X428Y275D02*
X431Y275D01*
X440Y275D02*
X443Y275D01*
X1192Y275D02*
X1199Y275D01*
X0Y274D02*
X7Y274D01*
X348Y274D02*
X351Y274D01*
X364Y274D02*
X367Y274D01*
X393Y274D02*
X397Y274D01*
X402Y274D02*
X406Y274D01*
X410Y274D02*
X413Y274D01*
X428Y274D02*
X431Y274D01*
X440Y274D02*
X443Y274D01*
X1192Y274D02*
X1199Y274D01*
X0Y273D02*
X7Y273D01*
X336Y273D02*
X338Y273D01*
X348Y273D02*
X351Y273D01*
X364Y273D02*
X367Y273D01*
X375Y273D02*
X383Y273D01*
X393Y273D02*
X397Y273D01*
X402Y273D02*
X406Y273D01*
X410Y273D02*
X413Y273D01*
X428Y273D02*
X431Y273D01*
X440Y273D02*
X443Y273D01*
X1192Y273D02*
X1199Y273D01*
X0Y272D02*
X7Y272D01*
X336Y272D02*
X339Y272D01*
X348Y272D02*
X351Y272D01*
X364Y272D02*
X367Y272D01*
X374Y272D02*
X383Y272D01*
X393Y272D02*
X397Y272D01*
X403Y272D02*
X406Y272D01*
X410Y272D02*
X413Y272D01*
X428Y272D02*
X431Y272D01*
X439Y272D02*
X443Y272D01*
X1192Y272D02*
X1199Y272D01*
X0Y271D02*
X7Y271D01*
X336Y271D02*
X339Y271D01*
X348Y271D02*
X351Y271D01*
X364Y271D02*
X367Y271D01*
X374Y271D02*
X383Y271D01*
X393Y271D02*
X397Y271D01*
X403Y271D02*
X407Y271D01*
X410Y271D02*
X413Y271D01*
X428Y271D02*
X431Y271D01*
X439Y271D02*
X442Y271D01*
X1192Y271D02*
X1199Y271D01*
X0Y270D02*
X7Y270D01*
X336Y270D02*
X339Y270D01*
X348Y270D02*
X351Y270D01*
X364Y270D02*
X367Y270D01*
X375Y270D02*
X383Y270D01*
X393Y270D02*
X397Y270D01*
X404Y270D02*
X407Y270D01*
X410Y270D02*
X413Y270D01*
X428Y270D02*
X431Y270D01*
X438Y270D02*
X442Y270D01*
X1192Y270D02*
X1199Y270D01*
X0Y269D02*
X7Y269D01*
X336Y269D02*
X339Y269D01*
X348Y269D02*
X351Y269D01*
X364Y269D02*
X367Y269D01*
X380Y269D02*
X383Y269D01*
X393Y269D02*
X397Y269D01*
X404Y269D02*
X408Y269D01*
X410Y269D02*
X413Y269D01*
X428Y269D02*
X431Y269D01*
X438Y269D02*
X441Y269D01*
X1192Y269D02*
X1199Y269D01*
X0Y268D02*
X7Y268D01*
X336Y268D02*
X339Y268D01*
X348Y268D02*
X351Y268D01*
X364Y268D02*
X367Y268D01*
X380Y268D02*
X383Y268D01*
X393Y268D02*
X397Y268D01*
X405Y268D02*
X408Y268D01*
X410Y268D02*
X413Y268D01*
X428Y268D02*
X431Y268D01*
X437Y268D02*
X441Y268D01*
X1192Y268D02*
X1199Y268D01*
X0Y267D02*
X7Y267D01*
X336Y267D02*
X339Y267D01*
X348Y267D02*
X351Y267D01*
X364Y267D02*
X367Y267D01*
X380Y267D02*
X383Y267D01*
X393Y267D02*
X397Y267D01*
X405Y267D02*
X413Y267D01*
X428Y267D02*
X431Y267D01*
X437Y267D02*
X440Y267D01*
X1192Y267D02*
X1199Y267D01*
X0Y266D02*
X7Y266D01*
X336Y266D02*
X339Y266D01*
X348Y266D02*
X351Y266D01*
X364Y266D02*
X367Y266D01*
X380Y266D02*
X383Y266D01*
X393Y266D02*
X397Y266D01*
X405Y266D02*
X413Y266D01*
X428Y266D02*
X431Y266D01*
X436Y266D02*
X440Y266D01*
X1192Y266D02*
X1199Y266D01*
X0Y265D02*
X7Y265D01*
X336Y265D02*
X339Y265D01*
X348Y265D02*
X351Y265D01*
X364Y265D02*
X367Y265D01*
X380Y265D02*
X383Y265D01*
X393Y265D02*
X397Y265D01*
X406Y265D02*
X413Y265D01*
X428Y265D02*
X431Y265D01*
X436Y265D02*
X439Y265D01*
X1192Y265D02*
X1199Y265D01*
X0Y264D02*
X7Y264D01*
X336Y264D02*
X339Y264D01*
X348Y264D02*
X351Y264D01*
X364Y264D02*
X367Y264D01*
X380Y264D02*
X383Y264D01*
X393Y264D02*
X397Y264D01*
X406Y264D02*
X413Y264D01*
X428Y264D02*
X431Y264D01*
X435Y264D02*
X439Y264D01*
X1192Y264D02*
X1199Y264D01*
X0Y263D02*
X7Y263D01*
X336Y263D02*
X351Y263D01*
X364Y263D02*
X383Y263D01*
X393Y263D02*
X397Y263D01*
X407Y263D02*
X413Y263D01*
X426Y263D02*
X438Y263D01*
X1192Y263D02*
X1199Y263D01*
X0Y262D02*
X7Y262D01*
X337Y262D02*
X350Y262D01*
X364Y262D02*
X382Y262D01*
X393Y262D02*
X397Y262D01*
X407Y262D02*
X413Y262D01*
X424Y262D02*
X438Y262D01*
X1192Y262D02*
X1199Y262D01*
X0Y261D02*
X7Y261D01*
X337Y261D02*
X350Y261D01*
X365Y261D02*
X382Y261D01*
X394Y261D02*
X397Y261D01*
X408Y261D02*
X413Y261D01*
X424Y261D02*
X437Y261D01*
X1192Y261D02*
X1199Y261D01*
X0Y260D02*
X7Y260D01*
X338Y260D02*
X348Y260D01*
X366Y260D02*
X380Y260D01*
X394Y260D02*
X396Y260D01*
X408Y260D02*
X413Y260D01*
X424Y260D02*
X436Y260D01*
X1192Y260D02*
X1199Y260D01*
X0Y259D02*
X7Y259D01*
X340Y259D02*
X346Y259D01*
X368Y259D02*
X378Y259D01*
X395Y259D02*
X395Y259D01*
X409Y259D02*
X413Y259D01*
X425Y259D02*
X434Y259D01*
X1192Y259D02*
X1199Y259D01*
X0Y258D02*
X7Y258D01*
X1192Y258D02*
X1199Y258D01*
X0Y257D02*
X7Y257D01*
X1192Y257D02*
X1199Y257D01*
X0Y256D02*
X7Y256D01*
X163Y256D02*
X168Y256D01*
X178Y256D02*
X181Y256D01*
X202Y256D02*
X209Y256D01*
X1192Y256D02*
X1199Y256D01*
X0Y255D02*
X7Y255D01*
X161Y255D02*
X169Y255D01*
X177Y255D02*
X181Y255D01*
X191Y255D02*
X193Y255D01*
X201Y255D02*
X211Y255D01*
X1192Y255D02*
X1199Y255D01*
X0Y254D02*
X7Y254D01*
X159Y254D02*
X169Y254D01*
X177Y254D02*
X182Y254D01*
X190Y254D02*
X193Y254D01*
X201Y254D02*
X212Y254D01*
X1192Y254D02*
X1199Y254D01*
X0Y253D02*
X7Y253D01*
X159Y253D02*
X168Y253D01*
X177Y253D02*
X182Y253D01*
X190Y253D02*
X193Y253D01*
X202Y253D02*
X212Y253D01*
X983Y253D02*
X990Y253D01*
X999Y253D02*
X1002Y253D01*
X1013Y253D02*
X1013Y253D01*
X1023Y253D02*
X1031Y253D01*
X1192Y253D02*
X1199Y253D01*
X0Y252D02*
X7Y252D01*
X158Y252D02*
X161Y252D01*
X177Y252D02*
X183Y252D01*
X190Y252D02*
X193Y252D01*
X204Y252D02*
X207Y252D01*
X210Y252D02*
X213Y252D01*
X982Y252D02*
X990Y252D01*
X999Y252D02*
X1003Y252D01*
X1012Y252D02*
X1014Y252D01*
X1023Y252D02*
X1032Y252D01*
X1192Y252D02*
X1199Y252D01*
X0Y251D02*
X7Y251D01*
X157Y251D02*
X160Y251D01*
X177Y251D02*
X183Y251D01*
X190Y251D02*
X193Y251D01*
X204Y251D02*
X207Y251D01*
X211Y251D02*
X213Y251D01*
X981Y251D02*
X990Y251D01*
X999Y251D02*
X1003Y251D01*
X1012Y251D02*
X1014Y251D01*
X1023Y251D02*
X1033Y251D01*
X1192Y251D02*
X1199Y251D01*
X0Y250D02*
X7Y250D01*
X156Y250D02*
X160Y250D01*
X177Y250D02*
X183Y250D01*
X190Y250D02*
X193Y250D01*
X204Y250D02*
X207Y250D01*
X211Y250D02*
X214Y250D01*
X420Y250D02*
X420Y250D01*
X980Y250D02*
X984Y250D01*
X999Y250D02*
X1004Y250D01*
X1012Y250D02*
X1014Y250D01*
X1025Y250D02*
X1028Y250D01*
X1030Y250D02*
X1034Y250D01*
X1192Y250D02*
X1199Y250D01*
X0Y249D02*
X7Y249D01*
X156Y249D02*
X159Y249D01*
X177Y249D02*
X184Y249D01*
X190Y249D02*
X193Y249D01*
X204Y249D02*
X207Y249D01*
X212Y249D02*
X214Y249D01*
X352Y249D02*
X355Y249D01*
X420Y249D02*
X422Y249D01*
X979Y249D02*
X982Y249D01*
X999Y249D02*
X1004Y249D01*
X1012Y249D02*
X1014Y249D01*
X1026Y249D02*
X1028Y249D01*
X1032Y249D02*
X1034Y249D01*
X1192Y249D02*
X1199Y249D01*
X0Y248D02*
X7Y248D01*
X155Y248D02*
X158Y248D01*
X177Y248D02*
X180Y248D01*
X182Y248D02*
X184Y248D01*
X190Y248D02*
X193Y248D01*
X204Y248D02*
X207Y248D01*
X212Y248D02*
X215Y248D01*
X351Y248D02*
X355Y248D01*
X420Y248D02*
X424Y248D01*
X978Y248D02*
X982Y248D01*
X999Y248D02*
X1005Y248D01*
X1012Y248D02*
X1014Y248D01*
X1026Y248D02*
X1028Y248D01*
X1032Y248D02*
X1035Y248D01*
X1192Y248D02*
X1199Y248D01*
X0Y247D02*
X7Y247D01*
X154Y247D02*
X157Y247D01*
X177Y247D02*
X180Y247D01*
X182Y247D02*
X185Y247D01*
X190Y247D02*
X193Y247D01*
X204Y247D02*
X207Y247D01*
X213Y247D02*
X215Y247D01*
X349Y247D02*
X355Y247D01*
X419Y247D02*
X425Y247D01*
X978Y247D02*
X981Y247D01*
X999Y247D02*
X1005Y247D01*
X1012Y247D02*
X1014Y247D01*
X1026Y247D02*
X1028Y247D01*
X1033Y247D02*
X1035Y247D01*
X1192Y247D02*
X1199Y247D01*
X0Y246D02*
X7Y246D01*
X154Y246D02*
X157Y246D01*
X177Y246D02*
X180Y246D01*
X183Y246D02*
X185Y246D01*
X190Y246D02*
X193Y246D01*
X204Y246D02*
X207Y246D01*
X213Y246D02*
X216Y246D01*
X348Y246D02*
X355Y246D01*
X419Y246D02*
X427Y246D01*
X977Y246D02*
X980Y246D01*
X999Y246D02*
X1001Y246D01*
X1003Y246D02*
X1005Y246D01*
X1012Y246D02*
X1014Y246D01*
X1026Y246D02*
X1028Y246D01*
X1033Y246D02*
X1036Y246D01*
X1192Y246D02*
X1199Y246D01*
X0Y245D02*
X7Y245D01*
X154Y245D02*
X156Y245D01*
X177Y245D02*
X180Y245D01*
X183Y245D02*
X186Y245D01*
X190Y245D02*
X193Y245D01*
X204Y245D02*
X207Y245D01*
X214Y245D02*
X216Y245D01*
X347Y245D02*
X356Y245D01*
X419Y245D02*
X427Y245D01*
X976Y245D02*
X979Y245D01*
X999Y245D02*
X1001Y245D01*
X1003Y245D02*
X1006Y245D01*
X1012Y245D02*
X1014Y245D01*
X1026Y245D02*
X1028Y245D01*
X1034Y245D02*
X1036Y245D01*
X1192Y245D02*
X1199Y245D01*
X0Y244D02*
X7Y244D01*
X154Y244D02*
X156Y244D01*
X177Y244D02*
X180Y244D01*
X183Y244D02*
X186Y244D01*
X190Y244D02*
X193Y244D01*
X204Y244D02*
X207Y244D01*
X214Y244D02*
X216Y244D01*
X347Y244D02*
X356Y244D01*
X419Y244D02*
X428Y244D01*
X976Y244D02*
X978Y244D01*
X999Y244D02*
X1001Y244D01*
X1004Y244D02*
X1006Y244D01*
X1012Y244D02*
X1014Y244D01*
X1026Y244D02*
X1028Y244D01*
X1034Y244D02*
X1037Y244D01*
X1192Y244D02*
X1199Y244D01*
X0Y243D02*
X7Y243D01*
X154Y243D02*
X156Y243D01*
X177Y243D02*
X180Y243D01*
X184Y243D02*
X186Y243D01*
X190Y243D02*
X193Y243D01*
X204Y243D02*
X207Y243D01*
X214Y243D02*
X216Y243D01*
X346Y243D02*
X356Y243D01*
X419Y243D02*
X429Y243D01*
X975Y243D02*
X978Y243D01*
X999Y243D02*
X1001Y243D01*
X1004Y243D02*
X1007Y243D01*
X1012Y243D02*
X1014Y243D01*
X1026Y243D02*
X1028Y243D01*
X1035Y243D02*
X1037Y243D01*
X1192Y243D02*
X1199Y243D01*
X0Y242D02*
X7Y242D01*
X154Y242D02*
X156Y242D01*
X163Y242D02*
X169Y242D01*
X177Y242D02*
X180Y242D01*
X184Y242D02*
X187Y242D01*
X190Y242D02*
X193Y242D01*
X204Y242D02*
X207Y242D01*
X214Y242D02*
X216Y242D01*
X346Y242D02*
X355Y242D01*
X420Y242D02*
X429Y242D01*
X975Y242D02*
X978Y242D01*
X999Y242D02*
X1001Y242D01*
X1005Y242D02*
X1007Y242D01*
X1012Y242D02*
X1014Y242D01*
X1026Y242D02*
X1028Y242D01*
X1035Y242D02*
X1038Y242D01*
X1192Y242D02*
X1199Y242D01*
X0Y241D02*
X7Y241D01*
X154Y241D02*
X156Y241D01*
X162Y241D02*
X169Y241D01*
X177Y241D02*
X180Y241D01*
X185Y241D02*
X187Y241D01*
X190Y241D02*
X193Y241D01*
X204Y241D02*
X207Y241D01*
X213Y241D02*
X216Y241D01*
X345Y241D02*
X353Y241D01*
X421Y241D02*
X430Y241D01*
X975Y241D02*
X978Y241D01*
X999Y241D02*
X1001Y241D01*
X1005Y241D02*
X1008Y241D01*
X1012Y241D02*
X1014Y241D01*
X1026Y241D02*
X1028Y241D01*
X1035Y241D02*
X1038Y241D01*
X1192Y241D02*
X1199Y241D01*
X0Y240D02*
X7Y240D01*
X154Y240D02*
X156Y240D01*
X162Y240D02*
X169Y240D01*
X177Y240D02*
X180Y240D01*
X185Y240D02*
X188Y240D01*
X190Y240D02*
X193Y240D01*
X204Y240D02*
X207Y240D01*
X213Y240D02*
X216Y240D01*
X345Y240D02*
X353Y240D01*
X422Y240D02*
X430Y240D01*
X975Y240D02*
X978Y240D01*
X999Y240D02*
X1001Y240D01*
X1005Y240D02*
X1008Y240D01*
X1012Y240D02*
X1014Y240D01*
X1026Y240D02*
X1028Y240D01*
X1035Y240D02*
X1038Y240D01*
X1192Y240D02*
X1199Y240D01*
X0Y239D02*
X7Y239D01*
X154Y239D02*
X156Y239D01*
X163Y239D02*
X169Y239D01*
X177Y239D02*
X180Y239D01*
X186Y239D02*
X188Y239D01*
X190Y239D02*
X193Y239D01*
X204Y239D02*
X207Y239D01*
X212Y239D02*
X215Y239D01*
X345Y239D02*
X352Y239D01*
X423Y239D02*
X430Y239D01*
X975Y239D02*
X978Y239D01*
X984Y239D02*
X991Y239D01*
X999Y239D02*
X1001Y239D01*
X1006Y239D02*
X1008Y239D01*
X1012Y239D02*
X1014Y239D01*
X1026Y239D02*
X1028Y239D01*
X1035Y239D02*
X1038Y239D01*
X1192Y239D02*
X1199Y239D01*
X0Y238D02*
X7Y238D01*
X154Y238D02*
X156Y238D01*
X167Y238D02*
X169Y238D01*
X177Y238D02*
X180Y238D01*
X186Y238D02*
X193Y238D01*
X204Y238D02*
X207Y238D01*
X212Y238D02*
X215Y238D01*
X345Y238D02*
X352Y238D01*
X423Y238D02*
X430Y238D01*
X975Y238D02*
X978Y238D01*
X983Y238D02*
X991Y238D01*
X999Y238D02*
X1001Y238D01*
X1006Y238D02*
X1009Y238D01*
X1012Y238D02*
X1014Y238D01*
X1026Y238D02*
X1028Y238D01*
X1035Y238D02*
X1037Y238D01*
X1192Y238D02*
X1199Y238D01*
X0Y237D02*
X7Y237D01*
X154Y237D02*
X156Y237D01*
X167Y237D02*
X169Y237D01*
X177Y237D02*
X180Y237D01*
X186Y237D02*
X193Y237D01*
X204Y237D02*
X207Y237D01*
X211Y237D02*
X214Y237D01*
X344Y237D02*
X351Y237D01*
X423Y237D02*
X430Y237D01*
X975Y237D02*
X978Y237D01*
X984Y237D02*
X991Y237D01*
X999Y237D02*
X1001Y237D01*
X1007Y237D02*
X1009Y237D01*
X1012Y237D02*
X1014Y237D01*
X1026Y237D02*
X1028Y237D01*
X1034Y237D02*
X1037Y237D01*
X1192Y237D02*
X1199Y237D01*
X0Y236D02*
X7Y236D01*
X154Y236D02*
X156Y236D01*
X167Y236D02*
X169Y236D01*
X177Y236D02*
X180Y236D01*
X187Y236D02*
X193Y236D01*
X204Y236D02*
X207Y236D01*
X211Y236D02*
X214Y236D01*
X344Y236D02*
X351Y236D01*
X423Y236D02*
X430Y236D01*
X975Y236D02*
X978Y236D01*
X988Y236D02*
X991Y236D01*
X999Y236D02*
X1001Y236D01*
X1007Y236D02*
X1010Y236D01*
X1012Y236D02*
X1014Y236D01*
X1026Y236D02*
X1028Y236D01*
X1034Y236D02*
X1036Y236D01*
X1192Y236D02*
X1199Y236D01*
X0Y235D02*
X7Y235D01*
X154Y235D02*
X156Y235D01*
X167Y235D02*
X169Y235D01*
X177Y235D02*
X180Y235D01*
X187Y235D02*
X193Y235D01*
X204Y235D02*
X207Y235D01*
X210Y235D02*
X213Y235D01*
X344Y235D02*
X350Y235D01*
X425Y235D02*
X430Y235D01*
X975Y235D02*
X978Y235D01*
X988Y235D02*
X991Y235D01*
X999Y235D02*
X1001Y235D01*
X1008Y235D02*
X1010Y235D01*
X1012Y235D02*
X1014Y235D01*
X1026Y235D02*
X1028Y235D01*
X1033Y235D02*
X1036Y235D01*
X1192Y235D02*
X1199Y235D01*
X0Y234D02*
X7Y234D01*
X154Y234D02*
X157Y234D01*
X166Y234D02*
X169Y234D01*
X177Y234D02*
X180Y234D01*
X188Y234D02*
X193Y234D01*
X204Y234D02*
X207Y234D01*
X209Y234D02*
X213Y234D01*
X345Y234D02*
X345Y234D01*
X430Y234D02*
X430Y234D01*
X975Y234D02*
X978Y234D01*
X988Y234D02*
X991Y234D01*
X999Y234D02*
X1001Y234D01*
X1008Y234D02*
X1014Y234D01*
X1026Y234D02*
X1028Y234D01*
X1033Y234D02*
X1035Y234D01*
X1192Y234D02*
X1199Y234D01*
X0Y233D02*
X7Y233D01*
X155Y233D02*
X168Y233D01*
X177Y233D02*
X180Y233D01*
X188Y233D02*
X193Y233D01*
X201Y233D02*
X212Y233D01*
X975Y233D02*
X978Y233D01*
X988Y233D02*
X991Y233D01*
X999Y233D02*
X1001Y233D01*
X1008Y233D02*
X1014Y233D01*
X1026Y233D02*
X1028Y233D01*
X1032Y233D02*
X1035Y233D01*
X1192Y233D02*
X1199Y233D01*
X0Y232D02*
X7Y232D01*
X155Y232D02*
X168Y232D01*
X177Y232D02*
X180Y232D01*
X189Y232D02*
X193Y232D01*
X201Y232D02*
X211Y232D01*
X975Y232D02*
X978Y232D01*
X988Y232D02*
X990Y232D01*
X999Y232D02*
X1001Y232D01*
X1009Y232D02*
X1014Y232D01*
X1026Y232D02*
X1028Y232D01*
X1032Y232D02*
X1034Y232D01*
X1192Y232D02*
X1199Y232D01*
X0Y231D02*
X7Y231D01*
X157Y231D02*
X166Y231D01*
X178Y231D02*
X179Y231D01*
X189Y231D02*
X193Y231D01*
X202Y231D02*
X210Y231D01*
X976Y231D02*
X990Y231D01*
X999Y231D02*
X1001Y231D01*
X1009Y231D02*
X1014Y231D01*
X1024Y231D02*
X1034Y231D01*
X1192Y231D02*
X1199Y231D01*
X0Y230D02*
X7Y230D01*
X976Y230D02*
X990Y230D01*
X999Y230D02*
X1001Y230D01*
X1010Y230D02*
X1014Y230D01*
X1023Y230D02*
X1033Y230D01*
X1192Y230D02*
X1199Y230D01*
X0Y229D02*
X7Y229D01*
X977Y229D02*
X989Y229D01*
X999Y229D02*
X1001Y229D01*
X1010Y229D02*
X1014Y229D01*
X1023Y229D02*
X1032Y229D01*
X1192Y229D02*
X1199Y229D01*
X0Y228D02*
X7Y228D01*
X979Y228D02*
X987Y228D01*
X1000Y228D02*
X1000Y228D01*
X1011Y228D02*
X1014Y228D01*
X1023Y228D02*
X1031Y228D01*
X1192Y228D02*
X1199Y228D01*
X0Y227D02*
X7Y227D01*
X1192Y227D02*
X1199Y227D01*
X0Y226D02*
X7Y226D01*
X1192Y226D02*
X1199Y226D01*
X0Y225D02*
X7Y225D01*
X1192Y225D02*
X1199Y225D01*
X0Y224D02*
X7Y224D01*
X1192Y224D02*
X1199Y224D01*
X0Y223D02*
X7Y223D01*
X1192Y223D02*
X1199Y223D01*
X0Y222D02*
X7Y222D01*
X1192Y222D02*
X1199Y222D01*
X0Y221D02*
X7Y221D01*
X1192Y221D02*
X1199Y221D01*
X0Y220D02*
X7Y220D01*
X1192Y220D02*
X1199Y220D01*
X0Y219D02*
X7Y219D01*
X1192Y219D02*
X1199Y219D01*
X0Y218D02*
X7Y218D01*
X1192Y218D02*
X1199Y218D01*
X0Y217D02*
X7Y217D01*
X1192Y217D02*
X1199Y217D01*
X0Y216D02*
X7Y216D01*
X1192Y216D02*
X1199Y216D01*
X0Y215D02*
X7Y215D01*
X1192Y215D02*
X1199Y215D01*
X0Y214D02*
X7Y214D01*
X1192Y214D02*
X1199Y214D01*
X0Y213D02*
X7Y213D01*
X1192Y213D02*
X1199Y213D01*
X0Y212D02*
X7Y212D01*
X1192Y212D02*
X1199Y212D01*
X0Y211D02*
X7Y211D01*
X1192Y211D02*
X1199Y211D01*
X0Y210D02*
X7Y210D01*
X1192Y210D02*
X1199Y210D01*
X0Y209D02*
X7Y209D01*
X1192Y209D02*
X1199Y209D01*
X0Y208D02*
X7Y208D01*
X1192Y208D02*
X1199Y208D01*
X0Y207D02*
X7Y207D01*
X1192Y207D02*
X1199Y207D01*
X0Y206D02*
X7Y206D01*
X1192Y206D02*
X1199Y206D01*
X0Y205D02*
X7Y205D01*
X1192Y205D02*
X1199Y205D01*
X0Y204D02*
X7Y204D01*
X1192Y204D02*
X1199Y204D01*
X0Y203D02*
X7Y203D01*
X1192Y203D02*
X1199Y203D01*
X0Y202D02*
X7Y202D01*
X1192Y202D02*
X1199Y202D01*
X0Y201D02*
X7Y201D01*
X1192Y201D02*
X1199Y201D01*
X0Y200D02*
X7Y200D01*
X1192Y200D02*
X1199Y200D01*
X0Y199D02*
X7Y199D01*
X1192Y199D02*
X1199Y199D01*
X0Y198D02*
X7Y198D01*
X1192Y198D02*
X1199Y198D01*
X0Y197D02*
X7Y197D01*
X1192Y197D02*
X1199Y197D01*
X0Y196D02*
X7Y196D01*
X1192Y196D02*
X1199Y196D01*
X0Y195D02*
X7Y195D01*
X1192Y195D02*
X1199Y195D01*
X0Y194D02*
X7Y194D01*
X1192Y194D02*
X1199Y194D01*
X0Y193D02*
X7Y193D01*
X1192Y193D02*
X1199Y193D01*
X0Y192D02*
X7Y192D01*
X1192Y192D02*
X1199Y192D01*
X0Y191D02*
X7Y191D01*
X1192Y191D02*
X1199Y191D01*
X0Y190D02*
X7Y190D01*
X1192Y190D02*
X1199Y190D01*
X0Y189D02*
X7Y189D01*
X1192Y189D02*
X1199Y189D01*
X0Y188D02*
X7Y188D01*
X1192Y188D02*
X1199Y188D01*
X0Y187D02*
X7Y187D01*
X1192Y187D02*
X1199Y187D01*
X0Y186D02*
X7Y186D01*
X1192Y186D02*
X1199Y186D01*
X0Y185D02*
X7Y185D01*
X1192Y185D02*
X1199Y185D01*
X0Y184D02*
X7Y184D01*
X1192Y184D02*
X1199Y184D01*
X0Y183D02*
X7Y183D01*
X1192Y183D02*
X1199Y183D01*
X0Y182D02*
X7Y182D01*
X1192Y182D02*
X1199Y182D01*
X0Y181D02*
X7Y181D01*
X1192Y181D02*
X1199Y181D01*
X0Y180D02*
X7Y180D01*
X345Y180D02*
X345Y180D01*
X430Y180D02*
X430Y180D01*
X1192Y180D02*
X1199Y180D01*
X0Y179D02*
X7Y179D01*
X345Y179D02*
X350Y179D01*
X425Y179D02*
X430Y179D01*
X1192Y179D02*
X1199Y179D01*
X0Y178D02*
X7Y178D01*
X344Y178D02*
X351Y178D01*
X423Y178D02*
X430Y178D01*
X1192Y178D02*
X1199Y178D01*
X0Y177D02*
X7Y177D01*
X344Y177D02*
X351Y177D01*
X423Y177D02*
X430Y177D01*
X1192Y177D02*
X1199Y177D01*
X0Y176D02*
X7Y176D01*
X345Y176D02*
X351Y176D01*
X423Y176D02*
X430Y176D01*
X1192Y176D02*
X1199Y176D01*
X0Y175D02*
X7Y175D01*
X345Y175D02*
X352Y175D01*
X423Y175D02*
X430Y175D01*
X1192Y175D02*
X1199Y175D01*
X0Y174D02*
X7Y174D01*
X345Y174D02*
X352Y174D01*
X422Y174D02*
X430Y174D01*
X1192Y174D02*
X1199Y174D01*
X0Y173D02*
X7Y173D01*
X345Y173D02*
X353Y173D01*
X421Y173D02*
X430Y173D01*
X1192Y173D02*
X1199Y173D01*
X0Y172D02*
X7Y172D01*
X345Y172D02*
X355Y172D01*
X420Y172D02*
X429Y172D01*
X1192Y172D02*
X1199Y172D01*
X0Y171D02*
X7Y171D01*
X346Y171D02*
X356Y171D01*
X419Y171D02*
X429Y171D01*
X1192Y171D02*
X1199Y171D01*
X0Y170D02*
X7Y170D01*
X347Y170D02*
X356Y170D01*
X419Y170D02*
X428Y170D01*
X1192Y170D02*
X1199Y170D01*
X0Y169D02*
X7Y169D01*
X347Y169D02*
X356Y169D01*
X419Y169D02*
X427Y169D01*
X1192Y169D02*
X1199Y169D01*
X0Y168D02*
X7Y168D01*
X348Y168D02*
X355Y168D01*
X419Y168D02*
X427Y168D01*
X1192Y168D02*
X1199Y168D01*
X0Y167D02*
X7Y167D01*
X349Y167D02*
X355Y167D01*
X419Y167D02*
X426Y167D01*
X1192Y167D02*
X1199Y167D01*
X0Y166D02*
X7Y166D01*
X350Y166D02*
X355Y166D01*
X420Y166D02*
X424Y166D01*
X1192Y166D02*
X1199Y166D01*
X0Y165D02*
X7Y165D01*
X352Y165D02*
X355Y165D01*
X420Y165D02*
X423Y165D01*
X1192Y165D02*
X1199Y165D01*
X0Y164D02*
X7Y164D01*
X355Y164D02*
X355Y164D01*
X420Y164D02*
X420Y164D01*
X1192Y164D02*
X1199Y164D01*
X0Y163D02*
X7Y163D01*
X1192Y163D02*
X1199Y163D01*
X0Y162D02*
X7Y162D01*
X1192Y162D02*
X1199Y162D01*
X0Y161D02*
X7Y161D01*
X1192Y161D02*
X1199Y161D01*
X0Y160D02*
X7Y160D01*
X1192Y160D02*
X1199Y160D01*
X0Y159D02*
X7Y159D01*
X1192Y159D02*
X1199Y159D01*
X0Y158D02*
X7Y158D01*
X1192Y158D02*
X1199Y158D01*
X0Y157D02*
X7Y157D01*
X1192Y157D02*
X1199Y157D01*
X0Y156D02*
X7Y156D01*
X1192Y156D02*
X1199Y156D01*
X0Y155D02*
X7Y155D01*
X1192Y155D02*
X1199Y155D01*
X0Y154D02*
X7Y154D01*
X1192Y154D02*
X1199Y154D01*
X0Y153D02*
X7Y153D01*
X1192Y153D02*
X1199Y153D01*
X0Y152D02*
X7Y152D01*
X1192Y152D02*
X1199Y152D01*
X0Y151D02*
X7Y151D01*
X1192Y151D02*
X1199Y151D01*
X0Y150D02*
X7Y150D01*
X1192Y150D02*
X1199Y150D01*
X0Y149D02*
X7Y149D01*
X1192Y149D02*
X1199Y149D01*
X0Y148D02*
X7Y148D01*
X1192Y148D02*
X1199Y148D01*
X0Y147D02*
X7Y147D01*
X1192Y147D02*
X1199Y147D01*
X0Y146D02*
X7Y146D01*
X1192Y146D02*
X1199Y146D01*
X0Y145D02*
X7Y145D01*
X1192Y145D02*
X1199Y145D01*
X0Y144D02*
X7Y144D01*
X1192Y144D02*
X1199Y144D01*
X0Y143D02*
X7Y143D01*
X1192Y143D02*
X1199Y143D01*
X0Y142D02*
X7Y142D01*
X1192Y142D02*
X1199Y142D01*
X0Y141D02*
X7Y141D01*
X1192Y141D02*
X1199Y141D01*
X0Y140D02*
X7Y140D01*
X1192Y140D02*
X1199Y140D01*
X0Y139D02*
X7Y139D01*
X1192Y139D02*
X1199Y139D01*
X0Y138D02*
X7Y138D01*
X1192Y138D02*
X1199Y138D01*
X0Y137D02*
X7Y137D01*
X1192Y137D02*
X1199Y137D01*
X0Y136D02*
X7Y136D01*
X1192Y136D02*
X1199Y136D01*
X0Y135D02*
X7Y135D01*
X1192Y135D02*
X1199Y135D01*
X0Y134D02*
X7Y134D01*
X1192Y134D02*
X1199Y134D01*
X0Y133D02*
X7Y133D01*
X1192Y133D02*
X1199Y133D01*
X0Y132D02*
X7Y132D01*
X1192Y132D02*
X1199Y132D01*
X0Y131D02*
X7Y131D01*
X1192Y131D02*
X1199Y131D01*
X0Y130D02*
X7Y130D01*
X1192Y130D02*
X1199Y130D01*
X0Y129D02*
X7Y129D01*
X1192Y129D02*
X1199Y129D01*
X0Y128D02*
X7Y128D01*
X1192Y128D02*
X1199Y128D01*
X0Y127D02*
X7Y127D01*
X1192Y127D02*
X1199Y127D01*
X0Y126D02*
X7Y126D01*
X1192Y126D02*
X1199Y126D01*
X0Y125D02*
X7Y125D01*
X1192Y125D02*
X1199Y125D01*
X0Y124D02*
X7Y124D01*
X1192Y124D02*
X1199Y124D01*
X0Y123D02*
X7Y123D01*
X1192Y123D02*
X1199Y123D01*
X0Y122D02*
X7Y122D01*
X1192Y122D02*
X1199Y122D01*
X0Y121D02*
X7Y121D01*
X1192Y121D02*
X1199Y121D01*
X0Y120D02*
X7Y120D01*
X1192Y120D02*
X1199Y120D01*
X0Y119D02*
X7Y119D01*
X1192Y119D02*
X1199Y119D01*
X0Y118D02*
X7Y118D01*
X1192Y118D02*
X1199Y118D01*
X0Y117D02*
X7Y117D01*
X1192Y117D02*
X1199Y117D01*
X0Y116D02*
X7Y116D01*
X1192Y116D02*
X1199Y116D01*
X0Y115D02*
X7Y115D01*
X1192Y115D02*
X1199Y115D01*
X0Y114D02*
X7Y114D01*
X1192Y114D02*
X1199Y114D01*
X0Y113D02*
X7Y113D01*
X1192Y113D02*
X1199Y113D01*
X0Y112D02*
X7Y112D01*
X1192Y112D02*
X1199Y112D01*
X0Y111D02*
X7Y111D01*
X1192Y111D02*
X1199Y111D01*
X0Y110D02*
X7Y110D01*
X1192Y110D02*
X1199Y110D01*
X0Y109D02*
X7Y109D01*
X1192Y109D02*
X1199Y109D01*
X0Y108D02*
X7Y108D01*
X1192Y108D02*
X1199Y108D01*
X0Y107D02*
X7Y107D01*
X1192Y107D02*
X1199Y107D01*
X0Y106D02*
X7Y106D01*
X1192Y106D02*
X1199Y106D01*
X0Y105D02*
X7Y105D01*
X1192Y105D02*
X1199Y105D01*
X0Y104D02*
X7Y104D01*
X1192Y104D02*
X1199Y104D01*
X0Y103D02*
X7Y103D01*
X1192Y103D02*
X1199Y103D01*
X0Y102D02*
X7Y102D01*
X1192Y102D02*
X1199Y102D01*
X0Y101D02*
X7Y101D01*
X1192Y101D02*
X1199Y101D01*
X0Y100D02*
X7Y100D01*
X1192Y100D02*
X1199Y100D01*
X0Y99D02*
X7Y99D01*
X1192Y99D02*
X1199Y99D01*
X0Y98D02*
X7Y98D01*
X1192Y98D02*
X1199Y98D01*
X0Y97D02*
X7Y97D01*
X1192Y97D02*
X1199Y97D01*
X0Y96D02*
X7Y96D01*
X1192Y96D02*
X1199Y96D01*
X0Y95D02*
X7Y95D01*
X1192Y95D02*
X1199Y95D01*
X0Y94D02*
X7Y94D01*
X1192Y94D02*
X1199Y94D01*
X0Y93D02*
X7Y93D01*
X1192Y93D02*
X1199Y93D01*
X0Y92D02*
X7Y92D01*
X1192Y92D02*
X1199Y92D01*
X0Y91D02*
X7Y91D01*
X1192Y91D02*
X1199Y91D01*
X0Y90D02*
X7Y90D01*
X1192Y90D02*
X1199Y90D01*
X0Y89D02*
X7Y89D01*
X1192Y89D02*
X1199Y89D01*
X0Y88D02*
X7Y88D01*
X1192Y88D02*
X1199Y88D01*
X0Y87D02*
X7Y87D01*
X1192Y87D02*
X1199Y87D01*
X0Y86D02*
X7Y86D01*
X1192Y86D02*
X1199Y86D01*
X0Y85D02*
X7Y85D01*
X1192Y85D02*
X1199Y85D01*
X0Y84D02*
X7Y84D01*
X1192Y84D02*
X1199Y84D01*
X0Y83D02*
X7Y83D01*
X1192Y83D02*
X1199Y83D01*
X0Y82D02*
X7Y82D01*
X1192Y82D02*
X1199Y82D01*
X0Y81D02*
X7Y81D01*
X1192Y81D02*
X1199Y81D01*
X0Y80D02*
X7Y80D01*
X1192Y80D02*
X1199Y80D01*
X0Y79D02*
X7Y79D01*
X1192Y79D02*
X1199Y79D01*
X0Y78D02*
X7Y78D01*
X1192Y78D02*
X1199Y78D01*
X0Y77D02*
X7Y77D01*
X1192Y77D02*
X1199Y77D01*
X0Y76D02*
X7Y76D01*
X1192Y76D02*
X1199Y76D01*
X0Y75D02*
X7Y75D01*
X1192Y75D02*
X1199Y75D01*
X0Y74D02*
X7Y74D01*
X1192Y74D02*
X1199Y74D01*
X0Y73D02*
X7Y73D01*
X1192Y73D02*
X1199Y73D01*
X0Y72D02*
X7Y72D01*
X1192Y72D02*
X1199Y72D01*
X0Y71D02*
X7Y71D01*
X1192Y71D02*
X1199Y71D01*
X0Y70D02*
X7Y70D01*
X1192Y70D02*
X1199Y70D01*
X0Y69D02*
X7Y69D01*
X1192Y69D02*
X1199Y69D01*
X0Y68D02*
X7Y68D01*
X1192Y68D02*
X1199Y68D01*
X0Y67D02*
X7Y67D01*
X1192Y67D02*
X1199Y67D01*
X0Y66D02*
X7Y66D01*
X1192Y66D02*
X1199Y66D01*
X0Y65D02*
X7Y65D01*
X1192Y65D02*
X1199Y65D01*
X0Y64D02*
X7Y64D01*
X1192Y64D02*
X1199Y64D01*
X0Y63D02*
X7Y63D01*
X1192Y63D02*
X1199Y63D01*
X0Y62D02*
X7Y62D01*
X1192Y62D02*
X1199Y62D01*
X0Y61D02*
X7Y61D01*
X1192Y61D02*
X1199Y61D01*
X0Y60D02*
X7Y60D01*
X1192Y60D02*
X1199Y60D01*
X0Y59D02*
X7Y59D01*
X1192Y59D02*
X1199Y59D01*
X0Y58D02*
X7Y58D01*
X1192Y58D02*
X1199Y58D01*
X0Y57D02*
X7Y57D01*
X1192Y57D02*
X1199Y57D01*
X0Y56D02*
X7Y56D01*
X1192Y56D02*
X1199Y56D01*
X0Y55D02*
X7Y55D01*
X1192Y55D02*
X1199Y55D01*
X0Y54D02*
X7Y54D01*
X1192Y54D02*
X1199Y54D01*
X0Y53D02*
X7Y53D01*
X1192Y53D02*
X1199Y53D01*
X0Y52D02*
X7Y52D01*
X1192Y52D02*
X1199Y52D01*
X0Y51D02*
X7Y51D01*
X1192Y51D02*
X1199Y51D01*
X0Y50D02*
X7Y50D01*
X1192Y50D02*
X1199Y50D01*
X0Y49D02*
X7Y49D01*
X1192Y49D02*
X1199Y49D01*
X0Y48D02*
X7Y48D01*
X1192Y48D02*
X1199Y48D01*
X0Y47D02*
X7Y47D01*
X1192Y47D02*
X1199Y47D01*
X0Y46D02*
X7Y46D01*
X1192Y46D02*
X1199Y46D01*
X0Y45D02*
X7Y45D01*
X1192Y45D02*
X1199Y45D01*
X0Y44D02*
X7Y44D01*
X1192Y44D02*
X1199Y44D01*
X0Y43D02*
X7Y43D01*
X1192Y43D02*
X1199Y43D01*
X0Y42D02*
X7Y42D01*
X1192Y42D02*
X1199Y42D01*
X0Y41D02*
X7Y41D01*
X1192Y41D02*
X1199Y41D01*
X0Y40D02*
X7Y40D01*
X1192Y40D02*
X1199Y40D01*
X0Y39D02*
X7Y39D01*
X1192Y39D02*
X1199Y39D01*
X0Y38D02*
X7Y38D01*
X1192Y38D02*
X1199Y38D01*
X0Y37D02*
X7Y37D01*
X1192Y37D02*
X1199Y37D01*
X0Y36D02*
X7Y36D01*
X1192Y36D02*
X1199Y36D01*
X0Y35D02*
X7Y35D01*
X1192Y35D02*
X1199Y35D01*
X0Y34D02*
X7Y34D01*
X1192Y34D02*
X1199Y34D01*
X0Y33D02*
X7Y33D01*
X1192Y33D02*
X1199Y33D01*
X0Y32D02*
X7Y32D01*
X1192Y32D02*
X1199Y32D01*
X0Y31D02*
X7Y31D01*
X1192Y31D02*
X1199Y31D01*
X0Y30D02*
X7Y30D01*
X1192Y30D02*
X1199Y30D01*
X0Y29D02*
X7Y29D01*
X1192Y29D02*
X1199Y29D01*
X0Y28D02*
X7Y28D01*
X1192Y28D02*
X1199Y28D01*
X0Y27D02*
X7Y27D01*
X1192Y27D02*
X1199Y27D01*
X0Y26D02*
X7Y26D01*
X1192Y26D02*
X1199Y26D01*
X0Y25D02*
X7Y25D01*
X1192Y25D02*
X1199Y25D01*
X0Y24D02*
X7Y24D01*
X1192Y24D02*
X1199Y24D01*
X0Y23D02*
X7Y23D01*
X1192Y23D02*
X1199Y23D01*
X0Y22D02*
X7Y22D01*
X1192Y22D02*
X1199Y22D01*
X0Y21D02*
X7Y21D01*
X1192Y21D02*
X1199Y21D01*
X0Y20D02*
X7Y20D01*
X1192Y20D02*
X1199Y20D01*
X0Y19D02*
X7Y19D01*
X1192Y19D02*
X1199Y19D01*
X0Y18D02*
X7Y18D01*
X1192Y18D02*
X1199Y18D01*
X0Y17D02*
X7Y17D01*
X1192Y17D02*
X1199Y17D01*
X0Y16D02*
X7Y16D01*
X1192Y16D02*
X1199Y16D01*
X0Y15D02*
X7Y15D01*
X1192Y15D02*
X1199Y15D01*
X0Y14D02*
X7Y14D01*
X1192Y14D02*
X1199Y14D01*
X0Y13D02*
X7Y13D01*
X1192Y13D02*
X1199Y13D01*
X0Y12D02*
X7Y12D01*
X1192Y12D02*
X1199Y12D01*
X0Y11D02*
X7Y11D01*
X1192Y11D02*
X1199Y11D01*
X0Y10D02*
X7Y10D01*
X1192Y10D02*
X1199Y10D01*
X0Y9D02*
X7Y9D01*
X1192Y9D02*
X1199Y9D01*
X0Y8D02*
X1199Y8D01*
X0Y7D02*
X1199Y7D01*
X0Y6D02*
X1199Y6D01*
X0Y5D02*
X1199Y5D01*
X0Y4D02*
X1199Y4D01*
X0Y3D02*
X1199Y3D01*
X0Y2D02*
X1199Y2D01*
X0Y1D02*
X1199Y1D01*
D02*
G04 End of Silk1*
M02*