G04 MADE WITH FRITZING*
G04 WWW.FRITZING.ORG*
G04 DOUBLE SIDED*
G04 HOLES PLATED*
G04 CONTOUR ON CENTER OF CONTOUR VECTOR*
%ASAXBY*%
%FSLAX23Y23*%
%MOIN*%
%OFA0B0*%
%SFA1.0B1.0*%
%ADD10C,0.075000*%
%ADD11C,0.074000*%
%ADD12C,0.078000*%
%ADD13R,0.074000X0.074000*%
%ADD14C,0.024000*%
%LNCOPPER0*%
G90*
G70*
G54D10*
X216Y262D03*
G54D11*
X704Y888D03*
X604Y888D03*
X504Y888D03*
X404Y888D03*
X204Y88D03*
X304Y88D03*
X404Y88D03*
X504Y88D03*
X604Y88D03*
X704Y88D03*
X804Y88D03*
X904Y88D03*
X1004Y88D03*
G54D12*
X1113Y743D03*
X1113Y643D03*
X1113Y543D03*
X1113Y443D03*
X1113Y343D03*
X1113Y243D03*
X89Y743D03*
X89Y643D03*
X89Y543D03*
X89Y443D03*
X89Y343D03*
X89Y243D03*
G54D13*
X704Y888D03*
G54D14*
X1083Y743D02*
X120Y743D01*
D02*
X1083Y643D02*
X120Y643D01*
D02*
X1083Y543D02*
X120Y543D01*
D02*
X1083Y443D02*
X120Y443D01*
D02*
X1083Y343D02*
X120Y343D01*
G36*
X40Y926D02*
X40Y842D01*
X392Y842D01*
X392Y844D01*
X386Y844D01*
X386Y846D01*
X382Y846D01*
X382Y848D01*
X378Y848D01*
X378Y850D01*
X376Y850D01*
X376Y852D01*
X374Y852D01*
X374Y854D01*
X372Y854D01*
X372Y856D01*
X370Y856D01*
X370Y858D01*
X368Y858D01*
X368Y860D01*
X366Y860D01*
X366Y862D01*
X364Y862D01*
X364Y866D01*
X362Y866D01*
X362Y870D01*
X360Y870D01*
X360Y876D01*
X358Y876D01*
X358Y900D01*
X360Y900D01*
X360Y906D01*
X362Y906D01*
X362Y926D01*
X40Y926D01*
G37*
D02*
G36*
X752Y926D02*
X752Y842D01*
X1160Y842D01*
X1160Y926D01*
X752Y926D01*
G37*
D02*
G36*
X444Y864D02*
X444Y862D01*
X442Y862D01*
X442Y860D01*
X440Y860D01*
X440Y856D01*
X438Y856D01*
X438Y854D01*
X436Y854D01*
X436Y852D01*
X432Y852D01*
X432Y850D01*
X430Y850D01*
X430Y848D01*
X426Y848D01*
X426Y846D01*
X424Y846D01*
X424Y844D01*
X416Y844D01*
X416Y842D01*
X492Y842D01*
X492Y844D01*
X486Y844D01*
X486Y846D01*
X482Y846D01*
X482Y848D01*
X478Y848D01*
X478Y850D01*
X476Y850D01*
X476Y852D01*
X474Y852D01*
X474Y854D01*
X472Y854D01*
X472Y856D01*
X470Y856D01*
X470Y858D01*
X468Y858D01*
X468Y860D01*
X466Y860D01*
X466Y862D01*
X464Y862D01*
X464Y864D01*
X444Y864D01*
G37*
D02*
G36*
X544Y864D02*
X544Y862D01*
X542Y862D01*
X542Y860D01*
X540Y860D01*
X540Y856D01*
X538Y856D01*
X538Y854D01*
X536Y854D01*
X536Y852D01*
X532Y852D01*
X532Y850D01*
X530Y850D01*
X530Y848D01*
X526Y848D01*
X526Y846D01*
X524Y846D01*
X524Y844D01*
X516Y844D01*
X516Y842D01*
X592Y842D01*
X592Y844D01*
X586Y844D01*
X586Y846D01*
X582Y846D01*
X582Y848D01*
X578Y848D01*
X578Y850D01*
X576Y850D01*
X576Y852D01*
X574Y852D01*
X574Y854D01*
X572Y854D01*
X572Y856D01*
X570Y856D01*
X570Y858D01*
X568Y858D01*
X568Y860D01*
X566Y860D01*
X566Y862D01*
X564Y862D01*
X564Y864D01*
X544Y864D01*
G37*
D02*
G36*
X638Y856D02*
X638Y854D01*
X636Y854D01*
X636Y852D01*
X632Y852D01*
X632Y850D01*
X630Y850D01*
X630Y848D01*
X626Y848D01*
X626Y846D01*
X624Y846D01*
X624Y844D01*
X616Y844D01*
X616Y842D01*
X658Y842D01*
X658Y856D01*
X638Y856D01*
G37*
D02*
G36*
X40Y842D02*
X40Y840D01*
X1160Y840D01*
X1160Y842D01*
X40Y842D01*
G37*
D02*
G36*
X40Y842D02*
X40Y840D01*
X1160Y840D01*
X1160Y842D01*
X40Y842D01*
G37*
D02*
G36*
X40Y842D02*
X40Y840D01*
X1160Y840D01*
X1160Y842D01*
X40Y842D01*
G37*
D02*
G36*
X40Y842D02*
X40Y840D01*
X1160Y840D01*
X1160Y842D01*
X40Y842D01*
G37*
D02*
G36*
X40Y842D02*
X40Y840D01*
X1160Y840D01*
X1160Y842D01*
X40Y842D01*
G37*
D02*
G36*
X40Y840D02*
X40Y792D01*
X1118Y792D01*
X1118Y790D01*
X1128Y790D01*
X1128Y788D01*
X1134Y788D01*
X1134Y786D01*
X1136Y786D01*
X1136Y784D01*
X1140Y784D01*
X1140Y782D01*
X1160Y782D01*
X1160Y840D01*
X40Y840D01*
G37*
D02*
G36*
X40Y792D02*
X40Y780D01*
X60Y780D01*
X60Y782D01*
X62Y782D01*
X62Y784D01*
X66Y784D01*
X66Y786D01*
X70Y786D01*
X70Y788D01*
X76Y788D01*
X76Y790D01*
X84Y790D01*
X84Y792D01*
X40Y792D01*
G37*
D02*
G36*
X94Y792D02*
X94Y790D01*
X104Y790D01*
X104Y788D01*
X110Y788D01*
X110Y786D01*
X114Y786D01*
X114Y784D01*
X116Y784D01*
X116Y782D01*
X120Y782D01*
X120Y780D01*
X122Y780D01*
X122Y778D01*
X124Y778D01*
X124Y776D01*
X126Y776D01*
X126Y774D01*
X128Y774D01*
X128Y770D01*
X130Y770D01*
X130Y768D01*
X132Y768D01*
X132Y764D01*
X1070Y764D01*
X1070Y768D01*
X1072Y768D01*
X1072Y770D01*
X1074Y770D01*
X1074Y772D01*
X1076Y772D01*
X1076Y776D01*
X1078Y776D01*
X1078Y778D01*
X1080Y778D01*
X1080Y780D01*
X1084Y780D01*
X1084Y782D01*
X1086Y782D01*
X1086Y784D01*
X1090Y784D01*
X1090Y786D01*
X1092Y786D01*
X1092Y788D01*
X1098Y788D01*
X1098Y790D01*
X1108Y790D01*
X1108Y792D01*
X94Y792D01*
G37*
D02*
G36*
X132Y720D02*
X132Y716D01*
X130Y716D01*
X130Y714D01*
X128Y714D01*
X128Y712D01*
X126Y712D01*
X126Y708D01*
X124Y708D01*
X124Y706D01*
X120Y706D01*
X120Y704D01*
X118Y704D01*
X118Y702D01*
X116Y702D01*
X116Y682D01*
X120Y682D01*
X120Y680D01*
X122Y680D01*
X122Y678D01*
X124Y678D01*
X124Y676D01*
X126Y676D01*
X126Y674D01*
X128Y674D01*
X128Y670D01*
X130Y670D01*
X130Y668D01*
X132Y668D01*
X132Y664D01*
X1070Y664D01*
X1070Y668D01*
X1072Y668D01*
X1072Y670D01*
X1074Y670D01*
X1074Y672D01*
X1076Y672D01*
X1076Y676D01*
X1078Y676D01*
X1078Y678D01*
X1080Y678D01*
X1080Y680D01*
X1084Y680D01*
X1084Y682D01*
X1086Y682D01*
X1086Y702D01*
X1084Y702D01*
X1084Y704D01*
X1082Y704D01*
X1082Y706D01*
X1080Y706D01*
X1080Y708D01*
X1078Y708D01*
X1078Y710D01*
X1076Y710D01*
X1076Y712D01*
X1074Y712D01*
X1074Y714D01*
X1072Y714D01*
X1072Y718D01*
X1070Y718D01*
X1070Y720D01*
X132Y720D01*
G37*
D02*
G36*
X132Y620D02*
X132Y616D01*
X130Y616D01*
X130Y614D01*
X128Y614D01*
X128Y612D01*
X126Y612D01*
X126Y608D01*
X124Y608D01*
X124Y606D01*
X120Y606D01*
X120Y604D01*
X118Y604D01*
X118Y602D01*
X116Y602D01*
X116Y582D01*
X120Y582D01*
X120Y580D01*
X122Y580D01*
X122Y578D01*
X124Y578D01*
X124Y576D01*
X126Y576D01*
X126Y574D01*
X128Y574D01*
X128Y570D01*
X130Y570D01*
X130Y568D01*
X132Y568D01*
X132Y564D01*
X1070Y564D01*
X1070Y568D01*
X1072Y568D01*
X1072Y570D01*
X1074Y570D01*
X1074Y572D01*
X1076Y572D01*
X1076Y576D01*
X1078Y576D01*
X1078Y578D01*
X1080Y578D01*
X1080Y580D01*
X1084Y580D01*
X1084Y582D01*
X1086Y582D01*
X1086Y602D01*
X1084Y602D01*
X1084Y604D01*
X1082Y604D01*
X1082Y606D01*
X1080Y606D01*
X1080Y608D01*
X1078Y608D01*
X1078Y610D01*
X1076Y610D01*
X1076Y612D01*
X1074Y612D01*
X1074Y614D01*
X1072Y614D01*
X1072Y618D01*
X1070Y618D01*
X1070Y620D01*
X132Y620D01*
G37*
D02*
G36*
X132Y520D02*
X132Y516D01*
X130Y516D01*
X130Y514D01*
X128Y514D01*
X128Y512D01*
X126Y512D01*
X126Y508D01*
X124Y508D01*
X124Y506D01*
X120Y506D01*
X120Y504D01*
X118Y504D01*
X118Y502D01*
X116Y502D01*
X116Y482D01*
X120Y482D01*
X120Y480D01*
X122Y480D01*
X122Y478D01*
X124Y478D01*
X124Y476D01*
X126Y476D01*
X126Y474D01*
X128Y474D01*
X128Y470D01*
X130Y470D01*
X130Y468D01*
X132Y468D01*
X132Y464D01*
X1070Y464D01*
X1070Y468D01*
X1072Y468D01*
X1072Y470D01*
X1074Y470D01*
X1074Y472D01*
X1076Y472D01*
X1076Y476D01*
X1078Y476D01*
X1078Y478D01*
X1080Y478D01*
X1080Y480D01*
X1084Y480D01*
X1084Y482D01*
X1086Y482D01*
X1086Y502D01*
X1084Y502D01*
X1084Y504D01*
X1082Y504D01*
X1082Y506D01*
X1080Y506D01*
X1080Y508D01*
X1078Y508D01*
X1078Y510D01*
X1076Y510D01*
X1076Y512D01*
X1074Y512D01*
X1074Y514D01*
X1072Y514D01*
X1072Y518D01*
X1070Y518D01*
X1070Y520D01*
X132Y520D01*
G37*
D02*
G36*
X132Y420D02*
X132Y416D01*
X130Y416D01*
X130Y414D01*
X128Y414D01*
X128Y412D01*
X126Y412D01*
X126Y408D01*
X124Y408D01*
X124Y406D01*
X120Y406D01*
X120Y404D01*
X118Y404D01*
X118Y402D01*
X116Y402D01*
X116Y382D01*
X120Y382D01*
X120Y380D01*
X122Y380D01*
X122Y378D01*
X124Y378D01*
X124Y376D01*
X126Y376D01*
X126Y374D01*
X128Y374D01*
X128Y370D01*
X130Y370D01*
X130Y368D01*
X132Y368D01*
X132Y364D01*
X1070Y364D01*
X1070Y368D01*
X1072Y368D01*
X1072Y370D01*
X1074Y370D01*
X1074Y372D01*
X1076Y372D01*
X1076Y376D01*
X1078Y376D01*
X1078Y378D01*
X1080Y378D01*
X1080Y380D01*
X1084Y380D01*
X1084Y382D01*
X1086Y382D01*
X1086Y402D01*
X1084Y402D01*
X1084Y404D01*
X1082Y404D01*
X1082Y406D01*
X1080Y406D01*
X1080Y408D01*
X1078Y408D01*
X1078Y410D01*
X1076Y410D01*
X1076Y412D01*
X1074Y412D01*
X1074Y414D01*
X1072Y414D01*
X1072Y418D01*
X1070Y418D01*
X1070Y420D01*
X132Y420D01*
G37*
D02*
G36*
X132Y320D02*
X132Y316D01*
X130Y316D01*
X130Y314D01*
X128Y314D01*
X128Y312D01*
X126Y312D01*
X126Y308D01*
X124Y308D01*
X124Y306D01*
X120Y306D01*
X120Y304D01*
X118Y304D01*
X118Y302D01*
X116Y302D01*
X116Y282D01*
X120Y282D01*
X120Y280D01*
X122Y280D01*
X122Y278D01*
X124Y278D01*
X124Y276D01*
X126Y276D01*
X126Y274D01*
X128Y274D01*
X128Y270D01*
X130Y270D01*
X130Y268D01*
X132Y268D01*
X132Y264D01*
X134Y264D01*
X134Y260D01*
X136Y260D01*
X136Y254D01*
X138Y254D01*
X138Y232D01*
X136Y232D01*
X136Y224D01*
X134Y224D01*
X134Y220D01*
X132Y220D01*
X132Y216D01*
X130Y216D01*
X130Y214D01*
X128Y214D01*
X128Y212D01*
X126Y212D01*
X126Y208D01*
X124Y208D01*
X124Y206D01*
X120Y206D01*
X120Y204D01*
X118Y204D01*
X118Y202D01*
X116Y202D01*
X116Y200D01*
X112Y200D01*
X112Y198D01*
X108Y198D01*
X108Y196D01*
X102Y196D01*
X102Y194D01*
X1102Y194D01*
X1102Y196D01*
X1094Y196D01*
X1094Y198D01*
X1090Y198D01*
X1090Y200D01*
X1088Y200D01*
X1088Y202D01*
X1084Y202D01*
X1084Y204D01*
X1082Y204D01*
X1082Y206D01*
X1080Y206D01*
X1080Y208D01*
X1078Y208D01*
X1078Y210D01*
X1076Y210D01*
X1076Y212D01*
X1074Y212D01*
X1074Y214D01*
X1072Y214D01*
X1072Y218D01*
X1070Y218D01*
X1070Y222D01*
X1068Y222D01*
X1068Y226D01*
X1066Y226D01*
X1066Y234D01*
X1064Y234D01*
X1064Y252D01*
X1066Y252D01*
X1066Y258D01*
X1068Y258D01*
X1068Y264D01*
X1070Y264D01*
X1070Y268D01*
X1072Y268D01*
X1072Y270D01*
X1074Y270D01*
X1074Y272D01*
X1076Y272D01*
X1076Y276D01*
X1078Y276D01*
X1078Y278D01*
X1080Y278D01*
X1080Y280D01*
X1084Y280D01*
X1084Y282D01*
X1086Y282D01*
X1086Y302D01*
X1084Y302D01*
X1084Y304D01*
X1082Y304D01*
X1082Y306D01*
X1080Y306D01*
X1080Y308D01*
X1078Y308D01*
X1078Y310D01*
X1076Y310D01*
X1076Y312D01*
X1074Y312D01*
X1074Y314D01*
X1072Y314D01*
X1072Y318D01*
X1070Y318D01*
X1070Y320D01*
X132Y320D01*
G37*
D02*
G36*
X40Y204D02*
X40Y194D01*
X78Y194D01*
X78Y196D01*
X72Y196D01*
X72Y198D01*
X68Y198D01*
X68Y200D01*
X64Y200D01*
X64Y202D01*
X60Y202D01*
X60Y204D01*
X40Y204D01*
G37*
D02*
G36*
X1138Y202D02*
X1138Y200D01*
X1136Y200D01*
X1136Y198D01*
X1132Y198D01*
X1132Y196D01*
X1124Y196D01*
X1124Y194D01*
X1160Y194D01*
X1160Y202D01*
X1138Y202D01*
G37*
D02*
G36*
X40Y194D02*
X40Y192D01*
X1160Y192D01*
X1160Y194D01*
X40Y194D01*
G37*
D02*
G36*
X40Y194D02*
X40Y192D01*
X1160Y192D01*
X1160Y194D01*
X40Y194D01*
G37*
D02*
G36*
X40Y194D02*
X40Y192D01*
X1160Y192D01*
X1160Y194D01*
X40Y194D01*
G37*
D02*
G36*
X40Y192D02*
X40Y136D01*
X1006Y136D01*
X1006Y134D01*
X1018Y134D01*
X1018Y132D01*
X1024Y132D01*
X1024Y130D01*
X1026Y130D01*
X1026Y128D01*
X1030Y128D01*
X1030Y126D01*
X1034Y126D01*
X1034Y124D01*
X1036Y124D01*
X1036Y122D01*
X1038Y122D01*
X1038Y120D01*
X1040Y120D01*
X1040Y118D01*
X1042Y118D01*
X1042Y114D01*
X1044Y114D01*
X1044Y112D01*
X1046Y112D01*
X1046Y108D01*
X1048Y108D01*
X1048Y102D01*
X1050Y102D01*
X1050Y94D01*
X1052Y94D01*
X1052Y82D01*
X1050Y82D01*
X1050Y74D01*
X1048Y74D01*
X1048Y68D01*
X1046Y68D01*
X1046Y64D01*
X1044Y64D01*
X1044Y62D01*
X1042Y62D01*
X1042Y60D01*
X1040Y60D01*
X1040Y40D01*
X1160Y40D01*
X1160Y192D01*
X40Y192D01*
G37*
D02*
G36*
X40Y136D02*
X40Y40D01*
X168Y40D01*
X168Y60D01*
X166Y60D01*
X166Y62D01*
X164Y62D01*
X164Y66D01*
X162Y66D01*
X162Y70D01*
X160Y70D01*
X160Y76D01*
X158Y76D01*
X158Y100D01*
X160Y100D01*
X160Y106D01*
X162Y106D01*
X162Y110D01*
X164Y110D01*
X164Y114D01*
X166Y114D01*
X166Y116D01*
X168Y116D01*
X168Y118D01*
X170Y118D01*
X170Y122D01*
X174Y122D01*
X174Y124D01*
X176Y124D01*
X176Y126D01*
X178Y126D01*
X178Y128D01*
X182Y128D01*
X182Y130D01*
X186Y130D01*
X186Y132D01*
X192Y132D01*
X192Y134D01*
X204Y134D01*
X204Y136D01*
X40Y136D01*
G37*
D02*
G36*
X206Y136D02*
X206Y134D01*
X218Y134D01*
X218Y132D01*
X224Y132D01*
X224Y130D01*
X226Y130D01*
X226Y128D01*
X230Y128D01*
X230Y126D01*
X234Y126D01*
X234Y124D01*
X236Y124D01*
X236Y122D01*
X238Y122D01*
X238Y120D01*
X240Y120D01*
X240Y118D01*
X242Y118D01*
X242Y114D01*
X244Y114D01*
X244Y112D01*
X264Y112D01*
X264Y114D01*
X266Y114D01*
X266Y116D01*
X268Y116D01*
X268Y118D01*
X270Y118D01*
X270Y122D01*
X274Y122D01*
X274Y124D01*
X276Y124D01*
X276Y126D01*
X278Y126D01*
X278Y128D01*
X282Y128D01*
X282Y130D01*
X286Y130D01*
X286Y132D01*
X292Y132D01*
X292Y134D01*
X304Y134D01*
X304Y136D01*
X206Y136D01*
G37*
D02*
G36*
X306Y136D02*
X306Y134D01*
X318Y134D01*
X318Y132D01*
X324Y132D01*
X324Y130D01*
X326Y130D01*
X326Y128D01*
X330Y128D01*
X330Y126D01*
X334Y126D01*
X334Y124D01*
X336Y124D01*
X336Y122D01*
X338Y122D01*
X338Y120D01*
X340Y120D01*
X340Y118D01*
X342Y118D01*
X342Y114D01*
X344Y114D01*
X344Y112D01*
X364Y112D01*
X364Y114D01*
X366Y114D01*
X366Y116D01*
X368Y116D01*
X368Y118D01*
X370Y118D01*
X370Y122D01*
X374Y122D01*
X374Y124D01*
X376Y124D01*
X376Y126D01*
X378Y126D01*
X378Y128D01*
X382Y128D01*
X382Y130D01*
X386Y130D01*
X386Y132D01*
X392Y132D01*
X392Y134D01*
X404Y134D01*
X404Y136D01*
X306Y136D01*
G37*
D02*
G36*
X406Y136D02*
X406Y134D01*
X418Y134D01*
X418Y132D01*
X424Y132D01*
X424Y130D01*
X426Y130D01*
X426Y128D01*
X430Y128D01*
X430Y126D01*
X434Y126D01*
X434Y124D01*
X436Y124D01*
X436Y122D01*
X438Y122D01*
X438Y120D01*
X440Y120D01*
X440Y118D01*
X442Y118D01*
X442Y114D01*
X444Y114D01*
X444Y112D01*
X464Y112D01*
X464Y114D01*
X466Y114D01*
X466Y116D01*
X468Y116D01*
X468Y118D01*
X470Y118D01*
X470Y122D01*
X474Y122D01*
X474Y124D01*
X476Y124D01*
X476Y126D01*
X478Y126D01*
X478Y128D01*
X482Y128D01*
X482Y130D01*
X486Y130D01*
X486Y132D01*
X492Y132D01*
X492Y134D01*
X504Y134D01*
X504Y136D01*
X406Y136D01*
G37*
D02*
G36*
X506Y136D02*
X506Y134D01*
X518Y134D01*
X518Y132D01*
X524Y132D01*
X524Y130D01*
X526Y130D01*
X526Y128D01*
X530Y128D01*
X530Y126D01*
X534Y126D01*
X534Y124D01*
X536Y124D01*
X536Y122D01*
X538Y122D01*
X538Y120D01*
X540Y120D01*
X540Y118D01*
X542Y118D01*
X542Y114D01*
X544Y114D01*
X544Y112D01*
X564Y112D01*
X564Y114D01*
X566Y114D01*
X566Y116D01*
X568Y116D01*
X568Y118D01*
X570Y118D01*
X570Y122D01*
X574Y122D01*
X574Y124D01*
X576Y124D01*
X576Y126D01*
X578Y126D01*
X578Y128D01*
X582Y128D01*
X582Y130D01*
X586Y130D01*
X586Y132D01*
X592Y132D01*
X592Y134D01*
X604Y134D01*
X604Y136D01*
X506Y136D01*
G37*
D02*
G36*
X606Y136D02*
X606Y134D01*
X618Y134D01*
X618Y132D01*
X624Y132D01*
X624Y130D01*
X626Y130D01*
X626Y128D01*
X630Y128D01*
X630Y126D01*
X634Y126D01*
X634Y124D01*
X636Y124D01*
X636Y122D01*
X638Y122D01*
X638Y120D01*
X640Y120D01*
X640Y118D01*
X642Y118D01*
X642Y114D01*
X644Y114D01*
X644Y112D01*
X664Y112D01*
X664Y114D01*
X666Y114D01*
X666Y116D01*
X668Y116D01*
X668Y118D01*
X670Y118D01*
X670Y122D01*
X674Y122D01*
X674Y124D01*
X676Y124D01*
X676Y126D01*
X678Y126D01*
X678Y128D01*
X682Y128D01*
X682Y130D01*
X686Y130D01*
X686Y132D01*
X692Y132D01*
X692Y134D01*
X704Y134D01*
X704Y136D01*
X606Y136D01*
G37*
D02*
G36*
X706Y136D02*
X706Y134D01*
X718Y134D01*
X718Y132D01*
X724Y132D01*
X724Y130D01*
X726Y130D01*
X726Y128D01*
X730Y128D01*
X730Y126D01*
X734Y126D01*
X734Y124D01*
X736Y124D01*
X736Y122D01*
X738Y122D01*
X738Y120D01*
X740Y120D01*
X740Y118D01*
X742Y118D01*
X742Y114D01*
X744Y114D01*
X744Y112D01*
X764Y112D01*
X764Y114D01*
X766Y114D01*
X766Y116D01*
X768Y116D01*
X768Y118D01*
X770Y118D01*
X770Y122D01*
X774Y122D01*
X774Y124D01*
X776Y124D01*
X776Y126D01*
X778Y126D01*
X778Y128D01*
X782Y128D01*
X782Y130D01*
X786Y130D01*
X786Y132D01*
X792Y132D01*
X792Y134D01*
X804Y134D01*
X804Y136D01*
X706Y136D01*
G37*
D02*
G36*
X806Y136D02*
X806Y134D01*
X818Y134D01*
X818Y132D01*
X824Y132D01*
X824Y130D01*
X826Y130D01*
X826Y128D01*
X830Y128D01*
X830Y126D01*
X834Y126D01*
X834Y124D01*
X836Y124D01*
X836Y122D01*
X838Y122D01*
X838Y120D01*
X840Y120D01*
X840Y118D01*
X842Y118D01*
X842Y114D01*
X844Y114D01*
X844Y112D01*
X864Y112D01*
X864Y114D01*
X866Y114D01*
X866Y116D01*
X868Y116D01*
X868Y118D01*
X870Y118D01*
X870Y122D01*
X874Y122D01*
X874Y124D01*
X876Y124D01*
X876Y126D01*
X878Y126D01*
X878Y128D01*
X882Y128D01*
X882Y130D01*
X886Y130D01*
X886Y132D01*
X892Y132D01*
X892Y134D01*
X904Y134D01*
X904Y136D01*
X806Y136D01*
G37*
D02*
G36*
X906Y136D02*
X906Y134D01*
X918Y134D01*
X918Y132D01*
X924Y132D01*
X924Y130D01*
X926Y130D01*
X926Y128D01*
X930Y128D01*
X930Y126D01*
X934Y126D01*
X934Y124D01*
X936Y124D01*
X936Y122D01*
X938Y122D01*
X938Y120D01*
X940Y120D01*
X940Y118D01*
X942Y118D01*
X942Y114D01*
X944Y114D01*
X944Y112D01*
X964Y112D01*
X964Y114D01*
X966Y114D01*
X966Y116D01*
X968Y116D01*
X968Y118D01*
X970Y118D01*
X970Y122D01*
X974Y122D01*
X974Y124D01*
X976Y124D01*
X976Y126D01*
X978Y126D01*
X978Y128D01*
X982Y128D01*
X982Y130D01*
X986Y130D01*
X986Y132D01*
X992Y132D01*
X992Y134D01*
X1004Y134D01*
X1004Y136D01*
X906Y136D01*
G37*
D02*
G36*
X1089Y226D02*
X1134Y226D01*
X1134Y194D01*
X1089Y194D01*
X1089Y226D01*
G37*
D02*
G36*
X1060Y267D02*
X1092Y267D01*
X1092Y222D01*
X1060Y222D01*
X1060Y267D01*
G37*
D02*
G36*
X1130Y267D02*
X1160Y267D01*
X1160Y222D01*
X1130Y222D01*
X1130Y267D01*
G37*
D02*
G36*
X65Y226D02*
X110Y226D01*
X110Y194D01*
X65Y194D01*
X65Y226D01*
G37*
D02*
G36*
X36Y267D02*
X68Y267D01*
X68Y222D01*
X36Y222D01*
X36Y267D01*
G37*
D02*
G36*
X106Y267D02*
X138Y267D01*
X138Y222D01*
X106Y222D01*
X106Y267D01*
G37*
D02*
G36*
X680Y934D02*
X723Y934D01*
X723Y910D01*
X680Y910D01*
X680Y934D01*
G37*
D02*
G36*
X680Y872D02*
X723Y872D01*
X723Y842D01*
X680Y842D01*
X680Y872D01*
G37*
D02*
G36*
X720Y912D02*
X752Y912D01*
X752Y869D01*
X720Y869D01*
X720Y912D01*
G37*
D02*
G04 End of Copper0*
M02*