<?xml version="1.0" encoding="UTF-8" standalone="no"?>
<!-- Created with Inkscape (http://www.inkscape.org/) -->
<svg
   xmlns:dc="http://purl.org/dc/elements/1.1/"
   xmlns:cc="http://creativecommons.org/ns#"
   xmlns:rdf="http://www.w3.org/1999/02/22-rdf-syntax-ns#"
   xmlns:svg="http://www.w3.org/2000/svg"
   xmlns="http://www.w3.org/2000/svg"
   xmlns:sodipodi="http://sodipodi.sourceforge.net/DTD/sodipodi-0.dtd"
   xmlns:inkscape="http://www.inkscape.org/namespaces/inkscape"
   version="1.0"
   width="645.05713"
   height="611.42859"
   id="svg1901"
   sodipodi:version="0.32"
   inkscape:version="0.46"
   sodipodi:docname="Gray1216 modern locations.svg"
   inkscape:output_extension="org.inkscape.output.svg.inkscape">
  <metadata
     id="metadata34">
    <rdf:RDF>
      <cc:Work
         rdf:about="">
        <dc:format>image/svg+xml</dc:format>
        <dc:type
           rdf:resource="http://purl.org/dc/dcmitype/StillImage" />
      </cc:Work>
    </rdf:RDF>
  </metadata>
  <sodipodi:namedview
     inkscape:window-height="713"
     inkscape:window-width="1135"
     inkscape:pageshadow="2"
     inkscape:pageopacity="0.0"
     guidetolerance="10.0"
     gridtolerance="10.0"
     objecttolerance="10.0"
     borderopacity="1.0"
     bordercolor="#666666"
     pagecolor="#ffffff"
     id="base"
     showgrid="false"
     inkscape:zoom="3.2579438"
     inkscape:cx="300.48884"
     inkscape:cy="304.39597"
     inkscape:window-x="0"
     inkscape:window-y="0"
     inkscape:current-layer="svg1901" />
  <defs
     id="defs1903">
    <inkscape:perspective
       sodipodi:type="inkscape:persp3d"
       inkscape:vp_x="0 : 305.71429 : 1"
       inkscape:vp_y="0 : 1000 : 0"
       inkscape:vp_z="645.05713 : 305.71429 : 1"
       inkscape:persp3d-origin="322.52856 : 203.80953 : 1"
       id="perspective36" />
  </defs>
  <path
     id="path2179"
     style="opacity:1;fill:#b7e0f5;fill-opacity:1;stroke:#2a6dbc;stroke-width:3;stroke-miterlimit:4;stroke-dasharray:none;stroke-dashoffset:0;stroke-opacity:1"
     d="M 343.57143,267.85716 C 356.0429,283.46294 358.54858,300.59689 357.85714,317.14287 C 357.59286,327.81577 357.7803,346.18749 369.64286,364.64287 C 387.64165,392.49371 401.83938,419.22141 457.85714,468.57145 C 467.6941,477.01614 481.90408,481.06398 484.28571,460.00002 C 486.76881,444.76192 488.43985,429.52383 487.14286,414.28573 C 441.21426,361.09317 408.09068,261.89764 343.57143,267.85716 z" />
  <path
     id="path3309"
     style="opacity:1;fill:#caa3bb;fill-opacity:1;stroke:#2a6dbc;stroke-width:3;stroke-miterlimit:4;stroke-dasharray:none;stroke-dashoffset:0;stroke-opacity:1"
     d="M 387.5,106.78573 C 379.46594,100.0311 366.7355,92.25527 361.07143,107.85716 C 356.00712,130.47621 348.3788,153.09525 335.71429,175.7143 C 330.96398,186.24648 327.4565,215.47457 328.92857,237.14287 C 328.39639,253.87253 340.78797,274.07844 360.71429,282.50002 C 397.10446,299.18825 413.3077,336.83673 376.42857,354.28573 C 404.847,386.14716 438.60409,414.61126 487.85714,433.2143 C 497.41565,355.19111 491.4665,277.90637 461.07143,201.78573 C 449.55614,175.46937 432.42159,152.35196 420.35714,139.28573 L 387.5,106.78573 z" />
  <path
     id="path2182"
     style="opacity:1;fill:none;fill-opacity:0.16733069;stroke:#2a6dbc;stroke-width:3;stroke-miterlimit:4;stroke-dasharray:none;stroke-dashoffset:0;stroke-opacity:1"
     d="M 487.90368,306.8676 C 467.84556,338.07057 433.01018,357.78013 401.53564,380.10366" />
  <path
     id="path2184"
     style="opacity:1;fill:#caa3bb;fill-opacity:1;stroke:#2a6dbc;stroke-width:3;stroke-miterlimit:4;stroke-dasharray:none;stroke-dashoffset:0;stroke-opacity:1"
     d="M 291.625,95.343751 C 286.98809,94.985701 280.59287,97.277841 273.75,100.28125 C 247.07355,115.84196 220.22653,134.03502 190.90625,193.21875 C 180.76703,216.93848 170.54555,240.62405 165.65625,266.96875 C 159.62932,312.79073 151.65016,357.82732 153.0625,406.625 C 175.36163,407.1339 196.14447,398.07292 215.8125,388.46875 C 239.67372,377.02267 261.56438,362.08014 282.875,346.5 C 297.24502,335.75716 311.12869,320.24832 322.47768,306.37054 C 327.21221,254.70787 333.92847,217.70553 318.1875,166.96875 C 309.30007,146.7657 298.86187,126.5468 299,106.34375 C 299.1367,98.711621 296.26191,95.701801 291.625,95.343751 z" />
  <path
     id="path3192"
     style="opacity:1;fill:none;fill-opacity:0.21513947;stroke:#2a6dbc;stroke-width:3;stroke-miterlimit:4;stroke-dashoffset:0;stroke-opacity:1"
     d="M 164.65486,277.0681 C 214.41089,306.29395 268.28145,300.13482 324.76404,271.51226 M 161.11933,297.77622 C 179.41054,322.55209 207.9064,339.67449 238.71996,355.0586" />
  <path
     id="path2192"
     style="opacity:1;fill:#b7e0f5;fill-opacity:1;stroke:#2a6dbc;stroke-width:3;stroke-miterlimit:4;stroke-dasharray:none;stroke-dashoffset:0;stroke-opacity:1"
     d="M 154.28571,402.14287 C 153.75215,423.93468 156.48943,443.68221 163.57143,460.7143 C 217.87556,467.83611 275.97411,399.53312 306.42857,358.57145 C 317.65186,341.00167 319.10204,324.51778 322.14286,307.85716 L 154.28571,402.14287 z" />
  <path
     id="path2218"
     style="opacity:1;fill:none;fill-opacity:0.32270915;fill-rule:nonzero;stroke:#000000;stroke-width:2;stroke-miterlimit:4;stroke-opacity:1"
     d="M 404.28571,23.571445 C 403.31641,39.482977 402.71684,55.246614 406.42857,69.285731 M 404.06102,37.661943 C 407.20968,48.948433 414.38714,57.011881 424.26407,62.915756 C 435.24273,68.796531 442.50601,75.915769 449.51788,83.118807 C 455.5487,90.159071 472.90517,88.595931 488.91383,96.250791 C 501.24856,103.42074 514.74753,111.51517 525.7844,110.898 C 550.16092,112.39562 581.32025,148.24425 593.46462,177.06299 L 613.66767,230.096 C 622.58856,253.69703 624.60682,277.87966 620.73874,302.82699 C 612.97537,334.97346 632.12264,362.97984 639.93164,392.73056 M 258.09398,59.380222 C 257.33097,47.049387 256.39798,34.321932 257.5889,26.550264 M 257.08382,38.167019 C 253.64729,44.399552 248.7302,48.904777 242.43661,51.804078 C 234.19632,54.789669 222.51718,65.095614 214.15234,73.017282 C 203.14746,84.120802 178.81228,84.603857 168.87405,88.378781 C 155.721,93.754211 142.31286,98.747001 127.27922,101.30155 C 107.24744,105.79411 77.00532,132.85887 65.659915,156.35487 C 59.21207,170.25498 52.438059,193.16747 37.375644,225.55032 C 25.733499,253.27576 34.005051,289.81324 30.809653,310.90821 C 28.500837,327.35934 20.344824,339.42508 14.647212,353.33461 M 419.28571,354.28573 C 475.75186,355.92946 525.27878,340.58405 554.28571,275.00002 M 545.35714,447.50002 C 533.41961,427.45688 522.0265,407.14153 515.71429,384.28573 M 520,324.28573 L 514.64286,397.14287 C 514.65259,414.58091 512.29699,432.07458 509.28572,450.35716 C 506.48337,470.11906 506.53548,497.38097 503.57143,520.7143 C 497.69533,544.26435 507.08626,575.44791 513.92857,605.35716 M 102.85714,273.2143 C 119.72102,320.72297 166.71713,341.30497 228.21429,348.92859 M 98.571426,429.28573 C 110.95381,413.23043 122.61748,396.54627 127.5,373.92859 M 126.78571,309.28573 C 124.29714,348.25735 128.52624,384.5419 130.35714,421.78573 L 134.28571,473.2143 C 135.21589,483.69049 131.12834,506.66668 133.21429,516.42859 C 136.21682,535.13224 135.70993,552.43831 129.28572,566.78573 C 123.12105,577.52583 121.84332,593.15286 119.28571,607.50002" />
  <path
     id="path3233"
     style="opacity:1;fill:none;fill-opacity:0.16733069;stroke:#000000;stroke-width:2;stroke-miterlimit:4;stroke-dasharray:none;stroke-opacity:1"
     d="M 330.71429,568.57145 C 330.8257,566.58122 331.37772,564.37069 328.75,563.75002 C 322.04883,563.58051 319.16109,559.13335 315.35714,562.32145 C 311.54078,564.17007 308.55055,569.65984 311.96429,571.60716 C 317.54311,573.82799 321.10496,576.14524 327.14286,572.85716 L 330.35714,571.07145 L 334.64286,571.42859" />
  <path
     id="path3235"
     style="opacity:1;fill:none;fill-opacity:0.16733069;stroke:#000000;stroke-width:2;stroke-miterlimit:4;stroke-dasharray:none;stroke-opacity:1"
     d="M 318.57143,569.82145 L 319.10714,566.42859" />
  <path
     id="path3237"
     style="opacity:1;fill:none;fill-opacity:0.16733069;stroke:#000000;stroke-width:2;stroke-miterlimit:4;stroke-dasharray:none;stroke-opacity:1"
     d="M 323.21429,571.42859 L 325.17857,567.85716" />
  <path
     id="path3216"
     style="opacity:1;fill:none;fill-opacity:0.16733069;stroke:#000000;stroke-width:2;stroke-miterlimit:4;stroke-dasharray:2, 4;stroke-dashoffset:0;stroke-opacity:1"
     d="M 299.28571,73.214302 C 305.74976,93.006571 313.6135,119.47817 321.78571,135.00002 M 332.14286,137.14288 C 346.48146,126.6534 355.4613,96.160701 364.64286,75.357159 M 435.37575,134.63659 L 445.98235,150.29395 C 453.19521,157.87153 460.39251,165.48284 463.66002,181.60868 C 480.07094,196.92504 483.86857,219.03317 482.85292,243.73306 C 494.40376,260.5197 497.73025,278.80168 494.46967,298.2813 C 496.9493,305.39812 496.40914,312.75681 496.99505,321.76735 C 501.29049,339.19215 503.10835,359.31589 498.00521,378.08335 C 502.91842,394.08286 498.20523,412.14516 493.96459,430.10621 C 493.02894,446.10029 492.17342,462.09437 483.35799,478.08845 C 481.08749,494.63087 474.00486,508.76722 463.66002,521.27247 C 453.42546,533.47917 443.75672,532.16425 432.85037,523.54532 C 412.26888,503.68402 398.73977,479.41498 388.90873,452.83464 C 360.00176,419.02702 353.4985,393.83613 350.52293,370.00213 L 338.4011,354.34477 C 334.1322,367.46886 331.82886,383.1192 323.75389,383.13411 C 315.13753,383.63048 311.20149,368.00579 308.6016,347.77877 C 302.24677,355.75725 294.42778,370.22792 291.93409,380.10366 C 281.77998,413.94063 261.95663,441.00914 238.396,465.46155 L 244.96199,460.41078 C 235.18351,480.33352 222.06412,496.11881 206.5762,512.93872 C 196.25405,523.82374 188.69762,523.93138 178.797,515.96917 C 163.16024,499.8977 156.43227,481.01292 153.54319,460.91586 L 146.9772,414.44884 C 145.17748,397.31689 143.94279,379.2023 146.72465,361.41584 C 147.87498,346.69676 143.44981,327.09932 150.00765,318.98943 C 151.16376,307.85087 151.69772,295.96572 156.06857,288.68485 C 155.73175,268.20816 157.82822,249.1002 168.1904,234.64169 C 169.17288,213.37929 171.94082,193.22217 186.87822,180.59853 C 193.04562,167.53466 199.01104,154.23515 209.10158,145.74827 C 210.87312,139.56297 214.75959,134.43513 219.2031,129.58582 M 249.0026,133.62643 C 256.07646,145.62095 271.64929,154.42835 289.4087,162.41578 C 303.07374,171.34054 305.87985,179.58662 297.995,187.16452 C 290.11496,194.18017 198.60879,180.9865 230.02942,133.45748 M 210.11173,145.24319 C 197.32257,180.6866 252.37567,210.13652 294.96454,204.33711 C 306.08704,203.09887 312.01371,212.68395 299.00515,219.99448 C 258.38352,245.98917 207.88092,214.68784 202.03051,201.81173 C 197.46571,190.06926 194.06479,169.85657 208.09142,158.88025 M 187.3833,179.0833 C 175.47951,223.79343 218.67656,242.62617 247.99245,248.78382 C 261.21374,249.73244 274.51324,249.74255 288.39855,242.72291 C 299.16249,237.44015 302.68323,245.85752 297.48992,253.83459 C 277.61415,276.25022 254.90078,285.61292 228.29448,277.0681 C 197.50089,269.99913 169.31921,236.36393 184.35284,197.26605 M 168.1904,234.64169 C 180.01734,291.82093 244.62859,317.42714 284.35794,285.52813 C 293.86899,279.60792 299.21261,293.09124 292.43916,297.27115 C 262.13458,318.51014 231.83001,337.77245 201.52543,322.01988 C 156.37613,296.42935 165.81126,266.29313 170.71578,245.24829 M 155.56349,288.68485 C 175.38731,354.71258 236.70928,361.51966 281.83256,324.54527 C 289.95401,317.55082 297.60079,321.03086 290.41886,331.11126 C 249.17544,377.46948 216.96643,374.13842 186.37314,361.92091 C 164.43478,345.52678 158.36408,325.6065 160.61425,303.83714 M 149.50258,319.99958 C 155.94757,346.30791 170.41467,396.06572 232.84016,387.17472 C 244.37256,386.09195 244.02654,393.59963 239.91123,397.78133 C 218.77957,419.86302 156.181,411.80812 154.55334,344.74832 M 146.47212,360.91076 C 151.16335,380.70812 160.20616,429.76096 216.93026,427.58082 C 226.48169,427.62377 234.15434,432.72043 222.73864,441.72296 C 197.11688,454.39179 152.02571,435.96772 151.52289,383.38665 M 147.73481,414.95392 C 159.83914,435.12404 167.17338,466.0129 204.30335,461.1684 C 212.64084,459.97102 221.13296,462.35672 213.64726,472.53261 C 184.46433,500.70534 163.77939,464.65206 156.32111,433.64174 M 172.85714,491.78573 C 182.85905,514.57991 193.70299,509.587 204.64286,501.42859 C 210.15921,495.93232 208.39514,491.57626 201.42857,495.35716 C 179.16856,506.12679 165.31359,486.93066 153.92857,458.92859 M 301.78571,181.07145 C 308.97909,187.8762 314.00824,195.28212 304.28571,206.78573 M 292.5,321.42859 C 296.51894,312.73811 295.9272,304.04764 294.28571,295.35716 M 301.07143,336.78573 C 288.56613,349.42541 277.49104,362.92321 262.85714,374.28573 C 257.12901,378.72139 264.98277,383.13178 267.85714,381.07145 C 285.95036,368.39007 295.81136,353.26952 301.07143,336.78573 z M 309.10714,345.7143 C 309.81352,336.67802 305.12586,337.05973 301.42857,336.78573 C 301.46929,330.19027 299.12499,325.76301 293.92857,323.92859 M 154.64286,100.7143 C 161.74476,103.41335 169.41387,105.8288 182.14286,105.7143 C 187.05279,104.0026 203.20968,114.7001 231.42857,117.85716 C 247.53615,121.52853 260.15348,119.38281 273.57143,118.57145 C 283.85713,119.5286 297.50668,119.14021 303.57143,121.78573 C 309.60526,125.22182 309.91797,132.15928 305,136.07145 C 300.03928,140.91554 295.80029,140.70751 291.78571,138.92859 C 289.15378,131.87655 276.48782,133.74365 265.71429,133.92859 C 243.84737,135.62278 227.22581,134.25718 216.78571,129.28573 C 195.58439,121.8317 175.61704,115.92012 158.21429,113.2143 M 469.72093,496.2712 C 459.47245,524.48301 438.70463,520.76871 418.70823,492.23059 C 448.76476,521.43466 469.94456,498.71416 482.34784,479.09861 M 484.87322,447.78388 C 482.89074,465.03138 469.67728,480.03268 447.49758,493.24074 C 440.96948,491.91067 434.52102,490.262 429.31483,483.64429 C 422.61152,473.72886 425.30582,465.64796 434.3656,468.99708 C 466.68933,474.62415 482.75978,451.43643 492.95444,431.62144 M 496.99505,378.58843 C 492.61919,409.49715 466.272,439.45855 422.74884,435.66205 C 407.21851,434.30485 416.45578,451.00884 425.27422,453.33972 C 457.24327,455.13672 484.80157,448.34436 491.43921,400.81178 M 496.48998,321.51481 C 493.68823,353.62171 480.38594,404.17568 415.67777,394.24579 C 390.92808,386.80376 398.59007,405.27371 408.10163,411.92346 C 428.07576,427.86909 488.83613,412.73936 492.44936,347.77878 M 402.84165,464.95647 C 399.5724,463.63708 395.90945,460.45886 389.94952,453.75813 M 362.85714,388.2143 C 366.31933,403.68755 374.51401,417.74105 387.5,430.35716 C 394.64743,437.59579 398.91516,431.79649 392.85714,422.85716 C 374.68881,406.61168 363.50384,388.03842 350.71429,370.00002 M 493.21429,297.14287 C 473.75476,363.6432 407.73251,363.68335 367.14286,329.64287 C 348.07951,316.05571 354.12641,327.5788 363.21429,342.14287 C 410.53875,391.74619 479.55413,394.89193 488.21429,312.85716 M 482.5,243.57145 C 472.35604,290.5205 419.7409,329.34176 367.14286,290.35716 C 362.28533,285.617 343.39789,286.16541 361.78571,305.35716 C 419.80636,361.42892 500.41652,331.44672 478.92857,255.7143 M 464.28571,183.2143 C 480.75495,227.76976 428.75891,268.13837 366.42857,247.50002 C 350.46459,240.81834 349.34733,257.08868 361.07143,267.50002 C 408.83479,309.11751 493.58936,270.66513 466.78571,202.50002 M 445,150.00002 C 458.59413,193.34179 400.78164,215.03373 363.57143,207.50002 C 354.0359,204.75625 340.3768,211.84901 358.57143,225.00002 C 396.13914,244.84267 478.5462,227.24531 446.42857,169.28573 M 353.57143,184.64287 C 347.17079,187.86882 344.31204,199.5194 351.78571,208.57145 M 244.96199,280.09855 C 252.75692,285.26087 250.45231,294.17932 247.23484,299.54399 M 236.3757,345.50593 C 239.04386,338.37812 242.19733,331.12899 239.65869,325.30288 M 189.4036,482.63414 C 186.82213,486.92734 184.11758,491.0359 182.83761,497.28135 M 201.27289,446.01611 L 196.22213,461.92601 M 185.36299,507.38288 C 183.70372,510.52183 182.30893,513.92527 181.32238,517.73694 M 214.90995,408.64047 C 211.21171,414.19914 207.86786,419.93499 206.82873,426.82321 M 230,116.78573 C 236.68279,113.28498 243.38839,109.7158 248.21429,111.78573 C 249.10404,100.65305 259.45273,94.775341 268.57143,88.214301 L 281.42857,83.571445 C 284.56102,79.070012 288.42176,79.666614 292.5,81.785731 C 295.6538,85.378601 301.16212,85.047281 307.14286,83.928588 C 315.21339,84.30969 315.11462,94.207101 310.35714,96.428591 C 304.16666,97.214451 299.40476,92.842461 291.78571,90.000021 C 286.13561,88.247251 263.62167,97.378141 266.07143,118.57145 M 308.21429,127.85716 C 329.10062,144.14643 339.28442,136.11178 350,129.28573 M 397.85714,149.28573 C 383.7267,155.7143 370.91653,162.14288 359.64286,168.57145 C 356.09572,175.2946 348.14995,182.56759 358.92857,187.50002 C 370.60563,192.1498 374.65704,191.71582 381.07143,192.85716 C 387.27078,189.05651 394.8721,186.65783 403.92857,185.7143 C 422.43319,179.47329 435.49749,171.05615 430.35714,155.35716 M 495,124.64287 C 477.85714,122.94435 461.78572,131.41652 443.57143,133.57145 C 421.48673,135.10689 404.16319,141.16599 388.21429,140.35716 C 376.30031,139.66573 365.79478,140.03063 361.42857,145.00002 C 353.26102,146.14773 346.5984,137.26203 348.57143,129.28573 C 358.10434,118.33584 373.93874,120.88916 390,123.92859 C 413.24056,125.8851 436.14538,125.65926 457.5,115.35716 C 469.74085,112.98999 481.84484,109.93852 495,112.14287 M 425.35714,123.2143 C 420.53227,119.46774 415.28711,116.14147 408.57143,114.28573 C 407.47919,100.97321 397.21646,96.831171 388.92857,90.714301 C 385.26001,90.529521 382.0023,89.112141 379.28571,86.071441 C 373.47615,85.237911 367.41132,83.12806 362.5,86.785731 C 357.14286,85.193331 351.78571,83.651914 346.42857,88.571441 C 344.79639,102.20095 357.82234,94.509511 365.71429,94.285731 C 387.81122,92.942201 394.07793,105.98978 395.35714,123.57145 M 396.78571,162.14287 C 385.51765,155.63458 377.22751,148.53071 370.71429,141.07145 M 271.78571,153.92859 C 277.63931,147.86391 282.00343,141.30275 285,134.28573 M 454.28571,515.35716 L 457.85714,525.35716 M 447.14286,493.2143 L 450.71429,505.00002 M 431.07143,417.14287 C 433.01361,422.58164 434.71887,428.25734 435.71429,434.64287 M 419.64286,375.35716 L 425.71429,394.64287 M 408.92857,349.64287 C 409.92697,342.15188 407.82315,336.72903 406.07143,331.07145 M 396.78571,283.92859 L 400.35714,304.64287 M 388.57143,232.14287 L 390.71429,251.78573 M 439.28572,453.92859 L 441.78572,468.92859 M 282.85714,382.85716 C 274.3651,397.46034 267.95095,413.2509 253.21429,424.28573 C 246.65658,427.91373 249.07134,419.19329 252.5,417.32145 C 261.76962,411.34895 268.56933,402.28907 276.07143,394.10716" />
  <path
     id="path3241"
     style="opacity:1;fill:none;fill-opacity:0.16733069;stroke:#d00000;stroke-width:4;stroke-miterlimit:4;stroke-opacity:1"
     d="M 343.57143,219.28573 C 371.982,236.8612 415.16937,294.14637 416.42857,332.14287 C 415.08997,343.05572 422.55605,364.08303 404.64286,357.50002 C 382.73923,346.23973 351.54199,349.58369 323.57143,347.85716 C 291.80777,346.29285 283.28024,319.31404 281.78571,284.64287 C 281.18616,262.87752 287.36139,244.38913 291.07143,228.2143 C 294.86763,212.66097 296.55198,197.45961 294.64286,182.85716 M 337.85714,232.14287 L 349.64286,232.14287 M 333.57143,246.07145 C 336.21865,242.52819 339.38575,239.50482 343.92857,237.85716 M 325,270.35716 L 347.14286,252.14287 M 307.85714,317.50002 L 321.42857,276.07145" />
  <path
     id="path3196"
     style="opacity:1;fill:#ffffff;fill-opacity:1;stroke:#000000;stroke-width:1.99999988;stroke-miterlimit:4;stroke-dasharray:none;stroke-dashoffset:0;stroke-opacity:1"
     d="M 350.20912,220.247 C 350.20912,225.65261 345.82701,230.03471 340.42141,230.03471 C 335.0158,230.03471 330.6337,225.65261 330.6337,220.247 C 330.6337,214.8414 335.0158,210.45929 340.42141,210.45929 C 345.82701,210.45929 350.20912,214.8414 350.20912,220.247 z" />
  <g
     id="g2442"
     transform="translate(38.060816,1.2277683)">
    <path
       d="M 335.56626,298.81844 C 335.56626,304.22404 331.18416,308.60615 325.77855,308.60615 C 320.37295,308.60615 315.99084,304.22404 315.99084,298.81844 C 315.99084,293.41283 320.37295,289.03073 325.77855,289.03073 C 331.18416,289.03073 335.56626,293.41283 335.56626,298.81844 z"
       style="opacity:1;fill:#ffffff;fill-opacity:1;stroke:#000000;stroke-width:1.99999988;stroke-miterlimit:4;stroke-dasharray:none;stroke-dashoffset:0;stroke-opacity:1"
       id="path3204" />
    <text
       x="320.32541"
       y="304.65048"
       style="font-size:32px;font-style:normal;font-weight:normal;line-height:125%;opacity:1;fill:#000000;fill-opacity:1;stroke:none;stroke-width:1px;stroke-linecap:butt;stroke-linejoin:miter;stroke-opacity:1;font-family:Bitstream Vera Sans"
       id="text2194"
       xml:space="preserve"
       sodipodi:linespacing="125%"><tspan
         x="320.32541"
         y="304.65048"
         style="font-size:16px;font-style:normal;font-variant:normal;font-weight:bold;font-stretch:normal;text-align:start;line-height:125%;writing-mode:lr-tb;text-anchor:start;font-family:Bitstream Vera Sans"
         id="tspan2196">T</tspan></text>
  </g>
  <text
     sodipodi:linespacing="125%"
     xml:space="preserve"
     id="text2198"
     style="font-size:32px;font-style:normal;font-weight:normal;line-height:125%;opacity:1;fill:#000000;fill-opacity:1;stroke:none;stroke-width:1px;stroke-linecap:butt;stroke-linejoin:miter;stroke-opacity:1;font-family:Bitstream Vera Sans"
     y="226.07903"
     x="334.15186"><tspan
       id="tspan2200"
       style="font-size:16px;font-style:normal;font-variant:normal;font-weight:bold;font-stretch:normal;text-align:start;line-height:125%;writing-mode:lr-tb;text-anchor:start;font-family:Bitstream Vera Sans"
       y="226.07903"
       x="334.15186">P</tspan></text>
  <path
     id="path3200"
     style="opacity:1;fill:#ffffff;fill-opacity:1;stroke:#000000;stroke-width:1.99999988;stroke-miterlimit:4;stroke-dasharray:none;stroke-dashoffset:0;stroke-opacity:1"
     d="M 331.28055,245.96129 C 331.28055,251.36689 326.89844,255.749 321.49284,255.749 C 316.08723,255.749 311.70513,251.36689 311.70513,245.96129 C 311.70513,240.55568 316.08723,236.17358 321.49284,236.17358 C 326.89844,236.17358 331.28055,240.55568 331.28055,245.96129 z" />
  <text
     sodipodi:linespacing="125%"
     xml:space="preserve"
     id="text2202"
     style="font-size:32px;font-style:normal;font-weight:normal;line-height:125%;opacity:1;fill:#000000;fill-opacity:1;stroke:none;stroke-width:1px;stroke-linecap:butt;stroke-linejoin:miter;stroke-opacity:1;font-family:Bitstream Vera Sans"
     y="251.79333"
     x="315.30142"><tspan
       id="tspan2204"
       style="font-size:16px;font-style:normal;font-variant:normal;font-weight:bold;font-stretch:normal;text-align:start;line-height:125%;writing-mode:lr-tb;text-anchor:start;font-family:Bitstream Vera Sans"
       y="251.79333"
       x="315.30142">A</tspan></text>
  <path
     id="path3202"
     style="fill:#ffffff;fill-opacity:1;stroke:#000000;stroke-width:1.99999988;stroke-miterlimit:4;stroke-dasharray:none;stroke-dashoffset:0;stroke-opacity:1"
     d="M 414.20841,358.61284 C 414.20841,364.01845 409.8263,368.40056 404.4207,368.40056 C 399.01509,368.40056 394.63299,364.01845 394.63299,358.61284 C 394.63299,353.20724 399.01509,348.82513 404.4207,348.82513 C 409.8263,348.82513 414.20841,353.20724 414.20841,358.61284 z" />
  <text
     sodipodi:linespacing="125%"
     xml:space="preserve"
     id="text2206"
     style="font-size:32px;font-style:normal;font-weight:normal;line-height:125%;fill:#000000;fill-opacity:1;stroke:none;stroke-width:1px;stroke-linecap:butt;stroke-linejoin:miter;stroke-opacity:1;font-family:Bitstream Vera Sans"
     y="364.44489"
     x="396.46365"><tspan
       id="tspan2208"
       style="font-size:16px;font-style:normal;font-variant:normal;font-weight:bold;font-stretch:normal;text-align:start;line-height:125%;writing-mode:lr-tb;text-anchor:start;font-family:Bitstream Vera Sans"
       y="364.44489"
       x="396.46365">M</tspan></text>
  <path
     id="path2210"
     style="opacity:1;fill:#000000;fill-opacity:0.32270915;stroke:#000000;stroke-width:2;stroke-miterlimit:4;stroke-dasharray:2, 4;stroke-dashoffset:0;stroke-opacity:1"
     d="M 209.10157,303.58459 C 209.10157,309.58193 204.23977,314.44373 198.24243,314.44373 C 192.24509,314.44373 187.38329,309.58193 187.38329,303.58459 C 187.38329,297.58725 192.24509,292.72545 198.24243,292.72545 C 204.23977,292.72545 209.10157,297.58725 209.10157,303.58459 L 209.10157,303.58459 z" />
  <path
     id="path2212"
     style="opacity:1;fill:none;fill-opacity:0.16733069;stroke:#000000;stroke-width:2;stroke-miterlimit:4;stroke-dasharray:2, 4;stroke-dashoffset:0;stroke-opacity:1"
     d="M 201.27289,303.83713 C 201.27289,305.65028 199.91611,307.12013 198.24243,307.12013 C 196.56875,307.12013 195.21197,305.65028 195.21197,303.83713 C 195.21197,302.02398 196.56875,300.55413 198.24243,300.55413 C 199.91611,300.55413 201.27289,302.02398 201.27289,303.83713 L 201.27289,303.83713 z" />
  <path
     id="path3187"
     style="opacity:1;fill:#000000;fill-opacity:0.32270915;stroke:#000000;stroke-width:2;stroke-miterlimit:4;stroke-dasharray:1.99999996, 3.99999992;stroke-dashoffset:0;stroke-opacity:1"
     d="M 462.90239,311.16075 C 462.90492,317.71787 457.87278,323.03486 451.66445,323.03486 C 445.45611,323.03486 440.42398,317.71787 440.4265,311.16075 C 440.42398,304.60364 445.45611,299.28665 451.66445,299.28665 C 457.87278,299.28665 462.90492,304.60364 462.90239,311.16075 z" />
  <path
     id="path3189"
     style="opacity:1;fill:none;fill-opacity:0.16733069;stroke:#000000;stroke-width:2;stroke-miterlimit:4;stroke-dasharray:2, 4;stroke-dashoffset:0;stroke-opacity:1"
     d="M 455.57881,310.9082 C 455.58024,312.17221 454.85855,313.34077 453.68593,313.97316 C 452.51331,314.60555 451.06817,314.60555 449.89555,313.97316 C 448.72293,313.34077 448.00124,312.17221 448.00267,310.9082 C 448.00124,309.64419 448.72293,308.47563 449.89555,307.84324 C 451.06817,307.21085 452.51331,307.21085 453.68593,307.84324 C 454.85855,308.47563 455.58024,309.64419 455.57881,310.9082 z" />
</svg>
